<?xml version="1.0" encoding="utf-8"?>
<!-- Generator: Adobe Illustrator 24.2.0, SVG Export Plug-In . SVG Version: 6.00 Build 0)  -->
<svg version="1.1" xmlns="http://www.w3.org/2000/svg" xmlns:xlink="http://www.w3.org/1999/xlink" x="0px" y="0px"
	 viewBox="0 0 500 500" style="enable-background:new 0 0 500 500;" xml:space="preserve">
<style type="text/css">
	.st0{opacity:0.45;}
	.st1{fill:#907FCC;}
	.st2{fill:none;stroke:#907FCC;stroke-miterlimit:10;}
	.st3{opacity:0.29;}
	.st4{opacity:0.29;fill:#575757;enable-background:new    ;}
	
		.st5{opacity:0.29;fill:none;stroke:#575757;stroke-linecap:round;stroke-linejoin:round;stroke-miterlimit:10;enable-background:new    ;}
	.st6{opacity:0.29;fill:none;stroke:#575757;stroke-miterlimit:10;enable-background:new    ;}
	.st7{fill:#F1F1F1;}
	.st8{fill:#BEB0DE;}
	.st9{fill:none;stroke:#F3F3F3;stroke-linecap:round;stroke-linejoin:round;stroke-miterlimit:10;}
	.st10{fill:#B3ABD2;}
	.st11{fill:#D2CCE7;}
	.st12{fill:#C2AFF6;}
	.st13{fill:none;stroke:#C6ABFA;stroke-miterlimit:10;}
	.st14{fill:#C6ABFA;}
	.st15{fill:#938CB8;}
	.st16{fill:none;stroke:#8D73CC;stroke-miterlimit:10;}
	.st17{fill:#8D73CC;}
	.st18{fill:#EBEBEB;}
	.st19{fill:#FFFFFF;}
	.st20{fill:url(#SVGID_1_);}
</style>
<g id="BACKGROUND">
</g>
<g id="OBJECTS">
	<g class="st0">
		<path class="st1" d="M135.5,177v-4.6h-3.8c-0.3-1.3-0.8-2.5-1.5-3.6l2.7-2.7l-3.2-3.2l-2.7,2.7c-1.1-0.7-2.3-1.2-3.6-1.5v-3.8
			h-4.5v3.8c-1.3,0.3-2.5,0.8-3.6,1.5l-2.7-2.7l-3.2,3.2l2.7,2.7c-0.7,1.1-1.2,2.3-1.5,3.6h-3.8v4.5h3.8c0.3,1.3,0.8,2.5,1.5,3.6
			l-2.7,2.7l3.2,3.2l2.7-2.7c1.1,0.7,2.3,1.2,3.6,1.5v3.8h4.5v-3.8c1.3-0.3,2.5-0.8,3.6-1.5l2.7,2.7l3.2-3.2l-2.7-2.7
			c0.7-1.1,1.2-2.3,1.5-3.6L135.5,177L135.5,177z M121.2,180.1c-3,0-5.4-2.4-5.4-5.4c0-3,2.4-5.4,5.4-5.4s5.4,2.4,5.4,5.4
			S124.2,180.1,121.2,180.1z"/>
		<path class="st1" d="M70.3,271v-3.7h-3.1c-0.2-1.1-0.6-2-1.2-2.9l2.2-2.2l-2.6-2.6l-2.2,2.2c-0.9-0.6-1.9-1-2.9-1.2v-3.1h-3.7v3.1
			c-1.1,0.2-2,0.6-2.9,1.2l-2.2-2.2l-2.6,2.6l2.2,2.2c-0.6,0.9-1,1.9-1.2,2.9H47v3.7h3.1c0.2,1.1,0.6,2,1.2,2.9l-2.2,2.2l2.6,2.6
			l2.2-2.2c0.9,0.6,1.9,1,2.9,1.2v3.1h3.7v-3.1c1.1-0.2,2-0.6,2.9-1.2l2.2,2.2l2.6-2.6l-2.2-2.2c0.6-0.9,1-1.9,1.2-2.9H70.3z
			 M58.7,273.6c-2.4,0-4.4-2-4.4-4.4c0-2.4,2-4.4,4.4-4.4c2.4,0,4.4,2,4.4,4.4C63.1,271.6,61.1,273.6,58.7,273.6z"/>
		<path class="st2" d="M223.4,261.5v-3.9h-3.3c-0.3-1.1-0.7-2.2-1.3-3.1l2.3-2.3l-2.8-2.8l-2.3,2.3c-0.9-0.6-2-1.1-3.1-1.3v-3.3
			h-3.9v3.3c-1.1,0.3-2.2,0.7-3.1,1.3l-2.3-2.3l-2.8,2.8l2.3,2.3c-0.6,0.9-1.1,2-1.3,3.1h-3.3v3.9h3.3c0.3,1.1,0.7,2.2,1.3,3.1
			l-2.3,2.3l2.8,2.8l2.3-2.3c0.9,0.6,2,1.1,3.1,1.3v3.3h3.9v-3.3c1.1-0.3,2.2-0.7,3.1-1.3l2.3,2.3l2.8-2.8l-2.3-2.3
			c0.6-0.9,1.1-2,1.3-3.1H223.4z M211,264.2c-2.6,0-4.7-2.1-4.7-4.7c0-2.6,2.1-4.7,4.7-4.7c2.6,0,4.7,2.1,4.7,4.7
			C215.7,262.1,213.5,264.2,211,264.2z"/>
		<path class="st2" d="M175.9,308.7v-3.9h-3.3c-0.3-1.1-0.7-2.2-1.3-3.1l2.3-2.3l-2.8-2.8l-2.3,2.3c-0.9-0.6-2-1.1-3.1-1.3v-3.3h-4
			v3.3c-1.1,0.3-2.2,0.7-3.1,1.3l-2.3-2.3l-2.8,2.8l2.3,2.3c-0.6,0.9-1.1,2-1.3,3.1H151v3.9h3.3c0.3,1.1,0.7,2.2,1.3,3.1l-2.3,2.3
			l2.8,2.8l2.3-2.3c0.9,0.6,2,1.1,3.1,1.3v3.3h3.9v-3.3c1.1-0.3,2.2-0.7,3.1-1.3l2.3,2.3l2.8-2.8l-2.3-2.3c0.6-0.9,1.1-2,1.3-3.1
			H175.9z M163.5,311.3c-2.6,0-4.7-2.1-4.7-4.7c0-2.6,2.1-4.7,4.7-4.7c2.6,0,4.7,2.1,4.7,4.7C168.1,309.3,166,311.3,163.5,311.3z"/>
		<path class="st2" d="M154.8,168.2v-2.9h-2.4c-0.2-0.8-0.5-1.6-0.9-2.3l1.7-1.7l-2-2l-1.7,1.7c-0.7-0.4-1.5-0.8-2.3-0.9v-2.4h-2.9
			v2.4c-0.8,0.2-1.6,0.5-2.3,0.9l-1.8-1.7l-2,2l1.8,1.7c-0.4,0.7-0.8,1.5-0.9,2.3h-2.4v2.9h2.4c0.2,0.8,0.5,1.6,0.9,2.3l-1.8,1.7
			l2,2l1.8-1.8c0.7,0.4,1.5,0.8,2.3,0.9v2.4h2.9v-2.4c0.8-0.2,1.6-0.5,2.3-0.9l1.7,1.8l2-2l-1.7-1.7c0.4-0.7,0.8-1.5,0.9-2.3H154.8z
			 M145.6,170.2c-1.9,0-3.5-1.5-3.5-3.5s1.5-3.5,3.5-3.5s3.5,1.5,3.5,3.5C149,168.6,147.5,170.2,145.6,170.2z"/>
		<path class="st1" d="M89.8,240.8H43.5c-2.8,0-5-2.2-5-5s2.2-5,5-5h46.3c2.8,0,5,2.2,5,5C94.8,238.6,92.5,240.8,89.8,240.8z"/>
		<path class="st1" d="M103.8,250.8H57.5c-2.8,0-5-2.2-5-5s2.2-5,5-5h46.3c2.8,0,5,2.2,5,5S106.5,250.8,103.8,250.8z"/>
		<path class="st1" d="M196.8,192.1h-46.3c-2.8,0-5-2.2-5-5s2.2-5,5-5h46.3c2.8,0,5,2.2,5,5S199.5,192.1,196.8,192.1z"/>
		<path class="st1" d="M210.8,202.1h-46.2c-2.8,0-5-2.2-5-5c0-2.8,2.2-5,5-5h46.3c2.8,0,5,2.2,5,5
			C215.8,199.9,213.6,202.1,210.8,202.1z"/>
		<g class="st3">
			<path class="st4" d="M115.8,175.8H60v55.8h55.8V175.8z"/>
			<path class="st4" d="M115.8,175.6H60v4.8h55.8V175.6z"/>
			<path class="st5" d="M111,176.8l2.8,2.9"/>
			<path class="st5" d="M113.8,176.8l-2.9,2.8"/>
			<path class="st4" d="M87.8,205.2c4.9,0,8.8-3.9,8.8-8.8c0-4.9-3.9-8.8-8.8-8.8c-4.9,0-8.8,3.9-8.8,8.8
				C79.1,201.2,83,205.2,87.8,205.2z"/>
			<path class="st4" d="M82.1,191.4v8.7h11.5l0.2-8.7c0,0-0.6-5.2-5.8-5.2C82.7,186.2,82.1,191.4,82.1,191.4z"/>
			<path class="st4" d="M89.4,197.5h-3.2v3.2h3.2V197.5z"/>
			<path class="st4" d="M87.6,199.6h-2.4v1.5h2.4V199.6z"/>
			<path class="st4" d="M90.7,199.6h-2.4v1.5h2.4V199.6z"/>
			<path class="st4" d="M93.5,206H82.2v-2.6c0-1.6,1.3-2.9,2.9-2.9h5.5c1.6,0,2.9,1.3,2.9,2.9V206L93.5,206z"/>
			<path class="st4" d="M85.6,193.3c0,1.1-0.9,1.9-1.9,1.9c-1.1,0-1.9-0.9-1.9-1.9c0-1.1,0.9-1.9,1.9-1.9
				C84.7,191.4,85.6,192.3,85.6,193.3z"/>
			<path class="st4" d="M93.9,193.1c0,1.1-0.9,1.9-1.9,1.9c-1.1,0-1.9-0.9-1.9-1.9c0-1.1,0.9-1.9,1.9-1.9
				C93.1,191.2,93.9,192.1,93.9,193.1z"/>
			<path class="st4" d="M88,199.1c-2.5,0-4.5-2-4.5-4.5v-3c0-2.5,2-4.5,4.5-4.5h0c2.5,0,4.5,2,4.5,4.5v3
				C92.5,197.1,90.5,199.1,88,199.1z"/>
			<path class="st4" d="M85.8,193.8c0,0.1-0.1,0.3-0.3,0.3c-0.1,0-0.3-0.1-0.3-0.3c0-0.1,0.1-0.3,0.3-0.3
				C85.7,193.6,85.8,193.7,85.8,193.8z"/>
			<path class="st4" d="M90.5,193.8c0,0.1-0.1,0.3-0.3,0.3c-0.1,0-0.3-0.1-0.3-0.3c0-0.1,0.1-0.3,0.3-0.3
				C90.4,193.6,90.5,193.7,90.5,193.8z"/>
			<path class="st4" d="M86.8,195.3h2.5C89.3,195.3,88,196.9,86.8,195.3z"/>
			<path class="st6" d="M104.5,213.1H71.2c-1.2,0-2.1-0.9-2.1-2.1s0.9-2.1,2.1-2.1h33.4c1.2,0,2.1,0.9,2.1,2.1
				S105.7,213.1,104.5,213.1z"/>
			<path class="st6" d="M104.5,219.3H71.2c-1.2,0-2.1-0.9-2.1-2.1c0-1.2,0.9-2.1,2.1-2.1h33.4c1.2,0,2.1,0.9,2.1,2.1
				C106.6,218.3,105.7,219.3,104.5,219.3z"/>
			<path class="st4" d="M96.3,227.7H83.7c-1.2,0-2.1-0.9-2.1-2.1c0-1.2,0.9-2.1,2.1-2.1h12.5c1.2,0,2.1,0.9,2.1,2.1
				C98.3,226.8,97.4,227.7,96.3,227.7z"/>
			<path class="st4" d="M94.1,225.6H81.6c-1.2,0-2.1-0.9-2.1-2.1c0-1.2,0.9-2.1,2.1-2.1h12.5c1.2,0,2.1,0.9,2.1,2.1
				C96.2,224.6,95.3,225.6,94.1,225.6z"/>
			<path class="st4" d="M84.6,210.3v0.7c0,0.1,0,0.2-0.1,0.2c-0.1,0.1-0.1,0.1-0.2,0.1l0,0c-0.1,0-0.2,0-0.3-0.1
				c-0.1-0.1-0.1-0.1-0.1-0.2v-0.7h0.1v0.7c0,0.1,0,0.1,0.1,0.2c0,0,0.1,0.1,0.2,0.1c0.1,0,0.1,0,0.2-0.1c0,0,0.1-0.1,0.1-0.2v-0.7
				H84.6z M85.1,210.8c-0.1,0-0.2-0.1-0.2-0.1c0,0-0.1-0.1-0.1-0.2c0-0.1,0-0.1,0.1-0.2c0.1-0.1,0.1-0.1,0.2-0.1c0.1,0,0.1,0,0.2,0
				c0.1,0,0.1,0.1,0.1,0.1c0,0,0,0.1,0,0.1h-0.1c0-0.1,0-0.1-0.1-0.1c0,0-0.1-0.1-0.2-0.1c-0.1,0-0.1,0-0.1,0c0,0-0.1,0.1-0.1,0.1
				c0,0,0,0.1,0.1,0.1c0,0,0.1,0.1,0.2,0.1c0.1,0,0.1,0,0.2,0.1c0,0,0.1,0.1,0.1,0.1c0,0,0,0.1,0,0.1c0,0.1,0,0.1-0.1,0.2
				c-0.1,0-0.1,0.1-0.2,0.1c-0.1,0-0.1,0-0.2,0c-0.1,0-0.1-0.1-0.1-0.1c0,0,0-0.1,0-0.2h0.1c0,0.1,0,0.1,0.1,0.1
				c0,0,0.1,0.1,0.2,0.1c0.1,0,0.1,0,0.2,0c0,0,0.1-0.1,0.1-0.1s0-0.1-0.1-0.1C85.3,210.9,85.2,210.9,85.1,210.8z M86.2,210.8h-0.4
				v0.3h0.5v0.1h-0.6v-1h0.6v0.1h-0.5v0.3h0.4V210.8z M86.8,210.9h-0.2v0.4h-0.1v-1h0.3c0.1,0,0.2,0,0.3,0.1c0.1,0,0.1,0.1,0.1,0.2
				c0,0.1,0,0.1,0,0.2c0,0-0.1,0.1-0.1,0.1l0.2,0.4v0H87L86.8,210.9z M86.6,210.8h0.2c0.1,0,0.1,0,0.2,0c0,0,0.1-0.1,0.1-0.1
				c0-0.1,0-0.1-0.1-0.1c0,0-0.1,0-0.2,0h-0.2V210.8z M88,211.3h-0.1l-0.5-0.7v0.7h-0.1v-1h0.1l0.5,0.8v-0.8H88V211.3z M88.8,211
				h-0.4l-0.1,0.3h-0.1l0.4-1h0.1l0.4,1h-0.1L88.8,211z M88.4,210.9h0.3l-0.2-0.5L88.4,210.9z M89.3,210.3l0.3,0.8l0.3-0.8h0.2v1H90
				v-0.4l0-0.4l-0.3,0.8h-0.1l-0.3-0.8l0,0.4v0.4h-0.1v-1H89.3z M90.9,210.8h-0.4v0.3H91v0.1h-0.6v-1H91v0.1h-0.5v0.3h0.4V210.8z"/>
			<path class="st4" d="M85.1,223.5h0.6v0.1h-0.8v-1.3h0.2V223.5z M86.9,223.1c0,0.1,0,0.2-0.1,0.3c0,0.1-0.1,0.2-0.2,0.2
				c-0.1,0.1-0.2,0.1-0.3,0.1c-0.1,0-0.2,0-0.3-0.1c-0.1-0.1-0.1-0.1-0.2-0.2c0-0.1-0.1-0.2-0.1-0.3V223c0-0.1,0-0.2,0.1-0.3
				c0-0.1,0.1-0.2,0.2-0.2c0.1-0.1,0.2-0.1,0.3-0.1c0.1,0,0.2,0,0.3,0.1c0.1,0.1,0.1,0.1,0.2,0.2C86.8,222.7,86.9,222.8,86.9,223.1
				L86.9,223.1z M86.7,223c0-0.2,0-0.3-0.1-0.4c-0.1-0.1-0.2-0.1-0.3-0.1c-0.1,0-0.2,0-0.3,0.1c-0.1,0.1-0.1,0.2-0.1,0.3v0.1
				c0,0.2,0,0.3,0.1,0.4c0.1,0.1,0.2,0.1,0.3,0.1c0.1,0,0.2,0,0.3-0.1C86.7,223.3,86.7,223.2,86.7,223L86.7,223z M88.1,223.5
				c0,0.1-0.1,0.1-0.2,0.1c-0.1,0-0.2,0-0.3,0c-0.1,0-0.2,0-0.3-0.1c-0.1-0.1-0.1-0.1-0.2-0.2c0-0.1-0.1-0.2-0.1-0.3V223
				c0-0.2,0-0.4,0.1-0.5c0.1-0.1,0.2-0.2,0.4-0.2c0.1,0,0.2,0,0.3,0.1c0.1,0.1,0.1,0.2,0.2,0.3h-0.2c0-0.2-0.1-0.3-0.3-0.3
				c-0.1,0-0.2,0-0.3,0.1c-0.1,0.1-0.1,0.2-0.1,0.4v0.1c0,0.1,0,0.3,0.1,0.4c0.1,0.1,0.2,0.1,0.3,0.1c0.1,0,0.1,0,0.2,0
				c0,0,0.1,0,0.1-0.1v-0.3h-0.3V223h0.5V223.5z M88.6,223.7h-0.2v-1.3h0.2V223.7z M89.9,223.7h-0.2l-0.7-1v1h-0.2v-1.3h0.2l0.7,1
				v-1h0.2V223.7z"/>
			<path class="st4" d="M84,217.1v0.4h-0.1v-1h0.4c0.1,0,0.2,0,0.2,0.1c0.1,0.1,0.1,0.1,0.1,0.2c0,0.1,0,0.2-0.1,0.2
				c-0.1,0.1-0.1,0.1-0.3,0.1H84z M84,217h0.2c0.1,0,0.1,0,0.2,0c0,0,0.1-0.1,0.1-0.1c0-0.1,0-0.1-0.1-0.1c0,0-0.1-0.1-0.2-0.1H84
				V217z M85.2,217.3h-0.4l-0.1,0.3h-0.1l0.4-1h0.1l0.4,1h-0.1L85.2,217.3z M84.9,217.2h0.3l-0.2-0.5L84.9,217.2z M85.9,217.1
				c-0.1,0-0.2-0.1-0.2-0.1c0,0-0.1-0.1-0.1-0.2c0-0.1,0-0.1,0.1-0.2c0.1-0.1,0.1-0.1,0.2-0.1c0.1,0,0.1,0,0.2,0
				c0.1,0,0.1,0.1,0.1,0.1c0,0,0,0.1,0,0.1h-0.1c0-0.1,0-0.1-0.1-0.1c0,0-0.1-0.1-0.2-0.1c-0.1,0-0.1,0-0.1,0c0,0-0.1,0.1-0.1,0.1
				c0,0,0,0.1,0.1,0.1c0,0,0.1,0.1,0.2,0.1c0.1,0,0.1,0,0.2,0.1c0,0,0.1,0.1,0.1,0.1c0,0,0,0.1,0,0.1c0,0.1,0,0.1-0.1,0.2
				c-0.1,0-0.1,0.1-0.2,0.1c-0.1,0-0.1,0-0.2,0c-0.1,0-0.1-0.1-0.1-0.1c0,0,0-0.1,0-0.2h0.1c0,0.1,0,0.1,0.1,0.1
				c0,0,0.1,0.1,0.2,0.1c0.1,0,0.1,0,0.2,0c0,0,0.1-0.1,0.1-0.1s0-0.1-0.1-0.1C86,217.1,85.9,217.1,85.9,217.1z M86.7,217.1
				c-0.1,0-0.2-0.1-0.2-0.1c-0.1,0-0.1-0.1-0.1-0.2c0-0.1,0-0.1,0.1-0.2c0.1-0.1,0.1-0.1,0.2-0.1c0.1,0,0.1,0,0.2,0
				c0.1,0,0.1,0.1,0.1,0.1c0,0,0,0.1,0,0.1h-0.1c0-0.1,0-0.1-0.1-0.1c0,0-0.1-0.1-0.2-0.1c-0.1,0-0.1,0-0.1,0c0,0-0.1,0.1-0.1,0.1
				c0,0,0,0.1,0.1,0.1c0,0,0.1,0.1,0.2,0.1c0.1,0,0.1,0,0.2,0.1c0,0,0.1,0.1,0.1,0.1c0,0,0,0.1,0,0.1c0,0.1,0,0.1-0.1,0.2
				c-0.1,0-0.1,0.1-0.2,0.1c-0.1,0-0.1,0-0.2,0c-0.1,0-0.1-0.1-0.1-0.1c0,0,0-0.1,0-0.2h0.1c0,0.1,0,0.1,0.1,0.1
				c0,0,0.1,0.1,0.2,0.1c0.1,0,0.1,0,0.2,0c0,0,0.1-0.1,0.1-0.1s0-0.1-0.1-0.1C86.8,217.1,86.8,217.1,86.7,217.1z M87.4,217.2l0,0.1
				L87.4,217.2l0.2-0.7h0.1l0.2,0.7l0,0.1l0-0.1l0.2-0.7h0.1l-0.2,1h-0.1l-0.2-0.7l0-0.1l0,0.1l-0.2,0.7h-0.1l-0.2-1h0.1L87.4,217.2
				z M89.2,217.1c0,0.1,0,0.2,0,0.2c0,0.1-0.1,0.1-0.1,0.2c-0.1,0-0.1,0.1-0.2,0.1c-0.1,0-0.1,0-0.2-0.1c-0.1,0-0.1-0.1-0.1-0.2
				c0-0.1,0-0.2-0.1-0.2V217c0-0.1,0-0.2,0-0.2c0-0.1,0.1-0.1,0.1-0.2c0.1,0,0.1-0.1,0.2-0.1c0.1,0,0.1,0,0.2,0.1
				c0.1,0,0.1,0.1,0.1,0.2C89.1,216.8,89.2,216.9,89.2,217.1L89.2,217.1z M89,217c0-0.1,0-0.2-0.1-0.3c0-0.1-0.1-0.1-0.2-0.1
				c-0.1,0-0.1,0-0.2,0.1c0,0.1-0.1,0.1-0.1,0.3v0.1c0,0.1,0,0.2,0.1,0.3c0,0.1,0.1,0.1,0.2,0.1c0.1,0,0.1,0,0.2-0.1
				C89,217.3,89,217.2,89,217L89,217z M89.7,217.1h-0.2v0.4h-0.1v-1h0.3c0.1,0,0.2,0,0.3,0.1c0.1,0,0.1,0.1,0.1,0.2
				c0,0.1,0,0.1,0,0.2c0,0-0.1,0.1-0.1,0.1l0.2,0.4v0h-0.1L89.7,217.1z M89.5,217h0.2c0.1,0,0.1,0,0.2,0c0,0,0.1-0.1,0.1-0.1
				c0-0.1,0-0.1-0.1-0.1c0,0-0.1,0-0.2,0h-0.2V217z M90.2,217.5v-1h0.3c0.1,0,0.2,0,0.2,0.1c0.1,0,0.1,0.1,0.2,0.2
				c0,0.1,0.1,0.1,0.1,0.2v0.1c0,0.1,0,0.2-0.1,0.2c0,0.1-0.1,0.1-0.2,0.2c-0.1,0-0.1,0.1-0.2,0.1H90.2z M90.3,216.7v0.8h0.1
				c0.1,0,0.2,0,0.2-0.1c0.1-0.1,0.1-0.1,0.1-0.3V217c0-0.1,0-0.2-0.1-0.3c-0.1-0.1-0.1-0.1-0.2-0.1H90.3z"/>
			<path class="st4" d="M83.2,191.5l9.6-0.1c0,0-0.5-4.3-4.8-4.3C83.7,187.1,83.2,191.5,83.2,191.5z"/>
			<path class="st4" d="M83.1,195.3c0.2,0,0.3-0.1,0.3-0.3c0-0.2-0.1-0.3-0.3-0.3c-0.2,0-0.3,0.1-0.3,0.3
				C82.8,195.1,82.9,195.3,83.1,195.3z"/>
			<path class="st4" d="M93,195.3c0.2,0,0.3-0.1,0.3-0.3c0-0.2-0.1-0.3-0.3-0.3c-0.2,0-0.3,0.1-0.3,0.3
				C92.7,195.1,92.8,195.3,93,195.3z"/>
		</g>
		<path class="st7" d="M113.6,173.7H57.8v55.8h55.8V173.7z"/>
		<path class="st8" d="M113.6,173.5H57.8v4.8h55.8V173.5z"/>
		<path class="st9" d="M108.8,174.6l2.8,2.9"/>
		<path class="st9" d="M111.7,174.7l-2.9,2.8"/>
		<path class="st10" d="M85.7,203c4.9,0,8.8-3.9,8.8-8.8s-3.9-8.8-8.8-8.8c-4.9,0-8.8,3.9-8.8,8.8S80.9,203,85.7,203z"/>
		<path class="st1" d="M80,189.3v8.7h11.5l0.2-8.7c0,0-0.6-5.2-5.8-5.2C80.6,184,80,189.3,80,189.3z"/>
		<path class="st11" d="M87.3,195.3h-3.2v3.2h3.2V195.3z"/>
		<path class="st7" d="M85.5,197.5h-2.4v1.5h2.4V197.5z"/>
		<path class="st7" d="M88.5,197.5h-2.4v1.5h2.4V197.5z"/>
		<path class="st12" d="M91.3,203.8H80.1v-2.6c0-1.6,1.3-2.9,2.9-2.9h5.5c1.6,0,2.9,1.3,2.9,2.9V203.8L91.3,203.8z"/>
		<path class="st11" d="M83.5,191.2c0,1.1-0.9,1.9-1.9,1.9c-1.1,0-1.9-0.9-1.9-1.9c0-1.1,0.9-1.9,1.9-1.9
			C82.6,189.3,83.5,190.1,83.5,191.2z"/>
		<path class="st11" d="M91.8,191c0,1.1-0.9,1.9-1.9,1.9s-1.9-0.9-1.9-1.9s0.9-1.9,1.9-1.9C90.9,189.1,91.8,190,91.8,191z"/>
		<path class="st11" d="M85.9,196.9c-2.5,0-4.5-2-4.5-4.5v-3c0-2.5,2-4.5,4.5-4.5h0c2.5,0,4.5,2,4.5,4.5v3
			C90.4,194.9,88.4,196.9,85.9,196.9z"/>
		<path class="st1" d="M83.7,191.7c0,0.1-0.1,0.3-0.3,0.3c-0.1,0-0.3-0.1-0.3-0.3c0-0.1,0.1-0.3,0.3-0.3
			C83.6,191.4,83.7,191.5,83.7,191.7z"/>
		<path class="st1" d="M88.4,191.7c0,0.1-0.1,0.3-0.3,0.3c-0.1,0-0.3-0.1-0.3-0.3c0-0.1,0.1-0.3,0.3-0.3
			C88.2,191.4,88.4,191.5,88.4,191.7z"/>
		<path class="st7" d="M84.6,193.2h2.5C87.1,193.2,85.8,194.8,84.6,193.2z"/>
		<path class="st13" d="M102.4,210.9H69c-1.2,0-2.1-0.9-2.1-2.1c0-1.2,0.9-2.1,2.1-2.1h33.4c1.2,0,2.1,0.9,2.1,2.1
			C104.5,210,103.6,210.9,102.4,210.9z"/>
		<path class="st13" d="M102.4,217.2H69c-1.2,0-2.1-0.9-2.1-2.1s0.9-2.1,2.1-2.1h33.4c1.2,0,2.1,0.9,2.1,2.1
			S103.6,217.2,102.4,217.2z"/>
		<g class="st3">
			<path class="st4" d="M94.1,225.6H81.6c-1.2,0-2.1-0.9-2.1-2.1c0-1.2,0.9-2.1,2.1-2.1h12.5c1.2,0,2.1,0.9,2.1,2.1
				C96.2,224.6,95.3,225.6,94.1,225.6z"/>
		</g>
		<path class="st1" d="M92,223.4H79.4c-1.2,0-2.1-0.9-2.1-2.1s0.9-2.1,2.1-2.1H92c1.2,0,2.1,0.9,2.1,2.1S93.1,223.4,92,223.4z"/>
		<path class="st14" d="M82.5,208.2v0.7c0,0.1,0,0.2-0.1,0.2c-0.1,0.1-0.1,0.1-0.2,0.1l0,0c-0.1,0-0.2,0-0.3-0.1
			c-0.1-0.1-0.1-0.1-0.1-0.2v-0.7h0.1v0.7c0,0.1,0,0.1,0.1,0.2c0,0,0.1,0.1,0.2,0.1c0.1,0,0.1,0,0.2-0.1c0,0,0.1-0.1,0.1-0.2v-0.7
			H82.5z M83,208.7c-0.1,0-0.2-0.1-0.2-0.1c-0.1,0-0.1-0.1-0.1-0.2c0-0.1,0-0.1,0.1-0.2c0.1-0.1,0.1-0.1,0.2-0.1c0.1,0,0.1,0,0.2,0
			c0.1,0,0.1,0.1,0.1,0.1c0,0,0,0.1,0,0.1h-0.1c0-0.1,0-0.1-0.1-0.1c0,0-0.1-0.1-0.2-0.1c-0.1,0-0.1,0-0.1,0c0,0-0.1,0.1-0.1,0.1
			c0,0,0,0.1,0.1,0.1c0,0,0.1,0.1,0.2,0.1c0.1,0,0.1,0,0.2,0.1c0,0,0.1,0.1,0.1,0.1c0,0,0,0.1,0,0.1c0,0.1,0,0.1-0.1,0.2
			c-0.1,0-0.1,0.1-0.2,0.1c-0.1,0-0.1,0-0.2,0c-0.1,0-0.1-0.1-0.1-0.1c0,0,0-0.1,0-0.2h0.1c0,0.1,0,0.1,0.1,0.1c0,0,0.1,0.1,0.2,0.1
			c0.1,0,0.1,0,0.2,0c0,0,0.1-0.1,0.1-0.1c0,0,0-0.1-0.1-0.1C83.2,208.7,83.1,208.7,83,208.7z M84.1,208.7h-0.4v0.3h0.5v0.1h-0.6v-1
			h0.6v0.1h-0.5v0.3h0.4V208.7z M84.7,208.7h-0.2v0.4h-0.1v-1h0.3c0.1,0,0.2,0,0.3,0.1c0.1,0,0.1,0.1,0.1,0.2c0,0.1,0,0.1,0,0.2
			c0,0-0.1,0.1-0.1,0.1l0.2,0.4v0h-0.1L84.7,208.7z M84.4,208.6h0.2c0.1,0,0.1,0,0.2,0c0,0,0.1-0.1,0.1-0.1c0-0.1,0-0.1-0.1-0.1
			c0,0-0.1,0-0.2,0h-0.2V208.6z M85.9,209.1h-0.1l-0.5-0.7v0.7h-0.1v-1h0.1l0.5,0.8v-0.8h0.1V209.1z M86.7,208.9h-0.4l-0.1,0.3H86
			l0.4-1h0.1l0.4,1h-0.1L86.7,208.9z M86.3,208.8h0.3l-0.2-0.5L86.3,208.8z M87.2,208.2l0.3,0.8l0.3-0.8H88v1h-0.1v-0.4l0-0.4
			l-0.3,0.8h-0.1l-0.3-0.8l0,0.4v0.4H87v-1H87.2z M88.8,208.7h-0.4v0.3h0.5v0.1h-0.6v-1h0.6v0.1h-0.5v0.3h0.4V208.7z"/>
		<path class="st7" d="M83,221.4h0.6v0.1h-0.8v-1.3H83V221.4z M84.7,220.9c0,0.1,0,0.2-0.1,0.3c0,0.1-0.1,0.2-0.2,0.2
			c-0.1,0.1-0.2,0.1-0.3,0.1c-0.1,0-0.2,0-0.3-0.1c-0.1-0.1-0.1-0.1-0.2-0.2c0-0.1-0.1-0.2-0.1-0.3v-0.1c0-0.1,0-0.2,0.1-0.3
			c0-0.1,0.1-0.2,0.2-0.2c0.1-0.1,0.2-0.1,0.3-0.1c0.1,0,0.2,0,0.3,0.1c0.1,0.1,0.1,0.1,0.2,0.2C84.7,220.6,84.7,220.7,84.7,220.9
			L84.7,220.9z M84.6,220.8c0-0.2,0-0.3-0.1-0.4c-0.1-0.1-0.2-0.1-0.3-0.1c-0.1,0-0.2,0-0.3,0.1c-0.1,0.1-0.1,0.2-0.1,0.3v0.1
			c0,0.2,0,0.3,0.1,0.4c0.1,0.1,0.2,0.1,0.3,0.1c0.1,0,0.2,0,0.3-0.1C84.5,221.2,84.6,221.1,84.6,220.8L84.6,220.8z M86,221.4
			c0,0.1-0.1,0.1-0.2,0.1c-0.1,0-0.2,0-0.3,0c-0.1,0-0.2,0-0.3-0.1c-0.1-0.1-0.1-0.1-0.2-0.2c0-0.1-0.1-0.2-0.1-0.3v-0.1
			c0-0.2,0-0.4,0.1-0.5c0.1-0.1,0.2-0.2,0.4-0.2c0.1,0,0.2,0,0.3,0.1c0.1,0.1,0.1,0.2,0.2,0.3h-0.2c0-0.2-0.1-0.3-0.3-0.3
			c-0.1,0-0.2,0-0.3,0.1c-0.1,0.1-0.1,0.2-0.1,0.4v0.1c0,0.1,0,0.3,0.1,0.4c0.1,0.1,0.2,0.1,0.3,0.1c0.1,0,0.1,0,0.2,0
			c0,0,0.1,0,0.1-0.1V221h-0.3v-0.1H86V221.4z M86.4,221.5h-0.2v-1.3h0.2V221.5z M87.8,221.5h-0.2l-0.7-1v1h-0.2v-1.3h0.2l0.7,1v-1
			h0.2V221.5z"/>
		<path class="st14" d="M81.9,215v0.4h-0.1v-1h0.4c0.1,0,0.2,0,0.2,0.1c0.1,0.1,0.1,0.1,0.1,0.2c0,0.1,0,0.2-0.1,0.2
			c-0.1,0.1-0.1,0.1-0.3,0.1H81.9z M81.9,214.9h0.2c0.1,0,0.1,0,0.2,0c0,0,0.1-0.1,0.1-0.1c0-0.1,0-0.1-0.1-0.1c0,0-0.1-0.1-0.2-0.1
			h-0.2V214.9z M83.1,215.1h-0.4l-0.1,0.3h-0.1l0.4-1h0.1l0.4,1h-0.1L83.1,215.1z M82.7,215H83l-0.2-0.5L82.7,215z M83.7,215
			c-0.1,0-0.2-0.1-0.2-0.1c-0.1,0-0.1-0.1-0.1-0.2c0-0.1,0-0.1,0.1-0.2c0.1-0.1,0.1-0.1,0.2-0.1c0.1,0,0.1,0,0.2,0
			c0.1,0,0.1,0.1,0.1,0.1c0,0,0,0.1,0,0.1H84c0-0.1,0-0.1-0.1-0.1c0,0-0.1-0.1-0.2-0.1c-0.1,0-0.1,0-0.1,0c0,0-0.1,0.1-0.1,0.1
			c0,0,0,0.1,0.1,0.1c0,0,0.1,0.1,0.2,0.1c0.1,0,0.1,0,0.2,0.1c0,0,0.1,0.1,0.1,0.1c0,0,0,0.1,0,0.1c0,0.1,0,0.1-0.1,0.2
			c-0.1,0-0.1,0.1-0.2,0.1c-0.1,0-0.1,0-0.2,0c-0.1,0-0.1-0.1-0.1-0.1c0,0,0-0.1,0-0.2h0.1c0,0.1,0,0.1,0.1,0.1c0,0,0.1,0.1,0.2,0.1
			c0.1,0,0.1,0,0.2,0c0,0,0.1-0.1,0.1-0.1s0-0.1-0.1-0.1C83.9,215,83.8,215,83.7,215z M84.5,215c-0.1,0-0.2-0.1-0.2-0.1
			c0,0-0.1-0.1-0.1-0.2c0-0.1,0-0.1,0.1-0.2c0.1-0.1,0.1-0.1,0.2-0.1c0.1,0,0.1,0,0.2,0c0.1,0,0.1,0.1,0.1,0.1c0,0,0,0.1,0,0.1h-0.1
			c0-0.1,0-0.1-0.1-0.1c0,0-0.1-0.1-0.2-0.1c-0.1,0-0.1,0-0.1,0c0,0-0.1,0.1-0.1,0.1c0,0,0,0.1,0.1,0.1c0,0,0.1,0.1,0.2,0.1
			c0.1,0,0.1,0,0.2,0.1c0,0,0.1,0.1,0.1,0.1c0,0,0,0.1,0,0.1c0,0.1,0,0.1-0.1,0.2c-0.1,0-0.1,0.1-0.2,0.1c-0.1,0-0.1,0-0.2,0
			c-0.1,0-0.1-0.1-0.1-0.1c0,0,0-0.1,0-0.2h0.1c0,0.1,0,0.1,0.1,0.1c0,0,0.1,0.1,0.2,0.1c0.1,0,0.1,0,0.2,0c0,0,0.1-0.1,0.1-0.1
			s0-0.1-0.1-0.1C84.7,215,84.6,215,84.5,215z M85.3,215.1l0,0.1L85.3,215.1l0.2-0.7h0.1l0.2,0.7l0,0.1l0-0.1l0.2-0.7h0.1l-0.2,1
			h-0.1l-0.2-0.7l0-0.1l0,0.1l-0.2,0.7h-0.1l-0.2-1h0.1L85.3,215.1z M87,214.9c0,0.1,0,0.2,0,0.2c0,0.1-0.1,0.1-0.1,0.2
			c-0.1,0-0.1,0.1-0.2,0.1c-0.1,0-0.1,0-0.2-0.1c-0.1,0-0.1-0.1-0.1-0.2c0-0.1,0-0.2-0.1-0.2v-0.1c0-0.1,0-0.2,0-0.2
			c0-0.1,0.1-0.1,0.1-0.2c0.1,0,0.1-0.1,0.2-0.1c0.1,0,0.1,0,0.2,0.1c0.1,0,0.1,0.1,0.1,0.2C87,214.7,87,214.8,87,214.9L87,214.9z
			 M86.9,214.9c0-0.1,0-0.2-0.1-0.3c0-0.1-0.1-0.1-0.2-0.1c-0.1,0-0.1,0-0.2,0.1c0,0.1-0.1,0.1-0.1,0.3v0.1c0,0.1,0,0.2,0.1,0.3
			s0.1,0.1,0.2,0.1s0.1,0,0.2-0.1C86.9,215.1,86.9,215.1,86.9,214.9L86.9,214.9z M87.6,215h-0.2v0.4h-0.1v-1h0.3
			c0.1,0,0.2,0,0.3,0.1c0.1,0,0.1,0.1,0.1,0.2c0,0.1,0,0.1,0,0.2c0,0-0.1,0.1-0.1,0.1l0.2,0.4v0h-0.1L87.6,215z M87.3,214.9h0.2
			c0.1,0,0.1,0,0.2,0c0,0,0.1-0.1,0.1-0.1c0-0.1,0-0.1-0.1-0.1c0,0-0.1,0-0.2,0h-0.2V214.9z M88.1,215.4v-1h0.3c0.1,0,0.2,0,0.2,0.1
			s0.1,0.1,0.2,0.2c0,0.1,0.1,0.1,0.1,0.2v0.1c0,0.1,0,0.2-0.1,0.2c0,0.1-0.1,0.1-0.2,0.2c-0.1,0-0.1,0.1-0.2,0.1H88.1z M88.2,214.5
			v0.8h0.1c0.1,0,0.2,0,0.2-0.1c0.1-0.1,0.1-0.1,0.1-0.3v-0.1c0-0.1,0-0.2-0.1-0.3c-0.1-0.1-0.1-0.1-0.2-0.1H88.2z"/>
		<path class="st1" d="M81.1,189.3l9.6-0.1c0,0-0.5-4.3-4.8-4.3C81.5,184.9,81.1,189.3,81.1,189.3z"/>
		<path class="st7" d="M80.9,193.1c0.2,0,0.3-0.1,0.3-0.3c0-0.2-0.1-0.3-0.3-0.3c-0.2,0-0.3,0.1-0.3,0.3
			C80.6,193,80.8,193.1,80.9,193.1z"/>
		<path class="st7" d="M90.8,193.1c0.2,0,0.3-0.1,0.3-0.3c0-0.2-0.1-0.3-0.3-0.3c-0.2,0-0.3,0.1-0.3,0.3
			C90.5,193,90.7,193.1,90.8,193.1z"/>
		<path class="st15" d="M188.2,297.9H64.9v-71c0-3.2,2.6-5.9,5.9-5.9h111.6c3.2,0,5.9,2.6,5.9,5.9L188.2,297.9L188.2,297.9z"/>
		<path class="st8" d="M183.8,226.5H69.3v67.8h114.5V226.5z"/>
		<path class="st10" d="M188.2,294.2H64.9v3.7h123.3V294.2z"/>
		<path class="st15" d="M199.9,303.6H53.3c-1.7,0-3.1-1.4-3.1-3.1v-2.6H203v2.6C203,302.3,201.6,303.6,199.9,303.6z"/>
		<path class="st10" d="M53.3,303.6h146.6c1.3,0,2.4-0.8,2.9-1.9H50.5C50.9,302.9,52,303.6,53.3,303.6z"/>
		<path class="st10" d="M136.8,300.1h-20.4c-1.2,0-2.1-0.9-2.1-2.1h24.7C138.9,299.1,138,300.1,136.8,300.1z"/>
		<path class="st16" d="M110.6,275H84.7c-1.7,0-3-1.4-3-3v-21.5c0-1.7,1.4-3,3-3h25.9c1.7,0,3,1.4,3,3V272
			C113.6,273.7,112.3,275,110.6,275z"/>
		<path class="st16" d="M165.1,254h-42.9c-1.8,0-3.2-1.5-3.2-3.2v-0.1c0-1.8,1.5-3.2,3.2-3.2h42.9c1.8,0,3.2,1.5,3.2,3.2v0.1
			C168.3,252.6,166.9,254,165.1,254z"/>
		<path class="st16" d="M165.1,264.6h-42.9c-1.8,0-3.2-1.5-3.2-3.2v-0.1c0-1.8,1.5-3.2,3.2-3.2h42.9c1.8,0,3.2,1.5,3.2,3.2v0.1
			C168.3,263.1,166.9,264.6,165.1,264.6z"/>
		<path class="st16" d="M165.1,275.1h-42.9c-1.8,0-3.2-1.5-3.2-3.2v-0.1c0-1.8,1.5-3.2,3.2-3.2h42.9c1.8,0,3.2,1.5,3.2,3.2v0.1
			C168.3,273.7,166.9,275.1,165.1,275.1z"/>
		<path class="st16" d="M165.1,285.7H84c-1.8,0-3.3-1.5-3.3-3.3c0-1.8,1.5-3.3,3.3-3.3h81.1c1.8,0,3.3,1.5,3.3,3.3
			C168.3,284.2,166.9,285.7,165.1,285.7z"/>
		<path class="st17" d="M83.5,237.4c0.7,0,1.4,0.6,1.4,1.4c0,0.9-0.6,1.5-1.4,1.5c-0.8,0-1.5-0.6-1.5-1.5
			C82,238.2,82.6,237.4,83.5,237.4z M83.4,237.6c-0.5,0-0.9,0.4-0.9,1.2c0,0.8,0.4,1.4,1.1,1.4c0.5,0,0.9-0.4,0.9-1.2
			C84.4,238.1,84,237.6,83.4,237.6z"/>
		<path class="st17" d="M87.3,240.3v-0.1c0.3,0,0.3,0,0.3-0.3v-0.7c0-0.3-0.1-0.5-0.4-0.5c-0.2,0-0.3,0.1-0.5,0.2v1
			c0,0.3,0,0.3,0.3,0.3v0.1h-0.9v-0.1c0.3,0,0.3,0,0.3-0.3v-0.9c0-0.3,0-0.3-0.3-0.3v-0.1c0.2,0,0.4-0.1,0.6-0.2c0,0.1,0,0.3,0,0.3
			c0.1,0,0.2-0.1,0.3-0.2c0.1-0.1,0.2-0.1,0.3-0.1c0.3,0,0.6,0.3,0.6,0.7v0.8c0,0.3,0,0.3,0.3,0.3v0.1L87.3,240.3L87.3,240.3z"/>
		<path class="st17" d="M89.3,240.3v-0.1c0.3,0,0.3,0,0.3-0.3v-2c0-0.3,0-0.3-0.3-0.3v-0.1c0.2,0,0.5-0.1,0.6-0.1c0,0.2,0,0.4,0,0.6
			v2c0,0.3,0,0.3,0.3,0.3v0.1H89.3L89.3,240.3z"/>
		<path class="st17" d="M91.3,240.3v-0.1c0.3,0,0.3,0,0.3-0.3v-0.9c0-0.3,0-0.3-0.3-0.3v-0.1c0.2,0,0.4-0.1,0.6-0.2
			c0,0.2,0,0.3,0,0.6v0.9c0,0.3,0,0.3,0.3,0.3v0.1H91.3z M91.8,237.9c-0.1,0-0.2-0.1-0.2-0.2c0-0.1,0.1-0.3,0.2-0.3
			c0.1,0,0.2,0.1,0.2,0.3C92,237.8,91.9,237.9,91.8,237.9z"/>
		<path class="st17" d="M94.6,240.3v-0.1c0.3,0,0.3,0,0.3-0.3v-0.7c0-0.3-0.1-0.5-0.4-0.5c-0.2,0-0.3,0.1-0.5,0.2v1
			c0,0.3,0,0.3,0.3,0.3v0.1h-0.9v-0.1c0.3,0,0.3,0,0.3-0.3v-0.9c0-0.3,0-0.3-0.3-0.3v-0.1c0.2,0,0.4-0.1,0.6-0.2c0,0.1,0,0.3,0,0.3
			c0.1,0,0.2-0.1,0.3-0.2c0.1-0.1,0.2-0.1,0.3-0.1c0.3,0,0.6,0.3,0.6,0.7v0.8c0,0.3,0,0.3,0.3,0.3v0.1L94.6,240.3L94.6,240.3z"/>
		<path class="st17" d="M98.2,239.9c-0.3,0.3-0.6,0.4-0.7,0.4c-0.5,0-0.9-0.4-0.9-0.9c0-0.3,0.1-0.6,0.3-0.8
			c0.2-0.2,0.4-0.3,0.6-0.3c0.4,0,0.6,0.3,0.6,0.7c0,0.1,0,0.1-0.1,0.1s-0.6,0-1.2,0.1c0,0.6,0.3,0.8,0.6,0.8
			C97.8,240.1,97.9,240,98.2,239.9L98.2,239.9z M97.5,238.5c-0.2,0-0.4,0.2-0.5,0.6c0.3,0,0.5,0,0.7,0c0.1,0,0.1,0,0.1-0.1
			C97.8,238.7,97.7,238.5,97.5,238.5z"/>
		<path class="st17" d="M84.6,244.3c0,0-0.1,0-0.2,0c-0.3,0-0.5-0.1-0.7-0.4c-0.2-0.2-0.3-0.5-0.5-0.7c-0.1-0.1-0.1-0.2-0.3-0.2
			h-0.2v0.7c0,0.4,0,0.4,0.4,0.4v0.1H82v-0.1c0.3,0,0.4,0,0.4-0.4V242c0-0.4,0-0.4-0.4-0.4v-0.1h1.1c0.3,0,0.5,0,0.7,0.1
			c0.2,0.1,0.3,0.3,0.3,0.6c0,0.4-0.3,0.6-0.6,0.7c0.1,0.1,0.3,0.4,0.4,0.6c0.2,0.2,0.3,0.3,0.3,0.4c0.1,0.1,0.2,0.2,0.3,0.2
			L84.6,244.3z M83,242.9c0.2,0,0.4,0,0.5-0.1c0.2-0.1,0.3-0.3,0.3-0.5c0-0.5-0.3-0.6-0.6-0.6c-0.1,0-0.2,0-0.2,0c0,0,0,0.1,0,0.2
			v1.1H83z"/>
		<path class="st17" d="M87.1,243.9c-0.3,0.3-0.6,0.4-0.7,0.4c-0.5,0-0.9-0.4-0.9-0.9c0-0.3,0.1-0.6,0.3-0.8
			c0.2-0.2,0.4-0.3,0.6-0.3c0.4,0,0.6,0.3,0.6,0.7c0,0.1,0,0.1-0.1,0.1c-0.1,0-0.6,0-1.2,0.1c0,0.6,0.3,0.8,0.6,0.8
			C86.7,244,86.8,244,87.1,243.9L87.1,243.9z M86.3,242.5c-0.2,0-0.4,0.2-0.5,0.6c0.3,0,0.5,0,0.7,0c0.1,0,0.1,0,0.1-0.1
			C86.7,242.7,86.6,242.5,86.3,242.5z"/>
		<path class="st17" d="M88.8,243.7c-0.1,0.1-0.1,0.2-0.1,0.2c0,0.1,0.1,0.2,0.3,0.2c0.2,0,0.3,0,0.5,0c0.3,0,0.6,0.1,0.6,0.5
			c0,0.5-0.5,0.9-1.1,0.9c-0.5,0-0.8-0.3-0.8-0.6c0-0.1,0-0.2,0.1-0.3c0.1-0.1,0.3-0.2,0.3-0.3c-0.2,0-0.3-0.1-0.3-0.2
			c0-0.1,0-0.1,0-0.2c0.2,0,0.3-0.2,0.4-0.3L88.8,243.7z M89,243.7c-0.4,0-0.7-0.3-0.7-0.6c0-0.5,0.4-0.7,0.8-0.7
			c0.1,0,0.3,0,0.4,0.1c0.2,0,0.5,0,0.6-0.1l0,0c0,0.1-0.1,0.2-0.2,0.2c-0.1,0-0.2,0-0.3,0c0.1,0.1,0.1,0.3,0.1,0.4
			C89.8,243.5,89.4,243.7,89,243.7z M89.1,244.3c-0.2,0-0.3,0-0.4,0.1c-0.1,0.1-0.2,0.2-0.2,0.3c0,0.3,0.3,0.4,0.6,0.4
			c0.4,0,0.6-0.2,0.6-0.5c0-0.1-0.1-0.3-0.2-0.3C89.5,244.3,89.3,244.3,89.1,244.3z M89,242.5c-0.2,0-0.4,0.2-0.4,0.5
			c0,0.3,0.2,0.6,0.4,0.6c0.2,0,0.3-0.2,0.3-0.5C89.4,242.7,89.3,242.5,89,242.5z"/>
		<path class="st17" d="M91.1,244.3v-0.1c0.3,0,0.3,0,0.3-0.3v-0.9c0-0.3,0-0.3-0.3-0.3v-0.1c0.2,0,0.4-0.1,0.6-0.2
			c0,0.2,0,0.3,0,0.6v0.9c0,0.3,0,0.3,0.3,0.3v0.1H91.1z M91.5,241.9c-0.1,0-0.2-0.1-0.2-0.2c0-0.1,0.1-0.3,0.2-0.3
			c0.1,0,0.2,0.1,0.2,0.3C91.8,241.8,91.6,241.9,91.5,241.9z"/>
		<path class="st17" d="M94.3,242.9c-0.1-0.3-0.2-0.4-0.5-0.4c-0.2,0-0.3,0.1-0.3,0.3s0.1,0.3,0.4,0.4c0.4,0.2,0.6,0.3,0.6,0.6
			c0,0.4-0.3,0.6-0.7,0.6c-0.2,0-0.4-0.1-0.5-0.1c0-0.1,0-0.3-0.1-0.5h0.1c0.1,0.3,0.2,0.5,0.5,0.5c0.2,0,0.3-0.1,0.3-0.3
			c0-0.2-0.1-0.3-0.3-0.4c-0.3-0.1-0.6-0.3-0.6-0.6c0-0.3,0.3-0.6,0.7-0.6c0.2,0,0.3,0,0.4,0c0,0.1,0,0.4,0.1,0.5H94.3z"/>
		<path class="st17" d="M96.4,244.3c-0.1,0-0.1,0-0.2,0c-0.3,0-0.4-0.2-0.4-0.5v-1.2h-0.3v0l0.1-0.1h0.2v-0.3
			c0.1-0.1,0.2-0.2,0.3-0.3h0.1c0,0.2,0,0.4,0,0.6h0.5c0,0,0,0.1,0,0.2h-0.6v1.1c0,0.3,0.1,0.4,0.3,0.4c0.1,0,0.2,0,0.3-0.1l0,0.1
			L96.4,244.3z"/>
		<path class="st17" d="M98.7,244.3h-1v-0.1c0.3,0,0.3,0,0.3-0.3v-0.9c0-0.3,0-0.3-0.3-0.3v-0.1c0.2,0,0.4-0.1,0.6-0.2
			c0,0.1,0,0.3,0,0.5c0.2-0.2,0.3-0.5,0.6-0.5c0.2,0,0.3,0.1,0.3,0.2c0,0.1-0.1,0.2-0.1,0.3c0,0-0.1,0-0.1,0
			c-0.1-0.1-0.1-0.1-0.2-0.1c-0.1,0-0.3,0.1-0.3,0.3v0.8c0,0.3,0,0.3,0.3,0.3V244.3L98.7,244.3z"/>
		<path class="st17" d="M101.6,244.3c-0.1,0-0.2,0-0.2-0.1c0,0-0.1-0.1-0.1-0.2c-0.2,0.1-0.4,0.3-0.5,0.3c-0.3,0-0.5-0.3-0.5-0.5
			c0-0.2,0.1-0.3,0.3-0.4c0.3-0.1,0.6-0.2,0.7-0.3V243c0-0.3-0.2-0.5-0.4-0.5c-0.1,0-0.2,0-0.2,0.1c0,0-0.1,0.2-0.1,0.3
			c0,0.1,0,0.1-0.1,0.1c-0.1,0-0.2-0.1-0.2-0.2c0,0,0-0.1,0.1-0.2c0.1-0.1,0.4-0.3,0.6-0.3c0.1,0,0.3,0,0.3,0.1
			c0.2,0.1,0.2,0.3,0.2,0.5v0.8c0,0.2,0.1,0.3,0.2,0.3c0,0,0.1,0,0.2,0l0,0.1L101.6,244.3z M101.3,243.2c-0.1,0-0.3,0.1-0.4,0.2
			c-0.2,0.1-0.3,0.2-0.3,0.3c0,0.2,0.2,0.3,0.3,0.3c0.1,0,0.3-0.1,0.3-0.2C101.3,243.7,101.3,243.4,101.3,243.2z"/>
		<path class="st17" d="M103.9,244.3c-0.1,0-0.1,0-0.2,0c-0.3,0-0.4-0.2-0.4-0.5v-1.2H103v0l0.1-0.1h0.2v-0.3
			c0.1-0.1,0.2-0.2,0.3-0.3h0.1c0,0.2,0,0.4,0,0.6h0.5c0,0,0,0.1,0,0.2h-0.5v1.1c0,0.3,0.1,0.4,0.3,0.4c0.1,0,0.2,0,0.3-0.1l0,0.1
			L103.9,244.3z"/>
		<path class="st17" d="M105.2,244.3v-0.1c0.3,0,0.3,0,0.3-0.3v-0.9c0-0.3,0-0.3-0.3-0.3v-0.1c0.2,0,0.4-0.1,0.6-0.2
			c0,0.2,0,0.3,0,0.6v0.9c0,0.3,0,0.3,0.3,0.3v0.1H105.2z M105.6,241.9c-0.1,0-0.2-0.1-0.2-0.2c0-0.1,0.1-0.3,0.2-0.3
			c0.1,0,0.2,0.1,0.2,0.3C105.9,241.8,105.8,241.9,105.6,241.9z"/>
		<path class="st17" d="M108.2,242.3c0.6,0,0.9,0.4,0.9,1c0,0.7-0.5,1-0.9,1c-0.6,0-0.9-0.5-0.9-1
			C107.2,242.7,107.8,242.3,108.2,242.3z M108.2,242.5c-0.3,0-0.5,0.3-0.5,0.8c0,0.6,0.3,0.9,0.6,0.9c0.3,0,0.5-0.2,0.5-0.8
			C108.7,242.9,108.5,242.5,108.2,242.5z"/>
		<path class="st17" d="M111.5,244.3v-0.1c0.3,0,0.3,0,0.3-0.3v-0.7c0-0.3-0.1-0.5-0.4-0.5c-0.2,0-0.3,0.1-0.5,0.2v1
			c0,0.3,0,0.3,0.3,0.3v0.1h-0.9v-0.1c0.3,0,0.3,0,0.3-0.3v-0.9c0-0.3,0-0.3-0.3-0.3v-0.1c0.2,0,0.4-0.1,0.6-0.2c0,0.1,0,0.3,0,0.3
			c0.1,0,0.2-0.1,0.3-0.2c0.1-0.1,0.2-0.1,0.3-0.1c0.3,0,0.6,0.3,0.6,0.7v0.8c0,0.3,0,0.3,0.3,0.3v0.1L111.5,244.3L111.5,244.3z"/>
		<g class="st3">
			<path class="st4" d="M114.5,249.9l-7.1-1.9l1.9,7.1l1.8-1.7l2.7,2.7l1.7-1.6l-2.7-2.7L114.5,249.9z"/>
		</g>
		<path class="st18" d="M112.4,247.8l-7.1-1.9l1.9,7.1l1.7-1.7l2.7,2.7l1.7-1.6l-2.7-2.7L112.4,247.8z"/>
		<g class="st3">
			<path class="st4" d="M207.9,199.6h-84.6v84.6h84.6V199.6z"/>
			<path class="st4" d="M207.9,199.3h-84.6v7.3h84.6V199.3z"/>
			<path class="st5" d="M200.7,201.1l4.3,4.4"/>
			<path class="st5" d="M205,201.1l-4.4,4.3"/>
			<path class="st4" d="M165.6,244.1c7.4,0,13.3-6,13.3-13.3c0-7.4-6-13.3-13.3-13.3s-13.3,6-13.3,13.3
				C152.3,238.1,158.3,244.1,165.6,244.1z"/>
			<path class="st4" d="M168,232.5h-4.8v4.8h4.8V232.5z"/>
			<path class="st4" d="M165.5,235.7h-3.7v2.3h3.7V235.7z"/>
			<path class="st4" d="M170.1,235.7h-3.7v2.3h3.7V235.7z"/>
			<path class="st4" d="M174.4,245.4h-17.1v-4.1c0-2.4,1.9-4.3,4.3-4.3h8.4c2.4,0,4.3,1.9,4.3,4.3L174.4,245.4L174.4,245.4z"/>
			<path class="st4" d="M159.3,229.1c1.6,0,2.9-1.3,2.9-2.9c0-1.6-1.3-2.9-2.9-2.9s-2.9,1.3-2.9,2.9
				C156.4,227.8,157.7,229.1,159.3,229.1z"/>
			<path class="st4" d="M171.9,229.1c1.6,0,2.9-1.3,2.9-2.9c0-1.6-1.3-2.9-2.9-2.9s-2.9,1.3-2.9,2.9
				C169,227.8,170.3,229.1,171.9,229.1z"/>
			<path class="st4" d="M165.8,234.9L165.8,234.9c-3.8,0-6.9-3-6.9-6.8v-4.6c0-3.8,3-6.8,6.8-6.8h0c3.8,0,6.8,3,6.8,6.8v4.6
				C172.7,231.8,169.6,234.9,165.8,234.9z"/>
			<path class="st4" d="M161,219.8c0.6,0.3,1.2,0.5,1.9,0.7c1.3,0.3,2.6,0.3,3.9,0.2c1.2-0.1,2.5-0.3,3.7-0.8
				c1.2-0.5,2.3-1.3,2.9-2.4c0.6-1.1,0.6-2.6,0-3.6c-0.1-0.1-0.2-0.3-0.3-0.3c-0.2-0.1-0.4-0.1-0.6-0.1c-0.4,0-0.7,0.1-1.1,0.3
				c-0.3,0.2-0.6,0.4-0.9,0.6c-0.3,0.2-0.7,0.3-1,0.1c-0.2-0.1-0.4-0.3-0.6-0.5c-0.4-0.4-1.1-0.4-1.6-0.4c-0.2,0-0.4,0-0.6,0.1
				c-0.3,0.2-0.5,0.7-0.8,1c-0.3,0.3-0.7,0.4-1.1,0.3c-0.4-0.1-0.7-0.4-1.1-0.4c-0.5,0-0.9,0.2-1.2,0.6c-0.3,0.3-0.5,0.8-0.7,1.2
				c-0.5,0.7-1.1,1.3-1.6,2c-0.2,0.3-0.1,1.8-0.1,1.8S160.7,219.6,161,219.8z"/>
			<path class="st4" d="M162.5,226.9c0,0.2-0.2,0.4-0.4,0.4c-0.2,0-0.4-0.2-0.4-0.4c0-0.2,0.2-0.4,0.4-0.4
				C162.4,226.5,162.5,226.7,162.5,226.9z"/>
			<path class="st4" d="M169.2,227.3c0.2,0,0.4-0.2,0.4-0.4c0-0.2-0.2-0.4-0.4-0.4c-0.2,0-0.4,0.2-0.4,0.4
				C168.9,227.1,169,227.3,169.2,227.3z"/>
			<path class="st4" d="M164,229.1h3.7C167.7,229.1,165.8,231.6,164,229.1z"/>
			<path class="st6" d="M190.9,256.1h-50.6c-1.7,0-3.2-1.4-3.2-3.2c0-1.8,1.4-3.2,3.2-3.2h50.6c1.8,0,3.2,1.4,3.2,3.2
				C194.1,254.6,192.6,256.1,190.9,256.1z"/>
			<path class="st6" d="M190.9,265.6h-50.6c-1.7,0-3.2-1.4-3.2-3.2c0-1.7,1.4-3.2,3.2-3.2h50.6c1.8,0,3.2,1.4,3.2,3.2
				S192.6,265.6,190.9,265.6z"/>
			<path class="st4" d="M177.3,277.2h-19c-1.7,0-3.2-1.4-3.2-3.2c0-1.7,1.4-3.2,3.2-3.2h19c1.8,0,3.2,1.4,3.2,3.2
				C180.4,275.8,179,277.2,177.3,277.2z"/>
			<path class="st4" d="M175.1,275.1h-19c-1.8,0-3.2-1.4-3.2-3.2c0-1.8,1.4-3.2,3.2-3.2h19c1.8,0,3.2,1.4,3.2,3.2
				C178.3,273.6,176.9,275.1,175.1,275.1z"/>
			<path class="st4" d="M160.7,251.9v1c0,0.1,0,0.3-0.1,0.3c-0.1,0.1-0.2,0.1-0.4,0.1l-0.1,0c-0.2,0-0.3,0-0.4-0.1
				c-0.1-0.1-0.1-0.2-0.1-0.4v-1h0.2v1c0,0.1,0,0.2,0.1,0.2c0.1,0.1,0.1,0.1,0.3,0.1c0.1,0,0.2,0,0.3-0.1c0.1-0.1,0.1-0.1,0.1-0.2
				v-1H160.7z M161.5,252.7c-0.2,0-0.3-0.1-0.4-0.2c-0.1-0.1-0.1-0.2-0.1-0.3c0-0.1,0-0.2,0.1-0.3c0.1-0.1,0.2-0.1,0.4-0.1
				c0.1,0,0.2,0,0.3,0.1c0.1,0,0.1,0.1,0.2,0.2c0,0.1,0.1,0.1,0.1,0.2h-0.2c0-0.1,0-0.2-0.1-0.2c-0.1-0.1-0.1-0.1-0.2-0.1
				c-0.1,0-0.2,0-0.2,0.1c-0.1,0-0.1,0.1-0.1,0.2c0,0.1,0,0.1,0.1,0.2c0.1,0,0.1,0.1,0.3,0.1c0.1,0,0.2,0.1,0.3,0.1
				c0.1,0,0.1,0.1,0.2,0.1c0,0.1,0.1,0.1,0.1,0.2c0,0.1,0,0.2-0.1,0.3c-0.1,0.1-0.2,0.1-0.4,0.1c-0.1,0-0.2,0-0.3-0.1
				c-0.1,0-0.2-0.1-0.2-0.2c0-0.1-0.1-0.1-0.1-0.2h0.2c0,0.1,0,0.2,0.1,0.2c0.1,0.1,0.2,0.1,0.3,0.1c0.1,0,0.2,0,0.2-0.1
				c0.1,0,0.1-0.1,0.1-0.2c0-0.1,0-0.1-0.1-0.2C161.7,252.8,161.6,252.7,161.5,252.7z M163.1,252.7h-0.6v0.5h0.7v0.2h-0.9v-1.5h0.9
				v0.2h-0.7v0.5h0.6V252.7z M164,252.7h-0.3v0.6h-0.2v-1.5h0.5c0.2,0,0.3,0,0.4,0.1c0.1,0.1,0.1,0.2,0.1,0.3c0,0.1,0,0.2-0.1,0.2
				c0,0.1-0.1,0.1-0.2,0.2l0.3,0.6v0h-0.2L164,252.7z M163.7,252.6h0.3c0.1,0,0.2,0,0.2-0.1c0.1-0.1,0.1-0.1,0.1-0.2
				c0-0.1,0-0.2-0.1-0.2c-0.1,0-0.1-0.1-0.2-0.1h-0.3V252.6z M165.9,253.3h-0.2l-0.7-1.1v1.1h-0.2v-1.5h0.2l0.7,1.1v-1.1h0.2V253.3z
				 M167,253h-0.6l-0.1,0.4h-0.2l0.6-1.5h0.2l0.6,1.5h-0.2L167,253z M166.5,252.8h0.5l-0.3-0.7L166.5,252.8z M167.8,251.9l0.5,1.2
				l0.5-1.2h0.3v1.5h-0.2v-0.6l0-0.6l-0.5,1.2h-0.1l-0.5-1.2l0,0.6v0.6h-0.2v-1.5H167.8z M170.2,252.7h-0.6v0.5h0.7v0.2h-0.9v-1.5
				h0.9v0.2h-0.7v0.5h0.6V252.7z"/>
			<path class="st4" d="M161.4,271.8h0.9v0.2h-1.2v-2h0.3V271.8z M164.1,271c0,0.2,0,0.4-0.1,0.5c-0.1,0.1-0.2,0.3-0.3,0.3
				c-0.1,0.1-0.3,0.1-0.4,0.1c-0.2,0-0.3,0-0.4-0.1c-0.1-0.1-0.2-0.2-0.3-0.3c-0.1-0.1-0.1-0.3-0.1-0.5v-0.1c0-0.2,0-0.4,0.1-0.5
				c0.1-0.1,0.2-0.3,0.3-0.3c0.1-0.1,0.3-0.1,0.4-0.1c0.2,0,0.3,0,0.4,0.1c0.1,0.1,0.2,0.2,0.3,0.3c0.1,0.1,0.1,0.3,0.1,0.5V271z
				 M163.9,270.9c0-0.2,0-0.4-0.1-0.5c-0.1-0.1-0.2-0.2-0.4-0.2c-0.2,0-0.3,0.1-0.4,0.2c-0.1,0.1-0.1,0.3-0.1,0.5v0.1
				c0,0.2,0,0.4,0.1,0.5c0.1,0.1,0.2,0.2,0.4,0.2c0.2,0,0.3-0.1,0.4-0.2c0.1-0.1,0.1-0.3,0.1-0.5V270.9z M166,271.7
				c-0.1,0.1-0.2,0.2-0.3,0.2c-0.1,0-0.3,0.1-0.4,0.1c-0.2,0-0.3,0-0.4-0.1c-0.1-0.1-0.2-0.2-0.3-0.3c-0.1-0.1-0.1-0.3-0.1-0.5v-0.2
				c0-0.3,0.1-0.5,0.2-0.7c0.1-0.2,0.3-0.2,0.6-0.2c0.2,0,0.4,0.1,0.5,0.2c0.1,0.1,0.2,0.3,0.2,0.5h-0.3c0-0.3-0.2-0.4-0.5-0.4
				c-0.2,0-0.3,0.1-0.4,0.2c-0.1,0.1-0.1,0.3-0.1,0.5v0.2c0,0.2,0.1,0.4,0.2,0.5c0.1,0.1,0.2,0.2,0.4,0.2c0.1,0,0.2,0,0.3,0
				c0.1,0,0.1-0.1,0.2-0.1v-0.4h-0.5V271h0.7V271.7z M166.7,272h-0.3v-2h0.3V272z M168.7,272h-0.3l-1-1.5v1.5h-0.3v-2h0.3l1,1.5V270
				h0.3V272z"/>
			<path class="st4" d="M159.8,262.3v0.6h-0.2v-1.5h0.5c0.2,0,0.3,0,0.4,0.1c0.1,0.1,0.1,0.2,0.1,0.3c0,0.1,0,0.3-0.1,0.3
				c-0.1,0.1-0.2,0.1-0.4,0.1H159.8z M159.8,262.1h0.3c0.1,0,0.2,0,0.2-0.1c0.1,0,0.1-0.1,0.1-0.2c0-0.1,0-0.2-0.1-0.2
				c-0.1-0.1-0.1-0.1-0.2-0.1h-0.4V262.1z M161.6,262.5H161l-0.1,0.4h-0.2l0.6-1.5h0.2l0.6,1.5h-0.2L161.6,262.5z M161.1,262.3h0.5
				l-0.3-0.7L161.1,262.3z M162.6,262.2c-0.2,0-0.3-0.1-0.4-0.2c-0.1-0.1-0.1-0.2-0.1-0.3c0-0.1,0-0.2,0.1-0.3
				c0.1-0.1,0.2-0.1,0.4-0.1c0.1,0,0.2,0,0.3,0.1c0.1,0,0.1,0.1,0.2,0.2c0,0.1,0.1,0.1,0.1,0.2h-0.2c0-0.1,0-0.2-0.1-0.2
				c-0.1-0.1-0.1-0.1-0.2-0.1c-0.1,0-0.2,0-0.2,0.1c-0.1,0-0.1,0.1-0.1,0.2c0,0.1,0,0.1,0.1,0.2c0.1,0,0.1,0.1,0.3,0.1
				c0.1,0,0.2,0.1,0.3,0.1c0.1,0,0.1,0.1,0.2,0.1c0,0.1,0.1,0.1,0.1,0.2c0,0.1,0,0.2-0.1,0.3c-0.1,0.1-0.2,0.1-0.4,0.1
				c-0.1,0-0.2,0-0.3-0.1c-0.1,0-0.2-0.1-0.2-0.2c0-0.1-0.1-0.1-0.1-0.2h0.2c0,0.1,0,0.2,0.1,0.2c0.1,0.1,0.2,0.1,0.3,0.1
				c0.1,0,0.2,0,0.2-0.1c0.1,0,0.1-0.1,0.1-0.2c0-0.1,0-0.1-0.1-0.2C162.8,262.3,162.7,262.2,162.6,262.2z M163.8,262.2
				c-0.2,0-0.3-0.1-0.4-0.2c-0.1-0.1-0.1-0.2-0.1-0.3c0-0.1,0-0.2,0.1-0.3c0.1-0.1,0.2-0.1,0.4-0.1c0.1,0,0.2,0,0.3,0.1
				c0.1,0,0.1,0.1,0.2,0.2c0,0.1,0.1,0.1,0.1,0.2h-0.2c0-0.1,0-0.2-0.1-0.2c-0.1-0.1-0.1-0.1-0.2-0.1c-0.1,0-0.2,0-0.2,0.1
				c-0.1,0-0.1,0.1-0.1,0.2c0,0.1,0,0.1,0.1,0.2c0.1,0,0.1,0.1,0.3,0.1c0.1,0,0.2,0.1,0.3,0.1c0.1,0,0.1,0.1,0.2,0.1
				c0,0.1,0.1,0.1,0.1,0.2c0,0.1,0,0.2-0.1,0.3c-0.1,0.1-0.2,0.1-0.4,0.1c-0.1,0-0.2,0-0.3-0.1c-0.1,0-0.2-0.1-0.2-0.2
				c0-0.1-0.1-0.1-0.1-0.2h0.2c0,0.1,0,0.2,0.1,0.2c0.1,0.1,0.2,0.1,0.3,0.1c0.1,0,0.2,0,0.2-0.1c0.1,0,0.1-0.1,0.1-0.2
				c0-0.1,0-0.1-0.1-0.2C164,262.3,163.9,262.2,163.8,262.2z M164.9,262.4l0,0.2L164.9,262.4l0.4-1h0.2l0.3,1l0,0.2l0-0.2l0.2-1h0.2
				l-0.4,1.5h-0.2l-0.3-1.1l0-0.1l0,0.1l-0.3,1.1h-0.2l-0.4-1.5h0.2L164.9,262.4z M167.6,262.1c0,0.1,0,0.3-0.1,0.4
				c0,0.1-0.1,0.2-0.2,0.2c-0.1,0.1-0.2,0.1-0.3,0.1c-0.1,0-0.2,0-0.3-0.1c-0.1-0.1-0.2-0.1-0.2-0.2c0-0.1-0.1-0.2-0.1-0.4v-0.1
				c0-0.1,0-0.3,0.1-0.4c0-0.1,0.1-0.2,0.2-0.2c0.1-0.1,0.2-0.1,0.3-0.1c0.1,0,0.2,0,0.3,0.1c0.1,0.1,0.2,0.1,0.2,0.2
				C167.6,261.8,167.6,261.9,167.6,262.1L167.6,262.1z M167.4,262.1c0-0.2,0-0.3-0.1-0.4c-0.1-0.1-0.2-0.1-0.3-0.1
				c-0.1,0-0.2,0-0.3,0.1c-0.1,0.1-0.1,0.2-0.1,0.4v0.1c0,0.2,0,0.3,0.1,0.4c0.1,0.1,0.2,0.1,0.3,0.1c0.1,0,0.2,0,0.3-0.1
				c0.1-0.1,0.1-0.2,0.1-0.4V262.1z M168.4,262.2h-0.3v0.6h-0.2v-1.5h0.5c0.2,0,0.3,0,0.4,0.1c0.1,0.1,0.1,0.2,0.1,0.3
				c0,0.1,0,0.2-0.1,0.2c0,0.1-0.1,0.1-0.2,0.2l0.3,0.6v0h-0.2L168.4,262.2z M168.1,262.1h0.3c0.1,0,0.2,0,0.2-0.1
				c0.1-0.1,0.1-0.1,0.1-0.2c0-0.1,0-0.2-0.1-0.2c-0.1,0-0.1-0.1-0.2-0.1h-0.3V262.1z M169.1,262.8v-1.5h0.4c0.1,0,0.2,0,0.3,0.1
				c0.1,0.1,0.2,0.1,0.2,0.2c0.1,0.1,0.1,0.2,0.1,0.4v0.1c0,0.1,0,0.3-0.1,0.4c-0.1,0.1-0.1,0.2-0.2,0.2c-0.1,0.1-0.2,0.1-0.3,0.1
				H169.1z M169.3,261.5v1.2h0.2c0.1,0,0.3,0,0.3-0.1c0.1-0.1,0.1-0.2,0.1-0.4v-0.1c0-0.2,0-0.3-0.1-0.4c-0.1-0.1-0.2-0.1-0.3-0.1
				H169.3z"/>
		</g>
		<path class="st7" d="M205.8,197.4h-84.6V282h84.6V197.4z"/>
		<path class="st8" d="M205.8,197.1h-84.6v7.3h84.6V197.1z"/>
		<path class="st9" d="M198.5,199l4.3,4.4"/>
		<path class="st9" d="M202.8,199l-4.4,4.3"/>
		<path class="st10" d="M163.5,242c7.4,0,13.3-6,13.3-13.3s-6-13.3-13.3-13.3c-7.4,0-13.3,6-13.3,13.3S156.1,242,163.5,242z"/>
		<path class="st11" d="M165.9,230.3h-4.8v4.8h4.8V230.3z"/>
		<path class="st7" d="M163.4,233.6h-3.7v2.3h3.7V233.6z"/>
		<path class="st7" d="M168,233.6h-3.7v2.3h3.7V233.6z"/>
		<path class="st12" d="M172.2,243.2h-17.1v-4.1c0-2.4,1.9-4.3,4.3-4.3h8.4c2.4,0,4.3,1.9,4.3,4.3L172.2,243.2L172.2,243.2z"/>
		<path class="st11" d="M157.1,226.9c1.6,0,2.9-1.3,2.9-2.9c0-1.6-1.3-2.9-2.9-2.9c-1.6,0-2.9,1.3-2.9,2.9
			C154.2,225.6,155.5,226.9,157.1,226.9z"/>
		<path class="st11" d="M169.8,226.9c1.6,0,2.9-1.3,2.9-2.9c0-1.6-1.3-2.9-2.9-2.9c-1.6,0-2.9,1.3-2.9,2.9
			C166.9,225.6,168.2,226.9,169.8,226.9z"/>
		<path class="st11" d="M163.7,232.8L163.7,232.8c-3.8,0-6.9-3-6.9-6.8v-4.6c0-3.8,3-6.8,6.8-6.8h0c3.8,0,6.8,3,6.8,6.8v4.6
			C170.5,229.7,167.4,232.8,163.7,232.8z"/>
		<path class="st1" d="M158.9,217.6c0.6,0.3,1.2,0.5,1.9,0.7c1.3,0.3,2.6,0.3,3.9,0.2c1.2-0.1,2.5-0.3,3.7-0.8
			c1.2-0.5,2.3-1.3,2.9-2.4s0.6-2.6,0-3.6c-0.1-0.1-0.2-0.3-0.3-0.3c-0.2-0.1-0.4-0.1-0.6-0.1c-0.4,0-0.7,0.1-1.1,0.3
			c-0.3,0.2-0.6,0.4-0.9,0.6c-0.3,0.2-0.7,0.3-1,0.1c-0.2-0.1-0.4-0.3-0.6-0.5c-0.4-0.4-1.1-0.4-1.6-0.4c-0.2,0-0.4,0-0.6,0.1
			c-0.3,0.2-0.5,0.7-0.8,1c-0.3,0.3-0.7,0.4-1.1,0.3c-0.4-0.1-0.7-0.4-1.1-0.4c-0.5,0-0.9,0.2-1.2,0.6c-0.3,0.3-0.5,0.8-0.7,1.2
			c-0.5,0.7-1.1,1.3-1.6,2c-0.2,0.3-0.1,1.7-0.1,1.7S158.6,217.5,158.9,217.6z"/>
		<path class="st1" d="M160.4,224.8c0,0.2-0.2,0.4-0.4,0.4c-0.2,0-0.4-0.2-0.4-0.4s0.2-0.4,0.4-0.4
			C160.2,224.4,160.4,224.5,160.4,224.8z"/>
		<path class="st1" d="M167.1,225.1c0.2,0,0.4-0.2,0.4-0.4c0-0.2-0.2-0.4-0.4-0.4c-0.2,0-0.4,0.2-0.4,0.4
			C166.7,225,166.9,225.1,167.1,225.1z"/>
		<path class="st7" d="M161.9,227h3.7C165.6,227,163.6,229.5,161.9,227z"/>
		<path class="st13" d="M188.7,253.9h-50.6c-1.8,0-3.2-1.4-3.2-3.2c0-1.8,1.4-3.2,3.2-3.2h50.6c1.7,0,3.2,1.4,3.2,3.2
			C191.9,252.5,190.5,253.9,188.7,253.9z"/>
		<path class="st13" d="M188.7,263.4h-50.6c-1.8,0-3.2-1.4-3.2-3.2c0-1.8,1.4-3.2,3.2-3.2h50.6c1.7,0,3.2,1.4,3.2,3.2
			S190.5,263.4,188.7,263.4z"/>
		<g class="st3">
			<path class="st4" d="M175.1,275.1h-19c-1.8,0-3.2-1.4-3.2-3.2c0-1.8,1.4-3.2,3.2-3.2h19c1.8,0,3.2,1.4,3.2,3.2
				C178.3,273.6,176.9,275.1,175.1,275.1z"/>
		</g>
		<path class="st1" d="M173,272.9h-19c-1.8,0-3.2-1.4-3.2-3.2c0-1.8,1.4-3.2,3.2-3.2h19c1.7,0,3.2,1.4,3.2,3.2
			C176.2,271.5,174.7,272.9,173,272.9z"/>
		<path class="st14" d="M158.6,249.7v1c0,0.1,0,0.3-0.1,0.3c-0.1,0.1-0.2,0.1-0.4,0.1l-0.1,0c-0.2,0-0.3,0-0.4-0.1
			c-0.1-0.1-0.1-0.2-0.1-0.4v-1h0.2v1c0,0.1,0,0.2,0.1,0.2c0.1,0.1,0.1,0.1,0.3,0.1c0.1,0,0.2,0,0.3-0.1c0.1-0.1,0.1-0.1,0.1-0.2v-1
			H158.6z M159.4,250.5c-0.2,0-0.3-0.1-0.4-0.2c-0.1-0.1-0.1-0.2-0.1-0.3c0-0.1,0-0.2,0.1-0.3c0.1-0.1,0.2-0.1,0.4-0.1
			c0.1,0,0.2,0,0.3,0.1c0.1,0,0.1,0.1,0.2,0.2c0,0.1,0.1,0.1,0.1,0.2h-0.2c0-0.1,0-0.2-0.1-0.2c-0.1-0.1-0.1-0.1-0.2-0.1
			c-0.1,0-0.2,0-0.2,0.1c-0.1,0-0.1,0.1-0.1,0.2c0,0.1,0,0.1,0.1,0.2c0.1,0,0.1,0.1,0.3,0.1c0.1,0,0.2,0.1,0.3,0.1
			c0.1,0,0.1,0.1,0.2,0.1c0,0.1,0.1,0.1,0.1,0.2c0,0.1,0,0.2-0.1,0.3c-0.1,0.1-0.2,0.1-0.4,0.1c-0.1,0-0.2,0-0.3-0.1
			c-0.1,0-0.2-0.1-0.2-0.2c0-0.1-0.1-0.1-0.1-0.2h0.2c0,0.1,0,0.2,0.1,0.2c0.1,0.1,0.2,0.1,0.3,0.1c0.1,0,0.2,0,0.2-0.1
			c0.1,0,0.1-0.1,0.1-0.2c0-0.1,0-0.1-0.1-0.2C159.6,250.6,159.5,250.6,159.4,250.5z M161,250.5h-0.6v0.5h0.7v0.2h-0.9v-1.5h0.9v0.2
			h-0.7v0.5h0.6V250.5z M161.9,250.6h-0.3v0.6h-0.2v-1.5h0.5c0.2,0,0.3,0,0.4,0.1c0.1,0.1,0.1,0.2,0.1,0.3c0,0.1,0,0.2-0.1,0.2
			c0,0.1-0.1,0.1-0.2,0.2l0.3,0.6v0h-0.2L161.9,250.6z M161.5,250.4h0.3c0.1,0,0.2,0,0.2-0.1c0.1,0,0.1-0.1,0.1-0.2
			c0-0.1,0-0.2-0.1-0.2c-0.1,0-0.1-0.1-0.2-0.1h-0.3V250.4z M163.7,251.2h-0.2l-0.7-1.1v1.1h-0.2v-1.5h0.2l0.7,1.1v-1.1h0.2V251.2z
			 M164.9,250.8h-0.6l-0.1,0.4H164l0.6-1.5h0.2l0.6,1.5H165L164.9,250.8z M164.3,250.7h0.5l-0.3-0.7L164.3,250.7z M165.7,249.7
			l0.5,1.2l0.5-1.2h0.3v1.5h-0.2v-0.6l0-0.6l-0.5,1.2h-0.1l-0.5-1.2l0,0.6v0.6h-0.2v-1.5H165.7z M168.1,250.5h-0.6v0.5h0.7v0.2h-0.9
			v-1.5h0.9v0.2h-0.7v0.5h0.6V250.5z"/>
		<path class="st7" d="M159.3,269.6h0.9v0.2H159v-2h0.3V269.6z M162,268.9c0,0.2,0,0.4-0.1,0.5c-0.1,0.1-0.2,0.3-0.3,0.3
			c-0.1,0.1-0.3,0.1-0.4,0.1c-0.2,0-0.3,0-0.4-0.1c-0.1-0.1-0.2-0.2-0.3-0.3c-0.1-0.1-0.1-0.3-0.1-0.5v-0.1c0-0.2,0-0.4,0.1-0.5
			c0.1-0.1,0.2-0.3,0.3-0.3c0.1-0.1,0.3-0.1,0.4-0.1c0.2,0,0.3,0,0.4,0.1c0.1,0.1,0.2,0.2,0.3,0.3c0.1,0.1,0.1,0.3,0.1,0.5V268.9z
			 M161.7,268.8c0-0.2,0-0.4-0.1-0.5c-0.1-0.1-0.2-0.2-0.4-0.2c-0.2,0-0.3,0.1-0.4,0.2c-0.1,0.1-0.1,0.3-0.1,0.5v0.1
			c0,0.2,0,0.4,0.1,0.5c0.1,0.1,0.2,0.2,0.4,0.2c0.2,0,0.3-0.1,0.4-0.2c0.1-0.1,0.1-0.3,0.1-0.5V268.8z M163.9,269.6
			c-0.1,0.1-0.2,0.2-0.3,0.2c-0.1,0-0.3,0.1-0.4,0.1c-0.2,0-0.3,0-0.4-0.1c-0.1-0.1-0.2-0.2-0.3-0.3c-0.1-0.1-0.1-0.3-0.1-0.5v-0.2
			c0-0.3,0.1-0.5,0.2-0.7c0.1-0.2,0.3-0.2,0.6-0.2c0.2,0,0.4,0.1,0.5,0.2c0.1,0.1,0.2,0.3,0.2,0.5h-0.3c0-0.3-0.2-0.4-0.5-0.4
			c-0.2,0-0.3,0.1-0.4,0.2c-0.1,0.1-0.1,0.3-0.1,0.5v0.2c0,0.2,0.1,0.4,0.2,0.5c0.1,0.1,0.2,0.2,0.4,0.2c0.1,0,0.2,0,0.3,0
			c0.1,0,0.1-0.1,0.2-0.1v-0.4h-0.5v-0.2h0.7V269.6z M164.6,269.8h-0.3v-2h0.3V269.8z M166.6,269.8h-0.3l-1-1.5v1.5h-0.3v-2h0.3
			l1,1.5v-1.5h0.3V269.8z"/>
		<path class="st14" d="M157.7,260.1v0.6h-0.2v-1.5h0.5c0.2,0,0.3,0,0.4,0.1c0.1,0.1,0.1,0.2,0.1,0.3c0,0.1,0,0.3-0.1,0.3
			c-0.1,0.1-0.2,0.1-0.4,0.1H157.7z M157.7,260h0.3c0.1,0,0.2,0,0.2-0.1c0.1,0,0.1-0.1,0.1-0.2c0-0.1,0-0.2-0.1-0.2
			c-0.1-0.1-0.1-0.1-0.2-0.1h-0.4V260z M159.5,260.3h-0.6l-0.1,0.4h-0.2l0.6-1.5h0.2l0.6,1.5h-0.2L159.5,260.3z M158.9,260.2h0.5
			l-0.3-0.7L158.9,260.2z M160.4,260c-0.2,0-0.3-0.1-0.4-0.2c-0.1-0.1-0.1-0.2-0.1-0.3c0-0.1,0-0.2,0.1-0.3c0.1-0.1,0.2-0.1,0.4-0.1
			c0.1,0,0.2,0,0.3,0.1c0.1,0,0.1,0.1,0.2,0.2c0,0.1,0.1,0.1,0.1,0.2h-0.2c0-0.1,0-0.2-0.1-0.2c-0.1-0.1-0.1-0.1-0.2-0.1
			c-0.1,0-0.2,0-0.2,0.1c-0.1,0-0.1,0.1-0.1,0.2c0,0.1,0,0.1,0.1,0.2c0.1,0,0.1,0.1,0.3,0.1c0.1,0,0.2,0.1,0.3,0.1
			c0.1,0,0.1,0.1,0.2,0.1c0,0.1,0.1,0.1,0.1,0.2c0,0.1,0,0.2-0.1,0.3c-0.1,0.1-0.2,0.1-0.4,0.1c-0.1,0-0.2,0-0.3-0.1
			c-0.1,0-0.2-0.1-0.2-0.2c0-0.1-0.1-0.1-0.1-0.2h0.2c0,0.1,0,0.2,0.1,0.2c0.1,0.1,0.2,0.1,0.3,0.1c0.1,0,0.2,0,0.2-0.1
			c0.1,0,0.1-0.1,0.1-0.2c0-0.1,0-0.1-0.1-0.2C160.7,260.1,160.6,260.1,160.4,260z M161.7,260c-0.2,0-0.3-0.1-0.4-0.2
			c-0.1-0.1-0.1-0.2-0.1-0.3c0-0.1,0-0.2,0.1-0.3c0.1-0.1,0.2-0.1,0.4-0.1c0.1,0,0.2,0,0.3,0.1c0.1,0,0.1,0.1,0.2,0.2
			c0,0.1,0.1,0.1,0.1,0.2H162c0-0.1,0-0.2-0.1-0.2c-0.1-0.1-0.1-0.1-0.2-0.1c-0.1,0-0.2,0-0.2,0.1c-0.1,0-0.1,0.1-0.1,0.2
			c0,0.1,0,0.1,0.1,0.2c0.1,0,0.1,0.1,0.3,0.1c0.1,0,0.2,0.1,0.3,0.1c0.1,0,0.1,0.1,0.2,0.1c0,0.1,0.1,0.1,0.1,0.2
			c0,0.1,0,0.2-0.1,0.3c-0.1,0.1-0.2,0.1-0.4,0.1c-0.1,0-0.2,0-0.3-0.1c-0.1,0-0.2-0.1-0.2-0.2c0-0.1-0.1-0.1-0.1-0.2h0.2
			c0,0.1,0,0.2,0.1,0.2c0.1,0.1,0.2,0.1,0.3,0.1c0.1,0,0.2,0,0.2-0.1c0.1,0,0.1-0.1,0.1-0.2c0-0.1,0-0.1-0.1-0.2
			C161.9,260.1,161.8,260.1,161.7,260z M162.8,260.2l0,0.2L162.8,260.2l0.4-1h0.2l0.3,1l0,0.2l0-0.2l0.2-1h0.2l-0.4,1.5h-0.2
			l-0.3-1.1l0-0.1l0,0.1l-0.3,1.1h-0.2l-0.4-1.5h0.2L162.8,260.2z M165.4,260c0,0.1,0,0.3-0.1,0.4c0,0.1-0.1,0.2-0.2,0.2
			c-0.1,0.1-0.2,0.1-0.3,0.1c-0.1,0-0.2,0-0.3-0.1c-0.1-0.1-0.2-0.1-0.2-0.2c0-0.1-0.1-0.2-0.1-0.4v-0.1c0-0.1,0-0.3,0.1-0.4
			c0-0.1,0.1-0.2,0.2-0.2c0.1-0.1,0.2-0.1,0.3-0.1c0.1,0,0.2,0,0.3,0.1c0.1,0.1,0.2,0.1,0.2,0.2C165.4,259.7,165.4,259.8,165.4,260
			L165.4,260z M165.2,259.9c0-0.2,0-0.3-0.1-0.4c-0.1-0.1-0.2-0.1-0.3-0.1c-0.1,0-0.2,0-0.3,0.1c-0.1,0.1-0.1,0.2-0.1,0.4v0.1
			c0,0.2,0,0.3,0.1,0.4c0.1,0.1,0.2,0.1,0.3,0.1c0.1,0,0.2,0,0.3-0.1c0.1-0.1,0.1-0.2,0.1-0.4V259.9z M166.3,260.1h-0.3v0.6h-0.2
			v-1.5h0.5c0.2,0,0.3,0,0.4,0.1c0.1,0.1,0.1,0.2,0.1,0.3c0,0.1,0,0.2-0.1,0.2c0,0.1-0.1,0.1-0.2,0.2l0.3,0.6v0h-0.2L166.3,260.1z
			 M165.9,259.9h0.3c0.1,0,0.2,0,0.2-0.1c0.1,0,0.1-0.1,0.1-0.2c0-0.1,0-0.2-0.1-0.2c-0.1,0-0.1-0.1-0.2-0.1h-0.3V259.9z M167,260.7
			v-1.5h0.4c0.1,0,0.2,0,0.3,0.1c0.1,0.1,0.2,0.1,0.2,0.2c0.1,0.1,0.1,0.2,0.1,0.4v0.1c0,0.1,0,0.3-0.1,0.4
			c-0.1,0.1-0.1,0.2-0.2,0.2c-0.1,0.1-0.2,0.1-0.3,0.1H167z M167.2,259.4v1.2h0.2c0.1,0,0.3,0,0.3-0.1c0.1-0.1,0.1-0.2,0.1-0.4v-0.1
			c0-0.2,0-0.3-0.1-0.4c-0.1-0.1-0.2-0.1-0.3-0.1H167.2z"/>
	</g>
	<path class="st19" d="M140.5,218.4l10,28.1l9.9-28.1h10.5v38.8h-8v-10.6l0.8-18.3l-10.5,28.9h-5.5l-10.4-28.9l0.8,18.3v10.6h-8
		v-38.8H140.5z M201.2,240.4h-15.4v10.4h18v6.4h-26v-38.8h26v6.5h-18v9.2h15.4V240.4z M219,218.4l10,28.1l9.9-28.1h10.5v38.8h-8
		v-10.6l0.8-18.3l-10.5,28.9h-5.5l-10.4-28.9l0.8,18.3v10.6h-8v-38.8H219z M256.4,257.2v-38.8H270c4.7,0,8.3,0.9,10.7,2.7
		c2.4,1.8,3.7,4.4,3.7,7.9c0,1.9-0.5,3.6-1.5,5c-1,1.4-2.3,2.5-4.1,3.2c2,0.5,3.6,1.5,4.7,3c1.2,1.5,1.7,3.4,1.7,5.5
		c0,3.7-1.2,6.6-3.6,8.5c-2.4,1.9-5.8,2.9-10.2,2.9H256.4z M264.4,240.3v10.5h6.9c1.9,0,3.3-0.4,4.4-1.3c1.1-0.9,1.6-2.2,1.6-3.7
		c0-3.6-1.8-5.4-5.5-5.4H264.4z M264.4,234.7h5.9c4-0.1,6.1-1.7,6.1-4.8c0-1.8-0.5-3-1.5-3.8c-1-0.8-2.6-1.2-4.8-1.2h-5.6V234.7z
		 M314.6,240.4h-15.4v10.4h18v6.4h-26v-38.8h26v6.5h-18v9.2h15.4V240.4z M336.3,243H330v14.2h-8v-38.8h14.4c4.6,0,8.1,1,10.6,3.1
		c2.5,2,3.7,4.9,3.7,8.7c0,2.6-0.6,4.9-1.7,6.6c-1.1,1.8-2.9,3.2-5.2,4.2l8.4,15.9v0.4h-8.6L336.3,243z M330,236.6h6.5
		c2,0,3.6-0.5,4.7-1.5c1.1-1,1.7-2.4,1.7-4.2c0-1.8-0.5-3.3-1.6-4.3c-1-1-2.6-1.6-4.8-1.6H330V236.6z M377,247.1
		c0-1.5-0.5-2.7-1.6-3.5c-1.1-0.8-3-1.7-5.8-2.6c-2.8-0.9-5-1.8-6.6-2.7c-4.4-2.4-6.6-5.6-6.6-9.6c0-2.1,0.6-4,1.8-5.6
		c1.2-1.7,2.9-2.9,5.1-3.9c2.2-0.9,4.7-1.4,7.5-1.4c2.8,0,5.2,0.5,7.4,1.5c2.2,1,3.8,2.4,5,4.2c1.2,1.8,1.8,3.9,1.8,6.2h-8
		c0-1.8-0.6-3.2-1.7-4.1c-1.1-1-2.7-1.5-4.7-1.5c-2,0-3.5,0.4-4.6,1.3c-1.1,0.8-1.6,1.9-1.6,3.3c0,1.3,0.6,2.3,1.9,3.2
		c1.3,0.9,3.2,1.7,5.6,2.4c4.5,1.4,7.9,3.1,9.9,5.1c2.1,2,3.1,4.5,3.1,7.6c0,3.4-1.3,6-3.8,7.9c-2.5,1.9-6,2.9-10.3,2.9
		c-3,0-5.7-0.5-8.2-1.6c-2.5-1.1-4.3-2.6-5.6-4.5c-1.3-1.9-1.9-4.1-1.9-6.6h8c0,4.3,2.6,6.4,7.7,6.4c1.9,0,3.4-0.4,4.5-1.1
		C376.4,249.5,377,248.4,377,247.1z M422,257.2h-8v-16.6h-15.6v16.6h-8v-38.8h8v15.7H414v-15.7h8V257.2z M437.5,257.2h-8v-38.8h8
		V257.2z M453,243.6v13.7h-8v-38.8h15.1c2.9,0,5.5,0.5,7.7,1.6c2.2,1.1,3.9,2.6,5.1,4.6c1.2,2,1.8,4.2,1.8,6.7c0,3.8-1.3,6.8-3.9,9
		c-2.6,2.2-6.2,3.3-10.8,3.3H453z M453,237.1h7.1c2.1,0,3.7-0.5,4.8-1.5c1.1-1,1.7-2.4,1.7-4.3c0-1.9-0.6-3.4-1.7-4.6
		c-1.1-1.2-2.7-1.8-4.6-1.8H453V237.1z"/>
	
		<linearGradient id="SVGID_1_" gradientUnits="userSpaceOnUse" x1="177.6568" y1="262.2764" x2="465.1393" y2="262.2764" gradientTransform="matrix(1 0 0 -1 8.410366e-06 500.1102)">
		<stop  offset="0" style="stop-color:#A01BB2"/>
		<stop  offset="1" style="stop-color:#683387"/>
	</linearGradient>
	<path class="st20" d="M140.5,218.4l10,28.1l9.9-28.1h10.5v38.8h-8v-10.6l0.8-18.3l-10.5,28.9h-5.5l-10.4-28.9l0.8,18.3v10.6h-8
		v-38.8H140.5z M201.2,240.4h-15.4v10.4h18v6.4h-26v-38.8h26v6.5h-18v9.2h15.4V240.4z M219,218.4l10,28.1l9.9-28.1h10.5v38.8h-8
		v-10.6l0.8-18.3l-10.5,28.9h-5.5l-10.4-28.9l0.8,18.3v10.6h-8v-38.8H219z M256.4,257.2v-38.8H270c4.7,0,8.3,0.9,10.7,2.7
		c2.4,1.8,3.7,4.4,3.7,7.9c0,1.9-0.5,3.6-1.5,5c-1,1.4-2.3,2.5-4.1,3.2c2,0.5,3.6,1.5,4.7,3c1.2,1.5,1.7,3.4,1.7,5.5
		c0,3.7-1.2,6.6-3.6,8.5c-2.4,1.9-5.8,2.9-10.2,2.9H256.4z M264.4,240.3v10.5h6.9c1.9,0,3.3-0.4,4.4-1.3c1.1-0.9,1.6-2.2,1.6-3.7
		c0-3.6-1.8-5.4-5.5-5.4H264.4z M264.4,234.7h5.9c4-0.1,6.1-1.7,6.1-4.8c0-1.8-0.5-3-1.5-3.8c-1-0.8-2.6-1.2-4.8-1.2h-5.6V234.7z
		 M314.6,240.4h-15.4v10.4h18v6.4h-26v-38.8h26v6.5h-18v9.2h15.4V240.4z M336.3,243H330v14.2h-8v-38.8h14.4c4.6,0,8.1,1,10.6,3.1
		c2.5,2,3.7,4.9,3.7,8.7c0,2.6-0.6,4.9-1.7,6.6c-1.1,1.8-2.9,3.2-5.2,4.2l8.4,15.9v0.4h-8.6L336.3,243z M330,236.6h6.5
		c2,0,3.6-0.5,4.7-1.5c1.1-1,1.7-2.4,1.7-4.2c0-1.8-0.5-3.3-1.6-4.3c-1-1-2.6-1.6-4.8-1.6H330V236.6z M377,247.1
		c0-1.5-0.5-2.7-1.6-3.5c-1.1-0.8-3-1.7-5.8-2.6c-2.8-0.9-5-1.8-6.6-2.7c-4.4-2.4-6.6-5.6-6.6-9.6c0-2.1,0.6-4,1.8-5.6
		c1.2-1.7,2.9-2.9,5.1-3.9c2.2-0.9,4.7-1.4,7.5-1.4c2.8,0,5.2,0.5,7.4,1.5c2.2,1,3.8,2.4,5,4.2c1.2,1.8,1.8,3.9,1.8,6.2h-8
		c0-1.8-0.6-3.2-1.7-4.1c-1.1-1-2.7-1.5-4.7-1.5c-2,0-3.5,0.4-4.6,1.3c-1.1,0.8-1.6,1.9-1.6,3.3c0,1.3,0.6,2.3,1.9,3.2
		c1.3,0.9,3.2,1.7,5.6,2.4c4.5,1.4,7.9,3.1,9.9,5.1c2.1,2,3.1,4.5,3.1,7.6c0,3.4-1.3,6-3.8,7.9c-2.5,1.9-6,2.9-10.3,2.9
		c-3,0-5.7-0.5-8.2-1.6c-2.5-1.1-4.3-2.6-5.6-4.5c-1.3-1.9-1.9-4.1-1.9-6.6h8c0,4.3,2.6,6.4,7.7,6.4c1.9,0,3.4-0.4,4.5-1.1
		C376.4,249.5,377,248.4,377,247.1z M422,257.2h-8v-16.6h-15.6v16.6h-8v-38.8h8v15.7H414v-15.7h8V257.2z M437.5,257.2h-8v-38.8h8
		V257.2z M453,243.6v13.7h-8v-38.8h15.1c2.9,0,5.5,0.5,7.7,1.6c2.2,1.1,3.9,2.6,5.1,4.6c1.2,2,1.8,4.2,1.8,6.7c0,3.8-1.3,6.8-3.9,9
		c-2.6,2.2-6.2,3.3-10.8,3.3H453z M453,237.1h7.1c2.1,0,3.7-0.5,4.8-1.5c1.1-1,1.7-2.4,1.7-4.3c0-1.9-0.6-3.4-1.7-4.6
		c-1.1-1.2-2.7-1.8-4.6-1.8H453V237.1z"/>
</g>
</svg>
