<?xml version="1.0" encoding="UTF-8"?>
<svg version="1.1" viewBox="0 0 500 250" xml:space="preserve" xmlns="http://www.w3.org/2000/svg" xmlns:cc="http://creativecommons.org/ns#" xmlns:dc="http://purl.org/dc/elements/1.1/" xmlns:rdf="http://www.w3.org/1999/02/22-rdf-syntax-ns#"><metadata><rdf:RDF><cc:Work rdf:about=""><dc:format>image/svg+xml</dc:format><dc:type rdf:resource="http://purl.org/dc/dcmitype/StillImage"/><dc:title/></cc:Work></rdf:RDF></metadata>
<style type="text/css">
	.st0{opacity:0.45;}
	.st1{fill:#907FCC;}
	.st2{fill:none;stroke:#907FCC;stroke-miterlimit:10;}
	.st3{opacity:0.29;}
	.st4{opacity:0.29;fill:#575757;enable-background:new    ;}
	
		.st5{opacity:0.29;fill:none;stroke:#575757;stroke-linecap:round;stroke-linejoin:round;stroke-miterlimit:10;enable-background:new    ;}
	.st6{opacity:0.29;fill:none;stroke:#575757;stroke-miterlimit:10;enable-background:new    ;}
	.st7{fill:#F1F1F1;}
	.st8{fill:#BEB0DE;}
	.st9{fill:none;stroke:#F3F3F3;stroke-linecap:round;stroke-linejoin:round;stroke-miterlimit:10;}
	.st10{fill:#B3ABD2;}
	.st11{fill:#D2CCE7;}
	.st12{fill:#C2AFF6;}
	.st13{fill:none;stroke:#C6ABFA;stroke-miterlimit:10;}
	.st14{fill:#C6ABFA;}
	.st15{fill:#938CB8;}
	.st16{fill:none;stroke:#8D73CC;stroke-miterlimit:10;}
	.st17{fill:#8D73CC;}
	.st18{fill:#EBEBEB;}
	.st19{fill:#FFFFFF;}
	.st20{fill:url(#a);}
</style>

<g transform="translate(-7.5,-107.5)">
	<g class="st0">
		<path class="st1" d="m135.5 177v-4.6h-3.8c-0.3-1.3-0.8-2.5-1.5-3.6l2.7-2.7-3.2-3.2-2.7 2.7c-1.1-0.7-2.3-1.2-3.6-1.5v-3.8h-4.5v3.8c-1.3 0.3-2.5 0.8-3.6 1.5l-2.7-2.7-3.2 3.2 2.7 2.7c-0.7 1.1-1.2 2.3-1.5 3.6h-3.8v4.5h3.8c0.3 1.3 0.8 2.5 1.5 3.6l-2.7 2.7 3.2 3.2 2.7-2.7c1.1 0.7 2.3 1.2 3.6 1.5v3.8h4.5v-3.8c1.3-0.3 2.5-0.8 3.6-1.5l2.7 2.7 3.2-3.2-2.7-2.7c0.7-1.1 1.2-2.3 1.5-3.6zm-14.3 3.1c-3 0-5.4-2.4-5.4-5.4s2.4-5.4 5.4-5.4 5.4 2.4 5.4 5.4-2.4 5.4-5.4 5.4z"/>
		<path class="st1" d="m70.3 271v-3.7h-3.1c-0.2-1.1-0.6-2-1.2-2.9l2.2-2.2-2.6-2.6-2.2 2.2c-0.9-0.6-1.9-1-2.9-1.2v-3.1h-3.7v3.1c-1.1 0.2-2 0.6-2.9 1.2l-2.2-2.2-2.6 2.6 2.2 2.2c-0.6 0.9-1 1.9-1.2 2.9h-3.1v3.7h3.1c0.2 1.1 0.6 2 1.2 2.9l-2.2 2.2 2.6 2.6 2.2-2.2c0.9 0.6 1.9 1 2.9 1.2v3.1h3.7v-3.1c1.1-0.2 2-0.6 2.9-1.2l2.2 2.2 2.6-2.6-2.2-2.2c0.6-0.9 1-1.9 1.2-2.9zm-11.6 2.6c-2.4 0-4.4-2-4.4-4.4s2-4.4 4.4-4.4 4.4 2 4.4 4.4-2 4.4-4.4 4.4z"/>
		<path class="st2" d="m223.4 261.5v-3.9h-3.3c-0.3-1.1-0.7-2.2-1.3-3.1l2.3-2.3-2.8-2.8-2.3 2.3c-0.9-0.6-2-1.1-3.1-1.3v-3.3h-3.9v3.3c-1.1 0.3-2.2 0.7-3.1 1.3l-2.3-2.3-2.8 2.8 2.3 2.3c-0.6 0.9-1.1 2-1.3 3.1h-3.3v3.9h3.3c0.3 1.1 0.7 2.2 1.3 3.1l-2.3 2.3 2.8 2.8 2.3-2.3c0.9 0.6 2 1.1 3.1 1.3v3.3h3.9v-3.3c1.1-0.3 2.2-0.7 3.1-1.3l2.3 2.3 2.8-2.8-2.3-2.3c0.6-0.9 1.1-2 1.3-3.1zm-12.4 2.7c-2.6 0-4.7-2.1-4.7-4.7s2.1-4.7 4.7-4.7 4.7 2.1 4.7 4.7-2.2 4.7-4.7 4.7z"/>
		<path class="st2" d="m175.9 308.7v-3.9h-3.3c-0.3-1.1-0.7-2.2-1.3-3.1l2.3-2.3-2.8-2.8-2.3 2.3c-0.9-0.6-2-1.1-3.1-1.3v-3.3h-4v3.3c-1.1 0.3-2.2 0.7-3.1 1.3l-2.3-2.3-2.8 2.8 2.3 2.3c-0.6 0.9-1.1 2-1.3 3.1h-3.2v3.9h3.3c0.3 1.1 0.7 2.2 1.3 3.1l-2.3 2.3 2.8 2.8 2.3-2.3c0.9 0.6 2 1.1 3.1 1.3v3.3h3.9v-3.3c1.1-0.3 2.2-0.7 3.1-1.3l2.3 2.3 2.8-2.8-2.3-2.3c0.6-0.9 1.1-2 1.3-3.1zm-12.4 2.6c-2.6 0-4.7-2.1-4.7-4.7s2.1-4.7 4.7-4.7 4.7 2.1 4.7 4.7c-0.1 2.7-2.2 4.7-4.7 4.7z"/>
		<path class="st2" d="m154.8 168.2v-2.9h-2.4c-0.2-0.8-0.5-1.6-0.9-2.3l1.7-1.7-2-2-1.7 1.7c-0.7-0.4-1.5-0.8-2.3-0.9v-2.4h-2.9v2.4c-0.8 0.2-1.6 0.5-2.3 0.9l-1.8-1.7-2 2 1.8 1.7c-0.4 0.7-0.8 1.5-0.9 2.3h-2.4v2.9h2.4c0.2 0.8 0.5 1.6 0.9 2.3l-1.8 1.7 2 2 1.8-1.8c0.7 0.4 1.5 0.8 2.3 0.9v2.4h2.9v-2.4c0.8-0.2 1.6-0.5 2.3-0.9l1.7 1.8 2-2-1.7-1.7c0.4-0.7 0.8-1.5 0.9-2.3zm-9.2 2c-1.9 0-3.5-1.5-3.5-3.5s1.5-3.5 3.5-3.5 3.5 1.5 3.5 3.5c-0.1 1.9-1.6 3.5-3.5 3.5z"/>
		<path class="st1" d="m89.8 240.8h-46.3c-2.8 0-5-2.2-5-5s2.2-5 5-5h46.3c2.8 0 5 2.2 5 5s-2.3 5-5 5z"/>
		<path class="st1" d="m103.8 250.8h-46.3c-2.8 0-5-2.2-5-5s2.2-5 5-5h46.3c2.8 0 5 2.2 5 5s-2.3 5-5 5z"/>
		<path class="st1" d="m196.8 192.1h-46.3c-2.8 0-5-2.2-5-5s2.2-5 5-5h46.3c2.8 0 5 2.2 5 5s-2.3 5-5 5z"/>
		<path class="st1" d="m210.8 202.1h-46.2c-2.8 0-5-2.2-5-5s2.2-5 5-5h46.3c2.8 0 5 2.2 5 5-0.1 2.8-2.3 5-5.1 5z"/>
		<g class="st3">
			<path class="st4" d="m115.8 175.8h-55.8v55.8h55.8z"/>
			<path class="st4" d="m115.8 175.6h-55.8v4.8h55.8z"/>
			<path class="st5" d="m111 176.8 2.8 2.9"/>
			<path class="st5" d="m113.8 176.8-2.9 2.8"/>
			<path class="st4" d="m87.8 205.2c4.9 0 8.8-3.9 8.8-8.8s-3.9-8.8-8.8-8.8-8.8 3.9-8.8 8.8c0.1 4.8 4 8.8 8.8 8.8z"/>
			<path class="st4" d="m82.1 191.4v8.7h11.5l0.2-8.7s-0.6-5.2-5.8-5.2c-5.3 0-5.9 5.2-5.9 5.2z"/>
			<path class="st4" d="m89.4 197.5h-3.2v3.2h3.2z"/>
			<path class="st4" d="m87.6 199.6h-2.4v1.5h2.4z"/>
			<path class="st4" d="m90.7 199.6h-2.4v1.5h2.4z"/>
			<path class="st4" d="m93.5 206h-11.3v-2.6c0-1.6 1.3-2.9 2.9-2.9h5.5c1.6 0 2.9 1.3 2.9 2.9z"/>
			<path class="st4" d="m85.6 193.3c0 1.1-0.9 1.9-1.9 1.9-1.1 0-1.9-0.9-1.9-1.9 0-1.1 0.9-1.9 1.9-1.9s1.9 0.9 1.9 1.9z"/>
			<path class="st4" d="m93.9 193.1c0 1.1-0.9 1.9-1.9 1.9-1.1 0-1.9-0.9-1.9-1.9 0-1.1 0.9-1.9 1.9-1.9 1.1 0 1.9 0.9 1.9 1.9z"/>
			<path class="st4" d="m88 199.1c-2.5 0-4.5-2-4.5-4.5v-3c0-2.5 2-4.5 4.5-4.5s4.5 2 4.5 4.5v3c0 2.5-2 4.5-4.5 4.5z"/>
			<path class="st4" d="m85.8 193.8c0 0.1-0.1 0.3-0.3 0.3-0.1 0-0.3-0.1-0.3-0.3 0-0.1 0.1-0.3 0.3-0.3 0.2 0.1 0.3 0.2 0.3 0.3z"/>
			<path class="st4" d="m90.5 193.8c0 0.1-0.1 0.3-0.3 0.3-0.1 0-0.3-0.1-0.3-0.3 0-0.1 0.1-0.3 0.3-0.3 0.2 0.1 0.3 0.2 0.3 0.3z"/>
			<path class="st4" d="m86.8 195.3h2.5s-1.3 1.6-2.5 0z"/>
			<path class="st6" d="m104.5 213.1h-33.3c-1.2 0-2.1-0.9-2.1-2.1s0.9-2.1 2.1-2.1h33.4c1.2 0 2.1 0.9 2.1 2.1s-1 2.1-2.2 2.1z"/>
			<path class="st6" d="m104.5 219.3h-33.3c-1.2 0-2.1-0.9-2.1-2.1s0.9-2.1 2.1-2.1h33.4c1.2 0 2.1 0.9 2.1 2.1-0.1 1.1-1 2.1-2.2 2.1z"/>
			<path class="st4" d="m96.3 227.7h-12.6c-1.2 0-2.1-0.9-2.1-2.1s0.9-2.1 2.1-2.1h12.5c1.2 0 2.1 0.9 2.1 2.1s-0.9 2.1-2 2.1z"/>
			<path class="st4" d="m94.1 225.6h-12.5c-1.2 0-2.1-0.9-2.1-2.1s0.9-2.1 2.1-2.1h12.5c1.2 0 2.1 0.9 2.1 2.1 0 1.1-0.9 2.1-2.1 2.1z"/>
			<path class="st4" d="m84.6 210.3v0.7c0 0.1 0 0.2-0.1 0.2-0.1 0.1-0.1 0.1-0.2 0.1s-0.2 0-0.3-0.1-0.1-0.1-0.1-0.2v-0.7h0.1v0.7c0 0.1 0 0.1 0.1 0.2 0 0 0.1 0.1 0.2 0.1s0.1 0 0.2-0.1c0 0 0.1-0.1 0.1-0.2zm0.5 0.5c-0.1 0-0.2-0.1-0.2-0.1s-0.1-0.1-0.1-0.2 0-0.1 0.1-0.2 0.1-0.1 0.2-0.1h0.2c0.1 0 0.1 0.1 0.1 0.1v0.1h-0.1c0-0.1 0-0.1-0.1-0.1 0 0-0.1-0.1-0.2-0.1h-0.1l-0.1 0.1s0 0.1 0.1 0.1c0 0 0.1 0.1 0.2 0.1s0.1 0 0.2 0.1l0.1 0.1v0.1c0 0.1 0 0.1-0.1 0.2-0.1 0-0.1 0.1-0.2 0.1h-0.2c-0.1 0-0.1-0.1-0.1-0.1v-0.2h0.1c0 0.1 0 0.1 0.1 0.1 0 0 0.1 0.1 0.2 0.1h0.2l0.1-0.1s0-0.1-0.1-0.1c-0.1 0.1-0.2 0.1-0.3 0zm1.1 0h-0.4v0.3h0.5v0.1h-0.6v-1h0.6v0.1h-0.5v0.3h0.4zm0.6 0.1h-0.2v0.4h-0.1v-1h0.3c0.1 0 0.2 0 0.3 0.1 0.1 0 0.1 0.1 0.1 0.2v0.2l-0.1 0.1 0.2 0.4h-0.3zm-0.2-0.1h0.2 0.2l0.1-0.1c0-0.1 0-0.1-0.1-0.1h-0.2-0.2zm1.4 0.5h-0.1l-0.5-0.7v0.7h-0.1v-1h0.1l0.5 0.8v-0.8h0.1zm0.8-0.3h-0.4l-0.1 0.3h-0.1l0.4-1h0.1l0.4 1h-0.1zm-0.4-0.1h0.3l-0.2-0.5zm0.9-0.6 0.3 0.8 0.3-0.8h0.2v1h-0.1v-0.8l-0.3 0.8h-0.1l-0.3-0.8v0.8h-0.1v-1zm1.6 0.5h-0.4v0.3h0.5v0.1h-0.6v-1h0.6v0.1h-0.5v0.3h0.4z"/>
			<path class="st4" d="m85.1 223.5h0.6v0.1h-0.8v-1.3h0.2zm1.8-0.4c0 0.1 0 0.2-0.1 0.3 0 0.1-0.1 0.2-0.2 0.2-0.1 0.1-0.2 0.1-0.3 0.1s-0.2 0-0.3-0.1l-0.2-0.2c0-0.1-0.1-0.2-0.1-0.3v-0.1c0-0.1 0-0.2 0.1-0.3 0-0.1 0.1-0.2 0.2-0.2 0.1-0.1 0.2-0.1 0.3-0.1s0.2 0 0.3 0.1l0.2 0.2s0.1 0.1 0.1 0.4zm-0.2-0.1c0-0.2 0-0.3-0.1-0.4s-0.2-0.1-0.3-0.1-0.2 0-0.3 0.1-0.1 0.2-0.1 0.3v0.1c0 0.2 0 0.3 0.1 0.4s0.2 0.1 0.3 0.1 0.2 0 0.3-0.1 0.1-0.2 0.1-0.4zm1.4 0.5c0 0.1-0.1 0.1-0.2 0.1h-0.3c-0.1 0-0.2 0-0.3-0.1l-0.2-0.2c0-0.1-0.1-0.2-0.1-0.3 0-0.2 0-0.4 0.1-0.5s0.2-0.2 0.4-0.2c0.1 0 0.2 0 0.3 0.1s0.1 0.2 0.2 0.3h-0.2c0-0.2-0.1-0.3-0.3-0.3-0.1 0-0.2 0-0.3 0.1s-0.1 0.2-0.1 0.4v0.1c0 0.1 0 0.3 0.1 0.4s0.2 0.1 0.3 0.1h0.2s0.1 0 0.1-0.1v-0.3h-0.3v-0.1h0.5v0.5zm0.5 0.2h-0.2v-1.3h0.2zm1.3 0h-0.2l-0.7-1v1h-0.2v-1.3h0.2l0.7 1v-1h0.2z"/>
			<path class="st4" d="m84 217.1v0.4h-0.1v-1h0.4c0.1 0 0.2 0 0.2 0.1 0.1 0.1 0.1 0.1 0.1 0.2s0 0.2-0.1 0.2c-0.1 0.1-0.1 0.1-0.3 0.1zm0-0.1h0.2 0.2l0.1-0.1c0-0.1 0-0.1-0.1-0.1 0 0-0.1-0.1-0.2-0.1h-0.2zm1.2 0.3h-0.4l-0.1 0.3h-0.1l0.4-1h0.1l0.4 1h-0.1zm-0.3-0.1h0.3l-0.2-0.5zm1-0.1c-0.1 0-0.2-0.1-0.2-0.1s-0.1-0.1-0.1-0.2 0-0.1 0.1-0.2 0.1-0.1 0.2-0.1h0.2c0.1 0 0.1 0.1 0.1 0.1v0.1h-0.1c0-0.1 0-0.1-0.1-0.1 0 0-0.1-0.1-0.2-0.1h-0.1l-0.1 0.1s0 0.1 0.1 0.1c0 0 0.1 0.1 0.2 0.1s0.1 0 0.2 0.1l0.1 0.1v0.1c0 0.1 0 0.1-0.1 0.2-0.1 0-0.1 0.1-0.2 0.1h-0.2c-0.1 0-0.1-0.1-0.1-0.1v-0.2h0.1c0 0.1 0 0.1 0.1 0.1 0 0 0.1 0.1 0.2 0.1h0.2l0.1-0.1s0-0.1-0.1-0.1h-0.3zm0.8 0c-0.1 0-0.2-0.1-0.2-0.1-0.1 0-0.1-0.1-0.1-0.2s0-0.1 0.1-0.2 0.1-0.1 0.2-0.1h0.2c0.1 0 0.1 0.1 0.1 0.1v0.1h-0.1c0-0.1 0-0.1-0.1-0.1 0 0-0.1-0.1-0.2-0.1h-0.1l-0.1 0.1s0 0.1 0.1 0.1c0 0 0.1 0.1 0.2 0.1s0.1 0 0.2 0.1l0.1 0.1v0.1c0 0.1 0 0.1-0.1 0.2-0.1 0-0.1 0.1-0.2 0.1h-0.2c-0.1 0-0.1-0.1-0.1-0.1v-0.2h0.1c0 0.1 0 0.1 0.1 0.1 0 0 0.1 0.1 0.2 0.1h0.2l0.1-0.1s0-0.1-0.1-0.1h-0.3zm0.7 0.1v0.1-0.1l0.2-0.7h0.1l0.2 0.7v0.1-0.1l0.2-0.7h0.1l-0.2 1h-0.1l-0.2-0.7v-0.1 0.1l-0.2 0.7h-0.1l-0.2-1h0.1zm1.8-0.1v0.2c0 0.1-0.1 0.1-0.1 0.2-0.1 0-0.1 0.1-0.2 0.1s-0.1 0-0.2-0.1c-0.1 0-0.1-0.1-0.1-0.2s0-0.2-0.1-0.2v-0.1-0.2c0-0.1 0.1-0.1 0.1-0.2 0.1 0 0.1-0.1 0.2-0.1s0.1 0 0.2 0.1c0.1 0 0.1 0.1 0.1 0.2 0 0 0.1 0.1 0.1 0.3zm-0.2-0.1c0-0.1 0-0.2-0.1-0.3 0-0.1-0.1-0.1-0.2-0.1s-0.1 0-0.2 0.1c0 0.1-0.1 0.1-0.1 0.3v0.1c0 0.1 0 0.2 0.1 0.3 0 0.1 0.1 0.1 0.2 0.1s0.1 0 0.2-0.1 0.1-0.2 0.1-0.4zm0.7 0.1h-0.2v0.4h-0.1v-1h0.3c0.1 0 0.2 0 0.3 0.1 0.1 0 0.1 0.1 0.1 0.2v0.2l-0.1 0.1 0.2 0.4h-0.1zm-0.2-0.1h0.2 0.2l0.1-0.1c0-0.1 0-0.1-0.1-0.1h-0.2-0.2zm0.7 0.5v-1h0.3c0.1 0 0.2 0 0.2 0.1 0.1 0 0.1 0.1 0.2 0.2 0 0.1 0.1 0.1 0.1 0.2v0.1c0 0.1 0 0.2-0.1 0.2 0 0.1-0.1 0.1-0.2 0.2-0.1 0-0.1 0.1-0.2 0.1h-0.3zm0.1-0.8v0.8h0.1c0.1 0 0.2 0 0.2-0.1 0.1-0.1 0.1-0.1 0.1-0.3v-0.1c0-0.1 0-0.2-0.1-0.3s-0.1-0.1-0.2-0.1h-0.1z"/>
			<path class="st4" d="m83.2 191.5 9.6-0.1s-0.5-4.3-4.8-4.3-4.8 4.4-4.8 4.4z"/>
			<path class="st4" d="m83.1 195.3c0.2 0 0.3-0.1 0.3-0.3s-0.1-0.3-0.3-0.3-0.3 0.1-0.3 0.3c0 0.1 0.1 0.3 0.3 0.3z"/>
			<path class="st4" d="m93 195.3c0.2 0 0.3-0.1 0.3-0.3s-0.1-0.3-0.3-0.3-0.3 0.1-0.3 0.3c0 0.1 0.1 0.3 0.3 0.3z"/>
		</g>
		<path class="st7" d="m113.6 173.7h-55.8v55.8h55.8z"/>
		<path class="st8" d="m113.6 173.5h-55.8v4.8h55.8z"/>
		<path class="st9" d="m108.8 174.6 2.8 2.9"/>
		<path class="st9" d="m111.7 174.7-2.9 2.8"/>
		<path class="st10" d="m85.7 203c4.9 0 8.8-3.9 8.8-8.8s-3.9-8.8-8.8-8.8-8.8 3.9-8.8 8.8 4 8.8 8.8 8.8z"/>
		<path class="st1" d="m80 189.3v8.7h11.5l0.2-8.7s-0.6-5.2-5.8-5.2c-5.3-0.1-5.9 5.2-5.9 5.2z"/>
		<path class="st11" d="m87.3 195.3h-3.2v3.2h3.2z"/>
		<path class="st7" d="m85.5 197.5h-2.4v1.5h2.4z"/>
		<path class="st7" d="m88.5 197.5h-2.4v1.5h2.4z"/>
		<path class="st12" d="m91.3 203.8h-11.2v-2.6c0-1.6 1.3-2.9 2.9-2.9h5.5c1.6 0 2.9 1.3 2.9 2.9v2.6z"/>
		<path class="st11" d="m83.5 191.2c0 1.1-0.9 1.9-1.9 1.9-1.1 0-1.9-0.9-1.9-1.9 0-1.1 0.9-1.9 1.9-1.9s1.9 0.8 1.9 1.9z"/>
		<path class="st11" d="m91.8 191c0 1.1-0.9 1.9-1.9 1.9s-1.9-0.9-1.9-1.9 0.9-1.9 1.9-1.9 1.9 0.9 1.9 1.9z"/>
		<path class="st11" d="m85.9 196.9c-2.5 0-4.5-2-4.5-4.5v-3c0-2.5 2-4.5 4.5-4.5s4.5 2 4.5 4.5v3c0 2.5-2 4.5-4.5 4.5z"/>
		<path class="st1" d="m83.7 191.7c0 0.1-0.1 0.3-0.3 0.3-0.1 0-0.3-0.1-0.3-0.3 0-0.1 0.1-0.3 0.3-0.3s0.3 0.1 0.3 0.3z"/>
		<path class="st1" d="m88.4 191.7c0 0.1-0.1 0.3-0.3 0.3-0.1 0-0.3-0.1-0.3-0.3 0-0.1 0.1-0.3 0.3-0.3 0.1 0 0.3 0.1 0.3 0.3z"/>
		<path class="st7" d="m84.6 193.2h2.5s-1.3 1.6-2.5 0z"/>
		<path class="st13" d="m102.4 210.9h-33.4c-1.2 0-2.1-0.9-2.1-2.1s0.9-2.1 2.1-2.1h33.4c1.2 0 2.1 0.9 2.1 2.1s-0.9 2.1-2.1 2.1z"/>
		<path class="st13" d="m102.4 217.2h-33.4c-1.2 0-2.1-0.9-2.1-2.1s0.9-2.1 2.1-2.1h33.4c1.2 0 2.1 0.9 2.1 2.1s-0.9 2.1-2.1 2.1z"/>
		<g class="st3">
			<path class="st4" d="m94.1 225.6h-12.5c-1.2 0-2.1-0.9-2.1-2.1s0.9-2.1 2.1-2.1h12.5c1.2 0 2.1 0.9 2.1 2.1 0 1.1-0.9 2.1-2.1 2.1z"/>
		</g>
		<path class="st1" d="m92 223.4h-12.6c-1.2 0-2.1-0.9-2.1-2.1s0.9-2.1 2.1-2.1h12.6c1.2 0 2.1 0.9 2.1 2.1s-1 2.1-2.1 2.1z"/>
		<path class="st14" d="m82.5 208.2v0.7c0 0.1 0 0.2-0.1 0.2-0.1 0.1-0.1 0.1-0.2 0.1s-0.2 0-0.3-0.1-0.1-0.1-0.1-0.2v-0.7h0.1v0.7c0 0.1 0 0.1 0.1 0.2 0 0 0.1 0.1 0.2 0.1s0.1 0 0.2-0.1c0 0 0.1-0.1 0.1-0.2zm0.5 0.5c-0.1 0-0.2-0.1-0.2-0.1-0.1 0-0.1-0.1-0.1-0.2s0-0.1 0.1-0.2 0.1-0.1 0.2-0.1h0.2c0.1 0 0.1 0.1 0.1 0.1v0.1h-0.1c0-0.1 0-0.1-0.1-0.1 0 0-0.1-0.1-0.2-0.1h-0.1l-0.1 0.1s0 0.1 0.1 0.1c0 0 0.1 0.1 0.2 0.1s0.1 0 0.2 0.1l0.1 0.1v0.1c0 0.1 0 0.1-0.1 0.2-0.1 0-0.1 0.1-0.2 0.1h-0.2c-0.1 0-0.1-0.1-0.1-0.1v-0.2h0.1c0 0.1 0 0.1 0.1 0.1 0 0 0.1 0.1 0.2 0.1h0.2l0.1-0.1s0-0.1-0.1-0.1h-0.3zm1.1 0h-0.4v0.3h0.5v0.1h-0.6v-1h0.6v0.1h-0.5v0.3h0.4zm0.6 0h-0.2v0.4h-0.1v-1h0.3c0.1 0 0.2 0 0.3 0.1 0.1 0 0.1 0.1 0.1 0.2v0.2l-0.1 0.1 0.2 0.4h-0.1zm-0.3-0.1h0.2 0.2l0.1-0.1c0-0.1 0-0.1-0.1-0.1h-0.2-0.2zm1.5 0.5h-0.1l-0.5-0.7v0.7h-0.1v-1h0.1l0.5 0.8v-0.8h0.1zm0.8-0.2h-0.4l-0.1 0.3h-0.2l0.4-1h0.1l0.4 1h-0.1zm-0.4-0.1h0.3l-0.2-0.5zm0.9-0.6 0.3 0.8 0.3-0.8h0.2v1h-0.1v-0.8l-0.3 0.8h-0.1l-0.3-0.8v0.8h-0.2v-1zm1.6 0.5h-0.4v0.3h0.5v0.1h-0.6v-1h0.6v0.1h-0.5v0.3h0.4z"/>
		<path class="st7" d="m83 221.4h0.6v0.1h-0.8v-1.3h0.2zm1.7-0.5c0 0.1 0 0.2-0.1 0.3 0 0.1-0.1 0.2-0.2 0.2-0.1 0.1-0.2 0.1-0.3 0.1s-0.2 0-0.3-0.1l-0.2-0.2c0-0.1-0.1-0.2-0.1-0.3v-0.1c0-0.1 0-0.2 0.1-0.3 0-0.1 0.1-0.2 0.2-0.2 0.1-0.1 0.2-0.1 0.3-0.1s0.2 0 0.3 0.1l0.2 0.2c0.1 0.1 0.1 0.2 0.1 0.4zm-0.1-0.1c0-0.2 0-0.3-0.1-0.4s-0.2-0.1-0.3-0.1-0.2 0-0.3 0.1-0.1 0.2-0.1 0.3v0.1c0 0.2 0 0.3 0.1 0.4s0.2 0.1 0.3 0.1 0.2 0 0.3-0.1c0 0 0.1-0.1 0.1-0.4zm1.4 0.6c0 0.1-0.1 0.1-0.2 0.1h-0.3c-0.1 0-0.2 0-0.3-0.1l-0.2-0.2c0-0.1-0.1-0.2-0.1-0.3v-0.1c0-0.2 0-0.4 0.1-0.5s0.2-0.2 0.4-0.2c0.1 0 0.2 0 0.3 0.1s0.1 0.2 0.2 0.3h-0.2c0-0.2-0.1-0.3-0.3-0.3-0.1 0-0.2 0-0.3 0.1s-0.1 0.2-0.1 0.4v0.1c0 0.1 0 0.3 0.1 0.4s0.2 0.1 0.3 0.1h0.2s0.1 0 0.1-0.1v-0.2h-0.3v-0.1h0.6zm0.4 0.1h-0.2v-1.3h0.2zm1.4 0h-0.2l-0.7-1v1h-0.2v-1.3h0.2l0.7 1v-1h0.2z"/>
		<path class="st14" d="m81.9 215v0.4h-0.1v-1h0.4c0.1 0 0.2 0 0.2 0.1 0.1 0.1 0.1 0.1 0.1 0.2s0 0.2-0.1 0.2c-0.1 0.1-0.1 0.1-0.3 0.1zm0-0.1h0.2 0.2l0.1-0.1c0-0.1 0-0.1-0.1-0.1 0 0-0.1-0.1-0.2-0.1h-0.2zm1.2 0.2h-0.4l-0.1 0.3h-0.1l0.4-1h0.1l0.4 1h-0.1zm-0.4-0.1h0.3l-0.2-0.5zm1 0c-0.1 0-0.2-0.1-0.2-0.1-0.1 0-0.1-0.1-0.1-0.2s0-0.1 0.1-0.2 0.1-0.1 0.2-0.1h0.2c0.1 0 0.1 0.1 0.1 0.1v0.1c0-0.1 0-0.1-0.1-0.1 0 0-0.1-0.1-0.2-0.1h-0.1l-0.1 0.1s0 0.1 0.1 0.1c0 0 0.1 0.1 0.2 0.1s0.1 0 0.2 0.1l0.1 0.1v0.1c0 0.1 0 0.1-0.1 0.2-0.1 0-0.1 0.1-0.2 0.1h-0.2c-0.1 0-0.1-0.1-0.1-0.1v-0.2h0.1c0 0.1 0 0.1 0.1 0.1 0 0 0.1 0.1 0.2 0.1h0.2l0.1-0.1s0-0.1-0.1-0.1h-0.4zm0.8 0c-0.1 0-0.2-0.1-0.2-0.1s-0.1-0.1-0.1-0.2 0-0.1 0.1-0.2 0.1-0.1 0.2-0.1h0.2c0.1 0 0.1 0.1 0.1 0.1v0.1h-0.1c0-0.1 0-0.1-0.1-0.1 0 0-0.1-0.1-0.2-0.1h-0.1l-0.1 0.1s0 0.1 0.1 0.1c0 0 0.1 0.1 0.2 0.1s0.1 0 0.2 0.1l0.1 0.1v0.1c0 0.1 0 0.1-0.1 0.2-0.1 0-0.1 0.1-0.2 0.1h-0.2c-0.1 0-0.1-0.1-0.1-0.1v-0.2h0.1c0 0.1 0 0.1 0.1 0.1 0 0 0.1 0.1 0.2 0.1h0.2l0.1-0.1s0-0.1-0.1-0.1h-0.3zm0.8 0.1v0.1-0.1l0.2-0.7h0.1l0.2 0.7v0.1-0.1l0.2-0.7h0.1l-0.2 1h-0.1l-0.2-0.7v-0.1 0.1l-0.2 0.7h-0.1l-0.2-1h0.1zm1.7-0.2v0.2c0 0.1-0.1 0.1-0.1 0.2-0.1 0-0.1 0.1-0.2 0.1s-0.1 0-0.2-0.1c-0.1 0-0.1-0.1-0.1-0.2s0-0.2-0.1-0.2v-0.1-0.2c0-0.1 0.1-0.1 0.1-0.2 0.1 0 0.1-0.1 0.2-0.1s0.1 0 0.2 0.1c0.1 0 0.1 0.1 0.1 0.2 0.1 0.1 0.1 0.2 0.1 0.3zm-0.1 0c0-0.1 0-0.2-0.1-0.3 0-0.1-0.1-0.1-0.2-0.1s-0.1 0-0.2 0.1c0 0.1-0.1 0.1-0.1 0.3v0.1c0 0.1 0 0.2 0.1 0.3s0.1 0.1 0.2 0.1 0.1 0 0.2-0.1c0.1-0.2 0.1-0.2 0.1-0.4zm0.7 0.1h-0.2v0.4h-0.1v-1h0.3c0.1 0 0.2 0 0.3 0.1 0.1 0 0.1 0.1 0.1 0.2v0.2l-0.1 0.1 0.2 0.4h-0.1zm-0.3-0.1h0.2 0.2l0.1-0.1c0-0.1 0-0.1-0.1-0.1h-0.2-0.2zm0.8 0.5v-1h0.3c0.1 0 0.2 0 0.2 0.1s0.1 0.1 0.2 0.2c0 0.1 0.1 0.1 0.1 0.2v0.1c0 0.1 0 0.2-0.1 0.2 0 0.1-0.1 0.1-0.2 0.2-0.1 0-0.1 0.1-0.2 0.1h-0.3zm0.1-0.9v0.8h0.1c0.1 0 0.2 0 0.2-0.1 0.1-0.1 0.1-0.1 0.1-0.3v-0.1c0-0.1 0-0.2-0.1-0.3s-0.1-0.1-0.2-0.1h-0.1z"/>
		<path class="st1" d="m81.1 189.3 9.6-0.1s-0.5-4.3-4.8-4.3c-4.4 0-4.8 4.4-4.8 4.4z"/>
		<path class="st7" d="m80.9 193.1c0.2 0 0.3-0.1 0.3-0.3s-0.1-0.3-0.3-0.3-0.3 0.1-0.3 0.3 0.2 0.3 0.3 0.3z"/>
		<path class="st7" d="m90.8 193.1c0.2 0 0.3-0.1 0.3-0.3s-0.1-0.3-0.3-0.3-0.3 0.1-0.3 0.3 0.2 0.3 0.3 0.3z"/>
		<path class="st15" d="m188.2 297.9h-123.3v-71c0-3.2 2.6-5.9 5.9-5.9h111.6c3.2 0 5.9 2.6 5.9 5.9z"/>
		<path class="st8" d="m183.8 226.5h-114.5v67.8h114.5z"/>
		<path class="st10" d="m188.2 294.2h-123.3v3.7h123.3z"/>
		<path class="st15" d="m199.9 303.6h-146.6c-1.7 0-3.1-1.4-3.1-3.1v-2.6h152.8v2.6c0 1.8-1.4 3.1-3.1 3.1z"/>
		<path class="st10" d="m53.3 303.6h146.6c1.3 0 2.4-0.8 2.9-1.9h-152.3c0.4 1.2 1.5 1.9 2.8 1.9z"/>
		<path class="st10" d="m136.8 300.1h-20.4c-1.2 0-2.1-0.9-2.1-2.1h24.7c-0.1 1.1-1 2.1-2.2 2.1z"/>
		<path class="st16" d="m110.6 275h-25.9c-1.7 0-3-1.4-3-3v-21.5c0-1.7 1.4-3 3-3h25.9c1.7 0 3 1.4 3 3v21.5c0 1.7-1.3 3-3 3z"/>
		<path class="st16" d="m165.1 254h-42.9c-1.8 0-3.2-1.5-3.2-3.2v-0.1c0-1.8 1.5-3.2 3.2-3.2h42.9c1.8 0 3.2 1.5 3.2 3.2v0.1c0 1.8-1.4 3.2-3.2 3.2z"/>
		<path class="st16" d="m165.1 264.6h-42.9c-1.8 0-3.2-1.5-3.2-3.2v-0.1c0-1.8 1.5-3.2 3.2-3.2h42.9c1.8 0 3.2 1.5 3.2 3.2v0.1c0 1.7-1.4 3.2-3.2 3.2z"/>
		<path class="st16" d="m165.1 275.1h-42.9c-1.8 0-3.2-1.5-3.2-3.2v-0.1c0-1.8 1.5-3.2 3.2-3.2h42.9c1.8 0 3.2 1.5 3.2 3.2v0.1c0 1.8-1.4 3.2-3.2 3.2z"/>
		<path class="st16" d="m165.1 285.7h-81.1c-1.8 0-3.3-1.5-3.3-3.3s1.5-3.3 3.3-3.3h81.1c1.8 0 3.3 1.5 3.3 3.3-0.1 1.8-1.5 3.3-3.3 3.3z"/>
		<path class="st17" d="m83.5 237.4c0.7 0 1.4 0.6 1.4 1.4 0 0.9-0.6 1.5-1.4 1.5s-1.5-0.6-1.5-1.5c0-0.6 0.6-1.4 1.5-1.4zm-0.1 0.2c-0.5 0-0.9 0.4-0.9 1.2s0.4 1.4 1.1 1.4c0.5 0 0.9-0.4 0.9-1.2-0.1-0.9-0.5-1.4-1.1-1.4z"/>
		<path class="st17" d="m87.3 240.3v-0.1c0.3 0 0.3 0 0.3-0.3v-0.7c0-0.3-0.1-0.5-0.4-0.5-0.2 0-0.3 0.1-0.5 0.2v1c0 0.3 0 0.3 0.3 0.3v0.1h-0.9v-0.1c0.3 0 0.3 0 0.3-0.3v-0.9c0-0.3 0-0.3-0.3-0.3v-0.1c0.2 0 0.4-0.1 0.6-0.2v0.3c0.1 0 0.2-0.1 0.3-0.2s0.2-0.1 0.3-0.1c0.3 0 0.6 0.3 0.6 0.7v0.8c0 0.3 0 0.3 0.3 0.3v0.1z"/>
		<path class="st17" d="m89.3 240.3v-0.1c0.3 0 0.3 0 0.3-0.3v-2c0-0.3 0-0.3-0.3-0.3v-0.1c0.2 0 0.5-0.1 0.6-0.1v0.6 2c0 0.3 0 0.3 0.3 0.3v0.1h-0.9z"/>
		<path class="st17" d="m91.3 240.3v-0.1c0.3 0 0.3 0 0.3-0.3v-0.9c0-0.3 0-0.3-0.3-0.3v-0.1c0.2 0 0.4-0.1 0.6-0.2v0.6 0.9c0 0.3 0 0.3 0.3 0.3v0.1zm0.5-2.4c-0.1 0-0.2-0.1-0.2-0.2s0.1-0.3 0.2-0.3 0.2 0.1 0.2 0.3c0 0.1-0.1 0.2-0.2 0.2z"/>
		<path class="st17" d="m94.6 240.3v-0.1c0.3 0 0.3 0 0.3-0.3v-0.7c0-0.3-0.1-0.5-0.4-0.5-0.2 0-0.3 0.1-0.5 0.2v1c0 0.3 0 0.3 0.3 0.3v0.1h-0.9v-0.1c0.3 0 0.3 0 0.3-0.3v-0.9c0-0.3 0-0.3-0.3-0.3v-0.1c0.2 0 0.4-0.1 0.6-0.2v0.3c0.1 0 0.2-0.1 0.3-0.2s0.2-0.1 0.3-0.1c0.3 0 0.6 0.3 0.6 0.7v0.8c0 0.3 0 0.3 0.3 0.3v0.1z"/>
		<path class="st17" d="m98.2 239.9c-0.3 0.3-0.6 0.4-0.7 0.4-0.5 0-0.9-0.4-0.9-0.9 0-0.3 0.1-0.6 0.3-0.8s0.4-0.3 0.6-0.3c0.4 0 0.6 0.3 0.6 0.7 0 0.1 0 0.1-0.1 0.1s-0.6 0-1.2 0.1c0 0.6 0.3 0.8 0.6 0.8 0.4 0.1 0.5 0 0.8-0.1zm-0.7-1.4c-0.2 0-0.4 0.2-0.5 0.6h0.7c0.1 0 0.1 0 0.1-0.1 0-0.3-0.1-0.5-0.3-0.5z"/>
		<path class="st17" d="m84.6 244.3h-0.2c-0.3 0-0.5-0.1-0.7-0.4-0.2-0.2-0.3-0.5-0.5-0.7-0.1-0.1-0.1-0.2-0.3-0.2h-0.2v0.7c0 0.4 0 0.4 0.4 0.4v0.1h-1.1v-0.1c0.3 0 0.4 0 0.4-0.4v-1.7c0-0.4 0-0.4-0.4-0.4v-0.1h1.1c0.3 0 0.5 0 0.7 0.1s0.3 0.3 0.3 0.6c0 0.4-0.3 0.6-0.6 0.7 0.1 0.1 0.3 0.4 0.4 0.6 0.2 0.2 0.3 0.3 0.3 0.4 0.1 0.1 0.2 0.2 0.3 0.2zm-1.6-1.4c0.2 0 0.4 0 0.5-0.1 0.2-0.1 0.3-0.3 0.3-0.5 0-0.5-0.3-0.6-0.6-0.6h-0.2v0.2 1.1z"/>
		<path class="st17" d="m87.1 243.9c-0.3 0.3-0.6 0.4-0.7 0.4-0.5 0-0.9-0.4-0.9-0.9 0-0.3 0.1-0.6 0.3-0.8s0.4-0.3 0.6-0.3c0.4 0 0.6 0.3 0.6 0.7 0 0.1 0 0.1-0.1 0.1s-0.6 0-1.2 0.1c0 0.6 0.3 0.8 0.6 0.8 0.4 0 0.5 0 0.8-0.1zm-0.8-1.4c-0.2 0-0.4 0.2-0.5 0.6h0.7c0.1 0 0.1 0 0.1-0.1 0.1-0.3 0-0.5-0.3-0.5z"/>
		<path class="st17" d="m88.8 243.7c-0.1 0.1-0.1 0.2-0.1 0.2 0 0.1 0.1 0.2 0.3 0.2h0.5c0.3 0 0.6 0.1 0.6 0.5 0 0.5-0.5 0.9-1.1 0.9-0.5 0-0.8-0.3-0.8-0.6 0-0.1 0-0.2 0.1-0.3s0.3-0.2 0.3-0.3c-0.2 0-0.3-0.1-0.3-0.2v-0.2c0.2 0 0.3-0.2 0.4-0.3zm0.2 0c-0.4 0-0.7-0.3-0.7-0.6 0-0.5 0.4-0.7 0.8-0.7 0.1 0 0.3 0 0.4 0.1 0.2 0 0.5 0 0.6-0.1 0 0.1-0.1 0.2-0.2 0.2h-0.3c0.1 0.1 0.1 0.3 0.1 0.4 0.1 0.5-0.3 0.7-0.7 0.7zm0.1 0.6c-0.2 0-0.3 0-0.4 0.1s-0.2 0.2-0.2 0.3c0 0.3 0.3 0.4 0.6 0.4 0.4 0 0.6-0.2 0.6-0.5 0-0.1-0.1-0.3-0.2-0.3h-0.4zm-0.1-1.8c-0.2 0-0.4 0.2-0.4 0.5s0.2 0.6 0.4 0.6 0.3-0.2 0.3-0.5c0.1-0.4 0-0.6-0.3-0.6z"/>
		<path class="st17" d="m91.1 244.3v-0.1c0.3 0 0.3 0 0.3-0.3v-0.9c0-0.3 0-0.3-0.3-0.3v-0.1c0.2 0 0.4-0.1 0.6-0.2v0.6 0.9c0 0.3 0 0.3 0.3 0.3v0.1zm0.4-2.4c-0.1 0-0.2-0.1-0.2-0.2s0.1-0.3 0.2-0.3 0.2 0.1 0.2 0.3c0.1 0.1-0.1 0.2-0.2 0.2z"/>
		<path class="st17" d="m94.3 242.9c-0.1-0.3-0.2-0.4-0.5-0.4-0.2 0-0.3 0.1-0.3 0.3s0.1 0.3 0.4 0.4c0.4 0.2 0.6 0.3 0.6 0.6 0 0.4-0.3 0.6-0.7 0.6-0.2 0-0.4-0.1-0.5-0.1 0-0.1 0-0.3-0.1-0.5h0.1c0.1 0.3 0.2 0.5 0.5 0.5 0.2 0 0.3-0.1 0.3-0.3s-0.1-0.3-0.3-0.4c-0.3-0.1-0.6-0.3-0.6-0.6s0.3-0.6 0.7-0.6h0.4c0 0.1 0 0.4 0.1 0.5z"/>
		<path class="st17" d="m96.4 244.3h-0.2c-0.3 0-0.4-0.2-0.4-0.5v-1.2h-0.3l0.1-0.1h0.2v-0.3l0.3-0.3h0.1v0.6h0.5v0.2h-0.6v1.1c0 0.3 0.1 0.4 0.3 0.4 0.1 0 0.2 0 0.3-0.1v0.1z"/>
		<path class="st17" d="m98.7 244.3h-1v-0.1c0.3 0 0.3 0 0.3-0.3v-0.9c0-0.3 0-0.3-0.3-0.3v-0.1c0.2 0 0.4-0.1 0.6-0.2v0.5c0.2-0.2 0.3-0.5 0.6-0.5 0.2 0 0.3 0.1 0.3 0.2s-0.1 0.2-0.1 0.3h-0.1c-0.1-0.1-0.1-0.1-0.2-0.1s-0.3 0.1-0.3 0.3v0.8c0 0.3 0 0.3 0.3 0.3v0.1z"/>
		<path class="st17" d="m101.6 244.3c-0.1 0-0.2 0-0.2-0.1 0 0-0.1-0.1-0.1-0.2-0.2 0.1-0.4 0.3-0.5 0.3-0.3 0-0.5-0.3-0.5-0.5s0.1-0.3 0.3-0.4c0.3-0.1 0.6-0.2 0.7-0.3v-0.1c0-0.3-0.2-0.5-0.4-0.5-0.1 0-0.2 0-0.2 0.1 0 0-0.1 0.2-0.1 0.3s0 0.1-0.1 0.1-0.2-0.1-0.2-0.2c0 0 0-0.1 0.1-0.2s0.4-0.3 0.6-0.3c0.1 0 0.3 0 0.3 0.1 0.2 0.1 0.2 0.3 0.2 0.5v0.8c0 0.2 0.1 0.3 0.2 0.3h0.2v0.1zm-0.3-1.1c-0.1 0-0.3 0.1-0.4 0.2-0.2 0.1-0.3 0.2-0.3 0.3 0 0.2 0.2 0.3 0.3 0.3s0.3-0.1 0.3-0.2c0.1-0.1 0.1-0.4 0.1-0.6z"/>
		<path class="st17" d="m103.9 244.3h-0.2c-0.3 0-0.4-0.2-0.4-0.5v-1.2h-0.3l0.1-0.1h0.2v-0.3l0.3-0.3h0.1v0.6h0.5v0.2h-0.5v1.1c0 0.3 0.1 0.4 0.3 0.4 0.1 0 0.2 0 0.3-0.1v0.1z"/>
		<path class="st17" d="m105.2 244.3v-0.1c0.3 0 0.3 0 0.3-0.3v-0.9c0-0.3 0-0.3-0.3-0.3v-0.1c0.2 0 0.4-0.1 0.6-0.2v0.6 0.9c0 0.3 0 0.3 0.3 0.3v0.1zm0.4-2.4c-0.1 0-0.2-0.1-0.2-0.2s0.1-0.3 0.2-0.3 0.2 0.1 0.2 0.3c0.1 0.1 0 0.2-0.2 0.2z"/>
		<path class="st17" d="m108.2 242.3c0.6 0 0.9 0.4 0.9 1 0 0.7-0.5 1-0.9 1-0.6 0-0.9-0.5-0.9-1-0.1-0.6 0.5-1 0.9-1zm0 0.2c-0.3 0-0.5 0.3-0.5 0.8 0 0.6 0.3 0.9 0.6 0.9s0.5-0.2 0.5-0.8c-0.1-0.5-0.3-0.9-0.6-0.9z"/>
		<path class="st17" d="m111.5 244.3v-0.1c0.3 0 0.3 0 0.3-0.3v-0.7c0-0.3-0.1-0.5-0.4-0.5-0.2 0-0.3 0.1-0.5 0.2v1c0 0.3 0 0.3 0.3 0.3v0.1h-0.9v-0.1c0.3 0 0.3 0 0.3-0.3v-0.9c0-0.3 0-0.3-0.3-0.3v-0.1c0.2 0 0.4-0.1 0.6-0.2v0.3c0.1 0 0.2-0.1 0.3-0.2s0.2-0.1 0.3-0.1c0.3 0 0.6 0.3 0.6 0.7v0.8c0 0.3 0 0.3 0.3 0.3v0.1z"/>
		<g class="st3">
			<path class="st4" d="m114.5 249.9-7.1-1.9 1.9 7.1 1.8-1.7 2.7 2.7 1.7-1.6-2.7-2.7z"/>
		</g>
		<path class="st18" d="m112.4 247.8-7.1-1.9 1.9 7.1 1.7-1.7 2.7 2.7 1.7-1.6-2.7-2.7z"/>
		<g class="st3">
			<path class="st4" d="m207.9 199.6h-84.6v84.6h84.6z"/>
			<path class="st4" d="m207.9 199.3h-84.6v7.3h84.6z"/>
			<path class="st5" d="m200.7 201.1 4.3 4.4"/>
			<path class="st5" d="m205 201.1-4.4 4.3"/>
			<path class="st4" d="m165.6 244.1c7.4 0 13.3-6 13.3-13.3 0-7.4-6-13.3-13.3-13.3s-13.3 6-13.3 13.3 6 13.3 13.3 13.3z"/>
			<path class="st4" d="m168 232.5h-4.8v4.8h4.8z"/>
			<path class="st4" d="m165.5 235.7h-3.7v2.3h3.7z"/>
			<path class="st4" d="m170.1 235.7h-3.7v2.3h3.7z"/>
			<path class="st4" d="m174.4 245.4h-17.1v-4.1c0-2.4 1.9-4.3 4.3-4.3h8.4c2.4 0 4.3 1.9 4.3 4.3z"/>
			<path class="st4" d="m159.3 229.1c1.6 0 2.9-1.3 2.9-2.9s-1.3-2.9-2.9-2.9-2.9 1.3-2.9 2.9 1.3 2.9 2.9 2.9z"/>
			<path class="st4" d="m171.9 229.1c1.6 0 2.9-1.3 2.9-2.9s-1.3-2.9-2.9-2.9-2.9 1.3-2.9 2.9 1.3 2.9 2.9 2.9z"/>
			<path class="st4" d="m165.8 234.9c-3.8 0-6.9-3-6.9-6.8v-4.6c0-3.8 3-6.8 6.8-6.8s6.8 3 6.8 6.8v4.6c0.2 3.7-2.9 6.8-6.7 6.8z"/>
			<path class="st4" d="m161 219.8c0.6 0.3 1.2 0.5 1.9 0.7 1.3 0.3 2.6 0.3 3.9 0.2 1.2-0.1 2.5-0.3 3.7-0.8s2.3-1.3 2.9-2.4 0.6-2.6 0-3.6c-0.1-0.1-0.2-0.3-0.3-0.3-0.2-0.1-0.4-0.1-0.6-0.1-0.4 0-0.7 0.1-1.1 0.3l-0.9 0.6c-0.3 0.2-0.7 0.3-1 0.1-0.2-0.1-0.4-0.3-0.6-0.5-0.4-0.4-1.1-0.4-1.6-0.4-0.2 0-0.4 0-0.6 0.1-0.3 0.2-0.5 0.7-0.8 1s-0.7 0.4-1.1 0.3-0.7-0.4-1.1-0.4c-0.5 0-0.9 0.2-1.2 0.6-0.3 0.3-0.5 0.8-0.7 1.2-0.5 0.7-1.1 1.3-1.6 2-0.2 0.3-0.1 1.8-0.1 1.8s0.6-0.6 0.9-0.4z"/>
			<path class="st4" d="m162.5 226.9c0 0.2-0.2 0.4-0.4 0.4s-0.4-0.2-0.4-0.4 0.2-0.4 0.4-0.4c0.3 0 0.4 0.2 0.4 0.4z"/>
			<path class="st4" d="m169.2 227.3c0.2 0 0.4-0.2 0.4-0.4s-0.2-0.4-0.4-0.4-0.4 0.2-0.4 0.4c0.1 0.2 0.2 0.4 0.4 0.4z"/>
			<path class="st4" d="m164 229.1h3.7s-1.9 2.5-3.7 0z"/>
			<path class="st6" d="m190.9 256.1h-50.6c-1.7 0-3.2-1.4-3.2-3.2s1.4-3.2 3.2-3.2h50.6c1.8 0 3.2 1.4 3.2 3.2 0 1.7-1.5 3.2-3.2 3.2z"/>
			<path class="st6" d="m190.9 265.6h-50.6c-1.7 0-3.2-1.4-3.2-3.2 0-1.7 1.4-3.2 3.2-3.2h50.6c1.8 0 3.2 1.4 3.2 3.2s-1.5 3.2-3.2 3.2z"/>
			<path class="st4" d="m177.3 277.2h-19c-1.7 0-3.2-1.4-3.2-3.2 0-1.7 1.4-3.2 3.2-3.2h19c1.8 0 3.2 1.4 3.2 3.2-0.1 1.8-1.5 3.2-3.2 3.2z"/>
			<path class="st4" d="m175.1 275.1h-19c-1.8 0-3.2-1.4-3.2-3.2s1.4-3.2 3.2-3.2h19c1.8 0 3.2 1.4 3.2 3.2 0 1.7-1.4 3.2-3.2 3.2z"/>
			<path class="st4" d="m160.7 251.9v1c0 0.1 0 0.3-0.1 0.3-0.1 0.1-0.2 0.1-0.4 0.1h-0.1c-0.2 0-0.3 0-0.4-0.1s-0.1-0.2-0.1-0.4v-1h0.2v1c0 0.1 0 0.2 0.1 0.2 0.1 0.1 0.1 0.1 0.3 0.1 0.1 0 0.2 0 0.3-0.1s0.1-0.1 0.1-0.2v-1h0.1zm0.8 0.8c-0.2 0-0.3-0.1-0.4-0.2s-0.1-0.2-0.1-0.3 0-0.2 0.1-0.3 0.2-0.1 0.4-0.1c0.1 0 0.2 0 0.3 0.1 0.1 0 0.1 0.1 0.2 0.2 0 0.1 0.1 0.1 0.1 0.2h-0.2c0-0.1 0-0.2-0.1-0.2-0.1-0.1-0.1-0.1-0.2-0.1s-0.2 0-0.2 0.1c-0.1 0-0.1 0.1-0.1 0.2s0 0.1 0.1 0.2c0.1 0 0.1 0.1 0.3 0.1 0.1 0 0.2 0.1 0.3 0.1s0.1 0.1 0.2 0.1c0 0.1 0.1 0.1 0.1 0.2s0 0.2-0.1 0.3-0.2 0.1-0.4 0.1c-0.1 0-0.2 0-0.3-0.1-0.1 0-0.2-0.1-0.2-0.2s-0.1-0.1-0.1-0.2h0.2c0 0.1 0 0.2 0.1 0.2 0.1 0.1 0.2 0.1 0.3 0.1s0.2 0 0.2-0.1c0.1 0 0.1-0.1 0.1-0.2s0-0.1-0.1-0.2c-0.3 0.1-0.4 0-0.5 0zm1.6 0h-0.6v0.5h0.7v0.2h-0.9v-1.5h0.9v0.2h-0.7v0.5h0.6zm0.9 0h-0.3v0.6h-0.2v-1.5h0.5c0.2 0 0.3 0 0.4 0.1s0.1 0.2 0.1 0.3 0 0.2-0.1 0.2c0 0.1-0.1 0.1-0.2 0.2l0.3 0.6h-0.2zm-0.3-0.1h0.3c0.1 0 0.2 0 0.2-0.1 0.1-0.1 0.1-0.1 0.1-0.2s0-0.2-0.1-0.2-0.1-0.1-0.2-0.1h-0.3zm2.2 0.7h-0.2l-0.7-1.1v1.1h-0.2v-1.5h0.2l0.7 1.1v-1.1h0.2zm1.1-0.3h-0.6l-0.1 0.4h-0.2l0.6-1.5h0.2l0.6 1.5h-0.2zm-0.5-0.2h0.5l-0.3-0.7zm1.3-0.9 0.5 1.2 0.5-1.2h0.3v1.5h-0.2v-1.2l-0.5 1.2h-0.1l-0.5-1.2v1.2h-0.2v-1.5zm2.4 0.8h-0.6v0.5h0.7v0.2h-0.9v-1.5h0.9v0.2h-0.7v0.5h0.6z"/>
			<path class="st4" d="m161.4 271.8h0.9v0.2h-1.2v-2h0.3zm2.7-0.8c0 0.2 0 0.4-0.1 0.5s-0.2 0.3-0.3 0.3c-0.1 0.1-0.3 0.1-0.4 0.1-0.2 0-0.3 0-0.4-0.1l-0.3-0.3c-0.1-0.1-0.1-0.3-0.1-0.5v-0.1c0-0.2 0-0.4 0.1-0.5s0.2-0.3 0.3-0.3c0.1-0.1 0.3-0.1 0.4-0.1 0.2 0 0.3 0 0.4 0.1l0.3 0.3c0.1 0.1 0.1 0.3 0.1 0.5zm-0.2-0.1c0-0.2 0-0.4-0.1-0.5s-0.2-0.2-0.4-0.2-0.3 0.1-0.4 0.2-0.1 0.3-0.1 0.5v0.1c0 0.2 0 0.4 0.1 0.5s0.2 0.2 0.4 0.2 0.3-0.1 0.4-0.2 0.1-0.3 0.1-0.5zm2.1 0.8c-0.1 0.1-0.2 0.2-0.3 0.2s-0.3 0.1-0.4 0.1c-0.2 0-0.3 0-0.4-0.1l-0.3-0.3c-0.1-0.1-0.1-0.3-0.1-0.5v-0.2c0-0.3 0.1-0.5 0.2-0.7s0.3-0.2 0.6-0.2c0.2 0 0.4 0.1 0.5 0.2s0.2 0.3 0.2 0.5h-0.3c0-0.3-0.2-0.4-0.5-0.4-0.2 0-0.3 0.1-0.4 0.2s-0.1 0.3-0.1 0.5v0.2c0 0.2 0.1 0.4 0.2 0.5s0.2 0.2 0.4 0.2h0.3c0.1 0 0.1-0.1 0.2-0.1v-0.4h-0.5v-0.4h0.7zm0.7 0.3h-0.3v-2h0.3zm2 0h-0.3l-1-1.5v1.5h-0.3v-2h0.3l1 1.5v-1.5h0.3z"/>
			<path class="st4" d="m159.8 262.3v0.6h-0.2v-1.5h0.5c0.2 0 0.3 0 0.4 0.1s0.1 0.2 0.1 0.3 0 0.3-0.1 0.3c-0.1 0.1-0.2 0.1-0.4 0.1h-0.3zm0-0.2h0.3c0.1 0 0.2 0 0.2-0.1 0.1 0 0.1-0.1 0.1-0.2s0-0.2-0.1-0.2c-0.1-0.1-0.1-0.1-0.2-0.1h-0.4v0.6zm1.8 0.4h-0.6l-0.1 0.4h-0.2l0.6-1.5h0.2l0.6 1.5h-0.2zm-0.5-0.2h0.5l-0.3-0.7zm1.5-0.1c-0.2 0-0.3-0.1-0.4-0.2s-0.1-0.2-0.1-0.3 0-0.2 0.1-0.3 0.2-0.1 0.4-0.1c0.1 0 0.2 0 0.3 0.1 0.1 0 0.1 0.1 0.2 0.2 0 0.1 0.1 0.1 0.1 0.2h-0.2c0-0.1 0-0.2-0.1-0.2-0.1-0.1-0.1-0.1-0.2-0.1s-0.2 0-0.2 0.1c-0.1 0-0.1 0.1-0.1 0.2s0 0.1 0.1 0.2c0.1 0 0.1 0.1 0.3 0.1 0.1 0 0.2 0.1 0.3 0.1s0.1 0.1 0.2 0.1c0 0.1 0.1 0.1 0.1 0.2s0 0.2-0.1 0.3-0.2 0.1-0.4 0.1c-0.1 0-0.2 0-0.3-0.1-0.1 0-0.2-0.1-0.2-0.2s-0.1-0.1-0.1-0.2h0.2c0 0.1 0 0.2 0.1 0.2 0.1 0.1 0.2 0.1 0.3 0.1s0.2 0 0.2-0.1c0.1 0 0.1-0.1 0.1-0.2s0-0.1-0.1-0.2c-0.3 0.1-0.4 0-0.5 0zm1.2 0c-0.2 0-0.3-0.1-0.4-0.2s-0.1-0.2-0.1-0.3 0-0.2 0.1-0.3 0.2-0.1 0.4-0.1c0.1 0 0.2 0 0.3 0.1 0.1 0 0.1 0.1 0.2 0.2 0 0.1 0.1 0.1 0.1 0.2h-0.2c0-0.1 0-0.2-0.1-0.2-0.1-0.1-0.1-0.1-0.2-0.1s-0.2 0-0.2 0.1c-0.1 0-0.1 0.1-0.1 0.2s0 0.1 0.1 0.2c0.1 0 0.1 0.1 0.3 0.1 0.1 0 0.2 0.1 0.3 0.1s0.1 0.1 0.2 0.1c0 0.1 0.1 0.1 0.1 0.2s0 0.2-0.1 0.3-0.2 0.1-0.4 0.1c-0.1 0-0.2 0-0.3-0.1-0.1 0-0.2-0.1-0.2-0.2s-0.1-0.1-0.1-0.2h0.2c0 0.1 0 0.2 0.1 0.2 0.1 0.1 0.2 0.1 0.3 0.1s0.2 0 0.2-0.1c0.1 0 0.1-0.1 0.1-0.2s0-0.1-0.1-0.2c-0.3 0.1-0.4 0-0.5 0zm1.1 0.2v0.2-0.2l0.4-1h0.2l0.3 1v0.2-0.2l0.2-1h0.2l-0.4 1.5h-0.2l-0.3-1.1v-0.1 0.1l-0.3 1.1h-0.2l-0.4-1.5h0.2zm2.7-0.3c0 0.1 0 0.3-0.1 0.4 0 0.1-0.1 0.2-0.2 0.2-0.1 0.1-0.2 0.1-0.3 0.1s-0.2 0-0.3-0.1-0.2-0.1-0.2-0.2-0.1-0.2-0.1-0.4v-0.1c0-0.1 0-0.3 0.1-0.4 0-0.1 0.1-0.2 0.2-0.2 0.1-0.1 0.2-0.1 0.3-0.1s0.2 0 0.3 0.1 0.2 0.1 0.2 0.2c0.1 0.2 0.1 0.3 0.1 0.5zm-0.2 0c0-0.2 0-0.3-0.1-0.4s-0.2-0.1-0.3-0.1-0.2 0-0.3 0.1-0.1 0.2-0.1 0.4v0.1c0 0.2 0 0.3 0.1 0.4s0.2 0.1 0.3 0.1 0.2 0 0.3-0.1 0.1-0.2 0.1-0.4zm1 0.1h-0.3v0.6h-0.2v-1.5h0.5c0.2 0 0.3 0 0.4 0.1s0.1 0.2 0.1 0.3 0 0.2-0.1 0.2c0 0.1-0.1 0.1-0.2 0.2l0.3 0.6h-0.2zm-0.3-0.1h0.3c0.1 0 0.2 0 0.2-0.1 0.1-0.1 0.1-0.1 0.1-0.2s0-0.2-0.1-0.2-0.1-0.1-0.2-0.1h-0.3zm1 0.7v-1.5h0.4c0.1 0 0.2 0 0.3 0.1s0.2 0.1 0.2 0.2c0.1 0.1 0.1 0.2 0.1 0.4v0.1c0 0.1 0 0.3-0.1 0.4s-0.1 0.2-0.2 0.2c-0.1 0.1-0.2 0.1-0.3 0.1zm0.2-1.3v1.2h0.2c0.1 0 0.3 0 0.3-0.1 0.1-0.1 0.1-0.2 0.1-0.4v-0.1c0-0.2 0-0.3-0.1-0.4s-0.2-0.1-0.3-0.1h-0.2z"/>
		</g>
		<path class="st7" d="m205.8 197.4h-84.6v84.6h84.6z"/>
		<path class="st8" d="m205.8 197.1h-84.6v7.3h84.6z"/>
		<path class="st9" d="m198.5 199 4.3 4.4"/>
		<path class="st9" d="m202.8 199-4.4 4.3"/>
		<path class="st10" d="m163.5 242c7.4 0 13.3-6 13.3-13.3s-6-13.3-13.3-13.3c-7.4 0-13.3 6-13.3 13.3s5.9 13.3 13.3 13.3z"/>
		<path class="st11" d="m165.9 230.3h-4.8v4.8h4.8z"/>
		<path class="st7" d="m163.4 233.6h-3.7v2.3h3.7z"/>
		<path class="st7" d="m168 233.6h-3.7v2.3h3.7z"/>
		<path class="st12" d="m172.2 243.2h-17.1v-4.1c0-2.4 1.9-4.3 4.3-4.3h8.4c2.4 0 4.3 1.9 4.3 4.3z"/>
		<path class="st11" d="m157.1 226.9c1.6 0 2.9-1.3 2.9-2.9s-1.3-2.9-2.9-2.9-2.9 1.3-2.9 2.9 1.3 2.9 2.9 2.9z"/>
		<path class="st11" d="m169.8 226.9c1.6 0 2.9-1.3 2.9-2.9s-1.3-2.9-2.9-2.9-2.9 1.3-2.9 2.9 1.3 2.9 2.9 2.9z"/>
		<path class="st11" d="m163.7 232.8c-3.8 0-6.9-3-6.9-6.8v-4.6c0-3.8 3-6.8 6.8-6.8s6.8 3 6.8 6.8v4.6c0.1 3.7-3 6.8-6.7 6.8z"/>
		<path class="st1" d="m158.9 217.6c0.6 0.3 1.2 0.5 1.9 0.7 1.3 0.3 2.6 0.3 3.9 0.2 1.2-0.1 2.5-0.3 3.7-0.8s2.3-1.3 2.9-2.4 0.6-2.6 0-3.6c-0.1-0.1-0.2-0.3-0.3-0.3-0.2-0.1-0.4-0.1-0.6-0.1-0.4 0-0.7 0.1-1.1 0.3l-0.9 0.6c-0.3 0.2-0.7 0.3-1 0.1-0.2-0.1-0.4-0.3-0.6-0.5-0.4-0.4-1.1-0.4-1.6-0.4-0.2 0-0.4 0-0.6 0.1-0.3 0.2-0.5 0.7-0.8 1s-0.7 0.4-1.1 0.3-0.7-0.4-1.1-0.4c-0.5 0-0.9 0.2-1.2 0.6-0.3 0.3-0.5 0.8-0.7 1.2-0.5 0.7-1.1 1.3-1.6 2-0.2 0.3-0.1 1.7-0.1 1.7s0.6-0.4 0.9-0.3z"/>
		<path class="st1" d="m160.4 224.8c0 0.2-0.2 0.4-0.4 0.4s-0.4-0.2-0.4-0.4 0.2-0.4 0.4-0.4 0.4 0.1 0.4 0.4z"/>
		<path class="st1" d="m167.1 225.1c0.2 0 0.4-0.2 0.4-0.4s-0.2-0.4-0.4-0.4-0.4 0.2-0.4 0.4c0 0.3 0.2 0.4 0.4 0.4z"/>
		<path class="st7" d="m161.9 227h3.7s-2 2.5-3.7 0z"/>
		<path class="st13" d="m188.7 253.9h-50.6c-1.8 0-3.2-1.4-3.2-3.2s1.4-3.2 3.2-3.2h50.6c1.7 0 3.2 1.4 3.2 3.2s-1.4 3.2-3.2 3.2z"/>
		<path class="st13" d="m188.7 263.4h-50.6c-1.8 0-3.2-1.4-3.2-3.2s1.4-3.2 3.2-3.2h50.6c1.7 0 3.2 1.4 3.2 3.2s-1.4 3.2-3.2 3.2z"/>
		<g class="st3">
			<path class="st4" d="m175.1 275.1h-19c-1.8 0-3.2-1.4-3.2-3.2s1.4-3.2 3.2-3.2h19c1.8 0 3.2 1.4 3.2 3.2 0 1.7-1.4 3.2-3.2 3.2z"/>
		</g>
		<path class="st1" d="m173 272.9h-19c-1.8 0-3.2-1.4-3.2-3.2s1.4-3.2 3.2-3.2h19c1.7 0 3.2 1.4 3.2 3.2s-1.5 3.2-3.2 3.2z"/>
		<path class="st14" d="m158.6 249.7v1c0 0.1 0 0.3-0.1 0.3-0.1 0.1-0.2 0.1-0.4 0.1h-0.1c-0.2 0-0.3 0-0.4-0.1s-0.1-0.2-0.1-0.4v-1h0.2v1c0 0.1 0 0.2 0.1 0.2 0.1 0.1 0.1 0.1 0.3 0.1 0.1 0 0.2 0 0.3-0.1s0.1-0.1 0.1-0.2v-1h0.1zm0.8 0.8c-0.2 0-0.3-0.1-0.4-0.2s-0.1-0.2-0.1-0.3 0-0.2 0.1-0.3 0.2-0.1 0.4-0.1c0.1 0 0.2 0 0.3 0.1 0.1 0 0.1 0.1 0.2 0.2 0 0.1 0.1 0.1 0.1 0.2h-0.2c0-0.1 0-0.2-0.1-0.2-0.1-0.1-0.1-0.1-0.2-0.1s-0.2 0-0.2 0.1c-0.1 0-0.1 0.1-0.1 0.2s0 0.1 0.1 0.2c0.1 0 0.1 0.1 0.3 0.1 0.1 0 0.2 0.1 0.3 0.1s0.1 0.1 0.2 0.1c0 0.1 0.1 0.1 0.1 0.2s0 0.2-0.1 0.3-0.2 0.1-0.4 0.1c-0.1 0-0.2 0-0.3-0.1-0.1 0-0.2-0.1-0.2-0.2s-0.1-0.1-0.1-0.2h0.2c0 0.1 0 0.2 0.1 0.2 0.1 0.1 0.2 0.1 0.3 0.1s0.2 0 0.2-0.1c0.1 0 0.1-0.1 0.1-0.2s0-0.1-0.1-0.2c-0.3 0.1-0.4 0.1-0.5 0zm1.6 0h-0.6v0.5h0.7v0.2h-0.9v-1.5h0.9v0.2h-0.7v0.5h0.6zm0.9 0.1h-0.3v0.6h-0.2v-1.5h0.5c0.2 0 0.3 0 0.4 0.1s0.1 0.2 0.1 0.3 0 0.2-0.1 0.2c0 0.1-0.1 0.1-0.2 0.2l0.3 0.6h-0.2zm-0.4-0.2h0.3c0.1 0 0.2 0 0.2-0.1 0.1 0 0.1-0.1 0.1-0.2s0-0.2-0.1-0.2-0.1-0.1-0.2-0.1h-0.3zm2.2 0.8h-0.2l-0.7-1.1v1.1h-0.2v-1.5h0.2l0.7 1.1v-1.1h0.2zm1.2-0.4h-0.6l-0.1 0.4h-0.2l0.6-1.5h0.2l0.6 1.5h-0.4zm-0.6-0.1h0.5l-0.3-0.7zm1.4-1 0.5 1.2 0.5-1.2h0.3v1.5h-0.2v-1.2l-0.5 1.2h-0.1l-0.5-1.2v1.2h-0.2v-1.5zm2.4 0.8h-0.6v0.5h0.7v0.2h-0.9v-1.5h0.9v0.2h-0.7v0.5h0.6z"/>
		<path class="st7" d="m159.3 269.6h0.9v0.2h-1.2v-2h0.3zm2.7-0.7c0 0.2 0 0.4-0.1 0.5s-0.2 0.3-0.3 0.3c-0.1 0.1-0.3 0.1-0.4 0.1-0.2 0-0.3 0-0.4-0.1l-0.3-0.3c-0.1-0.1-0.1-0.3-0.1-0.5v-0.1c0-0.2 0-0.4 0.1-0.5s0.2-0.3 0.3-0.3c0.1-0.1 0.3-0.1 0.4-0.1 0.2 0 0.3 0 0.4 0.1l0.3 0.3c0.1 0.1 0.1 0.3 0.1 0.5zm-0.3-0.1c0-0.2 0-0.4-0.1-0.5s-0.2-0.2-0.4-0.2-0.3 0.1-0.4 0.2-0.1 0.3-0.1 0.5v0.1c0 0.2 0 0.4 0.1 0.5s0.2 0.2 0.4 0.2 0.3-0.1 0.4-0.2 0.1-0.3 0.1-0.5zm2.2 0.8c-0.1 0.1-0.2 0.2-0.3 0.2s-0.3 0.1-0.4 0.1c-0.2 0-0.3 0-0.4-0.1l-0.3-0.3c-0.1-0.1-0.1-0.3-0.1-0.5v-0.2c0-0.3 0.1-0.5 0.2-0.7s0.3-0.2 0.6-0.2c0.2 0 0.4 0.1 0.5 0.2s0.2 0.3 0.2 0.5h-0.3c0-0.3-0.2-0.4-0.5-0.4-0.2 0-0.3 0.1-0.4 0.2s-0.1 0.3-0.1 0.5v0.2c0 0.2 0.1 0.4 0.2 0.5s0.2 0.2 0.4 0.2h0.3c0.1 0 0.1-0.1 0.2-0.1v-0.4h-0.5v-0.2h0.7zm0.7 0.2h-0.3v-2h0.3zm2 0h-0.3l-1-1.5v1.5h-0.3v-2h0.3l1 1.5v-1.5h0.3z"/>
		<path class="st14" d="m157.7 260.1v0.6h-0.2v-1.5h0.5c0.2 0 0.3 0 0.4 0.1s0.1 0.2 0.1 0.3 0 0.3-0.1 0.3c-0.1 0.1-0.2 0.1-0.4 0.1h-0.3zm0-0.1h0.3c0.1 0 0.2 0 0.2-0.1 0.1 0 0.1-0.1 0.1-0.2s0-0.2-0.1-0.2c-0.1-0.1-0.1-0.1-0.2-0.1h-0.4v0.6zm1.8 0.3h-0.6l-0.1 0.4h-0.2l0.6-1.5h0.2l0.6 1.5h-0.2zm-0.6-0.1h0.5l-0.3-0.7zm1.5-0.2c-0.2 0-0.3-0.1-0.4-0.2s-0.1-0.2-0.1-0.3 0-0.2 0.1-0.3 0.2-0.1 0.4-0.1c0.1 0 0.2 0 0.3 0.1 0.1 0 0.1 0.1 0.2 0.2 0 0.1 0.1 0.1 0.1 0.2h-0.2c0-0.1 0-0.2-0.1-0.2-0.1-0.1-0.1-0.1-0.2-0.1s-0.2 0-0.2 0.1c-0.1 0-0.1 0.1-0.1 0.2s0 0.1 0.1 0.2c0.1 0 0.1 0.1 0.3 0.1 0.1 0 0.2 0.1 0.3 0.1s0.1 0.1 0.2 0.1c0 0.1 0.1 0.1 0.1 0.2s0 0.2-0.1 0.3-0.2 0.1-0.4 0.1c-0.1 0-0.2 0-0.3-0.1-0.1 0-0.2-0.1-0.2-0.2s-0.1-0.1-0.1-0.2h0.2c0 0.1 0 0.2 0.1 0.2 0.1 0.1 0.2 0.1 0.3 0.1s0.2 0 0.2-0.1c0.1 0 0.1-0.1 0.1-0.2s0-0.1-0.1-0.2c-0.2 0.1-0.3 0.1-0.5 0zm1.3 0c-0.2 0-0.3-0.1-0.4-0.2s-0.1-0.2-0.1-0.3 0-0.2 0.1-0.3 0.2-0.1 0.4-0.1c0.1 0 0.2 0 0.3 0.1 0.1 0 0.1 0.1 0.2 0.2 0 0.1 0.1 0.1 0.1 0.2h-0.3c0-0.1 0-0.2-0.1-0.2-0.1-0.1-0.1-0.1-0.2-0.1s-0.2 0-0.2 0.1c-0.1 0-0.1 0.1-0.1 0.2s0 0.1 0.1 0.2c0.1 0 0.1 0.1 0.3 0.1 0.1 0 0.2 0.1 0.3 0.1s0.1 0.1 0.2 0.1c0 0.1 0.1 0.1 0.1 0.2s0 0.2-0.1 0.3-0.2 0.1-0.4 0.1c-0.1 0-0.2 0-0.3-0.1-0.1 0-0.2-0.1-0.2-0.2s-0.1-0.1-0.1-0.2h0.2c0 0.1 0 0.2 0.1 0.2 0.1 0.1 0.2 0.1 0.3 0.1s0.2 0 0.2-0.1c0.1 0 0.1-0.1 0.1-0.2s0-0.1-0.1-0.2c-0.2 0.1-0.3 0.1-0.4 0zm1.1 0.2v0.2-0.2l0.4-1h0.2l0.3 1v0.2-0.2l0.2-1h0.2l-0.4 1.5h-0.2l-0.3-1.1v-0.1 0.1l-0.3 1.1h-0.2l-0.4-1.5h0.2zm2.6-0.2c0 0.1 0 0.3-0.1 0.4 0 0.1-0.1 0.2-0.2 0.2-0.1 0.1-0.2 0.1-0.3 0.1s-0.2 0-0.3-0.1-0.2-0.1-0.2-0.2-0.1-0.2-0.1-0.4v-0.1c0-0.1 0-0.3 0.1-0.4 0-0.1 0.1-0.2 0.2-0.2 0.1-0.1 0.2-0.1 0.3-0.1s0.2 0 0.3 0.1 0.2 0.1 0.2 0.2c0.1 0.2 0.1 0.3 0.1 0.5zm-0.2-0.1c0-0.2 0-0.3-0.1-0.4s-0.2-0.1-0.3-0.1-0.2 0-0.3 0.1-0.1 0.2-0.1 0.4v0.1c0 0.2 0 0.3 0.1 0.4s0.2 0.1 0.3 0.1 0.2 0 0.3-0.1 0.1-0.2 0.1-0.4zm1.1 0.2h-0.3v0.6h-0.2v-1.5h0.5c0.2 0 0.3 0 0.4 0.1s0.1 0.2 0.1 0.3 0 0.2-0.1 0.2c0 0.1-0.1 0.1-0.2 0.2l0.3 0.6h-0.2zm-0.4-0.2h0.3c0.1 0 0.2 0 0.2-0.1 0.1 0 0.1-0.1 0.1-0.2s0-0.2-0.1-0.2-0.1-0.1-0.2-0.1h-0.3zm1.1 0.8v-1.5h0.4c0.1 0 0.2 0 0.3 0.1s0.2 0.1 0.2 0.2c0.1 0.1 0.1 0.2 0.1 0.4v0.1c0 0.1 0 0.3-0.1 0.4s-0.1 0.2-0.2 0.2c-0.1 0.1-0.2 0.1-0.3 0.1zm0.2-1.3v1.2h0.2c0.1 0 0.3 0 0.3-0.1 0.1-0.1 0.1-0.2 0.1-0.4v-0.1c0-0.2 0-0.3-0.1-0.4s-0.2-0.1-0.3-0.1h-0.2z"/>
	</g>
	<path class="st19" d="m140.5 218.4 10 28.1 9.9-28.1h10.5v38.8h-8v-10.6l0.8-18.3-10.5 28.9h-5.5l-10.4-28.9 0.8 18.3v10.6h-8v-38.8zm60.7 22h-15.4v10.4h18v6.4h-26v-38.8h26v6.5h-18v9.2h15.4zm17.8-22 10 28.1 9.9-28.1h10.5v38.8h-8v-10.6l0.8-18.3-10.5 28.9h-5.5l-10.4-28.9 0.8 18.3v10.6h-8v-38.8zm37.4 38.8v-38.8h13.6c4.7 0 8.3 0.9 10.7 2.7s3.7 4.4 3.7 7.9c0 1.9-0.5 3.6-1.5 5s-2.3 2.5-4.1 3.2c2 0.5 3.6 1.5 4.7 3 1.2 1.5 1.7 3.4 1.7 5.5 0 3.7-1.2 6.6-3.6 8.5s-5.8 2.9-10.2 2.9h-15zm8-16.9v10.5h6.9c1.9 0 3.3-0.4 4.4-1.3s1.6-2.2 1.6-3.7c0-3.6-1.8-5.4-5.5-5.4h-7.4zm0-5.6h5.9c4-0.1 6.1-1.7 6.1-4.8 0-1.8-0.5-3-1.5-3.8s-2.6-1.2-4.8-1.2h-5.6v9.8zm50.2 5.7h-15.4v10.4h18v6.4h-26v-38.8h26v6.5h-18v9.2h15.4zm21.7 2.6h-6.3v14.2h-8v-38.8h14.4c4.6 0 8.1 1 10.6 3.1 2.5 2 3.7 4.9 3.7 8.7 0 2.6-0.6 4.9-1.7 6.6-1.1 1.8-2.9 3.2-5.2 4.2l8.4 15.9v0.4h-8.6zm-6.3-6.4h6.5c2 0 3.6-0.5 4.7-1.5s1.7-2.4 1.7-4.2-0.5-3.3-1.6-4.3c-1-1-2.6-1.6-4.8-1.6h-6.5zm47 10.5c0-1.5-0.5-2.7-1.6-3.5s-3-1.7-5.8-2.6-5-1.8-6.6-2.7c-4.4-2.4-6.6-5.6-6.6-9.6 0-2.1 0.6-4 1.8-5.6 1.2-1.7 2.9-2.9 5.1-3.9 2.2-0.9 4.7-1.4 7.5-1.4s5.2 0.5 7.4 1.5 3.8 2.4 5 4.2 1.8 3.9 1.8 6.2h-8c0-1.8-0.6-3.2-1.7-4.1-1.1-1-2.7-1.5-4.7-1.5s-3.5 0.4-4.6 1.3c-1.1 0.8-1.6 1.9-1.6 3.3 0 1.3 0.6 2.3 1.9 3.2s3.2 1.7 5.6 2.4c4.5 1.4 7.9 3.1 9.9 5.1 2.1 2 3.1 4.5 3.1 7.6 0 3.4-1.3 6-3.8 7.9s-6 2.9-10.3 2.9c-3 0-5.7-0.5-8.2-1.6s-4.3-2.6-5.6-4.5-1.9-4.1-1.9-6.6h8c0 4.3 2.6 6.4 7.7 6.4 1.9 0 3.4-0.4 4.5-1.1 1.1-0.9 1.7-2 1.7-3.3zm45 10.1h-8v-16.6h-15.6v16.6h-8v-38.8h8v15.7h15.6v-15.7h8zm15.5 0h-8v-38.8h8zm15.5-13.6v13.7h-8v-38.8h15.1c2.9 0 5.5 0.5 7.7 1.6s3.9 2.6 5.1 4.6 1.8 4.2 1.8 6.7c0 3.8-1.3 6.8-3.9 9s-6.2 3.3-10.8 3.3h-7zm0-6.5h7.1c2.1 0 3.7-0.5 4.8-1.5s1.7-2.4 1.7-4.3-0.6-3.4-1.7-4.6-2.7-1.8-4.6-1.8h-7.3z"/>
	
		<linearGradient id="a" x1="177.66" x2="465.14" y1="262.28" y2="262.28" gradientTransform="matrix(1 0 0 -1 8.4104e-6 500.11)" gradientUnits="userSpaceOnUse">
		<stop stop-color="#A01BB2" offset="0"/>
		<stop stop-color="#683387" offset="1"/>
	</linearGradient>
	<path class="st20" d="m140.5 218.4 10 28.1 9.9-28.1h10.5v38.8h-8v-10.6l0.8-18.3-10.5 28.9h-5.5l-10.4-28.9 0.8 18.3v10.6h-8v-38.8zm60.7 22h-15.4v10.4h18v6.4h-26v-38.8h26v6.5h-18v9.2h15.4zm17.8-22 10 28.1 9.9-28.1h10.5v38.8h-8v-10.6l0.8-18.3-10.5 28.9h-5.5l-10.4-28.9 0.8 18.3v10.6h-8v-38.8zm37.4 38.8v-38.8h13.6c4.7 0 8.3 0.9 10.7 2.7s3.7 4.4 3.7 7.9c0 1.9-0.5 3.6-1.5 5s-2.3 2.5-4.1 3.2c2 0.5 3.6 1.5 4.7 3 1.2 1.5 1.7 3.4 1.7 5.5 0 3.7-1.2 6.6-3.6 8.5s-5.8 2.9-10.2 2.9h-15zm8-16.9v10.5h6.9c1.9 0 3.3-0.4 4.4-1.3s1.6-2.2 1.6-3.7c0-3.6-1.8-5.4-5.5-5.4h-7.4zm0-5.6h5.9c4-0.1 6.1-1.7 6.1-4.8 0-1.8-0.5-3-1.5-3.8s-2.6-1.2-4.8-1.2h-5.6v9.8zm50.2 5.7h-15.4v10.4h18v6.4h-26v-38.8h26v6.5h-18v9.2h15.4zm21.7 2.6h-6.3v14.2h-8v-38.8h14.4c4.6 0 8.1 1 10.6 3.1 2.5 2 3.7 4.9 3.7 8.7 0 2.6-0.6 4.9-1.7 6.6-1.1 1.8-2.9 3.2-5.2 4.2l8.4 15.9v0.4h-8.6zm-6.3-6.4h6.5c2 0 3.6-0.5 4.7-1.5s1.7-2.4 1.7-4.2-0.5-3.3-1.6-4.3c-1-1-2.6-1.6-4.8-1.6h-6.5zm47 10.5c0-1.5-0.5-2.7-1.6-3.5s-3-1.7-5.8-2.6-5-1.8-6.6-2.7c-4.4-2.4-6.6-5.6-6.6-9.6 0-2.1 0.6-4 1.8-5.6 1.2-1.7 2.9-2.9 5.1-3.9 2.2-0.9 4.7-1.4 7.5-1.4s5.2 0.5 7.4 1.5 3.8 2.4 5 4.2 1.8 3.9 1.8 6.2h-8c0-1.8-0.6-3.2-1.7-4.1-1.1-1-2.7-1.5-4.7-1.5s-3.5 0.4-4.6 1.3c-1.1 0.8-1.6 1.9-1.6 3.3 0 1.3 0.6 2.3 1.9 3.2s3.2 1.7 5.6 2.4c4.5 1.4 7.9 3.1 9.9 5.1 2.1 2 3.1 4.5 3.1 7.6 0 3.4-1.3 6-3.8 7.9s-6 2.9-10.3 2.9c-3 0-5.7-0.5-8.2-1.6s-4.3-2.6-5.6-4.5-1.9-4.1-1.9-6.6h8c0 4.3 2.6 6.4 7.7 6.4 1.9 0 3.4-0.4 4.5-1.1 1.1-0.9 1.7-2 1.7-3.3zm45 10.1h-8v-16.6h-15.6v16.6h-8v-38.8h8v15.7h15.6v-15.7h8zm15.5 0h-8v-38.8h8zm15.5-13.6v13.7h-8v-38.8h15.1c2.9 0 5.5 0.5 7.7 1.6s3.9 2.6 5.1 4.6 1.8 4.2 1.8 6.7c0 3.8-1.3 6.8-3.9 9s-6.2 3.3-10.8 3.3h-7zm0-6.5h7.1c2.1 0 3.7-0.5 4.8-1.5s1.7-2.4 1.7-4.3-0.6-3.4-1.7-4.6-2.7-1.8-4.6-1.8h-7.3z" fill="url(#a)"/>
</g>
</svg>
