<?xml version="1.0" encoding="UTF-8" standalone="no"?>
<svg
   xmlns:dc="http://purl.org/dc/elements/1.1/"
   xmlns:cc="http://creativecommons.org/ns#"
   xmlns:rdf="http://www.w3.org/1999/02/22-rdf-syntax-ns#"
   xmlns:svg="http://www.w3.org/2000/svg"
   xmlns="http://www.w3.org/2000/svg"
   xmlns:sodipodi="http://sodipodi.sourceforge.net/DTD/sodipodi-0.dtd"
   xmlns:inkscape="http://www.inkscape.org/namespaces/inkscape"
   inkscape:version="1.0 (4035a4fb49, 2020-05-01)"
   height="250"
   width="500"
   sodipodi:docname="membership1.svg"
   id="svg303"
   xml:space="preserve"
   viewBox="0 0 500 250"
   y="0px"
   x="0px"
   version="1.1"><metadata
   id="metadata309"><rdf:RDF><cc:Work
       rdf:about=""><dc:format>image/svg+xml</dc:format><dc:type
         rdf:resource="http://purl.org/dc/dcmitype/StillImage" /><dc:title></dc:title></cc:Work></rdf:RDF></metadata><defs
   id="defs307" /><sodipodi:namedview
   inkscape:current-layer="svg303"
   inkscape:window-maximized="1"
   inkscape:window-y="-11"
   inkscape:window-x="-11"
   inkscape:cy="150.35356"
   inkscape:cx="250"
   inkscape:zoom="1.6"
   showgrid="false"
   id="namedview305"
   inkscape:window-height="986"
   inkscape:window-width="1920"
   inkscape:pageshadow="2"
   inkscape:pageopacity="0"
   guidetolerance="10"
   gridtolerance="10"
   objecttolerance="10"
   borderopacity="1"
   bordercolor="#666666"
   pagecolor="#ffffff" />
<style
   id="style2"
   type="text/css">
	.st0{opacity:0.45;}
	.st1{fill:#907FCC;}
	.st2{fill:none;stroke:#907FCC;stroke-miterlimit:10;}
	.st3{opacity:0.29;}
	.st4{opacity:0.29;fill:#575757;enable-background:new    ;}
	
		.st5{opacity:0.29;fill:none;stroke:#575757;stroke-linecap:round;stroke-linejoin:round;stroke-miterlimit:10;enable-background:new    ;}
	.st6{opacity:0.29;fill:none;stroke:#575757;stroke-miterlimit:10;enable-background:new    ;}
	.st7{fill:#F1F1F1;}
	.st8{fill:#BEB0DE;}
	.st9{fill:none;stroke:#F3F3F3;stroke-linecap:round;stroke-linejoin:round;stroke-miterlimit:10;}
	.st10{fill:#B3ABD2;}
	.st11{fill:#D2CCE7;}
	.st12{fill:#C2AFF6;}
	.st13{fill:none;stroke:#C6ABFA;stroke-miterlimit:10;}
	.st14{fill:#C6ABFA;}
	.st15{fill:#938CB8;}
	.st16{fill:none;stroke:#8D73CC;stroke-miterlimit:10;}
	.st17{fill:#8D73CC;}
	.st18{fill:#EBEBEB;}
	.st19{fill:#FFFFFF;}
	.st20{fill:url(#SVGID_1_);}
</style>
<g
   id="BACKGROUND">
</g>
<g
   transform="translate(-7.5,-107.5)"
   id="OBJECTS">
	<g
   id="g291"
   class="st0">
		<path
   id="path5"
   d="m 135.5,177 v -4.6 h -3.8 c -0.3,-1.3 -0.8,-2.5 -1.5,-3.6 l 2.7,-2.7 -3.2,-3.2 -2.7,2.7 c -1.1,-0.7 -2.3,-1.2 -3.6,-1.5 v -3.8 h -4.5 v 3.8 c -1.3,0.3 -2.5,0.8 -3.6,1.5 l -2.7,-2.7 -3.2,3.2 2.7,2.7 c -0.7,1.1 -1.2,2.3 -1.5,3.6 h -3.8 v 4.5 h 3.8 c 0.3,1.3 0.8,2.5 1.5,3.6 l -2.7,2.7 3.2,3.2 2.7,-2.7 c 1.1,0.7 2.3,1.2 3.6,1.5 v 3.8 h 4.5 v -3.8 c 1.3,-0.3 2.5,-0.8 3.6,-1.5 l 2.7,2.7 3.2,-3.2 -2.7,-2.7 c 0.7,-1.1 1.2,-2.3 1.5,-3.6 z m -14.3,3.1 c -3,0 -5.4,-2.4 -5.4,-5.4 0,-3 2.4,-5.4 5.4,-5.4 3,0 5.4,2.4 5.4,5.4 0,3 -2.4,5.4 -5.4,5.4 z"
   class="st1" />
		<path
   id="path7"
   d="m 70.3,271 v -3.7 h -3.1 c -0.2,-1.1 -0.6,-2 -1.2,-2.9 l 2.2,-2.2 -2.6,-2.6 -2.2,2.2 c -0.9,-0.6 -1.9,-1 -2.9,-1.2 v -3.1 h -3.7 v 3.1 c -1.1,0.2 -2,0.6 -2.9,1.2 l -2.2,-2.2 -2.6,2.6 2.2,2.2 c -0.6,0.9 -1,1.9 -1.2,2.9 H 47 v 3.7 h 3.1 c 0.2,1.1 0.6,2 1.2,2.9 l -2.2,2.2 2.6,2.6 2.2,-2.2 c 0.9,0.6 1.9,1 2.9,1.2 v 3.1 h 3.7 v -3.1 c 1.1,-0.2 2,-0.6 2.9,-1.2 l 2.2,2.2 2.6,-2.6 -2.2,-2.2 c 0.6,-0.9 1,-1.9 1.2,-2.9 z m -11.6,2.6 c -2.4,0 -4.4,-2 -4.4,-4.4 0,-2.4 2,-4.4 4.4,-4.4 2.4,0 4.4,2 4.4,4.4 0,2.4 -2,4.4 -4.4,4.4 z"
   class="st1" />
		<path
   id="path9"
   d="m 223.4,261.5 v -3.9 h -3.3 c -0.3,-1.1 -0.7,-2.2 -1.3,-3.1 l 2.3,-2.3 -2.8,-2.8 -2.3,2.3 c -0.9,-0.6 -2,-1.1 -3.1,-1.3 v -3.3 H 209 v 3.3 c -1.1,0.3 -2.2,0.7 -3.1,1.3 l -2.3,-2.3 -2.8,2.8 2.3,2.3 c -0.6,0.9 -1.1,2 -1.3,3.1 h -3.3 v 3.9 h 3.3 c 0.3,1.1 0.7,2.2 1.3,3.1 l -2.3,2.3 2.8,2.8 2.3,-2.3 c 0.9,0.6 2,1.1 3.1,1.3 v 3.3 h 3.9 v -3.3 c 1.1,-0.3 2.2,-0.7 3.1,-1.3 l 2.3,2.3 2.8,-2.8 -2.3,-2.3 c 0.6,-0.9 1.1,-2 1.3,-3.1 z m -12.4,2.7 c -2.6,0 -4.7,-2.1 -4.7,-4.7 0,-2.6 2.1,-4.7 4.7,-4.7 2.6,0 4.7,2.1 4.7,4.7 0,2.6 -2.2,4.7 -4.7,4.7 z"
   class="st2" />
		<path
   id="path11"
   d="m 175.9,308.7 v -3.9 h -3.3 c -0.3,-1.1 -0.7,-2.2 -1.3,-3.1 l 2.3,-2.3 -2.8,-2.8 -2.3,2.3 c -0.9,-0.6 -2,-1.1 -3.1,-1.3 v -3.3 h -4 v 3.3 c -1.1,0.3 -2.2,0.7 -3.1,1.3 l -2.3,-2.3 -2.8,2.8 2.3,2.3 c -0.6,0.9 -1.1,2 -1.3,3.1 H 151 v 3.9 h 3.3 c 0.3,1.1 0.7,2.2 1.3,3.1 l -2.3,2.3 2.8,2.8 2.3,-2.3 c 0.9,0.6 2,1.1 3.1,1.3 v 3.3 h 3.9 v -3.3 c 1.1,-0.3 2.2,-0.7 3.1,-1.3 l 2.3,2.3 2.8,-2.8 -2.3,-2.3 c 0.6,-0.9 1.1,-2 1.3,-3.1 z m -12.4,2.6 c -2.6,0 -4.7,-2.1 -4.7,-4.7 0,-2.6 2.1,-4.7 4.7,-4.7 2.6,0 4.7,2.1 4.7,4.7 -0.1,2.7 -2.2,4.7 -4.7,4.7 z"
   class="st2" />
		<path
   id="path13"
   d="m 154.8,168.2 v -2.9 h -2.4 c -0.2,-0.8 -0.5,-1.6 -0.9,-2.3 l 1.7,-1.7 -2,-2 -1.7,1.7 c -0.7,-0.4 -1.5,-0.8 -2.3,-0.9 v -2.4 h -2.9 v 2.4 c -0.8,0.2 -1.6,0.5 -2.3,0.9 l -1.8,-1.7 -2,2 1.8,1.7 c -0.4,0.7 -0.8,1.5 -0.9,2.3 h -2.4 v 2.9 h 2.4 c 0.2,0.8 0.5,1.6 0.9,2.3 l -1.8,1.7 2,2 1.8,-1.8 c 0.7,0.4 1.5,0.8 2.3,0.9 v 2.4 h 2.9 v -2.4 c 0.8,-0.2 1.6,-0.5 2.3,-0.9 l 1.7,1.8 2,-2 -1.7,-1.7 c 0.4,-0.7 0.8,-1.5 0.9,-2.3 z m -9.2,2 c -1.9,0 -3.5,-1.5 -3.5,-3.5 0,-2 1.5,-3.5 3.5,-3.5 2,0 3.5,1.5 3.5,3.5 -0.1,1.9 -1.6,3.5 -3.5,3.5 z"
   class="st2" />
		<path
   id="path15"
   d="M 89.8,240.8 H 43.5 c -2.8,0 -5,-2.2 -5,-5 0,-2.8 2.2,-5 5,-5 h 46.3 c 2.8,0 5,2.2 5,5 0,2.8 -2.3,5 -5,5 z"
   class="st1" />
		<path
   id="path17"
   d="M 103.8,250.8 H 57.5 c -2.8,0 -5,-2.2 -5,-5 0,-2.8 2.2,-5 5,-5 h 46.3 c 2.8,0 5,2.2 5,5 0,2.8 -2.3,5 -5,5 z"
   class="st1" />
		<path
   id="path19"
   d="m 196.8,192.1 h -46.3 c -2.8,0 -5,-2.2 -5,-5 0,-2.8 2.2,-5 5,-5 h 46.3 c 2.8,0 5,2.2 5,5 0,2.8 -2.3,5 -5,5 z"
   class="st1" />
		<path
   id="path21"
   d="m 210.8,202.1 h -46.2 c -2.8,0 -5,-2.2 -5,-5 0,-2.8 2.2,-5 5,-5 h 46.3 c 2.8,0 5,2.2 5,5 -0.1,2.8 -2.3,5 -5.1,5 z"
   class="st1" />
		<g
   id="g75"
   class="st3">
			<path
   id="path23"
   d="M 115.8,175.8 H 60 v 55.8 h 55.8 z"
   class="st4" />
			<path
   id="path25"
   d="M 115.8,175.6 H 60 v 4.8 h 55.8 z"
   class="st4" />
			<path
   id="path27"
   d="m 111,176.8 2.8,2.9"
   class="st5" />
			<path
   id="path29"
   d="m 113.8,176.8 -2.9,2.8"
   class="st5" />
			<path
   id="path31"
   d="m 87.8,205.2 c 4.9,0 8.8,-3.9 8.8,-8.8 0,-4.9 -3.9,-8.8 -8.8,-8.8 -4.9,0 -8.8,3.9 -8.8,8.8 0.1,4.8 4,8.8 8.8,8.8 z"
   class="st4" />
			<path
   id="path33"
   d="m 82.1,191.4 v 8.7 h 11.5 l 0.2,-8.7 c 0,0 -0.6,-5.2 -5.8,-5.2 -5.3,0 -5.9,5.2 -5.9,5.2 z"
   class="st4" />
			<path
   id="path35"
   d="m 89.4,197.5 h -3.2 v 3.2 h 3.2 z"
   class="st4" />
			<path
   id="path37"
   d="m 87.6,199.6 h -2.4 v 1.5 h 2.4 z"
   class="st4" />
			<path
   id="path39"
   d="m 90.7,199.6 h -2.4 v 1.5 h 2.4 z"
   class="st4" />
			<path
   id="path41"
   d="M 93.5,206 H 82.2 v -2.6 c 0,-1.6 1.3,-2.9 2.9,-2.9 h 5.5 c 1.6,0 2.9,1.3 2.9,2.9 z"
   class="st4" />
			<path
   id="path43"
   d="m 85.6,193.3 c 0,1.1 -0.9,1.9 -1.9,1.9 -1.1,0 -1.9,-0.9 -1.9,-1.9 0,-1.1 0.9,-1.9 1.9,-1.9 1,0 1.9,0.9 1.9,1.9 z"
   class="st4" />
			<path
   id="path45"
   d="m 93.9,193.1 c 0,1.1 -0.9,1.9 -1.9,1.9 -1.1,0 -1.9,-0.9 -1.9,-1.9 0,-1.1 0.9,-1.9 1.9,-1.9 1.1,0 1.9,0.9 1.9,1.9 z"
   class="st4" />
			<path
   id="path47"
   d="m 88,199.1 c -2.5,0 -4.5,-2 -4.5,-4.5 v -3 c 0,-2.5 2,-4.5 4.5,-4.5 v 0 c 2.5,0 4.5,2 4.5,4.5 v 3 c 0,2.5 -2,4.5 -4.5,4.5 z"
   class="st4" />
			<path
   id="path49"
   d="m 85.8,193.8 c 0,0.1 -0.1,0.3 -0.3,0.3 -0.1,0 -0.3,-0.1 -0.3,-0.3 0,-0.1 0.1,-0.3 0.3,-0.3 0.2,0.1 0.3,0.2 0.3,0.3 z"
   class="st4" />
			<path
   id="path51"
   d="m 90.5,193.8 c 0,0.1 -0.1,0.3 -0.3,0.3 -0.1,0 -0.3,-0.1 -0.3,-0.3 0,-0.1 0.1,-0.3 0.3,-0.3 0.2,0.1 0.3,0.2 0.3,0.3 z"
   class="st4" />
			<path
   id="path53"
   d="m 86.8,195.3 h 2.5 c 0,0 -1.3,1.6 -2.5,0 z"
   class="st4" />
			<path
   id="path55"
   d="M 104.5,213.1 H 71.2 c -1.2,0 -2.1,-0.9 -2.1,-2.1 0,-1.2 0.9,-2.1 2.1,-2.1 h 33.4 c 1.2,0 2.1,0.9 2.1,2.1 0,1.2 -1,2.1 -2.2,2.1 z"
   class="st6" />
			<path
   id="path57"
   d="M 104.5,219.3 H 71.2 c -1.2,0 -2.1,-0.9 -2.1,-2.1 0,-1.2 0.9,-2.1 2.1,-2.1 h 33.4 c 1.2,0 2.1,0.9 2.1,2.1 -0.1,1.1 -1,2.1 -2.2,2.1 z"
   class="st6" />
			<path
   id="path59"
   d="M 96.3,227.7 H 83.7 c -1.2,0 -2.1,-0.9 -2.1,-2.1 0,-1.2 0.9,-2.1 2.1,-2.1 h 12.5 c 1.2,0 2.1,0.9 2.1,2.1 0,1.2 -0.9,2.1 -2,2.1 z"
   class="st4" />
			<path
   id="path61"
   d="M 94.1,225.6 H 81.6 c -1.2,0 -2.1,-0.9 -2.1,-2.1 0,-1.2 0.9,-2.1 2.1,-2.1 h 12.5 c 1.2,0 2.1,0.9 2.1,2.1 0,1.1 -0.9,2.1 -2.1,2.1 z"
   class="st4" />
			<path
   id="path63"
   d="m 84.6,210.3 v 0.7 c 0,0.1 0,0.2 -0.1,0.2 -0.1,0.1 -0.1,0.1 -0.2,0.1 v 0 c -0.1,0 -0.2,0 -0.3,-0.1 -0.1,-0.1 -0.1,-0.1 -0.1,-0.2 v -0.7 H 84 v 0.7 c 0,0.1 0,0.1 0.1,0.2 0,0 0.1,0.1 0.2,0.1 0.1,0 0.1,0 0.2,-0.1 0,0 0.1,-0.1 0.1,-0.2 z m 0.5,0.5 c -0.1,0 -0.2,-0.1 -0.2,-0.1 0,0 -0.1,-0.1 -0.1,-0.2 0,-0.1 0,-0.1 0.1,-0.2 0.1,-0.1 0.1,-0.1 0.2,-0.1 0.1,0 0.1,0 0.2,0 0.1,0 0.1,0.1 0.1,0.1 0,0 0,0.1 0,0.1 h -0.1 c 0,-0.1 0,-0.1 -0.1,-0.1 0,0 -0.1,-0.1 -0.2,-0.1 -0.1,0 -0.1,0 -0.1,0 0,0 -0.1,0.1 -0.1,0.1 0,0 0,0.1 0.1,0.1 0,0 0.1,0.1 0.2,0.1 0.1,0 0.1,0 0.2,0.1 0,0 0.1,0.1 0.1,0.1 0,0 0,0.1 0,0.1 0,0.1 0,0.1 -0.1,0.2 -0.1,0 -0.1,0.1 -0.2,0.1 -0.1,0 -0.1,0 -0.2,0 -0.1,0 -0.1,-0.1 -0.1,-0.1 0,0 0,-0.1 0,-0.2 h 0.1 c 0,0.1 0,0.1 0.1,0.1 0,0 0.1,0.1 0.2,0.1 0.1,0 0.1,0 0.2,0 0,0 0.1,-0.1 0.1,-0.1 0,0 0,-0.1 -0.1,-0.1 -0.1,0.1 -0.2,0.1 -0.3,0 z m 1.1,0 h -0.4 v 0.3 h 0.5 v 0.1 h -0.6 v -1 h 0.6 v 0.1 h -0.5 v 0.3 h 0.4 z m 0.6,0.1 h -0.2 v 0.4 h -0.1 v -1 h 0.3 c 0.1,0 0.2,0 0.3,0.1 0.1,0 0.1,0.1 0.1,0.2 0,0.1 0,0.1 0,0.2 0,0 -0.1,0.1 -0.1,0.1 l 0.2,0.4 v 0 H 87 Z m -0.2,-0.1 h 0.2 c 0.1,0 0.1,0 0.2,0 0,0 0.1,-0.1 0.1,-0.1 0,-0.1 0,-0.1 -0.1,-0.1 0,0 -0.1,0 -0.2,0 h -0.2 z m 1.4,0.5 h -0.1 l -0.5,-0.7 v 0.7 h -0.1 v -1 h 0.1 l 0.5,0.8 v -0.8 H 88 Z m 0.8,-0.3 h -0.4 l -0.1,0.3 h -0.1 l 0.4,-1 h 0.1 l 0.4,1 H 89 Z m -0.4,-0.1 h 0.3 l -0.2,-0.5 z m 0.9,-0.6 0.3,0.8 0.3,-0.8 h 0.2 v 1 H 90 v -0.4 -0.4 l -0.3,0.8 h -0.1 l -0.3,-0.8 v 0.4 0.4 h -0.1 v -1 z m 1.6,0.5 h -0.4 v 0.3 H 91 v 0.1 h -0.6 v -1 H 91 v 0.1 h -0.5 v 0.3 h 0.4 z"
   class="st4" />
			<path
   id="path65"
   d="m 85.1,223.5 h 0.6 v 0.1 h -0.8 v -1.3 h 0.2 z m 1.8,-0.4 c 0,0.1 0,0.2 -0.1,0.3 0,0.1 -0.1,0.2 -0.2,0.2 -0.1,0.1 -0.2,0.1 -0.3,0.1 -0.1,0 -0.2,0 -0.3,-0.1 -0.1,-0.1 -0.1,-0.1 -0.2,-0.2 0,-0.1 -0.1,-0.2 -0.1,-0.3 V 223 c 0,-0.1 0,-0.2 0.1,-0.3 0,-0.1 0.1,-0.2 0.2,-0.2 0.1,-0.1 0.2,-0.1 0.3,-0.1 0.1,0 0.2,0 0.3,0.1 0.1,0.1 0.1,0.1 0.2,0.2 0,0 0.1,0.1 0.1,0.4 z M 86.7,223 c 0,-0.2 0,-0.3 -0.1,-0.4 -0.1,-0.1 -0.2,-0.1 -0.3,-0.1 -0.1,0 -0.2,0 -0.3,0.1 -0.1,0.1 -0.1,0.2 -0.1,0.3 v 0.1 c 0,0.2 0,0.3 0.1,0.4 0.1,0.1 0.2,0.1 0.3,0.1 0.1,0 0.2,0 0.3,-0.1 0.1,-0.1 0.1,-0.2 0.1,-0.4 z m 1.4,0.5 c 0,0.1 -0.1,0.1 -0.2,0.1 -0.1,0 -0.2,0 -0.3,0 -0.1,0 -0.2,0 -0.3,-0.1 -0.1,-0.1 -0.1,-0.1 -0.2,-0.2 0,-0.1 -0.1,-0.2 -0.1,-0.3 v 0 c 0,-0.2 0,-0.4 0.1,-0.5 0.1,-0.1 0.2,-0.2 0.4,-0.2 0.1,0 0.2,0 0.3,0.1 0.1,0.1 0.1,0.2 0.2,0.3 h -0.2 c 0,-0.2 -0.1,-0.3 -0.3,-0.3 -0.1,0 -0.2,0 -0.3,0.1 -0.1,0.1 -0.1,0.2 -0.1,0.4 v 0.1 c 0,0.1 0,0.3 0.1,0.4 0.1,0.1 0.2,0.1 0.3,0.1 0.1,0 0.1,0 0.2,0 0,0 0.1,0 0.1,-0.1 v -0.3 H 87.5 V 223 H 88 v 0.5 z m 0.5,0.2 h -0.2 v -1.3 h 0.2 z m 1.3,0 h -0.2 l -0.7,-1 v 1 h -0.2 v -1.3 H 89 l 0.7,1 v -1 h 0.2 z"
   class="st4" />
			<path
   id="path67"
   d="m 84,217.1 v 0.4 h -0.1 v -1 h 0.4 c 0.1,0 0.2,0 0.2,0.1 0.1,0.1 0.1,0.1 0.1,0.2 0,0.1 0,0.2 -0.1,0.2 -0.1,0.1 -0.1,0.1 -0.3,0.1 z m 0,-0.1 h 0.2 c 0.1,0 0.1,0 0.2,0 0,0 0.1,-0.1 0.1,-0.1 0,-0.1 0,-0.1 -0.1,-0.1 0,0 -0.1,-0.1 -0.2,-0.1 H 84 Z m 1.2,0.3 h -0.4 l -0.1,0.3 h -0.1 l 0.4,-1 h 0.1 l 0.4,1 h -0.1 z m -0.3,-0.1 h 0.3 L 85,216.7 Z m 1,-0.1 c -0.1,0 -0.2,-0.1 -0.2,-0.1 0,0 -0.1,-0.1 -0.1,-0.2 0,-0.1 0,-0.1 0.1,-0.2 0.1,-0.1 0.1,-0.1 0.2,-0.1 0.1,0 0.1,0 0.2,0 0.1,0 0.1,0.1 0.1,0.1 0,0 0,0.1 0,0.1 h -0.1 c 0,-0.1 0,-0.1 -0.1,-0.1 0,0 -0.1,-0.1 -0.2,-0.1 -0.1,0 -0.1,0 -0.1,0 0,0 -0.1,0.1 -0.1,0.1 0,0 0,0.1 0.1,0.1 0,0 0.1,0.1 0.2,0.1 0.1,0 0.1,0 0.2,0.1 0,0 0.1,0.1 0.1,0.1 0,0 0,0.1 0,0.1 0,0.1 0,0.1 -0.1,0.2 -0.1,0 -0.1,0.1 -0.2,0.1 -0.1,0 -0.1,0 -0.2,0 -0.1,0 -0.1,-0.1 -0.1,-0.1 0,0 0,-0.1 0,-0.2 h 0.1 c 0,0.1 0,0.1 0.1,0.1 0,0 0.1,0.1 0.2,0.1 0.1,0 0.1,0 0.2,0 0,0 0.1,-0.1 0.1,-0.1 0,0 0,-0.1 -0.1,-0.1 -0.2,0 -0.3,0 -0.3,0 z m 0.8,0 c -0.1,0 -0.2,-0.1 -0.2,-0.1 -0.1,0 -0.1,-0.1 -0.1,-0.2 0,-0.1 0,-0.1 0.1,-0.2 0.1,-0.1 0.1,-0.1 0.2,-0.1 0.1,0 0.1,0 0.2,0 0.1,0 0.1,0.1 0.1,0.1 0,0 0,0.1 0,0.1 h -0.1 c 0,-0.1 0,-0.1 -0.1,-0.1 0,0 -0.1,-0.1 -0.2,-0.1 -0.1,0 -0.1,0 -0.1,0 0,0 -0.1,0.1 -0.1,0.1 0,0 0,0.1 0.1,0.1 0,0 0.1,0.1 0.2,0.1 0.1,0 0.1,0 0.2,0.1 0,0 0.1,0.1 0.1,0.1 0,0 0,0.1 0,0.1 0,0.1 0,0.1 -0.1,0.2 -0.1,0 -0.1,0.1 -0.2,0.1 -0.1,0 -0.1,0 -0.2,0 -0.1,0 -0.1,-0.1 -0.1,-0.1 0,0 0,-0.1 0,-0.2 h 0.1 c 0,0.1 0,0.1 0.1,0.1 0,0 0.1,0.1 0.2,0.1 0.1,0 0.1,0 0.2,0 0,0 0.1,-0.1 0.1,-0.1 0,0 0,-0.1 -0.1,-0.1 -0.2,0 -0.2,0 -0.3,0 z m 0.7,0.1 v 0.1 -0.1 l 0.2,-0.7 h 0.1 l 0.2,0.7 v 0.1 -0.1 l 0.2,-0.7 h 0.1 l -0.2,1 h -0.1 l -0.2,-0.7 v -0.1 0.1 l -0.2,0.7 h -0.1 l -0.2,-1 h 0.1 z m 1.8,-0.1 c 0,0.1 0,0.2 0,0.2 0,0.1 -0.1,0.1 -0.1,0.2 -0.1,0 -0.1,0.1 -0.2,0.1 -0.1,0 -0.1,0 -0.2,-0.1 -0.1,0 -0.1,-0.1 -0.1,-0.2 0,-0.1 0,-0.2 -0.1,-0.2 V 217 c 0,-0.1 0,-0.2 0,-0.2 0,-0.1 0.1,-0.1 0.1,-0.2 0.1,0 0.1,-0.1 0.2,-0.1 0.1,0 0.1,0 0.2,0.1 0.1,0 0.1,0.1 0.1,0.2 0,0 0.1,0.1 0.1,0.3 z M 89,217 c 0,-0.1 0,-0.2 -0.1,-0.3 0,-0.1 -0.1,-0.1 -0.2,-0.1 -0.1,0 -0.1,0 -0.2,0.1 0,0.1 -0.1,0.1 -0.1,0.3 v 0.1 c 0,0.1 0,0.2 0.1,0.3 0,0.1 0.1,0.1 0.2,0.1 0.1,0 0.1,0 0.2,-0.1 0.1,-0.1 0.1,-0.2 0.1,-0.4 z m 0.7,0.1 h -0.2 v 0.4 h -0.1 v -1 h 0.3 c 0.1,0 0.2,0 0.3,0.1 0.1,0 0.1,0.1 0.1,0.2 0,0.1 0,0.1 0,0.2 0,0 -0.1,0.1 -0.1,0.1 l 0.2,0.4 v 0 H 90.1 Z M 89.5,217 h 0.2 c 0.1,0 0.1,0 0.2,0 0,0 0.1,-0.1 0.1,-0.1 0,-0.1 0,-0.1 -0.1,-0.1 0,0 -0.1,0 -0.2,0 h -0.2 z m 0.7,0.5 v -1 h 0.3 c 0.1,0 0.2,0 0.2,0.1 0.1,0 0.1,0.1 0.2,0.2 0,0.1 0.1,0.1 0.1,0.2 v 0.1 c 0,0.1 0,0.2 -0.1,0.2 0,0.1 -0.1,0.1 -0.2,0.2 -0.1,0 -0.1,0.1 -0.2,0.1 h -0.3 z m 0.1,-0.8 v 0.8 h 0.1 c 0.1,0 0.2,0 0.2,-0.1 0.1,-0.1 0.1,-0.1 0.1,-0.3 V 217 c 0,-0.1 0,-0.2 -0.1,-0.3 -0.1,-0.1 -0.1,-0.1 -0.2,-0.1 h -0.1 z"
   class="st4" />
			<path
   id="path69"
   d="m 83.2,191.5 9.6,-0.1 c 0,0 -0.5,-4.3 -4.8,-4.3 -4.3,0 -4.8,4.4 -4.8,4.4 z"
   class="st4" />
			<path
   id="path71"
   d="m 83.1,195.3 c 0.2,0 0.3,-0.1 0.3,-0.3 0,-0.2 -0.1,-0.3 -0.3,-0.3 -0.2,0 -0.3,0.1 -0.3,0.3 0,0.1 0.1,0.3 0.3,0.3 z"
   class="st4" />
			<path
   id="path73"
   d="m 93,195.3 c 0.2,0 0.3,-0.1 0.3,-0.3 0,-0.2 -0.1,-0.3 -0.3,-0.3 -0.2,0 -0.3,0.1 -0.3,0.3 0,0.1 0.1,0.3 0.3,0.3 z"
   class="st4" />
		</g>
		<path
   id="path77"
   d="M 113.6,173.7 H 57.8 v 55.8 h 55.8 z"
   class="st7" />
		<path
   id="path79"
   d="M 113.6,173.5 H 57.8 v 4.8 h 55.8 z"
   class="st8" />
		<path
   id="path81"
   d="m 108.8,174.6 2.8,2.9"
   class="st9" />
		<path
   id="path83"
   d="m 111.7,174.7 -2.9,2.8"
   class="st9" />
		<path
   id="path85"
   d="m 85.7,203 c 4.9,0 8.8,-3.9 8.8,-8.8 0,-4.9 -3.9,-8.8 -8.8,-8.8 -4.9,0 -8.8,3.9 -8.8,8.8 0,4.9 4,8.8 8.8,8.8 z"
   class="st10" />
		<path
   id="path87"
   d="m 80,189.3 v 8.7 h 11.5 l 0.2,-8.7 c 0,0 -0.6,-5.2 -5.8,-5.2 -5.3,-0.1 -5.9,5.2 -5.9,5.2 z"
   class="st1" />
		<path
   id="path89"
   d="m 87.3,195.3 h -3.2 v 3.2 h 3.2 z"
   class="st11" />
		<path
   id="path91"
   d="m 85.5,197.5 h -2.4 v 1.5 h 2.4 z"
   class="st7" />
		<path
   id="path93"
   d="m 88.5,197.5 h -2.4 v 1.5 h 2.4 z"
   class="st7" />
		<path
   id="path95"
   d="M 91.3,203.8 H 80.1 v -2.6 c 0,-1.6 1.3,-2.9 2.9,-2.9 h 5.5 c 1.6,0 2.9,1.3 2.9,2.9 v 2.6 z"
   class="st12" />
		<path
   id="path97"
   d="m 83.5,191.2 c 0,1.1 -0.9,1.9 -1.9,1.9 -1.1,0 -1.9,-0.9 -1.9,-1.9 0,-1.1 0.9,-1.9 1.9,-1.9 1,0 1.9,0.8 1.9,1.9 z"
   class="st11" />
		<path
   id="path99"
   d="m 91.8,191 c 0,1.1 -0.9,1.9 -1.9,1.9 -1,0 -1.9,-0.9 -1.9,-1.9 0,-1 0.9,-1.9 1.9,-1.9 1,0 1.9,0.9 1.9,1.9 z"
   class="st11" />
		<path
   id="path101"
   d="m 85.9,196.9 c -2.5,0 -4.5,-2 -4.5,-4.5 v -3 c 0,-2.5 2,-4.5 4.5,-4.5 v 0 c 2.5,0 4.5,2 4.5,4.5 v 3 c 0,2.5 -2,4.5 -4.5,4.5 z"
   class="st11" />
		<path
   id="path103"
   d="m 83.7,191.7 c 0,0.1 -0.1,0.3 -0.3,0.3 -0.1,0 -0.3,-0.1 -0.3,-0.3 0,-0.1 0.1,-0.3 0.3,-0.3 0.2,0 0.3,0.1 0.3,0.3 z"
   class="st1" />
		<path
   id="path105"
   d="m 88.4,191.7 c 0,0.1 -0.1,0.3 -0.3,0.3 -0.1,0 -0.3,-0.1 -0.3,-0.3 0,-0.1 0.1,-0.3 0.3,-0.3 0.1,0 0.3,0.1 0.3,0.3 z"
   class="st1" />
		<path
   id="path107"
   d="m 84.6,193.2 h 2.5 c 0,0 -1.3,1.6 -2.5,0 z"
   class="st7" />
		<path
   id="path109"
   d="M 102.4,210.9 H 69 c -1.2,0 -2.1,-0.9 -2.1,-2.1 0,-1.2 0.9,-2.1 2.1,-2.1 h 33.4 c 1.2,0 2.1,0.9 2.1,2.1 0,1.2 -0.9,2.1 -2.1,2.1 z"
   class="st13" />
		<path
   id="path111"
   d="M 102.4,217.2 H 69 c -1.2,0 -2.1,-0.9 -2.1,-2.1 0,-1.2 0.9,-2.1 2.1,-2.1 h 33.4 c 1.2,0 2.1,0.9 2.1,2.1 0,1.2 -0.9,2.1 -2.1,2.1 z"
   class="st13" />
		<g
   id="g115"
   class="st3">
			<path
   id="path113"
   d="M 94.1,225.6 H 81.6 c -1.2,0 -2.1,-0.9 -2.1,-2.1 0,-1.2 0.9,-2.1 2.1,-2.1 h 12.5 c 1.2,0 2.1,0.9 2.1,2.1 0,1.1 -0.9,2.1 -2.1,2.1 z"
   class="st4" />
		</g>
		<path
   id="path117"
   d="M 92,223.4 H 79.4 c -1.2,0 -2.1,-0.9 -2.1,-2.1 0,-1.2 0.9,-2.1 2.1,-2.1 H 92 c 1.2,0 2.1,0.9 2.1,2.1 0,1.2 -1,2.1 -2.1,2.1 z"
   class="st1" />
		<path
   id="path119"
   d="m 82.5,208.2 v 0.7 c 0,0.1 0,0.2 -0.1,0.2 -0.1,0.1 -0.1,0.1 -0.2,0.1 v 0 c -0.1,0 -0.2,0 -0.3,-0.1 -0.1,-0.1 -0.1,-0.1 -0.1,-0.2 v -0.7 h 0.1 v 0.7 c 0,0.1 0,0.1 0.1,0.2 0,0 0.1,0.1 0.2,0.1 0.1,0 0.1,0 0.2,-0.1 0,0 0.1,-0.1 0.1,-0.2 z m 0.5,0.5 c -0.1,0 -0.2,-0.1 -0.2,-0.1 -0.1,0 -0.1,-0.1 -0.1,-0.2 0,-0.1 0,-0.1 0.1,-0.2 0.1,-0.1 0.1,-0.1 0.2,-0.1 0.1,0 0.1,0 0.2,0 0.1,0 0.1,0.1 0.1,0.1 0,0 0,0.1 0,0.1 h -0.1 c 0,-0.1 0,-0.1 -0.1,-0.1 0,0 -0.1,-0.1 -0.2,-0.1 -0.1,0 -0.1,0 -0.1,0 0,0 -0.1,0.1 -0.1,0.1 0,0 0,0.1 0.1,0.1 0,0 0.1,0.1 0.2,0.1 0.1,0 0.1,0 0.2,0.1 0,0 0.1,0.1 0.1,0.1 0,0 0,0.1 0,0.1 0,0.1 0,0.1 -0.1,0.2 -0.1,0 -0.1,0.1 -0.2,0.1 -0.1,0 -0.1,0 -0.2,0 -0.1,0 -0.1,-0.1 -0.1,-0.1 0,0 0,-0.1 0,-0.2 h 0.1 c 0,0.1 0,0.1 0.1,0.1 0,0 0.1,0.1 0.2,0.1 0.1,0 0.1,0 0.2,0 0,0 0.1,-0.1 0.1,-0.1 0,0 0,-0.1 -0.1,-0.1 -0.1,0 -0.2,0 -0.3,0 z m 1.1,0 h -0.4 v 0.3 h 0.5 v 0.1 h -0.6 v -1 h 0.6 v 0.1 h -0.5 v 0.3 h 0.4 z m 0.6,0 h -0.2 v 0.4 h -0.1 v -1 h 0.3 c 0.1,0 0.2,0 0.3,0.1 0.1,0 0.1,0.1 0.1,0.2 0,0.1 0,0.1 0,0.2 0,0 -0.1,0.1 -0.1,0.1 l 0.2,0.4 v 0 h -0.1 z m -0.3,-0.1 h 0.2 c 0.1,0 0.1,0 0.2,0 0,0 0.1,-0.1 0.1,-0.1 0,-0.1 0,-0.1 -0.1,-0.1 0,0 -0.1,0 -0.2,0 h -0.2 z m 1.5,0.5 h -0.1 l -0.5,-0.7 v 0.7 h -0.1 v -1 h 0.1 l 0.5,0.8 v -0.8 h 0.1 z m 0.8,-0.2 h -0.4 l -0.1,0.3 H 86 l 0.4,-1 h 0.1 l 0.4,1 h -0.1 z m -0.4,-0.1 h 0.3 l -0.2,-0.5 z m 0.9,-0.6 0.3,0.8 0.3,-0.8 H 88 v 1 h -0.1 v -0.4 -0.4 l -0.3,0.8 h -0.1 l -0.3,-0.8 v 0.4 0.4 H 87 v -1 z m 1.6,0.5 h -0.4 v 0.3 h 0.5 v 0.1 h -0.6 v -1 h 0.6 v 0.1 h -0.5 v 0.3 h 0.4 z"
   class="st14" />
		<path
   id="path121"
   d="m 83,221.4 h 0.6 v 0.1 h -0.8 v -1.3 H 83 Z m 1.7,-0.5 c 0,0.1 0,0.2 -0.1,0.3 0,0.1 -0.1,0.2 -0.2,0.2 -0.1,0.1 -0.2,0.1 -0.3,0.1 -0.1,0 -0.2,0 -0.3,-0.1 -0.1,-0.1 -0.1,-0.1 -0.2,-0.2 0,-0.1 -0.1,-0.2 -0.1,-0.3 v -0.1 c 0,-0.1 0,-0.2 0.1,-0.3 0,-0.1 0.1,-0.2 0.2,-0.2 0.1,-0.1 0.2,-0.1 0.3,-0.1 0.1,0 0.2,0 0.3,0.1 0.1,0.1 0.1,0.1 0.2,0.2 0.1,0.1 0.1,0.2 0.1,0.4 z m -0.1,-0.1 c 0,-0.2 0,-0.3 -0.1,-0.4 -0.1,-0.1 -0.2,-0.1 -0.3,-0.1 -0.1,0 -0.2,0 -0.3,0.1 -0.1,0.1 -0.1,0.2 -0.1,0.3 v 0.1 c 0,0.2 0,0.3 0.1,0.4 0.1,0.1 0.2,0.1 0.3,0.1 0.1,0 0.2,0 0.3,-0.1 0,0 0.1,-0.1 0.1,-0.4 z m 1.4,0.6 c 0,0.1 -0.1,0.1 -0.2,0.1 -0.1,0 -0.2,0 -0.3,0 -0.1,0 -0.2,0 -0.3,-0.1 -0.1,-0.1 -0.1,-0.1 -0.2,-0.2 0,-0.1 -0.1,-0.2 -0.1,-0.3 v -0.1 c 0,-0.2 0,-0.4 0.1,-0.5 0.1,-0.1 0.2,-0.2 0.4,-0.2 0.1,0 0.2,0 0.3,0.1 0.1,0.1 0.1,0.2 0.2,0.3 h -0.2 c 0,-0.2 -0.1,-0.3 -0.3,-0.3 -0.1,0 -0.2,0 -0.3,0.1 -0.1,0.1 -0.1,0.2 -0.1,0.4 v 0.1 c 0,0.1 0,0.3 0.1,0.4 0.1,0.1 0.2,0.1 0.3,0.1 0.1,0 0.1,0 0.2,0 0,0 0.1,0 0.1,-0.1 V 221 h -0.3 v -0.1 H 86 Z m 0.4,0.1 h -0.2 v -1.3 h 0.2 z m 1.4,0 h -0.2 l -0.7,-1 v 1 h -0.2 v -1.3 h 0.2 l 0.7,1 v -1 h 0.2 z"
   class="st7" />
		<path
   id="path123"
   d="m 81.9,215 v 0.4 h -0.1 v -1 h 0.4 c 0.1,0 0.2,0 0.2,0.1 0.1,0.1 0.1,0.1 0.1,0.2 0,0.1 0,0.2 -0.1,0.2 -0.1,0.1 -0.1,0.1 -0.3,0.1 z m 0,-0.1 h 0.2 c 0.1,0 0.1,0 0.2,0 0,0 0.1,-0.1 0.1,-0.1 0,-0.1 0,-0.1 -0.1,-0.1 0,0 -0.1,-0.1 -0.2,-0.1 h -0.2 z m 1.2,0.2 h -0.4 l -0.1,0.3 h -0.1 l 0.4,-1 H 83 l 0.4,1 H 83.3 Z M 82.7,215 H 83 l -0.2,-0.5 z m 1,0 c -0.1,0 -0.2,-0.1 -0.2,-0.1 -0.1,0 -0.1,-0.1 -0.1,-0.2 0,-0.1 0,-0.1 0.1,-0.2 0.1,-0.1 0.1,-0.1 0.2,-0.1 0.1,0 0.1,0 0.2,0 0.1,0 0.1,0.1 0.1,0.1 0,0 0,0.1 0,0.1 v 0 c 0,-0.1 0,-0.1 -0.1,-0.1 0,0 -0.1,-0.1 -0.2,-0.1 -0.1,0 -0.1,0 -0.1,0 0,0 -0.1,0.1 -0.1,0.1 0,0 0,0.1 0.1,0.1 0,0 0.1,0.1 0.2,0.1 0.1,0 0.1,0 0.2,0.1 0,0 0.1,0.1 0.1,0.1 0,0 0,0.1 0,0.1 0,0.1 0,0.1 -0.1,0.2 -0.1,0 -0.1,0.1 -0.2,0.1 -0.1,0 -0.1,0 -0.2,0 -0.1,0 -0.1,-0.1 -0.1,-0.1 0,0 0,-0.1 0,-0.2 h 0.1 c 0,0.1 0,0.1 0.1,0.1 0,0 0.1,0.1 0.2,0.1 0.1,0 0.1,0 0.2,0 0,0 0.1,-0.1 0.1,-0.1 0,0 0,-0.1 -0.1,-0.1 -0.2,0 -0.3,0 -0.4,0 z m 0.8,0 c -0.1,0 -0.2,-0.1 -0.2,-0.1 0,0 -0.1,-0.1 -0.1,-0.2 0,-0.1 0,-0.1 0.1,-0.2 0.1,-0.1 0.1,-0.1 0.2,-0.1 0.1,0 0.1,0 0.2,0 0.1,0 0.1,0.1 0.1,0.1 0,0 0,0.1 0,0.1 h -0.1 c 0,-0.1 0,-0.1 -0.1,-0.1 0,0 -0.1,-0.1 -0.2,-0.1 -0.1,0 -0.1,0 -0.1,0 0,0 -0.1,0.1 -0.1,0.1 0,0 0,0.1 0.1,0.1 0,0 0.1,0.1 0.2,0.1 0.1,0 0.1,0 0.2,0.1 0,0 0.1,0.1 0.1,0.1 0,0 0,0.1 0,0.1 0,0.1 0,0.1 -0.1,0.2 -0.1,0 -0.1,0.1 -0.2,0.1 -0.1,0 -0.1,0 -0.2,0 -0.1,0 -0.1,-0.1 -0.1,-0.1 0,0 0,-0.1 0,-0.2 h 0.1 c 0,0.1 0,0.1 0.1,0.1 0,0 0.1,0.1 0.2,0.1 0.1,0 0.1,0 0.2,0 0,0 0.1,-0.1 0.1,-0.1 0,0 0,-0.1 -0.1,-0.1 -0.1,0 -0.2,0 -0.3,0 z m 0.8,0.1 v 0.1 -0.1 l 0.2,-0.7 h 0.1 l 0.2,0.7 v 0.1 -0.1 l 0.2,-0.7 h 0.1 l -0.2,1 h -0.1 l -0.2,-0.7 v -0.1 0.1 l -0.2,0.7 h -0.1 l -0.2,-1 h 0.1 z m 1.7,-0.2 c 0,0.1 0,0.2 0,0.2 0,0.1 -0.1,0.1 -0.1,0.2 -0.1,0 -0.1,0.1 -0.2,0.1 -0.1,0 -0.1,0 -0.2,-0.1 -0.1,0 -0.1,-0.1 -0.1,-0.2 0,-0.1 0,-0.2 -0.1,-0.2 v -0.1 c 0,-0.1 0,-0.2 0,-0.2 0,-0.1 0.1,-0.1 0.1,-0.2 0.1,0 0.1,-0.1 0.2,-0.1 0.1,0 0.1,0 0.2,0.1 0.1,0 0.1,0.1 0.1,0.2 0.1,0.1 0.1,0.2 0.1,0.3 z m -0.1,0 c 0,-0.1 0,-0.2 -0.1,-0.3 0,-0.1 -0.1,-0.1 -0.2,-0.1 -0.1,0 -0.1,0 -0.2,0.1 0,0.1 -0.1,0.1 -0.1,0.3 v 0.1 c 0,0.1 0,0.2 0.1,0.3 0.1,0.1 0.1,0.1 0.2,0.1 0.1,0 0.1,0 0.2,-0.1 0.1,-0.2 0.1,-0.2 0.1,-0.4 z m 0.7,0.1 h -0.2 v 0.4 h -0.1 v -1 h 0.3 c 0.1,0 0.2,0 0.3,0.1 0.1,0 0.1,0.1 0.1,0.2 0,0.1 0,0.1 0,0.2 0,0 -0.1,0.1 -0.1,0.1 l 0.2,0.4 v 0 H 88 Z m -0.3,-0.1 h 0.2 c 0.1,0 0.1,0 0.2,0 0,0 0.1,-0.1 0.1,-0.1 0,-0.1 0,-0.1 -0.1,-0.1 0,0 -0.1,0 -0.2,0 h -0.2 z m 0.8,0.5 v -1 h 0.3 c 0.1,0 0.2,0 0.2,0.1 0,0.1 0.1,0.1 0.2,0.2 0,0.1 0.1,0.1 0.1,0.2 v 0.1 c 0,0.1 0,0.2 -0.1,0.2 0,0.1 -0.1,0.1 -0.2,0.2 -0.1,0 -0.1,0.1 -0.2,0.1 h -0.3 z m 0.1,-0.9 v 0.8 h 0.1 c 0.1,0 0.2,0 0.2,-0.1 0.1,-0.1 0.1,-0.1 0.1,-0.3 v -0.1 c 0,-0.1 0,-0.2 -0.1,-0.3 -0.1,-0.1 -0.1,-0.1 -0.2,-0.1 h -0.1 z"
   class="st14" />
		<path
   id="path125"
   d="m 81.1,189.3 9.6,-0.1 c 0,0 -0.5,-4.3 -4.8,-4.3 -4.4,0 -4.8,4.4 -4.8,4.4 z"
   class="st1" />
		<path
   id="path127"
   d="m 80.9,193.1 c 0.2,0 0.3,-0.1 0.3,-0.3 0,-0.2 -0.1,-0.3 -0.3,-0.3 -0.2,0 -0.3,0.1 -0.3,0.3 0,0.2 0.2,0.3 0.3,0.3 z"
   class="st7" />
		<path
   id="path129"
   d="m 90.8,193.1 c 0.2,0 0.3,-0.1 0.3,-0.3 0,-0.2 -0.1,-0.3 -0.3,-0.3 -0.2,0 -0.3,0.1 -0.3,0.3 0,0.2 0.2,0.3 0.3,0.3 z"
   class="st7" />
		<path
   id="path131"
   d="M 188.2,297.9 H 64.9 v -71 c 0,-3.2 2.6,-5.9 5.9,-5.9 h 111.6 c 3.2,0 5.9,2.6 5.9,5.9 z"
   class="st15" />
		<path
   id="path133"
   d="M 183.8,226.5 H 69.3 v 67.8 h 114.5 z"
   class="st8" />
		<path
   id="path135"
   d="M 188.2,294.2 H 64.9 v 3.7 h 123.3 z"
   class="st10" />
		<path
   id="path137"
   d="M 199.9,303.6 H 53.3 c -1.7,0 -3.1,-1.4 -3.1,-3.1 v -2.6 H 203 v 2.6 c 0,1.8 -1.4,3.1 -3.1,3.1 z"
   class="st15" />
		<path
   id="path139"
   d="m 53.3,303.6 h 146.6 c 1.3,0 2.4,-0.8 2.9,-1.9 H 50.5 c 0.4,1.2 1.5,1.9 2.8,1.9 z"
   class="st10" />
		<path
   id="path141"
   d="m 136.8,300.1 h -20.4 c -1.2,0 -2.1,-0.9 -2.1,-2.1 H 139 c -0.1,1.1 -1,2.1 -2.2,2.1 z"
   class="st10" />
		<path
   id="path143"
   d="M 110.6,275 H 84.7 c -1.7,0 -3,-1.4 -3,-3 v -21.5 c 0,-1.7 1.4,-3 3,-3 h 25.9 c 1.7,0 3,1.4 3,3 V 272 c 0,1.7 -1.3,3 -3,3 z"
   class="st16" />
		<path
   id="path145"
   d="m 165.1,254 h -42.9 c -1.8,0 -3.2,-1.5 -3.2,-3.2 v -0.1 c 0,-1.8 1.5,-3.2 3.2,-3.2 h 42.9 c 1.8,0 3.2,1.5 3.2,3.2 v 0.1 c 0,1.8 -1.4,3.2 -3.2,3.2 z"
   class="st16" />
		<path
   id="path147"
   d="m 165.1,264.6 h -42.9 c -1.8,0 -3.2,-1.5 -3.2,-3.2 v -0.1 c 0,-1.8 1.5,-3.2 3.2,-3.2 h 42.9 c 1.8,0 3.2,1.5 3.2,3.2 v 0.1 c 0,1.7 -1.4,3.2 -3.2,3.2 z"
   class="st16" />
		<path
   id="path149"
   d="m 165.1,275.1 h -42.9 c -1.8,0 -3.2,-1.5 -3.2,-3.2 v -0.1 c 0,-1.8 1.5,-3.2 3.2,-3.2 h 42.9 c 1.8,0 3.2,1.5 3.2,3.2 v 0.1 c 0,1.8 -1.4,3.2 -3.2,3.2 z"
   class="st16" />
		<path
   id="path151"
   d="M 165.1,285.7 H 84 c -1.8,0 -3.3,-1.5 -3.3,-3.3 0,-1.8 1.5,-3.3 3.3,-3.3 h 81.1 c 1.8,0 3.3,1.5 3.3,3.3 -0.1,1.8 -1.5,3.3 -3.3,3.3 z"
   class="st16" />
		<path
   id="path153"
   d="m 83.5,237.4 c 0.7,0 1.4,0.6 1.4,1.4 0,0.9 -0.6,1.5 -1.4,1.5 -0.8,0 -1.5,-0.6 -1.5,-1.5 0,-0.6 0.6,-1.4 1.5,-1.4 z m -0.1,0.2 c -0.5,0 -0.9,0.4 -0.9,1.2 0,0.8 0.4,1.4 1.1,1.4 0.5,0 0.9,-0.4 0.9,-1.2 -0.1,-0.9 -0.5,-1.4 -1.1,-1.4 z"
   class="st17" />
		<path
   id="path155"
   d="m 87.3,240.3 v -0.1 c 0.3,0 0.3,0 0.3,-0.3 v -0.7 c 0,-0.3 -0.1,-0.5 -0.4,-0.5 -0.2,0 -0.3,0.1 -0.5,0.2 v 1 c 0,0.3 0,0.3 0.3,0.3 v 0.1 h -0.9 v -0.1 c 0.3,0 0.3,0 0.3,-0.3 V 239 c 0,-0.3 0,-0.3 -0.3,-0.3 v -0.1 c 0.2,0 0.4,-0.1 0.6,-0.2 0,0.1 0,0.3 0,0.3 0.1,0 0.2,-0.1 0.3,-0.2 0.1,-0.1 0.2,-0.1 0.3,-0.1 0.3,0 0.6,0.3 0.6,0.7 v 0.8 c 0,0.3 0,0.3 0.3,0.3 v 0.1 z"
   class="st17" />
		<path
   id="path157"
   d="m 89.3,240.3 v -0.1 c 0.3,0 0.3,0 0.3,-0.3 v -2 c 0,-0.3 0,-0.3 -0.3,-0.3 v -0.1 c 0.2,0 0.5,-0.1 0.6,-0.1 0,0.2 0,0.4 0,0.6 v 2 c 0,0.3 0,0.3 0.3,0.3 v 0.1 h -0.9 z"
   class="st17" />
		<path
   id="path159"
   d="m 91.3,240.3 v -0.1 c 0.3,0 0.3,0 0.3,-0.3 V 239 c 0,-0.3 0,-0.3 -0.3,-0.3 v -0.1 c 0.2,0 0.4,-0.1 0.6,-0.2 0,0.2 0,0.3 0,0.6 v 0.9 c 0,0.3 0,0.3 0.3,0.3 v 0.1 z m 0.5,-2.4 c -0.1,0 -0.2,-0.1 -0.2,-0.2 0,-0.1 0.1,-0.3 0.2,-0.3 0.1,0 0.2,0.1 0.2,0.3 0,0.1 -0.1,0.2 -0.2,0.2 z"
   class="st17" />
		<path
   id="path161"
   d="m 94.6,240.3 v -0.1 c 0.3,0 0.3,0 0.3,-0.3 v -0.7 c 0,-0.3 -0.1,-0.5 -0.4,-0.5 -0.2,0 -0.3,0.1 -0.5,0.2 v 1 c 0,0.3 0,0.3 0.3,0.3 v 0.1 h -0.9 v -0.1 c 0.3,0 0.3,0 0.3,-0.3 V 239 c 0,-0.3 0,-0.3 -0.3,-0.3 v -0.1 c 0.2,0 0.4,-0.1 0.6,-0.2 0,0.1 0,0.3 0,0.3 0.1,0 0.2,-0.1 0.3,-0.2 0.1,-0.1 0.2,-0.1 0.3,-0.1 0.3,0 0.6,0.3 0.6,0.7 v 0.8 c 0,0.3 0,0.3 0.3,0.3 v 0.1 z"
   class="st17" />
		<path
   id="path163"
   d="m 98.2,239.9 c -0.3,0.3 -0.6,0.4 -0.7,0.4 -0.5,0 -0.9,-0.4 -0.9,-0.9 0,-0.3 0.1,-0.6 0.3,-0.8 0.2,-0.2 0.4,-0.3 0.6,-0.3 0.4,0 0.6,0.3 0.6,0.7 0,0.1 0,0.1 -0.1,0.1 -0.1,0 -0.6,0 -1.2,0.1 0,0.6 0.3,0.8 0.6,0.8 0.4,0.1 0.5,0 0.8,-0.1 z m -0.7,-1.4 c -0.2,0 -0.4,0.2 -0.5,0.6 0.3,0 0.5,0 0.7,0 0.1,0 0.1,0 0.1,-0.1 0,-0.3 -0.1,-0.5 -0.3,-0.5 z"
   class="st17" />
		<path
   id="path165"
   d="m 84.6,244.3 c 0,0 -0.1,0 -0.2,0 -0.3,0 -0.5,-0.1 -0.7,-0.4 -0.2,-0.2 -0.3,-0.5 -0.5,-0.7 -0.1,-0.1 -0.1,-0.2 -0.3,-0.2 h -0.2 v 0.7 c 0,0.4 0,0.4 0.4,0.4 v 0.1 H 82 v -0.1 c 0.3,0 0.4,0 0.4,-0.4 V 242 c 0,-0.4 0,-0.4 -0.4,-0.4 v -0.1 h 1.1 c 0.3,0 0.5,0 0.7,0.1 0.2,0.1 0.3,0.3 0.3,0.6 0,0.4 -0.3,0.6 -0.6,0.7 0.1,0.1 0.3,0.4 0.4,0.6 0.2,0.2 0.3,0.3 0.3,0.4 0.1,0.1 0.2,0.2 0.3,0.2 z M 83,242.9 c 0.2,0 0.4,0 0.5,-0.1 0.2,-0.1 0.3,-0.3 0.3,-0.5 0,-0.5 -0.3,-0.6 -0.6,-0.6 -0.1,0 -0.2,0 -0.2,0 0,0 0,0.1 0,0.2 v 1.1 0 z"
   class="st17" />
		<path
   id="path167"
   d="m 87.1,243.9 c -0.3,0.3 -0.6,0.4 -0.7,0.4 -0.5,0 -0.9,-0.4 -0.9,-0.9 0,-0.3 0.1,-0.6 0.3,-0.8 0.2,-0.2 0.4,-0.3 0.6,-0.3 0.4,0 0.6,0.3 0.6,0.7 0,0.1 0,0.1 -0.1,0.1 -0.1,0 -0.6,0 -1.2,0.1 0,0.6 0.3,0.8 0.6,0.8 0.4,0 0.5,0 0.8,-0.1 z m -0.8,-1.4 c -0.2,0 -0.4,0.2 -0.5,0.6 0.3,0 0.5,0 0.7,0 0.1,0 0.1,0 0.1,-0.1 0.1,-0.3 0,-0.5 -0.3,-0.5 z"
   class="st17" />
		<path
   id="path169"
   d="m 88.8,243.7 c -0.1,0.1 -0.1,0.2 -0.1,0.2 0,0.1 0.1,0.2 0.3,0.2 0.2,0 0.3,0 0.5,0 0.3,0 0.6,0.1 0.6,0.5 0,0.5 -0.5,0.9 -1.1,0.9 -0.5,0 -0.8,-0.3 -0.8,-0.6 0,-0.1 0,-0.2 0.1,-0.3 0.1,-0.1 0.3,-0.2 0.3,-0.3 -0.2,0 -0.3,-0.1 -0.3,-0.2 0,-0.1 0,-0.1 0,-0.2 0.2,0 0.3,-0.2 0.4,-0.3 z m 0.2,0 c -0.4,0 -0.7,-0.3 -0.7,-0.6 0,-0.5 0.4,-0.7 0.8,-0.7 0.1,0 0.3,0 0.4,0.1 0.2,0 0.5,0 0.6,-0.1 v 0 c 0,0.1 -0.1,0.2 -0.2,0.2 -0.1,0 -0.2,0 -0.3,0 0.1,0.1 0.1,0.3 0.1,0.4 0.1,0.5 -0.3,0.7 -0.7,0.7 z m 0.1,0.6 c -0.2,0 -0.3,0 -0.4,0.1 -0.1,0.1 -0.2,0.2 -0.2,0.3 0,0.3 0.3,0.4 0.6,0.4 0.4,0 0.6,-0.2 0.6,-0.5 0,-0.1 -0.1,-0.3 -0.2,-0.3 0,0 -0.2,0 -0.4,0 z M 89,242.5 c -0.2,0 -0.4,0.2 -0.4,0.5 0,0.3 0.2,0.6 0.4,0.6 0.2,0 0.3,-0.2 0.3,-0.5 0.1,-0.4 0,-0.6 -0.3,-0.6 z"
   class="st17" />
		<path
   id="path171"
   d="m 91.1,244.3 v -0.1 c 0.3,0 0.3,0 0.3,-0.3 V 243 c 0,-0.3 0,-0.3 -0.3,-0.3 v -0.1 c 0.2,0 0.4,-0.1 0.6,-0.2 0,0.2 0,0.3 0,0.6 v 0.9 c 0,0.3 0,0.3 0.3,0.3 v 0.1 z m 0.4,-2.4 c -0.1,0 -0.2,-0.1 -0.2,-0.2 0,-0.1 0.1,-0.3 0.2,-0.3 0.1,0 0.2,0.1 0.2,0.3 0.1,0.1 -0.1,0.2 -0.2,0.2 z"
   class="st17" />
		<path
   id="path173"
   d="m 94.3,242.9 c -0.1,-0.3 -0.2,-0.4 -0.5,-0.4 -0.2,0 -0.3,0.1 -0.3,0.3 0,0.2 0.1,0.3 0.4,0.4 0.4,0.2 0.6,0.3 0.6,0.6 0,0.4 -0.3,0.6 -0.7,0.6 -0.2,0 -0.4,-0.1 -0.5,-0.1 0,-0.1 0,-0.3 -0.1,-0.5 h 0.1 c 0.1,0.3 0.2,0.5 0.5,0.5 0.2,0 0.3,-0.1 0.3,-0.3 0,-0.2 -0.1,-0.3 -0.3,-0.4 -0.3,-0.1 -0.6,-0.3 -0.6,-0.6 0,-0.3 0.3,-0.6 0.7,-0.6 0.2,0 0.3,0 0.4,0 0,0.1 0,0.4 0.1,0.5 z"
   class="st17" />
		<path
   id="path175"
   d="m 96.4,244.3 c -0.1,0 -0.1,0 -0.2,0 -0.3,0 -0.4,-0.2 -0.4,-0.5 v -1.2 h -0.3 v 0 l 0.1,-0.1 h 0.2 v -0.3 c 0.1,-0.1 0.2,-0.2 0.3,-0.3 h 0.1 c 0,0.2 0,0.4 0,0.6 h 0.5 c 0,0 0,0.1 0,0.2 h -0.6 v 1.1 c 0,0.3 0.1,0.4 0.3,0.4 0.1,0 0.2,0 0.3,-0.1 v 0.1 z"
   class="st17" />
		<path
   id="path177"
   d="m 98.7,244.3 h -1 v -0.1 c 0.3,0 0.3,0 0.3,-0.3 V 243 c 0,-0.3 0,-0.3 -0.3,-0.3 v -0.1 c 0.2,0 0.4,-0.1 0.6,-0.2 0,0.1 0,0.3 0,0.5 0.2,-0.2 0.3,-0.5 0.6,-0.5 0.2,0 0.3,0.1 0.3,0.2 0,0.1 -0.1,0.2 -0.1,0.3 0,0 -0.1,0 -0.1,0 -0.1,-0.1 -0.1,-0.1 -0.2,-0.1 -0.1,0 -0.3,0.1 -0.3,0.3 v 0.8 c 0,0.3 0,0.3 0.3,0.3 v 0.1 z"
   class="st17" />
		<path
   id="path179"
   d="m 101.6,244.3 c -0.1,0 -0.2,0 -0.2,-0.1 0,0 -0.1,-0.1 -0.1,-0.2 -0.2,0.1 -0.4,0.3 -0.5,0.3 -0.3,0 -0.5,-0.3 -0.5,-0.5 0,-0.2 0.1,-0.3 0.3,-0.4 0.3,-0.1 0.6,-0.2 0.7,-0.3 V 243 c 0,-0.3 -0.2,-0.5 -0.4,-0.5 -0.1,0 -0.2,0 -0.2,0.1 0,0 -0.1,0.2 -0.1,0.3 0,0.1 0,0.1 -0.1,0.1 -0.1,0 -0.2,-0.1 -0.2,-0.2 0,0 0,-0.1 0.1,-0.2 0.1,-0.1 0.4,-0.3 0.6,-0.3 0.1,0 0.3,0 0.3,0.1 0.2,0.1 0.2,0.3 0.2,0.5 v 0.8 c 0,0.2 0.1,0.3 0.2,0.3 0,0 0.1,0 0.2,0 v 0.1 z m -0.3,-1.1 c -0.1,0 -0.3,0.1 -0.4,0.2 -0.2,0.1 -0.3,0.2 -0.3,0.3 0,0.2 0.2,0.3 0.3,0.3 0.1,0 0.3,-0.1 0.3,-0.2 0.1,-0.1 0.1,-0.4 0.1,-0.6 z"
   class="st17" />
		<path
   id="path181"
   d="m 103.9,244.3 c -0.1,0 -0.1,0 -0.2,0 -0.3,0 -0.4,-0.2 -0.4,-0.5 v -1.2 H 103 v 0 l 0.1,-0.1 h 0.2 v -0.3 c 0.1,-0.1 0.2,-0.2 0.3,-0.3 h 0.1 c 0,0.2 0,0.4 0,0.6 h 0.5 c 0,0 0,0.1 0,0.2 h -0.5 v 1.1 c 0,0.3 0.1,0.4 0.3,0.4 0.1,0 0.2,0 0.3,-0.1 v 0.1 z"
   class="st17" />
		<path
   id="path183"
   d="m 105.2,244.3 v -0.1 c 0.3,0 0.3,0 0.3,-0.3 V 243 c 0,-0.3 0,-0.3 -0.3,-0.3 v -0.1 c 0.2,0 0.4,-0.1 0.6,-0.2 0,0.2 0,0.3 0,0.6 v 0.9 c 0,0.3 0,0.3 0.3,0.3 v 0.1 z m 0.4,-2.4 c -0.1,0 -0.2,-0.1 -0.2,-0.2 0,-0.1 0.1,-0.3 0.2,-0.3 0.1,0 0.2,0.1 0.2,0.3 0.1,0.1 0,0.2 -0.2,0.2 z"
   class="st17" />
		<path
   id="path185"
   d="m 108.2,242.3 c 0.6,0 0.9,0.4 0.9,1 0,0.7 -0.5,1 -0.9,1 -0.6,0 -0.9,-0.5 -0.9,-1 -0.1,-0.6 0.5,-1 0.9,-1 z m 0,0.2 c -0.3,0 -0.5,0.3 -0.5,0.8 0,0.6 0.3,0.9 0.6,0.9 0.3,0 0.5,-0.2 0.5,-0.8 -0.1,-0.5 -0.3,-0.9 -0.6,-0.9 z"
   class="st17" />
		<path
   id="path187"
   d="m 111.5,244.3 v -0.1 c 0.3,0 0.3,0 0.3,-0.3 v -0.7 c 0,-0.3 -0.1,-0.5 -0.4,-0.5 -0.2,0 -0.3,0.1 -0.5,0.2 v 1 c 0,0.3 0,0.3 0.3,0.3 v 0.1 h -0.9 v -0.1 c 0.3,0 0.3,0 0.3,-0.3 V 243 c 0,-0.3 0,-0.3 -0.3,-0.3 v -0.1 c 0.2,0 0.4,-0.1 0.6,-0.2 0,0.1 0,0.3 0,0.3 0.1,0 0.2,-0.1 0.3,-0.2 0.1,-0.1 0.2,-0.1 0.3,-0.1 0.3,0 0.6,0.3 0.6,0.7 v 0.8 c 0,0.3 0,0.3 0.3,0.3 v 0.1 z"
   class="st17" />
		<g
   id="g191"
   class="st3">
			<path
   id="path189"
   d="m 114.5,249.9 -7.1,-1.9 1.9,7.1 1.8,-1.7 2.7,2.7 1.7,-1.6 -2.7,-2.7 z"
   class="st4" />
		</g>
		<path
   id="path193"
   d="m 112.4,247.8 -7.1,-1.9 1.9,7.1 1.7,-1.7 2.7,2.7 1.7,-1.6 -2.7,-2.7 z"
   class="st18" />
		<g
   id="g241"
   class="st3">
			<path
   id="path195"
   d="m 207.9,199.6 h -84.6 v 84.6 h 84.6 z"
   class="st4" />
			<path
   id="path197"
   d="m 207.9,199.3 h -84.6 v 7.3 h 84.6 z"
   class="st4" />
			<path
   id="path199"
   d="m 200.7,201.1 4.3,4.4"
   class="st5" />
			<path
   id="path201"
   d="m 205,201.1 -4.4,4.3"
   class="st5" />
			<path
   id="path203"
   d="m 165.6,244.1 c 7.4,0 13.3,-6 13.3,-13.3 0,-7.4 -6,-13.3 -13.3,-13.3 -7.3,0 -13.3,6 -13.3,13.3 0,7.3 6,13.3 13.3,13.3 z"
   class="st4" />
			<path
   id="path205"
   d="m 168,232.5 h -4.8 v 4.8 h 4.8 z"
   class="st4" />
			<path
   id="path207"
   d="m 165.5,235.7 h -3.7 v 2.3 h 3.7 z"
   class="st4" />
			<path
   id="path209"
   d="m 170.1,235.7 h -3.7 v 2.3 h 3.7 z"
   class="st4" />
			<path
   id="path211"
   d="m 174.4,245.4 h -17.1 v -4.1 c 0,-2.4 1.9,-4.3 4.3,-4.3 h 8.4 c 2.4,0 4.3,1.9 4.3,4.3 z"
   class="st4" />
			<path
   id="path213"
   d="m 159.3,229.1 c 1.6,0 2.9,-1.3 2.9,-2.9 0,-1.6 -1.3,-2.9 -2.9,-2.9 -1.6,0 -2.9,1.3 -2.9,2.9 0,1.6 1.3,2.9 2.9,2.9 z"
   class="st4" />
			<path
   id="path215"
   d="m 171.9,229.1 c 1.6,0 2.9,-1.3 2.9,-2.9 0,-1.6 -1.3,-2.9 -2.9,-2.9 -1.6,0 -2.9,1.3 -2.9,2.9 0,1.6 1.3,2.9 2.9,2.9 z"
   class="st4" />
			<path
   id="path217"
   d="m 165.8,234.9 v 0 c -3.8,0 -6.9,-3 -6.9,-6.8 v -4.6 c 0,-3.8 3,-6.8 6.8,-6.8 v 0 c 3.8,0 6.8,3 6.8,6.8 v 4.6 c 0.2,3.7 -2.9,6.8 -6.7,6.8 z"
   class="st4" />
			<path
   id="path219"
   d="m 161,219.8 c 0.6,0.3 1.2,0.5 1.9,0.7 1.3,0.3 2.6,0.3 3.9,0.2 1.2,-0.1 2.5,-0.3 3.7,-0.8 1.2,-0.5 2.3,-1.3 2.9,-2.4 0.6,-1.1 0.6,-2.6 0,-3.6 -0.1,-0.1 -0.2,-0.3 -0.3,-0.3 -0.2,-0.1 -0.4,-0.1 -0.6,-0.1 -0.4,0 -0.7,0.1 -1.1,0.3 -0.3,0.2 -0.6,0.4 -0.9,0.6 -0.3,0.2 -0.7,0.3 -1,0.1 -0.2,-0.1 -0.4,-0.3 -0.6,-0.5 -0.4,-0.4 -1.1,-0.4 -1.6,-0.4 -0.2,0 -0.4,0 -0.6,0.1 -0.3,0.2 -0.5,0.7 -0.8,1 -0.3,0.3 -0.7,0.4 -1.1,0.3 -0.4,-0.1 -0.7,-0.4 -1.1,-0.4 -0.5,0 -0.9,0.2 -1.2,0.6 -0.3,0.3 -0.5,0.8 -0.7,1.2 -0.5,0.7 -1.1,1.3 -1.6,2 -0.2,0.3 -0.1,1.8 -0.1,1.8 0,0 0.6,-0.6 0.9,-0.4 z"
   class="st4" />
			<path
   id="path221"
   d="m 162.5,226.9 c 0,0.2 -0.2,0.4 -0.4,0.4 -0.2,0 -0.4,-0.2 -0.4,-0.4 0,-0.2 0.2,-0.4 0.4,-0.4 0.3,0 0.4,0.2 0.4,0.4 z"
   class="st4" />
			<path
   id="path223"
   d="m 169.2,227.3 c 0.2,0 0.4,-0.2 0.4,-0.4 0,-0.2 -0.2,-0.4 -0.4,-0.4 -0.2,0 -0.4,0.2 -0.4,0.4 0.1,0.2 0.2,0.4 0.4,0.4 z"
   class="st4" />
			<path
   id="path225"
   d="m 164,229.1 h 3.7 c 0,0 -1.9,2.5 -3.7,0 z"
   class="st4" />
			<path
   id="path227"
   d="m 190.9,256.1 h -50.6 c -1.7,0 -3.2,-1.4 -3.2,-3.2 0,-1.8 1.4,-3.2 3.2,-3.2 h 50.6 c 1.8,0 3.2,1.4 3.2,3.2 0,1.7 -1.5,3.2 -3.2,3.2 z"
   class="st6" />
			<path
   id="path229"
   d="m 190.9,265.6 h -50.6 c -1.7,0 -3.2,-1.4 -3.2,-3.2 0,-1.7 1.4,-3.2 3.2,-3.2 h 50.6 c 1.8,0 3.2,1.4 3.2,3.2 0,1.8 -1.5,3.2 -3.2,3.2 z"
   class="st6" />
			<path
   id="path231"
   d="m 177.3,277.2 h -19 c -1.7,0 -3.2,-1.4 -3.2,-3.2 0,-1.7 1.4,-3.2 3.2,-3.2 h 19 c 1.8,0 3.2,1.4 3.2,3.2 -0.1,1.8 -1.5,3.2 -3.2,3.2 z"
   class="st4" />
			<path
   id="path233"
   d="m 175.1,275.1 h -19 c -1.8,0 -3.2,-1.4 -3.2,-3.2 0,-1.8 1.4,-3.2 3.2,-3.2 h 19 c 1.8,0 3.2,1.4 3.2,3.2 0,1.7 -1.4,3.2 -3.2,3.2 z"
   class="st4" />
			<path
   id="path235"
   d="m 160.7,251.9 v 1 c 0,0.1 0,0.3 -0.1,0.3 -0.1,0.1 -0.2,0.1 -0.4,0.1 h -0.1 c -0.2,0 -0.3,0 -0.4,-0.1 -0.1,-0.1 -0.1,-0.2 -0.1,-0.4 v -1 h 0.2 v 1 c 0,0.1 0,0.2 0.1,0.2 0.1,0.1 0.1,0.1 0.3,0.1 0.1,0 0.2,0 0.3,-0.1 0.1,-0.1 0.1,-0.1 0.1,-0.2 v -1 h 0.1 z m 0.8,0.8 c -0.2,0 -0.3,-0.1 -0.4,-0.2 -0.1,-0.1 -0.1,-0.2 -0.1,-0.3 0,-0.1 0,-0.2 0.1,-0.3 0.1,-0.1 0.2,-0.1 0.4,-0.1 0.1,0 0.2,0 0.3,0.1 0.1,0 0.1,0.1 0.2,0.2 0,0.1 0.1,0.1 0.1,0.2 h -0.2 c 0,-0.1 0,-0.2 -0.1,-0.2 -0.1,-0.1 -0.1,-0.1 -0.2,-0.1 -0.1,0 -0.2,0 -0.2,0.1 -0.1,0 -0.1,0.1 -0.1,0.2 0,0.1 0,0.1 0.1,0.2 0.1,0 0.1,0.1 0.3,0.1 0.1,0 0.2,0.1 0.3,0.1 0.1,0 0.1,0.1 0.2,0.1 0,0.1 0.1,0.1 0.1,0.2 0,0.1 0,0.2 -0.1,0.3 -0.1,0.1 -0.2,0.1 -0.4,0.1 -0.1,0 -0.2,0 -0.3,-0.1 -0.1,0 -0.2,-0.1 -0.2,-0.2 0,-0.1 -0.1,-0.1 -0.1,-0.2 h 0.2 c 0,0.1 0,0.2 0.1,0.2 0.1,0.1 0.2,0.1 0.3,0.1 0.1,0 0.2,0 0.2,-0.1 0.1,0 0.1,-0.1 0.1,-0.2 0,-0.1 0,-0.1 -0.1,-0.2 -0.3,0.1 -0.4,0 -0.5,0 z m 1.6,0 h -0.6 v 0.5 h 0.7 v 0.2 h -0.9 v -1.5 h 0.9 v 0.2 h -0.7 v 0.5 h 0.6 z m 0.9,0 h -0.3 v 0.6 h -0.2 v -1.5 h 0.5 c 0.2,0 0.3,0 0.4,0.1 0.1,0.1 0.1,0.2 0.1,0.3 0,0.1 0,0.2 -0.1,0.2 0,0.1 -0.1,0.1 -0.2,0.2 l 0.3,0.6 v 0 h -0.2 z m -0.3,-0.1 h 0.3 c 0.1,0 0.2,0 0.2,-0.1 0.1,-0.1 0.1,-0.1 0.1,-0.2 0,-0.1 0,-0.2 -0.1,-0.2 -0.1,0 -0.1,-0.1 -0.2,-0.1 h -0.3 z m 2.2,0.7 h -0.2 l -0.7,-1.1 v 1.1 h -0.2 v -1.5 h 0.2 l 0.7,1.1 v -1.1 h 0.2 z M 167,253 h -0.6 l -0.1,0.4 h -0.2 l 0.6,-1.5 h 0.2 l 0.6,1.5 h -0.2 z m -0.5,-0.2 h 0.5 l -0.3,-0.7 z m 1.3,-0.9 0.5,1.2 0.5,-1.2 h 0.3 v 1.5 h -0.2 v -0.6 -0.6 l -0.5,1.2 h -0.1 l -0.5,-1.2 v 0.6 0.6 h -0.2 v -1.5 z m 2.4,0.8 h -0.6 v 0.5 h 0.7 v 0.2 h -0.9 v -1.5 h 0.9 v 0.2 h -0.7 v 0.5 h 0.6 z"
   class="st4" />
			<path
   id="path237"
   d="m 161.4,271.8 h 0.9 v 0.2 h -1.2 v -2 h 0.3 z m 2.7,-0.8 c 0,0.2 0,0.4 -0.1,0.5 -0.1,0.1 -0.2,0.3 -0.3,0.3 -0.1,0.1 -0.3,0.1 -0.4,0.1 -0.2,0 -0.3,0 -0.4,-0.1 -0.1,-0.1 -0.2,-0.2 -0.3,-0.3 -0.1,-0.1 -0.1,-0.3 -0.1,-0.5 v -0.1 c 0,-0.2 0,-0.4 0.1,-0.5 0.1,-0.1 0.2,-0.3 0.3,-0.3 0.1,-0.1 0.3,-0.1 0.4,-0.1 0.2,0 0.3,0 0.4,0.1 0.1,0.1 0.2,0.2 0.3,0.3 0.1,0.1 0.1,0.3 0.1,0.5 z m -0.2,-0.1 c 0,-0.2 0,-0.4 -0.1,-0.5 -0.1,-0.1 -0.2,-0.2 -0.4,-0.2 -0.2,0 -0.3,0.1 -0.4,0.2 -0.1,0.1 -0.1,0.3 -0.1,0.5 v 0.1 c 0,0.2 0,0.4 0.1,0.5 0.1,0.1 0.2,0.2 0.4,0.2 0.2,0 0.3,-0.1 0.4,-0.2 0.1,-0.1 0.1,-0.3 0.1,-0.5 z m 2.1,0.8 c -0.1,0.1 -0.2,0.2 -0.3,0.2 -0.1,0 -0.3,0.1 -0.4,0.1 -0.2,0 -0.3,0 -0.4,-0.1 -0.1,-0.1 -0.2,-0.2 -0.3,-0.3 -0.1,-0.1 -0.1,-0.3 -0.1,-0.5 v -0.2 c 0,-0.3 0.1,-0.5 0.2,-0.7 0.1,-0.2 0.3,-0.2 0.6,-0.2 0.2,0 0.4,0.1 0.5,0.2 0.1,0.1 0.2,0.3 0.2,0.5 h -0.3 c 0,-0.3 -0.2,-0.4 -0.5,-0.4 -0.2,0 -0.3,0.1 -0.4,0.2 -0.1,0.1 -0.1,0.3 -0.1,0.5 v 0.2 c 0,0.2 0.1,0.4 0.2,0.5 0.1,0.1 0.2,0.2 0.4,0.2 0.1,0 0.2,0 0.3,0 0.1,0 0.1,-0.1 0.2,-0.1 v -0.4 h -0.5 V 271 h 0.7 z m 0.7,0.3 h -0.3 v -2 h 0.3 z m 2,0 h -0.3 l -1,-1.5 v 1.5 h -0.3 v -2 h 0.3 l 1,1.5 V 270 h 0.3 z"
   class="st4" />
			<path
   id="path239"
   d="m 159.8,262.3 v 0.6 h -0.2 v -1.5 h 0.5 c 0.2,0 0.3,0 0.4,0.1 0.1,0.1 0.1,0.2 0.1,0.3 0,0.1 0,0.3 -0.1,0.3 -0.1,0.1 -0.2,0.1 -0.4,0.1 h -0.3 z m 0,-0.2 h 0.3 c 0.1,0 0.2,0 0.2,-0.1 0.1,0 0.1,-0.1 0.1,-0.2 0,-0.1 0,-0.2 -0.1,-0.2 -0.1,-0.1 -0.1,-0.1 -0.2,-0.1 h -0.4 v 0.6 z m 1.8,0.4 H 161 l -0.1,0.4 h -0.2 l 0.6,-1.5 h 0.2 l 0.6,1.5 h -0.2 z m -0.5,-0.2 h 0.5 l -0.3,-0.7 z m 1.5,-0.1 c -0.2,0 -0.3,-0.1 -0.4,-0.2 -0.1,-0.1 -0.1,-0.2 -0.1,-0.3 0,-0.1 0,-0.2 0.1,-0.3 0.1,-0.1 0.2,-0.1 0.4,-0.1 0.1,0 0.2,0 0.3,0.1 0.1,0 0.1,0.1 0.2,0.2 0,0.1 0.1,0.1 0.1,0.2 H 163 c 0,-0.1 0,-0.2 -0.1,-0.2 -0.1,-0.1 -0.1,-0.1 -0.2,-0.1 -0.1,0 -0.2,0 -0.2,0.1 -0.1,0 -0.1,0.1 -0.1,0.2 0,0.1 0,0.1 0.1,0.2 0.1,0 0.1,0.1 0.3,0.1 0.1,0 0.2,0.1 0.3,0.1 0.1,0 0.1,0.1 0.2,0.1 0,0.1 0.1,0.1 0.1,0.2 0,0.1 0,0.2 -0.1,0.3 -0.1,0.1 -0.2,0.1 -0.4,0.1 -0.1,0 -0.2,0 -0.3,-0.1 -0.1,0 -0.2,-0.1 -0.2,-0.2 0,-0.1 -0.1,-0.1 -0.1,-0.2 h 0.2 c 0,0.1 0,0.2 0.1,0.2 0.1,0.1 0.2,0.1 0.3,0.1 0.1,0 0.2,0 0.2,-0.1 0.1,0 0.1,-0.1 0.1,-0.2 0,-0.1 0,-0.1 -0.1,-0.2 -0.3,0.1 -0.4,0 -0.5,0 z m 1.2,0 c -0.2,0 -0.3,-0.1 -0.4,-0.2 -0.1,-0.1 -0.1,-0.2 -0.1,-0.3 0,-0.1 0,-0.2 0.1,-0.3 0.1,-0.1 0.2,-0.1 0.4,-0.1 0.1,0 0.2,0 0.3,0.1 0.1,0 0.1,0.1 0.2,0.2 0,0.1 0.1,0.1 0.1,0.2 h -0.2 c 0,-0.1 0,-0.2 -0.1,-0.2 -0.1,-0.1 -0.1,-0.1 -0.2,-0.1 -0.1,0 -0.2,0 -0.2,0.1 -0.1,0 -0.1,0.1 -0.1,0.2 0,0.1 0,0.1 0.1,0.2 0.1,0 0.1,0.1 0.3,0.1 0.1,0 0.2,0.1 0.3,0.1 0.1,0 0.1,0.1 0.2,0.1 0,0.1 0.1,0.1 0.1,0.2 0,0.1 0,0.2 -0.1,0.3 -0.1,0.1 -0.2,0.1 -0.4,0.1 -0.1,0 -0.2,0 -0.3,-0.1 -0.1,0 -0.2,-0.1 -0.2,-0.2 0,-0.1 -0.1,-0.1 -0.1,-0.2 h 0.2 c 0,0.1 0,0.2 0.1,0.2 0.1,0.1 0.2,0.1 0.3,0.1 0.1,0 0.2,0 0.2,-0.1 0.1,0 0.1,-0.1 0.1,-0.2 0,-0.1 0,-0.1 -0.1,-0.2 -0.3,0.1 -0.4,0 -0.5,0 z m 1.1,0.2 v 0.2 -0.2 l 0.4,-1 h 0.2 l 0.3,1 v 0.2 -0.2 l 0.2,-1 h 0.2 l -0.4,1.5 h -0.2 l -0.3,-1.1 v -0.1 0.1 l -0.3,1.1 h -0.2 l -0.4,-1.5 h 0.2 z m 2.7,-0.3 c 0,0.1 0,0.3 -0.1,0.4 0,0.1 -0.1,0.2 -0.2,0.2 -0.1,0.1 -0.2,0.1 -0.3,0.1 -0.1,0 -0.2,0 -0.3,-0.1 -0.1,-0.1 -0.2,-0.1 -0.2,-0.2 0,-0.1 -0.1,-0.2 -0.1,-0.4 V 262 c 0,-0.1 0,-0.3 0.1,-0.4 0,-0.1 0.1,-0.2 0.2,-0.2 0.1,-0.1 0.2,-0.1 0.3,-0.1 0.1,0 0.2,0 0.3,0.1 0.1,0.1 0.2,0.1 0.2,0.2 0.1,0.2 0.1,0.3 0.1,0.5 z m -0.2,0 c 0,-0.2 0,-0.3 -0.1,-0.4 -0.1,-0.1 -0.2,-0.1 -0.3,-0.1 -0.1,0 -0.2,0 -0.3,0.1 -0.1,0.1 -0.1,0.2 -0.1,0.4 v 0.1 c 0,0.2 0,0.3 0.1,0.4 0.1,0.1 0.2,0.1 0.3,0.1 0.1,0 0.2,0 0.3,-0.1 0.1,-0.1 0.1,-0.2 0.1,-0.4 z m 1,0.1 h -0.3 v 0.6 h -0.2 v -1.5 h 0.5 c 0.2,0 0.3,0 0.4,0.1 0.1,0.1 0.1,0.2 0.1,0.3 0,0.1 0,0.2 -0.1,0.2 0,0.1 -0.1,0.1 -0.2,0.2 l 0.3,0.6 v 0 h -0.2 z m -0.3,-0.1 h 0.3 c 0.1,0 0.2,0 0.2,-0.1 0.1,-0.1 0.1,-0.1 0.1,-0.2 0,-0.1 0,-0.2 -0.1,-0.2 -0.1,0 -0.1,-0.1 -0.2,-0.1 h -0.3 z m 1,0.7 v -1.5 h 0.4 c 0.1,0 0.2,0 0.3,0.1 0.1,0.1 0.2,0.1 0.2,0.2 0.1,0.1 0.1,0.2 0.1,0.4 v 0.1 c 0,0.1 0,0.3 -0.1,0.4 -0.1,0.1 -0.1,0.2 -0.2,0.2 -0.1,0.1 -0.2,0.1 -0.3,0.1 z m 0.2,-1.3 v 1.2 h 0.2 c 0.1,0 0.3,0 0.3,-0.1 0.1,-0.1 0.1,-0.2 0.1,-0.4 v -0.1 c 0,-0.2 0,-0.3 -0.1,-0.4 -0.1,-0.1 -0.2,-0.1 -0.3,-0.1 h -0.2 z"
   class="st4" />
		</g>
		<path
   id="path243"
   d="M 205.8,197.4 H 121.2 V 282 h 84.6 z"
   class="st7" />
		<path
   id="path245"
   d="m 205.8,197.1 h -84.6 v 7.3 h 84.6 z"
   class="st8" />
		<path
   id="path247"
   d="m 198.5,199 4.3,4.4"
   class="st9" />
		<path
   id="path249"
   d="m 202.8,199 -4.4,4.3"
   class="st9" />
		<path
   id="path251"
   d="m 163.5,242 c 7.4,0 13.3,-6 13.3,-13.3 0,-7.3 -6,-13.3 -13.3,-13.3 -7.4,0 -13.3,6 -13.3,13.3 0,7.3 5.9,13.3 13.3,13.3 z"
   class="st10" />
		<path
   id="path253"
   d="m 165.9,230.3 h -4.8 v 4.8 h 4.8 z"
   class="st11" />
		<path
   id="path255"
   d="m 163.4,233.6 h -3.7 v 2.3 h 3.7 z"
   class="st7" />
		<path
   id="path257"
   d="m 168,233.6 h -3.7 v 2.3 h 3.7 z"
   class="st7" />
		<path
   id="path259"
   d="m 172.2,243.2 h -17.1 v -4.1 c 0,-2.4 1.9,-4.3 4.3,-4.3 h 8.4 c 2.4,0 4.3,1.9 4.3,4.3 z"
   class="st12" />
		<path
   id="path261"
   d="m 157.1,226.9 c 1.6,0 2.9,-1.3 2.9,-2.9 0,-1.6 -1.3,-2.9 -2.9,-2.9 -1.6,0 -2.9,1.3 -2.9,2.9 0,1.6 1.3,2.9 2.9,2.9 z"
   class="st11" />
		<path
   id="path263"
   d="m 169.8,226.9 c 1.6,0 2.9,-1.3 2.9,-2.9 0,-1.6 -1.3,-2.9 -2.9,-2.9 -1.6,0 -2.9,1.3 -2.9,2.9 0,1.6 1.3,2.9 2.9,2.9 z"
   class="st11" />
		<path
   id="path265"
   d="m 163.7,232.8 v 0 c -3.8,0 -6.9,-3 -6.9,-6.8 v -4.6 c 0,-3.8 3,-6.8 6.8,-6.8 v 0 c 3.8,0 6.8,3 6.8,6.8 v 4.6 c 0.1,3.7 -3,6.8 -6.7,6.8 z"
   class="st11" />
		<path
   id="path267"
   d="m 158.9,217.6 c 0.6,0.3 1.2,0.5 1.9,0.7 1.3,0.3 2.6,0.3 3.9,0.2 1.2,-0.1 2.5,-0.3 3.7,-0.8 1.2,-0.5 2.3,-1.3 2.9,-2.4 0.6,-1.1 0.6,-2.6 0,-3.6 -0.1,-0.1 -0.2,-0.3 -0.3,-0.3 -0.2,-0.1 -0.4,-0.1 -0.6,-0.1 -0.4,0 -0.7,0.1 -1.1,0.3 -0.3,0.2 -0.6,0.4 -0.9,0.6 -0.3,0.2 -0.7,0.3 -1,0.1 -0.2,-0.1 -0.4,-0.3 -0.6,-0.5 -0.4,-0.4 -1.1,-0.4 -1.6,-0.4 -0.2,0 -0.4,0 -0.6,0.1 -0.3,0.2 -0.5,0.7 -0.8,1 -0.3,0.3 -0.7,0.4 -1.1,0.3 -0.4,-0.1 -0.7,-0.4 -1.1,-0.4 -0.5,0 -0.9,0.2 -1.2,0.6 -0.3,0.3 -0.5,0.8 -0.7,1.2 -0.5,0.7 -1.1,1.3 -1.6,2 -0.2,0.3 -0.1,1.7 -0.1,1.7 0,0 0.6,-0.4 0.9,-0.3 z"
   class="st1" />
		<path
   id="path269"
   d="m 160.4,224.8 c 0,0.2 -0.2,0.4 -0.4,0.4 -0.2,0 -0.4,-0.2 -0.4,-0.4 0,-0.2 0.2,-0.4 0.4,-0.4 0.2,0 0.4,0.1 0.4,0.4 z"
   class="st1" />
		<path
   id="path271"
   d="m 167.1,225.1 c 0.2,0 0.4,-0.2 0.4,-0.4 0,-0.2 -0.2,-0.4 -0.4,-0.4 -0.2,0 -0.4,0.2 -0.4,0.4 0,0.3 0.2,0.4 0.4,0.4 z"
   class="st1" />
		<path
   id="path273"
   d="m 161.9,227 h 3.7 c 0,0 -2,2.5 -3.7,0 z"
   class="st7" />
		<path
   id="path275"
   d="m 188.7,253.9 h -50.6 c -1.8,0 -3.2,-1.4 -3.2,-3.2 0,-1.8 1.4,-3.2 3.2,-3.2 h 50.6 c 1.7,0 3.2,1.4 3.2,3.2 0,1.8 -1.4,3.2 -3.2,3.2 z"
   class="st13" />
		<path
   id="path277"
   d="m 188.7,263.4 h -50.6 c -1.8,0 -3.2,-1.4 -3.2,-3.2 0,-1.8 1.4,-3.2 3.2,-3.2 h 50.6 c 1.7,0 3.2,1.4 3.2,3.2 0,1.8 -1.4,3.2 -3.2,3.2 z"
   class="st13" />
		<g
   id="g281"
   class="st3">
			<path
   id="path279"
   d="m 175.1,275.1 h -19 c -1.8,0 -3.2,-1.4 -3.2,-3.2 0,-1.8 1.4,-3.2 3.2,-3.2 h 19 c 1.8,0 3.2,1.4 3.2,3.2 0,1.7 -1.4,3.2 -3.2,3.2 z"
   class="st4" />
		</g>
		<path
   id="path283"
   d="m 173,272.9 h -19 c -1.8,0 -3.2,-1.4 -3.2,-3.2 0,-1.8 1.4,-3.2 3.2,-3.2 h 19 c 1.7,0 3.2,1.4 3.2,3.2 0,1.8 -1.5,3.2 -3.2,3.2 z"
   class="st1" />
		<path
   id="path285"
   d="m 158.6,249.7 v 1 c 0,0.1 0,0.3 -0.1,0.3 -0.1,0.1 -0.2,0.1 -0.4,0.1 H 158 c -0.2,0 -0.3,0 -0.4,-0.1 -0.1,-0.1 -0.1,-0.2 -0.1,-0.4 v -1 h 0.2 v 1 c 0,0.1 0,0.2 0.1,0.2 0.1,0.1 0.1,0.1 0.3,0.1 0.1,0 0.2,0 0.3,-0.1 0.1,-0.1 0.1,-0.1 0.1,-0.2 v -1 h 0.1 z m 0.8,0.8 c -0.2,0 -0.3,-0.1 -0.4,-0.2 -0.1,-0.1 -0.1,-0.2 -0.1,-0.3 0,-0.1 0,-0.2 0.1,-0.3 0.1,-0.1 0.2,-0.1 0.4,-0.1 0.1,0 0.2,0 0.3,0.1 0.1,0 0.1,0.1 0.2,0.2 0,0.1 0.1,0.1 0.1,0.2 h -0.2 c 0,-0.1 0,-0.2 -0.1,-0.2 -0.1,-0.1 -0.1,-0.1 -0.2,-0.1 -0.1,0 -0.2,0 -0.2,0.1 -0.1,0 -0.1,0.1 -0.1,0.2 0,0.1 0,0.1 0.1,0.2 0.1,0 0.1,0.1 0.3,0.1 0.1,0 0.2,0.1 0.3,0.1 0.1,0 0.1,0.1 0.2,0.1 0,0.1 0.1,0.1 0.1,0.2 0,0.1 0,0.2 -0.1,0.3 -0.1,0.1 -0.2,0.1 -0.4,0.1 -0.1,0 -0.2,0 -0.3,-0.1 -0.1,0 -0.2,-0.1 -0.2,-0.2 0,-0.1 -0.1,-0.1 -0.1,-0.2 h 0.2 c 0,0.1 0,0.2 0.1,0.2 0.1,0.1 0.2,0.1 0.3,0.1 0.1,0 0.2,0 0.2,-0.1 0.1,0 0.1,-0.1 0.1,-0.2 0,-0.1 0,-0.1 -0.1,-0.2 -0.3,0.1 -0.4,0.1 -0.5,0 z m 1.6,0 h -0.6 v 0.5 h 0.7 v 0.2 h -0.9 v -1.5 h 0.9 v 0.2 h -0.7 v 0.5 h 0.6 z m 0.9,0.1 h -0.3 v 0.6 h -0.2 v -1.5 h 0.5 c 0.2,0 0.3,0 0.4,0.1 0.1,0.1 0.1,0.2 0.1,0.3 0,0.1 0,0.2 -0.1,0.2 0,0.1 -0.1,0.1 -0.2,0.2 l 0.3,0.6 v 0 h -0.2 z m -0.4,-0.2 h 0.3 c 0.1,0 0.2,0 0.2,-0.1 0.1,0 0.1,-0.1 0.1,-0.2 0,-0.1 0,-0.2 -0.1,-0.2 -0.1,0 -0.1,-0.1 -0.2,-0.1 h -0.3 z m 2.2,0.8 h -0.2 l -0.7,-1.1 v 1.1 h -0.2 v -1.5 h 0.2 l 0.7,1.1 v -1.1 h 0.2 z m 1.2,-0.4 h -0.6 l -0.1,0.4 H 164 l 0.6,-1.5 h 0.2 l 0.6,1.5 H 165 Z m -0.6,-0.1 h 0.5 l -0.3,-0.7 z m 1.4,-1 0.5,1.2 0.5,-1.2 h 0.3 v 1.5 h -0.2 v -0.6 -0.6 l -0.5,1.2 h -0.1 l -0.5,-1.2 v 0.6 0.6 h -0.2 v -1.5 z m 2.4,0.8 h -0.6 v 0.5 h 0.7 v 0.2 h -0.9 v -1.5 h 0.9 v 0.2 h -0.7 v 0.5 h 0.6 z"
   class="st14" />
		<path
   id="path287"
   d="m 159.3,269.6 h 0.9 v 0.2 H 159 v -2 h 0.3 z m 2.7,-0.7 c 0,0.2 0,0.4 -0.1,0.5 -0.1,0.1 -0.2,0.3 -0.3,0.3 -0.1,0.1 -0.3,0.1 -0.4,0.1 -0.2,0 -0.3,0 -0.4,-0.1 -0.1,-0.1 -0.2,-0.2 -0.3,-0.3 -0.1,-0.1 -0.1,-0.3 -0.1,-0.5 v -0.1 c 0,-0.2 0,-0.4 0.1,-0.5 0.1,-0.1 0.2,-0.3 0.3,-0.3 0.1,-0.1 0.3,-0.1 0.4,-0.1 0.2,0 0.3,0 0.4,0.1 0.1,0.1 0.2,0.2 0.3,0.3 0.1,0.1 0.1,0.3 0.1,0.5 z m -0.3,-0.1 c 0,-0.2 0,-0.4 -0.1,-0.5 -0.1,-0.1 -0.2,-0.2 -0.4,-0.2 -0.2,0 -0.3,0.1 -0.4,0.2 -0.1,0.1 -0.1,0.3 -0.1,0.5 v 0.1 c 0,0.2 0,0.4 0.1,0.5 0.1,0.1 0.2,0.2 0.4,0.2 0.2,0 0.3,-0.1 0.4,-0.2 0.1,-0.1 0.1,-0.3 0.1,-0.5 z m 2.2,0.8 c -0.1,0.1 -0.2,0.2 -0.3,0.2 -0.1,0 -0.3,0.1 -0.4,0.1 -0.2,0 -0.3,0 -0.4,-0.1 -0.1,-0.1 -0.2,-0.2 -0.3,-0.3 -0.1,-0.1 -0.1,-0.3 -0.1,-0.5 v -0.2 c 0,-0.3 0.1,-0.5 0.2,-0.7 0.1,-0.2 0.3,-0.2 0.6,-0.2 0.2,0 0.4,0.1 0.5,0.2 0.1,0.1 0.2,0.3 0.2,0.5 h -0.3 c 0,-0.3 -0.2,-0.4 -0.5,-0.4 -0.2,0 -0.3,0.1 -0.4,0.2 -0.1,0.1 -0.1,0.3 -0.1,0.5 v 0.2 c 0,0.2 0.1,0.4 0.2,0.5 0.1,0.1 0.2,0.2 0.4,0.2 0.1,0 0.2,0 0.3,0 0.1,0 0.1,-0.1 0.2,-0.1 v -0.4 h -0.5 v -0.2 h 0.7 z m 0.7,0.2 h -0.3 v -2 h 0.3 z m 2,0 h -0.3 l -1,-1.5 v 1.5 H 165 v -2 h 0.3 l 1,1.5 v -1.5 h 0.3 z"
   class="st7" />
		<path
   id="path289"
   d="m 157.7,260.1 v 0.6 h -0.2 v -1.5 h 0.5 c 0.2,0 0.3,0 0.4,0.1 0.1,0.1 0.1,0.2 0.1,0.3 0,0.1 0,0.3 -0.1,0.3 -0.1,0.1 -0.2,0.1 -0.4,0.1 h -0.3 z m 0,-0.1 h 0.3 c 0.1,0 0.2,0 0.2,-0.1 0.1,0 0.1,-0.1 0.1,-0.2 0,-0.1 0,-0.2 -0.1,-0.2 -0.1,-0.1 -0.1,-0.1 -0.2,-0.1 h -0.4 v 0.6 z m 1.8,0.3 h -0.6 l -0.1,0.4 h -0.2 l 0.6,-1.5 h 0.2 l 0.6,1.5 h -0.2 z m -0.6,-0.1 h 0.5 l -0.3,-0.7 z m 1.5,-0.2 c -0.2,0 -0.3,-0.1 -0.4,-0.2 -0.1,-0.1 -0.1,-0.2 -0.1,-0.3 0,-0.1 0,-0.2 0.1,-0.3 0.1,-0.1 0.2,-0.1 0.4,-0.1 0.1,0 0.2,0 0.3,0.1 0.1,0 0.1,0.1 0.2,0.2 0,0.1 0.1,0.1 0.1,0.2 h -0.2 c 0,-0.1 0,-0.2 -0.1,-0.2 -0.1,-0.1 -0.1,-0.1 -0.2,-0.1 -0.1,0 -0.2,0 -0.2,0.1 -0.1,0 -0.1,0.1 -0.1,0.2 0,0.1 0,0.1 0.1,0.2 0.1,0 0.1,0.1 0.3,0.1 0.1,0 0.2,0.1 0.3,0.1 0.1,0 0.1,0.1 0.2,0.1 0,0.1 0.1,0.1 0.1,0.2 0,0.1 0,0.2 -0.1,0.3 -0.1,0.1 -0.2,0.1 -0.4,0.1 -0.1,0 -0.2,0 -0.3,-0.1 -0.1,0 -0.2,-0.1 -0.2,-0.2 0,-0.1 -0.1,-0.1 -0.1,-0.2 h 0.2 c 0,0.1 0,0.2 0.1,0.2 0.1,0.1 0.2,0.1 0.3,0.1 0.1,0 0.2,0 0.2,-0.1 0.1,0 0.1,-0.1 0.1,-0.2 0,-0.1 0,-0.1 -0.1,-0.2 -0.2,0.1 -0.3,0.1 -0.5,0 z m 1.3,0 c -0.2,0 -0.3,-0.1 -0.4,-0.2 -0.1,-0.1 -0.1,-0.2 -0.1,-0.3 0,-0.1 0,-0.2 0.1,-0.3 0.1,-0.1 0.2,-0.1 0.4,-0.1 0.1,0 0.2,0 0.3,0.1 0.1,0 0.1,0.1 0.2,0.2 0,0.1 0.1,0.1 0.1,0.2 H 162 c 0,-0.1 0,-0.2 -0.1,-0.2 -0.1,-0.1 -0.1,-0.1 -0.2,-0.1 -0.1,0 -0.2,0 -0.2,0.1 -0.1,0 -0.1,0.1 -0.1,0.2 0,0.1 0,0.1 0.1,0.2 0.1,0 0.1,0.1 0.3,0.1 0.1,0 0.2,0.1 0.3,0.1 0.1,0 0.1,0.1 0.2,0.1 0,0.1 0.1,0.1 0.1,0.2 0,0.1 0,0.2 -0.1,0.3 -0.1,0.1 -0.2,0.1 -0.4,0.1 -0.1,0 -0.2,0 -0.3,-0.1 -0.1,0 -0.2,-0.1 -0.2,-0.2 0,-0.1 -0.1,-0.1 -0.1,-0.2 h 0.2 c 0,0.1 0,0.2 0.1,0.2 0.1,0.1 0.2,0.1 0.3,0.1 0.1,0 0.2,0 0.2,-0.1 0.1,0 0.1,-0.1 0.1,-0.2 0,-0.1 0,-0.1 -0.1,-0.2 -0.2,0.1 -0.3,0.1 -0.4,0 z m 1.1,0.2 v 0.2 -0.2 l 0.4,-1 h 0.2 l 0.3,1 v 0.2 -0.2 l 0.2,-1 h 0.2 l -0.4,1.5 h -0.2 l -0.3,-1.1 v -0.1 0.1 l -0.3,1.1 h -0.2 l -0.4,-1.5 h 0.2 z m 2.6,-0.2 c 0,0.1 0,0.3 -0.1,0.4 0,0.1 -0.1,0.2 -0.2,0.2 -0.1,0.1 -0.2,0.1 -0.3,0.1 -0.1,0 -0.2,0 -0.3,-0.1 -0.1,-0.1 -0.2,-0.1 -0.2,-0.2 0,-0.1 -0.1,-0.2 -0.1,-0.4 v -0.1 c 0,-0.1 0,-0.3 0.1,-0.4 0,-0.1 0.1,-0.2 0.2,-0.2 0.1,-0.1 0.2,-0.1 0.3,-0.1 0.1,0 0.2,0 0.3,0.1 0.1,0.1 0.2,0.1 0.2,0.2 0.1,0.2 0.1,0.3 0.1,0.5 z m -0.2,-0.1 c 0,-0.2 0,-0.3 -0.1,-0.4 -0.1,-0.1 -0.2,-0.1 -0.3,-0.1 -0.1,0 -0.2,0 -0.3,0.1 -0.1,0.1 -0.1,0.2 -0.1,0.4 v 0.1 c 0,0.2 0,0.3 0.1,0.4 0.1,0.1 0.2,0.1 0.3,0.1 0.1,0 0.2,0 0.3,-0.1 0.1,-0.1 0.1,-0.2 0.1,-0.4 z m 1.1,0.2 H 166 v 0.6 h -0.2 v -1.5 h 0.5 c 0.2,0 0.3,0 0.4,0.1 0.1,0.1 0.1,0.2 0.1,0.3 0,0.1 0,0.2 -0.1,0.2 0,0.1 -0.1,0.1 -0.2,0.2 l 0.3,0.6 v 0 h -0.2 z m -0.4,-0.2 h 0.3 c 0.1,0 0.2,0 0.2,-0.1 0.1,0 0.1,-0.1 0.1,-0.2 0,-0.1 0,-0.2 -0.1,-0.2 -0.1,0 -0.1,-0.1 -0.2,-0.1 h -0.3 z m 1.1,0.8 v -1.5 h 0.4 c 0.1,0 0.2,0 0.3,0.1 0.1,0.1 0.2,0.1 0.2,0.2 0.1,0.1 0.1,0.2 0.1,0.4 v 0.1 c 0,0.1 0,0.3 -0.1,0.4 -0.1,0.1 -0.1,0.2 -0.2,0.2 -0.1,0.1 -0.2,0.1 -0.3,0.1 z m 0.2,-1.3 v 1.2 h 0.2 c 0.1,0 0.3,0 0.3,-0.1 0.1,-0.1 0.1,-0.2 0.1,-0.4 V 260 c 0,-0.2 0,-0.3 -0.1,-0.4 -0.1,-0.1 -0.2,-0.1 -0.3,-0.1 h -0.2 z"
   class="st14" />
	</g>
	<path
   id="path293"
   d="m 140.5,218.4 10,28.1 9.9,-28.1 h 10.5 v 38.8 h -8 v -10.6 l 0.8,-18.3 -10.5,28.9 h -5.5 l -10.4,-28.9 0.8,18.3 v 10.6 h -8 v -38.8 z m 60.7,22 h -15.4 v 10.4 h 18 v 6.4 h -26 v -38.8 h 26 v 6.5 h -18 v 9.2 h 15.4 z m 17.8,-22 10,28.1 9.9,-28.1 h 10.5 v 38.8 h -8 v -10.6 l 0.8,-18.3 -10.5,28.9 h -5.5 l -10.4,-28.9 0.8,18.3 v 10.6 h -8 v -38.8 z m 37.4,38.8 V 218.4 H 270 c 4.7,0 8.3,0.9 10.7,2.7 2.4,1.8 3.7,4.4 3.7,7.9 0,1.9 -0.5,3.6 -1.5,5 -1,1.4 -2.3,2.5 -4.1,3.2 2,0.5 3.6,1.5 4.7,3 1.2,1.5 1.7,3.4 1.7,5.5 0,3.7 -1.2,6.6 -3.6,8.5 -2.4,1.9 -5.8,2.9 -10.2,2.9 h -15 z m 8,-16.9 v 10.5 h 6.9 c 1.9,0 3.3,-0.4 4.4,-1.3 1.1,-0.9 1.6,-2.2 1.6,-3.7 0,-3.6 -1.8,-5.4 -5.5,-5.4 h -7.4 z m 0,-5.6 h 5.9 c 4,-0.1 6.1,-1.7 6.1,-4.8 0,-1.8 -0.5,-3 -1.5,-3.8 -1,-0.8 -2.6,-1.2 -4.8,-1.2 h -5.6 v 9.8 z m 50.2,5.7 h -15.4 v 10.4 h 18 v 6.4 h -26 v -38.8 h 26 v 6.5 h -18 v 9.2 h 15.4 z m 21.7,2.6 H 330 v 14.2 h -8 v -38.8 h 14.4 c 4.6,0 8.1,1 10.6,3.1 2.5,2 3.7,4.9 3.7,8.7 0,2.6 -0.6,4.9 -1.7,6.6 -1.1,1.8 -2.9,3.2 -5.2,4.2 l 8.4,15.9 v 0.4 h -8.6 z m -6.3,-6.4 h 6.5 c 2,0 3.6,-0.5 4.7,-1.5 1.1,-1 1.7,-2.4 1.7,-4.2 0,-1.8 -0.5,-3.3 -1.6,-4.3 -1,-1 -2.6,-1.6 -4.8,-1.6 H 330 Z m 47,10.5 c 0,-1.5 -0.5,-2.7 -1.6,-3.5 -1.1,-0.8 -3,-1.7 -5.8,-2.6 -2.8,-0.9 -5,-1.8 -6.6,-2.7 -4.4,-2.4 -6.6,-5.6 -6.6,-9.6 0,-2.1 0.6,-4 1.8,-5.6 1.2,-1.7 2.9,-2.9 5.1,-3.9 2.2,-0.9 4.7,-1.4 7.5,-1.4 2.8,0 5.2,0.5 7.4,1.5 2.2,1 3.8,2.4 5,4.2 1.2,1.8 1.8,3.9 1.8,6.2 h -8 c 0,-1.8 -0.6,-3.2 -1.7,-4.1 -1.1,-1 -2.7,-1.5 -4.7,-1.5 -2,0 -3.5,0.4 -4.6,1.3 -1.1,0.8 -1.6,1.9 -1.6,3.3 0,1.3 0.6,2.3 1.9,3.2 1.3,0.9 3.2,1.7 5.6,2.4 4.5,1.4 7.9,3.1 9.9,5.1 2.1,2 3.1,4.5 3.1,7.6 0,3.4 -1.3,6 -3.8,7.9 -2.5,1.9 -6,2.9 -10.3,2.9 -3,0 -5.7,-0.5 -8.2,-1.6 -2.5,-1.1 -4.3,-2.6 -5.6,-4.5 -1.3,-1.9 -1.9,-4.1 -1.9,-6.6 h 8 c 0,4.3 2.6,6.4 7.7,6.4 1.9,0 3.4,-0.4 4.5,-1.1 1.1,-0.9 1.7,-2 1.7,-3.3 z m 45,10.1 h -8 v -16.6 h -15.6 v 16.6 h -8 v -38.8 h 8 v 15.7 H 414 v -15.7 h 8 z m 15.5,0 h -8 v -38.8 h 8 z M 453,243.6 v 13.7 h -8 v -38.8 h 15.1 c 2.9,0 5.5,0.5 7.7,1.6 2.2,1.1 3.9,2.6 5.1,4.6 1.2,2 1.8,4.2 1.8,6.7 0,3.8 -1.3,6.8 -3.9,9 -2.6,2.2 -6.2,3.3 -10.8,3.3 h -7 z m 0,-6.5 h 7.1 c 2.1,0 3.7,-0.5 4.8,-1.5 1.1,-1 1.7,-2.4 1.7,-4.3 0,-1.9 -0.6,-3.4 -1.7,-4.6 -1.1,-1.2 -2.7,-1.8 -4.6,-1.8 H 453 Z"
   class="st19" />
	
		<linearGradient
   gradientTransform="matrix(1,0,0,-1,8.410366e-6,500.1102)"
   y2="262.2764"
   x2="465.13931"
   y1="262.2764"
   x1="177.6568"
   gradientUnits="userSpaceOnUse"
   id="SVGID_1_">
		<stop
   id="stop295"
   style="stop-color:#A01BB2"
   offset="0" />
		<stop
   id="stop297"
   style="stop-color:#683387"
   offset="1" />
	</linearGradient>
	<path
   style="fill:url(#SVGID_1_)"
   id="path300"
   d="m 140.5,218.4 10,28.1 9.9,-28.1 h 10.5 v 38.8 h -8 v -10.6 l 0.8,-18.3 -10.5,28.9 h -5.5 l -10.4,-28.9 0.8,18.3 v 10.6 h -8 v -38.8 z m 60.7,22 h -15.4 v 10.4 h 18 v 6.4 h -26 v -38.8 h 26 v 6.5 h -18 v 9.2 h 15.4 z m 17.8,-22 10,28.1 9.9,-28.1 h 10.5 v 38.8 h -8 v -10.6 l 0.8,-18.3 -10.5,28.9 h -5.5 l -10.4,-28.9 0.8,18.3 v 10.6 h -8 v -38.8 z m 37.4,38.8 V 218.4 H 270 c 4.7,0 8.3,0.9 10.7,2.7 2.4,1.8 3.7,4.4 3.7,7.9 0,1.9 -0.5,3.6 -1.5,5 -1,1.4 -2.3,2.5 -4.1,3.2 2,0.5 3.6,1.5 4.7,3 1.2,1.5 1.7,3.4 1.7,5.5 0,3.7 -1.2,6.6 -3.6,8.5 -2.4,1.9 -5.8,2.9 -10.2,2.9 h -15 z m 8,-16.9 v 10.5 h 6.9 c 1.9,0 3.3,-0.4 4.4,-1.3 1.1,-0.9 1.6,-2.2 1.6,-3.7 0,-3.6 -1.8,-5.4 -5.5,-5.4 h -7.4 z m 0,-5.6 h 5.9 c 4,-0.1 6.1,-1.7 6.1,-4.8 0,-1.8 -0.5,-3 -1.5,-3.8 -1,-0.8 -2.6,-1.2 -4.8,-1.2 h -5.6 v 9.8 z m 50.2,5.7 h -15.4 v 10.4 h 18 v 6.4 h -26 v -38.8 h 26 v 6.5 h -18 v 9.2 h 15.4 z m 21.7,2.6 H 330 v 14.2 h -8 v -38.8 h 14.4 c 4.6,0 8.1,1 10.6,3.1 2.5,2 3.7,4.9 3.7,8.7 0,2.6 -0.6,4.9 -1.7,6.6 -1.1,1.8 -2.9,3.2 -5.2,4.2 l 8.4,15.9 v 0.4 h -8.6 z m -6.3,-6.4 h 6.5 c 2,0 3.6,-0.5 4.7,-1.5 1.1,-1 1.7,-2.4 1.7,-4.2 0,-1.8 -0.5,-3.3 -1.6,-4.3 -1,-1 -2.6,-1.6 -4.8,-1.6 H 330 Z m 47,10.5 c 0,-1.5 -0.5,-2.7 -1.6,-3.5 -1.1,-0.8 -3,-1.7 -5.8,-2.6 -2.8,-0.9 -5,-1.8 -6.6,-2.7 -4.4,-2.4 -6.6,-5.6 -6.6,-9.6 0,-2.1 0.6,-4 1.8,-5.6 1.2,-1.7 2.9,-2.9 5.1,-3.9 2.2,-0.9 4.7,-1.4 7.5,-1.4 2.8,0 5.2,0.5 7.4,1.5 2.2,1 3.8,2.4 5,4.2 1.2,1.8 1.8,3.9 1.8,6.2 h -8 c 0,-1.8 -0.6,-3.2 -1.7,-4.1 -1.1,-1 -2.7,-1.5 -4.7,-1.5 -2,0 -3.5,0.4 -4.6,1.3 -1.1,0.8 -1.6,1.9 -1.6,3.3 0,1.3 0.6,2.3 1.9,3.2 1.3,0.9 3.2,1.7 5.6,2.4 4.5,1.4 7.9,3.1 9.9,5.1 2.1,2 3.1,4.5 3.1,7.6 0,3.4 -1.3,6 -3.8,7.9 -2.5,1.9 -6,2.9 -10.3,2.9 -3,0 -5.7,-0.5 -8.2,-1.6 -2.5,-1.1 -4.3,-2.6 -5.6,-4.5 -1.3,-1.9 -1.9,-4.1 -1.9,-6.6 h 8 c 0,4.3 2.6,6.4 7.7,6.4 1.9,0 3.4,-0.4 4.5,-1.1 1.1,-0.9 1.7,-2 1.7,-3.3 z m 45,10.1 h -8 v -16.6 h -15.6 v 16.6 h -8 v -38.8 h 8 v 15.7 H 414 v -15.7 h 8 z m 15.5,0 h -8 v -38.8 h 8 z M 453,243.6 v 13.7 h -8 v -38.8 h 15.1 c 2.9,0 5.5,0.5 7.7,1.6 2.2,1.1 3.9,2.6 5.1,4.6 1.2,2 1.8,4.2 1.8,6.7 0,3.8 -1.3,6.8 -3.9,9 -2.6,2.2 -6.2,3.3 -10.8,3.3 h -7 z m 0,-6.5 h 7.1 c 2.1,0 3.7,-0.5 4.8,-1.5 1.1,-1 1.7,-2.4 1.7,-4.3 0,-1.9 -0.6,-3.4 -1.7,-4.6 -1.1,-1.2 -2.7,-1.8 -4.6,-1.8 H 453 Z"
   class="st20" />
</g>
</svg>
