<?xml version="1.0" encoding="UTF-8"?>
<svg enable-background="new 0 0 500 500" version="1.1" viewBox="0 0 500 500" xml:space="preserve" xmlns="http://www.w3.org/2000/svg">
<style type="text/css">
	.st0{fill:#9980D1;}
	.st1{fill:none;stroke:#9980D1;stroke-miterlimit:10;}
	.st2{opacity:0.29;}
	.st3{fill:#565656;}
	.st4{fill:none;stroke:#565656;stroke-linecap:round;stroke-linejoin:round;stroke-miterlimit:10;}
	.st5{fill:none;stroke:#565656;stroke-miterlimit:10;}
	.st6{font-family:'BebasNeueRegular';}
	.st7{font-size:3.8767px;}
	.st8{font-family:'BebasNeueBold';}
	.st9{font-size:5.2613px;}
	.st10{letter-spacing:1;}
	.st11{fill:#F2F2F2;}
	.st12{fill:#C6B3E2;}
	.st13{fill:none;stroke:#F4F4F4;stroke-linecap:round;stroke-linejoin:round;stroke-miterlimit:10;}
	.st14{fill:#B9AED6;}
	.st15{fill:#D6CEEA;}
	.st16{fill:#CBB2FA;}
	.st17{fill:none;stroke:#D1AEFE;stroke-miterlimit:10;}
	.st18{fill:#D1AEFE;}
	.st19{fill:#988EBC;}
	.st20{fill:none;stroke:#9874D1;stroke-miterlimit:10;}
	.st21{fill:#9874D1;}
	.st22{fill:#EDEDED;}
	.st23{font-size:5.879px;}
	.st24{font-size:7.9786px;}
</style>


	
		
			<path class="st0" d="m264.2 104.7v-10.7h-8.9c-0.7-3-1.8-5.9-3.5-8.4l6.3-6.3-7.5-7.5-6.3 6.3c-2.5-1.6-5.3-2.8-8.4-3.5v-8.9h-10.6v8.9c-3 0.7-5.9 1.8-8.4 3.5l-6.3-6.3-7.5 7.5 6.3 6.3c-1.6 2.5-2.8 5.3-3.5 8.4h-8.9v10.6h8.9c0.7 3 1.8 5.9 3.5 8.4l-6.3 6.3 7.5 7.5 6.3-6.3c2.5 1.6 5.3 2.8 8.4 3.5v8.9h10.6v-8.9c3-0.7 5.9-1.8 8.4-3.5l6.3 6.3 7.5-7.5-6.3-6.3c1.6-2.5 2.8-5.3 3.5-8.4h8.9zm-33.6 7.3c-7 0-12.6-5.7-12.6-12.6 0-7 5.7-12.6 12.6-12.6s12.6 5.7 12.6 12.6-5.6 12.6-12.6 12.6z"/>
			<path class="st0" d="m111.4 325v-8.7h-7.3c-0.5-2.5-1.5-4.8-2.8-6.8l5.1-5.1-6.1-6.1-5.1 5.1c-2.1-1.3-4.4-2.3-6.8-2.8v-7.3h-8.7v7.3c-2.5 0.5-4.8 1.5-6.8 2.8l-5.1-5.1-6.1 6.1 5.1 5.1c-1.3 2.1-2.3 4.4-2.8 6.8h-7.3v8.7h7.3c0.5 2.5 1.5 4.8 2.8 6.8l-5.1 5.1 6.1 6.1 5.1-5.1c2.1 1.3 4.4 2.3 6.8 2.8v7.3h8.7v-7.3c2.5-0.5 4.8-1.5 6.8-2.8l5.1 5.1 6.1-6.1-5.1-5.1c1.3-2.1 2.3-4.4 2.8-6.8h7.3zm-27.3 6c-5.7 0-10.3-4.6-10.3-10.3s4.6-10.3 10.3-10.3 10.3 4.6 10.3 10.3-4.6 10.3-10.3 10.3z"/>
			<path class="st1" d="m470.2 302.6v-9.2h-7.7c-0.6-2.6-1.6-5.1-3-7.3l5.5-5.5-6.5-6.5-5.5 5.5c-2.2-1.4-4.6-2.5-7.3-3v-7.7h-9.2v7.7c-2.6 0.6-5.1 1.6-7.3 3l-5.5-5.5-6.5 6.5 5.5 5.5c-1.4 2.2-2.5 4.6-3 7.3h-7.7v9.2h7.7c0.6 2.6 1.6 5.1 3 7.3l-5.5 5.5 6.5 6.5 5.5-5.5c2.2 1.4 4.6 2.5 7.3 3v7.7h9.2v-7.7c2.6-0.6 5.1-1.6 7.3-3l5.5 5.5 6.5-6.5-5.5-5.5c1.4-2.2 2.5-4.6 3-7.3h7.7zm-29.2 6.4c-6.1 0-11-4.9-11-11s4.9-11 11-11 11 4.9 11 11-5 11-11 11z"/>
			<path class="st1" d="m358.8 413.2v-9.2h-7.7c-0.6-2.6-1.6-5.1-3-7.3l5.5-5.5-6.5-6.5-5.5 5.5c-2.2-1.4-4.6-2.5-7.3-3v-7.7h-9.3v7.7c-2.6 0.6-5.1 1.6-7.3 3l-5.5-5.5-6.5 6.5 5.5 5.5c-1.4 2.2-2.5 4.6-3 7.3h-7.7v9.2h7.7c0.6 2.6 1.6 5.1 3 7.3l-5.5 5.5 6.5 6.5 5.5-5.5c2.2 1.4 4.6 2.5 7.3 3v7.7h9.2v-7.7c2.6-0.6 5.1-1.6 7.3-3l5.5 5.5 6.5-6.5-5.5-5.5c1.4-2.2 2.5-4.6 3-7.3h7.8zm-29.1 6.3c-6.1 0-11-4.9-11-11s4.9-11 11-11 11 4.9 11 11c-0.1 6.1-5 11-11 11z"/>
			<path class="st1" d="m309.3 84.1v-6.8h-5.7c-0.4-1.9-1.2-3.8-2.2-5.4l4.1-4.1-4.8-4.8-4.1 4.1c-1.6-1-3.4-1.8-5.4-2.2v-5.7h-6.8v5.7c-1.9 0.4-3.8 1.2-5.4 2.2l-4.1-4.1-4.8 4.8 4.1 4.1c-1 1.6-1.8 3.4-2.2 5.4h-5.7v6.8h5.7c0.4 1.9 1.2 3.8 2.2 5.4l-4.1 4.1 4.8 4.8 4.1-4.1c1.6 1 3.4 1.8 5.4 2.2v5.7h6.8v-5.7c1.9-0.4 3.8-1.2 5.4-2.2l4.1 4.1 4.8-4.8-4.1-4.1c1-1.6 1.8-3.4 2.2-5.4h5.7zm-21.6 4.7c-4.5 0-8.1-3.6-8.1-8.1s3.6-8.1 8.1-8.1 8.1 3.6 8.1 8.1c0 4.4-3.6 8.1-8.1 8.1z"/>
			
				<path class="st0" d="m157 254.3h-108.4c-6.5 0-11.7-5.2-11.7-11.7s5.2-11.7 11.7-11.7h108.4c6.5 0 11.7 5.2 11.7 11.7 0 6.4-5.2 11.7-11.7 11.7z"/>
				<path class="st0" d="m189.9 277.7h-108.4c-6.5 0-11.7-5.2-11.7-11.7s5.2-11.7 11.7-11.7h108.4c6.5 0 11.7 5.2 11.7 11.7s-5.3 11.7-11.7 11.7z"/>
			
			
				<path class="st0" d="m407.8 140.1h-108.4c-6.5 0-11.7-5.2-11.7-11.7s5.2-11.7 11.7-11.7h108.4c6.5 0 11.7 5.2 11.7 11.7s-5.3 11.7-11.7 11.7z"/>
				<path class="st0" d="m440.6 163.5h-108.3c-6.5 0-11.7-5.2-11.7-11.7s5.2-11.7 11.7-11.7h108.4c6.5 0 11.7 5.2 11.7 11.7-0.1 6.5-5.3 11.7-11.8 11.7z"/>
			
		
		
			<g class="st2">
				<rect class="st3" x="87.2" y="101.9" width="130.7" height="130.7"/>
				<rect class="st3" x="87.2" y="101.4" width="130.7" height="11.2"/>
				<line class="st4" x1="206.7" x2="213.3" y1="104.2" y2="111"/>
				<line class="st4" x1="213.4" x2="206.6" y1="104.3" y2="110.9"/>
				<circle class="st3" cx="152.5" cy="150.1" r="20.6"/>
				<path class="st3" d="m139.1 138.5v20.4h26.9l0.4-20.4s-1.3-12.3-13.6-12.3-13.7 12.3-13.7 12.3z"/>
				<rect class="st3" x="148.8" y="152.7" width="7.4" height="7.4"/>
				<rect class="st3" x="146.4" y="157.7" width="5.6" height="3.5"/>
				<rect class="st3" x="153.5" y="157.7" width="5.6" height="3.5"/>
				<path class="st3" d="m165.7 172.6h-26.4v-6.2c0-3.7 3-6.7 6.7-6.7h13c3.7 0 6.7 3 6.7 6.7v6.2z"/>
				<path class="st3" d="m147.2 142.9c0 2.5-2 4.5-4.5 4.5s-4.5-2-4.5-4.5 2-4.5 4.5-4.5c2.5 0.1 4.5 2.1 4.5 4.5z"/>
				<path class="st3" d="m166.7 142.5c0 2.5-2 4.5-4.5 4.5s-4.5-2-4.5-4.5 2-4.5 4.5-4.5c2.5 0.1 4.5 2.1 4.5 4.5z"/>
				<path class="st3" d="m152.9 156.4c-5.9 0-10.6-4.7-10.6-10.5v-7c0-5.8 4.7-10.5 10.5-10.5h0.1c5.8 0 10.5 4.7 10.5 10.5v7c0 5.8-4.7 10.5-10.5 10.5z"/>
				<path class="st3" d="m147.8 144.1c0 0.3-0.3 0.6-0.6 0.6s-0.6-0.3-0.6-0.6 0.3-0.6 0.6-0.6 0.6 0.3 0.6 0.6z"/>
				<path class="st3" d="m158.7 144.1c0 0.3-0.3 0.6-0.6 0.6s-0.6-0.3-0.6-0.6 0.3-0.6 0.6-0.6 0.6 0.3 0.6 0.6z"/>
				<path class="st3" d="m150 147.6h5.8s-3 3.8-5.8 0z"/>
				<path class="st5" d="m191.6 189.2h-78.2c-2.7 0-4.9-2.2-4.9-4.9s2.2-4.9 4.9-4.9h78.2c2.7 0 4.9 2.2 4.9 4.9s-2.2 4.9-4.9 4.9z"/>
				<path class="st5" d="m191.6 203.8h-78.2c-2.7 0-4.9-2.2-4.9-4.9s2.2-4.9 4.9-4.9h78.2c2.7 0 4.9 2.2 4.9 4.9s-2.2 4.9-4.9 4.9z"/>
				<path class="st3" d="m172.2 223.5h-29.4c-2.7 0-4.9-2.2-4.9-4.9s2.2-4.9 4.9-4.9h29.4c2.7 0 4.9 2.2 4.9 4.9s-2.2 4.9-4.9 4.9z"/>
				<path class="st3" d="m167.2 218.5h-29.4c-2.7 0-4.9-2.2-4.9-4.9s2.2-4.9 4.9-4.9h29.4c2.7 0 4.9 2.2 4.9 4.9s-2.2 4.9-4.9 4.9z"/>
				<text class="st3 st6 st7" transform="translate(143.14 185.56)">USERNAME</text>
				<text class="st3 st8 st9 st10" transform="translate(145.28 215.21)">LOGIN</text>
				<text class="st3 st6 st7" transform="translate(143.02 200.24)">PASSWORD</text>
				<path class="st3" d="m141.6 138.6 22.4-0.2s-1.1-10.1-11.2-10.1-11.2 10.3-11.2 10.3z"/>
				<circle class="st3" cx="141.3" cy="146.8" r=".7"/>
				<circle class="st3" cx="164.5" cy="146.8" r=".7"/>
			</g>
			
				
					<rect class="st11" x="82.2" y="96.9" width="130.7" height="130.7"/>
					
						<rect class="st12" x="82.2" y="96.4" width="130.7" height="11.2"/>
						
							<line class="st13" x1="201.7" x2="208.3" y1="99.2" y2="106"/>
							<line class="st13" x1="208.4" x2="201.6" y1="99.3" y2="105.9"/>
						
					
					<circle class="st14" cx="147.5" cy="145.1" r="20.6"/>
					<path class="st0" d="m134.1 133.5v20.4h26.9l0.4-20.4s-1.3-12.3-13.6-12.3-13.7 12.3-13.7 12.3z"/>
					
						<rect class="st15" x="143.8" y="147.7" width="7.4" height="7.4"/>
						<rect class="st11" x="141.4" y="152.7" width="5.6" height="3.5"/>
						<rect class="st11" x="148.5" y="152.7" width="5.6" height="3.5"/>
						<path class="st16" d="m160.7 167.6h-26.4v-6.2c0-3.7 3-6.7 6.7-6.7h13c3.7 0 6.7 3 6.7 6.7v6.2z"/>
						<path class="st15" d="m142.2 137.9c0 2.5-2 4.5-4.5 4.5s-4.5-2-4.5-4.5 2-4.5 4.5-4.5c2.5 0.1 4.5 2.1 4.5 4.5z"/>
						<path class="st15" d="m161.7 137.5c0 2.5-2 4.5-4.5 4.5s-4.5-2-4.5-4.5 2-4.5 4.5-4.5c2.5 0.1 4.5 2.1 4.5 4.5z"/>
						<path class="st15" d="m147.9 151.4c-5.9 0-10.6-4.7-10.6-10.5v-7c0-5.8 4.7-10.5 10.5-10.5h0.1c5.8 0 10.5 4.7 10.5 10.5v7c0 5.8-4.7 10.5-10.5 10.5z"/>
					
					<path class="st0" d="m142.8 139.1c0 0.3-0.3 0.6-0.6 0.6s-0.6-0.3-0.6-0.6 0.3-0.6 0.6-0.6 0.6 0.3 0.6 0.6z"/>
					<path class="st0" d="m153.7 139.1c0 0.3-0.3 0.6-0.6 0.6s-0.6-0.3-0.6-0.6 0.3-0.6 0.6-0.6 0.6 0.3 0.6 0.6z"/>
					<path class="st11" d="m145 142.6h5.8s-3 3.8-5.8 0z"/>
					<path class="st17" d="m186.6 184.2h-78.2c-2.7 0-4.9-2.2-4.9-4.9s2.2-4.9 4.9-4.9h78.2c2.7 0 4.9 2.2 4.9 4.9s-2.2 4.9-4.9 4.9z"/>
					<path class="st17" d="m186.6 198.8h-78.2c-2.7 0-4.9-2.2-4.9-4.9s2.2-4.9 4.9-4.9h78.2c2.7 0 4.9 2.2 4.9 4.9s-2.2 4.9-4.9 4.9z"/>
					
						<g class="st2">
							<path class="st3" d="m167.2 218.5h-29.4c-2.7 0-4.9-2.2-4.9-4.9s2.2-4.9 4.9-4.9h29.4c2.7 0 4.9 2.2 4.9 4.9s-2.2 4.9-4.9 4.9z"/>
						</g>
						
							<path class="st0" d="m162.2 213.5h-29.4c-2.7 0-4.9-2.2-4.9-4.9s2.2-4.9 4.9-4.9h29.4c2.7 0 4.9 2.2 4.9 4.9s-2.2 4.9-4.9 4.9z"/>
						
					
					<text class="st18 st6 st7" transform="translate(138.14 180.56)">USERNAME</text>
					<text class="st11 st8 st9 st10" transform="translate(140.28 210.21)">LOGIN</text>
					<text class="st18 st6 st7" transform="translate(138.02 195.24)">PASSWORD</text>
					<path class="st0" d="m136.6 133.6 22.4-0.2s-1.1-10.1-11.2-10.1-11.2 10.3-11.2 10.3z"/>
					<circle class="st11" cx="136.3" cy="141.8" r=".7"/>
					<circle class="st11" cx="159.5" cy="141.8" r=".7"/>
				
			
		
		
			
				
					<path class="st19" d="M387.7,388.1H98.8V221.7c0-7.6,6.2-13.8,13.8-13.8H374c7.6,0,13.8,6.2,13.8,13.8V388.1z"/>
					<rect class="st12" x="109.1" y="220.6" width="268.3" height="158.8"/>
					<rect class="st14" x="98.8" y="379.4" width="288.9" height="8.7"/>
					<path class="st19" d="m415 401.4h-343.5c-4 0-7.2-3.2-7.2-7.2v-6.2h357.9v6.2c0 4-3.2 7.2-7.2 7.2z"/>
					<path class="st14" d="m71.5 401.4h343.5c3 0 5.6-1.8 6.7-4.5h-356.8c1 2.7 3.6 4.5 6.6 4.5z"/>
					<path class="st14" d="m267.2 393.1h-47.8c-2.8 0-5-2.2-5-5h57.8c0 2.7-2.3 5-5 5z"/>
				
			
			
				<path class="st20" d="m205.8 334.4h-60.6c-3.9 0-7.1-3.2-7.1-7.1v-50.4c0-3.9 3.2-7.1 7.1-7.1h60.6c3.9 0 7.1 3.2 7.1 7.1v50.4c-0.1 3.9-3.2 7.1-7.1 7.1z"/>
				<path class="st20" d="m333.5 285.2h-100.5c-4.2 0-7.6-3.4-7.6-7.6v-0.2c0-4.2 3.4-7.6 7.6-7.6h100.5c4.2 0 7.6 3.4 7.6 7.6v0.2c0 4.2-3.4 7.6-7.6 7.6z"/>
				<path class="st20" d="m333.5 309.9h-100.5c-4.2 0-7.6-3.4-7.6-7.6v-0.2c0-4.2 3.4-7.6 7.6-7.6h100.5c4.2 0 7.6 3.4 7.6 7.6v0.2c0 4.2-3.4 7.6-7.6 7.6z"/>
				<path class="st20" d="m333.5 334.6h-100.5c-4.2 0-7.6-3.4-7.6-7.6v-0.2c0-4.2 3.4-7.6 7.6-7.6h100.5c4.2 0 7.6 3.4 7.6 7.6v0.2c0 4.2-3.4 7.6-7.6 7.6z"/>
				<path class="st20" d="m333.4 359.3h-190c-4.2 0-7.7-3.4-7.7-7.7 0-4.2 3.4-7.7 7.7-7.7h190c4.2 0 7.7 3.4 7.7 7.7 0 4.2-3.4 7.7-7.7 7.7z"/>
			
			
				
					<path class="st21" d="m142.3 246.3c1.7 0 3.3 1.3 3.3 3.3 0 2.2-1.5 3.5-3.3 3.5-1.9 0-3.4-1.5-3.4-3.4 0-1.7 1.3-3.4 3.4-3.4zm-0.2 0.4c-1.1 0-2.2 0.9-2.2 2.8s1 3.3 2.5 3.3c1.2 0 2.1-0.9 2.1-2.9 0-2.1-1.1-3.2-2.4-3.2z"/>
					<path class="st21" d="m151.3 253v-0.3c0.6-0.1 0.6-0.1 0.6-0.8v-1.7c0-0.7-0.3-1.2-0.9-1.2-0.4 0-0.8 0.2-1.1 0.5v2.4c0 0.7 0.1 0.7 0.7 0.8v0.3h-2.2v-0.3c0.7-0.1 0.7-0.1 0.7-0.8v-2.1c0-0.7-0.1-0.7-0.6-0.8v-0.3c0.5-0.1 1-0.2 1.4-0.4v0.8c0.2-0.1 0.4-0.3 0.7-0.5s0.5-0.3 0.8-0.3c0.8 0 1.3 0.6 1.3 1.6v1.9c0 0.7 0.1 0.7 0.6 0.8v0.3h-2z"/>
					<path class="st21" d="m155.8 253v-0.3c0.6-0.1 0.7-0.1 0.7-0.8v-4.8c0-0.6-0.1-0.7-0.7-0.8v-0.3c0.5-0.1 1.2-0.2 1.5-0.3v1.4 4.8c0 0.7 0.1 0.7 0.7 0.8v0.3h-2.2z"/>
					<path class="st21" d="m160.6 253v-0.3c0.6-0.1 0.7-0.1 0.7-0.8v-2.1c0-0.6 0-0.7-0.6-0.8v-0.2c0.5-0.1 1-0.2 1.4-0.4v1.3 2.2c0 0.7 0.1 0.7 0.7 0.8v0.3h-2.2zm1.1-5.5c-0.3 0-0.5-0.3-0.5-0.5 0-0.3 0.3-0.6 0.5-0.6 0.3 0 0.5 0.2 0.5 0.6 0 0.2-0.2 0.5-0.5 0.5z"/>
					<path class="st21" d="m168.3 253v-0.3c0.6-0.1 0.6-0.1 0.6-0.8v-1.7c0-0.7-0.3-1.2-0.9-1.2-0.4 0-0.8 0.2-1.1 0.5v2.4c0 0.7 0.1 0.7 0.7 0.8v0.3h-2.2v-0.3c0.7-0.1 0.7-0.1 0.7-0.8v-2.1c0-0.7-0.1-0.7-0.6-0.8v-0.3c0.5-0.1 1-0.2 1.4-0.4v0.8c0.2-0.1 0.4-0.3 0.7-0.5s0.5-0.3 0.8-0.3c0.8 0 1.3 0.6 1.3 1.6v1.9c0 0.7 0.1 0.7 0.6 0.8v0.3h-2z"/>
					<path class="st21" d="m176.7 252.2c-0.6 0.8-1.4 1-1.7 1-1.2 0-2-1-2-2.2 0-0.7 0.2-1.3 0.7-1.8 0.4-0.5 1-0.7 1.5-0.7 0.9 0 1.5 0.8 1.5 1.6 0 0.2 0 0.3-0.2 0.3s-1.5 0.1-2.7 0.2c0 1.4 0.8 1.9 1.5 1.9 0.4 0 0.8-0.2 1.2-0.5l0.2 0.2zm-1.7-3.4c-0.5 0-0.9 0.4-1.1 1.3h1.7c0.2 0 0.2-0.1 0.2-0.2 0.1-0.6-0.3-1.1-0.8-1.1z"/>
					<path class="st21" d="m144.9 262.5h-0.4c-0.7-0.1-1.1-0.2-1.6-0.9-0.4-0.5-0.7-1.2-1.1-1.7-0.2-0.3-0.3-0.4-0.8-0.4h-0.4v1.6c0 0.9 0.1 0.9 0.9 1v0.3h-2.7v-0.3c0.8-0.1 0.9-0.1 0.9-1v-4c0-0.9-0.1-0.9-0.9-1v-0.3h2.6c0.7 0 1.2 0.1 1.6 0.3 0.4 0.3 0.7 0.7 0.7 1.3 0 0.9-0.6 1.4-1.3 1.7 0.2 0.3 0.6 1 0.9 1.4 0.4 0.5 0.6 0.8 0.8 1 0.3 0.3 0.5 0.4 0.7 0.5l0.1 0.5zm-3.8-3.3c0.5 0 0.9-0.1 1.1-0.3 0.4-0.3 0.6-0.7 0.6-1.2 0-1.1-0.7-1.5-1.5-1.5-0.3 0-0.5 0-0.5 0.1-0.1 0.1-0.1 0.2-0.1 0.4v2.5h0.4z"/>
					<path class="st21" d="m150.7 261.5c-0.6 0.8-1.4 1-1.7 1-1.2 0-2-1-2-2.2 0-0.7 0.2-1.3 0.7-1.8 0.4-0.5 1-0.7 1.5-0.7 0.9 0 1.5 0.8 1.5 1.6 0 0.2 0 0.3-0.2 0.3s-1.5 0.1-2.7 0.2c0 1.4 0.8 1.9 1.5 1.9 0.4 0 0.8-0.2 1.2-0.5l0.2 0.2zm-1.8-3.3c-0.5 0-0.9 0.4-1.1 1.3h1.7c0.2 0 0.2-0.1 0.2-0.2 0.1-0.6-0.2-1.1-0.8-1.1z"/>
					<path class="st21" d="m154.8 260.9c-0.2 0.2-0.3 0.4-0.3 0.5 0 0.2 0.2 0.4 0.6 0.4h1.1c0.6 0 1.5 0.2 1.5 1.2 0 1.1-1.2 2-2.6 2-1.1 0-1.8-0.7-1.8-1.3 0-0.2 0.1-0.4 0.3-0.6s0.6-0.5 0.8-0.7c-0.4-0.1-0.6-0.3-0.8-0.5-0.1-0.2-0.1-0.3-0.1-0.4 0.4-0.1 0.7-0.4 0.9-0.7l0.4 0.1zm0.4 0.1c-0.9 0-1.7-0.6-1.7-1.5 0-1.2 1-1.7 1.8-1.7 0.3 0 0.7 0.1 1 0.3 0.5 0 1.1-0.1 1.4-0.2l0.1 0.1c-0.1 0.2-0.2 0.4-0.4 0.5-0.2 0-0.5 0-0.6-0.1 0.2 0.2 0.3 0.6 0.3 0.9-0.1 1.2-1 1.7-1.9 1.7zm0.3 1.5c-0.5 0-0.7 0.1-0.9 0.2-0.3 0.2-0.5 0.5-0.5 0.8 0 0.6 0.6 1 1.4 1 1 0 1.5-0.5 1.5-1.1 0-0.3-0.2-0.6-0.4-0.7-0.3-0.2-0.7-0.2-1.1-0.2zm-0.3-4.4c-0.5 0-0.9 0.4-0.9 1.2s0.4 1.4 1 1.4c0.4 0 0.8-0.4 0.8-1.2 0.1-0.8-0.3-1.4-0.9-1.4z"/>
					<path class="st21" d="m160.1 262.4v-0.3c0.6-0.1 0.7-0.1 0.7-0.8v-2.1c0-0.6 0-0.7-0.6-0.8v-0.2c0.5-0.1 1-0.2 1.4-0.4v1.3 2.2c0 0.7 0.1 0.7 0.7 0.8v0.3h-2.2zm1-5.6c-0.3 0-0.5-0.3-0.5-0.5 0-0.3 0.3-0.6 0.5-0.6 0.3 0 0.5 0.2 0.5 0.6 0.1 0.3-0.2 0.5-0.5 0.5z"/>
					<path class="st21" d="m167.5 259.1c-0.2-0.6-0.4-1-1.1-1-0.4 0-0.6 0.3-0.6 0.7s0.3 0.6 0.9 0.9c0.9 0.4 1.3 0.7 1.3 1.4 0 0.9-0.8 1.4-1.6 1.4-0.5 0-1-0.2-1.2-0.3-0.1-0.3-0.1-0.8-0.2-1.2h0.3c0.2 0.6 0.5 1.2 1.2 1.2 0.4 0 0.7-0.3 0.7-0.7 0-0.5-0.3-0.7-0.8-0.9-0.7-0.3-1.3-0.7-1.3-1.4s0.6-1.3 1.6-1.3c0.4 0 0.8 0.1 1 0.1 0 0.2 0.1 0.9 0.2 1.1h-0.4z"/>
					<path class="st21" d="m172.6 262.4c-0.2 0.1-0.3 0.1-0.4 0.1-0.6 0-1-0.4-1-1.2v-2.9h-0.7v-0.1l0.3-0.3h0.5v-0.8l0.7-0.7h0.2v1.5h1.2c0.1 0.1 0.1 0.3-0.1 0.4h-1.3v2.6c0 0.8 0.3 1 0.6 1 0.2 0 0.5-0.1 0.6-0.2l0.1 0.3-0.7 0.3z"/>
					<path class="st21" d="m178 262.4h-2.3v-0.3c0.6-0.1 0.7-0.1 0.7-0.8v-2.1c0-0.7 0-0.7-0.6-0.8v-0.3c0.5-0.1 0.9-0.2 1.4-0.4v1.1c0.4-0.5 0.8-1.1 1.3-1.1 0.4 0 0.6 0.2 0.6 0.5 0 0.2-0.2 0.5-0.3 0.6s-0.2 0.1-0.3 0c-0.2-0.2-0.3-0.3-0.5-0.3s-0.6 0.3-0.8 0.8v1.9c0 0.7 0.1 0.7 0.8 0.8v0.4z"/>
					<path class="st21" d="m184.7 262.5c-0.2 0-0.4-0.1-0.5-0.2s-0.2-0.3-0.2-0.5c-0.4 0.3-0.9 0.6-1.2 0.6-0.7 0-1.2-0.6-1.2-1.2 0-0.5 0.3-0.8 0.8-1 0.6-0.2 1.4-0.5 1.6-0.7v-0.2c0-0.7-0.4-1.1-0.9-1.1-0.2 0-0.4 0.1-0.5 0.2s-0.2 0.4-0.3 0.7c-0.1 0.2-0.1 0.2-0.3 0.2s-0.4-0.2-0.4-0.4c0-0.1 0.1-0.3 0.3-0.4 0.3-0.2 0.9-0.6 1.5-0.7 0.3 0 0.6 0.1 0.8 0.3 0.4 0.3 0.5 0.6 0.5 1.2v1.9c0 0.5 0.2 0.6 0.4 0.6 0.1 0 0.3-0.1 0.4-0.1l0.1 0.3-0.9 0.5zm-0.7-2.6c-0.2 0.1-0.7 0.3-0.9 0.4-0.4 0.2-0.6 0.4-0.6 0.7 0 0.5 0.4 0.8 0.7 0.8s0.6-0.2 0.8-0.4v-1.5z"/>
					<path class="st21" d="m190 262.4c-0.2 0.1-0.3 0.1-0.4 0.1-0.6 0-1-0.4-1-1.2v-2.9h-0.7v-0.1l0.3-0.3h0.5v-0.8l0.7-0.7h0.2v1.5h1.2c0.1 0.1 0.1 0.3-0.1 0.4h-1.1v2.6c0 0.8 0.3 1 0.6 1 0.2 0 0.5-0.1 0.6-0.2l0.1 0.3-0.9 0.3z"/>
					<path class="st21" d="m193.1 262.4v-0.3c0.6-0.1 0.7-0.1 0.7-0.8v-2.1c0-0.6 0-0.7-0.6-0.8v-0.2c0.5-0.1 1-0.2 1.4-0.4v1.3 2.2c0 0.7 0.1 0.7 0.7 0.8v0.3h-2.2zm1.1-5.6c-0.3 0-0.5-0.3-0.5-0.5 0-0.3 0.3-0.6 0.5-0.6 0.3 0 0.5 0.2 0.5 0.6 0 0.3-0.2 0.5-0.5 0.5z"/>
					<path class="st21" d="m200.2 257.8c1.3 0 2.2 1 2.2 2.3 0 1.6-1.2 2.4-2.2 2.4-1.4 0-2.2-1.1-2.2-2.3-0.1-1.6 1.2-2.4 2.2-2.4zm-0.1 0.4c-0.6 0-1.2 0.6-1.2 1.8 0 1.3 0.6 2.2 1.4 2.2 0.6 0 1.2-0.5 1.2-1.8-0.1-1.3-0.5-2.2-1.4-2.2z"/>
					<path class="st21" d="m208 262.4v-0.3c0.6-0.1 0.6-0.1 0.6-0.8v-1.7c0-0.7-0.3-1.2-0.9-1.2-0.4 0-0.8 0.2-1.1 0.5v2.4c0 0.7 0.1 0.7 0.7 0.8v0.3h-2.2v-0.3c0.7-0.1 0.7-0.1 0.7-0.8v-2.1c0-0.7-0.1-0.7-0.6-0.8v-0.3c0.5-0.1 1-0.2 1.4-0.4v0.8c0.2-0.1 0.4-0.3 0.7-0.5s0.5-0.3 0.8-0.3c0.8 0 1.3 0.6 1.3 1.6v1.9c0 0.7 0.1 0.7 0.6 0.8v0.3h-2z"/>
				
			
			
				<g class="st2">
					<polygon class="st3" points="215 275.5 198.3 271 202.8 287.6 206.9 283.5 213.3 289.8 217.2 286 210.8 279.6"/>
				</g>
				
					<polygon class="st22" points="210 270.5 193.3 266 197.8 282.6 201.9 278.5 208.3 284.8 212.2 281 205.8 274.6"/>
				
			
		
		
			<g class="st2">
				<rect class="st3" x="235.6" y="157.6" width="198.2" height="198.2"/>
				<rect class="st3" x="235.6" y="156.9" width="198.2" height="17"/>
				<line class="st4" x1="416.8" x2="426.8" y1="161.2" y2="171.4"/>
				<line class="st4" x1="426.9" x2="416.7" y1="161.3" y2="171.3"/>
				<circle class="st3" cx="334.7" cy="230.7" r="31.2"/>
				<rect class="st3" x="329.1" y="234.7" width="11.3" height="11.3"/>
				<rect class="st3" x="325.8" y="242.3" width="8.6" height="5.3"/>
				<rect class="st3" x="336.6" y="242.3" width="8.6" height="5.3"/>
				<path class="st3" d="m355.2 264.9h-40v-9.5c0-5.6 4.5-10.1 10.1-10.1h19.7c5.6 0 10.1 4.5 10.1 10.1v9.5z"/>
				<circle class="st3" cx="319.8" cy="219.9" r="6.8"/>
				<circle class="st3" cx="349.5" cy="219.9" r="6.8"/>
				<path class="st3" d="m335.2 240.4h-0.1c-8.8 0-16-7.1-16-16v-10.7c0-8.8 7.1-16 16-16h0.1c8.8 0 16 7.1 16 16v10.7c0 8.8-7.2 16-16 16z"/>
				<path class="st3" d="m324 204.9c1.4 0.6 2.9 1.2 4.4 1.6 3 0.8 6.1 0.6 9.1 0.4 2.9-0.3 5.9-0.7 8.6-1.8s5.3-3 6.7-5.6 1.5-6-0.1-8.4c-0.2-0.3-0.5-0.6-0.8-0.8-0.4-0.2-0.9-0.3-1.3-0.2-0.9 0-1.7 0.3-2.5 0.7-0.7 0.4-1.4 1-2.1 1.4-0.8 0.4-1.7 0.6-2.4 0.2-0.5-0.3-0.9-0.8-1.3-1.2-1-0.9-2.5-1-3.8-0.9-0.5 0-0.9 0.1-1.3 0.3-0.8 0.5-1.1 1.6-1.8 2.3-0.6 0.7-1.7 1-2.6 0.8s-1.6-0.9-2.5-1c-1.1-0.1-2.1 0.5-2.8 1.3s-1.2 1.8-1.7 2.7c-1.1 1.7-2.6 3.1-3.8 4.7-0.4 0.6-0.3 4.1-0.3 4.1s1.6-0.9 2.3-0.6z"/>
				<path class="st3" d="m327.5 221.6c0 0.5-0.4 0.9-0.9 0.9s-0.9-0.4-0.9-0.9 0.4-0.9 0.9-0.9 0.9 0.4 0.9 0.9z"/>
				<circle class="st3" cx="343.2" cy="221.6" r=".9"/>
				<path class="st3" d="m330.9 226.9h8.7c0.1 0-4.5 5.8-8.7 0z"/>
				<path class="st5" d="m393.9 290h-118.5c-4.1 0-7.5-3.3-7.5-7.5 0-4.1 3.3-7.5 7.5-7.5h118.5c4.1 0 7.5 3.3 7.5 7.5 0 4.1-3.4 7.5-7.5 7.5z"/>
				<path class="st5" d="m393.9 312.2h-118.5c-4.1 0-7.5-3.3-7.5-7.5 0-4.1 3.3-7.5 7.5-7.5h118.5c4.1 0 7.5 3.3 7.5 7.5s-3.4 7.5-7.5 7.5z"/>
				<path class="st3" d="m362 339.5h-44.6c-4.1 0-7.5-3.3-7.5-7.5 0-4.1 3.3-7.5 7.5-7.5h44.6c4.1 0 7.5 3.3 7.5 7.5-0.1 4.1-3.4 7.5-7.5 7.5z"/>
				<path class="st3" d="m357 334.5h-44.6c-4.1 0-7.5-3.3-7.5-7.5 0-4.1 3.3-7.5 7.5-7.5h44.6c4.1 0 7.5 3.3 7.5 7.5-0.1 4.1-3.4 7.5-7.5 7.5z"/>
				<text class="st3 st6 st23 st10" transform="translate(320.46 284.5)">USERNAME</text>
				<text class="st3 st8 st24 st10" transform="translate(323.72 329.46)">LOGIN</text>
				<text class="st3 st6 st23 st10" transform="translate(320.28 306.76)">PASSWORD</text>
			</g>
			
				
					<rect class="st11" x="230.6" y="152.6" width="198.2" height="198.2"/>
					
						<rect class="st12" x="230.6" y="151.9" width="198.2" height="17"/>
						
							<line class="st13" x1="411.8" x2="421.8" y1="156.2" y2="166.4"/>
							<line class="st13" x1="421.9" x2="411.7" y1="156.3" y2="166.3"/>
						
					
					
						<circle class="st14" cx="329.7" cy="225.7" r="31.2"/>
						
							<rect class="st15" x="324.1" y="229.7" width="11.3" height="11.3"/>
							<rect class="st11" x="320.8" y="237.3" width="8.6" height="5.3"/>
							<rect class="st11" x="331.6" y="237.3" width="8.6" height="5.3"/>
							<path class="st16" d="m350.2 259.9h-40v-9.5c0-5.6 4.5-10.1 10.1-10.1h19.7c5.6 0 10.1 4.5 10.1 10.1v9.5z"/>
							<circle class="st15" cx="314.8" cy="214.9" r="6.8"/>
							<circle class="st15" cx="344.5" cy="214.9" r="6.8"/>
							<path class="st15" d="m330.2 235.4h-0.1c-8.8 0-16-7.1-16-16v-10.7c0-8.8 7.1-16 16-16h0.1c8.8 0 16 7.1 16 16v10.7c0 8.8-7.2 16-16 16z"/>
							<path class="st0" d="m319 199.9c1.4 0.6 2.9 1.2 4.4 1.6 3 0.8 6.1 0.6 9.1 0.4 2.9-0.3 5.9-0.7 8.6-1.8s5.3-3 6.7-5.6 1.5-6-0.1-8.4c-0.2-0.3-0.5-0.6-0.8-0.8-0.4-0.2-0.9-0.3-1.3-0.2-0.9 0-1.7 0.3-2.5 0.7-0.7 0.4-1.4 1-2.1 1.4-0.8 0.4-1.7 0.6-2.4 0.2-0.5-0.3-0.9-0.8-1.3-1.2-1-0.9-2.5-1-3.8-0.9-0.5 0-0.9 0.1-1.3 0.3-0.8 0.5-1.1 1.6-1.8 2.3-0.6 0.7-1.7 1-2.6 0.8s-1.6-0.9-2.5-1c-1.1-0.1-2.1 0.5-2.8 1.3s-1.2 1.8-1.7 2.7c-1.1 1.7-2.6 3.1-3.8 4.7-0.4 0.6-0.3 4.1-0.3 4.1s1.6-0.9 2.3-0.6z"/>
						
						<path class="st0" d="m322.5 216.6c0 0.5-0.4 0.9-0.9 0.9s-0.9-0.4-0.9-0.9 0.4-0.9 0.9-0.9 0.9 0.4 0.9 0.9z"/>
						<circle class="st0" cx="338.2" cy="216.6" r=".9"/>
						<path class="st11" d="m325.9 221.9h8.7c0.1 0-4.5 5.8-8.7 0z"/>
					
					<path class="st17" d="m388.9 285h-118.5c-4.1 0-7.5-3.3-7.5-7.5 0-4.1 3.3-7.5 7.5-7.5h118.5c4.1 0 7.5 3.3 7.5 7.5 0 4.1-3.4 7.5-7.5 7.5z"/>
					<path class="st17" d="m388.9 307.2h-118.5c-4.1 0-7.5-3.3-7.5-7.5 0-4.1 3.3-7.5 7.5-7.5h118.5c4.1 0 7.5 3.3 7.5 7.5s-3.4 7.5-7.5 7.5z"/>
					
						<g class="st2">
							<path class="st3" d="m357 334.5h-44.6c-4.1 0-7.5-3.3-7.5-7.5 0-4.1 3.3-7.5 7.5-7.5h44.6c4.1 0 7.5 3.3 7.5 7.5-0.1 4.1-3.4 7.5-7.5 7.5z"/>
						</g>
						
							<path class="st0" d="m352 329.5h-44.6c-4.1 0-7.5-3.3-7.5-7.5 0-4.1 3.3-7.5 7.5-7.5h44.6c4.1 0 7.5 3.3 7.5 7.5-0.1 4.1-3.4 7.5-7.5 7.5z"/>
						
					
					<text class="st18 st6 st23 st10" transform="translate(315.46 279.5)">USERNAME</text>
					<text class="st11 st8 st24 st10" transform="translate(318.72 324.46)">LOGIN</text>
					<text class="st18 st6 st23 st10" transform="translate(315.28 301.76)">PASSWORD</text>
				
			
		
	


</svg>
