<?xml version="1.0" encoding="utf-8"?>
<!-- Generator: Adobe Illustrator 24.2.0, SVG Export Plug-In . SVG Version: 6.00 Build 0)  -->
<svg version="1.1" xmlns="http://www.w3.org/2000/svg" xmlns:xlink="http://www.w3.org/1999/xlink" x="0px" y="0px"
	 viewBox="0 0 500 500" style="enable-background:new 0 0 500 500;" xml:space="preserve">
<style type="text/css">
	.st0{fill:#9980D1;}
	.st1{fill:none;stroke:#9980D1;stroke-miterlimit:10;}
	.st2{opacity:0.29;}
	.st3{fill:#565656;}
	.st4{fill:none;stroke:#565656;stroke-linecap:round;stroke-linejoin:round;stroke-miterlimit:10;}
	.st5{fill:none;stroke:#565656;stroke-miterlimit:10;}
	.st6{font-family:'BebasNeueRegular';}
	.st7{font-size:3.8767px;}
	.st8{font-family:'BebasNeueBold';}
	.st9{font-size:5.2613px;}
	.st10{letter-spacing:1;}
	.st11{fill:#F2F2F2;}
	.st12{fill:#C6B3E2;}
	.st13{fill:none;stroke:#F4F4F4;stroke-linecap:round;stroke-linejoin:round;stroke-miterlimit:10;}
	.st14{fill:#B9AED6;}
	.st15{fill:#D6CEEA;}
	.st16{fill:#CBB2FA;}
	.st17{fill:none;stroke:#D1AEFE;stroke-miterlimit:10;}
	.st18{fill:#D1AEFE;}
	.st19{fill:#988EBC;}
	.st20{fill:none;stroke:#9874D1;stroke-miterlimit:10;}
	.st21{fill:#9874D1;}
	.st22{fill:#EDEDED;}
	.st23{font-size:5.879px;}
	.st24{font-size:7.9786px;}
</style>
<g id="BACKGROUND">
</g>
<g id="OBJECTS">
	<g>
		<g>
			<path class="st0" d="M264.2,104.7V94h-8.9c-0.7-3-1.8-5.9-3.5-8.4l6.3-6.3l-7.5-7.5l-6.3,6.3c-2.5-1.6-5.3-2.8-8.4-3.5v-8.9
				h-10.6v8.9c-3,0.7-5.9,1.8-8.4,3.5l-6.3-6.3l-7.5,7.5l6.3,6.3c-1.6,2.5-2.8,5.3-3.5,8.4h-8.9v10.6h8.9c0.7,3,1.8,5.9,3.5,8.4
				l-6.3,6.3l7.5,7.5l6.3-6.3c2.5,1.6,5.3,2.8,8.4,3.5v8.9h10.6V124c3-0.7,5.9-1.8,8.4-3.5l6.3,6.3l7.5-7.5l-6.3-6.3
				c1.6-2.5,2.8-5.3,3.5-8.4H264.2z M230.6,112c-7,0-12.6-5.7-12.6-12.6c0-7,5.7-12.6,12.6-12.6s12.6,5.7,12.6,12.6
				C243.2,106.3,237.6,112,230.6,112z"/>
			<path class="st0" d="M111.4,325v-8.7h-7.3c-0.5-2.5-1.5-4.8-2.8-6.8l5.1-5.1l-6.1-6.1l-5.1,5.1c-2.1-1.3-4.4-2.3-6.8-2.8v-7.3
				h-8.7v7.3c-2.5,0.5-4.8,1.5-6.8,2.8l-5.1-5.1l-6.1,6.1l5.1,5.1c-1.3,2.1-2.3,4.4-2.8,6.8h-7.3v8.7H64c0.5,2.5,1.5,4.8,2.8,6.8
				l-5.1,5.1l6.1,6.1l5.1-5.1c2.1,1.3,4.4,2.3,6.8,2.8v7.3h8.7v-7.3c2.5-0.5,4.8-1.5,6.8-2.8l5.1,5.1l6.1-6.1l-5.1-5.1
				c1.3-2.1,2.3-4.4,2.8-6.8H111.4z M84.1,331c-5.7,0-10.3-4.6-10.3-10.3c0-5.7,4.6-10.3,10.3-10.3c5.7,0,10.3,4.6,10.3,10.3
				C94.4,326.4,89.8,331,84.1,331z"/>
			<path class="st1" d="M470.2,302.6v-9.2h-7.7c-0.6-2.6-1.6-5.1-3-7.3l5.5-5.5l-6.5-6.5l-5.5,5.5c-2.2-1.4-4.6-2.5-7.3-3v-7.7h-9.2
				v7.7c-2.6,0.6-5.1,1.6-7.3,3l-5.5-5.5l-6.5,6.5l5.5,5.5c-1.4,2.2-2.5,4.6-3,7.3h-7.7v9.2h7.7c0.6,2.6,1.6,5.1,3,7.3l-5.5,5.5
				l6.5,6.5l5.5-5.5c2.2,1.4,4.6,2.5,7.3,3v7.7h9.2v-7.7c2.6-0.6,5.1-1.6,7.3-3l5.5,5.5l6.5-6.5l-5.5-5.5c1.4-2.2,2.5-4.6,3-7.3
				H470.2z M441,309c-6.1,0-11-4.9-11-11s4.9-11,11-11c6.1,0,11,4.9,11,11S447,309,441,309z"/>
			<path class="st1" d="M358.8,413.2v-9.2h-7.7c-0.6-2.6-1.6-5.1-3-7.3l5.5-5.5l-6.5-6.5l-5.5,5.5c-2.2-1.4-4.6-2.5-7.3-3v-7.7H325
				v7.7c-2.6,0.6-5.1,1.6-7.3,3l-5.5-5.5l-6.5,6.5l5.5,5.5c-1.4,2.2-2.5,4.6-3,7.3h-7.7v9.2h7.7c0.6,2.6,1.6,5.1,3,7.3l-5.5,5.5
				l6.5,6.5l5.5-5.5c2.2,1.4,4.6,2.5,7.3,3v7.7h9.2V430c2.6-0.6,5.1-1.6,7.3-3l5.5,5.5l6.5-6.5l-5.5-5.5c1.4-2.2,2.5-4.6,3-7.3
				H358.8z M329.7,419.5c-6.1,0-11-4.9-11-11c0-6.1,4.9-11,11-11s11,4.9,11,11C340.6,414.6,335.7,419.5,329.7,419.5z"/>
			<path class="st1" d="M309.3,84.1v-6.8h-5.7c-0.4-1.9-1.2-3.8-2.2-5.4l4.1-4.1l-4.8-4.8l-4.1,4.1c-1.6-1-3.4-1.8-5.4-2.2v-5.7
				h-6.8v5.7c-1.9,0.4-3.8,1.2-5.4,2.2l-4.1-4.1l-4.8,4.8l4.1,4.1c-1,1.6-1.8,3.4-2.2,5.4h-5.7v6.8h5.7c0.4,1.9,1.2,3.8,2.2,5.4
				l-4.1,4.1l4.8,4.8l4.1-4.1c1.6,1,3.4,1.8,5.4,2.2v5.7h6.8v-5.7c1.9-0.4,3.8-1.2,5.4-2.2l4.1,4.1l4.8-4.8l-4.1-4.1
				c1-1.6,1.8-3.4,2.2-5.4H309.3z M287.7,88.8c-4.5,0-8.1-3.6-8.1-8.1c0-4.5,3.6-8.1,8.1-8.1c4.5,0,8.1,3.6,8.1,8.1
				C295.8,85.1,292.2,88.8,287.7,88.8z"/>
			<g>
				<path class="st0" d="M157,254.3H48.6c-6.5,0-11.7-5.2-11.7-11.7l0,0c0-6.5,5.2-11.7,11.7-11.7H157c6.5,0,11.7,5.2,11.7,11.7l0,0
					C168.7,249,163.5,254.3,157,254.3z"/>
				<path class="st0" d="M189.9,277.7H81.5c-6.5,0-11.7-5.2-11.7-11.7l0,0c0-6.5,5.2-11.7,11.7-11.7h108.4c6.5,0,11.7,5.2,11.7,11.7
					l0,0C201.6,272.5,196.3,277.7,189.9,277.7z"/>
			</g>
			<g>
				<path class="st0" d="M407.8,140.1H299.4c-6.5,0-11.7-5.2-11.7-11.7v0c0-6.5,5.2-11.7,11.7-11.7h108.4c6.5,0,11.7,5.2,11.7,11.7
					v0C419.5,134.9,414.2,140.1,407.8,140.1z"/>
				<path class="st0" d="M440.6,163.5H332.3c-6.5,0-11.7-5.2-11.7-11.7v0c0-6.5,5.2-11.7,11.7-11.7h108.4c6.5,0,11.7,5.2,11.7,11.7
					v0C452.3,158.3,447.1,163.5,440.6,163.5z"/>
			</g>
		</g>
		<g>
			<g class="st2">
				<rect x="87.2" y="101.9" class="st3" width="130.7" height="130.7"/>
				<rect x="87.2" y="101.4" class="st3" width="130.7" height="11.2"/>
				<line class="st4" x1="206.7" y1="104.2" x2="213.3" y2="111"/>
				<line class="st4" x1="213.4" y1="104.3" x2="206.6" y2="110.9"/>
				<circle class="st3" cx="152.5" cy="150.1" r="20.6"/>
				<path class="st3" d="M139.1,138.5v20.4H166l0.4-20.4c0,0-1.3-12.3-13.6-12.3S139.1,138.5,139.1,138.5z"/>
				<rect x="148.8" y="152.7" class="st3" width="7.4" height="7.4"/>
				<rect x="146.4" y="157.7" class="st3" width="5.6" height="3.5"/>
				<rect x="153.5" y="157.7" class="st3" width="5.6" height="3.5"/>
				<path class="st3" d="M165.7,172.6h-26.4v-6.2c0-3.7,3-6.7,6.7-6.7h13c3.7,0,6.7,3,6.7,6.7V172.6z"/>
				<path class="st3" d="M147.2,142.9c0,2.5-2,4.5-4.5,4.5c-2.5,0-4.5-2-4.5-4.5c0-2.5,2-4.5,4.5-4.5
					C145.2,138.5,147.2,140.5,147.2,142.9z"/>
				<path class="st3" d="M166.7,142.5c0,2.5-2,4.5-4.5,4.5c-2.5,0-4.5-2-4.5-4.5c0-2.5,2-4.5,4.5-4.5
					C164.7,138.1,166.7,140.1,166.7,142.5z"/>
				<path class="st3" d="M152.9,156.4L152.9,156.4c-5.9,0-10.6-4.7-10.6-10.5v-7c0-5.8,4.7-10.5,10.5-10.5h0.1
					c5.8,0,10.5,4.7,10.5,10.5v7C163.4,151.7,158.7,156.4,152.9,156.4z"/>
				<path class="st3" d="M147.8,144.1c0,0.3-0.3,0.6-0.6,0.6c-0.3,0-0.6-0.3-0.6-0.6c0-0.3,0.3-0.6,0.6-0.6
					C147.5,143.5,147.8,143.8,147.8,144.1z"/>
				<path class="st3" d="M158.7,144.1c0,0.3-0.3,0.6-0.6,0.6c-0.3,0-0.6-0.3-0.6-0.6c0-0.3,0.3-0.6,0.6-0.6
					C158.4,143.5,158.7,143.8,158.7,144.1z"/>
				<path class="st3" d="M150,147.6h5.8C155.8,147.6,152.8,151.4,150,147.6z"/>
				<path class="st5" d="M191.6,189.2h-78.2c-2.7,0-4.9-2.2-4.9-4.9l0,0c0-2.7,2.2-4.9,4.9-4.9h78.2c2.7,0,4.9,2.2,4.9,4.9l0,0
					C196.5,187,194.3,189.2,191.6,189.2z"/>
				<path class="st5" d="M191.6,203.8h-78.2c-2.7,0-4.9-2.2-4.9-4.9l0,0c0-2.7,2.2-4.9,4.9-4.9h78.2c2.7,0,4.9,2.2,4.9,4.9l0,0
					C196.5,201.6,194.3,203.8,191.6,203.8z"/>
				<path class="st3" d="M172.2,223.5h-29.4c-2.7,0-4.9-2.2-4.9-4.9l0,0c0-2.7,2.2-4.9,4.9-4.9h29.4c2.7,0,4.9,2.2,4.9,4.9l0,0
					C177.1,221.3,174.9,223.5,172.2,223.5z"/>
				<path class="st3" d="M167.2,218.5h-29.4c-2.7,0-4.9-2.2-4.9-4.9l0,0c0-2.7,2.2-4.9,4.9-4.9h29.4c2.7,0,4.9,2.2,4.9,4.9l0,0
					C172.1,216.3,169.9,218.5,167.2,218.5z"/>
				<text transform="matrix(1 0 0 1 143.1362 185.561)" class="st3 st6 st7">USERNAME</text>
				<text transform="matrix(1 0 0 1 145.2798 215.2085)" class="st3 st8 st9 st10">LOGIN</text>
				<text transform="matrix(1 0 0 1 143.0161 200.2407)" class="st3 st6 st7">PASSWORD</text>
				<path class="st3" d="M141.6,138.6l22.4-0.2c0,0-1.1-10.1-11.2-10.1S141.6,138.6,141.6,138.6z"/>
				<circle class="st3" cx="141.3" cy="146.8" r="0.7"/>
				<circle class="st3" cx="164.5" cy="146.8" r="0.7"/>
			</g>
			<g>
				<g>
					<rect x="82.2" y="96.9" class="st11" width="130.7" height="130.7"/>
					<g>
						<rect x="82.2" y="96.4" class="st12" width="130.7" height="11.2"/>
						<g>
							<line class="st13" x1="201.7" y1="99.2" x2="208.3" y2="106"/>
							<line class="st13" x1="208.4" y1="99.3" x2="201.6" y2="105.9"/>
						</g>
					</g>
					<circle class="st14" cx="147.5" cy="145.1" r="20.6"/>
					<path class="st0" d="M134.1,133.5v20.4H161l0.4-20.4c0,0-1.3-12.3-13.6-12.3S134.1,133.5,134.1,133.5z"/>
					<g>
						<rect x="143.8" y="147.7" class="st15" width="7.4" height="7.4"/>
						<rect x="141.4" y="152.7" class="st11" width="5.6" height="3.5"/>
						<rect x="148.5" y="152.7" class="st11" width="5.6" height="3.5"/>
						<path class="st16" d="M160.7,167.6h-26.4v-6.2c0-3.7,3-6.7,6.7-6.7h13c3.7,0,6.7,3,6.7,6.7V167.6z"/>
						<path class="st15" d="M142.2,137.9c0,2.5-2,4.5-4.5,4.5c-2.5,0-4.5-2-4.5-4.5c0-2.5,2-4.5,4.5-4.5
							C140.2,133.5,142.2,135.5,142.2,137.9z"/>
						<path class="st15" d="M161.7,137.5c0,2.5-2,4.5-4.5,4.5c-2.5,0-4.5-2-4.5-4.5c0-2.5,2-4.5,4.5-4.5
							C159.7,133.1,161.7,135.1,161.7,137.5z"/>
						<path class="st15" d="M147.9,151.4L147.9,151.4c-5.9,0-10.6-4.7-10.6-10.5v-7c0-5.8,4.7-10.5,10.5-10.5h0.1
							c5.8,0,10.5,4.7,10.5,10.5v7C158.4,146.7,153.7,151.4,147.9,151.4z"/>
					</g>
					<path class="st0" d="M142.8,139.1c0,0.3-0.3,0.6-0.6,0.6c-0.3,0-0.6-0.3-0.6-0.6c0-0.3,0.3-0.6,0.6-0.6
						C142.5,138.5,142.8,138.8,142.8,139.1z"/>
					<path class="st0" d="M153.7,139.1c0,0.3-0.3,0.6-0.6,0.6c-0.3,0-0.6-0.3-0.6-0.6c0-0.3,0.3-0.6,0.6-0.6
						C153.4,138.5,153.7,138.8,153.7,139.1z"/>
					<path class="st11" d="M145,142.6h5.8C150.8,142.6,147.8,146.4,145,142.6z"/>
					<path class="st17" d="M186.6,184.2h-78.2c-2.7,0-4.9-2.2-4.9-4.9l0,0c0-2.7,2.2-4.9,4.9-4.9h78.2c2.7,0,4.9,2.2,4.9,4.9l0,0
						C191.5,182,189.3,184.2,186.6,184.2z"/>
					<path class="st17" d="M186.6,198.8h-78.2c-2.7,0-4.9-2.2-4.9-4.9l0,0c0-2.7,2.2-4.9,4.9-4.9h78.2c2.7,0,4.9,2.2,4.9,4.9l0,0
						C191.5,196.6,189.3,198.8,186.6,198.8z"/>
					<g>
						<g class="st2">
							<path class="st3" d="M167.2,218.5h-29.4c-2.7,0-4.9-2.2-4.9-4.9l0,0c0-2.7,2.2-4.9,4.9-4.9h29.4c2.7,0,4.9,2.2,4.9,4.9l0,0
								C172.1,216.3,169.9,218.5,167.2,218.5z"/>
						</g>
						<g>
							<path class="st0" d="M162.2,213.5h-29.4c-2.7,0-4.9-2.2-4.9-4.9l0,0c0-2.7,2.2-4.9,4.9-4.9h29.4c2.7,0,4.9,2.2,4.9,4.9l0,0
								C167.1,211.3,164.9,213.5,162.2,213.5z"/>
						</g>
					</g>
					<text transform="matrix(1 0 0 1 138.1362 180.561)" class="st18 st6 st7">USERNAME</text>
					<text transform="matrix(1 0 0 1 140.2798 210.2085)" class="st11 st8 st9 st10">LOGIN</text>
					<text transform="matrix(1 0 0 1 138.0161 195.2407)" class="st18 st6 st7">PASSWORD</text>
					<path class="st0" d="M136.6,133.6l22.4-0.2c0,0-1.1-10.1-11.2-10.1S136.6,133.6,136.6,133.6z"/>
					<circle class="st11" cx="136.3" cy="141.8" r="0.7"/>
					<circle class="st11" cx="159.5" cy="141.8" r="0.7"/>
				</g>
			</g>
		</g>
		<g>
			<g>
				<g>
					<path class="st19" d="M387.7,388.1H98.8V221.7c0-7.6,6.2-13.8,13.8-13.8H374c7.6,0,13.8,6.2,13.8,13.8V388.1z"/>
					<rect x="109.1" y="220.6" class="st12" width="268.3" height="158.8"/>
					<rect x="98.8" y="379.4" class="st14" width="288.9" height="8.7"/>
					<path class="st19" d="M415,401.4H71.5c-4,0-7.2-3.2-7.2-7.2v-6.2h357.9v6.2C422.2,398.2,419,401.4,415,401.4z"/>
					<path class="st14" d="M71.5,401.4H415c3,0,5.6-1.8,6.7-4.5H64.9C65.9,399.6,68.5,401.4,71.5,401.4z"/>
					<path class="st14" d="M267.2,393.1h-47.8c-2.8,0-5-2.2-5-5l0,0h57.8l0,0C272.2,390.8,269.9,393.1,267.2,393.1z"/>
				</g>
			</g>
			<g>
				<path class="st20" d="M205.8,334.4h-60.6c-3.9,0-7.1-3.2-7.1-7.1v-50.4c0-3.9,3.2-7.1,7.1-7.1h60.6c3.9,0,7.1,3.2,7.1,7.1v50.4
					C212.8,331.2,209.7,334.4,205.8,334.4z"/>
				<path class="st20" d="M333.5,285.2H233c-4.2,0-7.6-3.4-7.6-7.6v-0.2c0-4.2,3.4-7.6,7.6-7.6h100.5c4.2,0,7.6,3.4,7.6,7.6v0.2
					C341.1,281.8,337.7,285.2,333.5,285.2z"/>
				<path class="st20" d="M333.5,309.9H233c-4.2,0-7.6-3.4-7.6-7.6v-0.2c0-4.2,3.4-7.6,7.6-7.6h100.5c4.2,0,7.6,3.4,7.6,7.6v0.2
					C341.1,306.5,337.7,309.9,333.5,309.9z"/>
				<path class="st20" d="M333.5,334.6H233c-4.2,0-7.6-3.4-7.6-7.6v-0.2c0-4.2,3.4-7.6,7.6-7.6h100.5c4.2,0,7.6,3.4,7.6,7.6v0.2
					C341.1,331.2,337.7,334.6,333.5,334.6z"/>
				<path class="st20" d="M333.4,359.3h-190c-4.2,0-7.7-3.4-7.7-7.7l0,0c0-4.2,3.4-7.7,7.7-7.7h190c4.2,0,7.7,3.4,7.7,7.7l0,0
					C341.1,355.8,337.7,359.3,333.4,359.3z"/>
			</g>
			<g>
				<g>
					<path class="st21" d="M142.3,246.3c1.7,0,3.3,1.3,3.3,3.3c0,2.2-1.5,3.5-3.3,3.5c-1.9,0-3.4-1.5-3.4-3.4
						C138.9,248,140.2,246.3,142.3,246.3z M142.1,246.7c-1.1,0-2.2,0.9-2.2,2.8c0,1.9,1,3.3,2.5,3.3c1.2,0,2.1-0.9,2.1-2.9
						C144.5,247.8,143.4,246.7,142.1,246.7z"/>
					<path class="st21" d="M151.3,253v-0.3c0.6-0.1,0.6-0.1,0.6-0.8v-1.7c0-0.7-0.3-1.2-0.9-1.2c-0.4,0-0.8,0.2-1.1,0.5v2.4
						c0,0.7,0.1,0.7,0.7,0.8v0.3h-2.2v-0.3c0.7-0.1,0.7-0.1,0.7-0.8v-2.1c0-0.7-0.1-0.7-0.6-0.8v-0.3c0.5-0.1,1-0.2,1.4-0.4
						c0,0.2,0,0.6,0,0.8c0.2-0.1,0.4-0.3,0.7-0.5c0.3-0.2,0.5-0.3,0.8-0.3c0.8,0,1.3,0.6,1.3,1.6v1.9c0,0.7,0.1,0.7,0.6,0.8v0.3
						H151.3z"/>
					<path class="st21" d="M155.8,253v-0.3c0.6-0.1,0.7-0.1,0.7-0.8v-4.8c0-0.6-0.1-0.7-0.7-0.8v-0.3c0.5-0.1,1.2-0.2,1.5-0.3
						c0,0.5,0,1,0,1.4v4.8c0,0.7,0.1,0.7,0.7,0.8v0.3H155.8z"/>
					<path class="st21" d="M160.6,253v-0.3c0.6-0.1,0.7-0.1,0.7-0.8v-2.1c0-0.6,0-0.7-0.6-0.8v-0.2c0.5-0.1,1-0.2,1.4-0.4
						c0,0.4,0,0.8,0,1.3v2.2c0,0.7,0.1,0.7,0.7,0.8v0.3H160.6z M161.7,247.5c-0.3,0-0.5-0.3-0.5-0.5c0-0.3,0.3-0.6,0.5-0.6
						c0.3,0,0.5,0.2,0.5,0.6C162.2,247.2,162,247.5,161.7,247.5z"/>
					<path class="st21" d="M168.3,253v-0.3c0.6-0.1,0.6-0.1,0.6-0.8v-1.7c0-0.7-0.3-1.2-0.9-1.2c-0.4,0-0.8,0.2-1.1,0.5v2.4
						c0,0.7,0.1,0.7,0.7,0.8v0.3h-2.2v-0.3c0.7-0.1,0.7-0.1,0.7-0.8v-2.1c0-0.7-0.1-0.7-0.6-0.8v-0.3c0.5-0.1,1-0.2,1.4-0.4
						c0,0.2,0,0.6,0,0.8c0.2-0.1,0.4-0.3,0.7-0.5c0.3-0.2,0.5-0.3,0.8-0.3c0.8,0,1.3,0.6,1.3,1.6v1.9c0,0.7,0.1,0.7,0.6,0.8v0.3
						H168.3z"/>
					<path class="st21" d="M176.7,252.2c-0.6,0.8-1.4,1-1.7,1c-1.2,0-2-1-2-2.2c0-0.7,0.2-1.3,0.7-1.8c0.4-0.5,1-0.7,1.5-0.7
						c0.9,0,1.5,0.8,1.5,1.6c0,0.2,0,0.3-0.2,0.3c-0.2,0-1.5,0.1-2.7,0.2c0,1.4,0.8,1.9,1.5,1.9c0.4,0,0.8-0.2,1.2-0.5L176.7,252.2z
						 M175,248.8c-0.5,0-0.9,0.4-1.1,1.3c0.6,0,1.1,0,1.7,0c0.2,0,0.2-0.1,0.2-0.2C175.9,249.3,175.5,248.8,175,248.8z"/>
					<path class="st21" d="M144.9,262.5c-0.1,0-0.2,0-0.4,0c-0.7-0.1-1.1-0.2-1.6-0.9c-0.4-0.5-0.7-1.2-1.1-1.7
						c-0.2-0.3-0.3-0.4-0.8-0.4h-0.4v1.6c0,0.9,0.1,0.9,0.9,1v0.3h-2.7v-0.3c0.8-0.1,0.9-0.1,0.9-1v-4c0-0.9-0.1-0.9-0.9-1v-0.3h2.6
						c0.7,0,1.2,0.1,1.6,0.3c0.4,0.3,0.7,0.7,0.7,1.3c0,0.9-0.6,1.4-1.3,1.7c0.2,0.3,0.6,1,0.9,1.4c0.4,0.5,0.6,0.8,0.8,1
						c0.3,0.3,0.5,0.4,0.7,0.5L144.9,262.5z M141.1,259.2c0.5,0,0.9-0.1,1.1-0.3c0.4-0.3,0.6-0.7,0.6-1.2c0-1.1-0.7-1.5-1.5-1.5
						c-0.3,0-0.5,0-0.5,0.1c-0.1,0.1-0.1,0.2-0.1,0.4v2.5H141.1z"/>
					<path class="st21" d="M150.7,261.5c-0.6,0.8-1.4,1-1.7,1c-1.2,0-2-1-2-2.2c0-0.7,0.2-1.3,0.7-1.8c0.4-0.5,1-0.7,1.5-0.7
						c0.9,0,1.5,0.8,1.5,1.6c0,0.2,0,0.3-0.2,0.3c-0.2,0-1.5,0.1-2.7,0.2c0,1.4,0.8,1.9,1.5,1.9c0.4,0,0.8-0.2,1.2-0.5L150.7,261.5z
						 M148.9,258.2c-0.5,0-0.9,0.4-1.1,1.3c0.6,0,1.1,0,1.7,0c0.2,0,0.2-0.1,0.2-0.2C149.8,258.7,149.5,258.2,148.9,258.2z"/>
					<path class="st21" d="M154.8,260.9c-0.2,0.2-0.3,0.4-0.3,0.5c0,0.2,0.2,0.4,0.6,0.4c0.4,0,0.8,0,1.1,0c0.6,0,1.5,0.2,1.5,1.2
						c0,1.1-1.2,2-2.6,2c-1.1,0-1.8-0.7-1.8-1.3c0-0.2,0.1-0.4,0.3-0.6c0.2-0.2,0.6-0.5,0.8-0.7c-0.4-0.1-0.6-0.3-0.8-0.5
						c-0.1-0.2-0.1-0.3-0.1-0.4c0.4-0.1,0.7-0.4,0.9-0.7L154.8,260.9z M155.2,261c-0.9,0-1.7-0.6-1.7-1.5c0-1.2,1-1.7,1.8-1.7
						c0.3,0,0.7,0.1,1,0.3c0.5,0,1.1-0.1,1.4-0.2l0.1,0.1c-0.1,0.2-0.2,0.4-0.4,0.5c-0.2,0-0.5,0-0.6-0.1c0.2,0.2,0.3,0.6,0.3,0.9
						C157,260.5,156.1,261,155.2,261z M155.5,262.5c-0.5,0-0.7,0.1-0.9,0.2c-0.3,0.2-0.5,0.5-0.5,0.8c0,0.6,0.6,1,1.4,1
						c1,0,1.5-0.5,1.5-1.1c0-0.3-0.2-0.6-0.4-0.7C156.3,262.5,155.9,262.5,155.5,262.5z M155.2,258.1c-0.5,0-0.9,0.4-0.9,1.2
						s0.4,1.4,1,1.4c0.4,0,0.8-0.4,0.8-1.2C156.2,258.7,155.8,258.1,155.2,258.1z"/>
					<path class="st21" d="M160.1,262.4v-0.3c0.6-0.1,0.7-0.1,0.7-0.8v-2.1c0-0.6,0-0.7-0.6-0.8v-0.2c0.5-0.1,1-0.2,1.4-0.4
						c0,0.4,0,0.8,0,1.3v2.2c0,0.7,0.1,0.7,0.7,0.8v0.3H160.1z M161.1,256.8c-0.3,0-0.5-0.3-0.5-0.5c0-0.3,0.3-0.6,0.5-0.6
						c0.3,0,0.5,0.2,0.5,0.6C161.7,256.6,161.4,256.8,161.1,256.8z"/>
					<path class="st21" d="M167.5,259.1c-0.2-0.6-0.4-1-1.1-1c-0.4,0-0.6,0.3-0.6,0.7c0,0.4,0.3,0.6,0.9,0.9
						c0.9,0.4,1.3,0.7,1.3,1.4c0,0.9-0.8,1.4-1.6,1.4c-0.5,0-1-0.2-1.2-0.3c-0.1-0.3-0.1-0.8-0.2-1.2l0.3,0c0.2,0.6,0.5,1.2,1.2,1.2
						c0.4,0,0.7-0.3,0.7-0.7c0-0.5-0.3-0.7-0.8-0.9c-0.7-0.3-1.3-0.7-1.3-1.4c0-0.7,0.6-1.3,1.6-1.3c0.4,0,0.8,0.1,1,0.1
						c0,0.2,0.1,0.9,0.2,1.1L167.5,259.1z"/>
					<path class="st21" d="M172.6,262.4c-0.2,0.1-0.3,0.1-0.4,0.1c-0.6,0-1-0.4-1-1.2v-2.9h-0.7l0-0.1l0.3-0.3h0.5v-0.8
						c0.2-0.2,0.5-0.5,0.7-0.7l0.2,0c0,0.4,0,1,0,1.5h1.2c0.1,0.1,0.1,0.3-0.1,0.4H172v2.6c0,0.8,0.3,1,0.6,1c0.2,0,0.5-0.1,0.6-0.2
						l0.1,0.3L172.6,262.4z"/>
					<path class="st21" d="M178,262.4h-2.3v-0.3c0.6-0.1,0.7-0.1,0.7-0.8v-2.1c0-0.7,0-0.7-0.6-0.8v-0.3c0.5-0.1,0.9-0.2,1.4-0.4
						c0,0.3,0,0.8,0,1.1c0.4-0.5,0.8-1.1,1.3-1.1c0.4,0,0.6,0.2,0.6,0.5c0,0.2-0.2,0.5-0.3,0.6c-0.1,0.1-0.2,0.1-0.3,0
						c-0.2-0.2-0.3-0.3-0.5-0.3c-0.2,0-0.6,0.3-0.8,0.8v1.9c0,0.7,0.1,0.7,0.8,0.8V262.4z"/>
					<path class="st21" d="M184.7,262.5c-0.2,0-0.4-0.1-0.5-0.2c-0.1-0.1-0.2-0.3-0.2-0.5c-0.4,0.3-0.9,0.6-1.2,0.6
						c-0.7,0-1.2-0.6-1.2-1.2c0-0.5,0.3-0.8,0.8-1c0.6-0.2,1.4-0.5,1.6-0.7v-0.2c0-0.7-0.4-1.1-0.9-1.1c-0.2,0-0.4,0.1-0.5,0.2
						c-0.1,0.1-0.2,0.4-0.3,0.7c-0.1,0.2-0.1,0.2-0.3,0.2c-0.2,0-0.4-0.2-0.4-0.4c0-0.1,0.1-0.3,0.3-0.4c0.3-0.2,0.9-0.6,1.5-0.7
						c0.3,0,0.6,0.1,0.8,0.3c0.4,0.3,0.5,0.6,0.5,1.2v1.9c0,0.5,0.2,0.6,0.4,0.6c0.1,0,0.3-0.1,0.4-0.1l0.1,0.3L184.7,262.5z
						 M184,259.9c-0.2,0.1-0.7,0.3-0.9,0.4c-0.4,0.2-0.6,0.4-0.6,0.7c0,0.5,0.4,0.8,0.7,0.8c0.3,0,0.6-0.2,0.8-0.4
						C184,261,184,260.4,184,259.9z"/>
					<path class="st21" d="M190,262.4c-0.2,0.1-0.3,0.1-0.4,0.1c-0.6,0-1-0.4-1-1.2v-2.9h-0.7l0-0.1l0.3-0.3h0.5v-0.8
						c0.2-0.2,0.5-0.5,0.7-0.7l0.2,0c0,0.4,0,1,0,1.5h1.2c0.1,0.1,0.1,0.3-0.1,0.4h-1.1v2.6c0,0.8,0.3,1,0.6,1
						c0.2,0,0.5-0.1,0.6-0.2l0.1,0.3L190,262.4z"/>
					<path class="st21" d="M193.1,262.4v-0.3c0.6-0.1,0.7-0.1,0.7-0.8v-2.1c0-0.6,0-0.7-0.6-0.8v-0.2c0.5-0.1,1-0.2,1.4-0.4
						c0,0.4,0,0.8,0,1.3v2.2c0,0.7,0.1,0.7,0.7,0.8v0.3H193.1z M194.2,256.8c-0.3,0-0.5-0.3-0.5-0.5c0-0.3,0.3-0.6,0.5-0.6
						c0.3,0,0.5,0.2,0.5,0.6C194.7,256.6,194.5,256.8,194.2,256.8z"/>
					<path class="st21" d="M200.2,257.8c1.3,0,2.2,1,2.2,2.3c0,1.6-1.2,2.4-2.2,2.4c-1.4,0-2.2-1.1-2.2-2.3
						C197.9,258.6,199.2,257.8,200.2,257.8z M200.1,258.2c-0.6,0-1.2,0.6-1.2,1.8c0,1.3,0.6,2.2,1.4,2.2c0.6,0,1.2-0.5,1.2-1.8
						C201.4,259.1,201,258.2,200.1,258.2z"/>
					<path class="st21" d="M208,262.4v-0.3c0.6-0.1,0.6-0.1,0.6-0.8v-1.7c0-0.7-0.3-1.2-0.9-1.2c-0.4,0-0.8,0.2-1.1,0.5v2.4
						c0,0.7,0.1,0.7,0.7,0.8v0.3h-2.2v-0.3c0.7-0.1,0.7-0.1,0.7-0.8v-2.1c0-0.7-0.1-0.7-0.6-0.8v-0.3c0.5-0.1,1-0.2,1.4-0.4
						c0,0.2,0,0.6,0,0.8c0.2-0.1,0.4-0.3,0.7-0.5c0.3-0.2,0.5-0.3,0.8-0.3c0.8,0,1.3,0.6,1.3,1.6v1.9c0,0.7,0.1,0.7,0.6,0.8v0.3H208
						z"/>
				</g>
			</g>
			<g>
				<g class="st2">
					<polygon class="st3" points="215,275.5 198.3,271 202.8,287.6 206.9,283.5 213.3,289.8 217.2,286 210.8,279.6 					"/>
				</g>
				<g>
					<polygon class="st22" points="210,270.5 193.3,266 197.8,282.6 201.9,278.5 208.3,284.8 212.2,281 205.8,274.6 					"/>
				</g>
			</g>
		</g>
		<g>
			<g class="st2">
				<rect x="235.6" y="157.6" class="st3" width="198.2" height="198.2"/>
				<rect x="235.6" y="156.9" class="st3" width="198.2" height="17"/>
				<line class="st4" x1="416.8" y1="161.2" x2="426.8" y2="171.4"/>
				<line class="st4" x1="426.9" y1="161.3" x2="416.7" y2="171.3"/>
				<circle class="st3" cx="334.7" cy="230.7" r="31.2"/>
				<rect x="329.1" y="234.7" class="st3" width="11.3" height="11.3"/>
				<rect x="325.8" y="242.3" class="st3" width="8.6" height="5.3"/>
				<rect x="336.6" y="242.3" class="st3" width="8.6" height="5.3"/>
				<path class="st3" d="M355.2,264.9h-40v-9.5c0-5.6,4.5-10.1,10.1-10.1H345c5.6,0,10.1,4.5,10.1,10.1V264.9z"/>
				<circle class="st3" cx="319.8" cy="219.9" r="6.8"/>
				<circle class="st3" cx="349.5" cy="219.9" r="6.8"/>
				<path class="st3" d="M335.2,240.4h-0.1c-8.8,0-16-7.1-16-16v-10.7c0-8.8,7.1-16,16-16h0.1c8.8,0,16,7.1,16,16v10.7
					C351.2,233.2,344,240.4,335.2,240.4z"/>
				<path class="st3" d="M324,204.9c1.4,0.6,2.9,1.2,4.4,1.6c3,0.8,6.1,0.6,9.1,0.4c2.9-0.3,5.9-0.7,8.6-1.8c2.7-1.1,5.3-3,6.7-5.6
					c1.4-2.6,1.5-6-0.1-8.4c-0.2-0.3-0.5-0.6-0.8-0.8c-0.4-0.2-0.9-0.3-1.3-0.2c-0.9,0-1.7,0.3-2.5,0.7c-0.7,0.4-1.4,1-2.1,1.4
					c-0.8,0.4-1.7,0.6-2.4,0.2c-0.5-0.3-0.9-0.8-1.3-1.2c-1-0.9-2.5-1-3.8-0.9c-0.5,0-0.9,0.1-1.3,0.3c-0.8,0.5-1.1,1.6-1.8,2.3
					c-0.6,0.7-1.7,1-2.6,0.8c-0.9-0.2-1.6-0.9-2.5-1c-1.1-0.1-2.1,0.5-2.8,1.3c-0.7,0.8-1.2,1.8-1.7,2.7c-1.1,1.7-2.6,3.1-3.8,4.7
					c-0.4,0.6-0.3,4.1-0.3,4.1S323.3,204.6,324,204.9z"/>
				<path class="st3" d="M327.5,221.6c0,0.5-0.4,0.9-0.9,0.9c-0.5,0-0.9-0.4-0.9-0.9c0-0.5,0.4-0.9,0.9-0.9
					C327.1,220.7,327.5,221.1,327.5,221.6z"/>
				<circle class="st3" cx="343.2" cy="221.6" r="0.9"/>
				<path class="st3" d="M330.9,226.9h8.7C339.7,226.9,335.1,232.7,330.9,226.9z"/>
				<path class="st5" d="M393.9,290H275.4c-4.1,0-7.5-3.3-7.5-7.5l0,0c0-4.1,3.3-7.5,7.5-7.5h118.5c4.1,0,7.5,3.3,7.5,7.5l0,0
					C401.4,286.6,398,290,393.9,290z"/>
				<path class="st5" d="M393.9,312.2H275.4c-4.1,0-7.5-3.3-7.5-7.5l0,0c0-4.1,3.3-7.5,7.5-7.5h118.5c4.1,0,7.5,3.3,7.5,7.5l0,0
					C401.4,308.9,398,312.2,393.9,312.2z"/>
				<path class="st3" d="M362,339.5h-44.6c-4.1,0-7.5-3.3-7.5-7.5v0c0-4.1,3.3-7.5,7.5-7.5H362c4.1,0,7.5,3.3,7.5,7.5v0
					C369.4,336.1,366.1,339.5,362,339.5z"/>
				<path class="st3" d="M357,334.5h-44.6c-4.1,0-7.5-3.3-7.5-7.5v0c0-4.1,3.3-7.5,7.5-7.5H357c4.1,0,7.5,3.3,7.5,7.5v0
					C364.4,331.1,361.1,334.5,357,334.5z"/>
				<text transform="matrix(1 0 0 1 320.4648 284.502)" class="st3 st6 st23 st10">USERNAME</text>
				<text transform="matrix(1 0 0 1 323.7158 329.4629)" class="st3 st8 st24 st10">LOGIN</text>
				<text transform="matrix(1 0 0 1 320.2822 306.7637)" class="st3 st6 st23 st10">PASSWORD</text>
			</g>
			<g>
				<g>
					<rect x="230.6" y="152.6" class="st11" width="198.2" height="198.2"/>
					<g>
						<rect x="230.6" y="151.9" class="st12" width="198.2" height="17"/>
						<g>
							<line class="st13" x1="411.8" y1="156.2" x2="421.8" y2="166.4"/>
							<line class="st13" x1="421.9" y1="156.3" x2="411.7" y2="166.3"/>
						</g>
					</g>
					<g>
						<circle class="st14" cx="329.7" cy="225.7" r="31.2"/>
						<g>
							<rect x="324.1" y="229.7" class="st15" width="11.3" height="11.3"/>
							<rect x="320.8" y="237.3" class="st11" width="8.6" height="5.3"/>
							<rect x="331.6" y="237.3" class="st11" width="8.6" height="5.3"/>
							<path class="st16" d="M350.2,259.9h-40v-9.5c0-5.6,4.5-10.1,10.1-10.1H340c5.6,0,10.1,4.5,10.1,10.1V259.9z"/>
							<circle class="st15" cx="314.8" cy="214.9" r="6.8"/>
							<circle class="st15" cx="344.5" cy="214.9" r="6.8"/>
							<path class="st15" d="M330.2,235.4h-0.1c-8.8,0-16-7.1-16-16v-10.7c0-8.8,7.1-16,16-16h0.1c8.8,0,16,7.1,16,16v10.7
								C346.2,228.2,339,235.4,330.2,235.4z"/>
							<path class="st0" d="M319,199.9c1.4,0.6,2.9,1.2,4.4,1.6c3,0.8,6.1,0.6,9.1,0.4c2.9-0.3,5.9-0.7,8.6-1.8
								c2.7-1.1,5.3-3,6.7-5.6c1.4-2.6,1.5-6-0.1-8.4c-0.2-0.3-0.5-0.6-0.8-0.8c-0.4-0.2-0.9-0.3-1.3-0.2c-0.9,0-1.7,0.3-2.5,0.7
								c-0.7,0.4-1.4,1-2.1,1.4c-0.8,0.4-1.7,0.6-2.4,0.2c-0.5-0.3-0.9-0.8-1.3-1.2c-1-0.9-2.5-1-3.8-0.9c-0.5,0-0.9,0.1-1.3,0.3
								c-0.8,0.5-1.1,1.6-1.8,2.3c-0.6,0.7-1.7,1-2.6,0.8c-0.9-0.2-1.6-0.9-2.5-1c-1.1-0.1-2.1,0.5-2.8,1.3
								c-0.7,0.8-1.2,1.8-1.7,2.7c-1.1,1.7-2.6,3.1-3.8,4.7c-0.4,0.6-0.3,4.1-0.3,4.1S318.3,199.6,319,199.9z"/>
						</g>
						<path class="st0" d="M322.5,216.6c0,0.5-0.4,0.9-0.9,0.9c-0.5,0-0.9-0.4-0.9-0.9c0-0.5,0.4-0.9,0.9-0.9
							C322.1,215.7,322.5,216.1,322.5,216.6z"/>
						<circle class="st0" cx="338.2" cy="216.6" r="0.9"/>
						<path class="st11" d="M325.9,221.9h8.7C334.7,221.9,330.1,227.7,325.9,221.9z"/>
					</g>
					<path class="st17" d="M388.9,285H270.4c-4.1,0-7.5-3.3-7.5-7.5l0,0c0-4.1,3.3-7.5,7.5-7.5h118.5c4.1,0,7.5,3.3,7.5,7.5l0,0
						C396.4,281.6,393,285,388.9,285z"/>
					<path class="st17" d="M388.9,307.2H270.4c-4.1,0-7.5-3.3-7.5-7.5l0,0c0-4.1,3.3-7.5,7.5-7.5h118.5c4.1,0,7.5,3.3,7.5,7.5l0,0
						C396.4,303.9,393,307.2,388.9,307.2z"/>
					<g>
						<g class="st2">
							<path class="st3" d="M357,334.5h-44.6c-4.1,0-7.5-3.3-7.5-7.5v0c0-4.1,3.3-7.5,7.5-7.5H357c4.1,0,7.5,3.3,7.5,7.5v0
								C364.4,331.1,361.1,334.5,357,334.5z"/>
						</g>
						<g>
							<path class="st0" d="M352,329.5h-44.6c-4.1,0-7.5-3.3-7.5-7.5v0c0-4.1,3.3-7.5,7.5-7.5H352c4.1,0,7.5,3.3,7.5,7.5v0
								C359.4,326.1,356.1,329.5,352,329.5z"/>
						</g>
					</g>
					<text transform="matrix(1 0 0 1 315.4648 279.502)" class="st18 st6 st23 st10">USERNAME</text>
					<text transform="matrix(1 0 0 1 318.7158 324.4629)" class="st11 st8 st24 st10">LOGIN</text>
					<text transform="matrix(1 0 0 1 315.2822 301.7637)" class="st18 st6 st23 st10">PASSWORD</text>
				</g>
			</g>
		</g>
	</g>
</g>
<g id="DESIGNED_BY_FREEPIK">
</g>
</svg>
