<?xml version="1.0" encoding="utf-8"?>
<!-- Generator: Adobe Illustrator 24.2.0, SVG Export Plug-In . SVG Version: 6.00 Build 0)  -->
<svg version="1.1" id="Layer_1" xmlns="http://www.w3.org/2000/svg" xmlns:xlink="http://www.w3.org/1999/xlink" x="0px" y="0px"
	 viewBox="0 0 294.1 967.3" style="enable-background:new 0 0 294.1 967.3;" xml:space="preserve">
<style type="text/css">
	.st0{fill:url(#SVGID_1_);}
	.st1{fill:url(#SVGID_2_);}
</style>
<linearGradient id="SVGID_1_" gradientUnits="userSpaceOnUse" x1="137.7865" y1="1561.7959" x2="118.3126" y2="204.8629" gradientTransform="matrix(1 0 0 -1 8.410366e-06 1335.1852)">
	<stop  offset="0" style="stop-color:#460F60"/>
	<stop  offset="1" style="stop-color:#FF00C7"/>
</linearGradient>
<path class="st0" d="M165.8,808.7V855l26.4,8.8v28l-128-47.6v-24.4l128-47.9v28L165.8,808.7z M144.4,847.9v-32l-47.9,16.1
	L144.4,847.9z M145.3,712.5v21h46.8v26.4h-128v-47.5c0-15.1,3.4-26.8,10.1-35c6.7-8.2,16.3-12.3,28.6-12.3c8.7,0,16,1.9,21.9,5.7
	c5.8,3.8,10.4,9.5,13.9,17.1l52.3-27.7h1.2v28.3L145.3,712.5z M123.9,733.5v-21.3c0-6.6-1.7-11.7-5-15.4c-3.4-3.6-8.1-5.4-14-5.4
	c-6,0-10.8,1.7-14.2,5.2c-3.5,3.4-5.2,8.6-5.2,15.7v21.2H123.9z M85.5,553v39.2h106.6v26.4H85.5v38.7H64.2V553H85.5z M192.1,509.8
	v26.4h-128v-26.4H192.1z M149.5,384.8c13.8,1,24.6,6.1,32.5,15.3c7.9,9.1,11.9,21.2,11.9,36.2c0,16.4-5.5,29.3-16.5,38.8
	c-11.1,9.4-26.2,14.1-45.5,14.1H124c-12.3,0-23.1-2.2-32.5-6.5S74.9,472.1,70,464.1c-5-8.1-7.6-17.5-7.6-28.1
	c0-14.8,4-26.7,11.9-35.7c7.9-9,19-14.2,33.3-15.6V411c-8.3,0.6-14.2,3-17.9,6.9c-3.8,3.9-5.6,9.9-5.6,18c0,8.8,3.2,15.4,9.5,19.8
	c6.3,4.3,16,6.6,29.3,6.7h9.7c13.8,0,23.9-2.1,30.3-6.2c6.4-4.2,9.6-10.8,9.6-19.9c0-8.1-1.8-14.2-5.5-18.2c-3.8-4-9.5-6.4-17.3-6.9
	V384.8z M170.9,341.2v-56h21.2v82.4h-128v-26.4H170.9z M136.7,193v50.6h34.3v-59.4h21.2V270h-128v-85.6h21.4v59.2H116V193H136.7z
	 M158.5,102.4c-5,0-8.8,1.8-11.4,5.3c-2.7,3.5-5.5,9.8-8.4,19c-3,9.1-5.9,16.4-8.8,21.7c-7.9,14.5-18.4,21.8-31.7,21.8
	c-6.9,0-13.1-1.9-18.5-5.8c-5.4-3.9-9.7-9.5-12.7-16.8c-3-7.3-4.6-15.5-4.6-24.6c0-9.1,1.7-17.3,5-24.4c3.3-7.1,7.9-12.7,14-16.6
	c6-4,12.9-6,20.6-6v26.4c-5.9,0-10.4,1.8-13.6,5.5c-3.3,3.7-4.9,8.9-4.9,15.6c0,6.4,1.4,11.5,4.1,15c2.7,3.6,6.3,5.4,10.7,5.4
	c4.2,0,7.6-2.1,10.5-6.2c2.8-4.2,5.4-10.4,7.9-18.5c4.5-15,10.1-25.9,16.8-32.8c6.7-6.9,15-10.3,25-10.3c11.1,0,19.8,4.2,26.1,12.6
	c6.3,8.4,9.4,19.7,9.4,33.8c0,9.8-1.8,18.8-5.4,26.9c-3.6,8.1-8.6,14.3-14.9,18.5c-6.3,4.2-13.5,6.3-21.8,6.3v-26.5
	c14.1,0,21.2-8.4,21.2-25.3c0-6.3-1.3-11.2-3.8-14.7C166.7,104.1,163.1,102.4,158.5,102.4z"/>
<linearGradient id="SVGID_2_" gradientUnits="userSpaceOnUse" x1="243.12" y1="1319.593" x2="243.12" y2="380.593" gradientTransform="matrix(1 0 0 -1 8.410366e-06 1335.1852)">
	<stop  offset="0" style="stop-color:#460F60"/>
	<stop  offset="1" style="stop-color:#FF00C7"/>
</linearGradient>
<path class="st1" d="M192.1,65.6c0-27.6,22.4-50,50-50h52v939h-52c-27.6,0-50-22.4-50-50V65.6z"/>
</svg>
