<?xml version="1.0" encoding="UTF-8"?>
<svg fill="none" viewBox="0 0 1219 606" xmlns="http://www.w3.org/2000/svg">
<g opacity=".5">
<path d="m455.29 72.215h-342v474.87h342v-474.87z" fill="url(#ai)"/>
<path d="m446.2 78.892h-324.6v460.73h324.6v-460.73z" fill="#fff"/>
<path d="m455.29 72.215h-342v474.87h342v-474.87z" fill="#000" opacity=".05"/>
<path d="m492.66 41.522h-342v474.87h342v-474.87z" fill="url(#x)"/>
<path d="m483.57 48.143h-324.6v460.73h324.6v-460.73z" fill="#fff"/>
<path d="m175.63 118.39h-6.734v6.734h6.734v-6.734z" stroke="#D7B7FF" stroke-miterlimit="10" stroke-width="2"/>
<path d="m322.92 118.11h-6.733v6.733h6.733v-6.733z" stroke="#D7B7FF" stroke-miterlimit="10" stroke-width="2"/>
<path d="m473.3 118.11h-6.733v6.733h6.733v-6.733z" stroke="#D7B7FF" stroke-miterlimit="10" stroke-width="2"/>
<path d="m475.26 137.47h-306.37v74.067h306.37v-74.067z" fill="#EFDFFF"/>
<path d="m275.51 221.08h-105.49v118.96h105.49v-118.96z" fill="#D7B7FF"/>
<path d="m475.26 113.91h-306.37v1.683h306.37v-1.683z" fill="url(#m)"/>
<path d="m475.26 127.93h-306.37v1.684h306.37v-1.684z" fill="url(#g)"/>
<path d="m475.26 349.57h-306.37v1.684h306.37v-1.684z" fill="url(#f)"/>
<path d="m232.97 310.29-21.322 0.057c-1.627-0.057-3.03 1.178-3.086 2.805s1.178 3.03 2.806 3.086h0.28l21.378-0.056c1.628 0.056 3.03-1.178 3.087-2.805 0.056-1.628-1.179-3.03-2.806-3.087h-0.337z" fill="#fff"/>
<path d="m232.52 317.42-21.378 0.056c-1.627 0.056-2.918 1.459-2.805 3.086 0.056 1.515 1.29 2.749 2.805 2.805l21.378-0.056c1.628 0 2.974-1.346 2.974-2.974 0-1.571-1.29-2.917-2.974-2.917z" fill="#fff"/>
<path d="m216.93 331.22h10.885c3.255 0 5.892-2.637 5.892-5.948l-22.725 0.056c0.056 3.255 2.693 5.892 5.948 5.892z" fill="#fff"/>
<path d="m222.14 228.48c-18.853 0.057-34.06 15.375-34.003 34.172 0.056 13.523 8.08 25.755 20.536 31.142v10.436c0 2.077 1.684 3.816 3.816 3.816l19.639-0.056c2.076 0 3.815-1.683 3.815-3.816v-10.436c17.226-7.575 25.082-27.663 17.507-44.945-5.443-12.345-17.731-20.369-31.31-20.313zm10.156 62.396v9.202c0 1.852-1.234 3.367-2.749 3.367h-14.365c-1.515 0-2.805-1.515-2.805-3.367v-9.202c-8.81-4.657-19.695-15.879-19.695-28.28-0.057-16.665 15.767-29.571 29.57-29.627s29.515 12.794 29.515 29.459c0 12.456-10.662 23.735-19.471 28.448z" fill="#fff"/>
<path d="m472.46 364.16h-105.49v130.74h105.49v-130.74z" fill="#D7B7FF"/>
<path d="m419.26 460.67-2.637-0.056c-0.449-4.096-2.132-7.968-4.938-11.054l1.852-2.076c0.561-0.617 0.505-1.515-0.112-2.076l-2.75-2.469c-0.617-0.561-1.515-0.505-2.076 0.112l-2.132 2.413c-1.852-1.01-3.928-1.739-6.004-2.076v-3.142c0-0.842-0.673-1.459-1.459-1.459h-3.703c-0.786 0-1.459 0.673-1.459 1.459v3.142c-3.03 0.505-5.948 1.739-8.417 3.591l-2.132-1.964c-0.617-0.561-1.515-0.505-2.076 0.056l-2.525 2.694c-0.561 0.617-0.505 1.515 0.056 2.076l2.076 1.908c-1.683 2.468-2.749 5.33-3.142 8.304l-3.311-0.056c-0.841 0-1.459 0.617-1.515 1.459l-0.056 3.703c0 0.842 0.617 1.459 1.459 1.515l3.647 0.056c0.561 2.525 1.571 4.938 3.03 7.07l-2.356 2.637c-0.561 0.618-0.505 1.515 0.112 2.077l2.749 2.468c0.618 0.562 1.515 0.505 2.076-0.112l2.077-2.3c2.412 1.739 5.218 2.917 8.136 3.422v3.143c0 0.841 0.673 1.459 1.459 1.459h3.647c0.841 0 1.459-0.674 1.459-1.459v-3.143c3.254-0.561 6.284-1.907 8.865-3.927l2.469 2.244c0.617 0.561 1.515 0.505 2.076-0.056l2.525-2.693c0.561-0.618 0.505-1.515-0.056-2.076l-2.525-2.301c1.122-1.796 1.964-3.759 2.469-5.836l2.974 0.057c0.842 0 1.459-0.618 1.515-1.459l0.056-3.704c0.056-0.897-0.617-1.571-1.403-1.571zm-22.164 14.982c-7.182 0-12.961-5.78-12.961-12.962s5.779-12.961 12.961-12.961c7.183 0 12.962 5.779 12.962 12.961s-5.779 12.962-12.962 12.962z" fill="#fff" opacity=".8"/>
<path d="m463.48 421-4.096-0.056c-0.674-6.453-3.311-12.513-7.631-17.339l2.917-3.254c0.842-0.954 0.786-2.413-0.168-3.255l-4.264-3.871c-0.898-0.842-2.357-0.786-3.199 0.112l-0.056 0.056-3.31 3.759c-2.918-1.627-6.06-2.693-9.315-3.254v-4.938c0-1.29-1.01-2.3-2.3-2.3h-5.724c-1.29 0-2.3 1.066-2.3 2.3v4.938c-4.714 0.842-9.146 2.749-12.962 5.667l-3.311-3.142c-0.897-0.842-2.3-0.842-3.198 0.056l-0.056 0.056-3.872 4.265c-0.841 0.954-0.785 2.412 0.113 3.254l3.198 3.03c-2.581 3.928-4.265 8.361-4.826 13.018l-5.162-0.056c-1.29 0-2.3 1.01-2.3 2.3v5.78c-0.057 1.29 0.953 2.3 2.244 2.356l5.667 0.057c0.842 3.983 2.413 7.799 4.714 11.166l-3.648 4.096c-0.841 0.954-0.785 2.413 0.169 3.254l4.264 3.872c0.898 0.842 2.301 0.785 3.198-0.112l0.057-0.056 3.198-3.648c3.703 2.75 8.024 4.601 12.625 5.387v4.938c0 1.29 1.01 2.3 2.3 2.3h5.724c1.29 0 2.3-1.066 2.3-2.3v-4.938c4.994-0.898 9.708-3.03 13.691-6.228l3.816 3.535c0.898 0.841 2.301 0.841 3.198-0.056l0.056-0.057 3.872-4.264c0.842-0.954 0.786-2.413-0.112-3.254l-3.928-3.648c1.74-2.861 3.03-5.947 3.816-9.202l4.601 0.056c1.29 0 2.3-1.01 2.3-2.3l0.056-5.78c-0.112-1.234-1.122-2.244-2.356-2.3zm-34.228 23.566c-11.054 0-20.032-9.146-20.032-20.368s8.978-20.368 20.032-20.368 20.032 9.146 20.032 20.368-8.978 20.368-20.032 20.368z" fill="#fff" opacity=".35" stroke="#fff" stroke-miterlimit="10" stroke-width="2"/>
<path d="m416.51 383.52h-1.852c-0.28-2.861-1.515-5.611-3.479-7.743l1.291-1.459c0.393-0.449 0.336-1.066-0.056-1.459l-1.908-1.739c-0.449-0.393-1.066-0.337-1.459 0.056l-1.515 1.683c-1.291-0.729-2.749-1.234-4.208-1.459v-2.244c0-0.561-0.449-1.01-1.01-1.01h-2.581c-0.562 0-1.01 0.449-1.01 1.01v2.188c-2.133 0.393-4.153 1.235-5.836 2.525l-1.515-1.402c-0.393-0.393-1.066-0.337-1.459 0.056l-1.739 1.907c-0.393 0.449-0.337 1.067 0.056 1.459l1.459 1.347c-1.179 1.739-1.908 3.759-2.189 5.836l-2.356-0.057c-0.561 0-1.066 0.449-1.066 1.01l-0.057 2.582c0 0.561 0.449 1.066 1.01 1.066l2.582 0.056c0.392 1.795 1.122 3.479 2.132 4.994l-1.684 1.851c-0.392 0.449-0.336 1.066 0.057 1.459l1.907 1.74c0.449 0.392 1.066 0.336 1.459-0.056l1.459-1.628c1.683 1.235 3.647 2.076 5.723 2.413v2.188c0 0.562 0.449 1.01 1.01 1.01h2.582c0.561 0 1.01-0.448 1.01-1.01v-2.188c2.244-0.393 4.376-1.347 6.228-2.749l1.739 1.571c0.449 0.393 1.066 0.336 1.459-0.056l1.74-1.908c0.392-0.449 0.336-1.066-0.056-1.459l-1.796-1.627c0.786-1.291 1.403-2.637 1.739-4.096h2.077c0.561 0 1.01-0.449 1.01-1.01l0.056-2.581c0.056-0.562-0.393-1.01-0.954-1.067zm-15.543 10.549c-4.994 0-9.09-4.096-9.09-9.09s4.096-9.09 9.09-9.09 9.09 4.096 9.09 9.09-4.096 9.09-9.09 9.09z" fill="#fff" opacity=".8"/>
<g opacity=".5">
<path d="m471.5 221.08h-185.9v3.984h185.9v-3.984z" fill="url(#e)" opacity=".5"/>
<path d="m471.5 233.98h-185.9v3.984h185.9v-3.984z" fill="url(#d)" opacity=".5"/>
<path d="m472.46 246.83h-185.9v3.984h185.9v-3.984z" fill="url(#c)" opacity=".5"/>
<path d="m472.46 259.74h-185.9v3.984h185.9v-3.984z" fill="url(#b)" opacity=".5"/>
<path d="m471.5 272.64h-185.9v3.984h185.9v-3.984z" fill="url(#a)" opacity=".5"/>
<path d="m471.5 285.49h-185.9v3.984h185.9v-3.984z" fill="url(#ah)" opacity=".5"/>
<path d="m471.5 297.39h-185.9v3.984h185.9v-3.984z" fill="url(#ag)" opacity=".5"/>
<path d="m471.5 310.29h-185.9v3.984h185.9v-3.984z" fill="url(#af)" opacity=".5"/>
<path d="m471.5 323.2h-185.9v3.984h185.9v-3.984z" fill="url(#ae)" opacity=".5"/>
<path d="m471.5 336.05h-185.9v3.984h185.9v-3.984z" fill="url(#ad)" opacity=".5"/>
</g>
<g opacity=".38">
<path d="m356.19 363.38h-185.9v3.983h185.9v-3.983z" fill="url(#ac)" opacity=".38"/>
<path d="m356.19 376.28h-185.9v3.984h185.9v-3.984z" fill="url(#ab)" opacity=".38"/>
<path d="m357.15 389.13h-185.9v3.983h185.9v-3.983z" fill="url(#aa)" opacity=".38"/>
<path d="m357.15 402.04h-185.9v3.984h185.9v-3.984z" fill="url(#z)" opacity=".38"/>
<path d="m356.19 414.94h-185.9v3.984h185.9v-3.984z" fill="url(#y)" opacity=".38"/>
<path d="m356.19 427.79h-185.9v3.984h185.9v-3.984z" fill="url(#w)" opacity=".38"/>
<path d="m356.19 439.69h-185.9v3.984h185.9v-3.984z" fill="url(#v)" opacity=".38"/>
<path d="m356.19 452.59h-185.9v3.984h185.9v-3.984z" fill="url(#u)" opacity=".38"/>
<path d="m356.19 465.5h-185.9v3.984h185.9v-3.984z" fill="url(#t)" opacity=".38"/>
<path d="m356.19 478.35h-185.9v3.984h185.9v-3.984z" fill="url(#s)" opacity=".38"/>
<path d="m356.08 491.59h-185.9v3.984h185.9v-3.984z" fill="url(#r)" opacity=".38"/>
</g>
<path d="m109.19 170.24-2.918-27.494 12.064-29.403 10.774 30.02-4.096 26.877-7.744-3.647-8.08 3.647z" fill="url(#q)"/>
<path d="m119.85 127.32h-3.198v36.921h3.198v-36.921z" fill="#fff"/>
<path d="m101.39 374.43s18.965-4.152 31.366 0l-4.096-206.71-11.559-2.469-9.483 3.311-6.228 205.87z" fill="url(#p)"/>
<path d="m105.15 250.37h25.138l-1.683-82.652-10.549-4.657-10.493 5.499-2.413 81.81z" fill="url(#o)"/>
<path d="m104.87 248.96s17.619-1.852 25.699 0l-1.235 1.403h-23.062l-1.402-1.403z" fill="#fff"/>
<path d="m104.98 251.66h25.587s1.963-1.346 0-2.581h-25.587s-2.357 1.459 0 2.581z" fill="#fff"/>
<path d="m104.82 246.33h26.484s3.198-0.561 0-1.74c-3.198-1.178-26.036-0.28-26.036-0.28s-4.601 1.683-0.448 2.02z" fill="#fff"/>
<path d="m105.43 241.9h25.25s3.086-0.505 0-1.571-24.801-0.225-24.801-0.225-4.433 1.515-0.449 1.796z" fill="#fff"/>
<path d="m105.43 237.8h25.25s3.086-0.449 0-1.403-24.801-0.224-24.801-0.224-4.433 1.402-0.449 1.627z" fill="#fff"/>
<path d="m107.23 181.35h21.547s2.637-0.449 0-1.403-21.154-0.224-21.154-0.224-3.759 1.347-0.393 1.627z" fill="#fff"/>
<path d="m107.23 177.03h21.547s2.637-0.449 0-1.403-21.154-0.225-21.154-0.225-3.759 1.347-0.393 1.628z" fill="#fff"/>
<path d="m107.06 172.65h21.547s2.637-0.449 0-1.347c-2.638-0.898-21.154-0.224-21.154-0.224s-3.816 1.346-0.393 1.571z" fill="#fff"/>
<path d="m98.924 395.81s8.7531-20.2 36.528-1.74l-4.545 131.13s-15.599 10.829-28.28 0l-3.7031-129.39z" fill="url(#n)"/>
<path d="m98.924 395.3 0.9539-20.2s15.599-7.856 35.574 0v19.358s-17.114-9.932-36.528 0.842z" fill="url(#l)"/>
<path d="m110.6 518.24 6.565 3.423 6.565-3.423v-28.168s-3.198-16.384-3.198-22.276c0-5.891-0.786-49.546-0.786-49.546l2.693-1.851-3.478-19.134h-2.694l-4.545 19.807 2.918 1.234-0.561 50.781s-2.413 20.761-3.479 21.995c-1.066 1.235 0 27.158 0 27.158z" fill="#fff"/>
<path d="m102.35 524.08s13.298 9.931 28.953 0l-1.347 18.573s-12.176 11.334-26.652 0l-0.954-18.573z" fill="url(#k)"/>
<path d="m469.09 144.77h-293.46v28.055h293.46v-28.055z" fill="url(#j)" opacity=".16"/>
<path d="m468.53 177.31h-293.46v28.617h293.46v-28.617z" fill="url(#i)" opacity=".16"/>
</g>
<path d="m445.32 328.17h-48.799l-9.277 27.832h-29.595l50.284-135.08h25.791l50.561 135.08h-29.595l-9.37-27.832zm-41.284-22.544h33.77l-16.978-50.562-16.792 50.562zm142.87 0.928h-22.173v49.448h-27.832v-135.08h50.191c15.957 0 28.265 3.556 36.924 10.669 8.658 7.112 12.988 17.163 12.988 30.151 0 9.216-2.01 16.916-6.03 23.101-3.959 6.123-9.989 11.009-18.091 14.658l29.223 55.2v1.299h-29.873l-25.327-49.448zm-22.173-22.544h22.452c6.988 0 12.4-1.763 16.235-5.288 3.835-3.588 5.752-8.505 5.752-14.751 0-6.371-1.825-11.38-5.474-15.03-3.587-3.649-9.123-5.473-16.606-5.473h-22.359v40.542zm190.56-40.542h-41.377v112.53h-27.832v-112.53h-40.82v-22.544h110.03v22.544zm45.552 112.53h-27.832v-135.08h27.832v135.08zm131.92-44.995c-1.052 14.534-6.433 25.976-16.143 34.326-9.648 8.35-22.389 12.524-38.223 12.524-17.317 0-30.955-5.813-40.913-17.441-9.896-11.689-14.843-27.708-14.843-48.057v-8.256c0-12.989 2.288-24.431 6.865-34.327 4.577-9.895 11.102-17.472 19.575-22.729 8.535-5.319 18.431-7.979 29.687-7.979 15.586 0 28.142 4.175 37.666 12.525 9.525 8.349 15.03 20.07 16.514 35.161h-27.832c-0.68-8.721-3.123-15.029-7.329-18.926-4.144-3.958-10.483-5.937-19.019-5.937-9.277 0-16.235 3.34-20.874 10.019-4.576 6.618-6.927 16.916-7.05 30.894v10.205c0 14.596 2.195 25.265 6.587 32.007 4.453 6.741 11.442 10.112 20.966 10.112 8.597 0 14.999-1.948 19.204-5.845 4.268-3.958 6.711-10.05 7.33-18.276h27.832zm46.108 22.637h59.097v22.358h-86.929v-135.08h27.832v112.72zm156.42-36.182h-53.44v36.182h62.72v22.358h-90.55v-135.08h90.36v22.544h-62.53v32.192h53.44v21.802zm95.65 23.101c0-5.258-1.86-9.278-5.57-12.061-3.71-2.845-10.39-5.814-20.04-8.906-9.64-3.155-17.28-6.247-22.91-9.278-15.34-8.287-23.01-19.451-23.01-33.491 0-7.298 2.04-13.792 6.13-19.482 4.14-5.752 10.05-10.236 17.71-13.452 7.74-3.217 16.39-4.825 25.98-4.825 9.65 0 18.25 1.763 25.79 5.288 7.55 3.464 13.39 8.381 17.54 14.751 4.2 6.371 6.31 13.607 6.31 21.709h-27.84c0-6.184-1.95-10.978-5.84-14.379-3.9-3.464-9.37-5.196-16.42-5.196-6.81 0-12.09 1.454-15.87 4.361-3.77 2.845-5.66 6.617-5.66 11.318 0 4.391 2.2 8.071 6.59 11.04 4.45 2.969 10.98 5.752 19.58 8.35 15.83 4.762 27.36 10.669 34.6 17.719 7.24 7.051 10.86 15.834 10.86 26.348 0 11.689-4.43 20.874-13.27 27.554-8.85 6.618-20.75 9.926-35.72 9.926-10.39 0-19.85-1.886-28.39-5.659-8.53-3.834-15.06-9.061-19.57-15.678-4.46-6.618-6.68-14.288-6.68-23.008h27.92c0 14.905 8.91 22.358 26.72 22.358 6.62 0 11.78-1.33 15.49-3.989 3.71-2.721 5.57-6.494 5.57-11.318z" fill="#fff"/>
<path d="m445.32 328.17h-48.799l-9.277 27.832h-29.595l50.284-135.08h25.791l50.561 135.08h-29.595l-9.37-27.832zm-41.284-22.544h33.77l-16.978-50.562-16.792 50.562zm142.87 0.928h-22.173v49.448h-27.832v-135.08h50.191c15.957 0 28.265 3.556 36.924 10.669 8.658 7.112 12.988 17.163 12.988 30.151 0 9.216-2.01 16.916-6.03 23.101-3.959 6.123-9.989 11.009-18.091 14.658l29.223 55.2v1.299h-29.873l-25.327-49.448zm-22.173-22.544h22.452c6.988 0 12.4-1.763 16.235-5.288 3.835-3.588 5.752-8.505 5.752-14.751 0-6.371-1.825-11.38-5.474-15.03-3.587-3.649-9.123-5.473-16.606-5.473h-22.359v40.542zm190.56-40.542h-41.377v112.53h-27.832v-112.53h-40.82v-22.544h110.03v22.544zm45.552 112.53h-27.832v-135.08h27.832v135.08zm131.92-44.995c-1.052 14.534-6.433 25.976-16.143 34.326-9.648 8.35-22.389 12.524-38.223 12.524-17.317 0-30.955-5.813-40.913-17.441-9.896-11.689-14.843-27.708-14.843-48.057v-8.256c0-12.989 2.288-24.431 6.865-34.327 4.577-9.895 11.102-17.472 19.575-22.729 8.535-5.319 18.431-7.979 29.687-7.979 15.586 0 28.142 4.175 37.666 12.525 9.525 8.349 15.03 20.07 16.514 35.161h-27.832c-0.68-8.721-3.123-15.029-7.329-18.926-4.144-3.958-10.483-5.937-19.019-5.937-9.277 0-16.235 3.34-20.874 10.019-4.576 6.618-6.927 16.916-7.05 30.894v10.205c0 14.596 2.195 25.265 6.587 32.007 4.453 6.741 11.442 10.112 20.966 10.112 8.597 0 14.999-1.948 19.204-5.845 4.268-3.958 6.711-10.05 7.33-18.276h27.832zm46.108 22.637h59.097v22.358h-86.929v-135.08h27.832v112.72zm156.42-36.182h-53.44v36.182h62.72v22.358h-90.55v-135.08h90.36v22.544h-62.53v32.192h53.44v21.802zm95.65 23.101c0-5.258-1.86-9.278-5.57-12.061-3.71-2.845-10.39-5.814-20.04-8.906-9.64-3.155-17.28-6.247-22.91-9.278-15.34-8.287-23.01-19.451-23.01-33.491 0-7.298 2.04-13.792 6.13-19.482 4.14-5.752 10.05-10.236 17.71-13.452 7.74-3.217 16.39-4.825 25.98-4.825 9.65 0 18.25 1.763 25.79 5.288 7.55 3.464 13.39 8.381 17.54 14.751 4.2 6.371 6.31 13.607 6.31 21.709h-27.84c0-6.184-1.95-10.978-5.84-14.379-3.9-3.464-9.37-5.196-16.42-5.196-6.81 0-12.09 1.454-15.87 4.361-3.77 2.845-5.66 6.617-5.66 11.318 0 4.391 2.2 8.071 6.59 11.04 4.45 2.969 10.98 5.752 19.58 8.35 15.83 4.762 27.36 10.669 34.6 17.719 7.24 7.051 10.86 15.834 10.86 26.348 0 11.689-4.43 20.874-13.27 27.554-8.85 6.618-20.75 9.926-35.72 9.926-10.39 0-19.85-1.886-28.39-5.659-8.53-3.834-15.06-9.061-19.57-15.678-4.46-6.618-6.68-14.288-6.68-23.008h27.92c0 14.905 8.91 22.358 26.72 22.358 6.62 0 11.78-1.33 15.49-3.989 3.71-2.721 5.57-6.494 5.57-11.318z" fill="url(#h)"/>
<defs>
<linearGradient id="ai" x1="113.31" x2="455.33" y1="309.66" y2="309.66" gradientUnits="userSpaceOnUse">
<stop stop-color="#D0B7FF" offset="0"/>
<stop stop-color="#9980D1" offset="1"/>
</linearGradient>
<linearGradient id="x" x1="150.67" x2="492.69" y1="278.94" y2="278.94" gradientUnits="userSpaceOnUse">
<stop stop-color="#D0B7FF" offset="0"/>
<stop stop-color="#9980D1" offset="1"/>
</linearGradient>
<linearGradient id="m" x1="168.89" x2="475.26" y1="114.75" y2="114.75" gradientUnits="userSpaceOnUse">
<stop stop-color="#C7AEF7" offset="0"/>
<stop stop-color="#C9A6FA" offset=".49"/>
<stop stop-color="#c9f" offset="1"/>
</linearGradient>
<linearGradient id="g" x1="168.89" x2="475.26" y1="128.78" y2="128.78" gradientUnits="userSpaceOnUse">
<stop stop-color="#C7AEF7" offset="0"/>
<stop stop-color="#C9A6FA" offset=".49"/>
<stop stop-color="#c9f" offset="1"/>
</linearGradient>
<linearGradient id="f" x1="168.89" x2="475.26" y1="350.41" y2="350.41" gradientUnits="userSpaceOnUse">
<stop stop-color="#C7AEF7" offset="0"/>
<stop stop-color="#C9A6FA" offset=".49"/>
<stop stop-color="#c9f" offset="1"/>
</linearGradient>
<linearGradient id="e" x1="285.61" x2="471.5" y1="223.06" y2="223.06" gradientUnits="userSpaceOnUse">
<stop stop-color="#D0B7FF" offset="0"/>
<stop stop-color="#9980D1" offset="1"/>
</linearGradient>
<linearGradient id="d" x1="285.61" x2="471.5" y1="235.95" y2="235.95" gradientUnits="userSpaceOnUse">
<stop stop-color="#D0B7FF" offset="0"/>
<stop stop-color="#9980D1" offset="1"/>
</linearGradient>
<linearGradient id="c" x1="286.56" x2="472.46" y1="248.83" y2="248.83" gradientUnits="userSpaceOnUse">
<stop stop-color="#D0B7FF" offset="0"/>
<stop stop-color="#9980D1" offset="1"/>
</linearGradient>
<linearGradient id="b" x1="286.56" x2="472.46" y1="261.72" y2="261.72" gradientUnits="userSpaceOnUse">
<stop stop-color="#D0B7FF" offset="0"/>
<stop stop-color="#9980D1" offset="1"/>
</linearGradient>
<linearGradient id="a" x1="285.61" x2="471.5" y1="274.61" y2="274.61" gradientUnits="userSpaceOnUse">
<stop stop-color="#D0B7FF" offset="0"/>
<stop stop-color="#9980D1" offset="1"/>
</linearGradient>
<linearGradient id="ah" x1="285.61" x2="471.5" y1="287.49" y2="287.49" gradientUnits="userSpaceOnUse">
<stop stop-color="#D0B7FF" offset="0"/>
<stop stop-color="#9980D1" offset="1"/>
</linearGradient>
<linearGradient id="ag" x1="285.61" x2="471.5" y1="299.39" y2="299.39" gradientUnits="userSpaceOnUse">
<stop stop-color="#D0B7FF" offset="0"/>
<stop stop-color="#9980D1" offset="1"/>
</linearGradient>
<linearGradient id="af" x1="285.61" x2="471.5" y1="312.28" y2="312.28" gradientUnits="userSpaceOnUse">
<stop stop-color="#D0B7FF" offset="0"/>
<stop stop-color="#9980D1" offset="1"/>
</linearGradient>
<linearGradient id="ae" x1="285.61" x2="471.5" y1="325.17" y2="325.17" gradientUnits="userSpaceOnUse">
<stop stop-color="#D0B7FF" offset="0"/>
<stop stop-color="#9980D1" offset="1"/>
</linearGradient>
<linearGradient id="ad" x1="285.61" x2="471.5" y1="338.05" y2="338.05" gradientUnits="userSpaceOnUse">
<stop stop-color="#D0B7FF" offset="0"/>
<stop stop-color="#9980D1" offset="1"/>
</linearGradient>
<linearGradient id="ac" x1="170.29" x2="356.18" y1="365.36" y2="365.36" gradientUnits="userSpaceOnUse">
<stop stop-color="#D0B7FF" offset="0"/>
<stop stop-color="#9980D1" offset="1"/>
</linearGradient>
<linearGradient id="ab" x1="170.29" x2="356.18" y1="378.25" y2="378.25" gradientUnits="userSpaceOnUse">
<stop stop-color="#D0B7FF" offset="0"/>
<stop stop-color="#9980D1" offset="1"/>
</linearGradient>
<linearGradient id="aa" x1="357.14" x2="171.24" y1="391.14" y2="391.14" gradientUnits="userSpaceOnUse">
<stop stop-color="#D0B7FF" offset="0"/>
<stop stop-color="#9980D1" offset="1"/>
</linearGradient>
<linearGradient id="z" x1="357.14" x2="171.24" y1="404.02" y2="404.02" gradientUnits="userSpaceOnUse">
<stop stop-color="#D0B7FF" offset="0"/>
<stop stop-color="#9980D1" offset="1"/>
</linearGradient>
<linearGradient id="y" x1="170.29" x2="356.18" y1="416.91" y2="416.91" gradientUnits="userSpaceOnUse">
<stop stop-color="#D0B7FF" offset="0"/>
<stop stop-color="#9980D1" offset="1"/>
</linearGradient>
<linearGradient id="w" x1="170.29" x2="356.18" y1="429.8" y2="429.8" gradientUnits="userSpaceOnUse">
<stop stop-color="#D0B7FF" offset="0"/>
<stop stop-color="#9980D1" offset="1"/>
</linearGradient>
<linearGradient id="v" x1="356.18" x2="170.29" y1="441.69" y2="441.69" gradientUnits="userSpaceOnUse">
<stop stop-color="#D0B7FF" offset="0"/>
<stop stop-color="#9980D1" offset="1"/>
</linearGradient>
<linearGradient id="u" x1="356.18" x2="170.29" y1="454.58" y2="454.58" gradientUnits="userSpaceOnUse">
<stop stop-color="#D0B7FF" offset="0"/>
<stop stop-color="#9980D1" offset="1"/>
</linearGradient>
<linearGradient id="t" x1="170.29" x2="356.18" y1="467.47" y2="467.47" gradientUnits="userSpaceOnUse">
<stop stop-color="#D0B7FF" offset="0"/>
<stop stop-color="#9980D1" offset="1"/>
</linearGradient>
<linearGradient id="s" x1="170.29" x2="356.18" y1="480.35" y2="480.35" gradientUnits="userSpaceOnUse">
<stop stop-color="#D0B7FF" offset="0"/>
<stop stop-color="#9980D1" offset="1"/>
</linearGradient>
<linearGradient id="r" x1="170.2" x2="356.1" y1="493.56" y2="493.56" gradientUnits="userSpaceOnUse">
<stop stop-color="#D0B7FF" offset="0"/>
<stop stop-color="#9980D1" offset="1"/>
</linearGradient>
<linearGradient id="q" x1="117.71" x2="117.71" y1="170.24" y2="113.34" gradientUnits="userSpaceOnUse">
<stop stop-color="#9980D1" offset="0"/>
<stop stop-color="#A78EDC" offset=".06"/>
<stop stop-color="#B9A0EC" offset=".16"/>
<stop stop-color="#C6ADF7" offset=".28"/>
<stop stop-color="#CEB5FD" offset=".44"/>
<stop stop-color="#D0B7FF" offset=".76"/>
<stop stop-color="#DDCDFA" offset=".83"/>
<stop stop-color="#ECE8F4" offset=".94"/>
<stop stop-color="#F2F2F2" offset="1"/>
</linearGradient>
<linearGradient id="p" x1="101.39" x2="132.75" y1="269.84" y2="269.84" gradientUnits="userSpaceOnUse">
<stop stop-color="#D0B7FF" offset="0"/>
<stop stop-color="#BCA3EE" offset=".2"/>
<stop stop-color="#A990DE" offset=".46"/>
<stop stop-color="#9D84D4" offset=".73"/>
<stop stop-color="#9980D1" offset="1"/>
</linearGradient>
<linearGradient id="o" x1="105.12" x2="130.28" y1="206.71" y2="206.71" gradientUnits="userSpaceOnUse">
<stop stop-color="#D0B7FF" offset="0"/>
<stop stop-color="#BCA3EE" offset=".2"/>
<stop stop-color="#A990DE" offset=".46"/>
<stop stop-color="#9D84D4" offset=".73"/>
<stop stop-color="#9980D1" offset="1"/>
</linearGradient>
<linearGradient id="n" x1="98.918" x2="135.44" y1="458.12" y2="458.12" gradientUnits="userSpaceOnUse">
<stop stop-color="#D0B7FF" offset="0"/>
<stop stop-color="#BCA3EE" offset=".2"/>
<stop stop-color="#A990DE" offset=".46"/>
<stop stop-color="#9D84D4" offset=".73"/>
<stop stop-color="#9980D1" offset="1"/>
</linearGradient>
<linearGradient id="l" x1="98.918" x2="135.44" y1="383.44" y2="383.44" gradientUnits="userSpaceOnUse">
<stop stop-color="#C7AEF7" offset="0"/>
<stop stop-color="#C8ABF8" offset=".47"/>
<stop stop-color="#CAA2FC" offset=".81"/>
<stop stop-color="#c9f" offset="1"/>
</linearGradient>
<linearGradient id="k" x1="102.37" x2="131.3" y1="535.88" y2="535.88" gradientUnits="userSpaceOnUse">
<stop stop-color="#C7AEF7" offset="0"/>
<stop stop-color="#C8ABF8" offset=".47"/>
<stop stop-color="#CAA2FC" offset=".81"/>
<stop stop-color="#c9f" offset="1"/>
</linearGradient>
<linearGradient id="j" x1="175.63" x2="469.09" y1="158.79" y2="158.79" gradientUnits="userSpaceOnUse">
<stop stop-color="#D0B7FF" offset="0"/>
<stop stop-color="#BCA3EE" offset=".2"/>
<stop stop-color="#A990DE" offset=".46"/>
<stop stop-color="#9D84D4" offset=".73"/>
<stop stop-color="#9980D1" offset="1"/>
</linearGradient>
<linearGradient id="i" x1="175.07" x2="468.53" y1="191.62" y2="191.62" gradientUnits="userSpaceOnUse">
<stop stop-color="#D0B7FF" offset="0"/>
<stop stop-color="#BCA3EE" offset=".2"/>
<stop stop-color="#A990DE" offset=".46"/>
<stop stop-color="#9D84D4" offset=".73"/>
<stop stop-color="#9980D1" offset="1"/>
</linearGradient>
<linearGradient id="h" x1="483.42" x2="1195.1" y1="309" y2="309" gradientUnits="userSpaceOnUse">
<stop stop-color="#BC14B8" offset="0"/>
<stop stop-color="#772F8C" offset="1"/>
</linearGradient>
</defs>
</svg>
