<?xml version="1.0" encoding="UTF-8"?>
<svg enable-background="new 0 0 1080 1080" version="1.1" viewBox="0 0 1080 1080" xml:space="preserve" xmlns="http://www.w3.org/2000/svg">
<style type="text/css">
	.st0{fill:url(#x);}
	.st1{fill:#FFFFFF;}
	.st2{opacity:5.000000e-02;enable-background:new    ;}
	.st3{fill:url(#m);}
	.st4{fill:none;stroke:#D7B7FF;stroke-width:2;stroke-miterlimit:10;}
	.st5{fill:#EFDFFF;}
	.st6{fill:#D7B7FF;}
	.st7{fill:url(#g);}
	.st8{fill:url(#f);}
	.st9{fill:url(#e);}
	.st10{opacity:0.8;fill:#FFFFFF;enable-background:new    ;}
	.st11{opacity:0.35;fill:#FFFFFF;stroke:#FFFFFF;stroke-width:2;stroke-miterlimit:10;enable-background:new    ;}
	.st12{opacity:0.5;}
	.st13{fill:url(#d);}
	.st14{fill:url(#c);}
	.st15{fill:url(#b);}
	.st16{fill:url(#a);}
	.st17{fill:url(#ah);}
	.st18{fill:url(#ag);}
	.st19{fill:url(#af);}
	.st20{fill:url(#ae);}
	.st21{fill:url(#ad);}
	.st22{fill:url(#ac);}
	.st23{opacity:0.38;}
	.st24{fill:url(#ab);}
	.st25{fill:url(#aa);}
	.st26{fill:url(#z);}
	.st27{fill:url(#y);}
	.st28{fill:url(#w);}
	.st29{fill:url(#v);}
	.st30{fill:url(#u);}
	.st31{fill:url(#t);}
	.st32{fill:url(#s);}
	.st33{fill:url(#r);}
	.st34{fill:url(#q);}
	.st35{fill:url(#p);}
	.st36{fill:url(#o);}
	.st37{fill:url(#n);}
	.st38{fill:url(#l);}
	.st39{fill:url(#k);}
	.st40{fill:url(#j);}
	.st41{opacity:0.16;fill:url(#i);enable-background:new    ;}
	.st42{opacity:0.16;fill:url(#h);enable-background:new    ;}
</style>
<linearGradient id="x" x1="201.94" x2="811.48" y1="526.02" y2="526.02" gradientTransform="matrix(1 0 0 -1 0 1077.9)" gradientUnits="userSpaceOnUse">
	<stop stop-color="#D0B7FF" offset="0"/>
	<stop stop-color="#9980D1" offset="1"/>
</linearGradient>
<rect class="st0" x="201.9" y="128.7" width="609.5" height="846.3"/>
<rect class="st1" x="216.7" y="140.6" width="578.5" height="821.1"/>
<rect class="st2" x="201.9" y="128.7" width="609.5" height="846.3"/>
<linearGradient id="m" x1="268.52" x2="878.06" y1="580.76" y2="580.76" gradientTransform="matrix(1 0 0 -1 0 1077.9)" gradientUnits="userSpaceOnUse">
	<stop stop-color="#D0B7FF" offset="0"/>
	<stop stop-color="#9980D1" offset="1"/>
</linearGradient>
<rect class="st3" x="268.5" y="74" width="609.5" height="846.3"/>
<rect class="st1" x="283.3" y="85.8" width="578.5" height="821.1"/>
<rect class="st4" x="301" y="211" width="12" height="12"/>
<rect class="st4" x="563.5" y="210.5" width="12" height="12"/>
<rect class="st4" x="831.5" y="210.5" width="12" height="12"/>
<rect class="st5" x="301" y="245" width="546" height="132"/>
<rect class="st6" x="303" y="394" width="188" height="212"/>
<linearGradient id="g" x1="301" x2="847" y1="873.39" y2="873.39" gradientTransform="matrix(1 0 0 -1 0 1077.9)" gradientUnits="userSpaceOnUse">
	<stop stop-color="#C7AEF7" offset="0"/>
	<stop stop-color="#C9A6FA" offset=".49"/>
	<stop stop-color="#c9f" offset="1"/>
</linearGradient>
<rect class="st7" x="301" y="203" width="546" height="3"/>
<linearGradient id="f" x1="301" x2="847" y1="848.39" y2="848.39" gradientTransform="matrix(1 0 0 -1 0 1077.9)" gradientUnits="userSpaceOnUse">
	<stop stop-color="#C7AEF7" offset="0"/>
	<stop stop-color="#C9A6FA" offset=".49"/>
	<stop stop-color="#c9f" offset="1"/>
</linearGradient>
<rect class="st8" x="301" y="228" width="546" height="3"/>
<linearGradient id="e" x1="301" x2="847" y1="453.39" y2="453.39" gradientTransform="matrix(1 0 0 -1 0 1077.9)" gradientUnits="userSpaceOnUse">
	<stop stop-color="#C7AEF7" offset="0"/>
	<stop stop-color="#C9A6FA" offset=".49"/>
	<stop stop-color="#c9f" offset="1"/>
</linearGradient>
<rect class="st9" x="301" y="623" width="546" height="3"/>
<path class="st1" d="m415.2 553-38 0.1c-2.9-0.1-5.4 2.1-5.5 5s2.1 5.4 5 5.5h0.5l38.1-0.1c2.9 0.1 5.4-2.1 5.5-5s-2.1-5.4-5-5.5h-0.6z"/>
<path class="st1" d="m414.4 565.7-38.1 0.1c-2.9 0.1-5.2 2.6-5 5.5 0.1 2.7 2.3 4.9 5 5l38.1-0.1c2.9 0 5.3-2.4 5.3-5.3 0-2.8-2.3-5.2-5.3-5.2z"/>
<path class="st1" d="m386.6 590.3h19.4c5.8 0 10.5-4.7 10.5-10.6l-40.5 0.1c0.1 5.8 4.8 10.5 10.6 10.5z"/>
<path class="st1" d="m395.9 407.2c-33.6 0.1-60.7 27.4-60.6 60.9 0.1 24.1 14.4 45.9 36.6 55.5v18.6c0 3.7 3 6.8 6.8 6.8l35-0.1c3.7 0 6.8-3 6.8-6.8v-18.6c30.7-13.5 44.7-49.3 31.2-80.1-9.7-22-31.6-36.3-55.8-36.2zm18.1 111.2v16.4c0 3.3-2.2 6-4.9 6h-25.6c-2.7 0-5-2.7-5-6v-16.4c-15.7-8.3-35.1-28.3-35.1-50.4-0.1-29.7 28.1-52.7 52.7-52.8s52.6 22.8 52.6 52.5c0 22.2-19 42.3-34.7 50.7z"/>
<rect class="st6" x="654" y="649" width="188" height="233"/>
<path class="st10" d="m747.2 821-4.7-0.1c-0.8-7.3-3.8-14.2-8.8-19.7l3.3-3.7c1-1.1 0.9-2.7-0.2-3.7l-4.9-4.4c-1.1-1-2.7-0.9-3.7 0.2l-3.8 4.3c-3.3-1.8-7-3.1-10.7-3.7v-5.6c0-1.5-1.2-2.6-2.6-2.6h-6.6c-1.4 0-2.6 1.2-2.6 2.6v5.6c-5.4 0.9-10.6 3.1-15 6.4l-3.8-3.5c-1.1-1-2.7-0.9-3.7 0.1l-4.5 4.8c-1 1.1-0.9 2.7 0.1 3.7l3.7 3.4c-3 4.4-4.9 9.5-5.6 14.8l-5.9-0.1c-1.5 0-2.6 1.1-2.7 2.6l-0.1 6.6c0 1.5 1.1 2.6 2.6 2.7l6.5 0.1c1 4.5 2.8 8.8 5.4 12.6l-4.2 4.7c-1 1.1-0.9 2.7 0.2 3.7l4.9 4.4c1.1 1 2.7 0.9 3.7-0.2l3.7-4.1c4.3 3.1 9.3 5.2 14.5 6.1v5.6c0 1.5 1.2 2.6 2.6 2.6h6.5c1.5 0 2.6-1.2 2.6-2.6v-5.6c5.8-1 11.2-3.4 15.8-7l4.4 4c1.1 1 2.7 0.9 3.7-0.1l4.5-4.8c1-1.1 0.9-2.7-0.1-3.7l-4.5-4.1c2-3.2 3.5-6.7 4.4-10.4l5.3 0.1c1.5 0 2.6-1.1 2.7-2.6l0.1-6.6c0.1-1.6-1.1-2.8-2.5-2.8zm-39.5 26.7c-12.8 0-23.1-10.3-23.1-23.1s10.3-23.1 23.1-23.1 23.1 10.3 23.1 23.1-10.3 23.1-23.1 23.1z"/>
<path class="st11" d="m826 750.3-7.3-0.1c-1.2-11.5-5.9-22.3-13.6-30.9l5.2-5.8c1.5-1.7 1.4-4.3-0.3-5.8l-7.6-6.9c-1.6-1.5-4.2-1.4-5.7 0.2l-0.1 0.1-5.9 6.7c-5.2-2.9-10.8-4.8-16.6-5.8v-8.8c0-2.3-1.8-4.1-4.1-4.1h-10.2c-2.3 0-4.1 1.9-4.1 4.1v8.8c-8.4 1.5-16.3 4.9-23.1 10.1l-5.9-5.6c-1.6-1.5-4.1-1.5-5.7 0.1l-0.1 0.1-6.9 7.6c-1.5 1.7-1.4 4.3 0.2 5.8l5.7 5.4c-4.6 7-7.6 14.9-8.6 23.2l-9.2-0.1c-2.3 0-4.1 1.8-4.1 4.1v10.3c-0.1 2.3 1.7 4.1 4 4.2l10.1 0.1c1.5 7.1 4.3 13.9 8.4 19.9l-6.5 7.3c-1.5 1.7-1.4 4.3 0.3 5.8l7.6 6.9c1.6 1.5 4.1 1.4 5.7-0.2l0.1-0.1 5.7-6.5c6.6 4.9 14.3 8.2 22.5 9.6v8.8c0 2.3 1.8 4.1 4.1 4.1h10.2c2.3 0 4.1-1.9 4.1-4.1v-8.8c8.9-1.6 17.3-5.4 24.4-11.1l6.8 6.3c1.6 1.5 4.1 1.5 5.7-0.1l0.1-0.1 6.9-7.6c1.5-1.7 1.4-4.3-0.2-5.8l-7-6.5c3.1-5.1 5.4-10.6 6.8-16.4l8.2 0.1c2.3 0 4.1-1.8 4.1-4.1l0.1-10.3c-0.2-2.2-2-4-4.2-4.1zm-61 42c-19.7 0-35.7-16.3-35.7-36.3s16-36.3 35.7-36.3 35.7 16.3 35.7 36.3-16 36.3-35.7 36.3z"/>
<path class="st10" d="m742.3 683.5h-3.3c-0.5-5.1-2.7-10-6.2-13.8l2.3-2.6c0.7-0.8 0.6-1.9-0.1-2.6l-3.4-3.1c-0.8-0.7-1.9-0.6-2.6 0.1l-2.7 3c-2.3-1.3-4.9-2.2-7.5-2.6v-4c0-1-0.8-1.8-1.8-1.8h-4.6c-1 0-1.8 0.8-1.8 1.8v3.9c-3.8 0.7-7.4 2.2-10.4 4.5l-2.7-2.5c-0.7-0.7-1.9-0.6-2.6 0.1l-3.1 3.4c-0.7 0.8-0.6 1.9 0.1 2.6l2.6 2.4c-2.1 3.1-3.4 6.7-3.9 10.4l-4.2-0.1c-1 0-1.9 0.8-1.9 1.8l-0.1 4.6c0 1 0.8 1.9 1.8 1.9l4.6 0.1c0.7 3.2 2 6.2 3.8 8.9l-3 3.3c-0.7 0.8-0.6 1.9 0.1 2.6l3.4 3.1c0.8 0.7 1.9 0.6 2.6-0.1l2.6-2.9c3 2.2 6.5 3.7 10.2 4.3v3.9c0 1 0.8 1.8 1.8 1.8h4.6c1 0 1.8-0.8 1.8-1.8v-3.9c4-0.7 7.8-2.4 11.1-4.9l3.1 2.8c0.8 0.7 1.9 0.6 2.6-0.1l3.1-3.4c0.7-0.8 0.6-1.9-0.1-2.6l-3.2-2.9c1.4-2.3 2.5-4.7 3.1-7.3h3.7c1 0 1.8-0.8 1.8-1.8l0.1-4.6c0.1-1-0.7-1.8-1.7-1.9zm-27.7 18.8c-8.9 0-16.2-7.3-16.2-16.2s7.3-16.2 16.2-16.2 16.2 7.3 16.2 16.2-7.3 16.2-16.2 16.2z"/>
<g class="st12">
		<linearGradient id="d" x1="509" x2="840.3" y1="680.35" y2="680.35" gradientTransform="matrix(1 0 0 -1 0 1077.9)" gradientUnits="userSpaceOnUse">
		<stop stop-color="#D0B7FF" offset="0"/>
		<stop stop-color="#9980D1" offset="1"/>
	</linearGradient>
	<rect class="st13" x="509" y="394" width="331.3" height="7.1"/>
		<linearGradient id="c" x1="509" x2="840.3" y1="657.38" y2="657.38" gradientTransform="matrix(1 0 0 -1 0 1077.9)" gradientUnits="userSpaceOnUse">
		<stop stop-color="#D0B7FF" offset="0"/>
		<stop stop-color="#9980D1" offset="1"/>
	</linearGradient>
	<rect class="st14" x="509" y="417" width="331.3" height="7.1"/>
		<linearGradient id="b" x1="510.7" x2="842" y1="634.42" y2="634.42" gradientTransform="matrix(1 0 0 -1 0 1077.9)" gradientUnits="userSpaceOnUse">
		<stop stop-color="#D0B7FF" offset="0"/>
		<stop stop-color="#9980D1" offset="1"/>
	</linearGradient>
	<rect class="st15" x="510.7" y="439.9" width="331.3" height="7.1"/>
		<linearGradient id="a" x1="510.7" x2="842" y1="611.45" y2="611.45" gradientTransform="matrix(1 0 0 -1 0 1077.9)" gradientUnits="userSpaceOnUse">
		<stop stop-color="#D0B7FF" offset="0"/>
		<stop stop-color="#9980D1" offset="1"/>
	</linearGradient>
	<rect class="st16" x="510.7" y="462.9" width="331.3" height="7.1"/>
		<linearGradient id="ah" x1="509" x2="840.3" y1="588.48" y2="588.48" gradientTransform="matrix(1 0 0 -1 0 1077.9)" gradientUnits="userSpaceOnUse">
		<stop stop-color="#D0B7FF" offset="0"/>
		<stop stop-color="#9980D1" offset="1"/>
	</linearGradient>
	<rect class="st17" x="509" y="485.9" width="331.3" height="7.1"/>
		<linearGradient id="ag" x1="509" x2="840.3" y1="565.52" y2="565.52" gradientTransform="matrix(1 0 0 -1 0 1077.9)" gradientUnits="userSpaceOnUse">
		<stop stop-color="#D0B7FF" offset="0"/>
		<stop stop-color="#9980D1" offset="1"/>
	</linearGradient>
	<rect class="st18" x="509" y="508.8" width="331.3" height="7.1"/>
		<linearGradient id="af" x1="509" x2="840.3" y1="544.32" y2="544.32" gradientTransform="matrix(1 0 0 -1 0 1077.9)" gradientUnits="userSpaceOnUse">
		<stop stop-color="#D0B7FF" offset="0"/>
		<stop stop-color="#9980D1" offset="1"/>
	</linearGradient>
	<rect class="st19" x="509" y="530" width="331.3" height="7.1"/>
		<linearGradient id="ae" x1="509" x2="840.3" y1="521.35" y2="521.35" gradientTransform="matrix(1 0 0 -1 0 1077.9)" gradientUnits="userSpaceOnUse">
		<stop stop-color="#D0B7FF" offset="0"/>
		<stop stop-color="#9980D1" offset="1"/>
	</linearGradient>
	<rect class="st20" x="509" y="553" width="331.3" height="7.1"/>
		<linearGradient id="ad" x1="509" x2="840.3" y1="498.38" y2="498.38" gradientTransform="matrix(1 0 0 -1 0 1077.9)" gradientUnits="userSpaceOnUse">
		<stop stop-color="#D0B7FF" offset="0"/>
		<stop stop-color="#9980D1" offset="1"/>
	</linearGradient>
	<rect class="st21" x="509" y="576" width="331.3" height="7.1"/>
		<linearGradient id="ac" x1="509" x2="840.3" y1="475.42" y2="475.42" gradientTransform="matrix(1 0 0 -1 0 1077.9)" gradientUnits="userSpaceOnUse">
		<stop stop-color="#D0B7FF" offset="0"/>
		<stop stop-color="#9980D1" offset="1"/>
	</linearGradient>
	<rect class="st22" x="509" y="598.9" width="331.3" height="7.1"/>
</g>
<g class="st23">
		<linearGradient id="ab" x1="303.48" x2="634.78" y1="426.74" y2="426.74" gradientTransform="matrix(1 0 0 -1 0 1077.9)" gradientUnits="userSpaceOnUse">
		<stop stop-color="#D0B7FF" offset="0"/>
		<stop stop-color="#9980D1" offset="1"/>
	</linearGradient>
	<rect class="st24" x="303.5" y="647.6" width="331.3" height="7.1"/>
		<linearGradient id="aa" x1="303.48" x2="634.78" y1="403.77" y2="403.77" gradientTransform="matrix(1 0 0 -1 0 1077.9)" gradientUnits="userSpaceOnUse">
		<stop stop-color="#D0B7FF" offset="0"/>
		<stop stop-color="#9980D1" offset="1"/>
	</linearGradient>
	<rect class="st25" x="303.5" y="670.6" width="331.3" height="7.1"/>
		<linearGradient id="z" x1="850.52" x2="1181.8" y1="380.81" y2="380.81" gradientTransform="matrix(-1 0 0 -1 1487 1077.9)" gradientUnits="userSpaceOnUse">
		<stop stop-color="#D0B7FF" offset="0"/>
		<stop stop-color="#9980D1" offset="1"/>
	</linearGradient>
	<rect class="st26" x="305.2" y="693.5" width="331.3" height="7.1"/>
		<linearGradient id="y" x1="850.52" x2="1181.8" y1="357.85" y2="357.85" gradientTransform="matrix(-1 0 0 -1 1487 1077.9)" gradientUnits="userSpaceOnUse">
		<stop stop-color="#D0B7FF" offset="0"/>
		<stop stop-color="#9980D1" offset="1"/>
	</linearGradient>
	<rect class="st27" x="305.2" y="716.5" width="331.3" height="7.1"/>
		<linearGradient id="w" x1="303.48" x2="634.78" y1="334.87" y2="334.87" gradientTransform="matrix(1 0 0 -1 0 1077.9)" gradientUnits="userSpaceOnUse">
		<stop stop-color="#D0B7FF" offset="0"/>
		<stop stop-color="#9980D1" offset="1"/>
	</linearGradient>
	<rect class="st28" x="303.5" y="739.5" width="331.3" height="7.1"/>
		<linearGradient id="v" x1="303.48" x2="634.78" y1="311.91" y2="311.91" gradientTransform="matrix(1 0 0 -1 0 1077.9)" gradientUnits="userSpaceOnUse">
		<stop stop-color="#D0B7FF" offset="0"/>
		<stop stop-color="#9980D1" offset="1"/>
	</linearGradient>
	<rect class="st29" x="303.5" y="762.4" width="331.3" height="7.1"/>
		<linearGradient id="u" x1="852.22" x2="1183.5" y1="290.71" y2="290.71" gradientTransform="matrix(-1 0 0 -1 1487 1077.9)" gradientUnits="userSpaceOnUse">
		<stop stop-color="#D0B7FF" offset="0"/>
		<stop stop-color="#9980D1" offset="1"/>
	</linearGradient>
	<rect class="st30" x="303.5" y="783.6" width="331.3" height="7.1"/>
		<linearGradient id="t" x1="852.22" x2="1183.5" y1="267.75" y2="267.75" gradientTransform="matrix(-1 0 0 -1 1487 1077.9)" gradientUnits="userSpaceOnUse">
		<stop stop-color="#D0B7FF" offset="0"/>
		<stop stop-color="#9980D1" offset="1"/>
	</linearGradient>
	<rect class="st31" x="303.5" y="806.6" width="331.3" height="7.1"/>
		<linearGradient id="s" x1="303.48" x2="634.78" y1="244.77" y2="244.77" gradientTransform="matrix(1 0 0 -1 0 1077.9)" gradientUnits="userSpaceOnUse">
		<stop stop-color="#D0B7FF" offset="0"/>
		<stop stop-color="#9980D1" offset="1"/>
	</linearGradient>
	<rect class="st32" x="303.5" y="829.6" width="331.3" height="7.1"/>
		<linearGradient id="r" x1="303.48" x2="634.78" y1="221.81" y2="221.81" gradientTransform="matrix(1 0 0 -1 0 1077.9)" gradientUnits="userSpaceOnUse">
		<stop stop-color="#D0B7FF" offset="0"/>
		<stop stop-color="#9980D1" offset="1"/>
	</linearGradient>
	<rect class="st33" x="303.5" y="852.5" width="331.3" height="7.1"/>
		<linearGradient id="q" x1="303.33" x2="634.63" y1="198.27" y2="198.27" gradientTransform="matrix(1 0 0 -1 0 1077.9)" gradientUnits="userSpaceOnUse">
		<stop stop-color="#D0B7FF" offset="0"/>
		<stop stop-color="#9980D1" offset="1"/>
	</linearGradient>
	<rect class="st34" x="303.3" y="876.1" width="331.3" height="7.1"/>
</g>
<linearGradient id="p" x1="209.78" x2="209.78" y1="774.5" y2="875.89" gradientTransform="matrix(1 0 0 -1 0 1077.9)" gradientUnits="userSpaceOnUse">
	<stop stop-color="#9980D1" offset="0"/>
	<stop stop-color="#A78EDC" offset=".06"/>
	<stop stop-color="#B9A0EC" offset=".16"/>
	<stop stop-color="#C6ADF7" offset=".28"/>
	<stop stop-color="#CEB5FD" offset=".44"/>
	<stop stop-color="#D0B7FF" offset=".76"/>
	<stop stop-color="#DDCDFA" offset=".83"/>
	<stop stop-color="#ECE8F4" offset=".94"/>
	<stop stop-color="#F2F2F2" offset="1"/>
</linearGradient>
<polygon class="st35" points="194.6 303.4 189.4 254.4 210.9 202 230.1 255.5 222.8 303.4 209 296.9"/>
<rect class="st1" x="207.9" y="226.9" width="5.7" height="65.8"/>
<linearGradient id="o" x1="180.7" x2="236.59" y1="596.98" y2="596.98" gradientTransform="matrix(1 0 0 -1 0 1077.9)" gradientUnits="userSpaceOnUse">
	<stop stop-color="#D0B7FF" offset="0"/>
	<stop stop-color="#BCA3EE" offset=".2"/>
	<stop stop-color="#A990DE" offset=".46"/>
	<stop stop-color="#9D84D4" offset=".73"/>
	<stop stop-color="#9980D1" offset="1"/>
</linearGradient>
<path class="st36" d="m180.7 667.3s33.8-7.4 55.9 0l-7.3-368.4-20.6-4.4-16.9 5.9-11.1 366.9z"/>
<linearGradient id="n" x1="187.35" x2="232.18" y1="709.49" y2="709.49" gradientTransform="matrix(1 0 0 -1 0 1077.9)" gradientUnits="userSpaceOnUse">
	<stop stop-color="#D0B7FF" offset="0"/>
	<stop stop-color="#BCA3EE" offset=".2"/>
	<stop stop-color="#A990DE" offset=".46"/>
	<stop stop-color="#9D84D4" offset=".73"/>
	<stop stop-color="#9980D1" offset="1"/>
</linearGradient>
<polygon class="st37" points="187.4 446.2 232.2 446.2 229.2 298.9 210.4 290.6 191.7 300.4"/>
<path class="st1" d="m186.9 443.7s31.4-3.3 45.8 0l-2.2 2.5h-41.1l-2.5-2.5z"/>
<path class="st1" d="m187.1 448.5h45.6s3.5-2.4 0-4.6h-45.6s-4.2 2.6 0 4.6z"/>
<path class="st1" d="m186.8 439h47.2s5.7-1 0-3.1-46.4-0.5-46.4-0.5-8.2 3-0.8 3.6z"/>
<path class="st1" d="m187.9 431.1h45s5.5-0.9 0-2.8-44.2-0.4-44.2-0.4-7.9 2.7-0.8 3.2z"/>
<path class="st1" d="m187.9 423.8h45s5.5-0.8 0-2.5-44.2-0.4-44.2-0.4-7.9 2.5-0.8 2.9z"/>
<path class="st1" d="m191.1 323.2h38.4s4.7-0.8 0-2.5-37.7-0.4-37.7-0.4-6.7 2.4-0.7 2.9z"/>
<path class="st1" d="m191.1 315.5h38.4s4.7-0.8 0-2.5-37.7-0.4-37.7-0.4-6.7 2.4-0.7 2.9z"/>
<path class="st1" d="m190.8 307.7h38.4s4.7-0.8 0-2.4-37.7-0.4-37.7-0.4-6.8 2.4-0.7 2.8z"/>
<linearGradient id="l" x1="176.29" x2="241.37" y1="261.43" y2="261.43" gradientTransform="matrix(1 0 0 -1 0 1077.9)" gradientUnits="userSpaceOnUse">
	<stop stop-color="#D0B7FF" offset="0"/>
	<stop stop-color="#BCA3EE" offset=".2"/>
	<stop stop-color="#A990DE" offset=".46"/>
	<stop stop-color="#9D84D4" offset=".73"/>
	<stop stop-color="#9980D1" offset="1"/>
</linearGradient>
<path class="st38" d="m176.3 705.4s15.6-36 65.1-3.1l-8.1 233.7s-27.8 19.3-50.4 0l-6.6-230.6z"/>
<linearGradient id="k" x1="176.29" x2="241.37" y1="394.53" y2="394.53" gradientTransform="matrix(1 0 0 -1 0 1077.9)" gradientUnits="userSpaceOnUse">
	<stop stop-color="#C7AEF7" offset="0"/>
	<stop stop-color="#C8ABF8" offset=".47"/>
	<stop stop-color="#CAA2FC" offset=".81"/>
	<stop stop-color="#c9f" offset="1"/>
</linearGradient>
<path class="st39" d="m176.3 704.5 1.7-36s27.8-14 63.4 0v34.5s-30.5-17.7-65.1 1.5z"/>
<path class="st1" d="m197.1 923.6 11.7 6.1 11.7-6.1v-50.2s-5.7-29.2-5.7-39.7-1.4-88.3-1.4-88.3l4.8-3.3-6.2-34.1h-4.8l-8.1 35.3 5.2 2.2-1 90.5s-4.3 37-6.2 39.2 0 48.4 0 48.4z"/>
<linearGradient id="j" x1="182.44" x2="234" y1="122.85" y2="122.85" gradientTransform="matrix(1 0 0 -1 0 1077.9)" gradientUnits="userSpaceOnUse">
	<stop stop-color="#C7AEF7" offset="0"/>
	<stop stop-color="#C8ABF8" offset=".47"/>
	<stop stop-color="#CAA2FC" offset=".81"/>
	<stop stop-color="#c9f" offset="1"/>
</linearGradient>
<path class="st40" d="m182.4 934s23.7 17.7 51.6 0l-2.4 33.1s-21.7 20.2-47.5 0l-1.7-33.1z"/>
<linearGradient id="i" x1="313" x2="836" y1="794.89" y2="794.89" gradientTransform="matrix(1 0 0 -1 0 1077.9)" gradientUnits="userSpaceOnUse">
	<stop stop-color="#D0B7FF" offset="0"/>
	<stop stop-color="#BCA3EE" offset=".2"/>
	<stop stop-color="#A990DE" offset=".46"/>
	<stop stop-color="#9D84D4" offset=".73"/>
	<stop stop-color="#9980D1" offset="1"/>
</linearGradient>
<rect class="st41" x="313" y="258" width="523" height="50"/>
<linearGradient id="h" x1="312" x2="835" y1="736.39" y2="736.39" gradientTransform="matrix(1 0 0 -1 0 1077.9)" gradientUnits="userSpaceOnUse">
	<stop stop-color="#D0B7FF" offset="0"/>
	<stop stop-color="#BCA3EE" offset=".2"/>
	<stop stop-color="#A990DE" offset=".46"/>
	<stop stop-color="#9D84D4" offset=".73"/>
	<stop stop-color="#9980D1" offset="1"/>
</linearGradient>
<rect class="st42" x="312" y="316" width="523" height="51"/>
</svg>
