<?xml version="1.0" encoding="utf-8"?>
<!-- Generator: Adobe Illustrator 24.2.0, SVG Export Plug-In . SVG Version: 6.00 Build 0)  -->
<svg version="1.1" xmlns="http://www.w3.org/2000/svg" xmlns:xlink="http://www.w3.org/1999/xlink" x="0px" y="0px"
	 viewBox="0 0 500 500" style="enable-background:new 0 0 500 500;" xml:space="preserve">
<style type="text/css">
	.st0{opacity:0.3;}
	.st1{fill:url(#SVGID_1_);}
	.st2{fill:#FFFFFF;}
	.st3{opacity:5.000000e-02;enable-background:new    ;}
	.st4{fill:url(#SVGID_2_);}
	.st5{fill:none;stroke:#D7B7FF;stroke-width:2;stroke-miterlimit:10;}
	.st6{fill:#EFDFFF;}
	.st7{fill:#D7B7FF;}
	.st8{fill:url(#SVGID_3_);}
	.st9{fill:url(#SVGID_4_);}
	.st10{fill:url(#SVGID_5_);}
	.st11{opacity:0.8;fill:#FFFFFF;enable-background:new    ;}
	.st12{opacity:0.35;fill:#FFFFFF;stroke:#FFFFFF;stroke-width:2;stroke-miterlimit:10;enable-background:new    ;}
	.st13{opacity:0.5;}
	.st14{opacity:0.5;fill:url(#SVGID_6_);enable-background:new    ;}
	.st15{opacity:0.5;fill:url(#SVGID_7_);enable-background:new    ;}
	.st16{opacity:0.5;fill:url(#SVGID_8_);enable-background:new    ;}
	.st17{opacity:0.5;fill:url(#SVGID_9_);enable-background:new    ;}
	.st18{opacity:0.5;fill:url(#SVGID_10_);enable-background:new    ;}
	.st19{opacity:0.5;fill:url(#SVGID_11_);enable-background:new    ;}
	.st20{opacity:0.5;fill:url(#SVGID_12_);enable-background:new    ;}
	.st21{opacity:0.5;fill:url(#SVGID_13_);enable-background:new    ;}
	.st22{opacity:0.5;fill:url(#SVGID_14_);enable-background:new    ;}
	.st23{opacity:0.5;fill:url(#SVGID_15_);enable-background:new    ;}
	.st24{opacity:0.38;}
	.st25{opacity:0.38;fill:url(#SVGID_16_);enable-background:new    ;}
	.st26{opacity:0.38;fill:url(#SVGID_17_);enable-background:new    ;}
	.st27{opacity:0.38;fill:url(#SVGID_18_);enable-background:new    ;}
	.st28{opacity:0.38;fill:url(#SVGID_19_);enable-background:new    ;}
	.st29{opacity:0.38;fill:url(#SVGID_20_);enable-background:new    ;}
	.st30{opacity:0.38;fill:url(#SVGID_21_);enable-background:new    ;}
	.st31{opacity:0.38;fill:url(#SVGID_22_);enable-background:new    ;}
	.st32{opacity:0.38;fill:url(#SVGID_23_);enable-background:new    ;}
	.st33{opacity:0.38;fill:url(#SVGID_24_);enable-background:new    ;}
	.st34{opacity:0.38;fill:url(#SVGID_25_);enable-background:new    ;}
	.st35{opacity:0.38;fill:url(#SVGID_26_);enable-background:new    ;}
	.st36{fill:url(#SVGID_27_);}
	.st37{fill:url(#SVGID_28_);}
	.st38{fill:url(#SVGID_29_);}
	.st39{fill:url(#SVGID_30_);}
	.st40{fill:url(#SVGID_31_);}
	.st41{fill:url(#SVGID_32_);}
	.st42{opacity:0.16;fill:url(#SVGID_33_);enable-background:new    ;}
	.st43{opacity:0.16;fill:url(#SVGID_34_);enable-background:new    ;}
	.st44{fill:url(#SVGID_35_);}
</style>
<g id="BACKGROUND">
	<g class="st0">
		
			<linearGradient id="SVGID_1_" gradientUnits="userSpaceOnUse" x1="224.2998" y1="345.1575" x2="82.3922" y2="345.167" gradientTransform="matrix(1 0 0 -1 8.410366e-06 500.1102)">
			<stop  offset="0" style="stop-color:#D0B7FF"/>
			<stop  offset="1" style="stop-color:#9980D1"/>
		</linearGradient>
		<path class="st1" d="M82.4,56.4l141.9,0l0,197l-141.9,0L82.4,56.4z"/>
		<path class="st2" d="M86.2,59.2l134.7,0l0,191.2l-134.7,0L86.2,59.2z"/>
		<path class="st3" d="M82.4,56.4l141.9,0l0,197l-141.9,0L82.4,56.4z"/>
		
			<linearGradient id="SVGID_2_" gradientUnits="userSpaceOnUse" x1="-37896.3281" y1="360.3484" x2="-124394.6875" y2="365.9" gradientTransform="matrix(1 0 0 -1 8.410366e-06 500.1102)">
			<stop  offset="0" style="stop-color:#D0B7FF"/>
			<stop  offset="1" style="stop-color:#9980D1"/>
		</linearGradient>
		<path class="st4" d="M66.9,43.7l141.9,0l0,197l-141.9,0L66.9,43.7z"/>
		<path class="st2" d="M70.7,46.4l134.7,0l0,191.2l-134.7,0L70.7,46.4z"/>
		<path class="st5" d="M198.4,75.6h2.8l0,2.8h-2.8L198.4,75.6z"/>
		<path class="st5" d="M137.3,75.5l2.8,0v2.8h-2.8V75.5z"/>
		<path class="st5" d="M74.9,75.5h2.8v2.8h-2.8V75.5z"/>
		<path class="st6" d="M74.1,83.5l127.1,0l0,30.7l-127.1,0L74.1,83.5z"/>
		<path class="st7" d="M157,118.2l43.8,0l0,49.4l-43.8,0L157,118.2z"/>
		
			<linearGradient id="SVGID_3_" gradientUnits="userSpaceOnUse" x1="201.243" y1="426.0305" x2="74.1283" y2="426.0388" gradientTransform="matrix(1 0 0 -1 8.410366e-06 500.1102)">
			<stop  offset="0" style="stop-color:#C7AEF7"/>
			<stop  offset="0.49" style="stop-color:#C9A6FA"/>
			<stop  offset="1" style="stop-color:#CC99FF"/>
		</linearGradient>
		<path class="st8" d="M74.1,73.7l127.1,0v0.7l-127.1,0V73.7z"/>
		
			<linearGradient id="SVGID_4_" gradientUnits="userSpaceOnUse" x1="201.2426" y1="420.2102" x2="74.1279" y2="420.2186" gradientTransform="matrix(1 0 0 -1 8.410366e-06 500.1102)">
			<stop  offset="0" style="stop-color:#C7AEF7"/>
			<stop  offset="0.49" style="stop-color:#C9A6FA"/>
			<stop  offset="1" style="stop-color:#CC99FF"/>
		</linearGradient>
		<path class="st9" d="M74.1,79.5l127.1,0v0.7l-127.1,0V79.5z"/>
		
			<linearGradient id="SVGID_5_" gradientUnits="userSpaceOnUse" x1="201.2366" y1="328.2502" x2="74.1219" y2="328.2581" gradientTransform="matrix(1 0 0 -1 8.410366e-06 500.1102)">
			<stop  offset="0" style="stop-color:#C7AEF7"/>
			<stop  offset="0.49" style="stop-color:#C9A6FA"/>
			<stop  offset="1" style="stop-color:#CC99FF"/>
		</linearGradient>
		<path class="st10" d="M74.1,171.5l127.1,0v0.7l-127.1,0V171.5z"/>
		<path class="st2" d="M174.6,155.2l8.9,0c0.2,0,0.3,0,0.5,0.1c0.2,0.1,0.3,0.1,0.4,0.3c0.1,0.1,0.2,0.3,0.3,0.4
			c0.1,0.2,0.1,0.3,0.1,0.5c0,0.2,0,0.3-0.1,0.5c-0.1,0.2-0.2,0.3-0.3,0.4c-0.1,0.1-0.3,0.2-0.4,0.3c-0.2,0.1-0.3,0.1-0.5,0.1
			l-8.9,0c-0.2,0-0.3,0-0.5-0.1c-0.2-0.1-0.3-0.1-0.4-0.3c-0.1-0.1-0.2-0.3-0.3-0.4c-0.1-0.2-0.1-0.3-0.1-0.5s0-0.3,0.1-0.5
			c0.1-0.2,0.2-0.3,0.3-0.4c0.1-0.1,0.3-0.2,0.4-0.3C174.3,155.2,174.5,155.2,174.6,155.2L174.6,155.2z"/>
		<path class="st2" d="M174.8,158.2l8.9,0c0.3,0,0.6,0.1,0.8,0.4c0.2,0.2,0.3,0.5,0.3,0.8c0,0.3-0.1,0.6-0.3,0.9
			c-0.2,0.2-0.5,0.4-0.8,0.4l-8.9,0c-0.3,0-0.6-0.1-0.9-0.4c-0.2-0.2-0.4-0.5-0.4-0.9c0-0.3,0.1-0.6,0.4-0.9
			C174.2,158.3,174.5,158.2,174.8,158.2L174.8,158.2z"/>
		<path class="st2" d="M181.3,163.9l-4.5,0c-0.3,0-0.6-0.1-0.9-0.2c-0.3-0.1-0.6-0.3-0.8-0.5c-0.2-0.2-0.4-0.5-0.5-0.8
			c-0.1-0.3-0.2-0.6-0.2-0.9l9.4,0c0,0.7-0.3,1.3-0.7,1.7S182,163.9,181.3,163.9z"/>
		<path class="st2" d="M179.1,121.3c3.2,0,6.4,1.1,8.9,3.2c2.5,2.1,4.2,4.9,4.9,8.1c0.7,3.2,0.2,6.5-1.3,9.4
			c-1.5,2.9-3.9,5.2-6.9,6.5v4.3c0,0.4-0.2,0.8-0.5,1.1c-0.3,0.3-0.7,0.5-1.1,0.5l-8.2,0c-0.4,0-0.8-0.2-1.1-0.5
			c-0.3-0.3-0.5-0.7-0.5-1.1v-4.3c-3-1.3-5.4-3.6-6.9-6.5c-1.5-2.9-1.9-6.2-1.3-9.4c0.7-3.2,2.4-6,4.9-8.1
			C172.7,122.4,175.9,121.3,179.1,121.3L179.1,121.3z M174.9,147.1l0,3.8c0,0.8,0.5,1.4,1.1,1.4l6,0c0.6,0,1.2-0.6,1.2-1.4l0-3.8
			c3.7-1.9,8.2-6.6,8.2-11.7c0-6.9-6.6-12.3-12.3-12.3c-5.7,0-12.2,5.3-12.3,12.2C166.8,140.5,171.3,145.2,174.9,147.1L174.9,147.1z
			"/>
		<path class="st7" d="M75.3,177.6l43.8,0l0,54.2l-43.8,0L75.3,177.6z"/>
		<path class="st11" d="M97.4,217.6l1.1,0c0.2-1.7,0.9-3.3,2-4.6l-0.8-0.9c-0.1-0.1-0.2-0.3-0.2-0.4c0-0.2,0.1-0.3,0.2-0.4l1.1-1
			c0.1-0.1,0.3-0.2,0.4-0.2c0.2,0,0.3,0.1,0.4,0.2l0.9,1c0.8-0.4,1.6-0.7,2.5-0.9v-1.3c0-0.1,0-0.2,0-0.2c0-0.1,0.1-0.1,0.1-0.2
			c0.1-0.1,0.1-0.1,0.2-0.1c0.1,0,0.2,0,0.2,0l1.5,0c0.1,0,0.2,0,0.2,0c0.1,0,0.1,0.1,0.2,0.1c0.1,0.1,0.1,0.1,0.1,0.2
			c0,0.1,0,0.2,0,0.2v1.3c1.3,0.2,2.5,0.7,3.5,1.5l0.9-0.8c0.1-0.1,0.3-0.2,0.4-0.2c0.2,0,0.3,0.1,0.4,0.2l1,1.1
			c0.1,0.1,0.2,0.3,0.2,0.4c0,0.2-0.1,0.3-0.2,0.4l-0.9,0.8c0.7,1,1.1,2.2,1.3,3.4l1.4,0c0.1,0,0.2,0,0.2,0c0.1,0,0.1,0.1,0.2,0.1
			c0.1,0.1,0.1,0.1,0.1,0.2c0,0.1,0,0.2,0.1,0.2l0,1.5c0,0.1,0,0.2,0,0.2c0,0.1-0.1,0.1-0.1,0.2c-0.1,0.1-0.1,0.1-0.2,0.1
			c-0.1,0-0.2,0-0.2,0l-1.5,0c-0.2,1.1-0.7,2.1-1.3,2.9l1,1.1c0.1,0.1,0.1,0.1,0.1,0.2c0,0.1,0,0.2,0,0.2c0,0.1,0,0.2-0.1,0.2
			c0,0.1-0.1,0.1-0.1,0.2l-1.1,1c-0.1,0.1-0.3,0.2-0.4,0.2c-0.2,0-0.3-0.1-0.4-0.2l-0.9-1c-1,0.7-2.2,1.2-3.4,1.4v1.3
			c0,0.2-0.1,0.3-0.2,0.4c-0.1,0.1-0.3,0.2-0.4,0.2h-1.5c-0.2,0-0.3-0.1-0.4-0.2c-0.1-0.1-0.2-0.3-0.2-0.4v-1.3
			c-1.3-0.2-2.6-0.8-3.7-1.6l-1,0.9c-0.1,0.1-0.3,0.2-0.4,0.2c-0.2,0-0.3-0.1-0.4-0.2l-1-1.1c-0.1-0.1-0.1-0.1-0.1-0.2
			c0-0.1,0-0.2,0-0.2c0-0.1,0-0.2,0.1-0.2c0-0.1,0.1-0.1,0.1-0.2l1-1c-0.5-0.7-0.8-1.6-1-2.4l-1.2,0c-0.2,0-0.3-0.1-0.4-0.2
			c-0.1-0.1-0.2-0.3-0.2-0.4l0-1.5c0-0.1,0-0.2,0-0.2c0-0.1,0.1-0.1,0.1-0.2c0.1-0.1,0.1-0.1,0.2-0.1
			C97.2,217.6,97.3,217.6,97.4,217.6L97.4,217.6z M106.5,223.8c1.1,0,2.1-0.3,3-0.9c0.9-0.6,1.6-1.4,2-2.4c0.4-1,0.5-2.1,0.3-3.1
			c-0.2-1-0.7-2-1.5-2.8c-0.8-0.8-1.7-1.3-2.8-1.5c-1-0.2-2.1-0.1-3.1,0.3c-1,0.4-1.8,1.1-2.4,2c-0.6,0.9-0.9,1.9-0.9,3
			c0,1.4,0.6,2.8,1.6,3.8C103.7,223.3,105.1,223.8,106.5,223.8L106.5,223.8z"/>
		<path class="st12" d="M79,201.1l1.7,0c0.3-2.7,1.4-5.2,3.2-7.2l-1.2-1.4c-0.2-0.2-0.3-0.4-0.2-0.7c0-0.3,0.1-0.5,0.3-0.7l1.8-1.6
			c0.1-0.1,0.2-0.2,0.3-0.2c0.1,0,0.2-0.1,0.4-0.1c0.1,0,0.2,0,0.4,0.1c0.1,0.1,0.2,0.1,0.3,0.2l1.4,1.6c1.2-0.7,2.5-1.1,3.9-1.4v-2
			c0-0.3,0.1-0.5,0.3-0.7c0.2-0.2,0.4-0.3,0.7-0.3l2.4,0c0.1,0,0.2,0,0.4,0.1c0.1,0,0.2,0.1,0.3,0.2c0.1,0.1,0.2,0.2,0.2,0.3
			c0,0.1,0.1,0.2,0.1,0.4l0,2c2,0.3,3.8,1.1,5.4,2.4l1.4-1.3c0.1-0.1,0.2-0.2,0.3-0.2c0.1,0,0.2-0.1,0.4-0.1c0.1,0,0.2,0,0.4,0.1
			c0.1,0.1,0.2,0.1,0.3,0.2l1.6,1.8c0.2,0.2,0.3,0.4,0.3,0.7c0,0.3-0.1,0.5-0.3,0.7l-1.3,1.3c1.1,1.6,1.8,3.5,2,5.4l2.1,0
			c0.1,0,0.3,0,0.4,0.1c0.1,0,0.2,0.1,0.3,0.2c0.1,0.1,0.2,0.2,0.2,0.3c0,0.1,0.1,0.2,0.1,0.4l0,2.4c0,0.3-0.1,0.5-0.3,0.7
			c-0.2,0.2-0.4,0.3-0.7,0.3l-2.3,0c-0.3,1.7-1,3.2-2,4.6l1.5,1.7c0.2,0.2,0.3,0.4,0.2,0.7c0,0.3-0.1,0.5-0.3,0.7l-1.8,1.6
			c-0.1,0.1-0.2,0.2-0.3,0.2c-0.1,0-0.2,0.1-0.4,0.1c-0.1,0-0.2,0-0.4-0.1c-0.1-0.1-0.2-0.1-0.3-0.2l-1.3-1.5
			c-1.5,1.1-3.3,1.9-5.2,2.2v2c0,0.1,0,0.2-0.1,0.4c0,0.1-0.1,0.2-0.2,0.3c-0.1,0.1-0.2,0.2-0.3,0.2c-0.1,0-0.2,0.1-0.4,0.1l-2.4,0
			c-0.3,0-0.5-0.1-0.7-0.3s-0.3-0.4-0.3-0.7v-2c-2.1-0.4-4-1.3-5.7-2.6l-1.6,1.5c-0.1,0.1-0.2,0.2-0.3,0.2c-0.1,0-0.2,0.1-0.4,0.1
			c-0.1,0-0.2,0-0.4-0.1c-0.1-0.1-0.2-0.1-0.3-0.2l-1.6-1.8c-0.2-0.2-0.3-0.4-0.3-0.7c0-0.3,0.1-0.5,0.3-0.7l1.6-1.5
			c-0.7-1.2-1.3-2.5-1.6-3.8l-1.9,0c-0.3,0-0.5-0.1-0.7-0.3c-0.2-0.2-0.3-0.4-0.3-0.7l0-2.4c0-0.3,0.1-0.5,0.3-0.7
			C78.5,201.3,78.8,201.1,79,201.1z M93.2,210.9c4.6,0,8.3-3.8,8.3-8.4c0-4.7-3.7-8.4-8.3-8.4c-4.6,0-8.3,3.8-8.3,8.4
			C84.9,207.1,88.6,210.9,93.2,210.9L93.2,210.9z"/>
		<path class="st11" d="M98.5,185.6l0.8,0c0.1-1.2,0.6-2.3,1.4-3.2l-0.5-0.6c-0.1-0.1-0.1-0.2-0.1-0.3c0-0.1,0.1-0.2,0.1-0.3
			l0.8-0.7c0,0,0.1-0.1,0.1-0.1c0.1,0,0.1,0,0.2,0c0.1,0,0.1,0,0.2,0c0.1,0,0.1,0.1,0.1,0.1l0.6,0.7c0.5-0.3,1.1-0.5,1.8-0.6v-0.9
			c0-0.1,0-0.1,0-0.2c0-0.1,0.1-0.1,0.1-0.1c0,0,0.1-0.1,0.1-0.1c0.1,0,0.1,0,0.2,0h1.1c0.1,0,0.1,0,0.2,0c0.1,0,0.1,0.1,0.1,0.1
			c0,0,0.1,0.1,0.1,0.1c0,0.1,0,0.1,0,0.2v0.9c0.9,0.2,1.7,0.5,2.4,1l0.6-0.6c0.1-0.1,0.2-0.1,0.3-0.1c0.1,0,0.2,0.1,0.3,0.1
			l0.7,0.8c0.1,0.1,0.1,0.2,0.1,0.3c0,0.1-0.1,0.2-0.1,0.3l-0.6,0.6c0.5,0.7,0.8,1.5,0.9,2.4l1,0c0.1,0,0.1,0,0.2,0
			c0.1,0,0.1,0.1,0.1,0.1c0,0,0.1,0.1,0.1,0.1c0,0.1,0,0.1,0,0.2l0,1.1c0,0.1,0,0.2-0.1,0.3c-0.1,0.1-0.2,0.1-0.3,0.1l-1.1,0
			c-0.2,0.7-0.5,1.4-0.9,2.1l0.7,0.8c0.1,0.1,0.1,0.2,0.1,0.3c0,0.1-0.1,0.2-0.1,0.3l-0.8,0.7c-0.1,0.1-0.2,0.1-0.3,0.1
			c-0.1,0-0.2-0.1-0.3-0.1l-0.6-0.7c-0.7,0.5-1.5,0.9-2.4,1v0.9c0,0.1,0,0.2-0.1,0.3c-0.1,0.1-0.2,0.1-0.3,0.1h-1.1
			c-0.1,0-0.2,0-0.3-0.1c-0.1-0.1-0.1-0.2-0.1-0.3v-0.9c-0.9-0.2-1.8-0.6-2.6-1.2l-0.7,0.7c-0.1,0.1-0.2,0.1-0.3,0.1
			c-0.1,0-0.2-0.1-0.3-0.1l-0.7-0.8c-0.1-0.1-0.1-0.2-0.1-0.3c0-0.1,0.1-0.2,0.1-0.3l0.7-0.7c-0.3-0.5-0.6-1.1-0.7-1.7l-0.9,0
			c-0.1,0-0.2,0-0.3-0.1c-0.1-0.1-0.1-0.2-0.1-0.3l0-1.1c0-0.1,0-0.2,0.1-0.3C98.3,185.6,98.4,185.6,98.5,185.6z M104.9,190
			c0.7,0,1.5-0.2,2.1-0.6c0.6-0.4,1.1-1,1.4-1.7c0.3-0.7,0.4-1.4,0.2-2.2c-0.1-0.7-0.5-1.4-1-1.9c-0.5-0.5-1.2-0.9-1.9-1
			c-0.7-0.1-1.5-0.1-2.2,0.2c-0.7,0.3-1.3,0.8-1.7,1.4c-0.4,0.6-0.6,1.3-0.6,2.1c0,1,0.4,2,1.1,2.7C103,189.6,103.9,190,104.9,190
			L104.9,190z"/>
		<g class="st13">
			
				<linearGradient id="SVGID_6_" gradientUnits="userSpaceOnUse" x1="-39106.4375" y1="383.6756" x2="-64659.8086" y2="385.3565" gradientTransform="matrix(1 0 0 -1 8.410366e-06 500.1102)">
				<stop  offset="0" style="stop-color:#D0B7FF"/>
				<stop  offset="1" style="stop-color:#9980D1"/>
			</linearGradient>
			<path class="st14" d="M75.7,118.2l77.1,0l0,1.6l-77.1,0L75.7,118.2z"/>
			
				<linearGradient id="SVGID_7_" gradientUnits="userSpaceOnUse" x1="-39106.4375" y1="378.3277" x2="-64659.8047" y2="380.0086" gradientTransform="matrix(1 0 0 -1 8.410366e-06 500.1102)">
				<stop  offset="0" style="stop-color:#D0B7FF"/>
				<stop  offset="1" style="stop-color:#9980D1"/>
			</linearGradient>
			<path class="st15" d="M75.7,123.5l77.1,0l0,1.6l-77.1,0L75.7,123.5z"/>
			
				<linearGradient id="SVGID_8_" gradientUnits="userSpaceOnUse" x1="-39238.7813" y1="372.9912" x2="-64791.875" y2="374.6721" gradientTransform="matrix(1 0 0 -1 8.410366e-06 500.1102)">
				<stop  offset="0" style="stop-color:#D0B7FF"/>
				<stop  offset="1" style="stop-color:#9980D1"/>
			</linearGradient>
			<path class="st16" d="M152.4,130.5l-77.1,0l0-1.6l77.1,0V130.5z"/>
			
				<linearGradient id="SVGID_9_" gradientUnits="userSpaceOnUse" x1="-39238.7773" y1="367.6435" x2="-64791.8711" y2="369.3244" gradientTransform="matrix(1 0 0 -1 8.410366e-06 500.1102)">
				<stop  offset="0" style="stop-color:#D0B7FF"/>
				<stop  offset="1" style="stop-color:#9980D1"/>
			</linearGradient>
			<path class="st17" d="M152.4,135.9l-77.1,0v-1.6l77.1,0V135.9z"/>
			
				<linearGradient id="SVGID_10_" gradientUnits="userSpaceOnUse" x1="-39106.4805" y1="362.2872" x2="-64659.8477" y2="363.9681" gradientTransform="matrix(1 0 0 -1 8.410366e-06 500.1102)">
				<stop  offset="0" style="stop-color:#D0B7FF"/>
				<stop  offset="1" style="stop-color:#9980D1"/>
			</linearGradient>
			<path class="st18" d="M75.7,139.6l77.1,0v1.6l-77.1,0V139.6z"/>
			
				<linearGradient id="SVGID_11_" gradientUnits="userSpaceOnUse" x1="-39106.4805" y1="356.9418" x2="-64659.8125" y2="358.6227" gradientTransform="matrix(1 0 0 -1 8.410366e-06 500.1102)">
				<stop  offset="0" style="stop-color:#D0B7FF"/>
				<stop  offset="1" style="stop-color:#9980D1"/>
			</linearGradient>
			<path class="st19" d="M75.7,144.9l77.1,0v1.6l-77.1,0V144.9z"/>
			
				<linearGradient id="SVGID_12_" gradientUnits="userSpaceOnUse" x1="-39106.4766" y1="352.0062" x2="-64659.8086" y2="353.6871" gradientTransform="matrix(1 0 0 -1 8.410366e-06 500.1102)">
				<stop  offset="0" style="stop-color:#D0B7FF"/>
				<stop  offset="1" style="stop-color:#9980D1"/>
			</linearGradient>
			<path class="st20" d="M152.8,151.5l-77.1,0v-1.6l77.1,0V151.5z"/>
			
				<linearGradient id="SVGID_13_" gradientUnits="userSpaceOnUse" x1="-39106.457" y1="346.6587" x2="-64659.7891" y2="348.3396" gradientTransform="matrix(1 0 0 -1 8.410366e-06 500.1102)">
				<stop  offset="0" style="stop-color:#D0B7FF"/>
				<stop  offset="1" style="stop-color:#9980D1"/>
			</linearGradient>
			<path class="st21" d="M152.8,156.9l-77.1,0v-1.6l77.1,0L152.8,156.9z"/>
			
				<linearGradient id="SVGID_14_" gradientUnits="userSpaceOnUse" x1="-39106.457" y1="341.3108" x2="-64659.7891" y2="342.9917" gradientTransform="matrix(1 0 0 -1 8.410366e-06 500.1102)">
				<stop  offset="0" style="stop-color:#D0B7FF"/>
				<stop  offset="1" style="stop-color:#9980D1"/>
			</linearGradient>
			<path class="st22" d="M75.7,160.6l77.1,0l0,1.6l-77.1,0L75.7,160.6z"/>
			
				<linearGradient id="SVGID_15_" gradientUnits="userSpaceOnUse" x1="-39106.4531" y1="335.9657" x2="-64659.7852" y2="337.6466" gradientTransform="matrix(1 0 0 -1 8.410366e-06 500.1102)">
				<stop  offset="0" style="stop-color:#D0B7FF"/>
				<stop  offset="1" style="stop-color:#9980D1"/>
			</linearGradient>
			<path class="st23" d="M75.7,165.9l77.1,0l0,1.6l-77.1,0L75.7,165.9z"/>
		</g>
		<g class="st24">
			
				<linearGradient id="SVGID_16_" gradientUnits="userSpaceOnUse" x1="-23206.791" y1="323.5865" x2="-48760.043" y2="325.2673" gradientTransform="matrix(1 0 0 -1 8.410366e-06 500.1102)">
				<stop  offset="0" style="stop-color:#D0B7FF"/>
				<stop  offset="1" style="stop-color:#9980D1"/>
			</linearGradient>
			<path class="st25" d="M123.5,177.2l77.1,0l0,1.6l-77.1,0L123.5,177.2z"/>
			
				<linearGradient id="SVGID_17_" gradientUnits="userSpaceOnUse" x1="-23206.8281" y1="318.2387" x2="-48760.0391" y2="319.9196" gradientTransform="matrix(1 0 0 -1 8.410366e-06 500.1102)">
				<stop  offset="0" style="stop-color:#D0B7FF"/>
				<stop  offset="1" style="stop-color:#9980D1"/>
			</linearGradient>
			<path class="st26" d="M123.5,182.6l77.1,0v1.6l-77.1,0V182.6z"/>
			
				<linearGradient id="SVGID_18_" gradientUnits="userSpaceOnUse" x1="28377.8301" y1="309.5039" x2="53931.2813" y2="307.8262" gradientTransform="matrix(1 0 0 -1 8.410366e-06 500.1102)">
				<stop  offset="0" style="stop-color:#D0B7FF"/>
				<stop  offset="1" style="stop-color:#9980D1"/>
			</linearGradient>
			<path class="st27" d="M200.3,189.6l-77.1,0v-1.6l77.1,0V189.6z"/>
			
				<linearGradient id="SVGID_19_" gradientUnits="userSpaceOnUse" x1="28377.834" y1="304.1584" x2="53930.8867" y2="302.4807" gradientTransform="matrix(1 0 0 -1 8.410366e-06 500.1102)">
				<stop  offset="0" style="stop-color:#D0B7FF"/>
				<stop  offset="1" style="stop-color:#9980D1"/>
			</linearGradient>
			<path class="st28" d="M200.3,194.9l-77.1,0v-1.6l77.1,0L200.3,194.9z"/>
			
				<linearGradient id="SVGID_20_" gradientUnits="userSpaceOnUse" x1="-23206.8203" y1="302.1982" x2="-48760.0313" y2="303.8791" gradientTransform="matrix(1 0 0 -1 8.410366e-06 500.1102)">
				<stop  offset="0" style="stop-color:#D0B7FF"/>
				<stop  offset="1" style="stop-color:#9980D1"/>
			</linearGradient>
			<path class="st29" d="M123.5,198.6l77.1,0l0,1.6l-77.1,0V198.6z"/>
			
				<linearGradient id="SVGID_21_" gradientUnits="userSpaceOnUse" x1="-23206.8184" y1="296.8526" x2="-48760.0273" y2="298.5335" gradientTransform="matrix(1 0 0 -1 8.410366e-06 500.1102)">
				<stop  offset="0" style="stop-color:#D0B7FF"/>
				<stop  offset="1" style="stop-color:#9980D1"/>
			</linearGradient>
			<path class="st30" d="M123.5,204l77.1,0l0,1.6l-77.1,0V204z"/>
			
				<linearGradient id="SVGID_22_" gradientUnits="userSpaceOnUse" x1="28509.3574" y1="288.5145" x2="54062.5664" y2="286.8329" gradientTransform="matrix(1 0 0 -1 8.410366e-06 500.1102)">
				<stop  offset="0" style="stop-color:#D0B7FF"/>
				<stop  offset="1" style="stop-color:#9980D1"/>
			</linearGradient>
			<path class="st31" d="M200.7,210.6l-77.1,0l0-1.6l77.1,0V210.6z"/>
			
				<linearGradient id="SVGID_23_" gradientUnits="userSpaceOnUse" x1="28509.3594" y1="283.1692" x2="54062.5703" y2="281.4875" gradientTransform="matrix(1 0 0 -1 8.410366e-06 500.1102)">
				<stop  offset="0" style="stop-color:#D0B7FF"/>
				<stop  offset="1" style="stop-color:#9980D1"/>
			</linearGradient>
			<path class="st32" d="M200.7,215.9l-77.1,0v-1.6l77.1,0V215.9z"/>
			
				<linearGradient id="SVGID_24_" gradientUnits="userSpaceOnUse" x1="-23206.8105" y1="281.2218" x2="-48760.0195" y2="282.9027" gradientTransform="matrix(1 0 0 -1 8.410366e-06 500.1102)">
				<stop  offset="0" style="stop-color:#D0B7FF"/>
				<stop  offset="1" style="stop-color:#9980D1"/>
			</linearGradient>
			<path class="st33" d="M123.5,219.6l77.1,0v1.6l-77.1,0V219.6z"/>
			
				<linearGradient id="SVGID_25_" gradientUnits="userSpaceOnUse" x1="-23206.8086" y1="275.8767" x2="-48760.0195" y2="277.5576" gradientTransform="matrix(1 0 0 -1 8.410366e-06 500.1102)">
				<stop  offset="0" style="stop-color:#D0B7FF"/>
				<stop  offset="1" style="stop-color:#9980D1"/>
			</linearGradient>
			<path class="st34" d="M123.5,224.9l77.1,0v1.6l-77.1,0V224.9z"/>
			
				<linearGradient id="SVGID_26_" gradientUnits="userSpaceOnUse" x1="-23195.2227" y1="270.3955" x2="-48748.5156" y2="272.0764" gradientTransform="matrix(1 0 0 -1 8.410366e-06 500.1102)">
				<stop  offset="0" style="stop-color:#D0B7FF"/>
				<stop  offset="1" style="stop-color:#9980D1"/>
			</linearGradient>
			<path class="st35" d="M123.6,230.4l77.1,0v1.6l-77.1,0V230.4z"/>
		</g>
		
			<linearGradient id="SVGID_27_" gradientUnits="userSpaceOnUse" x1="222.4773" y1="403.0064" x2="222.4789" y2="426.6109" gradientTransform="matrix(1 0 0 -1 8.410366e-06 500.1102)">
			<stop  offset="0" style="stop-color:#9980D1"/>
			<stop  offset="6.000000e-02" style="stop-color:#A78EDC"/>
			<stop  offset="0.16" style="stop-color:#B9A0EC"/>
			<stop  offset="0.28" style="stop-color:#C6ADF7"/>
			<stop  offset="0.44" style="stop-color:#CEB5FD"/>
			<stop  offset="0.76" style="stop-color:#D0B7FF"/>
			<stop  offset="0.83" style="stop-color:#DDCDFA"/>
			<stop  offset="0.94" style="stop-color:#ECE8F4"/>
			<stop  offset="1" style="stop-color:#F2F2F2"/>
		</linearGradient>
		<path class="st36" d="M226,97.1l1.2-11.4l-5-12.2l-4.5,12.4l1.7,11.2l3.2-1.5L226,97.1z"/>
		<path class="st2" d="M221.6,79.3h1.3l0,15.3h-1.3L221.6,79.3z"/>
		
			<linearGradient id="SVGID_28_" gradientUnits="userSpaceOnUse" x1="229.2455" y1="361.6774" x2="216.2339" y2="361.6782" gradientTransform="matrix(1 0 0 -1 8.410366e-06 500.1102)">
			<stop  offset="0" style="stop-color:#D0B7FF"/>
			<stop  offset="0.2" style="stop-color:#BCA3EE"/>
			<stop  offset="0.46" style="stop-color:#A990DE"/>
			<stop  offset="0.73" style="stop-color:#9D84D4"/>
			<stop  offset="1" style="stop-color:#9980D1"/>
		</linearGradient>
		<path class="st37" d="M229.2,181.8c0,0-7.9-1.7-13,0l1.7-85.8l4.8-1l3.9,1.4L229.2,181.8z"/>
		
			<linearGradient id="SVGID_29_" gradientUnits="userSpaceOnUse" x1="-1728.5341" y1="387.8724" x2="-2196.4202" y2="387.8724" gradientTransform="matrix(1 0 0 -1 8.410366e-06 500.1102)">
			<stop  offset="0" style="stop-color:#D0B7FF"/>
			<stop  offset="0.2" style="stop-color:#BCA3EE"/>
			<stop  offset="0.46" style="stop-color:#A990DE"/>
			<stop  offset="0.73" style="stop-color:#9D84D4"/>
			<stop  offset="1" style="stop-color:#9980D1"/>
		</linearGradient>
		<path class="st38" d="M227.7,130.3l-10.4,0l0.7-34.3l4.4-1.9l4.4,2.3L227.7,130.3z"/>
		<path class="st2" d="M227.8,129.8c0,0-7.3-0.8-10.7,0l0.5,0.6l9.6,0L227.8,129.8z"/>
		<path class="st2" d="M227.7,130.9l-10.6,0c0,0-0.8-0.6,0-1.1l10.6,0C227.7,129.8,228.7,130.4,227.7,130.9z"/>
		<path class="st2" d="M227.8,128.7l-11,0c0,0-1.3-0.2,0-0.7c1.3-0.5,10.8-0.1,10.8-0.1S229.6,128.5,227.8,128.7z"/>
		<path class="st2" d="M227.6,126.8l-10.5,0c0,0-1.3-0.2,0-0.6c1.3-0.4,10.3-0.1,10.3-0.1S229.2,126.7,227.6,126.8z"/>
		<path class="st2" d="M227.6,125.1l-10.5,0c0,0-1.3-0.2,0-0.6c1.3-0.4,10.3-0.1,10.3-0.1S229.2,125,227.6,125.1z"/>
		<path class="st2" d="M226.8,101.7l-8.9,0c0,0-1.1-0.2,0-0.6c1.1-0.4,8.8-0.1,8.8-0.1S228.2,101.6,226.8,101.7z"/>
		<path class="st2" d="M226.8,99.9l-8.9,0c0,0-1.1-0.2,0-0.6c1.1-0.4,8.8-0.1,8.8-0.1S228.2,99.8,226.8,99.9z"/>
		<path class="st2" d="M226.9,98.1l-8.9,0c0,0-1.1-0.2,0-0.6c1.1-0.4,8.8-0.1,8.8-0.1S228.3,98,226.9,98.1z"/>
		
			<linearGradient id="SVGID_30_" gradientUnits="userSpaceOnUse" x1="-2443.9609" y1="283.558" x2="-3430.0071" y2="283.558" gradientTransform="matrix(1 0 0 -1 8.410366e-06 500.1102)">
			<stop  offset="0" style="stop-color:#D0B7FF"/>
			<stop  offset="0.2" style="stop-color:#BCA3EE"/>
			<stop  offset="0.46" style="stop-color:#A990DE"/>
			<stop  offset="0.73" style="stop-color:#9D84D4"/>
			<stop  offset="1" style="stop-color:#9980D1"/>
		</linearGradient>
		<path class="st39" d="M230.3,190.7c0,0-3.6-8.4-15.2-0.7l1.9,54.4c0,0,6.5,4.5,11.7,0L230.3,190.7z"/>
		
			<linearGradient id="SVGID_31_" gradientUnits="userSpaceOnUse" x1="230.2697" y1="314.545" x2="215.1181" y2="314.5462" gradientTransform="matrix(1 0 0 -1 8.410366e-06 500.1102)">
			<stop  offset="0" style="stop-color:#C7AEF7"/>
			<stop  offset="0.47" style="stop-color:#C8ABF8"/>
			<stop  offset="0.81" style="stop-color:#CAA2FC"/>
			<stop  offset="1" style="stop-color:#CC99FF"/>
		</linearGradient>
		<path class="st40" d="M230.3,190.5l-0.4-8.4c0,0-6.5-3.3-14.8,0l0,8C215.1,190.1,222.2,186,230.3,190.5z"/>
		<path class="st2" d="M225.4,241.5l-2.7,1.4l-2.7-1.4l0-11.7c0,0,1.3-6.8,1.3-9.2c0-2.4,0.3-20.5,0.3-20.5l-1.1-0.8l1.4-8h1.1
			l1.9,8.2l-1.2,0.5l0.2,21.1c0,0,1,8.6,1.4,9.1C225.9,230.7,225.4,241.5,225.4,241.5z"/>
		
			<linearGradient id="SVGID_32_" gradientUnits="userSpaceOnUse" x1="-1961.1399" y1="251.4346" x2="-2580.0513" y2="251.4742" gradientTransform="matrix(1 0 0 -1 8.410366e-06 500.1102)">
			<stop  offset="0" style="stop-color:#C7AEF7"/>
			<stop  offset="0.47" style="stop-color:#C8ABF8"/>
			<stop  offset="0.81" style="stop-color:#CAA2FC"/>
			<stop  offset="1" style="stop-color:#CC99FF"/>
		</linearGradient>
		<path class="st41" d="M228.8,243.9c0,0-5.5,4.1-12,0l0.6,7.7c0,0,5.1,4.7,11.1,0L228.8,243.9z"/>
		
			<linearGradient id="SVGID_33_" gradientUnits="userSpaceOnUse" x1="-37912.4336" y1="410.2619" x2="-101592.9141" y2="414.4508" gradientTransform="matrix(1 0 0 -1 8.410366e-06 500.1102)">
			<stop  offset="0" style="stop-color:#D0B7FF"/>
			<stop  offset="0.2" style="stop-color:#BCA3EE"/>
			<stop  offset="0.46" style="stop-color:#A990DE"/>
			<stop  offset="0.73" style="stop-color:#9D84D4"/>
			<stop  offset="1" style="stop-color:#9980D1"/>
		</linearGradient>
		<path class="st42" d="M76.7,86.5l121.8,0l0,11.6l-121.8,0L76.7,86.5z"/>
		
			<linearGradient id="SVGID_34_" gradientUnits="userSpaceOnUse" x1="-37790.4375" y1="396.6242" x2="-101470.9141" y2="400.7962" gradientTransform="matrix(1 0 0 -1 8.410366e-06 500.1102)">
			<stop  offset="0" style="stop-color:#D0B7FF"/>
			<stop  offset="0.2" style="stop-color:#BCA3EE"/>
			<stop  offset="0.46" style="stop-color:#A990DE"/>
			<stop  offset="0.73" style="stop-color:#9D84D4"/>
			<stop  offset="1" style="stop-color:#9980D1"/>
		</linearGradient>
		<path class="st43" d="M76.9,100l121.8,0l0,11.9l-121.8,0L76.9,100z"/>
	</g>
	<path class="st2" d="M188.5,156.4h-18.3l-3.5,10.5h-11.1l18.9-50.8h9.7l19,50.8H192L188.5,156.4z M173,147.9h12.7l-6.4-19
		L173,147.9z M226.6,148.3h-8.3v18.6h-10.5v-50.8h18.9c6,0,10.6,1.3,13.9,4c3.3,2.7,4.9,6.4,4.9,11.3c0,3.5-0.8,6.4-2.3,8.7
		c-1.5,2.3-3.8,4.1-6.8,5.5l11,20.7v0.5h-11.2L226.6,148.3z M218.3,139.8h8.4c2.6,0,4.7-0.7,6.1-2c1.4-1.3,2.2-3.2,2.2-5.5
		c0-2.4-0.7-4.3-2.1-5.6c-1.3-1.4-3.4-2.1-6.2-2.1h-8.4V139.8z M289.9,124.6h-15.5v42.3h-10.5v-42.3h-15.3v-8.5h41.3V124.6z
		 M307,166.9h-10.5v-50.8H307V166.9z M356.6,150c-0.4,5.5-2.4,9.8-6.1,12.9c-3.6,3.1-8.4,4.7-14.4,4.7c-6.5,0-11.6-2.2-15.4-6.6
		c-3.7-4.4-5.6-10.4-5.6-18.1v-3.1c0-4.9,0.9-9.2,2.6-12.9c1.7-3.7,4.2-6.6,7.4-8.5c3.2-2,6.9-3,11.2-3c5.9,0,10.6,1.6,14.2,4.7
		c3.6,3.1,5.6,7.5,6.2,13.2h-10.5c-0.3-3.3-1.2-5.6-2.8-7.1c-1.6-1.5-3.9-2.2-7.1-2.2c-3.5,0-6.1,1.3-7.8,3.8
		c-1.7,2.5-2.6,6.4-2.6,11.6v3.8c0,5.5,0.8,9.5,2.5,12c1.7,2.5,4.3,3.8,7.9,3.8c3.2,0,5.6-0.7,7.2-2.2c1.6-1.5,2.5-3.8,2.8-6.9
		H356.6z M373.9,158.5h22.2v8.4h-32.7v-50.8h10.5V158.5z M432.7,144.9h-20.1v13.6h23.6v8.4h-34v-50.8h34v8.5h-23.5v12.1h20.1V144.9z
		 M468.6,153.5c0-2-0.7-3.5-2.1-4.5c-1.4-1.1-3.9-2.2-7.5-3.3c-3.6-1.2-6.5-2.3-8.6-3.5c-5.8-3.1-8.6-7.3-8.6-12.6
		c0-2.7,0.8-5.2,2.3-7.3c1.6-2.2,3.8-3.8,6.7-5.1c2.9-1.2,6.2-1.8,9.8-1.8c3.6,0,6.9,0.7,9.7,2c2.8,1.3,5,3.1,6.6,5.5
		c1.6,2.4,2.4,5.1,2.4,8.2h-10.5c0-2.3-0.7-4.1-2.2-5.4c-1.5-1.3-3.5-2-6.2-2c-2.6,0-4.5,0.5-6,1.6c-1.4,1.1-2.1,2.5-2.1,4.3
		c0,1.6,0.8,3,2.5,4.1c1.7,1.1,4.1,2.2,7.4,3.1c5.9,1.8,10.3,4,13,6.7c2.7,2.6,4.1,5.9,4.1,9.9c0,4.4-1.7,7.8-5,10.4
		c-3.3,2.5-7.8,3.7-13.4,3.7c-3.9,0-7.5-0.7-10.7-2.1c-3.2-1.4-5.7-3.4-7.4-5.9c-1.7-2.5-2.5-5.4-2.5-8.6h10.5c0,5.6,3.3,8.4,10,8.4
		c2.5,0,4.4-0.5,5.8-1.5C467.9,156.8,468.6,155.4,468.6,153.5z"/>
	
		<linearGradient id="SVGID_35_" gradientUnits="userSpaceOnUse" x1="151.9827" y1="358.6288" x2="467.0489" y2="358.6288" gradientTransform="matrix(1 0 0 -1 8.410366e-06 500.1102)">
		<stop  offset="0" style="stop-color:#BC14B8"/>
		<stop  offset="1" style="stop-color:#772F8C"/>
	</linearGradient>
	<path class="st44" d="M188.5,156.4h-18.3l-3.5,10.5h-11.1l18.9-50.8h9.7l19,50.8H192L188.5,156.4z M173,147.9h12.7l-6.4-19
		L173,147.9z M226.6,148.3h-8.3v18.6h-10.5v-50.8h18.9c6,0,10.6,1.3,13.9,4c3.3,2.7,4.9,6.4,4.9,11.3c0,3.5-0.8,6.4-2.3,8.7
		c-1.5,2.3-3.8,4.1-6.8,5.5l11,20.7v0.5h-11.2L226.6,148.3z M218.3,139.8h8.4c2.6,0,4.7-0.7,6.1-2c1.4-1.3,2.2-3.2,2.2-5.5
		c0-2.4-0.7-4.3-2.1-5.6c-1.3-1.4-3.4-2.1-6.2-2.1h-8.4V139.8z M289.9,124.6h-15.5v42.3h-10.5v-42.3h-15.3v-8.5h41.3V124.6z
		 M307,166.9h-10.5v-50.8H307V166.9z M356.6,150c-0.4,5.5-2.4,9.8-6.1,12.9c-3.6,3.1-8.4,4.7-14.4,4.7c-6.5,0-11.6-2.2-15.4-6.6
		c-3.7-4.4-5.6-10.4-5.6-18.1v-3.1c0-4.9,0.9-9.2,2.6-12.9c1.7-3.7,4.2-6.6,7.4-8.5c3.2-2,6.9-3,11.2-3c5.9,0,10.6,1.6,14.2,4.7
		c3.6,3.1,5.6,7.5,6.2,13.2h-10.5c-0.3-3.3-1.2-5.6-2.8-7.1c-1.6-1.5-3.9-2.2-7.1-2.2c-3.5,0-6.1,1.3-7.8,3.8
		c-1.7,2.5-2.6,6.4-2.6,11.6v3.8c0,5.5,0.8,9.5,2.5,12c1.7,2.5,4.3,3.8,7.9,3.8c3.2,0,5.6-0.7,7.2-2.2c1.6-1.5,2.5-3.8,2.8-6.9
		H356.6z M373.9,158.5h22.2v8.4h-32.7v-50.8h10.5V158.5z M432.7,144.9h-20.1v13.6h23.6v8.4h-34v-50.8h34v8.5h-23.5v12.1h20.1V144.9z
		 M468.6,153.5c0-2-0.7-3.5-2.1-4.5c-1.4-1.1-3.9-2.2-7.5-3.3c-3.6-1.2-6.5-2.3-8.6-3.5c-5.8-3.1-8.6-7.3-8.6-12.6
		c0-2.7,0.8-5.2,2.3-7.3c1.6-2.2,3.8-3.8,6.7-5.1c2.9-1.2,6.2-1.8,9.8-1.8c3.6,0,6.9,0.7,9.7,2c2.8,1.3,5,3.1,6.6,5.5
		c1.6,2.4,2.4,5.1,2.4,8.2h-10.5c0-2.3-0.7-4.1-2.2-5.4c-1.5-1.3-3.5-2-6.2-2c-2.6,0-4.5,0.5-6,1.6c-1.4,1.1-2.1,2.5-2.1,4.3
		c0,1.6,0.8,3,2.5,4.1c1.7,1.1,4.1,2.2,7.4,3.1c5.9,1.8,10.3,4,13,6.7c2.7,2.6,4.1,5.9,4.1,9.9c0,4.4-1.7,7.8-5,10.4
		c-3.3,2.5-7.8,3.7-13.4,3.7c-3.9,0-7.5-0.7-10.7-2.1c-3.2-1.4-5.7-3.4-7.4-5.9c-1.7-2.5-2.5-5.4-2.5-8.6h10.5c0,5.6,3.3,8.4,10,8.4
		c2.5,0,4.4-0.5,5.8-1.5C467.9,156.8,468.6,155.4,468.6,153.5z"/>
</g>
<g id="OBJECTS">
</g>
</svg>
