<svg width="1158" height="635" viewBox="0 0 1158 635" fill="none" xmlns="http://www.w3.org/2000/svg">
<g opacity="0.3">
<path d="M157.658 75.5808L515.458 75.6043L515.425 572.359L157.625 572.335L157.658 75.5808Z" fill="url(#paint0_linear)"/>
<path d="M167.214 82.5315L506.776 82.5538L506.744 564.546L167.182 564.523L167.214 82.5315Z" fill="white"/>
<path opacity="0.05" d="M157.658 75.5808L515.458 75.6043L515.425 572.359L157.625 572.335L157.658 75.5808Z" fill="black"/>
<path d="M118.578 43.4458L476.378 43.4693L476.345 540.224L118.545 540.201L118.578 43.4458Z" fill="url(#paint1_linear)"/>
<path d="M128.134 50.3965L467.696 50.4189L467.664 532.411L128.102 532.388L128.134 50.3965Z" fill="white"/>
<path d="M450.263 123.887L457.307 123.887L457.306 130.931L450.262 130.931L450.263 123.887Z" stroke="#D7B7FF" stroke-width="2" stroke-miterlimit="10"/>
<path d="M296.175 123.583L303.219 123.584L303.219 130.627L296.175 130.627L296.175 123.583Z" stroke="#D7B7FF" stroke-width="2" stroke-miterlimit="10"/>
<path d="M138.859 123.573L145.903 123.573L145.903 130.617L138.859 130.617L138.859 123.573Z" stroke="#D7B7FF" stroke-width="2" stroke-miterlimit="10"/>
<path d="M136.803 143.824L457.305 143.845L457.3 221.329L136.798 221.308L136.803 143.824Z" fill="#EFDFFF"/>
<path d="M345.77 231.301L456.126 231.308L456.117 355.752L345.762 355.745L345.77 231.301Z" fill="#D7B7FF"/>
<path d="M136.805 119.17L457.307 119.191L457.307 120.952L136.805 120.931L136.805 119.17Z" fill="url(#paint2_linear)"/>
<path d="M136.804 133.845L457.306 133.866L457.306 135.627L136.804 135.606L136.804 133.845Z" fill="url(#paint3_linear)"/>
<path d="M136.789 365.71L457.291 365.731L457.291 367.492L136.789 367.471L136.789 365.71Z" fill="url(#paint4_linear)"/>
<path d="M390.235 324.637L412.57 324.685C412.988 324.667 413.405 324.734 413.797 324.881C414.188 325.029 414.546 325.254 414.848 325.543C415.15 325.832 415.391 326.18 415.555 326.565C415.719 326.949 415.804 327.363 415.804 327.782C415.804 328.2 415.719 328.614 415.555 328.999C415.391 329.384 415.15 329.731 414.848 330.021C414.546 330.31 414.188 330.535 413.796 330.682C413.405 330.83 412.988 330.896 412.57 330.878L390.228 330.83C389.81 330.848 389.393 330.781 389.002 330.634C388.61 330.486 388.252 330.261 387.95 329.972C387.648 329.682 387.408 329.335 387.243 328.95C387.079 328.565 386.994 328.151 386.994 327.733C386.994 327.315 387.079 326.901 387.243 326.516C387.408 326.131 387.648 325.784 387.95 325.494C388.253 325.205 388.61 324.98 389.002 324.833C389.393 324.685 389.811 324.619 390.229 324.637L390.235 324.637Z" fill="white"/>
<path d="M390.704 332.103L413.045 332.158C413.843 332.193 414.597 332.534 415.149 333.111C415.701 333.688 416.009 334.456 416.009 335.254C416.009 336.053 415.701 336.821 415.149 337.398C414.596 337.975 413.842 338.316 413.045 338.351L390.703 338.302C389.881 338.302 389.093 337.976 388.512 337.394C387.931 336.813 387.604 336.025 387.604 335.203C387.604 334.381 387.931 333.592 388.512 333.011C389.093 332.43 389.882 332.103 390.704 332.103Z" fill="white"/>
<path d="M407.045 346.545L395.657 346.544C394.844 346.542 394.039 346.381 393.288 346.068C392.537 345.755 391.856 345.298 391.282 344.722C390.708 344.145 390.253 343.462 389.943 342.71C389.633 341.958 389.475 341.152 389.476 340.339L413.256 340.388C413.246 342.027 412.587 343.596 411.423 344.75C410.259 345.904 408.684 346.55 407.045 346.545Z" fill="white"/>
<path d="M401.593 239.035C409.783 239.06 417.715 241.903 424.055 247.087C430.396 252.271 434.759 259.48 436.412 267.501C438.064 275.523 436.905 283.869 433.129 291.137C429.352 298.404 423.19 304.151 415.676 307.41L415.676 318.305C415.672 319.359 415.251 320.369 414.504 321.113C413.756 321.857 412.744 322.274 411.69 322.273L391.115 322.23C390.06 322.227 389.05 321.806 388.305 321.058C387.56 320.311 387.141 319.299 387.142 318.244L387.142 307.344C379.64 304.047 373.502 298.268 369.761 290.978C366.019 283.688 364.902 275.332 366.598 267.315C368.294 259.298 372.699 252.11 379.073 246.959C385.446 241.809 393.399 239.011 401.593 239.035ZM390.935 304.297L390.934 313.948C390.934 315.896 392.225 317.47 393.833 317.47L408.878 317.5C410.481 317.5 411.813 315.933 411.813 313.978L411.814 304.328C421.03 299.468 432.413 287.7 432.437 274.75C432.48 257.305 415.921 243.803 401.522 243.772C387.123 243.742 370.663 257.166 370.62 274.611C370.573 287.578 381.742 299.395 390.935 304.297Z" fill="white"/>
<path d="M139.723 380.972L250.079 380.98L250.07 517.751L139.714 517.743L139.723 380.972Z" fill="#D7B7FF"/>
<path opacity="0.8" d="M195.375 481.94L198.14 481.899C198.592 477.603 200.395 473.561 203.289 470.353L201.329 468.169C201.056 467.865 200.915 467.465 200.937 467.056C200.959 466.648 201.142 466.265 201.446 465.992L204.323 463.409C204.627 463.136 205.027 462.995 205.436 463.018C205.844 463.04 206.227 463.223 206.5 463.527L208.754 466.039C210.721 464.974 212.848 464.238 215.053 463.862L215.053 460.592C215.053 460.388 215.094 460.186 215.172 459.997C215.251 459.809 215.366 459.638 215.512 459.494C215.657 459.351 215.829 459.237 216.018 459.161C216.208 459.084 216.41 459.046 216.615 459.048L220.477 459.049C220.68 459.048 220.881 459.087 221.069 459.165C221.256 459.242 221.427 459.356 221.57 459.499C221.714 459.643 221.828 459.813 221.905 460.001C221.982 460.189 222.022 460.39 222.021 460.593L222.021 463.862C225.212 464.402 228.23 465.692 230.825 467.625L233.05 465.554C233.351 465.276 233.75 465.129 234.159 465.144C234.568 465.16 234.955 465.336 235.234 465.636L237.852 468.477C238.129 468.778 238.276 469.177 238.261 469.586C238.245 469.995 238.069 470.381 237.769 470.661L235.591 472.668C237.331 475.275 238.446 478.248 238.849 481.356L242.33 481.309C242.532 481.306 242.734 481.343 242.922 481.418C243.111 481.492 243.283 481.604 243.428 481.745C243.574 481.886 243.69 482.054 243.77 482.241C243.851 482.427 243.894 482.627 243.897 482.83L243.949 486.692C243.952 486.895 243.916 487.096 243.841 487.285C243.766 487.473 243.655 487.645 243.514 487.791C243.373 487.936 243.204 488.052 243.018 488.133C242.832 488.213 242.632 488.256 242.429 488.259L238.596 488.312C238.038 490.973 236.95 493.494 235.396 495.725L237.867 498.473C238.003 498.624 238.108 498.8 238.176 498.992C238.243 499.183 238.273 499.386 238.262 499.589C238.251 499.792 238.2 499.991 238.112 500.174C238.024 500.357 237.901 500.521 237.75 500.656L234.879 503.239C234.574 503.512 234.172 503.653 233.763 503.631C233.354 503.609 232.97 503.426 232.696 503.121L230.524 500.697C227.994 502.531 225.075 503.758 221.994 504.283L221.994 507.558C221.994 507.968 221.832 508.361 221.542 508.65C221.252 508.94 220.86 509.102 220.45 509.102L216.611 509.102C216.202 509.102 215.809 508.939 215.52 508.65C215.23 508.36 215.068 507.967 215.068 507.558L215.068 504.283C211.69 503.712 208.51 502.299 205.823 500.173L203.257 502.521C202.956 502.798 202.558 502.945 202.149 502.93C201.74 502.915 201.353 502.738 201.074 502.438L198.456 499.597C198.318 499.448 198.211 499.273 198.141 499.083C198.071 498.892 198.039 498.69 198.047 498.487C198.055 498.284 198.104 498.085 198.189 497.901C198.274 497.717 198.395 497.551 198.544 497.414L201.18 494.984C199.993 493.097 199.122 491.029 198.603 488.861L195.486 488.902C195.077 488.907 194.683 488.749 194.39 488.465C194.096 488.18 193.927 487.79 193.919 487.381L193.867 483.519C193.862 483.316 193.897 483.115 193.971 482.925C194.044 482.736 194.154 482.564 194.294 482.417C194.434 482.27 194.602 482.153 194.787 482.071C194.973 481.989 195.173 481.945 195.375 481.94ZM218.526 497.626C221.206 497.626 223.827 496.832 226.056 495.342C228.285 493.853 230.022 491.737 231.048 489.26C232.074 486.783 232.343 484.058 231.82 481.429C231.297 478.8 230.007 476.385 228.111 474.489C226.216 472.593 223.801 471.302 221.172 470.779C218.543 470.256 215.817 470.524 213.341 471.55C210.864 472.576 208.747 474.313 207.257 476.542C205.768 478.77 204.973 481.391 204.973 484.072C204.972 487.667 206.4 491.115 208.942 493.658C211.483 496.201 214.93 497.63 218.526 497.632L218.526 497.626Z" fill="white"/>
<path opacity="0.35" d="M149.111 440.436L153.39 440.378C154.075 433.643 156.86 427.294 161.351 422.228L158.322 418.794C157.899 418.313 157.68 417.686 157.715 417.046C157.749 416.406 158.032 415.805 158.504 415.372L162.948 411.31C163.18 411.095 163.452 410.93 163.749 410.823C164.045 410.716 164.361 410.669 164.676 410.687C164.991 410.705 165.299 410.785 165.582 410.925C165.865 411.064 166.117 411.259 166.324 411.498L169.81 415.443C172.843 413.769 176.135 412.615 179.549 412.027L179.549 406.879C179.546 406.241 179.795 405.628 180.243 405.174C180.691 404.72 181.3 404.461 181.938 404.455L187.92 404.456C188.236 404.458 188.548 404.522 188.839 404.646C189.131 404.769 189.395 404.948 189.616 405.173C189.838 405.398 190.013 405.665 190.132 405.958C190.251 406.251 190.311 406.564 190.309 406.88L190.308 412.028C195.24 412.89 199.892 414.924 203.874 417.958L207.355 414.694C207.583 414.476 207.852 414.307 208.147 414.195C208.442 414.084 208.756 414.033 209.071 414.045C209.386 414.058 209.695 414.134 209.98 414.269C210.265 414.403 210.52 414.594 210.73 414.829L214.786 419.291C215.216 419.767 215.442 420.392 215.417 421.032C215.392 421.673 215.117 422.278 214.651 422.719L211.287 425.877C213.99 429.979 215.724 434.642 216.358 439.513L221.74 439.437C222.057 439.435 222.371 439.495 222.664 439.614C222.957 439.733 223.224 439.909 223.449 440.132C223.675 440.354 223.854 440.619 223.976 440.911C224.099 441.203 224.163 441.516 224.165 441.832L224.246 447.896C224.261 448.533 224.021 449.15 223.581 449.611C223.141 450.072 222.536 450.34 221.898 450.355L215.975 450.437C215.114 454.614 213.436 458.58 211.038 462.106L214.853 466.415C215.277 466.896 215.495 467.524 215.461 468.163C215.427 468.803 215.143 469.404 214.671 469.837L210.227 473.893C209.996 474.108 209.724 474.274 209.428 474.382C209.131 474.489 208.816 474.536 208.501 474.519C208.186 474.502 207.877 474.422 207.594 474.283C207.311 474.144 207.058 473.95 206.852 473.711L203.494 469.907C199.594 472.782 195.078 474.711 190.304 475.541L190.304 480.689C190.306 481.005 190.246 481.319 190.127 481.612C190.008 481.905 189.833 482.171 189.611 482.396C189.389 482.621 189.125 482.801 188.834 482.924C188.543 483.047 188.231 483.111 187.915 483.114L181.939 483.113C181.301 483.107 180.692 482.848 180.244 482.394C179.796 481.94 179.547 481.327 179.55 480.689L179.55 475.541C174.308 474.619 169.386 472.376 165.251 469.024L161.289 472.74C161.061 472.957 160.792 473.127 160.497 473.238C160.202 473.35 159.888 473.401 159.573 473.388C159.258 473.376 158.948 473.3 158.663 473.165C158.378 473.03 158.123 472.84 157.914 472.604L153.858 468.143C153.428 467.667 153.201 467.042 153.227 466.401C153.252 465.761 153.527 465.155 153.993 464.715L158.073 460.888C156.233 457.917 154.887 454.668 154.088 451.267L149.269 451.337C148.63 451.34 148.016 451.089 147.561 450.64C147.107 450.191 146.849 449.58 146.844 448.942L146.763 442.872C146.756 442.239 146.999 441.629 147.438 441.173C147.877 440.718 148.478 440.453 149.111 440.436ZM184.916 465.092C196.498 465.093 205.884 455.555 205.885 443.792C205.886 432.028 196.495 422.489 184.919 422.488C173.343 422.487 163.968 432.043 163.968 443.783C163.967 455.523 173.352 465.086 184.916 465.087L184.916 465.092Z" fill="white" stroke="white" stroke-width="2" stroke-miterlimit="10"/>
<path opacity="0.8" d="M198.263 401.245L200.2 401.246C200.519 398.232 201.782 395.397 203.811 393.145L202.437 391.613C202.245 391.399 202.146 391.117 202.161 390.83C202.177 390.543 202.306 390.273 202.519 390.081L204.539 388.273C204.644 388.178 204.768 388.105 204.902 388.058C205.035 388.011 205.177 387.99 205.319 387.998C205.461 388.005 205.6 388.041 205.728 388.102C205.856 388.164 205.97 388.25 206.065 388.355L207.65 390.116C209.029 389.367 210.522 388.851 212.07 388.591L212.07 386.26C212.069 386.118 212.097 385.977 212.151 385.845C212.205 385.713 212.284 385.594 212.385 385.493C212.485 385.392 212.604 385.312 212.736 385.257C212.867 385.202 213.008 385.174 213.15 385.174L215.862 385.174C216.005 385.174 216.146 385.203 216.277 385.257C216.408 385.312 216.528 385.392 216.628 385.493C216.728 385.594 216.808 385.714 216.862 385.845C216.916 385.977 216.943 386.118 216.942 386.26L216.942 388.556C219.167 388.942 221.269 389.849 223.076 391.203L224.655 389.748C224.865 389.553 225.144 389.45 225.43 389.461C225.717 389.472 225.987 389.596 226.181 389.807L228.024 391.797C228.219 392.009 228.321 392.289 228.309 392.576C228.297 392.863 228.171 393.134 227.96 393.329L226.433 394.737C227.659 396.562 228.447 398.645 228.734 400.825L231.176 400.79C231.318 400.787 231.46 400.813 231.592 400.866C231.724 400.918 231.845 400.996 231.947 401.096C232.049 401.195 232.13 401.313 232.186 401.444C232.243 401.575 232.272 401.716 232.274 401.858L232.315 404.57C232.318 404.857 232.207 405.134 232.007 405.339C231.807 405.545 231.533 405.663 231.246 405.668L228.558 405.703C228.17 407.571 227.409 409.342 226.321 410.909L228.052 412.841C228.244 413.055 228.344 413.336 228.328 413.624C228.313 413.911 228.184 414.18 227.97 414.373L225.957 416.181C225.742 416.372 225.461 416.472 225.174 416.456C224.886 416.441 224.617 416.312 224.425 416.098L222.898 414.402C221.124 415.688 219.077 416.549 216.917 416.92L216.917 419.215C216.917 419.501 216.803 419.776 216.6 419.978C216.398 420.181 216.123 420.295 215.836 420.295L213.125 420.295C212.838 420.295 212.563 420.181 212.361 419.978C212.158 419.776 212.045 419.501 212.045 419.214L212.045 416.919C209.672 416.51 207.44 415.513 205.553 414.019L203.756 415.68C203.544 415.874 203.264 415.977 202.977 415.964C202.69 415.952 202.419 415.827 202.224 415.615L200.387 413.625C200.194 413.414 200.091 413.134 200.102 412.847C200.113 412.561 200.237 412.29 200.446 412.093L202.301 410.385C201.467 409.064 200.857 407.614 200.493 406.094L198.304 406.123C198.022 406.116 197.754 405.999 197.557 405.797C197.36 405.596 197.249 405.325 197.247 405.043L197.212 402.331C197.211 402.049 197.32 401.777 197.516 401.574C197.713 401.371 197.981 401.253 198.263 401.245ZM214.505 412.253C216.385 412.253 218.224 411.695 219.788 410.65C221.352 409.606 222.571 408.121 223.29 406.383C224.01 404.645 224.199 402.733 223.832 400.889C223.465 399.044 222.56 397.35 221.23 396.02C219.9 394.69 218.206 393.784 216.361 393.417C214.516 393.05 212.604 393.238 210.867 393.958C209.129 394.677 207.644 395.896 206.599 397.46C205.554 399.023 204.996 400.862 204.996 402.743C204.996 405.265 205.997 407.684 207.781 409.467C209.564 411.251 211.982 412.253 214.505 412.253Z" fill="white"/>
<g opacity="0.5">
<path opacity="0.5" d="M140.731 231.287L335.204 231.3L335.203 235.45L140.73 235.437L140.731 231.287Z" fill="url(#paint5_linear)"/>
<path opacity="0.5" d="M140.73 244.771L335.203 244.784L335.202 248.934L140.729 248.921L140.73 244.771Z" fill="url(#paint6_linear)"/>
<path opacity="0.5" d="M334.204 262.411L139.73 262.398L139.731 258.248L334.204 258.261L334.204 262.411Z" fill="url(#paint7_linear)"/>
<path opacity="0.5" d="M334.203 275.895L139.73 275.882L139.73 271.732L334.203 271.744L334.203 275.895Z" fill="url(#paint8_linear)"/>
<path opacity="0.5" d="M140.727 285.215L335.2 285.228L335.2 289.378L140.727 289.365L140.727 285.215Z" fill="url(#paint9_linear)"/>
<path opacity="0.5" d="M140.726 298.693L335.199 298.705L335.199 302.855L140.726 302.843L140.726 298.693Z" fill="url(#paint10_linear)"/>
<path opacity="0.5" d="M335.198 315.3L140.725 315.287L140.725 311.137L335.198 311.15L335.198 315.3Z" fill="url(#paint11_linear)"/>
<path opacity="0.5" d="M335.197 328.783L140.724 328.77L140.724 324.62L335.198 324.633L335.197 328.783Z" fill="url(#paint12_linear)"/>
<path opacity="0.5" d="M140.724 338.104L335.197 338.117L335.196 342.267L140.723 342.254L140.724 338.104Z" fill="url(#paint13_linear)"/>
<path opacity="0.5" d="M140.723 351.581L335.196 351.594L335.195 355.744L140.722 355.731L140.723 351.581Z" fill="url(#paint14_linear)"/>
</g>
<g opacity="0.38">
<path opacity="0.38" d="M261.358 380.164L455.831 380.177L455.83 384.327L261.357 384.315L261.358 380.164Z" fill="url(#paint15_linear)"/>
<path opacity="0.38" d="M261.36 393.648L455.833 393.661L455.833 397.811L261.36 397.798L261.36 393.648Z" fill="url(#paint16_linear)"/>
<path opacity="0.38" d="M454.834 411.288L260.361 411.275L260.361 407.125L454.834 407.138L454.834 411.288Z" fill="url(#paint17_linear)"/>
<path opacity="0.38" d="M454.833 424.766L260.36 424.753L260.36 420.603L454.834 420.616L454.833 424.766Z" fill="url(#paint18_linear)"/>
<path opacity="0.38" d="M261.357 434.092L455.831 434.105L455.83 438.255L261.357 438.242L261.357 434.092Z" fill="url(#paint19_linear)"/>
<path opacity="0.38" d="M261.356 447.57L455.83 447.583L455.829 451.733L261.356 451.72L261.356 447.57Z" fill="url(#paint20_linear)"/>
<path opacity="0.38" d="M455.829 464.177L261.355 464.164L261.356 460.014L455.829 460.027L455.829 464.177Z" fill="url(#paint21_linear)"/>
<path opacity="0.38" d="M455.828 477.655L261.355 477.642L261.355 473.492L455.828 473.504L455.828 477.655Z" fill="url(#paint22_linear)"/>
<path opacity="0.38" d="M261.354 486.981L455.827 486.994L455.827 491.144L261.354 491.131L261.354 486.981Z" fill="url(#paint23_linear)"/>
<path opacity="0.38" d="M261.353 500.458L455.826 500.471L455.826 504.621L261.353 504.608L261.353 500.458Z" fill="url(#paint24_linear)"/>
<path opacity="0.38" d="M261.44 514.276L455.913 514.289L455.913 518.439L261.44 518.426L261.44 514.276Z" fill="url(#paint25_linear)"/>
</g>
<path d="M519.754 178.124L522.797 149.367L510.172 118.608L498.9 149.988L503.201 178.123L511.302 174.296L519.754 178.124Z" fill="url(#paint26_linear)"/>
<path d="M508.622 133.218L511.979 133.218L511.977 171.819L508.619 171.819L508.622 133.218Z" fill="white"/>
<path d="M527.905 391.758C527.905 391.758 508.047 387.436 495.098 391.755L499.426 175.487L511.519 172.899L521.445 176.352L527.905 391.758Z" fill="url(#paint27_linear)"/>
<path d="M524.01 261.942L497.695 261.94L499.426 175.487L510.462 170.622L521.445 176.352L524.01 261.942Z" fill="url(#paint28_linear)"/>
<path d="M524.292 260.475C524.292 260.475 505.837 258.531 497.419 260.473L498.716 261.929L522.836 261.93L524.292 260.475Z" fill="white"/>
<path d="M524.139 263.292L497.378 263.291C497.378 263.291 495.329 261.888 497.378 260.59L524.139 260.592C524.139 260.592 526.622 262.107 524.139 263.292Z" fill="white"/>
<path d="M524.345 257.728L496.627 257.726C496.627 257.726 493.258 257.139 496.627 255.877C499.997 254.615 523.87 255.597 523.87 255.597C523.87 255.597 528.701 257.382 524.345 257.728Z" fill="white"/>
<path d="M523.682 253.102L497.267 253.1C497.267 253.1 494.062 252.589 497.267 251.486C500.472 250.383 523.201 251.241 523.201 251.241C523.201 251.241 527.832 252.815 523.682 253.102Z" fill="white"/>
<path d="M523.682 248.817L497.267 248.815C497.267 248.815 494.062 248.339 497.267 247.318C500.473 246.297 523.201 247.091 523.201 247.091C523.201 247.091 527.833 248.553 523.682 248.817Z" fill="white"/>
<path d="M521.784 189.735L499.232 189.734C499.232 189.734 496.491 189.276 499.232 188.296C501.973 187.315 521.385 188.08 521.385 188.08C521.385 188.08 525.33 189.477 521.784 189.735Z" fill="white"/>
<path d="M521.785 185.204L499.232 185.202C499.232 185.202 496.491 184.744 499.232 183.764C501.974 182.784 521.386 183.548 521.386 183.548C521.386 183.548 525.33 184.94 521.785 185.204Z" fill="white"/>
<path d="M522.008 180.666L499.45 180.665C499.45 180.665 496.714 180.212 499.45 179.232C502.185 178.252 521.603 179.017 521.603 179.017C521.603 179.017 525.554 180.414 522.008 180.666Z" fill="white"/>
<path d="M530.492 414.093C530.492 414.093 521.313 392.96 492.291 412.259L497.019 549.424C497.019 549.424 513.307 560.754 526.633 549.426L530.492 414.093Z" fill="url(#paint29_linear)"/>
<path d="M530.493 413.559L529.49 392.427C529.49 392.427 513.201 384.208 492.292 392.424L492.291 412.694C492.291 412.694 510.189 402.334 530.493 413.559Z" fill="url(#paint30_linear)"/>
<path d="M518.269 542.193L511.418 545.756L504.574 542.193L504.576 512.731C504.576 512.731 507.935 495.573 507.935 489.421C507.935 483.27 508.772 437.619 508.772 437.619L505.978 435.676L509.613 415.63L512.407 415.63L517.16 436.328L514.09 437.619L514.674 490.713C514.674 490.713 517.185 512.432 518.306 513.7C519.427 514.968 518.269 542.193 518.269 542.193Z" fill="white"/>
<path d="M526.874 548.293C526.874 548.293 512.938 558.652 496.608 548.291L498.004 567.715C498.004 567.715 510.747 579.591 525.88 567.717L526.874 548.293Z" fill="url(#paint31_linear)"/>
<path opacity="0.16" d="M143.26 151.455L450.261 151.476L450.259 180.826L143.258 180.806L143.26 151.455Z" fill="url(#paint32_linear)"/>
<path opacity="0.16" d="M143.845 185.502L450.846 185.522L450.844 215.459L143.843 215.439L143.845 185.502Z" fill="url(#paint33_linear)"/>
</g>
<path d="M425.086 327.633H378.855L370.066 354H342.029L389.666 226.031H414.1L462 354H433.963L425.086 327.633ZM385.975 306.275H417.967L401.883 258.375L385.975 306.275ZM521.326 307.154H500.32V354H473.953V226.031L521.502 226.031C536.619 226.031 548.279 229.4 556.482 236.139C564.686 242.877 568.787 252.398 568.787 264.703C568.787 273.434 566.883 280.729 563.074 286.588C559.324 292.389 553.611 297.018 545.936 300.475L573.621 352.77V354H545.32L521.326 307.154ZM500.32 285.797H521.59C528.211 285.797 533.338 284.127 536.971 280.787C540.604 277.389 542.42 272.73 542.42 266.812C542.42 260.777 540.691 256.031 537.234 252.574C533.836 249.117 528.592 247.389 521.502 247.389H500.32V285.797ZM680.848 247.389H641.648V354H615.281V247.389H576.609V226.031H680.848V247.389ZM724.002 354H697.635V226.031H724.002V354ZM848.982 311.373C847.986 325.143 842.889 335.982 833.689 343.893C824.549 351.803 812.479 355.758 797.479 355.758C781.072 355.758 768.152 350.25 758.719 339.234C749.344 328.16 744.656 312.984 744.656 293.707V285.885C744.656 273.58 746.824 262.74 751.16 253.365C755.496 243.99 761.678 236.813 769.705 231.832C777.791 226.793 787.166 224.273 797.83 224.273C812.596 224.273 824.49 228.229 833.514 236.139C842.537 244.049 847.752 255.152 849.158 269.449L822.791 269.449C822.146 261.188 819.832 255.211 815.848 251.52C811.922 247.77 805.916 245.895 797.83 245.895C789.041 245.895 782.449 249.059 778.055 255.387C773.719 261.656 771.492 271.412 771.375 284.654V294.322C771.375 308.15 773.455 318.258 777.615 324.645C781.834 331.031 788.455 334.225 797.479 334.225C805.623 334.225 811.688 332.379 815.672 328.688C819.715 324.938 822.029 319.166 822.615 311.373H848.982ZM892.664 332.818H948.65V354H866.297V226.031H892.664V332.818ZM1040.85 298.541H990.223V332.818H1049.64V354H963.855V226.031H1049.46V247.389H990.223V277.887H1040.85V298.541ZM1131.46 320.426C1131.46 315.445 1129.71 311.637 1126.19 309C1122.67 306.305 1116.35 303.492 1107.21 300.563C1098.06 297.574 1090.83 294.645 1085.5 291.773C1070.96 283.922 1063.7 273.346 1063.7 260.045C1063.7 253.131 1065.63 246.979 1069.5 241.588C1073.43 236.139 1079.02 231.891 1086.29 228.844C1093.61 225.797 1101.81 224.273 1110.9 224.273C1120.04 224.273 1128.18 225.943 1135.33 229.283C1142.48 232.564 1148.02 237.223 1151.94 243.258C1155.93 249.293 1157.92 256.148 1157.92 263.824H1131.55C1131.55 257.965 1129.71 253.424 1126.01 250.201C1122.32 246.92 1117.14 245.279 1110.46 245.279C1104.01 245.279 1099 246.656 1095.43 249.41C1091.85 252.105 1090.07 255.68 1090.07 260.133C1090.07 264.293 1092.15 267.779 1096.31 270.592C1100.53 273.404 1106.71 276.041 1114.85 278.502C1129.85 283.014 1140.78 288.609 1147.63 295.289C1154.49 301.969 1157.92 310.289 1157.92 320.25C1157.92 331.324 1153.73 340.025 1145.35 346.354C1136.97 352.623 1125.69 355.758 1111.51 355.758C1101.67 355.758 1092.7 353.971 1084.62 350.396C1076.53 346.764 1070.35 341.813 1066.07 335.543C1061.85 329.273 1059.74 322.008 1059.74 313.746H1086.2C1086.2 327.867 1094.64 334.928 1111.51 334.928C1117.78 334.928 1122.67 333.668 1126.19 331.148C1129.71 328.57 1131.46 324.996 1131.46 320.426Z" fill="white"/>
<path d="M425.086 327.633H378.855L370.066 354H342.029L389.666 226.031H414.1L462 354H433.963L425.086 327.633ZM385.975 306.275H417.967L401.883 258.375L385.975 306.275ZM521.326 307.154H500.32V354H473.953V226.031L521.502 226.031C536.619 226.031 548.279 229.4 556.482 236.139C564.686 242.877 568.787 252.398 568.787 264.703C568.787 273.434 566.883 280.729 563.074 286.588C559.324 292.389 553.611 297.018 545.936 300.475L573.621 352.77V354H545.32L521.326 307.154ZM500.32 285.797H521.59C528.211 285.797 533.338 284.127 536.971 280.787C540.604 277.389 542.42 272.73 542.42 266.812C542.42 260.777 540.691 256.031 537.234 252.574C533.836 249.117 528.592 247.389 521.502 247.389H500.32V285.797ZM680.848 247.389H641.648V354H615.281V247.389H576.609V226.031H680.848V247.389ZM724.002 354H697.635V226.031H724.002V354ZM848.982 311.373C847.986 325.143 842.889 335.982 833.689 343.893C824.549 351.803 812.479 355.758 797.479 355.758C781.072 355.758 768.152 350.25 758.719 339.234C749.344 328.16 744.656 312.984 744.656 293.707V285.885C744.656 273.58 746.824 262.74 751.16 253.365C755.496 243.99 761.678 236.813 769.705 231.832C777.791 226.793 787.166 224.273 797.83 224.273C812.596 224.273 824.49 228.229 833.514 236.139C842.537 244.049 847.752 255.152 849.158 269.449L822.791 269.449C822.146 261.188 819.832 255.211 815.848 251.52C811.922 247.77 805.916 245.895 797.83 245.895C789.041 245.895 782.449 249.059 778.055 255.387C773.719 261.656 771.492 271.412 771.375 284.654V294.322C771.375 308.15 773.455 318.258 777.615 324.645C781.834 331.031 788.455 334.225 797.479 334.225C805.623 334.225 811.688 332.379 815.672 328.688C819.715 324.938 822.029 319.166 822.615 311.373H848.982ZM892.664 332.818H948.65V354H866.297V226.031H892.664V332.818ZM1040.85 298.541H990.223V332.818H1049.64V354H963.855V226.031H1049.46V247.389H990.223V277.887H1040.85V298.541ZM1131.46 320.426C1131.46 315.445 1129.71 311.637 1126.19 309C1122.67 306.305 1116.35 303.492 1107.21 300.563C1098.06 297.574 1090.83 294.645 1085.5 291.773C1070.96 283.922 1063.7 273.346 1063.7 260.045C1063.7 253.131 1065.63 246.979 1069.5 241.588C1073.43 236.139 1079.02 231.891 1086.29 228.844C1093.61 225.797 1101.81 224.273 1110.9 224.273C1120.04 224.273 1128.18 225.943 1135.33 229.283C1142.48 232.564 1148.02 237.223 1151.94 243.258C1155.93 249.293 1157.92 256.148 1157.92 263.824H1131.55C1131.55 257.965 1129.71 253.424 1126.01 250.201C1122.32 246.92 1117.14 245.279 1110.46 245.279C1104.01 245.279 1099 246.656 1095.43 249.41C1091.85 252.105 1090.07 255.68 1090.07 260.133C1090.07 264.293 1092.15 267.779 1096.31 270.592C1100.53 273.404 1106.71 276.041 1114.85 278.502C1129.85 283.014 1140.78 288.609 1147.63 295.289C1154.49 301.969 1157.92 310.289 1157.92 320.25C1157.92 331.324 1153.73 340.025 1145.35 346.354C1136.97 352.623 1125.69 355.758 1111.51 355.758C1101.67 355.758 1092.7 353.971 1084.62 350.396C1076.53 346.764 1070.35 341.813 1066.07 335.543C1061.85 329.273 1059.74 322.008 1059.74 313.746H1086.2C1086.2 327.867 1094.64 334.928 1111.51 334.928C1117.78 334.928 1122.67 333.668 1126.19 331.148C1129.71 328.57 1131.46 324.996 1131.46 320.426Z" fill="url(#paint34_linear)"/>
<defs>
<linearGradient id="paint0_linear" x1="515.442" y1="323.982" x2="157.642" y2="323.958" gradientUnits="userSpaceOnUse">
<stop stop-color="#D0B7FF"/>
<stop offset="1" stop-color="#9980D1"/>
</linearGradient>
<linearGradient id="paint1_linear" x1="-95616.3" y1="246989" x2="-313710" y2="246975" gradientUnits="userSpaceOnUse">
<stop stop-color="#D0B7FF"/>
<stop offset="1" stop-color="#9980D1"/>
</linearGradient>
<linearGradient id="paint2_linear" x1="457.307" y1="120.072" x2="136.805" y2="120.051" gradientUnits="userSpaceOnUse">
<stop stop-color="#C7AEF7"/>
<stop offset="0.49" stop-color="#C9A6FA"/>
<stop offset="1" stop-color="#CC99FF"/>
</linearGradient>
<linearGradient id="paint3_linear" x1="457.28" y1="538.009" x2="136.777" y2="537.988" gradientUnits="userSpaceOnUse">
<stop stop-color="#C7AEF7"/>
<stop offset="0.49" stop-color="#C9A6FA"/>
<stop offset="1" stop-color="#CC99FF"/>
</linearGradient>
<linearGradient id="paint4_linear" x1="457.219" y1="1465.49" x2="136.716" y2="1465.47" gradientUnits="userSpaceOnUse">
<stop stop-color="#C7AEF7"/>
<stop offset="0.49" stop-color="#C9A6FA"/>
<stop offset="1" stop-color="#CC99FF"/>
</linearGradient>
<linearGradient id="paint5_linear" x1="-98651.7" y1="1874.57" x2="-163081" y2="1870.34" gradientUnits="userSpaceOnUse">
<stop stop-color="#D0B7FF"/>
<stop offset="1" stop-color="#9980D1"/>
</linearGradient>
<linearGradient id="paint6_linear" x1="-98651.7" y1="1983.39" x2="-163081" y2="1979.16" gradientUnits="userSpaceOnUse">
<stop stop-color="#D0B7FF"/>
<stop offset="1" stop-color="#9980D1"/>
</linearGradient>
<linearGradient id="paint7_linear" x1="-98985.4" y1="2092.2" x2="-163414" y2="2087.96" gradientUnits="userSpaceOnUse">
<stop stop-color="#D0B7FF"/>
<stop offset="1" stop-color="#9980D1"/>
</linearGradient>
<linearGradient id="paint8_linear" x1="-98985.4" y1="2200.94" x2="-163414" y2="2196.7" gradientUnits="userSpaceOnUse">
<stop stop-color="#D0B7FF"/>
<stop offset="1" stop-color="#9980D1"/>
</linearGradient>
<linearGradient id="paint9_linear" x1="-98651.7" y1="2309.79" x2="-163081" y2="2305.55" gradientUnits="userSpaceOnUse">
<stop stop-color="#D0B7FF"/>
<stop offset="1" stop-color="#9980D1"/>
</linearGradient>
<linearGradient id="paint10_linear" x1="-98651.8" y1="2418.58" x2="-163081" y2="2414.34" gradientUnits="userSpaceOnUse">
<stop stop-color="#D0B7FF"/>
<stop offset="1" stop-color="#9980D1"/>
</linearGradient>
<linearGradient id="paint11_linear" x1="-98651.8" y1="2518.99" x2="-163081" y2="2514.75" gradientUnits="userSpaceOnUse">
<stop stop-color="#D0B7FF"/>
<stop offset="1" stop-color="#9980D1"/>
</linearGradient>
<linearGradient id="paint12_linear" x1="-98651.8" y1="2627.77" x2="-163081" y2="2623.54" gradientUnits="userSpaceOnUse">
<stop stop-color="#D0B7FF"/>
<stop offset="1" stop-color="#9980D1"/>
</linearGradient>
<linearGradient id="paint13_linear" x1="-98651.8" y1="2736.6" x2="-163081" y2="2732.37" gradientUnits="userSpaceOnUse">
<stop stop-color="#D0B7FF"/>
<stop offset="1" stop-color="#9980D1"/>
</linearGradient>
<linearGradient id="paint14_linear" x1="-98651.8" y1="2845.41" x2="-163081" y2="2841.17" gradientUnits="userSpaceOnUse">
<stop stop-color="#D0B7FF"/>
<stop offset="1" stop-color="#9980D1"/>
</linearGradient>
<linearGradient id="paint15_linear" x1="-58563" y1="3078.6" x2="-122992" y2="3074.37" gradientUnits="userSpaceOnUse">
<stop stop-color="#D0B7FF"/>
<stop offset="1" stop-color="#9980D1"/>
</linearGradient>
<linearGradient id="paint16_linear" x1="-58563.1" y1="3187.4" x2="-122992" y2="3183.16" gradientUnits="userSpaceOnUse">
<stop stop-color="#D0B7FF"/>
<stop offset="1" stop-color="#9980D1"/>
</linearGradient>
<linearGradient id="paint17_linear" x1="71500.5" y1="3304.71" x2="135930" y2="3308.94" gradientUnits="userSpaceOnUse">
<stop stop-color="#D0B7FF"/>
<stop offset="1" stop-color="#9980D1"/>
</linearGradient>
<linearGradient id="paint18_linear" x1="71500.5" y1="3413.48" x2="135929" y2="3417.71" gradientUnits="userSpaceOnUse">
<stop stop-color="#D0B7FF"/>
<stop offset="1" stop-color="#9980D1"/>
</linearGradient>
<linearGradient id="paint19_linear" x1="-58563.1" y1="3513.78" x2="-122992" y2="3509.55" gradientUnits="userSpaceOnUse">
<stop stop-color="#D0B7FF"/>
<stop offset="1" stop-color="#9980D1"/>
</linearGradient>
<linearGradient id="paint20_linear" x1="-58563.1" y1="3622.56" x2="-122992" y2="3618.33" gradientUnits="userSpaceOnUse">
<stop stop-color="#D0B7FF"/>
<stop offset="1" stop-color="#9980D1"/>
</linearGradient>
<linearGradient id="paint21_linear" x1="71832.1" y1="3731.58" x2="136261" y2="3735.82" gradientUnits="userSpaceOnUse">
<stop stop-color="#D0B7FF"/>
<stop offset="1" stop-color="#9980D1"/>
</linearGradient>
<linearGradient id="paint22_linear" x1="71832.1" y1="3840.35" x2="136261" y2="3844.59" gradientUnits="userSpaceOnUse">
<stop stop-color="#D0B7FF"/>
<stop offset="1" stop-color="#9980D1"/>
</linearGradient>
<linearGradient id="paint23_linear" x1="-58563.1" y1="3940.64" x2="-122992" y2="3936.41" gradientUnits="userSpaceOnUse">
<stop stop-color="#D0B7FF"/>
<stop offset="1" stop-color="#9980D1"/>
</linearGradient>
<linearGradient id="paint24_linear" x1="-58563.1" y1="4049.34" x2="-122992" y2="4045.11" gradientUnits="userSpaceOnUse">
<stop stop-color="#D0B7FF"/>
<stop offset="1" stop-color="#9980D1"/>
</linearGradient>
<linearGradient id="paint25_linear" x1="-58533.9" y1="4160.81" x2="-122963" y2="4156.58" gradientUnits="userSpaceOnUse">
<stop stop-color="#D0B7FF"/>
<stop offset="1" stop-color="#9980D1"/>
</linearGradient>
<linearGradient id="paint26_linear" x1="510.849" y1="178.124" x2="510.853" y2="118.608" gradientUnits="userSpaceOnUse">
<stop stop-color="#9980D1"/>
<stop offset="0.06" stop-color="#A78EDC"/>
<stop offset="0.16" stop-color="#B9A0EC"/>
<stop offset="0.28" stop-color="#C6ADF7"/>
<stop offset="0.44" stop-color="#CEB5FD"/>
<stop offset="0.76" stop-color="#D0B7FF"/>
<stop offset="0.83" stop-color="#DDCDFA"/>
<stop offset="0.94" stop-color="#ECE8F4"/>
<stop offset="1" stop-color="#F2F2F2"/>
</linearGradient>
<linearGradient id="paint27_linear" x1="527.912" y1="282.329" x2="495.105" y2="282.327" gradientUnits="userSpaceOnUse">
<stop stop-color="#D0B7FF"/>
<stop offset="0.2" stop-color="#BCA3EE"/>
<stop offset="0.46" stop-color="#A990DE"/>
<stop offset="0.73" stop-color="#9D84D4"/>
<stop offset="1" stop-color="#9980D1"/>
</linearGradient>
<linearGradient id="paint28_linear" x1="-4408.36" y1="33812.4" x2="-5588.07" y2="33812.4" gradientUnits="userSpaceOnUse">
<stop stop-color="#D0B7FF"/>
<stop offset="0.2" stop-color="#BCA3EE"/>
<stop offset="0.46" stop-color="#A990DE"/>
<stop offset="0.73" stop-color="#9D84D4"/>
<stop offset="1" stop-color="#9980D1"/>
</linearGradient>
<linearGradient id="paint29_linear" x1="-6212.21" y1="123138" x2="-8698.39" y2="123138" gradientUnits="userSpaceOnUse">
<stop stop-color="#D0B7FF"/>
<stop offset="0.2" stop-color="#BCA3EE"/>
<stop offset="0.46" stop-color="#A990DE"/>
<stop offset="0.73" stop-color="#9D84D4"/>
<stop offset="1" stop-color="#9980D1"/>
</linearGradient>
<linearGradient id="paint30_linear" x1="530.493" y1="401.156" x2="492.291" y2="401.153" gradientUnits="userSpaceOnUse">
<stop stop-color="#C7AEF7"/>
<stop offset="0.47" stop-color="#C8ABF8"/>
<stop offset="0.81" stop-color="#CAA2FC"/>
<stop offset="1" stop-color="#CC99FF"/>
</linearGradient>
<linearGradient id="paint31_linear" x1="-4996.35" y1="24138.2" x2="-6556.85" y2="24138.1" gradientUnits="userSpaceOnUse">
<stop stop-color="#C7AEF7"/>
<stop offset="0.47" stop-color="#C8ABF8"/>
<stop offset="0.81" stop-color="#CAA2FC"/>
<stop offset="1" stop-color="#CC99FF"/>
</linearGradient>
<linearGradient id="paint32_linear" x1="-95641.7" y1="8451.22" x2="-256203" y2="8440.66" gradientUnits="userSpaceOnUse">
<stop stop-color="#D0B7FF"/>
<stop offset="0.2" stop-color="#BCA3EE"/>
<stop offset="0.46" stop-color="#A990DE"/>
<stop offset="0.73" stop-color="#9D84D4"/>
<stop offset="1" stop-color="#9980D1"/>
</linearGradient>
<linearGradient id="paint33_linear" x1="-95334.2" y1="10402.7" x2="-255896" y2="10392.2" gradientUnits="userSpaceOnUse">
<stop stop-color="#D0B7FF"/>
<stop offset="0.2" stop-color="#BCA3EE"/>
<stop offset="0.46" stop-color="#A990DE"/>
<stop offset="0.73" stop-color="#9D84D4"/>
<stop offset="1" stop-color="#9980D1"/>
</linearGradient>
<linearGradient id="paint34_linear" x1="333.104" y1="298" x2="1127.5" y2="298" gradientUnits="userSpaceOnUse">
<stop stop-color="#BC14B8"/>
<stop offset="1" stop-color="#772F8C"/>
</linearGradient>
</defs>
</svg>
