<?xml version="1.0" encoding="utf-8"?>
<!-- Generator: Adobe Illustrator 24.2.0, SVG Export Plug-In . SVG Version: 6.00 Build 0)  -->
<svg version="1.1" id="Layer_1" xmlns="http://www.w3.org/2000/svg" xmlns:xlink="http://www.w3.org/1999/xlink" x="0px" y="0px"
	 viewBox="0 0 1080 1080" style="enable-background:new 0 0 1080 1080;" xml:space="preserve">
<style type="text/css">
	.st0{fill:url(#SVGID_1_);}
	.st1{fill:#FFFFFF;}
	.st2{opacity:5.000000e-02;enable-background:new    ;}
	.st3{fill:url(#SVGID_2_);}
	.st4{fill:none;stroke:#D7B7FF;stroke-width:2;stroke-miterlimit:10;}
	.st5{fill:#EFDFFF;}
	.st6{fill:#D7B7FF;}
	.st7{fill:url(#SVGID_3_);}
	.st8{fill:url(#SVGID_4_);}
	.st9{fill:url(#SVGID_5_);}
	.st10{opacity:0.8;fill:#FFFFFF;enable-background:new    ;}
	.st11{opacity:0.35;fill:#FFFFFF;stroke:#FFFFFF;stroke-width:2;stroke-miterlimit:10;enable-background:new    ;}
	.st12{opacity:0.5;}
	.st13{fill:url(#SVGID_6_);}
	.st14{fill:url(#SVGID_7_);}
	.st15{fill:url(#SVGID_8_);}
	.st16{fill:url(#SVGID_9_);}
	.st17{fill:url(#SVGID_10_);}
	.st18{fill:url(#SVGID_11_);}
	.st19{fill:url(#SVGID_12_);}
	.st20{fill:url(#SVGID_13_);}
	.st21{fill:url(#SVGID_14_);}
	.st22{fill:url(#SVGID_15_);}
	.st23{opacity:0.38;}
	.st24{fill:url(#SVGID_16_);}
	.st25{fill:url(#SVGID_17_);}
	.st26{fill:url(#SVGID_18_);}
	.st27{fill:url(#SVGID_19_);}
	.st28{fill:url(#SVGID_20_);}
	.st29{fill:url(#SVGID_21_);}
	.st30{fill:url(#SVGID_22_);}
	.st31{fill:url(#SVGID_23_);}
	.st32{fill:url(#SVGID_24_);}
	.st33{fill:url(#SVGID_25_);}
	.st34{fill:url(#SVGID_26_);}
	.st35{fill:url(#SVGID_27_);}
	.st36{fill:url(#SVGID_28_);}
	.st37{fill:url(#SVGID_29_);}
	.st38{fill:url(#SVGID_30_);}
	.st39{fill:url(#SVGID_31_);}
	.st40{fill:url(#SVGID_32_);}
	.st41{opacity:0.16;fill:url(#SVGID_33_);enable-background:new    ;}
	.st42{opacity:0.16;fill:url(#SVGID_34_);enable-background:new    ;}
</style>
<linearGradient id="SVGID_1_" gradientUnits="userSpaceOnUse" x1="201.94" y1="526.0198" x2="811.48" y2="526.0198" gradientTransform="matrix(1 0 0 -1 0 1077.8898)">
	<stop  offset="0" style="stop-color:#D0B7FF"/>
	<stop  offset="1" style="stop-color:#9980D1"/>
</linearGradient>
<rect x="201.9" y="128.7" class="st0" width="609.5" height="846.3"/>
<rect x="216.7" y="140.6" class="st1" width="578.5" height="821.1"/>
<rect x="201.9" y="128.7" class="st2" width="609.5" height="846.3"/>
<linearGradient id="SVGID_2_" gradientUnits="userSpaceOnUse" x1="268.52" y1="580.7598" x2="878.0599" y2="580.7598" gradientTransform="matrix(1 0 0 -1 0 1077.8898)">
	<stop  offset="0" style="stop-color:#D0B7FF"/>
	<stop  offset="1" style="stop-color:#9980D1"/>
</linearGradient>
<rect x="268.5" y="74" class="st3" width="609.5" height="846.3"/>
<rect x="283.3" y="85.8" class="st1" width="578.5" height="821.1"/>
<rect x="301" y="211" class="st4" width="12" height="12"/>
<rect x="563.5" y="210.5" class="st4" width="12" height="12"/>
<rect x="831.5" y="210.5" class="st4" width="12" height="12"/>
<rect x="301" y="245" class="st5" width="546" height="132"/>
<rect x="303" y="394" class="st6" width="188" height="212"/>
<linearGradient id="SVGID_3_" gradientUnits="userSpaceOnUse" x1="301" y1="873.3898" x2="847" y2="873.3898" gradientTransform="matrix(1 0 0 -1 0 1077.8898)">
	<stop  offset="0" style="stop-color:#C7AEF7"/>
	<stop  offset="0.49" style="stop-color:#C9A6FA"/>
	<stop  offset="1" style="stop-color:#CC99FF"/>
</linearGradient>
<rect x="301" y="203" class="st7" width="546" height="3"/>
<linearGradient id="SVGID_4_" gradientUnits="userSpaceOnUse" x1="301" y1="848.3898" x2="847" y2="848.3898" gradientTransform="matrix(1 0 0 -1 0 1077.8898)">
	<stop  offset="0" style="stop-color:#C7AEF7"/>
	<stop  offset="0.49" style="stop-color:#C9A6FA"/>
	<stop  offset="1" style="stop-color:#CC99FF"/>
</linearGradient>
<rect x="301" y="228" class="st8" width="546" height="3"/>
<linearGradient id="SVGID_5_" gradientUnits="userSpaceOnUse" x1="301" y1="453.3898" x2="847" y2="453.3898" gradientTransform="matrix(1 0 0 -1 0 1077.8898)">
	<stop  offset="0" style="stop-color:#C7AEF7"/>
	<stop  offset="0.49" style="stop-color:#C9A6FA"/>
	<stop  offset="1" style="stop-color:#CC99FF"/>
</linearGradient>
<rect x="301" y="623" class="st9" width="546" height="3"/>
<path class="st1" d="M415.2,553l-38,0.1c-2.9-0.1-5.4,2.1-5.5,5c-0.1,2.9,2.1,5.4,5,5.5c0.2,0,0.3,0,0.5,0l38.1-0.1
	c2.9,0.1,5.4-2.1,5.5-5c0.1-2.9-2.1-5.4-5-5.5C415.6,553,415.4,553,415.2,553L415.2,553z"/>
<path class="st1" d="M414.4,565.7l-38.1,0.1c-2.9,0.1-5.2,2.6-5,5.5c0.1,2.7,2.3,4.9,5,5l38.1-0.1c2.9,0,5.3-2.4,5.3-5.3
	C419.7,568.1,417.4,565.7,414.4,565.7z"/>
<path class="st1" d="M386.6,590.3H406c5.8,0,10.5-4.7,10.5-10.6c0,0,0,0,0,0l-40.5,0.1C376.1,585.6,380.8,590.3,386.6,590.3z"/>
<path class="st1" d="M395.9,407.2c-33.6,0.1-60.7,27.4-60.6,60.9c0.1,24.1,14.4,45.9,36.6,55.5v18.6c0,3.7,3,6.8,6.8,6.8l35-0.1
	c3.7,0,6.8-3,6.8-6.8v-18.6c30.7-13.5,44.7-49.3,31.2-80.1C442,421.4,420.1,407.1,395.9,407.2z M414,518.4v16.4c0,3.3-2.2,6-4.9,6
	l-25.6,0c-2.7,0-5-2.7-5-6v-16.4c-15.7-8.3-35.1-28.3-35.1-50.4c-0.1-29.7,28.1-52.7,52.7-52.8s52.6,22.8,52.6,52.5
	C448.7,489.9,429.7,510,414,518.4L414,518.4z"/>
<rect x="654" y="649" class="st6" width="188" height="233"/>
<path class="st10" d="M747.2,821l-4.7-0.1c-0.8-7.3-3.8-14.2-8.8-19.7l3.3-3.7c1-1.1,0.9-2.7-0.2-3.7l-4.9-4.4
	c-1.1-1-2.7-0.9-3.7,0.2l-3.8,4.3c-3.3-1.8-7-3.1-10.7-3.7v-5.6c0-1.5-1.2-2.6-2.6-2.6c0,0,0,0,0,0h-6.6c-1.4,0-2.6,1.2-2.6,2.6
	c0,0,0,0,0,0v5.6c-5.4,0.9-10.6,3.1-15,6.4l-3.8-3.5c-1.1-1-2.7-0.9-3.7,0.1l-4.5,4.8c-1,1.1-0.9,2.7,0.1,3.7l3.7,3.4
	c-3,4.4-4.9,9.5-5.6,14.8l-5.9-0.1c-1.5,0-2.6,1.1-2.7,2.6c0,0,0,0,0,0l-0.1,6.6c0,1.5,1.1,2.6,2.6,2.7c0,0,0,0,0,0l6.5,0.1
	c1,4.5,2.8,8.8,5.4,12.6l-4.2,4.7c-1,1.1-0.9,2.7,0.2,3.7c0,0,0,0,0,0l4.9,4.4c1.1,1,2.7,0.9,3.7-0.2l3.7-4.1
	c4.3,3.1,9.3,5.2,14.5,6.1v5.6c0,1.5,1.2,2.6,2.6,2.6l0,0h6.5c1.5,0,2.6-1.2,2.6-2.6l0,0v-5.6c5.8-1,11.2-3.4,15.8-7l4.4,4
	c1.1,1,2.7,0.9,3.7-0.1l4.5-4.8c1-1.1,0.9-2.7-0.1-3.7c0,0,0,0,0,0l-4.5-4.1c2-3.2,3.5-6.7,4.4-10.4l5.3,0.1c1.5,0,2.6-1.1,2.7-2.6
	l0.1-6.6C749.8,822.2,748.6,821,747.2,821C747.2,821,747.2,821,747.2,821z M707.7,847.7c-12.8,0-23.1-10.3-23.1-23.1
	s10.3-23.1,23.1-23.1c12.8,0,23.1,10.3,23.1,23.1C730.8,837.4,720.5,847.7,707.7,847.7L707.7,847.7z"/>
<path class="st11" d="M826,750.3l-7.3-0.1c-1.2-11.5-5.9-22.3-13.6-30.9l5.2-5.8c1.5-1.7,1.4-4.3-0.3-5.8l-7.6-6.9
	c-1.6-1.5-4.2-1.4-5.7,0.2c0,0-0.1,0.1-0.1,0.1l-5.9,6.7c-5.2-2.9-10.8-4.8-16.6-5.8v-8.8c0-2.3-1.8-4.1-4.1-4.1h-10.2
	c-2.3,0-4.1,1.9-4.1,4.1c0,0,0,0,0,0v8.8c-8.4,1.5-16.3,4.9-23.1,10.1l-5.9-5.6c-1.6-1.5-4.1-1.5-5.7,0.1c0,0-0.1,0.1-0.1,0.1
	l-6.9,7.6c-1.5,1.7-1.4,4.3,0.2,5.8l5.7,5.4c-4.6,7-7.6,14.9-8.6,23.2l-9.2-0.1c-2.3,0-4.1,1.8-4.1,4.1c0,0,0,0,0,0L698,763
	c-0.1,2.3,1.7,4.1,4,4.2l10.1,0.1c1.5,7.1,4.3,13.9,8.4,19.9l-6.5,7.3c-1.5,1.7-1.4,4.3,0.3,5.8l7.6,6.9c1.6,1.5,4.1,1.4,5.7-0.2
	c0,0,0.1-0.1,0.1-0.1l5.7-6.5c6.6,4.9,14.3,8.2,22.5,9.6v8.8c0,2.3,1.8,4.1,4.1,4.1c0,0,0,0,0,0h10.2c2.3,0,4.1-1.9,4.1-4.1v-8.8
	c8.9-1.6,17.3-5.4,24.4-11.1l6.8,6.3c1.6,1.5,4.1,1.5,5.7-0.1c0,0,0.1-0.1,0.1-0.1l6.9-7.6c1.5-1.7,1.4-4.3-0.2-5.8l-7-6.5
	c3.1-5.1,5.4-10.6,6.8-16.4l8.2,0.1c2.3,0,4.1-1.8,4.1-4.1l0.1-10.3C830,752.2,828.2,750.4,826,750.3z M765,792.3
	c-19.7,0-35.7-16.3-35.7-36.3s16-36.3,35.7-36.3s35.7,16.3,35.7,36.3S784.7,792.3,765,792.3L765,792.3z"/>
<path class="st10" d="M742.3,683.5H739c-0.5-5.1-2.7-10-6.2-13.8l2.3-2.6c0.7-0.8,0.6-1.9-0.1-2.6l-3.4-3.1
	c-0.8-0.7-1.9-0.6-2.6,0.1c0,0,0,0,0,0l-2.7,3c-2.3-1.3-4.9-2.2-7.5-2.6v-4c0-1-0.8-1.8-1.8-1.8c0,0,0,0,0,0h-4.6
	c-1,0-1.8,0.8-1.8,1.8c0,0,0,0,0,0v3.9c-3.8,0.7-7.4,2.2-10.4,4.5l-2.7-2.5c-0.7-0.7-1.9-0.6-2.6,0.1l-3.1,3.4
	c-0.7,0.8-0.6,1.9,0.1,2.6l2.6,2.4c-2.1,3.1-3.4,6.7-3.9,10.4l-4.2-0.1c-1,0-1.9,0.8-1.9,1.8c0,0,0,0,0,0l-0.1,4.6
	c0,1,0.8,1.9,1.8,1.9l4.6,0.1c0.7,3.2,2,6.2,3.8,8.9l-3,3.3c-0.7,0.8-0.6,1.9,0.1,2.6l3.4,3.1c0.8,0.7,1.9,0.6,2.6-0.1l2.6-2.9
	c3,2.2,6.5,3.7,10.2,4.3v3.9c0,1,0.8,1.8,1.8,1.8h0h4.6c1,0,1.8-0.8,1.8-1.8v0v-3.9c4-0.7,7.8-2.4,11.1-4.9l3.1,2.8
	c0.8,0.7,1.9,0.6,2.6-0.1l3.1-3.4c0.7-0.8,0.6-1.9-0.1-2.6l-3.2-2.9c1.4-2.3,2.5-4.7,3.1-7.3l3.7,0c1,0,1.8-0.8,1.8-1.8l0.1-4.6
	C744.1,684.4,743.3,683.6,742.3,683.5z M714.6,702.3c-8.9,0-16.2-7.3-16.2-16.2s7.3-16.2,16.2-16.2s16.2,7.3,16.2,16.2
	S723.5,702.3,714.6,702.3L714.6,702.3z"/>
<g class="st12">
	
		<linearGradient id="SVGID_6_" gradientUnits="userSpaceOnUse" x1="509" y1="680.3547" x2="840.3" y2="680.3547" gradientTransform="matrix(1 0 0 -1 0 1077.8898)">
		<stop  offset="0" style="stop-color:#D0B7FF"/>
		<stop  offset="1" style="stop-color:#9980D1"/>
	</linearGradient>
	<rect x="509" y="394" class="st13" width="331.3" height="7.1"/>
	
		<linearGradient id="SVGID_7_" gradientUnits="userSpaceOnUse" x1="509" y1="657.3848" x2="840.3" y2="657.3848" gradientTransform="matrix(1 0 0 -1 0 1077.8898)">
		<stop  offset="0" style="stop-color:#D0B7FF"/>
		<stop  offset="1" style="stop-color:#9980D1"/>
	</linearGradient>
	<rect x="509" y="417" class="st14" width="331.3" height="7.1"/>
	
		<linearGradient id="SVGID_8_" gradientUnits="userSpaceOnUse" x1="510.7" y1="634.4247" x2="842" y2="634.4247" gradientTransform="matrix(1 0 0 -1 0 1077.8898)">
		<stop  offset="0" style="stop-color:#D0B7FF"/>
		<stop  offset="1" style="stop-color:#9980D1"/>
	</linearGradient>
	<rect x="510.7" y="439.9" class="st15" width="331.3" height="7.1"/>
	
		<linearGradient id="SVGID_9_" gradientUnits="userSpaceOnUse" x1="510.7" y1="611.4548" x2="842" y2="611.4548" gradientTransform="matrix(1 0 0 -1 0 1077.8898)">
		<stop  offset="0" style="stop-color:#D0B7FF"/>
		<stop  offset="1" style="stop-color:#9980D1"/>
	</linearGradient>
	<rect x="510.7" y="462.9" class="st16" width="331.3" height="7.1"/>
	
		<linearGradient id="SVGID_10_" gradientUnits="userSpaceOnUse" x1="509" y1="588.4847" x2="840.3" y2="588.4847" gradientTransform="matrix(1 0 0 -1 0 1077.8898)">
		<stop  offset="0" style="stop-color:#D0B7FF"/>
		<stop  offset="1" style="stop-color:#9980D1"/>
	</linearGradient>
	<rect x="509" y="485.9" class="st17" width="331.3" height="7.1"/>
	
		<linearGradient id="SVGID_11_" gradientUnits="userSpaceOnUse" x1="509" y1="565.5248" x2="840.3" y2="565.5248" gradientTransform="matrix(1 0 0 -1 0 1077.8898)">
		<stop  offset="0" style="stop-color:#D0B7FF"/>
		<stop  offset="1" style="stop-color:#9980D1"/>
	</linearGradient>
	<rect x="509" y="508.8" class="st18" width="331.3" height="7.1"/>
	
		<linearGradient id="SVGID_12_" gradientUnits="userSpaceOnUse" x1="509.0001" y1="544.3248" x2="840.3" y2="544.3248" gradientTransform="matrix(1 0 0 -1 0 1077.8898)">
		<stop  offset="0" style="stop-color:#D0B7FF"/>
		<stop  offset="1" style="stop-color:#9980D1"/>
	</linearGradient>
	<rect x="509" y="530" class="st19" width="331.3" height="7.1"/>
	
		<linearGradient id="SVGID_13_" gradientUnits="userSpaceOnUse" x1="509.0001" y1="521.3548" x2="840.3" y2="521.3548" gradientTransform="matrix(1 0 0 -1 0 1077.8898)">
		<stop  offset="0" style="stop-color:#D0B7FF"/>
		<stop  offset="1" style="stop-color:#9980D1"/>
	</linearGradient>
	<rect x="509" y="553" class="st20" width="331.3" height="7.1"/>
	
		<linearGradient id="SVGID_14_" gradientUnits="userSpaceOnUse" x1="509" y1="498.3848" x2="840.3" y2="498.3848" gradientTransform="matrix(1 0 0 -1 0 1077.8898)">
		<stop  offset="0" style="stop-color:#D0B7FF"/>
		<stop  offset="1" style="stop-color:#9980D1"/>
	</linearGradient>
	<rect x="509" y="576" class="st21" width="331.3" height="7.1"/>
	
		<linearGradient id="SVGID_15_" gradientUnits="userSpaceOnUse" x1="509" y1="475.4248" x2="840.3" y2="475.4248" gradientTransform="matrix(1 0 0 -1 0 1077.8898)">
		<stop  offset="0" style="stop-color:#D0B7FF"/>
		<stop  offset="1" style="stop-color:#9980D1"/>
	</linearGradient>
	<rect x="509" y="598.9" class="st22" width="331.3" height="7.1"/>
</g>
<g class="st23">
	
		<linearGradient id="SVGID_16_" gradientUnits="userSpaceOnUse" x1="303.48" y1="426.7448" x2="634.78" y2="426.7448" gradientTransform="matrix(1 0 0 -1 0 1077.8898)">
		<stop  offset="0" style="stop-color:#D0B7FF"/>
		<stop  offset="1" style="stop-color:#9980D1"/>
	</linearGradient>
	<rect x="303.5" y="647.6" class="st24" width="331.3" height="7.1"/>
	
		<linearGradient id="SVGID_17_" gradientUnits="userSpaceOnUse" x1="303.48" y1="403.7747" x2="634.78" y2="403.7747" gradientTransform="matrix(1 0 0 -1 0 1077.8898)">
		<stop  offset="0" style="stop-color:#D0B7FF"/>
		<stop  offset="1" style="stop-color:#9980D1"/>
	</linearGradient>
	<rect x="303.5" y="670.6" class="st25" width="331.3" height="7.1"/>
	
		<linearGradient id="SVGID_18_" gradientUnits="userSpaceOnUse" x1="850.52" y1="380.8147" x2="1181.8199" y2="380.8147" gradientTransform="matrix(-1 0 0 -1 1487 1077.8898)">
		<stop  offset="0" style="stop-color:#D0B7FF"/>
		<stop  offset="1" style="stop-color:#9980D1"/>
	</linearGradient>
	<rect x="305.2" y="693.5" class="st26" width="331.3" height="7.1"/>
	
		<linearGradient id="SVGID_19_" gradientUnits="userSpaceOnUse" x1="850.52" y1="357.8548" x2="1181.8199" y2="357.8548" gradientTransform="matrix(-1 0 0 -1 1487 1077.8898)">
		<stop  offset="0" style="stop-color:#D0B7FF"/>
		<stop  offset="1" style="stop-color:#9980D1"/>
	</linearGradient>
	<rect x="305.2" y="716.5" class="st27" width="331.3" height="7.1"/>
	
		<linearGradient id="SVGID_20_" gradientUnits="userSpaceOnUse" x1="303.48" y1="334.8748" x2="634.78" y2="334.8748" gradientTransform="matrix(1 0 0 -1 0 1077.8898)">
		<stop  offset="0" style="stop-color:#D0B7FF"/>
		<stop  offset="1" style="stop-color:#9980D1"/>
	</linearGradient>
	<rect x="303.5" y="739.5" class="st28" width="331.3" height="7.1"/>
	
		<linearGradient id="SVGID_21_" gradientUnits="userSpaceOnUse" x1="303.48" y1="311.9148" x2="634.78" y2="311.9148" gradientTransform="matrix(1 0 0 -1 0 1077.8898)">
		<stop  offset="0" style="stop-color:#D0B7FF"/>
		<stop  offset="1" style="stop-color:#9980D1"/>
	</linearGradient>
	<rect x="303.5" y="762.4" class="st29" width="331.3" height="7.1"/>
	
		<linearGradient id="SVGID_22_" gradientUnits="userSpaceOnUse" x1="852.22" y1="290.7148" x2="1183.52" y2="290.7148" gradientTransform="matrix(-1 0 0 -1 1487 1077.8898)">
		<stop  offset="0" style="stop-color:#D0B7FF"/>
		<stop  offset="1" style="stop-color:#9980D1"/>
	</linearGradient>
	<rect x="303.5" y="783.6" class="st30" width="331.3" height="7.1"/>
	
		<linearGradient id="SVGID_23_" gradientUnits="userSpaceOnUse" x1="852.22" y1="267.7547" x2="1183.52" y2="267.7547" gradientTransform="matrix(-1 0 0 -1 1487 1077.8898)">
		<stop  offset="0" style="stop-color:#D0B7FF"/>
		<stop  offset="1" style="stop-color:#9980D1"/>
	</linearGradient>
	<rect x="303.5" y="806.6" class="st31" width="331.3" height="7.1"/>
	
		<linearGradient id="SVGID_24_" gradientUnits="userSpaceOnUse" x1="303.48" y1="244.7747" x2="634.78" y2="244.7747" gradientTransform="matrix(1 0 0 -1 0 1077.8898)">
		<stop  offset="0" style="stop-color:#D0B7FF"/>
		<stop  offset="1" style="stop-color:#9980D1"/>
	</linearGradient>
	<rect x="303.5" y="829.6" class="st32" width="331.3" height="7.1"/>
	
		<linearGradient id="SVGID_25_" gradientUnits="userSpaceOnUse" x1="303.48" y1="221.8148" x2="634.78" y2="221.8148" gradientTransform="matrix(1 0 0 -1 0 1077.8898)">
		<stop  offset="0" style="stop-color:#D0B7FF"/>
		<stop  offset="1" style="stop-color:#9980D1"/>
	</linearGradient>
	<rect x="303.5" y="852.5" class="st33" width="331.3" height="7.1"/>
	
		<linearGradient id="SVGID_26_" gradientUnits="userSpaceOnUse" x1="303.33" y1="198.2747" x2="634.63" y2="198.2747" gradientTransform="matrix(1 0 0 -1 0 1077.8898)">
		<stop  offset="0" style="stop-color:#D0B7FF"/>
		<stop  offset="1" style="stop-color:#9980D1"/>
	</linearGradient>
	<rect x="303.3" y="876.1" class="st34" width="331.3" height="7.1"/>
</g>
<linearGradient id="SVGID_27_" gradientUnits="userSpaceOnUse" x1="209.785" y1="774.4998" x2="209.785" y2="875.8898" gradientTransform="matrix(1 0 0 -1 0 1077.8898)">
	<stop  offset="0" style="stop-color:#9980D1"/>
	<stop  offset="6.000000e-02" style="stop-color:#A78EDC"/>
	<stop  offset="0.16" style="stop-color:#B9A0EC"/>
	<stop  offset="0.28" style="stop-color:#C6ADF7"/>
	<stop  offset="0.44" style="stop-color:#CEB5FD"/>
	<stop  offset="0.76" style="stop-color:#D0B7FF"/>
	<stop  offset="0.83" style="stop-color:#DDCDFA"/>
	<stop  offset="0.94" style="stop-color:#ECE8F4"/>
	<stop  offset="1" style="stop-color:#F2F2F2"/>
</linearGradient>
<polygon class="st35" points="194.6,303.4 189.4,254.4 210.9,202 230.1,255.5 222.8,303.4 209,296.9 "/>
<rect x="207.9" y="226.9" class="st1" width="5.7" height="65.8"/>
<linearGradient id="SVGID_28_" gradientUnits="userSpaceOnUse" x1="180.7" y1="596.9797" x2="236.59" y2="596.9797" gradientTransform="matrix(1 0 0 -1 0 1077.8898)">
	<stop  offset="0" style="stop-color:#D0B7FF"/>
	<stop  offset="0.2" style="stop-color:#BCA3EE"/>
	<stop  offset="0.46" style="stop-color:#A990DE"/>
	<stop  offset="0.73" style="stop-color:#9D84D4"/>
	<stop  offset="1" style="stop-color:#9980D1"/>
</linearGradient>
<path class="st36" d="M180.7,667.3c0,0,33.8-7.4,55.9,0l-7.3-368.4l-20.6-4.4l-16.9,5.9L180.7,667.3z"/>
<linearGradient id="SVGID_29_" gradientUnits="userSpaceOnUse" x1="187.35" y1="709.4948" x2="232.18" y2="709.4948" gradientTransform="matrix(1 0 0 -1 0 1077.8898)">
	<stop  offset="0" style="stop-color:#D0B7FF"/>
	<stop  offset="0.2" style="stop-color:#BCA3EE"/>
	<stop  offset="0.46" style="stop-color:#A990DE"/>
	<stop  offset="0.73" style="stop-color:#9D84D4"/>
	<stop  offset="1" style="stop-color:#9980D1"/>
</linearGradient>
<polygon class="st37" points="187.4,446.2 232.2,446.2 229.2,298.9 210.4,290.6 191.7,300.4 "/>
<path class="st1" d="M186.9,443.7c0,0,31.4-3.3,45.8,0l-2.2,2.5h-41.1L186.9,443.7z"/>
<path class="st1" d="M187.1,448.5h45.6c0,0,3.5-2.4,0-4.6h-45.6C187.1,443.9,182.9,446.5,187.1,448.5z"/>
<path class="st1" d="M186.8,439H234c0,0,5.7-1,0-3.1s-46.4-0.5-46.4-0.5S179.4,438.4,186.8,439z"/>
<path class="st1" d="M187.9,431.1h45c0,0,5.5-0.9,0-2.8s-44.2-0.4-44.2-0.4S180.8,430.6,187.9,431.1z"/>
<path class="st1" d="M187.9,423.8h45c0,0,5.5-0.8,0-2.5s-44.2-0.4-44.2-0.4S180.8,423.4,187.9,423.8z"/>
<path class="st1" d="M191.1,323.2h38.4c0,0,4.7-0.8,0-2.5s-37.7-0.4-37.7-0.4S185.1,322.7,191.1,323.2z"/>
<path class="st1" d="M191.1,315.5h38.4c0,0,4.7-0.8,0-2.5s-37.7-0.4-37.7-0.4S185.1,315,191.1,315.5z"/>
<path class="st1" d="M190.8,307.7h38.4c0,0,4.7-0.8,0-2.4s-37.7-0.4-37.7-0.4S184.7,307.3,190.8,307.7z"/>
<linearGradient id="SVGID_30_" gradientUnits="userSpaceOnUse" x1="176.29" y1="261.4289" x2="241.37" y2="261.4289" gradientTransform="matrix(1 0 0 -1 0 1077.8898)">
	<stop  offset="0" style="stop-color:#D0B7FF"/>
	<stop  offset="0.2" style="stop-color:#BCA3EE"/>
	<stop  offset="0.46" style="stop-color:#A990DE"/>
	<stop  offset="0.73" style="stop-color:#9D84D4"/>
	<stop  offset="1" style="stop-color:#9980D1"/>
</linearGradient>
<path class="st38" d="M176.3,705.4c0,0,15.6-36,65.1-3.1l-8.1,233.7c0,0-27.8,19.3-50.4,0L176.3,705.4z"/>
<linearGradient id="SVGID_31_" gradientUnits="userSpaceOnUse" x1="176.29" y1="394.5309" x2="241.37" y2="394.5309" gradientTransform="matrix(1 0 0 -1 0 1077.8898)">
	<stop  offset="0" style="stop-color:#C7AEF7"/>
	<stop  offset="0.47" style="stop-color:#C8ABF8"/>
	<stop  offset="0.81" style="stop-color:#CAA2FC"/>
	<stop  offset="1" style="stop-color:#CC99FF"/>
</linearGradient>
<path class="st39" d="M176.3,704.5l1.7-36c0,0,27.8-14,63.4,0V703C241.4,703,210.9,685.3,176.3,704.5z"/>
<path class="st1" d="M197.1,923.6l11.7,6.1l11.7-6.1v-50.2c0,0-5.7-29.2-5.7-39.7s-1.4-88.3-1.4-88.3l4.8-3.3l-6.2-34.1h-4.8
	l-8.1,35.3l5.2,2.2l-1,90.5c0,0-4.3,37-6.2,39.2S197.1,923.6,197.1,923.6z"/>
<linearGradient id="SVGID_32_" gradientUnits="userSpaceOnUse" x1="182.44" y1="122.8492" x2="234" y2="122.8492" gradientTransform="matrix(1 0 0 -1 0 1077.8898)">
	<stop  offset="0" style="stop-color:#C7AEF7"/>
	<stop  offset="0.47" style="stop-color:#C8ABF8"/>
	<stop  offset="0.81" style="stop-color:#CAA2FC"/>
	<stop  offset="1" style="stop-color:#CC99FF"/>
</linearGradient>
<path class="st40" d="M182.4,934c0,0,23.7,17.7,51.6,0l-2.4,33.1c0,0-21.7,20.2-47.5,0L182.4,934z"/>
<linearGradient id="SVGID_33_" gradientUnits="userSpaceOnUse" x1="313" y1="794.8898" x2="836" y2="794.8898" gradientTransform="matrix(1 0 0 -1 0 1077.8898)">
	<stop  offset="0" style="stop-color:#D0B7FF"/>
	<stop  offset="0.2" style="stop-color:#BCA3EE"/>
	<stop  offset="0.46" style="stop-color:#A990DE"/>
	<stop  offset="0.73" style="stop-color:#9D84D4"/>
	<stop  offset="1" style="stop-color:#9980D1"/>
</linearGradient>
<rect x="313" y="258" class="st41" width="523" height="50"/>
<linearGradient id="SVGID_34_" gradientUnits="userSpaceOnUse" x1="312" y1="736.3898" x2="835" y2="736.3898" gradientTransform="matrix(1 0 0 -1 0 1077.8898)">
	<stop  offset="0" style="stop-color:#D0B7FF"/>
	<stop  offset="0.2" style="stop-color:#BCA3EE"/>
	<stop  offset="0.46" style="stop-color:#A990DE"/>
	<stop  offset="0.73" style="stop-color:#9D84D4"/>
	<stop  offset="1" style="stop-color:#9980D1"/>
</linearGradient>
<rect x="312" y="316" class="st42" width="523" height="51"/>
</svg>
