<?xml version="1.0" encoding="utf-8"?>
<!-- Generator: Adobe Illustrator 24.2.0, SVG Export Plug-In . SVG Version: 6.00 Build 0)  -->
<svg version="1.1" id="Layer_1" xmlns="http://www.w3.org/2000/svg" xmlns:xlink="http://www.w3.org/1999/xlink" x="0px" y="0px"
	 viewBox="0 0 1556.43 1474.72" style="enable-background:new 0 0 1556.43 1474.72;" xml:space="preserve">
<style type="text/css">
	.st0{fill:url(#SVGID_1_);}
	.st1{fill:url(#SVGID_2_);}
</style>
<linearGradient id="SVGID_1_" gradientUnits="userSpaceOnUse" x1="668.5843" y1="1434.3922" x2="668.5843" y2="351.5922" gradientTransform="matrix(0.9204 -0.3909 -0.3909 -0.9204 543.0157 1826.7701)">
	<stop  offset="0" style="stop-color:#45205F"/>
	<stop  offset="1" style="stop-color:#D54699"/>
</linearGradient>
<path class="st0" d="M142.96,438.29l909.58-386.26c25.42-10.79,54.77,1.06,65.57,26.48l384.15,904.61
	c10.79,25.42-1.06,54.77-26.48,65.57l-909.58,386.26c-25.42,10.79-54.77-1.06-65.57-26.48L116.48,503.86
	C105.68,478.44,117.54,449.08,142.96,438.29z"/>
<linearGradient id="SVGID_2_" gradientUnits="userSpaceOnUse" x1="-28.5673" y1="1501.9143" x2="482.8472" y2="244.8923" gradientTransform="matrix(1 0 0 -1 8.410366e-06 1794.1953)">
	<stop  offset="0" style="stop-color:#45205F"/>
	<stop  offset="1" style="stop-color:#D54699"/>
</linearGradient>
<path class="st1" d="M401.08,1234.69l18.04,42.57l27.71-2.19l10.94,25.82l-136.41,6.06l-9.53-22.5l99.14-94.03l10.94,25.81
	L401.08,1234.69z M396.67,1279.04l-12.48-29.46l-37.83,33.49L396.67,1279.04z M344.68,1154.06l8.19,19.34l43.13-18.28l10.29,24.28
	l-117.83,49.92l-18.55-43.78c-5.9-13.92-7.34-25.97-4.34-36.15c3-10.18,10.17-17.67,21.5-22.47c8.04-3.41,15.5-4.5,22.38-3.28
	c6.8,1.19,13.3,4.65,19.47,10.36l37.35-45.89l1.13-0.48l11.04,26.06L344.68,1154.06z M333.21,1181.74l-8.3-19.59
	c-2.58-6.1-6.12-10.16-10.61-12.21c-4.55-2.02-9.54-1.87-14.99,0.43c-5.56,2.35-9.25,5.8-11.09,10.33
	c-1.86,4.48-1.4,9.98,1.36,16.51l8.26,19.5L333.21,1181.74z M227.42,1030.5l15.29,36.09l98.16-41.59l10.29,24.28L253,1090.87
	l15.09,35.61l-19.67,8.33l-40.66-95.98L227.42,1030.5z M308.75,949.17l10.29,24.28l-117.83,49.92l-10.29-24.28L308.75,949.17z
	 M220.74,850.72c13.07-4.45,25.04-3.99,35.91,1.4c10.85,5.33,19.2,14.9,25.05,28.71c6.4,15.11,6.37,29.15-0.09,42.14
	c-6.54,12.95-18.68,23.19-36.43,30.71l-7.2,3.05c-11.33,4.8-22.16,7.03-32.48,6.7c-10.32-0.33-19.35-3.23-27.06-8.67
	c-7.79-5.48-13.77-13.13-17.93-22.95c-5.76-13.6-6.76-26.09-2.99-37.48c3.76-11.39,11.95-20.53,24.57-27.4l10.29,24.28
	c-7.36,3.82-11.96,8.28-13.8,13.39c-1.92,5.08-1.3,11.34,1.85,18.78c3.43,8.09,8.91,12.93,16.45,14.51
	c7.47,1.55,17.32-0.21,29.56-5.27l8.9-3.77c12.73-5.4,21.23-11.25,25.48-17.58c4.24-6.38,4.59-13.72,1.07-22.03
	c-3.18-7.5-7.24-12.36-12.2-14.59c-5.03-2.26-11.25-2.14-18.65,0.36L220.74,850.72z M223.45,802.14l-21.84-51.55l19.5-8.26
	l32.13,75.83l-117.83,49.92l-10.29-24.28L223.45,802.14z M134.08,679.06l19.75,46.61l31.56-13.37l-23.18-54.71l19.5-8.26
	l33.46,78.99L97.35,778.24l-33.4-78.82l19.67-8.33l23.11,54.54l28.08-11.9l-19.75-46.61L134.08,679.06z M118.88,587.09
	c-4.59,1.94-7.41,5.05-8.46,9.31c-1.11,4.29-1.23,11.21-0.36,20.77c0.81,9.58,0.94,17.39,0.38,23.42
	c-1.56,16.44-8.46,27.26-20.71,32.45c-6.37,2.7-12.79,3.32-19.26,1.86c-6.55-1.49-12.64-4.98-18.28-10.49
	c-5.66-5.55-10.27-12.51-13.81-20.88c-3.57-8.42-5.21-16.57-4.92-24.45c0.23-7.86,2.36-14.78,6.39-20.75
	c4-6.02,9.54-10.53,16.61-13.53l10.29,24.28c-5.4,2.28-8.86,5.76-10.38,10.41c-1.58,4.68-1.07,10.09,1.54,16.24
	c2.51,5.93,5.74,10.01,9.67,12.23c3.88,2.24,7.86,2.49,11.96,0.75c3.83-1.62,6.23-4.9,7.2-9.83c0.94-4.98,0.96-11.7,0.05-20.16
	c-1.7-15.57-0.81-27.82,2.67-36.74c3.48-8.92,9.8-15.32,18.97-19.2c10.2-4.32,19.84-3.86,28.94,1.39
	c9.04,5.27,16.33,14.43,21.86,27.49c3.84,9.06,5.69,18.02,5.56,26.86c-0.19,8.86-2.34,16.48-6.44,22.87
	c-4.13,6.33-9.99,11.11-17.6,14.33l-10.32-24.36c13-5.51,16.21-16.03,9.63-31.57c-2.45-5.77-5.51-9.79-9.21-12.04
	C127.07,585.53,123.09,585.31,118.88,587.09z"/>
</svg>
