<?xml version="1.0" encoding="utf-8"?>
<!-- Generator: Adobe Illustrator 24.2.0, SVG Export Plug-In . SVG Version: 6.00 Build 0)  -->
<svg width="1219" height="606" viewBox="0 0 1219 606" fill="none" xmlns="http://www.w3.org/2000/svg">
<g opacity="0.5">
<path d="M455.286 72.215H113.288V547.083H455.286V72.215Z" fill="url(#paint0_linear)"/>
<path d="M446.196 78.8922H121.593V539.621H446.196V78.8922Z" fill="white"/>
<path opacity="0.05" d="M455.286 72.215H113.288V547.083H455.286V72.215Z" fill="black"/>
<path d="M492.656 41.5222H150.658V516.391H492.656V41.5222Z" fill="url(#paint1_linear)"/>
<path d="M483.566 48.1433H158.963V508.872H483.566V48.1433Z" fill="white"/>
<path d="M175.628 118.394H168.894V125.128H175.628V118.394Z" stroke="#D7B7FF" stroke-width="2" stroke-miterlimit="10"/>
<path d="M322.919 118.114H316.186V124.847H322.919V118.114Z" stroke="#D7B7FF" stroke-width="2" stroke-miterlimit="10"/>
<path d="M473.297 118.114H466.564V124.847H473.297V118.114Z" stroke="#D7B7FF" stroke-width="2" stroke-miterlimit="10"/>
<path d="M475.261 137.472H168.894V211.539H475.261V137.472Z" fill="#EFDFFF"/>
<path d="M275.506 221.078H170.017V340.033H275.506V221.078Z" fill="#D7B7FF"/>
<path d="M475.261 113.906H168.894V115.589H475.261V113.906Z" fill="url(#paint2_linear)"/>
<path d="M475.261 127.933H168.894V129.617H475.261V127.933Z" fill="url(#paint3_linear)"/>
<path d="M475.261 349.572H168.894V351.256H475.261V349.572Z" fill="url(#paint4_linear)"/>
<path d="M232.973 310.294L211.651 310.351C210.024 310.294 208.621 311.529 208.565 313.156C208.509 314.783 209.743 316.186 211.371 316.242C211.483 316.242 211.539 316.242 211.651 316.242L233.029 316.186C234.657 316.242 236.059 315.008 236.116 313.381C236.172 311.753 234.937 310.351 233.31 310.294C233.198 310.294 233.086 310.294 232.973 310.294Z" fill="white"/>
<path d="M232.524 317.421L211.146 317.477C209.519 317.533 208.228 318.936 208.341 320.563C208.397 322.078 209.631 323.312 211.146 323.368L232.524 323.312C234.152 323.312 235.498 321.966 235.498 320.338C235.498 318.767 234.208 317.421 232.524 317.421Z" fill="white"/>
<path d="M216.926 331.224H227.811C231.066 331.224 233.703 328.587 233.703 325.276L210.978 325.332C211.034 328.587 213.671 331.224 216.926 331.224Z" fill="white"/>
<path d="M222.144 228.484C203.291 228.541 188.084 243.859 188.141 262.656C188.197 276.179 196.221 288.411 208.677 293.798V304.234C208.677 306.311 210.361 308.05 212.493 308.05L232.132 307.994C234.208 307.994 235.947 306.311 235.947 304.178V293.742C253.173 286.167 261.029 266.079 253.454 248.797C248.011 236.452 235.723 228.428 222.144 228.484ZM232.3 290.88V300.082C232.3 301.934 231.066 303.449 229.551 303.449H215.186C213.671 303.449 212.381 301.934 212.381 300.082V290.88C203.571 286.223 192.686 275.001 192.686 262.6C192.629 245.935 208.453 233.029 222.256 232.973C236.059 232.917 251.771 245.767 251.771 262.432C251.771 274.888 241.109 286.167 232.3 290.88Z" fill="white"/>
<path d="M472.456 364.161H366.967V494.9H472.456V364.161Z" fill="#D7B7FF"/>
<path opacity="0.8" d="M419.262 460.672L416.625 460.616C416.176 456.52 414.493 452.648 411.687 449.562L413.539 447.486C414.1 446.869 414.044 445.971 413.427 445.41L410.677 442.941C410.06 442.38 409.162 442.436 408.601 443.053L406.469 445.466C404.617 444.456 402.541 443.727 400.465 443.39V440.248C400.465 439.406 399.792 438.789 399.006 438.789H395.303C394.517 438.789 393.844 439.462 393.844 440.248V443.39C390.814 443.895 387.896 445.129 385.427 446.981L383.295 445.017C382.678 444.456 381.78 444.512 381.219 445.073L378.694 447.767C378.133 448.384 378.189 449.282 378.75 449.843L380.826 451.751C379.143 454.219 378.077 457.081 377.684 460.055L374.373 459.999C373.532 459.999 372.914 460.616 372.858 461.458L372.802 465.161C372.802 466.003 373.419 466.62 374.261 466.676L377.908 466.732C378.469 469.257 379.479 471.67 380.938 473.802L378.582 476.439C378.021 477.057 378.077 477.954 378.694 478.516L381.443 480.984C382.061 481.546 382.958 481.489 383.519 480.872L385.596 478.572C388.008 480.311 390.814 481.489 393.732 481.994V485.137C393.732 485.978 394.405 486.596 395.191 486.596H398.838C399.679 486.596 400.297 485.922 400.297 485.137V481.994C403.551 481.433 406.581 480.087 409.162 478.067L411.631 480.311C412.248 480.872 413.146 480.816 413.707 480.255L416.232 477.562C416.793 476.944 416.737 476.047 416.176 475.486L413.651 473.185C414.773 471.389 415.615 469.426 416.12 467.349L419.094 467.406C419.936 467.406 420.553 466.788 420.609 465.947L420.665 462.243C420.721 461.346 420.048 460.672 419.262 460.672ZM397.098 475.654C389.916 475.654 384.137 469.874 384.137 462.692C384.137 455.51 389.916 449.731 397.098 449.731C404.281 449.731 410.06 455.51 410.06 462.692C410.06 469.874 404.281 475.654 397.098 475.654Z" fill="white"/>
<path opacity="0.35" d="M463.478 421.002L459.382 420.946C458.708 414.493 456.071 408.433 451.751 403.607L454.668 400.353C455.51 399.399 455.454 397.94 454.5 397.098L450.236 393.227C449.338 392.385 447.879 392.441 447.037 393.339L446.981 393.395L443.671 397.154C440.753 395.527 437.611 394.461 434.356 393.9V388.962C434.356 387.672 433.346 386.662 432.056 386.662H426.332C425.042 386.662 424.032 387.728 424.032 388.962V393.9C419.318 394.742 414.886 396.649 411.07 399.567L407.759 396.425C406.862 395.583 405.459 395.583 404.561 396.481L404.505 396.537L400.633 400.802C399.792 401.756 399.848 403.214 400.746 404.056L403.944 407.086C401.363 411.014 399.679 415.447 399.118 420.104L393.956 420.048C392.666 420.048 391.656 421.058 391.656 422.348V428.128C391.599 429.418 392.609 430.428 393.9 430.484L399.567 430.541C400.409 434.524 401.98 438.34 404.281 441.707L400.633 445.803C399.792 446.757 399.848 448.216 400.802 449.057L405.066 452.929C405.964 453.771 407.367 453.714 408.264 452.817L408.321 452.761L411.519 449.113C415.222 451.863 419.543 453.714 424.144 454.5V459.438C424.144 460.728 425.154 461.738 426.444 461.738H432.168C433.458 461.738 434.468 460.672 434.468 459.438V454.5C439.462 453.602 444.176 451.47 448.159 448.272L451.975 451.807C452.873 452.648 454.276 452.648 455.173 451.751L455.229 451.694L459.101 447.43C459.943 446.476 459.887 445.017 458.989 444.176L455.061 440.528C456.801 437.667 458.091 434.581 458.877 431.326L463.478 431.382C464.768 431.382 465.778 430.372 465.778 429.082L465.834 423.302C465.722 422.068 464.712 421.058 463.478 421.002ZM429.25 444.568C418.196 444.568 409.218 435.422 409.218 424.2C409.218 412.978 418.196 403.832 429.25 403.832C440.304 403.832 449.282 412.978 449.282 424.2C449.282 435.422 440.304 444.568 429.25 444.568Z" fill="white" stroke="white" stroke-width="2" stroke-miterlimit="10"/>
<path opacity="0.8" d="M416.513 383.519H414.661C414.381 380.658 413.146 377.908 411.182 375.776L412.473 374.317C412.866 373.868 412.809 373.251 412.417 372.858L410.509 371.119C410.06 370.726 409.443 370.782 409.05 371.175L407.535 372.858C406.244 372.129 404.786 371.624 403.327 371.399V369.155C403.327 368.594 402.878 368.145 402.317 368.145H399.736C399.174 368.145 398.726 368.594 398.726 369.155V371.343C396.593 371.736 394.573 372.578 392.89 373.868L391.375 372.466C390.982 372.073 390.309 372.129 389.916 372.522L388.177 374.429C387.784 374.878 387.84 375.496 388.233 375.888L389.692 377.235C388.513 378.974 387.784 380.994 387.503 383.071L385.147 383.014C384.586 383.014 384.081 383.463 384.081 384.024L384.024 386.606C384.024 387.167 384.473 387.672 385.034 387.672L387.616 387.728C388.008 389.523 388.738 391.207 389.748 392.722L388.064 394.573C387.672 395.022 387.728 395.639 388.121 396.032L390.028 397.772C390.477 398.164 391.094 398.108 391.487 397.716L392.946 396.088C394.629 397.323 396.593 398.164 398.669 398.501V400.689C398.669 401.251 399.118 401.699 399.679 401.699H402.261C402.822 401.699 403.271 401.251 403.271 400.689V398.501C405.515 398.108 407.647 397.154 409.499 395.752L411.238 397.323C411.687 397.716 412.304 397.659 412.697 397.267L414.437 395.359C414.829 394.91 414.773 394.293 414.381 393.9L412.585 392.273C413.371 390.982 413.988 389.636 414.324 388.177H416.401C416.962 388.177 417.411 387.728 417.411 387.167L417.467 384.586C417.523 384.024 417.074 383.576 416.513 383.519ZM400.97 394.068C395.976 394.068 391.88 389.972 391.88 384.978C391.88 379.984 395.976 375.888 400.97 375.888C405.964 375.888 410.06 379.984 410.06 384.978C410.06 389.972 405.964 394.068 400.97 394.068Z" fill="white"/>
<g opacity="0.5">
<path opacity="0.5" d="M471.502 221.078H285.606V225.062H471.502V221.078Z" fill="url(#paint5_linear)"/>
<path opacity="0.5" d="M471.502 233.983H285.606V237.967H471.502V233.983Z" fill="url(#paint6_linear)"/>
<path opacity="0.5" d="M472.456 246.833H286.559V250.817H472.456V246.833Z" fill="url(#paint7_linear)"/>
<path opacity="0.5" d="M472.456 259.738H286.559V263.722H472.456V259.738Z" fill="url(#paint8_linear)"/>
<path opacity="0.5" d="M471.502 272.644H285.606V276.628H471.502V272.644Z" fill="url(#paint9_linear)"/>
<path opacity="0.5" d="M471.502 285.493H285.606V289.477H471.502V285.493Z" fill="url(#paint10_linear)"/>
<path opacity="0.5" d="M471.502 297.389H285.606V301.373H471.502V297.389Z" fill="url(#paint11_linear)"/>
<path opacity="0.5" d="M471.502 310.294H285.606V314.278H471.502V310.294Z" fill="url(#paint12_linear)"/>
<path opacity="0.5" d="M471.502 323.2H285.606V327.184H471.502V323.2Z" fill="url(#paint13_linear)"/>
<path opacity="0.5" d="M471.502 336.049H285.606V340.033H471.502V336.049Z" fill="url(#paint14_linear)"/>
</g>
<g opacity="0.38">
<path opacity="0.38" d="M356.193 363.376H170.297V367.359H356.193V363.376Z" fill="url(#paint15_linear)"/>
<path opacity="0.38" d="M356.193 376.281H170.297V380.265H356.193V376.281Z" fill="url(#paint16_linear)"/>
<path opacity="0.38" d="M357.147 389.131H171.251V393.114H357.147V389.131Z" fill="url(#paint17_linear)"/>
<path opacity="0.38" d="M357.147 402.036H171.251V406.02H357.147V402.036Z" fill="url(#paint18_linear)"/>
<path opacity="0.38" d="M356.193 414.942H170.297V418.926H356.193V414.942Z" fill="url(#paint19_linear)"/>
<path opacity="0.38" d="M356.193 427.791H170.297V431.775H356.193V427.791Z" fill="url(#paint20_linear)"/>
<path opacity="0.38" d="M356.193 439.687H170.297V443.671H356.193V439.687Z" fill="url(#paint21_linear)"/>
<path opacity="0.38" d="M356.193 452.592H170.297V456.576H356.193V452.592Z" fill="url(#paint22_linear)"/>
<path opacity="0.38" d="M356.193 465.498H170.297V469.482H356.193V465.498Z" fill="url(#paint23_linear)"/>
<path opacity="0.38" d="M356.193 478.347H170.297V482.331H356.193V478.347Z" fill="url(#paint24_linear)"/>
<path opacity="0.38" d="M356.081 491.589H170.185V495.573H356.081V491.589Z" fill="url(#paint25_linear)"/>
</g>
<path d="M109.192 170.241L106.274 142.747L118.338 113.344L129.112 143.364L125.016 170.241L117.272 166.594L109.192 170.241Z" fill="url(#paint26_linear)"/>
<path d="M119.853 127.316H116.655V164.237H119.853V127.316Z" fill="white"/>
<path d="M101.393 374.429C101.393 374.429 120.358 370.277 132.759 374.429L128.663 167.716L117.104 165.247L107.621 168.558L101.393 374.429Z" fill="url(#paint27_linear)"/>
<path d="M105.152 250.368H130.29L128.607 167.716L118.058 163.059L107.565 168.558L105.152 250.368Z" fill="url(#paint28_linear)"/>
<path d="M104.872 248.965C104.872 248.965 122.491 247.113 130.571 248.965L129.336 250.368H106.274L104.872 248.965Z" fill="white"/>
<path d="M104.984 251.658H130.571C130.571 251.658 132.534 250.312 130.571 249.077H104.984C104.984 249.077 102.627 250.536 104.984 251.658Z" fill="white"/>
<path d="M104.816 246.328H131.3C131.3 246.328 134.498 245.767 131.3 244.588C128.102 243.41 105.264 244.308 105.264 244.308C105.264 244.308 100.663 245.991 104.816 246.328Z" fill="white"/>
<path d="M105.433 241.895H130.683C130.683 241.895 133.769 241.39 130.683 240.324C127.597 239.258 105.882 240.099 105.882 240.099C105.882 240.099 101.449 241.614 105.433 241.895Z" fill="white"/>
<path d="M105.433 237.799H130.683C130.683 237.799 133.769 237.35 130.683 236.396C127.597 235.442 105.882 236.172 105.882 236.172C105.882 236.172 101.449 237.574 105.433 237.799Z" fill="white"/>
<path d="M107.228 181.351H128.775C128.775 181.351 131.412 180.902 128.775 179.948C126.138 178.994 107.621 179.724 107.621 179.724C107.621 179.724 103.862 181.071 107.228 181.351Z" fill="white"/>
<path d="M107.228 177.031H128.775C128.775 177.031 131.412 176.582 128.775 175.628C126.138 174.674 107.621 175.403 107.621 175.403C107.621 175.403 103.862 176.75 107.228 177.031Z" fill="white"/>
<path d="M107.06 172.654H128.607C128.607 172.654 131.244 172.205 128.607 171.307C125.969 170.409 107.453 171.083 107.453 171.083C107.453 171.083 103.637 172.429 107.06 172.654Z" fill="white"/>
<path d="M98.9239 395.808C98.9239 395.808 107.677 375.608 135.452 394.068L130.907 525.2C130.907 525.2 115.308 536.029 102.627 525.2L98.9239 395.808Z" fill="url(#paint29_linear)"/>
<path d="M98.9239 395.303L99.8778 375.103C99.8778 375.103 115.477 367.247 135.452 375.103V394.461C135.452 394.461 118.338 384.529 98.9239 395.303Z" fill="url(#paint30_linear)"/>
<path d="M110.595 518.242L117.16 521.665L123.725 518.242V490.074C123.725 490.074 120.527 473.69 120.527 467.798C120.527 461.907 119.741 418.252 119.741 418.252L122.434 416.401L118.956 397.267H116.262L111.717 417.074L114.635 418.308L114.074 469.089C114.074 469.089 111.661 489.85 110.595 491.084C109.529 492.319 110.595 518.242 110.595 518.242Z" fill="white"/>
<path d="M102.347 524.078C102.347 524.078 115.645 534.009 131.3 524.078L129.953 542.651C129.953 542.651 117.777 553.985 103.301 542.651L102.347 524.078Z" fill="url(#paint31_linear)"/>
<path opacity="0.16" d="M469.089 144.767H175.628V172.822H469.089V144.767Z" fill="url(#paint32_linear)"/>
<path opacity="0.16" d="M468.528 177.311H175.067V205.928H468.528V177.311Z" fill="url(#paint33_linear)"/>
</g>
<path d="M445.32 328.168H396.521L387.244 356H357.649L407.933 220.922H433.724L484.285 356H454.69L445.32 328.168ZM404.036 305.624H437.806L420.828 255.062L404.036 305.624ZM546.907 306.552H524.734V356H496.902V220.922H547.093C563.05 220.922 575.358 224.478 584.017 231.591C592.675 238.703 597.005 248.754 597.005 261.742C597.005 270.958 594.995 278.658 590.975 284.843C587.016 290.966 580.986 295.852 572.884 299.501L602.107 354.701V356H572.234L546.907 306.552ZM524.734 284.008H547.186C554.174 284.008 559.586 282.245 563.421 278.72C567.256 275.132 569.173 270.215 569.173 263.969C569.173 257.598 567.348 252.589 563.699 248.939C560.112 245.29 554.576 243.466 547.093 243.466H524.734V284.008ZM715.291 243.466L673.914 243.466V356H646.082V243.466H605.262V220.922L715.291 220.922V243.466ZM760.843 356H733.011V220.922H760.843V356ZM892.767 311.005C891.715 325.539 886.334 336.981 876.624 345.331C866.976 353.681 854.235 357.855 838.401 357.855C821.084 357.855 807.446 352.042 797.488 340.414C787.592 328.725 782.645 312.706 782.645 292.357V284.101C782.645 271.112 784.933 259.67 789.51 249.774C794.087 239.879 800.612 232.302 809.085 227.045C817.62 221.726 827.516 219.066 838.772 219.066C854.358 219.066 866.914 223.241 876.438 231.591C885.963 239.94 891.468 251.661 892.952 266.752H865.12C864.44 258.031 861.997 251.723 857.791 247.826C853.647 243.868 847.308 241.889 838.772 241.889C829.495 241.889 822.537 245.229 817.898 251.908C813.322 258.526 810.971 268.824 810.848 282.802V293.007C810.848 307.603 813.043 318.272 817.435 325.014C821.888 331.755 828.877 335.126 838.401 335.126C846.998 335.126 853.4 333.178 857.605 329.281C861.873 325.323 864.316 319.231 864.935 311.005H892.767ZM938.875 333.642H997.972V356H911.043V220.922H938.875V333.642ZM1095.29 297.46H1041.85V333.642H1104.57V356H1014.02V220.922L1104.38 220.922V243.466L1041.85 243.466V275.658H1095.29V297.46ZM1190.94 320.561C1190.94 315.303 1189.08 311.283 1185.37 308.5C1181.66 305.655 1174.98 302.686 1165.33 299.594C1155.69 296.439 1148.05 293.347 1142.42 290.316C1127.08 282.029 1119.41 270.865 1119.41 256.825C1119.41 249.527 1121.45 243.033 1125.54 237.343C1129.68 231.591 1135.59 227.107 1143.25 223.891C1150.99 220.674 1159.64 219.066 1169.23 219.066C1178.88 219.066 1187.48 220.829 1195.02 224.354C1202.57 227.818 1208.41 232.735 1212.56 239.105C1216.76 245.476 1218.87 252.712 1218.87 260.814H1191.03C1191.03 254.63 1189.08 249.836 1185.19 246.435C1181.29 242.971 1175.82 241.239 1168.77 241.239C1161.96 241.239 1156.68 242.693 1152.9 245.6C1149.13 248.445 1147.24 252.217 1147.24 256.918C1147.24 261.309 1149.44 264.989 1153.83 267.958C1158.28 270.927 1164.81 273.71 1173.41 276.308C1189.24 281.07 1200.77 286.977 1208.01 294.027C1215.25 301.078 1218.87 309.861 1218.87 320.375C1218.87 332.064 1214.44 341.249 1205.6 347.929C1196.75 354.547 1184.85 357.855 1169.88 357.855C1159.49 357.855 1150.03 355.969 1141.49 352.196C1132.96 348.362 1126.43 343.135 1121.92 336.518C1117.46 329.9 1115.24 322.23 1115.24 313.51L1143.16 313.51C1143.16 328.415 1152.07 335.868 1169.88 335.868C1176.5 335.868 1181.66 334.538 1185.37 331.879C1189.08 329.158 1190.94 325.385 1190.94 320.561Z" fill="white"/>
<path d="M445.32 328.168H396.521L387.244 356H357.649L407.933 220.922H433.724L484.285 356H454.69L445.32 328.168ZM404.036 305.624H437.806L420.828 255.062L404.036 305.624ZM546.907 306.552H524.734V356H496.902V220.922H547.093C563.05 220.922 575.358 224.478 584.017 231.591C592.675 238.703 597.005 248.754 597.005 261.742C597.005 270.958 594.995 278.658 590.975 284.843C587.016 290.966 580.986 295.852 572.884 299.501L602.107 354.701V356H572.234L546.907 306.552ZM524.734 284.008H547.186C554.174 284.008 559.586 282.245 563.421 278.72C567.256 275.132 569.173 270.215 569.173 263.969C569.173 257.598 567.348 252.589 563.699 248.939C560.112 245.29 554.576 243.466 547.093 243.466H524.734V284.008ZM715.291 243.466L673.914 243.466V356H646.082V243.466H605.262V220.922L715.291 220.922V243.466ZM760.843 356H733.011V220.922H760.843V356ZM892.767 311.005C891.715 325.539 886.334 336.981 876.624 345.331C866.976 353.681 854.235 357.855 838.401 357.855C821.084 357.855 807.446 352.042 797.488 340.414C787.592 328.725 782.645 312.706 782.645 292.357V284.101C782.645 271.112 784.933 259.67 789.51 249.774C794.087 239.879 800.612 232.302 809.085 227.045C817.62 221.726 827.516 219.066 838.772 219.066C854.358 219.066 866.914 223.241 876.438 231.591C885.963 239.94 891.468 251.661 892.952 266.752H865.12C864.44 258.031 861.997 251.723 857.791 247.826C853.647 243.868 847.308 241.889 838.772 241.889C829.495 241.889 822.537 245.229 817.898 251.908C813.322 258.526 810.971 268.824 810.848 282.802V293.007C810.848 307.603 813.043 318.272 817.435 325.014C821.888 331.755 828.877 335.126 838.401 335.126C846.998 335.126 853.4 333.178 857.605 329.281C861.873 325.323 864.316 319.231 864.935 311.005H892.767ZM938.875 333.642H997.972V356H911.043V220.922H938.875V333.642ZM1095.29 297.46H1041.85V333.642H1104.57V356H1014.02V220.922L1104.38 220.922V243.466L1041.85 243.466V275.658H1095.29V297.46ZM1190.94 320.561C1190.94 315.303 1189.08 311.283 1185.37 308.5C1181.66 305.655 1174.98 302.686 1165.33 299.594C1155.69 296.439 1148.05 293.347 1142.42 290.316C1127.08 282.029 1119.41 270.865 1119.41 256.825C1119.41 249.527 1121.45 243.033 1125.54 237.343C1129.68 231.591 1135.59 227.107 1143.25 223.891C1150.99 220.674 1159.64 219.066 1169.23 219.066C1178.88 219.066 1187.48 220.829 1195.02 224.354C1202.57 227.818 1208.41 232.735 1212.56 239.105C1216.76 245.476 1218.87 252.712 1218.87 260.814H1191.03C1191.03 254.63 1189.08 249.836 1185.19 246.435C1181.29 242.971 1175.82 241.239 1168.77 241.239C1161.96 241.239 1156.68 242.693 1152.9 245.6C1149.13 248.445 1147.24 252.217 1147.24 256.918C1147.24 261.309 1149.44 264.989 1153.83 267.958C1158.28 270.927 1164.81 273.71 1173.41 276.308C1189.24 281.07 1200.77 286.977 1208.01 294.027C1215.25 301.078 1218.87 309.861 1218.87 320.375C1218.87 332.064 1214.44 341.249 1205.6 347.929C1196.75 354.547 1184.85 357.855 1169.88 357.855C1159.49 357.855 1150.03 355.969 1141.49 352.196C1132.96 348.362 1126.43 343.135 1121.92 336.518C1117.46 329.9 1115.24 322.23 1115.24 313.51L1143.16 313.51C1143.16 328.415 1152.07 335.868 1169.88 335.868C1176.5 335.868 1181.66 334.538 1185.37 331.879C1189.08 329.158 1190.94 325.385 1190.94 320.561Z" fill="url(#paint34_linear)"/>
<defs>
<linearGradient id="paint0_linear" x1="113.311" y1="309.66" x2="455.33" y2="309.66" gradientUnits="userSpaceOnUse">
<stop stop-color="#D0B7FF"/>
<stop offset="1" stop-color="#9980D1"/>
</linearGradient>
<linearGradient id="paint1_linear" x1="150.67" y1="278.945" x2="492.689" y2="278.945" gradientUnits="userSpaceOnUse">
<stop stop-color="#D0B7FF"/>
<stop offset="1" stop-color="#9980D1"/>
</linearGradient>
<linearGradient id="paint2_linear" x1="168.894" y1="114.747" x2="475.261" y2="114.747" gradientUnits="userSpaceOnUse">
<stop stop-color="#C7AEF7"/>
<stop offset="0.49" stop-color="#C9A6FA"/>
<stop offset="1" stop-color="#CC99FF"/>
</linearGradient>
<linearGradient id="paint3_linear" x1="168.894" y1="128.775" x2="475.261" y2="128.775" gradientUnits="userSpaceOnUse">
<stop stop-color="#C7AEF7"/>
<stop offset="0.49" stop-color="#C9A6FA"/>
<stop offset="1" stop-color="#CC99FF"/>
</linearGradient>
<linearGradient id="paint4_linear" x1="168.894" y1="350.414" x2="475.261" y2="350.414" gradientUnits="userSpaceOnUse">
<stop stop-color="#C7AEF7"/>
<stop offset="0.49" stop-color="#C9A6FA"/>
<stop offset="1" stop-color="#CC99FF"/>
</linearGradient>
<linearGradient id="paint5_linear" x1="285.606" y1="223.061" x2="471.502" y2="223.061" gradientUnits="userSpaceOnUse">
<stop stop-color="#D0B7FF"/>
<stop offset="1" stop-color="#9980D1"/>
</linearGradient>
<linearGradient id="paint6_linear" x1="285.606" y1="235.95" x2="471.502" y2="235.95" gradientUnits="userSpaceOnUse">
<stop stop-color="#D0B7FF"/>
<stop offset="1" stop-color="#9980D1"/>
</linearGradient>
<linearGradient id="paint7_linear" x1="286.559" y1="248.833" x2="472.456" y2="248.833" gradientUnits="userSpaceOnUse">
<stop stop-color="#D0B7FF"/>
<stop offset="1" stop-color="#9980D1"/>
</linearGradient>
<linearGradient id="paint8_linear" x1="286.559" y1="261.722" x2="472.456" y2="261.722" gradientUnits="userSpaceOnUse">
<stop stop-color="#D0B7FF"/>
<stop offset="1" stop-color="#9980D1"/>
</linearGradient>
<linearGradient id="paint9_linear" x1="285.606" y1="274.611" x2="471.502" y2="274.611" gradientUnits="userSpaceOnUse">
<stop stop-color="#D0B7FF"/>
<stop offset="1" stop-color="#9980D1"/>
</linearGradient>
<linearGradient id="paint10_linear" x1="285.606" y1="287.494" x2="471.502" y2="287.494" gradientUnits="userSpaceOnUse">
<stop stop-color="#D0B7FF"/>
<stop offset="1" stop-color="#9980D1"/>
</linearGradient>
<linearGradient id="paint11_linear" x1="285.606" y1="299.389" x2="471.502" y2="299.389" gradientUnits="userSpaceOnUse">
<stop stop-color="#D0B7FF"/>
<stop offset="1" stop-color="#9980D1"/>
</linearGradient>
<linearGradient id="paint12_linear" x1="285.606" y1="312.278" x2="471.502" y2="312.278" gradientUnits="userSpaceOnUse">
<stop stop-color="#D0B7FF"/>
<stop offset="1" stop-color="#9980D1"/>
</linearGradient>
<linearGradient id="paint13_linear" x1="285.606" y1="325.167" x2="471.502" y2="325.167" gradientUnits="userSpaceOnUse">
<stop stop-color="#D0B7FF"/>
<stop offset="1" stop-color="#9980D1"/>
</linearGradient>
<linearGradient id="paint14_linear" x1="285.606" y1="338.05" x2="471.502" y2="338.05" gradientUnits="userSpaceOnUse">
<stop stop-color="#D0B7FF"/>
<stop offset="1" stop-color="#9980D1"/>
</linearGradient>
<linearGradient id="paint15_linear" x1="170.286" y1="365.365" x2="356.182" y2="365.365" gradientUnits="userSpaceOnUse">
<stop stop-color="#D0B7FF"/>
<stop offset="1" stop-color="#9980D1"/>
</linearGradient>
<linearGradient id="paint16_linear" x1="170.286" y1="378.253" x2="356.182" y2="378.253" gradientUnits="userSpaceOnUse">
<stop stop-color="#D0B7FF"/>
<stop offset="1" stop-color="#9980D1"/>
</linearGradient>
<linearGradient id="paint17_linear" x1="357.136" y1="391.137" x2="171.24" y2="391.137" gradientUnits="userSpaceOnUse">
<stop stop-color="#D0B7FF"/>
<stop offset="1" stop-color="#9980D1"/>
</linearGradient>
<linearGradient id="paint18_linear" x1="357.136" y1="404.02" x2="171.24" y2="404.02" gradientUnits="userSpaceOnUse">
<stop stop-color="#D0B7FF"/>
<stop offset="1" stop-color="#9980D1"/>
</linearGradient>
<linearGradient id="paint19_linear" x1="170.286" y1="416.914" x2="356.182" y2="416.914" gradientUnits="userSpaceOnUse">
<stop stop-color="#D0B7FF"/>
<stop offset="1" stop-color="#9980D1"/>
</linearGradient>
<linearGradient id="paint20_linear" x1="170.286" y1="429.797" x2="356.182" y2="429.797" gradientUnits="userSpaceOnUse">
<stop stop-color="#D0B7FF"/>
<stop offset="1" stop-color="#9980D1"/>
</linearGradient>
<linearGradient id="paint21_linear" x1="356.182" y1="441.693" x2="170.286" y2="441.693" gradientUnits="userSpaceOnUse">
<stop stop-color="#D0B7FF"/>
<stop offset="1" stop-color="#9980D1"/>
</linearGradient>
<linearGradient id="paint22_linear" x1="356.182" y1="454.576" x2="170.286" y2="454.576" gradientUnits="userSpaceOnUse">
<stop stop-color="#D0B7FF"/>
<stop offset="1" stop-color="#9980D1"/>
</linearGradient>
<linearGradient id="paint23_linear" x1="170.286" y1="467.47" x2="356.182" y2="467.47" gradientUnits="userSpaceOnUse">
<stop stop-color="#D0B7FF"/>
<stop offset="1" stop-color="#9980D1"/>
</linearGradient>
<linearGradient id="paint24_linear" x1="170.286" y1="480.353" x2="356.182" y2="480.353" gradientUnits="userSpaceOnUse">
<stop stop-color="#D0B7FF"/>
<stop offset="1" stop-color="#9980D1"/>
</linearGradient>
<linearGradient id="paint25_linear" x1="170.202" y1="493.562" x2="356.098" y2="493.562" gradientUnits="userSpaceOnUse">
<stop stop-color="#D0B7FF"/>
<stop offset="1" stop-color="#9980D1"/>
</linearGradient>
<linearGradient id="paint26_linear" x1="117.713" y1="170.236" x2="117.713" y2="113.344" gradientUnits="userSpaceOnUse">
<stop stop-color="#9980D1"/>
<stop offset="0.06" stop-color="#A78EDC"/>
<stop offset="0.16" stop-color="#B9A0EC"/>
<stop offset="0.28" stop-color="#C6ADF7"/>
<stop offset="0.44" stop-color="#CEB5FD"/>
<stop offset="0.76" stop-color="#D0B7FF"/>
<stop offset="0.83" stop-color="#DDCDFA"/>
<stop offset="0.94" stop-color="#ECE8F4"/>
<stop offset="1" stop-color="#F2F2F2"/>
</linearGradient>
<linearGradient id="paint27_linear" x1="101.393" y1="269.844" x2="132.753" y2="269.844" gradientUnits="userSpaceOnUse">
<stop stop-color="#D0B7FF"/>
<stop offset="0.2" stop-color="#BCA3EE"/>
<stop offset="0.46" stop-color="#A990DE"/>
<stop offset="0.73" stop-color="#9D84D4"/>
<stop offset="1" stop-color="#9980D1"/>
</linearGradient>
<linearGradient id="paint28_linear" x1="105.124" y1="206.711" x2="130.279" y2="206.711" gradientUnits="userSpaceOnUse">
<stop stop-color="#D0B7FF"/>
<stop offset="0.2" stop-color="#BCA3EE"/>
<stop offset="0.46" stop-color="#A990DE"/>
<stop offset="0.73" stop-color="#9D84D4"/>
<stop offset="1" stop-color="#9980D1"/>
</linearGradient>
<linearGradient id="paint29_linear" x1="98.9183" y1="458.125" x2="135.435" y2="458.125" gradientUnits="userSpaceOnUse">
<stop stop-color="#D0B7FF"/>
<stop offset="0.2" stop-color="#BCA3EE"/>
<stop offset="0.46" stop-color="#A990DE"/>
<stop offset="0.73" stop-color="#9D84D4"/>
<stop offset="1" stop-color="#9980D1"/>
</linearGradient>
<linearGradient id="paint30_linear" x1="98.9183" y1="383.44" x2="135.435" y2="383.44" gradientUnits="userSpaceOnUse">
<stop stop-color="#C7AEF7"/>
<stop offset="0.47" stop-color="#C8ABF8"/>
<stop offset="0.81" stop-color="#CAA2FC"/>
<stop offset="1" stop-color="#CC99FF"/>
</linearGradient>
<linearGradient id="paint31_linear" x1="102.369" y1="535.884" x2="131.3" y2="535.884" gradientUnits="userSpaceOnUse">
<stop stop-color="#C7AEF7"/>
<stop offset="0.47" stop-color="#C8ABF8"/>
<stop offset="0.81" stop-color="#CAA2FC"/>
<stop offset="1" stop-color="#CC99FF"/>
</linearGradient>
<linearGradient id="paint32_linear" x1="175.628" y1="158.794" x2="469.089" y2="158.794" gradientUnits="userSpaceOnUse">
<stop stop-color="#D0B7FF"/>
<stop offset="0.2" stop-color="#BCA3EE"/>
<stop offset="0.46" stop-color="#A990DE"/>
<stop offset="0.73" stop-color="#9D84D4"/>
<stop offset="1" stop-color="#9980D1"/>
</linearGradient>
<linearGradient id="paint33_linear" x1="175.067" y1="191.619" x2="468.528" y2="191.619" gradientUnits="userSpaceOnUse">
<stop stop-color="#D0B7FF"/>
<stop offset="0.2" stop-color="#BCA3EE"/>
<stop offset="0.46" stop-color="#A990DE"/>
<stop offset="0.73" stop-color="#9D84D4"/>
<stop offset="1" stop-color="#9980D1"/>
</linearGradient>
<linearGradient id="paint34_linear" x1="483.417" y1="309" x2="1195.13" y2="309" gradientUnits="userSpaceOnUse">
<stop stop-color="#BC14B8"/>
<stop offset="1" stop-color="#772F8C"/>
</linearGradient>
</defs>
</svg>

