<?xml version="1.0" encoding="utf-8"?>
<!-- Generator: Adobe Illustrator 24.2.0, SVG Export Plug-In . SVG Version: 6.00 Build 0)  -->
<svg version="1.1" id="Layer_1" xmlns="http://www.w3.org/2000/svg" xmlns:xlink="http://www.w3.org/1999/xlink" x="0px" y="0px"
	 viewBox="0 0 1080 1080" style="enable-background:new 0 0 1080 1080;" xml:space="preserve">
<style type="text/css">
	.st0{fill:url(#SVGID_1_);}
	.st1{fill:url(#SVGID_2_);}
	.st2{fill:#EFDFFF;}
	.st3{fill:url(#SVGID_3_);}
	.st4{fill:url(#SVGID_4_);}
	.st5{fill:url(#SVGID_5_);}
	.st6{fill:url(#SVGID_6_);}
	.st7{fill:#FFECFF;}
	.st8{fill:#D7B7FF;}
	.st9{fill:#FFFFFF;}
	.st10{opacity:0.59;}
	.st11{fill:url(#SVGID_7_);}
	.st12{fill:url(#SVGID_8_);}
	.st13{fill:url(#SVGID_9_);}
	.st14{fill:url(#SVGID_10_);}
	.st15{fill:url(#SVGID_11_);}
	.st16{fill:url(#SVGID_12_);}
	.st17{fill:url(#SVGID_13_);}
	.st18{fill:url(#SVGID_14_);}
	.st19{fill:url(#SVGID_15_);}
	.st20{fill:url(#SVGID_16_);}
	.st21{font-family:'ArialMT';}
	.st22{font-size:59.71px;}
	.st23{fill:none;stroke:#F2F2F2;stroke-width:2;stroke-miterlimit:10;}
	.st24{letter-spacing:-0.9;}
	.st25{font-size:97.24px;}
	.st26{fill:none;stroke:#FFFFFF;stroke-width:0.5;stroke-miterlimit:10;}
	.st27{fill:none;stroke:#FFFFFF;stroke-width:0.75;stroke-miterlimit:10;}
</style>
<linearGradient id="SVGID_1_" gradientUnits="userSpaceOnUse" x1="442.62" y1="285.7048" x2="623.77" y2="285.7048" gradientTransform="matrix(1 0 0 -1 0 1077.8898)">
	<stop  offset="0" style="stop-color:#D0B7FF"/>
	<stop  offset="1" style="stop-color:#9980D1"/>
</linearGradient>
<rect x="442.6" y="741.1" class="st0" width="181.2" height="102.2"/>
<linearGradient id="SVGID_2_" gradientUnits="userSpaceOnUse" x1="908.95" y1="570.8798" x2="180.76" y2="570.8798" gradientTransform="matrix(1 0 0 -1 0 1077.8898)">
	<stop  offset="0" style="stop-color:#C7AEF7"/>
	<stop  offset="0.49" style="stop-color:#C9A6FA"/>
	<stop  offset="1" style="stop-color:#CC99FF"/>
</linearGradient>
<path class="st1" d="M197.5,256.8h694.7c9.3,0,16.8,7.5,16.8,16.8v466.9c0,9.3-7.5,16.8-16.8,16.8H197.5c-9.3,0-16.8-7.5-16.8-16.8
	V273.6C180.8,264.3,188.3,256.8,197.5,256.8z"/>
<rect x="209.3" y="285.5" class="st2" width="672.7" height="414.3"/>
<linearGradient id="SVGID_3_" gradientUnits="userSpaceOnUse" x1="602.25" y1="279.4297" x2="465.94" y2="279.4297" gradientTransform="matrix(1 0 0 -1 0 1077.8898)">
	<stop  offset="0" style="stop-color:#C7AEF7"/>
	<stop  offset="0.49" style="stop-color:#C9A6FA"/>
	<stop  offset="1" style="stop-color:#CC99FF"/>
</linearGradient>
<rect x="465.9" y="757.2" class="st3" width="136.3" height="82.5"/>
<linearGradient id="SVGID_4_" gradientUnits="userSpaceOnUse" x1="180.76" y1="337.7098" x2="909" y2="337.7098" gradientTransform="matrix(1 0 0 -1 0 1077.8898)">
	<stop  offset="0" style="stop-color:#D0B7FF"/>
	<stop  offset="1" style="stop-color:#9980D1"/>
</linearGradient>
<path class="st4" d="M180.8,714.2H909l0,0v26.4c0,14.2-11.5,25.7-25.7,25.7H203.1c-12.3,0-22.3-10-22.3-22.3L180.8,714.2
	L180.8,714.2z"/>
<linearGradient id="SVGID_5_" gradientUnits="userSpaceOnUse" x1="657.85" y1="222.0298" x2="424.69" y2="222.0298" gradientTransform="matrix(1 0 0 -1 0 1077.8898)">
	<stop  offset="0" style="stop-color:#C7AEF7"/>
	<stop  offset="0.49" style="stop-color:#C9A6FA"/>
	<stop  offset="1" style="stop-color:#CC99FF"/>
</linearGradient>
<rect x="424.7" y="839.7" class="st5" width="233.2" height="32.3"/>
<linearGradient id="SVGID_6_" gradientUnits="userSpaceOnUse" x1="424.69" y1="237.2798" x2="657.85" y2="237.2798" gradientTransform="matrix(1 0 0 -1 0 1077.8898)">
	<stop  offset="0" style="stop-color:#D0B7FF"/>
	<stop  offset="1" style="stop-color:#9980D1"/>
</linearGradient>
<rect x="424.7" y="832.5" class="st6" width="233.2" height="16.1"/>
<polygon class="st7" points="209.3,371.2 802.2,699.8 882,699.8 882,621.7 288.8,285.5 209.5,285.5 "/>
<polygon class="st7" points="465.9,285.5 882,492.7 882,285.5 "/>
<polygon class="st7" points="623.8,699.8 209.3,476.7 209.3,507 574.4,699.8 "/>
<path class="st8" d="M344.5,202h23l0,0v55.2l0,0h-45l0,0V224C322.5,211.8,332.3,202,344.5,202z"/>
<rect x="365.4" y="202" class="st8" width="390.2" height="469.9"/>
<rect x="375.6" y="212.2" class="st9" width="369.8" height="445.4"/>
<path class="st8" d="M387.9,604.5h435.2l0,0v43.8c0,13-10.6,23.6-23.6,23.6c0,0,0,0,0,0H387.9l0,0V604.5L387.9,604.5z"/>
<g class="st10">
	
		<linearGradient id="SVGID_7_" gradientUnits="userSpaceOnUse" x1="387.02" y1="709.8848" x2="734.97" y2="709.8848" gradientTransform="matrix(1 0 0 -1 0 1077.8898)">
		<stop  offset="0" style="stop-color:#D0B7FF"/>
		<stop  offset="1" style="stop-color:#9980D1"/>
	</linearGradient>
	<rect x="387" y="364.4" class="st11" width="347.9" height="7.2"/>
	
		<linearGradient id="SVGID_8_" gradientUnits="userSpaceOnUse" x1="387.02" y1="686.5648" x2="734.97" y2="686.5648" gradientTransform="matrix(1 0 0 -1 0 1077.8898)">
		<stop  offset="0" style="stop-color:#D0B7FF"/>
		<stop  offset="1" style="stop-color:#9980D1"/>
	</linearGradient>
	<rect x="387" y="387.7" class="st12" width="347.9" height="7.2"/>
	
		<linearGradient id="SVGID_9_" gradientUnits="userSpaceOnUse" x1="750.23" y1="663.2448" x2="1098.1801" y2="663.2448" gradientTransform="matrix(-1 0 0 -1 1487 1077.8898)">
		<stop  offset="0" style="stop-color:#D0B7FF"/>
		<stop  offset="1" style="stop-color:#9980D1"/>
	</linearGradient>
	<rect x="388.8" y="411.1" class="st13" width="348" height="7.2"/>
	
		<linearGradient id="SVGID_10_" gradientUnits="userSpaceOnUse" x1="750.23" y1="639.9348" x2="1098.1801" y2="639.9348" gradientTransform="matrix(-1 0 0 -1 1487 1077.8898)">
		<stop  offset="0" style="stop-color:#D0B7FF"/>
		<stop  offset="1" style="stop-color:#9980D1"/>
	</linearGradient>
	<rect x="388.8" y="434.4" class="st14" width="348" height="7.2"/>
	
		<linearGradient id="SVGID_11_" gradientUnits="userSpaceOnUse" x1="387.02" y1="616.6147" x2="734.97" y2="616.6147" gradientTransform="matrix(1 0 0 -1 0 1077.8898)">
		<stop  offset="0" style="stop-color:#D0B7FF"/>
		<stop  offset="1" style="stop-color:#9980D1"/>
	</linearGradient>
	<rect x="387" y="457.7" class="st15" width="347.9" height="7.2"/>
	
		<linearGradient id="SVGID_12_" gradientUnits="userSpaceOnUse" x1="387.02" y1="593.3047" x2="734.97" y2="593.3047" gradientTransform="matrix(1 0 0 -1 0 1077.8898)">
		<stop  offset="0" style="stop-color:#D0B7FF"/>
		<stop  offset="1" style="stop-color:#9980D1"/>
	</linearGradient>
	<rect x="387" y="481" class="st16" width="347.9" height="7.2"/>
	
		<linearGradient id="SVGID_13_" gradientUnits="userSpaceOnUse" x1="752.02" y1="571.7748" x2="1099.97" y2="571.7748" gradientTransform="matrix(-1 0 0 -1 1487 1077.8898)">
		<stop  offset="0" style="stop-color:#D0B7FF"/>
		<stop  offset="1" style="stop-color:#9980D1"/>
	</linearGradient>
	<rect x="387" y="502.5" class="st17" width="347.9" height="7.2"/>
	
		<linearGradient id="SVGID_14_" gradientUnits="userSpaceOnUse" x1="752.02" y1="548.4548" x2="1099.97" y2="548.4548" gradientTransform="matrix(-1 0 0 -1 1487 1077.8898)">
		<stop  offset="0" style="stop-color:#D0B7FF"/>
		<stop  offset="1" style="stop-color:#9980D1"/>
	</linearGradient>
	<rect x="387" y="525.8" class="st18" width="347.9" height="7.2"/>
	
		<linearGradient id="SVGID_15_" gradientUnits="userSpaceOnUse" x1="387.02" y1="525.1448" x2="734.97" y2="525.1448" gradientTransform="matrix(1 0 0 -1 0 1077.8898)">
		<stop  offset="0" style="stop-color:#D0B7FF"/>
		<stop  offset="1" style="stop-color:#9980D1"/>
	</linearGradient>
	<rect x="387" y="549.2" class="st19" width="347.9" height="7.2"/>
	
		<linearGradient id="SVGID_16_" gradientUnits="userSpaceOnUse" x1="387.02" y1="501.8348" x2="734.97" y2="501.8348" gradientTransform="matrix(1 0 0 -1 0 1077.8898)">
		<stop  offset="0" style="stop-color:#D0B7FF"/>
		<stop  offset="1" style="stop-color:#9980D1"/>
	</linearGradient>
	<rect x="387" y="572.5" class="st20" width="347.9" height="7.2"/>
</g>
<path class="st8" d="M309.9,319.6H136c-17.9,0-32.3,14.5-32.3,32.3v30.4c0,14.4,9.5,27,23.3,31V438l35-23.3h147.9
	c17.9,0,32.3-14.5,32.3-32.3c0,0,0,0,0,0v-30.4C342.2,334.1,327.7,319.6,309.9,319.6C309.9,319.6,309.9,319.6,309.9,319.6z"/>
<path class="st8" d="M812.2,470.2H986c17.9,0,32.3,14.5,32.3,32.3c0,0,0,0,0,0V533c0,14.4-9.5,27-23.3,31v24.6l-35-23.3H812.2
	c-17.8,0-32.3-14.5-32.3-32.3v-30.4C779.8,484.7,794.3,470.2,812.2,470.2C812.1,470.2,812.1,470.2,812.2,470.2z"/>
<text transform="matrix(1.11 0 0 1 124.2397 389.1598)" class="st9 st21 st22">Q</text>
<circle class="st23" cx="205.9" cy="366.2" r="9"/>
<circle class="st23" cx="249.8" cy="365.3" r="9"/>
<circle class="st23" cx="296.5" cy="365.3" r="9"/>
<text transform="matrix(1.11 0 0 1 806.3398 538.2902)" class="st9 st21 st22 st24">A</text>
<circle class="st23" cx="880.8" cy="515.3" r="9"/>
<circle class="st23" cx="924.7" cy="514.5" r="9"/>
<circle class="st23" cx="971.4" cy="514.5" r="9"/>
<path class="st9" d="M272.9,536.8c-30.2-11.4-63.9,3.7-75.3,33.9c-11.4,30.2,3.7,63.9,33.9,75.3c30.2,11.4,63.9-3.7,75.3-33.9
	C318.2,582,303,548.2,272.9,536.8C272.9,536.8,272.9,536.8,272.9,536.8z M234.8,637.1c-25.3-9.6-38-37.8-28.4-63.1
	c9.6-25.3,37.8-38,63.1-28.4c25.3,9.6,38,37.8,28.4,63.1C288.3,634,260.1,646.7,234.8,637.1C234.8,637.1,234.8,637.1,234.8,637.1z"
	/>
<path class="st9" d="M207.4,635.7c-1.7-1.6-3.3-3.3-4.7-5.1l-8.1,8.4l11.3,10.9l8.3-8.6C211.8,639.6,209.5,637.8,207.4,635.7z"/>
<path class="st9" d="M189.5,639.3l15.9,15.3l0,0l-55.7,57.8c-2.4,2.4-6.3,2.5-8.7,0.2l-7-6.8c-2.4-2.4-2.5-6.3-0.2-8.7L189.5,639.3
	L189.5,639.3z"/>
<text transform="matrix(1.12 0 0 1 229.1904 627.9103)" class="st9 st21 st25">?</text>
<text transform="matrix(1.12 0 0 1 229.1904 627.9103)" class="st26 st21 st25">?</text>
<path class="st27" d="M812.9,477h172.2c12.7,0,22.9,10.3,22.9,22.9v33.2c0,12.7-10.3,22.9-22.9,22.9H812.9
	c-12.7,0-22.9-10.3-22.9-22.9v-33.2C790,487.3,800.3,477,812.9,477z"/>
<path class="st27" d="M136.4,328.5h172.2c12.7,0,22.9,10.3,22.9,22.9v33.2c0,12.7-10.3,22.9-22.9,22.9H136.4
	c-12.7,0-22.9-10.3-22.9-22.9v-33.2C113.5,338.8,123.8,328.5,136.4,328.5z"/>
<rect x="181" y="714" class="st9" width="728" height="7"/>
<rect x="443" y="828" class="st9" width="181" height="5"/>
</svg>
