<?xml version="1.0" encoding="UTF-8"?>
<svg enable-background="new 0 0 500 500" version="1.1" viewBox="0 0 500 500" xml:space="preserve" xmlns="http://www.w3.org/2000/svg">
<style type="text/css">
	.st0{opacity:0.5;}
	.st1{fill:#E9DDFD;}
	.st2{opacity:0.42;fill:#CCB5FB;enable-background:new    ;}
	.st3{fill:#CCB5FB;}
	.st4{fill:url(#k);}
	.st5{fill:url(#h);}
	.st6{fill:url(#g);}
	.st7{fill:url(#f);}
	.st8{fill:url(#e);}
	.st9{fill:url(#d);}
	.st10{fill:url(#c);}
	.st11{fill:url(#b);}
	.st12{fill:url(#a);}
	.st13{fill:url(#u);}
	.st14{fill:url(#t);}
	.st15{fill:url(#s);}
	.st16{fill:url(#r);}
	.st17{fill:url(#q);}
	.st18{fill:url(#p);}
	.st19{fill:url(#o);}
	.st20{fill:url(#n);}
	.st21{fill:url(#m);}
	.st22{fill:url(#l);stroke:#FFFFFF;stroke-width:2;stroke-miterlimit:10;}
	.st23{opacity:0.37;fill:url(#j);enable-background:new    ;}
	.st24{fill:#FFFFFF;}
	.st25{fill:url(#i);}
</style>
	<g class="st0">
		<path class="st1" d="m216.1 131.2h-186.7c-10.7 0-19.4 8.7-19.4 19.4v149.6c0 10.7 8.7 19.4 19.4 19.4h186.7c10.7 0 19.4-8.7 19.4-19.4v-149.6c0-10.7-8.7-19.4-19.4-19.4z"/>
		<path class="st1" d="m39.1 203.7-16.9 6.6-5.7 13.4 1 14.1 7.1 11.9 6.3 3.9 1.9 10.7 9.5 2.7 9.5-2.7v-9l10.5-7.3 8.3-16.2-3.6-12.8-9-12.7-18.9-2.6z"/>
		<path class="st2" d="m42 201.6 0.2 65.4-11.4-1.5v-10l-13.5-14.2-0.9-14.3 3.9-12.5 12.2-8.2 9.5-4.7z"/>
		<path class="st3" d="m88.3 169.6h-6.2v7.5h6.2v-7.5z"/>
			<linearGradient id="k" x1="111.51" x2="121.05" y1="258.72" y2="258.72" gradientTransform="matrix(1 0 0 -1 8.4104e-6 500.11)" gradientUnits="userSpaceOnUse">
			<stop stop-color="#BEABF3" offset="0"/>
			<stop stop-color="#BEA8F4" offset=".47"/>
			<stop stop-color="#BDA0F8" offset=".81"/>
			<stop stop-color="#BD97FB" offset="1"/>
		</linearGradient>
		<path class="st4" d="m121.1 231.9h-9.5v19.1h9.5v-19.1z"/>
			<linearGradient id="h" x1="107.37" x2="126.03" y1="273.86" y2="273.86" gradientTransform="matrix(1 0 0 -1 8.4104e-6 500.11)" gradientUnits="userSpaceOnUse">
			<stop stop-color="#C7B5FB" offset="0"/>
			<stop stop-color="#B3A1EA" offset=".2"/>
			<stop stop-color="#A08ED9" offset=".46"/>
			<stop stop-color="#9482CF" offset=".73"/>
			<stop stop-color="#907FCC" offset="1"/>
		</linearGradient>
		<path class="st5" d="m120.7 216.9h-8.1c-2.9 0-5.3 2.4-5.3 5.3v8.1c0 2.9 2.4 5.3 5.3 5.3h8.1c2.9 0 5.3-2.4 5.3-5.3v-8.1c0-2.9-2.3-5.3-5.3-5.3z"/>
			<linearGradient id="g" x1="22157" x2="35273" y1="311.18" y2="311.18" gradientTransform="matrix(1 0 0 -1 8.4104e-6 500.11)" gradientUnits="userSpaceOnUse">
			<stop stop-color="#BEABF3" offset="0"/>
			<stop stop-color="#BEA8F4" offset=".47"/>
			<stop stop-color="#BDA0F8" offset=".81"/>
			<stop stop-color="#BD97FB" offset="1"/>
		</linearGradient>
		<path class="st6" d="m120.6 153.1h-7.5c-13.3 0-24 10.8-24 24v23.6c0 13.3 10.8 24 24 24h7.5c13.3 0 24-10.8 24-24v-23.6c0.1-13.3-10.7-24-24-24z"/>
		<path class="st3" d="m150.1 170.1h-6.2v7.5h6.2v-7.5z"/>
			<linearGradient id="f" x1="16593" x2="22776" y1="237.99" y2="237.99" gradientTransform="matrix(1 0 0 -1 8.4104e-6 500.11)" gradientUnits="userSpaceOnUse">
			<stop stop-color="#BEABF3" offset="0"/>
			<stop stop-color="#BEA8F4" offset=".47"/>
			<stop stop-color="#BDA0F8" offset=".81"/>
			<stop stop-color="#BD97FB" offset="1"/>
		</linearGradient>
		<path class="st7" d="m135.6 268.8h-38.2c0-6.9 10-12.9 15.3-13.3h7.5c5.8 0.4 15.4 6.4 15.4 13.3z"/>
			<linearGradient id="e" x1="25359" x2="45489" y1="347.67" y2="347.67" gradientTransform="matrix(1 0 0 -1 8.4104e-6 500.11)" gradientUnits="userSpaceOnUse">
			<stop stop-color="#C7B5FB" offset="0"/>
			<stop stop-color="#B3A1EA" offset=".2"/>
			<stop stop-color="#A08ED9" offset=".46"/>
			<stop stop-color="#9482CF" offset=".73"/>
			<stop stop-color="#907FCC" offset="1"/>
		</linearGradient>
		<path class="st8" d="m150.9 147.7h-68.8v9.5h68.8v-9.5z"/>
			<linearGradient id="d" x1="23692" x2="40128" y1="333.78" y2="333.78" gradientTransform="matrix(1 0 0 -1 8.4104e-6 500.11)" gradientUnits="userSpaceOnUse">
			<stop stop-color="#C7B5FB" offset="0"/>
			<stop stop-color="#B3A1EA" offset=".2"/>
			<stop stop-color="#A08ED9" offset=".46"/>
			<stop stop-color="#9482CF" offset=".73"/>
			<stop stop-color="#907FCC" offset="1"/>
		</linearGradient>
		<path class="st9" d="M147.2,153.1H85v26.5h62.2V153.1z"/>
		<path class="st3" d="M147.2,157.2H85v2.5h62.2V157.2z"/>
		<path class="st3" d="m158.8 286.6h-84.6v17h84.6v-17z"/>
			<linearGradient id="c" x1="9837.8" x2="11664" y1="246.49" y2="246.49" gradientTransform="matrix(1 0 0 -1 8.4104e-6 500.11)" gradientUnits="userSpaceOnUse">
			<stop stop-color="#C7B5FB" offset="0"/>
			<stop stop-color="#B3A1EA" offset=".2"/>
			<stop stop-color="#A08ED9" offset=".46"/>
			<stop stop-color="#9482CF" offset=".73"/>
			<stop stop-color="#907FCC" offset="1"/>
		</linearGradient>
		<path class="st10" d="m126.9 249.7h-20.7v7.9h20.7v-7.9z"/>
			<linearGradient id="b" x1="23170" x2="38318" y1="225.54" y2="225.54" gradientTransform="matrix(1 0 0 -1 8.4104e-6 500.11)" gradientUnits="userSpaceOnUse">
			<stop stop-color="#C7B5FB" offset="0"/>
			<stop stop-color="#B3A1EA" offset=".2"/>
			<stop stop-color="#A08ED9" offset=".46"/>
			<stop stop-color="#9482CF" offset=".73"/>
			<stop stop-color="#907FCC" offset="1"/>
		</linearGradient>
		<path class="st11" d="M146.3,268.8H86.6v11.6h59.7V268.8z"/>
			<linearGradient id="a" x1="28882" x2="62649" y1="217.25" y2="217.25" gradientTransform="matrix(1 0 0 -1 8.4104e-6 500.11)" gradientUnits="userSpaceOnUse">
			<stop stop-color="#BEABF3" offset="0"/>
			<stop stop-color="#BEA8F4" offset=".47"/>
			<stop stop-color="#BDA0F8" offset=".81"/>
			<stop stop-color="#BD97FB" offset="1"/>
		</linearGradient>
		<path class="st12" d="m160.9 278.3h-89.2v9.1h89.2v-9.1z"/>
			<linearGradient id="u" x1="10138" x2="17236" y1="362.73" y2="399.93" gradientTransform="matrix(1 0 0 -1 8.4104e-6 500.11)" gradientUnits="userSpaceOnUse">
			<stop stop-color="#C7B5FB" offset="0"/>
			<stop stop-color="#B3A1EA" offset=".2"/>
			<stop stop-color="#A08ED9" offset=".46"/>
			<stop stop-color="#9482CF" offset=".73"/>
			<stop stop-color="#907FCC" offset="1"/>
		</linearGradient>
		<path class="st13" d="m75.8 177.1c2.2-1.7 2-7.3-0.9-10.8-1.7-2.1-4.8-3.8-7.9-3.3-5.1 0.8-7.9 7.2-7.8 11.7 0.1 6.1 8.5 10.5 16.7 15.3 0.4 0.2 1.1 0.6 2.1 1.2 3 1.8 6.5 4 9.6 7 1.7 1.6 3.3 3.2 4.6 5.8 0.7 1.3 3.6 7.1 1.3 12.8-0.2 0.4-1.5 3.5-4.5 5.4-0.9 0.5-1.9 1.1-2.9 0.8-1.5-0.4-2.5-2.7-2.1-4.5 0.3-1.4 1.4-1.5 2.5-2.9 1.7-2.3 1.3-5.2 1.2-6.2-0.5-4.3-4.3-7.1-8.3-9.9-4.9-3.4-6-2.8-12.1-6.6-4.1-2.6-6.7-4.2-9.2-7.4-1.3-1.6-4.3-5.7-4.6-11.6-0.1-2-0.4-6.3 2.4-10.4 2.9-4.2 7.1-5.5 8.3-5.8 1.3-0.4 7.2-1.9 12.4 1.6 3.9 2.6 5.2 6.4 5.9 8.3 0.5 1.5 1.5 4.3 0.9 7.9-0.2 1.3-1 6-4.9 8.3-0.8 0.5-3.8 2.3-6.2 0.9s-3-5.2-1.7-6.6c1.1-1.5 3.4 0.3 5.2-1z"/>
			<linearGradient id="t" x1="-24199" x2="-31295" y1="552.95" y2="623.88" gradientTransform="matrix(1 0 0 -1 8.4104e-6 500.11)" gradientUnits="userSpaceOnUse">
			<stop stop-color="#C7B5FB" offset="0"/>
			<stop stop-color="#B3A1EA" offset=".2"/>
			<stop stop-color="#A08ED9" offset=".46"/>
			<stop stop-color="#9482CF" offset=".73"/>
			<stop stop-color="#907FCC" offset="1"/>
		</linearGradient>
		<path class="st14" d="m156.7 177.6c-2.2-1.7-2-7.3 0.9-10.8 1.7-2.1 4.8-3.8 7.9-3.3 5.1 0.8 7.9 7.2 7.8 11.7-0.1 6.1-8.5 10.5-16.7 15.3-0.4 0.2-1.1 0.6-2.1 1.2-3 1.8-6.5 4-9.6 7-1.7 1.6-3.3 3.2-4.6 5.8-0.7 1.3-3.6 7.1-1.3 12.8 0.2 0.4 1.5 3.5 4.5 5.4 0.9 0.5 1.9 1.1 2.9 0.8 1.5-0.4 2.5-2.7 2.1-4.6-0.3-1.4-1.4-1.5-2.5-2.9-1.7-2.3-1.3-5.2-1.2-6.2 0.5-4.3 4.3-7.1 8.3-9.9 4.9-3.4 6-2.8 12.1-6.6 4.1-2.6 6.7-4.2 9.2-7.4 1.3-1.6 4.3-5.7 4.6-11.6 0.1-2 0.4-6.3-2.4-10.4-2.9-4.2-7.1-5.5-8.3-5.8-1.3-0.4-7.2-1.9-12.4 1.6-3.9 2.6-5.2 6.4-5.9 8.3-0.5 1.5-1.5 4.3-0.9 7.9 0.2 1.3 1 6 4.9 8.3 0.8 0.5 3.8 2.3 6.2 0.9s3-5.2 1.7-6.6c-1.2-1.4-3.5 0.4-5.2-0.9z"/>
			<linearGradient id="s" x1="3424.8" x2="5630" y1="227.68" y2="227.68" gradientTransform="matrix(1 0 0 -1 8.4104e-6 500.11)" gradientUnits="userSpaceOnUse">
			<stop stop-color="#C7B5FB" offset="0"/>
			<stop stop-color="#B3A1EA" offset=".2"/>
			<stop stop-color="#A08ED9" offset=".46"/>
			<stop stop-color="#9482CF" offset=".73"/>
			<stop stop-color="#907FCC" offset="1"/>
		</linearGradient>
		<path class="st15" d="m51 269.9h-17.8c-0.3 0-0.7 0-1 0.2-0.3 0.1-0.6 0.3-0.8 0.5s-0.4 0.5-0.6 0.8c-0.1 0.3-0.2 0.6-0.2 1 0 0.3 0.1 0.7 0.2 1s0.3 0.6 0.6 0.8c0.2 0.2 0.5 0.4 0.8 0.5s0.6 0.2 1 0.2h17.8c0.6 0 1.2-0.3 1.7-0.8 0.4-0.5 0.7-1.1 0.7-1.7s-0.2-1.3-0.7-1.7c-0.5-0.5-1.1-0.7-1.7-0.8z"/>
			<linearGradient id="r" x1="3387.8" x2="5592.9" y1="221.69" y2="221.69" gradientTransform="matrix(1 0 0 -1 8.4104e-6 500.11)" gradientUnits="userSpaceOnUse">
			<stop stop-color="#C7B5FB" offset="0"/>
			<stop stop-color="#B3A1EA" offset=".2"/>
			<stop stop-color="#A08ED9" offset=".46"/>
			<stop stop-color="#9482CF" offset=".73"/>
			<stop stop-color="#907FCC" offset="1"/>
		</linearGradient>
		<path class="st16" d="m50.6 275.9h-17.8c-0.3 0-0.7 0-1 0.2-0.3 0.1-0.6 0.3-0.8 0.5s-0.4 0.5-0.6 0.8c-0.1 0.3-0.2 0.6-0.2 1 0 0.3 0.1 0.7 0.2 1s0.3 0.6 0.6 0.8c0.2 0.2 0.5 0.4 0.8 0.5s0.6 0.2 1 0.2h17.8c0.6 0 1.2-0.3 1.7-0.8 0.4-0.5 0.7-1.1 0.7-1.7s-0.2-1.3-0.7-1.7-1-0.7-1.7-0.8z"/>
			<linearGradient id="q" x1="3015.8" x2="4547" y1="215.14" y2="215.14" gradientTransform="matrix(1 0 0 -1 8.4104e-6 500.11)" gradientUnits="userSpaceOnUse">
			<stop stop-color="#C7B5FB" offset="0"/>
			<stop stop-color="#B3A1EA" offset=".2"/>
			<stop stop-color="#A08ED9" offset=".46"/>
			<stop stop-color="#9482CF" offset=".73"/>
			<stop stop-color="#907FCC" offset="1"/>
		</linearGradient>
		<path class="st17" d="m37.6 287.5h9.1c0.7 0 1.3-0.1 1.9-0.4 0.6-0.2 1.1-0.6 1.6-1.1s0.8-1 1.1-1.6c0.2-0.6 0.4-1.2 0.4-1.9h-19c0 1.3 0.5 2.6 1.5 3.5 0.8 0.9 2.1 1.5 3.4 1.5z"/>
			<linearGradient id="p" x1="13.567" x2="70.523" y1="265.26" y2="265.26" gradientTransform="matrix(1 0 0 -1 8.4104e-6 500.11)" gradientUnits="userSpaceOnUse">
			<stop stop-color="#C7B5FB" offset="0"/>
			<stop stop-color="#B4A2EB" offset=".19"/>
			<stop stop-color="#A08ED9" offset=".46"/>
			<stop stop-color="#9482CF" offset=".73"/>
			<stop stop-color="#907FCC" offset="1"/>
		</linearGradient>
		<path class="st18" d="m41.9 201.6c-6.5 0-12.9 2.3-17.9 6.4-5.1 4.1-8.5 9.9-9.9 16.3-1.3 6.4-0.4 13.1 2.6 18.9s7.9 10.4 13.9 13v8.7c0 0.4 0.1 0.8 0.2 1.2 0.2 0.4 0.4 0.7 0.7 1s0.6 0.5 1 0.7 0.8 0.2 1.2 0.2h16.4c0.4 0 0.8-0.1 1.2-0.2 0.4-0.2 0.7-0.4 1-0.7s0.5-0.6 0.7-1 0.2-0.8 0.2-1.2v-8.7c6-2.6 10.9-7.3 13.9-13.1s3.9-12.5 2.5-18.9c-1.3-6.4-4.9-12.1-9.9-16.2s-11.2-6.4-17.8-6.4zm8.5 52.1v7.7c0 1.6-1 2.8-2.3 2.8h-12c-1.3 0-2.3-1.3-2.3-2.8v-7.7c-7.4-3.9-16.4-13.3-16.5-23.6 0-13.9 13.2-24.7 24.7-24.7s24.6 10.7 24.7 24.6c0 10.4-8.9 19.8-16.3 23.7z"/>
			<linearGradient id="o" x1="24546" x2="29331" y1="233.12" y2="233.12" gradientTransform="matrix(1 0 0 -1 8.4104e-6 500.11)" gradientUnits="userSpaceOnUse">
			<stop stop-color="#C7B5FB" offset="0"/>
			<stop stop-color="#B3A1EA" offset=".2"/>
			<stop stop-color="#A08ED9" offset=".46"/>
			<stop stop-color="#9482CF" offset=".73"/>
			<stop stop-color="#907FCC" offset="1"/>
		</linearGradient>
		<path class="st19" d="m185.2 243.9-18.6 41 12.5-7.7 2.5 12.9 18.6-37.6-15-8.6z"/>
			<linearGradient id="n" x1="-59148" x2="-63933" y1="232.61" y2="232.61" gradientTransform="matrix(1 0 0 -1 8.4104e-6 500.11)" gradientUnits="userSpaceOnUse">
			<stop stop-color="#C7B5FB" offset="0"/>
			<stop stop-color="#B3A1EA" offset=".2"/>
			<stop stop-color="#A08ED9" offset=".46"/>
			<stop stop-color="#9482CF" offset=".73"/>
			<stop stop-color="#907FCC" offset="1"/>
		</linearGradient>
		<path class="st20" d="m210.6 244.4 18.6 41-12.5-7.7-2.5 12.9-18.5-37.6 14.9-8.6z"/>
			<linearGradient id="m" x1="45798" x2="62081" y1="265.66" y2="265.66" gradientTransform="matrix(1 0 0 -1 8.4104e-6 500.11)" gradientUnits="userSpaceOnUse">
			<stop stop-color="#C7B5FB" offset="0"/>
			<stop stop-color="#B3A1EA" offset=".2"/>
			<stop stop-color="#A08ED9" offset=".46"/>
			<stop stop-color="#9482CF" offset=".73"/>
			<stop stop-color="#907FCC" offset="1"/>
		</linearGradient>
		<path class="st21" d="m200.1 265.4c17.1 0 31-13.9 31-31s-13.9-31-31-31-31 13.9-31 31 13.9 31 31 31z"/>
			<linearGradient id="l" x1="37720" x2="47963" y1="265.26" y2="265.26" gradientTransform="matrix(1 0 0 -1 8.4104e-6 500.11)" gradientUnits="userSpaceOnUse">
			<stop stop-color="#BEABF3" offset="0"/>
			<stop stop-color="#BEA8F4" offset=".47"/>
			<stop stop-color="#BDA0F8" offset=".81"/>
			<stop stop-color="#BD97FB" offset="1"/>
		</linearGradient>
		<path class="st22" d="m200.2 259.4c13.6 0 24.6-11 24.6-24.6s-11-24.6-24.6-24.6-24.6 11-24.6 24.6 11 24.6 24.6 24.6z"/>
			<linearGradient id="j" x1="199.37" x2="199.37" y1="246.94" y2="285.66" gradientTransform="matrix(1 0 0 -1 8.4104e-6 500.11)" gradientUnits="userSpaceOnUse">
			<stop stop-color="#C7B5FB" offset="0"/>
			<stop stop-color="#B5A2EC" offset=".08"/>
			<stop stop-color="#A492DE" offset=".18"/>
			<stop stop-color="#9987D3" offset=".31"/>
			<stop stop-color="#9280CE" offset=".49"/>
			<stop stop-color="#907FCC" offset="1"/>
		</linearGradient>
		<path class="st23" d="m212.4 252.6-12.6-6.3-12.3 6.8 2.1-14-10.3-9.6 13.9-2.3 6-12.8 6.5 12.5 14 1.7-9.9 10.1 2.6 13.9z"/>
	</g>
	<path class="st24" d="m122 230.5h-13.6l-2.6 7.8h-8.2l14-37.7h7.2l14.1 37.7h-8.3l-2.6-7.8zm-11.5-6.3h9.4l-4.7-14.1-4.7 14.1zm54.9 1.5c-0.3 4.1-1.8 7.2-4.5 9.6-2.7 2.3-6.2 3.5-10.7 3.5-4.8 0-8.6-1.6-11.4-4.9s-4.1-7.7-4.1-13.4v-2.3c0-3.6 0.6-6.8 1.9-9.6s3.1-4.9 5.5-6.3c2.4-1.5 5.1-2.2 8.3-2.2 4.3 0 7.8 1.2 10.5 3.5s4.2 5.6 4.6 9.8h-7.8c-0.2-2.4-0.9-4.2-2-5.3-1.2-1.1-2.9-1.7-5.3-1.7-2.6 0-4.5 0.9-5.8 2.8-1.3 1.8-1.9 4.7-2 8.6v2.8c0 4.1 0.6 7 1.8 8.9s3.2 2.8 5.8 2.8c2.4 0 4.2-0.5 5.4-1.6s1.9-2.8 2-5.1h7.8zm35.7 12.6h-7.8v-16.1h-15.1v16.1h-7.8v-37.7h7.8v15.3h15.1v-15.3h7.8v37.7zm15.1 0h-7.8v-37.7h7.8v37.7zm29.9-16.4h-14.9v10.1h17.5v6.2h-25.2v-37.7h25.2v6.3h-17.4v9h14.9v6.1zm21 7 8.5-28.3h8.6l-13.1 37.7h-8.1l-13-37.7h8.6l8.5 28.3zm43.4-7h-14.9v10.1h17.5v6.2h-25.2v-37.7h25.1v6.3h-17.4v9h14.9v6.1zm17.3-21.3 9.7 27.3 9.6-27.3h10.2v37.7h-7.8v-10.3l0.8-17.8-10.2 28.1h-5.3l-10.1-28 0.8 17.7v10.3h-7.8v-37.7h10.1zm58.9 21.3h-14.9v10.1h17.5v6.2h-25.3v-37.7h25.2v6.3h-17.4v9h14.9v6.1zm37.8 16.4h-7.8l-15.1-24.8v24.8h-7.8v-37.7h7.8l15.1 24.8v-24.8h7.7v37.7zm34.3-31.4h-11.5v31.4h-7.8v-31.4h-11.4v-6.3h30.7v6.3zm23.6 21.5c0-1.5-0.5-2.6-1.6-3.4-1-0.8-2.9-1.6-5.6-2.5s-4.8-1.7-6.4-2.6c-4.3-2.3-6.4-5.4-6.4-9.3 0-2 0.6-3.8 1.7-5.4 1.2-1.6 2.8-2.9 4.9-3.8 2.2-0.9 4.6-1.3 7.2-1.3 2.7 0 5.1 0.5 7.2 1.5s3.7 2.3 4.9 4.1 1.8 3.8 1.8 6.1h-7.8c0-1.7-0.5-3.1-1.6-4-1.1-1-2.6-1.4-4.6-1.4-1.9 0-3.4 0.4-4.4 1.2-1.1 0.8-1.6 1.8-1.6 3.2 0 1.2 0.6 2.2 1.8 3.1 1.2 0.8 3.1 1.6 5.5 2.3 4.4 1.3 7.6 3 9.6 4.9s3 4.4 3 7.3c0 3.3-1.2 5.8-3.7 7.7-2.5 1.8-5.8 2.8-10 2.8-2.9 0-5.5-0.5-7.9-1.6s-4.2-2.5-5.5-4.4c-1.2-1.8-1.9-4-1.9-6.4h7.8c0 4.2 2.5 6.2 7.4 6.2 1.8 0 3.3-0.4 4.3-1.1 1.3-0.8 1.9-1.9 1.9-3.2z"/>
		<linearGradient id="i" x1="159.56" x2="509.48" y1="280.67" y2="280.67" gradientTransform="matrix(1 0 0 -1 8.4104e-6 500.11)" gradientUnits="userSpaceOnUse">
		<stop stop-color="#A01BB2" offset="0"/>
		<stop stop-color="#683387" offset="1"/>
	</linearGradient>
	<path class="st25" d="m122 230.5h-13.6l-2.6 7.8h-8.2l14-37.7h7.2l14.1 37.7h-8.3l-2.6-7.8zm-11.5-6.3h9.4l-4.7-14.1-4.7 14.1zm54.9 1.5c-0.3 4.1-1.8 7.2-4.5 9.6-2.7 2.3-6.2 3.5-10.7 3.5-4.8 0-8.6-1.6-11.4-4.9s-4.1-7.7-4.1-13.4v-2.3c0-3.6 0.6-6.8 1.9-9.6s3.1-4.9 5.5-6.3c2.4-1.5 5.1-2.2 8.3-2.2 4.3 0 7.8 1.2 10.5 3.5s4.2 5.6 4.6 9.8h-7.8c-0.2-2.4-0.9-4.2-2-5.3-1.2-1.1-2.9-1.7-5.3-1.7-2.6 0-4.5 0.9-5.8 2.8-1.3 1.8-1.9 4.7-2 8.6v2.8c0 4.1 0.6 7 1.8 8.9s3.2 2.8 5.8 2.8c2.4 0 4.2-0.5 5.4-1.6s1.9-2.8 2-5.1h7.8zm35.7 12.6h-7.8v-16.1h-15.1v16.1h-7.8v-37.7h7.8v15.3h15.1v-15.3h7.8v37.7zm15.1 0h-7.8v-37.7h7.8v37.7zm29.9-16.4h-14.9v10.1h17.5v6.2h-25.2v-37.7h25.2v6.3h-17.4v9h14.9v6.1zm21 7 8.5-28.3h8.6l-13.1 37.7h-8.1l-13-37.7h8.6l8.5 28.3zm43.4-7h-14.9v10.1h17.5v6.2h-25.2v-37.7h25.1v6.3h-17.4v9h14.9v6.1zm17.3-21.3 9.7 27.3 9.6-27.3h10.2v37.7h-7.8v-10.3l0.8-17.8-10.2 28.1h-5.3l-10.1-28 0.8 17.7v10.3h-7.8v-37.7h10.1zm58.9 21.3h-14.9v10.1h17.5v6.2h-25.3v-37.7h25.2v6.3h-17.4v9h14.9v6.1zm37.8 16.4h-7.8l-15.1-24.8v24.8h-7.8v-37.7h7.8l15.1 24.8v-24.8h7.7v37.7zm34.3-31.4h-11.5v31.4h-7.8v-31.4h-11.4v-6.3h30.7v6.3zm23.6 21.5c0-1.5-0.5-2.6-1.6-3.4-1-0.8-2.9-1.6-5.6-2.5s-4.8-1.7-6.4-2.6c-4.3-2.3-6.4-5.4-6.4-9.3 0-2 0.6-3.8 1.7-5.4 1.2-1.6 2.8-2.9 4.9-3.8 2.2-0.9 4.6-1.3 7.2-1.3 2.7 0 5.1 0.5 7.2 1.5s3.7 2.3 4.9 4.1 1.8 3.8 1.8 6.1h-7.8c0-1.7-0.5-3.1-1.6-4-1.1-1-2.6-1.4-4.6-1.4-1.9 0-3.4 0.4-4.4 1.2-1.1 0.8-1.6 1.8-1.6 3.2 0 1.2 0.6 2.2 1.8 3.1 1.2 0.8 3.1 1.6 5.5 2.3 4.4 1.3 7.6 3 9.6 4.9s3 4.4 3 7.3c0 3.3-1.2 5.8-3.7 7.7-2.5 1.8-5.8 2.8-10 2.8-2.9 0-5.5-0.5-7.9-1.6s-4.2-2.5-5.5-4.4c-1.2-1.8-1.9-4-1.9-6.4h7.8c0 4.2 2.5 6.2 7.4 6.2 1.8 0 3.3-0.4 4.3-1.1 1.3-0.8 1.9-1.9 1.9-3.2z"/>
</svg>
