<?xml version="1.0" encoding="UTF-8" standalone="no"?>
<svg
   xmlns:dc="http://purl.org/dc/elements/1.1/"
   xmlns:cc="http://creativecommons.org/ns#"
   xmlns:rdf="http://www.w3.org/1999/02/22-rdf-syntax-ns#"
   xmlns:svg="http://www.w3.org/2000/svg"
   xmlns="http://www.w3.org/2000/svg"
   xmlns:sodipodi="http://sodipodi.sourceforge.net/DTD/sodipodi-0.dtd"
   xmlns:inkscape="http://www.inkscape.org/namespaces/inkscape"
   inkscape:version="1.0 (4035a4fb49, 2020-05-01)"
   sodipodi:docname="achievents.svg"
   id="svg283"
   xml:space="preserve"
   style="enable-background:new 0 0 500 500;"
   viewBox="0 0 500 500"
   y="0px"
   x="0px"
   version="1.1"><metadata
   id="metadata289"><rdf:RDF><cc:Work
       rdf:about=""><dc:format>image/svg+xml</dc:format><dc:type
         rdf:resource="http://purl.org/dc/dcmitype/StillImage" /><dc:title></dc:title></cc:Work></rdf:RDF></metadata><defs
   id="defs287" /><sodipodi:namedview
   inkscape:current-layer="svg283"
   inkscape:window-maximized="1"
   inkscape:window-y="-9"
   inkscape:window-x="-9"
   inkscape:cy="250"
   inkscape:cx="250"
   inkscape:zoom="1.47"
   showgrid="false"
   id="namedview285"
   inkscape:window-height="1001"
   inkscape:window-width="1920"
   inkscape:pageshadow="2"
   inkscape:pageopacity="0"
   guidetolerance="10"
   gridtolerance="10"
   objecttolerance="10"
   borderopacity="1"
   bordercolor="#666666"
   pagecolor="#ffffff" />
<style
   id="style2"
   type="text/css">
	.st0{opacity:0.5;}
	.st1{fill:#E9DDFD;}
	.st2{opacity:0.42;fill:#CCB5FB;enable-background:new    ;}
	.st3{fill:#CCB5FB;}
	.st4{fill:url(#SVGID_1_);}
	.st5{fill:url(#SVGID_2_);}
	.st6{fill:url(#SVGID_3_);}
	.st7{fill:url(#SVGID_4_);}
	.st8{fill:url(#SVGID_5_);}
	.st9{fill:url(#SVGID_6_);}
	.st10{fill:url(#SVGID_7_);}
	.st11{fill:url(#SVGID_8_);}
	.st12{fill:url(#SVGID_9_);}
	.st13{fill:url(#SVGID_10_);}
	.st14{fill:url(#SVGID_11_);}
	.st15{fill:url(#SVGID_12_);}
	.st16{fill:url(#SVGID_13_);}
	.st17{fill:url(#SVGID_14_);}
	.st18{fill:url(#SVGID_15_);}
	.st19{fill:url(#SVGID_16_);}
	.st20{fill:url(#SVGID_17_);}
	.st21{fill:url(#SVGID_18_);}
	.st22{fill:url(#SVGID_19_);stroke:#FFFFFF;stroke-width:2;stroke-miterlimit:10;}
	.st23{opacity:0.37;fill:url(#SVGID_20_);enable-background:new    ;}
	.st24{fill:#FFFFFF;}
	.st25{fill:url(#SVGID_21_);}
</style>
<g
   id="BACKGROUND">
</g>
<g
   id="OBJECTS">
	<g
   id="g271"
   class="st0">
		<path
   id="path5"
   d="M216.1,131.2H29.4c-10.7,0-19.4,8.7-19.4,19.4v149.6c0,10.7,8.7,19.4,19.4,19.4h186.7    c10.7,0,19.4-8.7,19.4-19.4V150.6C235.5,139.9,226.8,131.2,216.1,131.2z"
   class="st1" />
		<path
   id="path7"
   d="M39.1,203.7l-16.9,6.6l-5.7,13.4l1,14.1l7.1,11.9l6.3,3.9l1.9,10.7l9.5,2.7l9.5-2.7v-9l10.5-7.3l8.3-16.2    l-3.6-12.8l-9-12.7L39.1,203.7z"
   class="st1" />
		<path
   id="path9"
   d="M42,201.6l0.2,65.4l-11.4-1.5v-10l-13.5-14.2L16.4,227l3.9-12.5l12.2-8.2L42,201.6z"
   class="st2" />
		<path
   id="path11"
   d="M88.3,169.6h-6.2v7.5h6.2V169.6z"
   class="st3" />
		
			<linearGradient
   gradientTransform="matrix(1 0 0 -1 8.410366e-06 500.1102)"
   y2="258.7218"
   x2="121.0509"
   y1="258.7218"
   x1="111.5125"
   gradientUnits="userSpaceOnUse"
   id="SVGID_1_">
			<stop
   id="stop13"
   style="stop-color:#BEABF3"
   offset="0" />
			<stop
   id="stop15"
   style="stop-color:#BEA8F4"
   offset="0.47" />
			<stop
   id="stop17"
   style="stop-color:#BDA0F8"
   offset="0.81" />
			<stop
   id="stop19"
   style="stop-color:#BD97FB"
   offset="1" />
		</linearGradient>
		<path
   id="path22"
   d="M121.1,231.9h-9.5v19.1h9.5V231.9z"
   class="st4" />
		
			<linearGradient
   gradientTransform="matrix(1 0 0 -1 8.410366e-06 500.1102)"
   y2="273.8561"
   x2="126.0274"
   y1="273.8561"
   x1="107.3671"
   gradientUnits="userSpaceOnUse"
   id="SVGID_2_">
			<stop
   id="stop24"
   style="stop-color:#C7B5FB"
   offset="0" />
			<stop
   id="stop26"
   style="stop-color:#B3A1EA"
   offset="0.2" />
			<stop
   id="stop28"
   style="stop-color:#A08ED9"
   offset="0.46" />
			<stop
   id="stop30"
   style="stop-color:#9482CF"
   offset="0.73" />
			<stop
   id="stop32"
   style="stop-color:#907FCC"
   offset="1" />
		</linearGradient>
		<path
   id="path35"
   d="M120.7,216.9h-8.1c-2.9,0-5.3,2.4-5.3,5.3v8.1c0,2.9,2.4,5.3,5.3,5.3h8.1c2.9,0,5.3-2.4,5.3-5.3v-8.1    C126,219.3,123.7,216.9,120.7,216.9z"
   class="st5" />
		
			<linearGradient
   gradientTransform="matrix(1 0 0 -1 8.410366e-06 500.1102)"
   y2="311.1783"
   x2="35273.2617"
   y1="311.1783"
   x1="22156.584"
   gradientUnits="userSpaceOnUse"
   id="SVGID_3_">
			<stop
   id="stop37"
   style="stop-color:#BEABF3"
   offset="0" />
			<stop
   id="stop39"
   style="stop-color:#BEA8F4"
   offset="0.47" />
			<stop
   id="stop41"
   style="stop-color:#BDA0F8"
   offset="0.81" />
			<stop
   id="stop43"
   style="stop-color:#BD97FB"
   offset="1" />
		</linearGradient>
		<path
   id="path46"
   d="M120.6,153.1h-7.5c-13.3,0-24,10.8-24,24v23.6c0,13.3,10.8,24,24,24h7.5c13.3,0,24-10.8,24-24v-23.6    C144.7,163.8,133.9,153.1,120.6,153.1z"
   class="st6" />
		<path
   id="path48"
   d="M150.1,170.1h-6.2v7.5h6.2V170.1z"
   class="st3" />
		
			<linearGradient
   gradientTransform="matrix(1 0 0 -1 8.410366e-06 500.1102)"
   y2="237.9861"
   x2="22776.1348"
   y1="237.9861"
   x1="16592.832"
   gradientUnits="userSpaceOnUse"
   id="SVGID_4_">
			<stop
   id="stop50"
   style="stop-color:#BEABF3"
   offset="0" />
			<stop
   id="stop52"
   style="stop-color:#BEA8F4"
   offset="0.47" />
			<stop
   id="stop54"
   style="stop-color:#BDA0F8"
   offset="0.81" />
			<stop
   id="stop56"
   style="stop-color:#BD97FB"
   offset="1" />
		</linearGradient>
		<path
   id="path59"
   d="M135.6,268.8H97.4c0-6.9,10-12.9,15.3-13.3h7.5C126,255.9,135.6,261.9,135.6,268.8L135.6,268.8z"
   class="st7" />
		
			<linearGradient
   gradientTransform="matrix(1 0 0 -1 8.410366e-06 500.1102)"
   y2="347.6708"
   x2="45489.3711"
   y1="347.6708"
   x1="25358.5371"
   gradientUnits="userSpaceOnUse"
   id="SVGID_5_">
			<stop
   id="stop61"
   style="stop-color:#C7B5FB"
   offset="0" />
			<stop
   id="stop63"
   style="stop-color:#B3A1EA"
   offset="0.2" />
			<stop
   id="stop65"
   style="stop-color:#A08ED9"
   offset="0.46" />
			<stop
   id="stop67"
   style="stop-color:#9482CF"
   offset="0.73" />
			<stop
   id="stop69"
   style="stop-color:#907FCC"
   offset="1" />
		</linearGradient>
		<path
   id="path72"
   d="M150.9,147.7H82.1v9.5h68.8V147.7z"
   class="st8" />
		
			<linearGradient
   gradientTransform="matrix(1 0 0 -1 8.410366e-06 500.1102)"
   y2="333.7795"
   x2="40128.4414"
   y1="333.7795"
   x1="23691.7695"
   gradientUnits="userSpaceOnUse"
   id="SVGID_6_">
			<stop
   id="stop74"
   style="stop-color:#C7B5FB"
   offset="0" />
			<stop
   id="stop76"
   style="stop-color:#B3A1EA"
   offset="0.2" />
			<stop
   id="stop78"
   style="stop-color:#A08ED9"
   offset="0.46" />
			<stop
   id="stop80"
   style="stop-color:#9482CF"
   offset="0.73" />
			<stop
   id="stop82"
   style="stop-color:#907FCC"
   offset="1" />
		</linearGradient>
		<path
   id="path85"
   d="M147.2,153.1H85v26.5h62.2V153.1z"
   class="st9" />
		<path
   id="path87"
   d="M147.2,157.2H85v2.5h62.2V157.2z"
   class="st3" />
		<path
   id="path89"
   d="M158.8,286.6H74.2v17h84.6V286.6z"
   class="st3" />
		
			<linearGradient
   gradientTransform="matrix(1 0 0 -1 8.410366e-06 500.1102)"
   y2="246.4878"
   x2="11664.1084"
   y1="246.4878"
   x1="9837.8369"
   gradientUnits="userSpaceOnUse"
   id="SVGID_7_">
			<stop
   id="stop91"
   style="stop-color:#C7B5FB"
   offset="0" />
			<stop
   id="stop93"
   style="stop-color:#B3A1EA"
   offset="0.2" />
			<stop
   id="stop95"
   style="stop-color:#A08ED9"
   offset="0.46" />
			<stop
   id="stop97"
   style="stop-color:#9482CF"
   offset="0.73" />
			<stop
   id="stop99"
   style="stop-color:#907FCC"
   offset="1" />
		</linearGradient>
		<path
   id="path102"
   d="M126.9,249.7h-20.7v7.9h20.7V249.7z"
   class="st10" />
		
			<linearGradient
   gradientTransform="matrix(1 0 0 -1 8.410366e-06 500.1102)"
   y2="225.545"
   x2="38318.1367"
   y1="225.545"
   x1="23170.127"
   gradientUnits="userSpaceOnUse"
   id="SVGID_8_">
			<stop
   id="stop104"
   style="stop-color:#C7B5FB"
   offset="0" />
			<stop
   id="stop106"
   style="stop-color:#B3A1EA"
   offset="0.2" />
			<stop
   id="stop108"
   style="stop-color:#A08ED9"
   offset="0.46" />
			<stop
   id="stop110"
   style="stop-color:#9482CF"
   offset="0.73" />
			<stop
   id="stop112"
   style="stop-color:#907FCC"
   offset="1" />
		</linearGradient>
		<path
   id="path115"
   d="M146.3,268.8H86.6v11.6h59.7V268.8z"
   class="st11" />
		
			<linearGradient
   gradientTransform="matrix(1 0 0 -1 8.410366e-06 500.1102)"
   y2="217.2518"
   x2="62649.2578"
   y1="217.2518"
   x1="28881.9941"
   gradientUnits="userSpaceOnUse"
   id="SVGID_9_">
			<stop
   id="stop117"
   style="stop-color:#BEABF3"
   offset="0" />
			<stop
   id="stop119"
   style="stop-color:#BEA8F4"
   offset="0.47" />
			<stop
   id="stop121"
   style="stop-color:#BDA0F8"
   offset="0.81" />
			<stop
   id="stop123"
   style="stop-color:#BD97FB"
   offset="1" />
		</linearGradient>
		<path
   id="path126"
   d="M160.9,278.3H71.7v9.1h89.2V278.3z"
   class="st12" />
		
			<linearGradient
   gradientTransform="matrix(1 0 0 -1 8.410366e-06 500.1102)"
   y2="399.9256"
   x2="17235.959"
   y1="362.7341"
   x1="10137.9316"
   gradientUnits="userSpaceOnUse"
   id="SVGID_10_">
			<stop
   id="stop128"
   style="stop-color:#C7B5FB"
   offset="0" />
			<stop
   id="stop130"
   style="stop-color:#B3A1EA"
   offset="0.2" />
			<stop
   id="stop132"
   style="stop-color:#A08ED9"
   offset="0.46" />
			<stop
   id="stop134"
   style="stop-color:#9482CF"
   offset="0.73" />
			<stop
   id="stop136"
   style="stop-color:#907FCC"
   offset="1" />
		</linearGradient>
		<path
   id="path139"
   d="M75.8,177.1c2.2-1.7,2-7.3-0.9-10.8c-1.7-2.1-4.8-3.8-7.9-3.3c-5.1,0.8-7.9,7.2-7.8,11.7    c0.1,6.1,8.5,10.5,16.7,15.3c0.4,0.2,1.1,0.6,2.1,1.2c3,1.8,6.5,4,9.6,7c1.7,1.6,3.3,3.2,4.6,5.8c0.7,1.3,3.6,7.1,1.3,12.8    c-0.2,0.4-1.5,3.5-4.5,5.4c-0.9,0.5-1.9,1.1-2.9,0.8c-1.5-0.4-2.5-2.7-2.1-4.5c0.3-1.4,1.4-1.5,2.5-2.9c1.7-2.3,1.3-5.2,1.2-6.2    c-0.5-4.3-4.3-7.1-8.3-9.9c-4.9-3.4-6-2.8-12.1-6.6c-4.1-2.6-6.7-4.2-9.2-7.4c-1.3-1.6-4.3-5.7-4.6-11.6c-0.1-2-0.4-6.3,2.4-10.4    c2.9-4.2,7.1-5.5,8.3-5.8c1.3-0.4,7.2-1.9,12.4,1.6c3.9,2.6,5.2,6.4,5.9,8.3c0.5,1.5,1.5,4.3,0.9,7.9c-0.2,1.3-1,6-4.9,8.3    c-0.8,0.5-3.8,2.3-6.2,0.9c-2.4-1.4-3-5.2-1.7-6.6C71.7,176.6,74,178.4,75.8,177.1z"
   class="st13" />
		
			<linearGradient
   gradientTransform="matrix(1 0 0 -1 8.410366e-06 500.1102)"
   y2="623.8837"
   x2="-31295.166"
   y1="552.9474"
   x1="-24198.6914"
   gradientUnits="userSpaceOnUse"
   id="SVGID_11_">
			<stop
   id="stop141"
   style="stop-color:#C7B5FB"
   offset="0" />
			<stop
   id="stop143"
   style="stop-color:#B3A1EA"
   offset="0.2" />
			<stop
   id="stop145"
   style="stop-color:#A08ED9"
   offset="0.46" />
			<stop
   id="stop147"
   style="stop-color:#9482CF"
   offset="0.73" />
			<stop
   id="stop149"
   style="stop-color:#907FCC"
   offset="1" />
		</linearGradient>
		<path
   id="path152"
   d="M156.7,177.6c-2.2-1.7-2-7.3,0.9-10.8c1.7-2.1,4.8-3.8,7.9-3.3c5.1,0.8,7.9,7.2,7.8,11.7    c-0.1,6.1-8.5,10.5-16.7,15.3c-0.4,0.2-1.1,0.6-2.1,1.2c-3,1.8-6.5,4-9.6,7c-1.7,1.6-3.3,3.2-4.6,5.8c-0.7,1.3-3.6,7.1-1.3,12.8    c0.2,0.4,1.5,3.5,4.5,5.4c0.9,0.5,1.9,1.1,2.9,0.8c1.5-0.4,2.5-2.7,2.1-4.6c-0.3-1.4-1.4-1.5-2.5-2.9c-1.7-2.3-1.3-5.2-1.2-6.2    c0.5-4.3,4.3-7.1,8.3-9.9c4.9-3.4,6-2.8,12.1-6.6c4.1-2.6,6.7-4.2,9.2-7.4c1.3-1.6,4.3-5.7,4.6-11.6c0.1-2,0.4-6.3-2.4-10.4    c-2.9-4.2-7.1-5.5-8.3-5.8c-1.3-0.4-7.2-1.9-12.4,1.6c-3.9,2.6-5.2,6.4-5.9,8.3c-0.5,1.5-1.5,4.3-0.9,7.9c0.2,1.3,1,6,4.9,8.3    c0.8,0.5,3.8,2.3,6.2,0.9c2.4-1.4,3-5.2,1.7-6.6C160.7,177.1,158.4,178.9,156.7,177.6z"
   class="st14" />
		
			<linearGradient
   gradientTransform="matrix(1 0 0 -1 8.410366e-06 500.1102)"
   y2="227.6755"
   x2="5629.981"
   y1="227.6755"
   x1="3424.8462"
   gradientUnits="userSpaceOnUse"
   id="SVGID_12_">
			<stop
   id="stop154"
   style="stop-color:#C7B5FB"
   offset="0" />
			<stop
   id="stop156"
   style="stop-color:#B3A1EA"
   offset="0.2" />
			<stop
   id="stop158"
   style="stop-color:#A08ED9"
   offset="0.46" />
			<stop
   id="stop160"
   style="stop-color:#9482CF"
   offset="0.73" />
			<stop
   id="stop162"
   style="stop-color:#907FCC"
   offset="1" />
		</linearGradient>
		<path
   id="path165"
   d="M51,269.9l-17.8,0c-0.3,0-0.7,0-1,0.2c-0.3,0.1-0.6,0.3-0.8,0.5c-0.2,0.2-0.4,0.5-0.6,0.8    c-0.1,0.3-0.2,0.6-0.2,1c0,0.3,0.1,0.7,0.2,1c0.1,0.3,0.3,0.6,0.6,0.8c0.2,0.2,0.5,0.4,0.8,0.5c0.3,0.1,0.6,0.2,1,0.2l17.8,0    c0.6,0,1.2-0.3,1.7-0.8c0.4-0.5,0.7-1.1,0.7-1.7c0-0.6-0.2-1.3-0.7-1.7C52.2,270.2,51.6,270,51,269.9L51,269.9z"
   class="st15" />
		
			<linearGradient
   gradientTransform="matrix(1 0 0 -1 8.410366e-06 500.1102)"
   y2="221.6855"
   x2="5592.9048"
   y1="221.6855"
   x1="3387.7852"
   gradientUnits="userSpaceOnUse"
   id="SVGID_13_">
			<stop
   id="stop167"
   style="stop-color:#C7B5FB"
   offset="0" />
			<stop
   id="stop169"
   style="stop-color:#B3A1EA"
   offset="0.2" />
			<stop
   id="stop171"
   style="stop-color:#A08ED9"
   offset="0.46" />
			<stop
   id="stop173"
   style="stop-color:#9482CF"
   offset="0.73" />
			<stop
   id="stop175"
   style="stop-color:#907FCC"
   offset="1" />
		</linearGradient>
		<path
   id="path178"
   d="M50.6,275.9l-17.8,0c-0.3,0-0.7,0-1,0.2c-0.3,0.1-0.6,0.3-0.8,0.5c-0.2,0.2-0.4,0.5-0.6,0.8    c-0.1,0.3-0.2,0.6-0.2,1c0,0.3,0.1,0.7,0.2,1c0.1,0.3,0.3,0.6,0.6,0.8c0.2,0.2,0.5,0.4,0.8,0.5c0.3,0.1,0.6,0.2,1,0.2l17.8,0    c0.6,0,1.2-0.3,1.7-0.8c0.4-0.5,0.7-1.1,0.7-1.7c0-0.6-0.2-1.3-0.7-1.7S51.3,276,50.6,275.9L50.6,275.9z"
   class="st16" />
		
			<linearGradient
   gradientTransform="matrix(1 0 0 -1 8.410366e-06 500.1102)"
   y2="215.1354"
   x2="4546.9751"
   y1="215.1354"
   x1="3015.8154"
   gradientUnits="userSpaceOnUse"
   id="SVGID_14_">
			<stop
   id="stop180"
   style="stop-color:#C7B5FB"
   offset="0" />
			<stop
   id="stop182"
   style="stop-color:#B3A1EA"
   offset="0.2" />
			<stop
   id="stop184"
   style="stop-color:#A08ED9"
   offset="0.46" />
			<stop
   id="stop186"
   style="stop-color:#9482CF"
   offset="0.73" />
			<stop
   id="stop188"
   style="stop-color:#907FCC"
   offset="1" />
		</linearGradient>
		<path
   id="path191"
   d="M37.6,287.5l9.1,0c0.7,0,1.3-0.1,1.9-0.4c0.6-0.2,1.1-0.6,1.6-1.1c0.5-0.5,0.8-1,1.1-1.6    c0.2-0.6,0.4-1.2,0.4-1.9l-19,0c0,1.3,0.5,2.6,1.5,3.5C35,286.9,36.3,287.5,37.6,287.5L37.6,287.5z"
   class="st17" />
		
			<linearGradient
   gradientTransform="matrix(1 0 0 -1 8.410366e-06 500.1102)"
   y2="265.2567"
   x2="70.5234"
   y1="265.2567"
   x1="13.567"
   gradientUnits="userSpaceOnUse"
   id="SVGID_15_">
			<stop
   id="stop193"
   style="stop-color:#C7B5FB"
   offset="0" />
			<stop
   id="stop195"
   style="stop-color:#B4A2EB"
   offset="0.19" />
			<stop
   id="stop197"
   style="stop-color:#A08ED9"
   offset="0.46" />
			<stop
   id="stop199"
   style="stop-color:#9482CF"
   offset="0.73" />
			<stop
   id="stop201"
   style="stop-color:#907FCC"
   offset="1" />
		</linearGradient>
		<path
   id="path204"
   d="M41.9,201.6c-6.5,0-12.9,2.3-17.9,6.4c-5.1,4.1-8.5,9.9-9.9,16.3c-1.3,6.4-0.4,13.1,2.6,18.9    c3,5.8,7.9,10.4,13.9,13l0,8.7c0,0.4,0.1,0.8,0.2,1.2c0.2,0.4,0.4,0.7,0.7,1c0.3,0.3,0.6,0.5,1,0.7c0.4,0.2,0.8,0.2,1.2,0.2    l16.4,0c0.4,0,0.8-0.1,1.2-0.2c0.4-0.2,0.7-0.4,1-0.7c0.3-0.3,0.5-0.6,0.7-1c0.2-0.4,0.2-0.8,0.2-1.2l0-8.7    c6-2.6,10.9-7.3,13.9-13.1c3-5.8,3.9-12.5,2.5-18.9c-1.3-6.4-4.9-12.1-9.9-16.2S48.5,201.6,41.9,201.6L41.9,201.6z M50.4,253.7    l0,7.7c0,1.6-1,2.8-2.3,2.8l-12,0c-1.3,0-2.3-1.3-2.3-2.8l0-7.7c-7.4-3.9-16.4-13.3-16.5-23.6c0-13.9,13.2-24.7,24.7-24.7    c11.5,0,24.6,10.7,24.7,24.6C66.7,240.4,57.8,249.8,50.4,253.7z"
   class="st18" />
		
			<linearGradient
   gradientTransform="matrix(1 0 0 -1 8.410366e-06 500.1102)"
   y2="233.1155"
   x2="29331.0703"
   y1="233.1155"
   x1="24546.1875"
   gradientUnits="userSpaceOnUse"
   id="SVGID_16_">
			<stop
   id="stop206"
   style="stop-color:#C7B5FB"
   offset="0" />
			<stop
   id="stop208"
   style="stop-color:#B3A1EA"
   offset="0.2" />
			<stop
   id="stop210"
   style="stop-color:#A08ED9"
   offset="0.46" />
			<stop
   id="stop212"
   style="stop-color:#9482CF"
   offset="0.73" />
			<stop
   id="stop214"
   style="stop-color:#907FCC"
   offset="1" />
		</linearGradient>
		<path
   id="path217"
   d="M185.2,243.9l-18.6,41l12.5-7.7l2.5,12.9l18.6-37.6L185.2,243.9z"
   class="st19" />
		
			<linearGradient
   gradientTransform="matrix(1 0 0 -1 8.410366e-06 500.1102)"
   y2="232.6131"
   x2="-63933.3359"
   y1="232.6131"
   x1="-59148.2266"
   gradientUnits="userSpaceOnUse"
   id="SVGID_17_">
			<stop
   id="stop219"
   style="stop-color:#C7B5FB"
   offset="0" />
			<stop
   id="stop221"
   style="stop-color:#B3A1EA"
   offset="0.2" />
			<stop
   id="stop223"
   style="stop-color:#A08ED9"
   offset="0.46" />
			<stop
   id="stop225"
   style="stop-color:#9482CF"
   offset="0.73" />
			<stop
   id="stop227"
   style="stop-color:#907FCC"
   offset="1" />
		</linearGradient>
		<path
   id="path230"
   d="M210.6,244.4l18.6,41l-12.5-7.7l-2.5,12.9L195.7,253L210.6,244.4z"
   class="st20" />
		
			<linearGradient
   gradientTransform="matrix(1 0 0 -1 8.410366e-06 500.1102)"
   y2="265.6581"
   x2="62080.6289"
   y1="265.6581"
   x1="45798.0859"
   gradientUnits="userSpaceOnUse"
   id="SVGID_18_">
			<stop
   id="stop232"
   style="stop-color:#C7B5FB"
   offset="0" />
			<stop
   id="stop234"
   style="stop-color:#B3A1EA"
   offset="0.2" />
			<stop
   id="stop236"
   style="stop-color:#A08ED9"
   offset="0.46" />
			<stop
   id="stop238"
   style="stop-color:#9482CF"
   offset="0.73" />
			<stop
   id="stop240"
   style="stop-color:#907FCC"
   offset="1" />
		</linearGradient>
		<path
   id="path243"
   d="M200.1,265.4c17.1,0,31-13.9,31-31s-13.9-31-31-31s-31,13.9-31,31S183,265.4,200.1,265.4z"
   class="st21" />
		
			<linearGradient
   gradientTransform="matrix(1 0 0 -1 8.410366e-06 500.1102)"
   y2="265.2578"
   x2="47963.2656"
   y1="265.2578"
   x1="37720.1836"
   gradientUnits="userSpaceOnUse"
   id="SVGID_19_">
			<stop
   id="stop245"
   style="stop-color:#BEABF3"
   offset="0" />
			<stop
   id="stop247"
   style="stop-color:#BEA8F4"
   offset="0.47" />
			<stop
   id="stop249"
   style="stop-color:#BDA0F8"
   offset="0.81" />
			<stop
   id="stop251"
   style="stop-color:#BD97FB"
   offset="1" />
		</linearGradient>
		<path
   id="path254"
   d="M200.2,259.4c13.6,0,24.6-11,24.6-24.6c0-13.6-11-24.6-24.6-24.6c-13.6,0-24.6,11-24.6,24.6    C175.6,248.4,186.6,259.4,200.2,259.4z"
   class="st22" />
		
			<linearGradient
   gradientTransform="matrix(1 0 0 -1 8.410366e-06 500.1102)"
   y2="285.6558"
   x2="199.3691"
   y1="246.9433"
   x1="199.3691"
   gradientUnits="userSpaceOnUse"
   id="SVGID_20_">
			<stop
   id="stop256"
   style="stop-color:#C7B5FB"
   offset="0" />
			<stop
   id="stop258"
   style="stop-color:#B5A2EC"
   offset="8.000000e-02" />
			<stop
   id="stop260"
   style="stop-color:#A492DE"
   offset="0.18" />
			<stop
   id="stop262"
   style="stop-color:#9987D3"
   offset="0.31" />
			<stop
   id="stop264"
   style="stop-color:#9280CE"
   offset="0.49" />
			<stop
   id="stop266"
   style="stop-color:#907FCC"
   offset="1" />
		</linearGradient>
		<path
   id="path269"
   d="M212.4,252.6l-12.6-6.3l-12.3,6.8l2.1-14l-10.3-9.6l13.9-2.3l6-12.8l6.5,12.5l14,1.7l-9.9,10.1L212.4,252.6z    "
   class="st23" />
	</g>
	<path
   id="path273"
   d="M122,230.5h-13.6l-2.6,7.8h-8.2l14-37.7h7.2l14.1,37.7h-8.3L122,230.5z M110.5,224.2h9.4l-4.7-14.1   L110.5,224.2z M165.4,225.7c-0.3,4.1-1.8,7.2-4.5,9.6c-2.7,2.3-6.2,3.5-10.7,3.5c-4.8,0-8.6-1.6-11.4-4.9   c-2.8-3.3-4.1-7.7-4.1-13.4v-2.3c0-3.6,0.6-6.8,1.9-9.6c1.3-2.8,3.1-4.9,5.5-6.3c2.4-1.5,5.1-2.2,8.3-2.2c4.3,0,7.8,1.2,10.5,3.5   c2.7,2.3,4.2,5.6,4.6,9.8h-7.8c-0.2-2.4-0.9-4.2-2-5.3c-1.2-1.1-2.9-1.7-5.3-1.7c-2.6,0-4.5,0.9-5.8,2.8c-1.3,1.8-1.9,4.7-2,8.6   v2.8c0,4.1,0.6,7,1.8,8.9c1.2,1.9,3.2,2.8,5.8,2.8c2.4,0,4.2-0.5,5.4-1.6c1.2-1.1,1.9-2.8,2-5.1H165.4z M201.1,238.3h-7.8v-16.1   h-15.1v16.1h-7.8v-37.7h7.8v15.3h15.1v-15.3h7.8V238.3z M216.2,238.3h-7.8v-37.7h7.8V238.3z M246.1,221.9h-14.9V232h17.5v6.2h-25.2   v-37.7h25.2v6.3h-17.4v9h14.9V221.9z M267.1,228.9l8.5-28.3h8.6l-13.1,37.7h-8.1L250,200.6h8.6L267.1,228.9z M310.5,221.9h-14.9   V232h17.5v6.2h-25.2v-37.7H313v6.3h-17.4v9h14.9V221.9z M327.8,200.6l9.7,27.3l9.6-27.3h10.2v37.7h-7.8V228l0.8-17.8l-10.2,28.1   h-5.3l-10.1-28l0.8,17.7v10.3h-7.8v-37.7H327.8z M386.7,221.9h-14.9V232h17.5v6.2H364v-37.7h25.2v6.3h-17.4v9h14.9V221.9z    M424.5,238.3h-7.8l-15.1-24.8v24.8h-7.8v-37.7h7.8l15.1,24.8v-24.8h7.7V238.3z M458.8,206.9h-11.5v31.4h-7.8v-31.4h-11.4v-6.3   h30.7V206.9z M482.4,228.4c0-1.5-0.5-2.6-1.6-3.4c-1-0.8-2.9-1.6-5.6-2.5c-2.7-0.9-4.8-1.7-6.4-2.6c-4.3-2.3-6.4-5.4-6.4-9.3   c0-2,0.6-3.8,1.7-5.4c1.2-1.6,2.8-2.9,4.9-3.8c2.2-0.9,4.6-1.3,7.2-1.3c2.7,0,5.1,0.5,7.2,1.5c2.1,1,3.7,2.3,4.9,4.1   c1.2,1.8,1.8,3.8,1.8,6.1h-7.8c0-1.7-0.5-3.1-1.6-4c-1.1-1-2.6-1.4-4.6-1.4c-1.9,0-3.4,0.4-4.4,1.2c-1.1,0.8-1.6,1.8-1.6,3.2   c0,1.2,0.6,2.2,1.8,3.1c1.2,0.8,3.1,1.6,5.5,2.3c4.4,1.3,7.6,3,9.6,4.9s3,4.4,3,7.3c0,3.3-1.2,5.8-3.7,7.7c-2.5,1.8-5.8,2.8-10,2.8   c-2.9,0-5.5-0.5-7.9-1.6c-2.4-1.1-4.2-2.5-5.5-4.4c-1.2-1.8-1.9-4-1.9-6.4h7.8c0,4.2,2.5,6.2,7.4,6.2c1.8,0,3.3-0.4,4.3-1.1   C481.8,230.8,482.4,229.7,482.4,228.4z"
   class="st24" />
	
		<linearGradient
   gradientTransform="matrix(1 0 0 -1 8.410366e-06 500.1102)"
   y2="280.6719"
   x2="509.4775"
   y1="280.6719"
   x1="159.5588"
   gradientUnits="userSpaceOnUse"
   id="SVGID_21_">
		<stop
   id="stop275"
   style="stop-color:#A01BB2"
   offset="0" />
		<stop
   id="stop277"
   style="stop-color:#683387"
   offset="1" />
	</linearGradient>
	<path
   id="path280"
   d="M122,230.5h-13.6l-2.6,7.8h-8.2l14-37.7h7.2l14.1,37.7h-8.3L122,230.5z M110.5,224.2h9.4l-4.7-14.1   L110.5,224.2z M165.4,225.7c-0.3,4.1-1.8,7.2-4.5,9.6c-2.7,2.3-6.2,3.5-10.7,3.5c-4.8,0-8.6-1.6-11.4-4.9   c-2.8-3.3-4.1-7.7-4.1-13.4v-2.3c0-3.6,0.6-6.8,1.9-9.6c1.3-2.8,3.1-4.9,5.5-6.3c2.4-1.5,5.1-2.2,8.3-2.2c4.3,0,7.8,1.2,10.5,3.5   c2.7,2.3,4.2,5.6,4.6,9.8h-7.8c-0.2-2.4-0.9-4.2-2-5.3c-1.2-1.1-2.9-1.7-5.3-1.7c-2.6,0-4.5,0.9-5.8,2.8c-1.3,1.8-1.9,4.7-2,8.6   v2.8c0,4.1,0.6,7,1.8,8.9c1.2,1.9,3.2,2.8,5.8,2.8c2.4,0,4.2-0.5,5.4-1.6c1.2-1.1,1.9-2.8,2-5.1H165.4z M201.1,238.3h-7.8v-16.1   h-15.1v16.1h-7.8v-37.7h7.8v15.3h15.1v-15.3h7.8V238.3z M216.2,238.3h-7.8v-37.7h7.8V238.3z M246.1,221.9h-14.9V232h17.5v6.2h-25.2   v-37.7h25.2v6.3h-17.4v9h14.9V221.9z M267.1,228.9l8.5-28.3h8.6l-13.1,37.7h-8.1L250,200.6h8.6L267.1,228.9z M310.5,221.9h-14.9   V232h17.5v6.2h-25.2v-37.7H313v6.3h-17.4v9h14.9V221.9z M327.8,200.6l9.7,27.3l9.6-27.3h10.2v37.7h-7.8V228l0.8-17.8l-10.2,28.1   h-5.3l-10.1-28l0.8,17.7v10.3h-7.8v-37.7H327.8z M386.7,221.9h-14.9V232h17.5v6.2H364v-37.7h25.2v6.3h-17.4v9h14.9V221.9z    M424.5,238.3h-7.8l-15.1-24.8v24.8h-7.8v-37.7h7.8l15.1,24.8v-24.8h7.7V238.3z M458.8,206.9h-11.5v31.4h-7.8v-31.4h-11.4v-6.3   h30.7V206.9z M482.4,228.4c0-1.5-0.5-2.6-1.6-3.4c-1-0.8-2.9-1.6-5.6-2.5c-2.7-0.9-4.8-1.7-6.4-2.6c-4.3-2.3-6.4-5.4-6.4-9.3   c0-2,0.6-3.8,1.7-5.4c1.2-1.6,2.8-2.9,4.9-3.8c2.2-0.9,4.6-1.3,7.2-1.3c2.7,0,5.1,0.5,7.2,1.5c2.1,1,3.7,2.3,4.9,4.1   c1.2,1.8,1.8,3.8,1.8,6.1h-7.8c0-1.7-0.5-3.1-1.6-4c-1.1-1-2.6-1.4-4.6-1.4c-1.9,0-3.4,0.4-4.4,1.2c-1.1,0.8-1.6,1.8-1.6,3.2   c0,1.2,0.6,2.2,1.8,3.1c1.2,0.8,3.1,1.6,5.5,2.3c4.4,1.3,7.6,3,9.6,4.9s3,4.4,3,7.3c0,3.3-1.2,5.8-3.7,7.7c-2.5,1.8-5.8,2.8-10,2.8   c-2.9,0-5.5-0.5-7.9-1.6c-2.4-1.1-4.2-2.5-5.5-4.4c-1.2-1.8-1.9-4-1.9-6.4h7.8c0,4.2,2.5,6.2,7.4,6.2c1.8,0,3.3-0.4,4.3-1.1   C481.8,230.8,482.4,229.7,482.4,228.4z"
   class="st25" />
</g>
</svg>
