<?xml version="1.0" encoding="utf-8"?>
<!-- Generator: Adobe Illustrator 24.2.0, SVG Export Plug-In . SVG Version: 6.00 Build 0)  -->
<svg version="1.1" id="Layer_1" xmlns="http://www.w3.org/2000/svg" xmlns:xlink="http://www.w3.org/1999/xlink" x="0px" y="0px"
	 viewBox="0 0 1009.8 517.4" style="enable-background:new 0 0 1009.8 517.4;" xml:space="preserve">
<style type="text/css">
	.st0{display:none;}
	.st1{display:none;opacity:0.24;}
	.st2{display:inline;fill:#7A7A7A;}
	.st3{display:inline;fill:#FFE52C;}
	.st4{display:inline;}
	.st5{fill:#FFE52C;}
	.st6{fill:#EFDF4B;}
	.st7{fill:#FFFFFF;}
	.st8{fill:#1D1D1B;}
	.st9{display:inline;fill:#1D1D1B;}
	.st10{display:none;fill:none;}
	.st11{fill:#231F20;}
	
		.st12{display:inline;fill:none;stroke:#231F20;stroke-width:0.75;stroke-linecap:round;stroke-linejoin:round;stroke-miterlimit:10;}
	.st13{display:none;fill:#FFE52C;}
	.st14{display:none;fill:none;stroke:#1D1D1B;stroke-miterlimit:10;}
	.st15{display:none;fill:#1D1D1B;}
	.st16{opacity:0.24;}
	.st17{fill:#7A7A7A;}
	.st18{fill:#752F8B;}
	.st19{font-family:'Montserrat-Bold';}
	.st20{font-size:45.4356px;}
	.st21{letter-spacing:1;}
	.st22{opacity:0.33;enable-background:new    ;}
	.st23{fill:none;stroke:#FFFFFF;stroke-width:0.75;stroke-linecap:round;stroke-linejoin:round;stroke-miterlimit:10;}
	.st24{fill:none;}
	.st25{font-family:'OpenSans-SemiBold';}
	.st26{font-size:36px;}
</style>
<g id="BACKGROUND" class="st0">
</g>
<g id="OBJECTS">
	<g class="st1">
		<path class="st2" d="M22.9-52.7c-4.9-4.8-9-10.1-12.2-15.9c6.8,0.2,13.6-1.8,19.4-5.8c1.9,2.7,4,5.3,6.5,7.7
			c9.4,9.2,21.9,14.1,35,13.9s25.4-5.5,34.6-14.9l14,13.6c-12.8,13.2-30,20.6-48.3,20.8C53.4-33,36.1-39.9,22.9-52.7z"/>
		<path class="st2" d="M120.2-92.9l-0.1-9.8c-0.2-13.1-5.5-25.4-14.9-34.6s-21.8-14.1-35-13.9c-13.1,0.2-25.4,5.5-34.6,14.9
			c-2.4,2.4-4.4,5.1-6.2,7.9c-5.9-3.9-12.8-5.6-19.5-5.2c3.1-5.9,7-11.4,11.8-16.2c12.8-13.2,30-20.6,48.3-20.8
			c18.4-0.3,35.7,6.6,48.9,19.4c10.8,10.5,17.7,23.9,20,38.6l11.6-0.2l-0.1-10.4l26,19.8L151-82.8l-0.1-10.4L120.2-92.9z"/>
		<ellipse class="st2" cx="11.5" cy="-101.1" rx="28.4" ry="28.4"/>
	</g>
	<g class="st1">
		<path class="st2" d="M20.7-209.5c-13.2-12.8-20.6-30-20.8-48.3c-0.3-18.4,6.6-35.7,19.4-48.9c8.7-9,19.4-15.2,31.2-18.4
			c-2.1,6.7-2,13.8,0.3,20.4c-6.5,2.5-12.5,6.4-17.5,11.6c-9.2,9.4-14.1,21.8-13.9,35c0.2,13.1,5.5,25.4,14.9,34.6
			s21.8,14.1,35,13.9c13.1-0.2,25.4-5.5,34.6-14.9l14,13.6c-12.8,13.2-30,20.6-48.3,20.8C51.2-189.8,33.9-196.7,20.7-209.5z"/>
		<path class="st2" d="M117.9-249.7l-0.1-9.8c-0.2-12.3-4.9-23.9-13.2-32.9c0.1-0.1,0.2-0.2,0.4-0.4c4.9-5.1,7.9-11.4,8.8-17.9
			c0.9,0.8,1.9,1.7,2.7,2.5c10.8,10.5,17.7,23.9,20,38.6l11.6-0.2l-0.1-10.4l26,19.8l-25.4,20.7l-0.1-10.4L117.9-249.7z"/>
		<ellipse class="st2" cx="81.6" cy="-315.4" rx="28.4" ry="28.4"/>
	</g>
	<g class="st1">
		<ellipse class="st2" cx="8.1" cy="-430.5" rx="28.4" ry="28.4"/>
		<path class="st2" d="M115.6-418.5l-0.1-9.8c-0.2-13.1-5.5-25.4-14.9-34.6s-21.8-14.1-35-13.9c-13.1,0.2-25.4,5.5-34.6,14.9
			c-1.5,1.5-2.8,3.1-4,4.7c-5.8-4.1-12.7-6.1-19.5-5.9c2.7-4.4,5.9-8.6,9.6-12.4c12.8-13.2,30-20.6,48.3-20.8
			c18.4-0.3,35.7,6.6,48.9,19.4c10.8,10.5,17.7,23.9,20,38.6l11.6-0.2l-0.3-10.4l26,19.8l-25.4,20.6l-0.1-10.4L115.6-418.5z"/>
		<path class="st2" d="M18.3-378.3c-6-5.8-10.8-12.6-14.3-19.9c6.8,0.9,13.9-0.5,20-3.9c2.2,3.6,4.8,6.9,7.8,9.8
			c9.4,9.2,21.8,14.1,35,13.9c13.1-0.2,25.4-5.5,34.6-14.9l14,13.6c-12.8,13.2-30,20.6-48.3,20.8C48.8-358.6,31.5-365.5,18.3-378.3z
			"/>
	</g>
	<g class="st0">
		<path class="st3" d="M17.6-52.6c-4.9-4.8-9-10.1-12.2-15.9c6.8,0.2,13.6-1.8,19.4-5.8c1.9,2.7,4,5.3,6.5,7.7
			c9.4,9.2,21.9,14.1,35,13.9s25.4-5.5,34.6-14.9l14,13.6c-12.8,13.2-30,20.6-48.3,20.8C48.1-32.9,30.7-39.8,17.6-52.6z"/>
		<path class="st3" d="M114.8-92.8l-0.1-9.8c-0.2-13.1-5.5-25.4-14.9-34.6s-21.8-14.1-35-13.9c-13.1,0.2-25.4,5.5-34.6,14.9
			c-2.4,2.4-4.4,5.1-6.2,7.9c-5.9-3.9-12.8-5.6-19.5-5.2c3.1-5.9,7-11.4,11.8-16.2c12.8-13.2,30-20.6,48.3-20.8
			c18.4-0.3,35.7,6.6,48.9,19.4c10.8,10.5,17.7,23.9,20,38.6l11.6-0.2l-0.1-10.4l26,19.8l-25.4,20.6l-0.1-10.4L114.8-92.8z"/>
	</g>
	<g class="st0">
		<path class="st3" d="M15.3-209.4c-13.2-12.8-20.6-30-20.8-48.3c-0.3-18.4,6.6-35.7,19.4-48.9c8.7-9,19.4-15.2,31.2-18.4
			c-2.1,6.7-2,13.8,0.3,20.4c-6.5,2.5-12.5,6.4-17.5,11.6c-9.2,9.4-14.1,21.8-13.9,35c0.2,13.1,5.5,25.4,14.9,34.6
			s21.8,14.1,35,13.9c13.1-0.2,25.4-5.5,34.6-14.9l14,13.6c-12.8,13.2-30,20.6-48.3,20.8C45.9-189.7,28.5-196.7,15.3-209.4z"/>
		<path class="st3" d="M112.6-249.7l-0.1-9.8c-0.2-12.3-4.9-23.9-13.2-32.9c0.1-0.1,0.2-0.2,0.4-0.4c4.9-5.1,7.9-11.4,8.8-17.9
			c0.9,0.8,1.9,1.7,2.7,2.5c10.8,10.5,17.7,23.9,20,38.6l11.6-0.2l-0.1-10.4l26,19.8l-25.5,20.7l-0.1-10.4L112.6-249.7z"/>
	</g>
	<g class="st0">
		<g class="st4">
			<path class="st5" d="M110.2-418.4l-0.1-9.8c-0.2-13.1-5.5-25.4-14.9-34.6s-21.8-14.1-35-13.9s-25.5,5.5-34.6,14.9
				c-1.5,1.5-2.8,3.1-4,4.7c-5.8-4.1-12.7-6.1-19.5-5.9c2.7-4.4,5.9-8.6,9.6-12.4c12.8-13.2,30-20.6,48.3-20.8
				c18.4-0.3,35.7,6.6,48.9,19.4c10.8,10.5,17.7,23.9,20,38.6l11.6-0.2l-0.1-10.4l26,19.8L141-408.4l-0.1-10.4L110.2-418.4z"/>
			<path class="st6" d="M13-378.2C7-384,2.2-390.8-1.3-398.1c6.8,0.9,13.9-0.5,20-3.9c2.2,3.6,4.8,6.9,7.8,9.8
				c9.4,9.2,21.8,14.1,35,13.9c13.1-0.2,25.4-5.5,34.6-14.9l14,13.6c-12.8,13.2-30,20.6-48.3,20.8C43.5-358.5,26.1-365.4,13-378.2z"
				/>
		</g>
	</g>
	<g class="st0">
		<g class="st4">
			<circle class="st7" cx="76.2" cy="-315.3" r="28.4"/>
			<g>
				<path class="st8" d="M76.6-286.5c7.4-0.1,14.7-3,20.3-8.7l0,0c11.1-11.4,10.8-29.7-0.6-40.8c-5.5-5.4-12.8-8.3-20.5-8.2l0,0
					c-7.7,0.1-14.9,3.2-20.3,8.7c-11.1,11.4-10.8,29.7,0.6,40.8C61.8-289.1,69.2-286.4,76.6-286.5z M96.2-295.9
					c-10.7,11-28.4,11.3-39.4,0.6c-11-10.7-11.3-28.4-0.6-39.4c5.2-5.3,12.1-8.3,19.6-8.4c7.4-0.1,14.5,2.7,19.8,7.9
					C106.7-324.6,106.9-306.9,96.2-295.9L96.2-295.9z"/>
			</g>
		</g>
		
			<ellipse transform="matrix(6.652059e-02 -0.9978 0.9978 6.652059e-02 385.7429 -218.2771)" class="st3" cx="76.2" cy="-315.3" rx="18.2" ry="18.2"/>
		<g class="st4">
			<g>
				<path class="st8" d="M76.5-325.3c3.8-0.1,6.1,1.8,6.2,5c0,0.4-0.3,0.6-0.6,0.7l-10.9,0.2c-0.4,0-0.6-0.3-0.7-0.6
					C70.4-323.3,72.7-325.3,76.5-325.3L76.5-325.3z M81.3-321c-0.5-2.9-3.8-3.1-4.8-3.1c-1.1,0-4.3,0.3-4.7,3.2L81.3-321z"/>
				<path class="st8" d="M76.4-332.1c1.7,0,3.1,1.3,3.1,3s-1.3,3.1-3,3.1s-3.1-1.3-3.1-3C73.3-330.7,74.7-332.1,76.4-332.1
					L76.4-332.1z M76.4-327.3c1,0,1.8-0.8,1.7-1.8c0-1-0.8-1.8-1.8-1.7c-1,0-1.8,0.8-1.7,1.8C74.7-328,75.5-327.3,76.4-327.3
					L76.4-327.3z"/>
				<path class="st8" d="M87.6-310.7c3.8-0.1,6.1,1.8,6.2,5c0,0.4-0.3,0.7-0.6,0.7l-10.9,0.2c-0.4,0-0.6-0.3-0.7-0.6
					C81.5-308.7,83.8-310.7,87.6-310.7L87.6-310.7z M92.4-306.4c-0.5-2.9-3.8-3.1-4.8-3c-1.1,0-4.3,0.3-4.7,3.2L92.4-306.4z"/>
				<path class="st8" d="M87.5-317.5c1.7,0,3.1,1.3,3.1,3s-1.3,3.1-3,3.1s-3.1-1.3-3.1-3S85.8-317.4,87.5-317.5L87.5-317.5z
					 M87.6-312.7c1,0,1.8-0.8,1.7-1.8c0-1-0.8-1.8-1.8-1.7c-1,0-1.8,0.8-1.7,1.8C85.8-313.4,86.6-312.6,87.6-312.7L87.6-312.7z"/>
				<path class="st8" d="M65.8-310.4c3.8-0.1,6.1,1.8,6.2,5c0,0.4-0.3,0.7-0.6,0.7l-10.9,0.2c-0.4,0-0.6-0.3-0.7-0.6
					C59.7-308.4,62-310.4,65.8-310.4L65.8-310.4z M70.6-306.1c-0.5-2.9-3.8-3.1-4.8-3c-1.1,0-4.3,0.3-4.7,3.2L70.6-306.1z"/>
				<path class="st8" d="M65.7-317.2c1.7,0,3.1,1.3,3.1,3s-1.3,3.1-3,3.1s-3.1-1.3-3.1-3C62.6-315.8,64-317.1,65.7-317.2L65.7-317.2
					z M65.7-312.4c1,0,1.8-0.8,1.7-1.8c0-1-0.8-1.8-1.8-1.7c-1,0-1.8,0.8-1.7,1.8S64.8-312.3,65.7-312.4L65.7-312.4z"/>
				<path class="st8" d="M73.3-311.6l2.6-2.7l-0.1-3.8c0-0.4,0.3-0.6,0.6-0.7c0.4,0,0.7,0.3,0.7,0.6l0.1,3.8l2.7,2.6
					c0.3,0.2,0.3,0.7,0,0.9c-0.2,0.3-0.7,0.3-0.9,0l-2.4-2.4l-2.4,2.5c-0.3,0.2-0.7,0.2-0.9-0.1C73.1-311,73.1-311.4,73.3-311.6
					L73.3-311.6z"/>
			</g>
		</g>
	</g>
	
		<text transform="matrix(0.9999 -1.016941e-02 1.016941e-02 0.9999 38.9284 -414.7539)" class="st19" style="display:none;fill:#1D1D1B;enable-background:new    ; font-size:43.2651px;">01</text>
	
		<text transform="matrix(1 0 0 1 36.5427 -243.2384)" class="st19" style="display:none;fill:#1D1D1B;enable-background:new    ; font-size:43.2714px;">02</text>
	
		<text transform="matrix(1 0 0 1 40.2331 -89.9994)" class="st19" style="display:none;fill:#1D1D1B;enable-background:new    ; font-size:43.2714px;">03</text>
	<g class="st0">
		<g class="st4">
			<circle class="st7" cx="6" cy="-100.6" r="28.4"/>
			<g>
				<path class="st8" d="M6.5-71.8c7.4-0.1,14.7-3,20.3-8.7C32.2-86,35.1-93.3,35-101s-3.2-14.9-8.7-20.3
					c-11.4-11.1-29.7-10.8-40.8,0.6c-5.4,5.5-8.3,12.8-8.2,20.5c0.1,7.7,3.2,14.9,8.7,20.3C-8.4-74.4-0.9-71.7,6.5-71.8z M5.7-128.5
					c7.1-0.1,14.3,2.5,19.8,7.9c5.3,5.2,8.3,12.1,8.4,19.6c0.1,7.4-2.7,14.5-7.9,19.8c-10.7,11-28.4,11.3-39.4,0.6l0,0
					c-5.3-5.2-8.3-12.1-8.4-19.6c-0.1-7.4,2.7-14.5,7.9-19.8C-8.6-125.6-1.5-128.4,5.7-128.5z"/>
			</g>
		</g>
		<ellipse class="st3" cx="6" cy="-100.6" rx="18.2" ry="18.2"/>
		<g class="st4">
			<g>
				<path class="st8" d="M-11.3-113.4C-11.3-113.4-11.2-113.4-11.3-113.4L-11.3-113.4l14.4,1.5l14.3-1.9c0.4-0.1,0.7,0.2,0.8,0.6
					v0.1l0.1,9.8c2.1,2.2,2.2,5.7,0.3,8.1l5.2,5c0.3,0.2,0.3,0.7,0.1,0.9c-0.2,0.3-0.7,0.3-1,0.1c0,0,0,0-0.1-0.1l-4.4-4.3v3.3
					c0,0.3-0.2,0.6-0.6,0.7L3.4-87.7H3.2l-14.4-1.5c-0.3,0-0.6-0.3-0.6-0.7l-0.1-22.8C-12-113-11.7-113.3-11.3-113.4z M17.2-102.5
					L17.2-102.5c-2-1.9-5-1.9-6.9,0.1c-1.9,1.9-1.8,5,0.1,6.8c1.9,1.9,5,1.8,6.8-0.1C19.1-97.6,19.1-100.6,17.2-102.5z M4.1-89.1
					l13-1.8V-94c-2.9,1.8-6.7,1-8.5-1.9s-1-6.7,1.9-8.5c2-1.2,4.4-1.3,6.4-0.1l-0.1-7.9l-13,1.8L4.1-89.1z M-10.3-90.4L2.8-89
					l-0.3-21.5l-13.1-1.4L-10.3-90.4z"/>
				<path class="st8" d="M15.4-107L15.4-107L6-105.7H5.9c-0.4,0-0.7-0.2-0.7-0.6s0.3-0.7,0.6-0.7l9.4-1.3c0.4-0.1,0.7,0.2,0.8,0.6
					C16.1-107.4,15.8-107,15.4-107z"/>
				<path class="st8" d="M0.7-105.6L0.7-105.6l-9.5-1c-0.4,0-0.6-0.4-0.6-0.7c0-0.4,0.4-0.6,0.8-0.6l9.4,1c0.4,0,0.7,0.3,0.6,0.7
					C1.4-105.9,1.1-105.6,0.7-105.6z"/>
				<path class="st8" d="M0.8-99.9L0.8-99.9l-9.5-1c-0.4,0-0.6-0.4-0.6-0.7c0-0.4,0.4-0.6,0.8-0.6l9.4,1c0.4,0,0.7,0.3,0.6,0.7
					C1.5-100.2,1.2-99.9,0.8-99.9z"/>
				<path class="st8" d="M0.9-94.3L0.9-94.3l-9.5-1c-0.4,0-0.6-0.4-0.6-0.7c0-0.4,0.4-0.6,0.8-0.6l9.4,1c0.4,0,0.7,0.3,0.6,0.7
					C1.6-94.6,1.2-94.3,0.9-94.3z"/>
			</g>
		</g>
	</g>
	<g class="st0">
		<g class="st4">
			<ellipse class="st7" cx="3.3" cy="-430.6" rx="28.4" ry="28.4"/>
			<g>
				<path class="st8" d="M32.2-431.1c-0.1-7.7-3.2-14.9-8.7-20.3s-12.9-8.3-20.6-8.1c-7.7,0.1-14.9,3.2-20.3,8.7s-8.3,12.8-8.2,20.5
					c0.1,7.7,3.2,14.9,8.7,20.3s12.8,8.3,20.5,8.2c7.7-0.1,14.9-3.2,20.3-8.7C29.4-416.1,32.3-423.4,32.2-431.1z M-24.5-430.3
					c-0.1-7.4,2.7-14.5,7.9-19.8s12.1-8.3,19.6-8.4c7.4-0.1,14.5,2.7,19.8,7.9c5.3,5.2,8.3,12.1,8.4,19.6c0.1,7.4-2.7,14.5-7.9,19.8
					s-12.1,8.3-19.6,8.4c-7.4,0.1-14.5-2.7-19.8-7.9C-21.4-415.9-24.4-422.8-24.5-430.3z"/>
			</g>
		</g>
		
			<ellipse transform="matrix(9.900457e-03 -1 1 9.900457e-03 433.941 -423.1413)" class="st3" cx="3.3" cy="-430.7" rx="18.2" ry="18.2"/>
	</g>
	<g class="st0">
		
			<rect x="179.2" y="-104.3" transform="matrix(0.9999 -1.412220e-02 1.412220e-02 0.9999 1.4861 2.855)" class="st9" width="47.4" height="1"/>
	</g>
	<g class="st0">
		
			<rect x="176.9" y="-261.3" transform="matrix(0.9999 -1.412220e-02 1.412220e-02 0.9999 3.7031 2.8069)" class="st9" width="47.4" height="1"/>
	</g>
	<g class="st0">
		
			<rect x="174.6" y="-430.6" transform="matrix(0.9999 -1.412220e-02 1.412220e-02 0.9999 6.0937 2.7575)" class="st9" width="47.4" height="1"/>
	</g>
	<rect x="241.2" y="-300.8" class="st10" width="375.7" height="101.9"/>
	
		<text transform="matrix(1 0 0 1 241.2027 -283.7195)" style="display:none;enable-background:new    ; font-family:'ArialMT'; font-size:24px;">Host webinars and talks by esteemed </text>
	
		<text transform="matrix(1 0 0 1 241.2027 -254.9196)" style="display:none;enable-background:new    ; font-family:'ArialMT'; font-size:24px;">women professionals around the </text>
	
		<text transform="matrix(1 0 0 1 241.2027 -226.1195)" style="display:none;enable-background:new    ; font-family:'ArialMT'; font-size:24px;">world to inspire the youth </text>
	
		<text transform="matrix(1 0 0 1 214.2088 -479.0004)" style="display:none;enable-background:new    ; font-family:'Roboto-Regular'; font-size:39px;">Ensure proper representation of </text>
	
		<text transform="matrix(1 0 0 1 214.2088 -443.308)" style="display:none;enable-background:new    ; font-family:'Roboto-Regular'; font-size:39px;">women in the technical field and e</text>
	
		<text transform="matrix(1 0 0 1 657.2654 -443.308)" style="display:none;enable-background:new    ; font-family:'Roboto-Regular'; font-size:39px;">-</text>
	
		<text transform="matrix(1 0 0 1 214.2088 -407.6156)" style="display:none;enable-background:new    ; font-family:'Roboto-Regular'; font-size:39px;">courage them to take up leadership </text>
	
		<text transform="matrix(1 0 0 1 214.2088 -371.9232)" style="display:none;enable-background:new    ; font-family:'Roboto-Regular'; font-size:39px;">roles</text>
	<rect x="242.2" y="-139.8" class="st10" width="405.9" height="97.4"/>
	<g class="st1">
		<path class="st2" d="M701.1-49.7c-4.9-4.8-9-10.1-12.2-15.9c6.8,0.2,13.6-1.8,19.4-5.8c1.9,2.7,4,5.3,6.5,7.7
			c9.4,9.2,21.9,14.1,35,13.9s25.4-5.5,34.6-14.9l14,13.6c-12.8,13.2-30,20.6-48.3,20.8C731.6-30,714.2-36.9,701.1-49.7z"/>
		<path class="st2" d="M798.3-89.9l-0.1-9.8c-0.2-13.1-5.5-25.4-14.9-34.6s-21.8-14.1-35-13.9c-13.1,0.2-25.4,5.5-34.6,14.9
			c-2.4,2.4-4.4,5.1-6.2,7.9c-5.9-3.9-12.8-5.6-19.5-5.2c3.1-5.9,7-11.4,11.8-16.2c12.8-13.2,30-20.6,48.3-20.8
			c18.4-0.3,35.7,6.6,48.9,19.4c10.8,10.5,17.7,23.9,20,38.6l11.6-0.2l-0.1-10.4l26,19.8l-25.4,20.6L829-90.2L798.3-89.9z"/>
		
			<ellipse transform="matrix(0.4792 -0.8777 0.8777 0.4792 445.1227 554.2601)" class="st2" cx="689.6" cy="-98" rx="28.4" ry="28.4"/>
	</g>
	<g class="st1">
		<path class="st2" d="M698.8-206.5c-13.2-12.8-20.6-30-20.8-48.3c-0.3-18.4,6.6-35.7,19.4-48.9c8.7-9,19.4-15.2,31.2-18.4
			c-2.1,6.7-2,13.8,0.3,20.4c-6.5,2.5-12.5,6.4-17.5,11.6c-9.2,9.4-14.1,21.8-13.9,35c0.2,13.1,5.5,25.4,14.9,34.6
			s21.8,14.1,35,13.9c13.1-0.2,25.4-5.5,34.6-14.9l14,13.6c-12.8,13.2-30,20.6-48.3,20.8C729.4-186.8,712-193.7,698.8-206.5z"/>
		<path class="st2" d="M796.1-246.7l-0.1-9.8c-0.2-12.3-4.9-23.9-13.2-32.9c0.1-0.1,0.2-0.2,0.4-0.4c4.9-5.1,7.9-11.4,8.8-17.9
			c0.9,0.8,1.9,1.7,2.7,2.5c10.8,10.5,17.7,23.9,20,38.6l11.6-0.2l-0.1-10.4l26,19.8l-25.5,20.7l-0.1-10.4L796.1-246.7z"/>
		
			<ellipse transform="matrix(0.9999 -1.412220e-02 1.412220e-02 0.9999 4.4875 10.6975)" class="st2" cx="759.7" cy="-312.4" rx="28.4" ry="28.4"/>
	</g>
	<g class="st1">
		
			<ellipse transform="matrix(0.9999 -1.412219e-02 1.412219e-02 0.9999 6.1057 9.6494)" class="st2" cx="686.3" cy="-427.5" rx="28.4" ry="28.4"/>
		<path class="st2" d="M793.7-415.5l-0.1-9.8c-0.2-13.1-5.5-25.4-14.9-34.6s-21.8-14.1-35-13.9c-13.1,0.2-25.4,5.5-34.6,14.9
			c-1.5,1.5-2.8,3.1-4,4.7c-5.8-4.1-12.7-6.1-19.5-5.9c2.7-4.4,5.9-8.6,9.6-12.4c12.8-13.2,30-20.6,48.3-20.8
			c18.4-0.3,35.7,6.6,48.9,19.4c10.8,10.5,17.7,23.9,20,38.6l11.6-0.2l-0.1-10.4l26,19.8l-25.4,20.6l-0.1-10.4L793.7-415.5z"/>
		<path class="st2" d="M696.5-375.3c-6-5.8-10.8-12.6-14.3-19.9c6.8,0.9,13.9-0.5,20-3.9c2.2,3.6,4.8,6.9,7.8,9.8
			c9.4,9.2,21.8,14.1,35,13.9c13.1-0.2,25.4-5.5,34.6-14.9l14,13.6c-12.8,13.2-30,20.6-48.3,20.8C727-355.6,709.6-362.5,696.5-375.3
			z"/>
	</g>
	<g class="st0">
		<path class="st3" d="M695.7-49.6c-4.9-4.8-9-10.1-12.2-15.9c6.8,0.2,13.6-1.8,19.4-5.8c1.9,2.7,4,5.3,6.5,7.7
			c9.4,9.2,21.9,14.1,35,13.9s25.4-5.5,34.6-14.9L793-51c-12.8,13.2-30,20.6-48.3,20.8C726.2-29.9,708.9-36.8,695.7-49.6z"/>
		<path class="st3" d="M792.9-89.8l-0.1-9.8c-0.2-13.1-5.5-25.4-14.9-34.6s-21.8-14.1-35-13.9c-13.1,0.2-25.4,5.5-34.6,14.9
			c-2.4,2.4-4.4,5.1-6.2,7.9c-5.9-3.9-12.8-5.6-19.5-5.2c3.1-5.9,7-11.4,11.8-16.2c12.8-13.2,30-20.6,48.3-20.8
			c18.4-0.3,35.7,6.6,48.9,19.4c10.8,10.5,17.7,23.9,20,38.6l11.6-0.2l-0.1-10.4l26,19.8l-25.4,20.6l-0.1-10.4L792.9-89.8z"/>
	</g>
	<g class="st0">
		<path class="st3" d="M693.5-206.4c-13.2-12.8-20.6-30-20.8-48.3c-0.3-18.4,6.6-35.7,19.4-48.9c8.7-9,19.4-15.2,31.2-18.4
			c-2.1,6.7-2,13.8,0.3,20.4c-6.5,2.5-12.5,6.4-17.5,11.6c-9.2,9.4-14.1,21.8-13.9,35c0.2,13.1,5.5,25.4,14.9,34.6
			s21.8,14.1,35,13.9c13.1-0.2,25.4-5.5,34.6-14.9l14,13.6c-12.8,13.2-30,20.6-48.3,20.8C724-186.7,706.6-193.6,693.5-206.4z"/>
		<path class="st3" d="M790.7-246.6l-0.1-9.8c-0.2-12.3-4.9-23.9-13.2-32.9c0.1-0.1,0.2-0.2,0.4-0.4c4.9-5.1,7.9-11.4,8.8-17.9
			c0.9,0.8,1.9,1.7,2.7,2.5c10.8,10.5,17.7,23.9,20,38.6l11.6-0.2l-0.1-10.4l26,19.8l-25.4,20.6l-0.1-10.4L790.7-246.6z"/>
	</g>
	<g class="st0">
		<g class="st4">
			<path class="st5" d="M788.3-415.4l-0.1-9.8c-0.2-13.1-5.5-25.4-14.9-34.6s-21.8-14.1-35-13.9c-13.1,0.2-25.4,5.5-34.6,14.9
				c-1.5,1.5-2.8,3.1-4,4.7c-5.8-4.1-12.7-6.1-19.5-5.9c2.7-4.4,5.9-8.6,9.6-12.4c12.8-13.2,30-20.6,48.3-20.8
				c18.4-0.3,35.7,6.6,48.9,19.4c10.8,10.5,17.7,23.9,20,38.6l11.6-0.2l-0.1-10.4l26,19.8l-25.4,20.6l-0.1-10.4L788.3-415.4z"/>
			<path class="st6" d="M691.1-375.2c-6-5.8-10.8-12.6-14.3-19.9c6.8,0.9,13.9-0.5,20-3.9c2.2,3.6,4.8,6.9,7.8,9.8
				c9.4,9.2,21.8,14.1,35,13.9c13.1-0.2,25.4-5.5,34.6-14.9l14,13.6c-12.8,13.2-30,20.6-48.3,20.8
				C721.6-355.5,704.3-362.4,691.1-375.2z"/>
		</g>
	</g>
	<g class="st0">
		<g class="st4">
			<circle class="st7" cx="754.3" cy="-312.3" r="28.4"/>
			<g>
				<path class="st8" d="M754.8-283.5c7.4-0.1,14.7-3,20.3-8.7l0,0c11.1-11.4,10.8-29.7-0.6-40.8c-5.5-5.4-12.8-8.3-20.5-8.2l0,0
					c-7.7,0.1-14.9,3.2-20.3,8.7c-11.1,11.4-10.8,29.7,0.6,40.8C739.9-286.1,747.4-283.4,754.8-283.5z M774.3-292.9
					c-10.7,11-28.4,11.3-39.4,0.6c-11-10.7-11.3-28.4-0.6-39.4c5.2-5.3,12.1-8.3,19.6-8.4c7.4-0.1,14.5,2.7,19.8,7.9
					C784.8-321.6,785.1-303.9,774.3-292.9L774.3-292.9z"/>
			</g>
		</g>
		<circle class="st3" cx="754.3" cy="-312.3" r="18.2"/>
		<g class="st4">
			<g>
				<path class="st8" d="M749.6-318.4c3.8-0.1,6.1,1.8,6.2,5c0,0.4-0.3,0.6-0.7,0.6l-10.8,0.2c-0.4,0-0.7-0.3-0.7-0.6
					C743.5-316.4,745.8-318.4,749.6-318.4L749.6-318.4z M754.4-314.1c-0.5-2.9-3.8-3.1-4.8-3.1c-1.1,0-4.3,0.3-4.7,3.2L754.4-314.1z
					"/>
				<path class="st8" d="M749.5-325.1c1.7,0,3.1,1.3,3.1,3c0,1.9-1.6,3.3-3.5,3.1c-1.2-0.2-2.3-1.2-2.5-2.4
					C746.1-323.4,747.6-325.1,749.5-325.1L749.5-325.1z M749.5-320.3c1,0,1.8-0.8,1.7-1.8c0-1-0.8-1.8-1.8-1.7c-1,0-1.8,0.8-1.7,1.8
					C747.8-321.1,748.6-320.3,749.5-320.3L749.5-320.3z"/>
				<path class="st8" d="M760.6-307.3c3.8-0.1,6.1,1.8,6.2,5c0,0.4-0.3,0.6-0.7,0.6l-10.9,0.2c-0.4,0-0.7-0.3-0.7-0.6
					C754.6-305.3,756.9-307.3,760.6-307.3L760.6-307.3z M765.5-303c-0.5-2.9-3.8-3.1-4.8-3c-1.1,0-4.3,0.3-4.7,3.2L765.5-303z"/>
				<path class="st8" d="M760.5-314.1c2,0,3.6,1.9,3,4c-0.3,0.9-1,1.7-1.9,2c-2.1,0.7-4-0.8-4.1-2.8
					C757.5-312.7,758.8-314,760.5-314.1L760.5-314.1z M760.6-309.3c1,0,1.8-0.8,1.7-1.8c0-1-0.8-1.8-1.8-1.7c-1,0-1.8,0.8-1.7,1.8
					C758.8-310,759.6-309.2,760.6-309.3L760.6-309.3z"/>
			</g>
		</g>
	</g>
	
		<text transform="matrix(0.9999 -1.016941e-02 1.016941e-02 0.9999 717.0615 -411.7432)" class="st19" style="display:none;fill:#1D1D1B;enable-background:new    ; font-size:43.2651px;">04</text>
	
		<text transform="matrix(1 0 0 1 714.675 -240.2281)" class="st19" style="display:none;fill:#1D1D1B;enable-background:new    ; font-size:43.2714px;">05</text>
	
		<text transform="matrix(1 0 0 1 718.3654 -86.9891)" class="st19" style="display:none;fill:#1D1D1B;enable-background:new    ; font-size:43.2714px;">06</text>
	<g class="st0">
		<g class="st4">
			<circle class="st7" cx="680.9" cy="-427.4" r="28.4"/>
			<g>
				<path class="st8" d="M709.8-427.8c-0.1-7.4-3-14.7-8.7-20.3c-5.5-5.4-12.8-8.3-20.5-8.2c-7.7,0.1-14.9,3.2-20.3,8.7
					c-11.1,11.4-10.8,29.7,0.6,40.8c5.5,5.4,12.8,8.3,20.5,8.2c7.7-0.1,14.9-3.2,20.3-8.7C707.2-413,709.9-420.4,709.8-427.8z
					 M653.1-427c-0.1-7.1,2.5-14.3,7.9-19.8c5.2-5.3,12.1-8.3,19.6-8.4c7.4-0.1,14.5,2.7,19.8,7.9c11,10.7,11.3,28.4,0.6,39.4l0,0
					c-5.2,5.3-12.1,8.3-19.6,8.4c-7.4,0.1-14.5-2.7-19.8-7.9C656-412.8,653.2-419.9,653.1-427z"/>
			</g>
		</g>
		<circle class="st3" cx="680.9" cy="-427.4" r="18.2"/>
	</g>
	<g class="st0">
		<g class="st4">
			
				<ellipse transform="matrix(0.9212 -0.389 0.389 0.9212 92.0219 258.4727)" class="st7" cx="684.3" cy="-98" rx="28.4" ry="28.4"/>
			<g>
				<path class="st8" d="M713.2-98.5c-0.1-7.7-3.2-14.9-8.7-20.3s-12.8-8.3-20.5-8.2c-7.7,0.1-14.9,3.2-20.3,8.7s-8.3,12.8-8.2,20.5
					s3.2,14.9,8.7,20.3s12.8,8.3,20.5,8.2c7.7-0.1,14.9-3.2,20.3-8.7C710.4-83.4,713.3-90.7,713.2-98.5z M656.4-97.7
					c-0.1-7.4,2.7-14.5,7.9-19.8s12.1-8.3,19.6-8.4c7.4-0.1,14.5,2.7,19.8,7.9c5.3,5.2,8.3,12.1,8.4,19.6s-2.7,14.5-7.9,19.8
					s-12.1,8.3-19.6,8.4c-7.4,0.1-14.5-2.7-19.8-7.9C659.5-83.2,656.5-90.2,656.4-97.7z"/>
			</g>
		</g>
		<g class="st4">
			<g>
				<g>
					<g>
						<path class="st8" d="M681-439.4c4.8-0.1,8.7,3.7,8.7,8.5c0,3.1-1.5,6-4,7.9l0.1,6.2c0,0.1,0,0.1,0,0.2l0,0c0,0,0,0,0,0.1
							l-2.1,3.2c-0.1,0.2-0.3,0.3-0.5,0.3l-3.6,0.1c-0.2,0-0.4-0.1-0.5-0.3l-2.2-3.2c0,0,0,0,0-0.1l0,0c0-0.1,0-0.1,0-0.2l-0.1-6.2
							c-2.5-1.8-4.1-4.7-4.2-7.8C672.5-435.4,676.2-439.3,681-439.4L681-439.4z M679.9-414.2h2.9l1.3-2l-5.6,0.1L679.9-414.2z
							 M684.6-417.4v-1.6l-6.6,0.1v1.6L684.6-417.4z M677.6-423.8L677.6-423.8c0.2,0.1,0.3,0.3,0.3,0.5v3.1l6.6-0.1v-3.1
							c0-0.2,0.1-0.4,0.3-0.5c2.3-1.6,3.7-4.2,3.7-7c-0.2-4.1-3.6-7.2-7.7-7.1c-3.9,0.2-7,3.4-7.1,7.3
							C673.8-427.9,675.2-425.3,677.6-423.8L677.6-423.8z"/>
						<path class="st8" d="M680.8-436.6c0.3,0,0.6,0.3,0.6,0.6s-0.3,0.6-0.6,0.6c-2.5,0-4.6,2.1-4.5,4.7c0,0.3-0.3,0.6-0.6,0.6
							s-0.6-0.3-0.6-0.6C675-434,677.6-436.6,680.8-436.6L680.8-436.6z"/>
						<path class="st8" d="M691.3-431.6l4.4-0.1c0.3,0,0.6,0.3,0.6,0.6c0,0.3-0.3,0.6-0.6,0.6l-4.4,0.1c-0.3,0-0.6-0.3-0.6-0.6
							C690.7-431.3,691-431.6,691.3-431.6L691.3-431.6z"/>
						<path class="st8" d="M666.4-431.2l4.4-0.1c0.3,0,0.6,0.3,0.6,0.6c0,0.3-0.3,0.6-0.6,0.6l-4.4,0.1c-0.3,0-0.6-0.3-0.6-0.6
							C665.8-431,666.1-431.2,666.4-431.2L666.4-431.2z"/>
						<path class="st8" d="M687.9-424.1c0.2-0.3,0.6-0.3,0.9-0.1c0,0,0,0,0.1,0.1l0,0l3.2,3.1c0.3,0.2,0.3,0.6,0.1,0.9
							s-0.6,0.3-0.9,0.1c0,0,0,0-0.1-0.1l-3.2-3.1C687.7-423.5,687.7-423.9,687.9-424.1L687.9-424.1z"/>
						<path class="st8" d="M670.2-441.5c0.2-0.2,0.6-0.2,0.8,0l3.2,3.1c0.2,0.2,0.3,0.6,0,0.9c-0.1,0.1-0.3,0.2-0.4,0.2l0,0
							c-0.2,0-0.3-0.1-0.4-0.2l-3.2-3.1C669.9-440.9,670-441.3,670.2-441.5L670.2-441.5z"/>
						<path class="st8" d="M670.3-420.6l0.1-0.1l3.1-3.2c0.2-0.3,0.6-0.3,0.9-0.1c0.3,0.2,0.3,0.6,0.1,0.9c0,0,0,0-0.1,0.1l-3.1,3.2
							c-0.2,0.3-0.6,0.3-0.9,0.1C670.2-420,670.1-420.3,670.3-420.6L670.3-420.6z"/>
						<path class="st8" d="M687.8-438.6l3.1-3.2c0.3-0.2,0.6-0.2,0.9,0.1c0.2,0.2,0.2,0.6,0,0.8l-3.1,3.2c-0.3,0.2-0.6,0.2-0.9-0.1
							C687.6-438,687.6-438.4,687.8-438.6L687.8-438.6z"/>
						<path class="st8" d="M680.9-445.9c0.3,0,0.6,0.3,0.6,0.6l0.1,4.4c0,0.3-0.2,0.6-0.6,0.6l0,0c-0.3,0-0.6-0.3-0.6-0.6l-0.1-4.4
							C680.3-445.6,680.5-445.9,680.9-445.9L680.9-445.9z"/>
					</g>
				</g>
			</g>
		</g>
	</g>
	<g class="st0">
		
			<rect x="857.3" y="-101.3" transform="matrix(0.9999 -1.412220e-02 1.412220e-02 0.9999 1.5114 12.4316)" class="st9" width="47.4" height="1"/>
	</g>
	<g class="st0">
		
			<rect x="855.1" y="-258.3" transform="matrix(0.9999 -1.412220e-02 1.412220e-02 0.9999 3.7283 12.3849)" class="st9" width="47.4" height="1"/>
	</g>
	<g class="st0">
		
			<rect x="852.7" y="-427.6" transform="matrix(0.9999 -1.412220e-02 1.412220e-02 0.9999 6.119 12.3341)" class="st9" width="47.4" height="1"/>
	</g>
	<rect x="919.4" y="-297.8" class="st10" width="390.2" height="101.9"/>
	
		<text transform="matrix(1 0 0 1 919.3741 -280.7092)" style="display:none;enable-background:new    ; font-family:'ArialMT'; font-size:24px;">Conduct student teaching programs </text>
	
		<text transform="matrix(1 0 0 1 919.3741 -251.9092)" style="display:none;enable-background:new    ; font-family:'ArialMT'; font-size:24px;">and  give learning opportunity to </text>
	
		<text transform="matrix(1 0 0 1 919.3741 -223.1093)" style="display:none;enable-background:new    ; font-family:'ArialMT'; font-size:24px;">underprivileged girls and boys </text>
	<rect x="917" y="-468.2" class="st10" width="381.9" height="108.9"/>
	
		<text transform="matrix(1 0 0 1 917.0362 -451.1384)" style="display:none;enable-background:new    ; font-family:'ArialMT'; font-size:24px;">Conduct awareness campaigns and </text>
	
		<text transform="matrix(1 0 0 1 917.0362 -422.3384)" style="display:none;enable-background:new    ; font-family:'ArialMT'; font-size:24px;">cleanliness drives as part of our duty </text>
	
		<text transform="matrix(1 0 0 1 917.0362 -393.5385)" style="display:none;enable-background:new    ; font-family:'ArialMT'; font-size:24px;">towards the society and environment</text>
	<rect x="920.4" y="-152.5" class="st10" width="421.5" height="122.2"/>
	
		<text transform="matrix(1 0 0 1 920.419 -135.3862)" style="display:none;enable-background:new    ; font-family:'ArialMT'; font-size:24px;">Build a family of like-minded volunteers </text>
	
		<text transform="matrix(1 0 0 1 920.419 -106.5863)" style="display:none;enable-background:new    ; font-family:'ArialMT'; font-size:24px;">and members to work together for a </text>
	
		<text transform="matrix(1 0 0 1 920.419 -77.7862)" style="display:none;enable-background:new    ; font-family:'ArialMT'; font-size:24px;">social cause with their technical </text>
	
		<text transform="matrix(1 0 0 1 920.419 -48.9862)" style="display:none;enable-background:new    ; font-family:'ArialMT'; font-size:24px;">knowledge</text>
	<g id="XMLID_1_" class="st0">
		<g id="XMLID_10_" class="st4">
			<path class="st11" d="M3.8-442.6c1.7,0,2.8,0.5,3.6,1.2c1,1.1,1.3,2.8,1.3,4.7c0,1.5-0.5,2.9-1.3,4c-0.9,1.2-2.2,1.9-3.6,1.9
				c-2.7,0-4.9-2.6-4.9-5.9C-1.1-440-0.3-442.6,3.8-442.6 M3.8-443.3c-5,0-5.6,3.6-5.6,6.6c0,3.7,2.5,6.6,5.6,6.6
				c1.6,0,3.1-0.8,4.2-2.2c0.9-1.2,1.4-2.8,1.4-4.4c0-1.7-0.2-3.8-1.5-5.2C7-442.8,5.6-443.3,3.8-443.3L3.8-443.3z"/>
		</g>
		<g id="XMLID_3_" class="st4">
			<path class="st11" d="M6.5-430c0.3,0.1,0.6,0.1,0.9,0.2c4.8,1,5.5,2.8,5.6,8.1c0,0.3,0,0.4,0,0.4l0,0c0,0.1,0,0.2,0,0.4
				c0,0-0.9,1.8-5.6,2.5c-1,0.1-2.2,0.2-3.6,0.2c-7.8,0-9.2-2.7-9.2-2.7c0-0.3,0-0.5,0-0.6l0,0c0,0,0-0.1,0-0.4
				c0.1-5.5,0.9-7.1,6.5-8.1c0,0,0.8,1,2.7,1S6.5-430,6.5-430 M13-421.3L13-421.3 M6.5-430.8c-0.2,0-0.4,0.1-0.6,0.3
				c0,0-0.7,0.7-2.1,0.7s-2.1-0.7-2.1-0.7c-0.1-0.2-0.4-0.3-0.6-0.3H1c-6,1.1-7,3.1-7.1,8.9c0,0.2,0,0.3,0,0.3v0.1v0.6
				c0,0.1,0,0.2,0.1,0.3c0.2,0.3,1.8,3.1,9.8,3.1c1.3,0,2.5-0.1,3.7-0.2c4.9-0.7,6.1-2.7,6.2-2.9c0.1-0.1,0.1-0.2,0.1-0.3v-0.3v-0.1
				c0,0,0,0,0-0.1v-0.1c0-0.1,0-0.2,0-0.3c-0.1-5.7-1-7.7-6.2-8.9C7.2-430.7,6.9-430.7,6.5-430.8L6.5-430.8L6.5-430.8z"/>
		</g>
		<path class="st12" d="M8.1-432.6l3.3,1.1c1.8-3.9,1.3-8.2-1.1-10.9c-1.9-2.1-4.3-2.7-5.3-2.8c-1.4-0.1-3.3,0-5.2,1
			c-3.6,2.1-5.3,7.2-4.1,12.7c1.2-0.5,2.3-1.1,3.5-1.6"/>
	</g>
	<circle class="st13" cx="685" cy="-97.8" r="18.2"/>
	<path class="st14" d="M673.5-84.1c0.4-0.7,0.8-1.7,1.2-2.9c0.4-1.3,0.5-1.9,0.4-2.7c-0.1-0.6-0.3-1-1.7-2.7c-1.8-2.3-2-2.4-2.3-3
		c-0.4-0.8-0.7-2-0.4-3.8c0.4-1.5,0.7-3,1.1-4.4l5.8-8.3c0.3-0.6,0.9-0.8,1.5-0.6c0.6,0.2,0.8,0.9,0.6,1.5c-1.1,2-2.3,4-3.4,6
		c-0.1,0-0.7,0-1.1,0.4c-0.5,0.5-0.5,1-0.5,1.1c0,2.3,0,4.6-0.1,6.9"/>
	<path class="st14" d="M681.7-83.8l0.3-8.9c0-0.4-0.1-1.7-1-3c-1-1.3-2.3-1.7-2.7-1.8c-0.2-1.1-0.3-2-0.3-2.6
		c-0.1-1.8,0-2.5-0.5-3.5c-0.4-0.8-1-1.2-1.3-1.5"/>
	<path class="st14" d="M695.5-83.9c-0.4-0.7-0.8-1.7-1.2-2.9c-0.4-1.3-0.5-1.9-0.4-2.7c0.1-0.6,0.3-1,1.7-2.7c1.8-2.3,2-2.4,2.3-3
		c0.4-0.8,0.7-2,0.4-3.8c-0.4-1.5-0.7-3-1.1-4.4l-5.8-8.3c-0.3-0.6-0.9-0.8-1.5-0.6c-0.6,0.2-0.8,0.9-0.6,1.5c1.1,2,2.3,4,3.4,6
		c0.1,0,0.7,0,1.1,0.4c0.5,0.5,0.5,1,0.5,1.1c0,2.3,0,4.6,0.1,6.9"/>
	<path class="st14" d="M687.3-83.6l-0.3-8.9c0-0.4,0.1-1.7,1-3c1-1.3,2.3-1.7,2.7-1.8c0.2-1.1,0.3-2,0.3-2.6c0.1-1.8,0-2.5,0.5-3.5
		c0.4-0.8,1-1.2,1.3-1.5"/>
	<path class="st14" d="M685.1-98.5l-5-5.1c-0.7-1.3-0.5-2.8,0.4-3.7c1.1-1.1,3.2-1,4.4,0.3"/>
	<path class="st14" d="M684.6-107.1c1.2-1.4,3.3-1.4,4.4-0.3c0.9,0.9,1.1,2.4,0.4,3.7l-5,5.2"/>
	<polygon class="st15" points="684.7,-98.1 684.7,-98.2 684.7,-98.2 684.8,-98.2 	"/>
	
		<rect x="684.6" y="-106.9" transform="matrix(0.7071 -0.7071 0.7071 0.7071 276.0668 452.9565)" class="st15" width="0.4" height="0.3"/>
	<g class="st16">
		
			<ellipse transform="matrix(9.053446e-02 -0.9959 0.9959 9.053446e-02 -155.7131 299.2845)" class="st17" cx="86" cy="234.9" rx="29.8" ry="29.8"/>
		<path class="st17" d="M198.9,247.5l-0.1-10.3c-0.2-13.8-5.8-26.7-15.6-36.3s-22.9-14.8-36.7-14.6s-26.7,5.8-36.3,15.6
			c-1.5,1.5-3,3.2-4.3,5c-6.1-4.4-13.4-6.4-20.5-6.2c2.8-4.6,6.2-9.1,10.1-13.1c13.4-13.8,31.4-21.6,50.7-21.8
			c19.3-0.3,37.5,7,51.3,20.4c11.4,11,18.6,25.2,21,40.5l12.2-0.1l-0.1-11l27.3,20.8L231.2,258l-0.1-11L198.9,247.5z"/>
		<path class="st17" d="M96.7,289.7c-6.3-6.1-11.4-13.2-15-20.9c7.2,0.9,14.6-0.4,21-4.1c2.3,3.8,5,7.2,8.3,10.3
			c9.9,9.6,22.9,14.8,36.7,14.6s26.7-5.8,36.3-15.6l14.7,14.3C185.3,302,167.3,309.8,148,310C128.8,310.4,110.6,303.1,96.7,289.7z"
			/>
	</g>
	<g>
		<g>
			<path class="st18" d="M193.2,247.6l-0.1-10.3c-0.2-13.8-5.8-26.7-15.6-36.3c-9.9-9.6-22.9-14.8-36.7-14.6s-26.7,5.8-36.3,15.6
				c-1.5,1.5-3,3.2-4.3,5c-6.1-4.4-13.4-6.4-20.5-6.2c2.8-4.6,6.2-9.1,10.1-13.1c13.4-13.8,31.4-21.6,50.7-21.8
				c19.3-0.3,37.5,7,51.3,20.4c11.4,11,18.6,25.2,21,40.5l12.2-0.1l-0.1-11l27.3,20.8l-26.7,21.6l-0.1-11L193.2,247.6z"/>
			<path class="st18" d="M91.1,289.8c-6.3-6.1-11.4-13.2-15-20.9c7.2,0.9,14.6-0.4,21-4.1c2.3,3.8,5,7.2,8.3,10.3
				c9.9,9.6,22.9,14.8,36.7,14.6c13.8-0.2,26.7-5.8,36.3-15.6l14.7,14.3c-13.4,13.8-31.4,21.6-50.7,21.8
				C123.1,310.5,104.9,303.3,91.1,289.8z"/>
		</g>
	</g>
	<text transform="matrix(0.9999 -1.016941e-02 1.016941e-02 0.9999 118.374 251.3662)" class="st8 st19 st20 st21">01</text>
	<g>
		<g>
			<g class="st22">
				
					<image style="overflow:visible;enable-background:new    ;" width="633" height="265" xlink:href="D4EEC624.png"  transform="matrix(0.9981 0 0 0.9981 249.0877 114.1369)">
				</image>
				<g>
					<rect x="272.1" y="137.7" class="st18" width="562.7" height="194.5"/>
				</g>
			</g>
			<ellipse class="st7" cx="82.6" cy="234.9" rx="29.8" ry="29.8"/>
			<g>
				<path class="st8" d="M112.9,234.4c-0.1-8.1-3.4-15.6-9.2-21.3c-5.8-5.7-13.5-8.7-21.5-8.6c-8.1,0.1-15.6,3.4-21.3,9.2
					s-8.7,13.5-8.6,21.5c0.1,8.1,3.4,15.6,9.2,21.3s13.5,8.7,21.5,8.6c8.1-0.1,15.6-3.4,21.3-9.2C110,250.1,113,242.6,112.9,234.4z
					 M53.3,235.2c-0.1-7.8,2.8-15.2,8.3-20.8s12.8-8.8,20.6-8.9s15.2,2.8,20.8,8.3c5.6,5.5,8.8,12.8,8.9,20.6s-2.8,15.2-8.3,20.8
					S90.8,264,83,264.1s-15.2-2.8-20.8-8.3C56.6,250.4,53.4,243.1,53.3,235.2z"/>
			</g>
		</g>
		<circle class="st18" cx="82.6" cy="234.9" r="19.1"/>
	</g>
	<g class="st0">
		
			<rect x="312.8" y="-262.1" transform="matrix(0.9999 -1.412220e-02 1.412220e-02 0.9999 3.7261 4.868)" class="st9" width="67.5" height="1.4"/>
	</g>
	<g id="XMLID_2_">
		<g id="XMLID_7_">
			<path class="st7" d="M82.6,222.1c1.8,0,3,0.5,3.8,1.3c1.1,1.1,1.3,2.9,1.3,4.9c0,1.6-0.5,3.1-1.3,4.2c-1,1.3-2.3,2-3.8,2
				c-2.8,0-5.1-2.8-5.1-6.2C77.5,224.9,78.3,222.1,82.6,222.1 M82.6,221.6c-5,0-5.7,3.4-5.7,6.7c0,3.7,2.5,6.7,5.7,6.7
				c1.6,0,3.1-0.8,4.2-2.2c1-1.3,1.5-2.9,1.5-4.5c0-1.8-0.1-3.9-1.5-5.3C85.9,222,84.5,221.6,82.6,221.6L82.6,221.6z"/>
		</g>
		<g id="XMLID_5_">
			<path class="st7" d="M85.4,235.2c0.4,0.1,0.7,0.1,1,0.2c5.1,1.1,5.8,3,5.9,8.6c0,0.3,0,0.4,0,0.4l0,0c0,0.1,0,0.2,0,0.4
				c0,0-1,1.9-5.9,2.6c-1,0.1-2.3,0.2-3.8,0.2c-8.2,0-9.7-2.9-9.7-2.9c0-0.4,0-0.5,0-0.6l0,0c0,0,0-0.1,0-0.4c0.1-5.8,1-7.4,6.8-8.6
				c0,0,0.8,1,2.8,1C84.6,236.4,85.4,235.2,85.4,235.2 M92.3,244.4L92.3,244.4 M85.4,234.7c-0.1,0-0.3,0.1-0.4,0.2
				c0,0.1-0.7,0.9-2.4,0.9s-2.4-0.8-2.4-0.9c-0.1-0.1-0.3-0.2-0.4-0.2h-0.1c-6.2,1.1-7.2,3-7.3,9.1c0,0.2,0,0.3,0,0.4v0.1v0.6
				c0,0.1,0,0.1,0.1,0.2c0.1,0.1,1.7,3.2,10.1,3.2c1.4,0,2.7-0.1,3.8-0.2c5.1-0.7,6.2-2.7,6.3-3c0.1-0.1,0.1-0.1,0.1-0.2v-0.3v-0.1
				c0,0,0,0,0-0.1v-0.1c0-0.1,0-0.1,0-0.4c-0.1-5.9-1-7.9-6.3-9.1C86.1,234.8,85.8,234.7,85.4,234.7
				C85.5,234.7,85.5,234.7,85.4,234.7L85.4,234.7z"/>
		</g>
		<path class="st23" d="M87.1,232.6l3.5,1.2c1.8-4.1,1.4-8.6-1.2-11.4c-1.9-2.2-4.5-2.8-5.5-3c-1.5-0.1-3.5,0-5.5,1.1
			c-3.8,2.2-5.6,7.6-4.3,13.4c1.3-0.5,2.4-1.1,3.7-1.6"/>
	</g>
	<rect x="277.4" y="153.3" class="st24" width="552" height="185"/>
	<text transform="matrix(1 0 0 1 277.4122 180.6716)" class="st25 st26">Ensure proper representation </text>
	<text transform="matrix(1 0 0 1 277.4122 223.8716)" class="st25 st26">of women in the technical field </text>
	<text transform="matrix(1 0 0 1 277.4122 267.0716)" class="st25 st26">and encourage them to take up </text>
	<text transform="matrix(1 0 0 1 277.4122 310.2716)" class="st25 st26">leadership roles.</text>
</g>
</svg>
