<?xml version="1.0" encoding="utf-8"?>
<!-- Generator: Adobe Illustrator 24.2.0, SVG Export Plug-In . SVG Version: 6.00 Build 0)  -->
<svg version="1.1" id="Layer_1" xmlns="http://www.w3.org/2000/svg" xmlns:xlink="http://www.w3.org/1999/xlink" x="0px" y="0px"
	 viewBox="0 0 1009.8 517.4" style="enable-background:new 0 0 1009.8 517.4;" xml:space="preserve">
<style type="text/css">
	.st0{display:none;}
	.st1{display:none;opacity:0.24;}
	.st2{display:inline;fill:#7A7A7A;}
	.st3{display:inline;fill:#FFE52C;}
	.st4{display:inline;}
	.st5{fill:#FFE52C;}
	.st6{fill:#EFDF4B;}
	.st7{fill:#FFFFFF;}
	.st8{fill:#1D1D1B;}
	.st9{display:none;fill:#1D1D1B;enable-background:new    ;}
	.st10{font-family:'Montserrat-Bold';}
	.st11{font-size:43.2672px;}
	.st12{font-size:43.2714px;}
	.st13{display:inline;fill:#FFFFFF;}
	.st14{display:none;fill:#FFE52C;}
	.st15{display:inline;fill:#1D1D1B;}
	.st16{fill:#231F20;}
	
		.st17{display:inline;fill:none;stroke:#231F20;stroke-width:0.75;stroke-linecap:round;stroke-linejoin:round;stroke-miterlimit:10;}
	.st18{opacity:0.24;}
	.st19{fill:#7A7A7A;}
	.st20{fill:#752F8B;}
	.st21{font-size:42.2921px;}
	.st22{letter-spacing:1;}
	.st23{opacity:0.33;enable-background:new    ;}
	.st24{display:none;fill:#FFFFFF;}
	.st25{display:none;fill:none;stroke:#FFFFFF;stroke-miterlimit:10;}
	.st26{display:none;fill:none;stroke:#FFFFFF;stroke-width:0.75;stroke-linecap:round;stroke-linejoin:round;stroke-miterlimit:10;}
	.st27{fill:none;}
	.st28{font-family:'OpenSans-SemiBold';}
	.st29{font-size:36px;}
</style>
<g id="BACKGROUND" class="st0">
</g>
<g id="OBJECTS">
	<g class="st1">
		<path class="st2" d="M110.3,471.3c-4.9-4.8-9-10.1-12.2-15.9c6.8,0.2,13.6-1.8,19.4-5.8c1.9,2.7,4,5.3,6.5,7.7
			c9.4,9.2,21.9,14.1,35,13.9s25.4-5.5,34.6-14.9l14,13.6c-12.8,13.2-30,20.6-48.3,20.8C140.8,491,123.5,484.1,110.3,471.3z"/>
		<path class="st2" d="M207.6,431.1l-0.1-9.8c-0.2-13.1-5.5-25.4-14.9-34.6s-21.8-14.1-35-13.9c-13.1,0.2-25.4,5.5-34.6,14.9
			c-2.4,2.4-4.4,5.1-6.2,7.9c-5.9-3.9-12.8-5.6-19.5-5.2c3.1-5.9,7-11.4,11.8-16.2c12.8-13.2,30-20.6,48.3-20.8
			c18.4-0.3,35.7,6.6,48.9,19.4c10.8,10.5,17.7,23.9,20,38.6l11.6-0.2l-0.1-10.4l26,19.8l-25.4,20.6l-0.1-10.4L207.6,431.1z"/>
		<ellipse class="st2" cx="98.9" cy="422.9" rx="28.4" ry="28.4"/>
	</g>
	<g class="st1">
		<path class="st2" d="M108.1,314.5c-13.2-12.8-20.6-30-20.8-48.3c-0.3-18.4,6.6-35.7,19.4-48.9c8.7-9,19.4-15.2,31.2-18.4
			c-2.1,6.7-2,13.8,0.3,20.4c-6.5,2.5-12.5,6.4-17.5,11.6c-9.2,9.4-14.1,21.8-13.9,35c0.2,13.1,5.5,25.4,14.9,34.6
			s21.8,14.1,35,13.9c13.1-0.2,25.4-5.5,34.6-14.9l14,13.6c-12.8,13.2-30,20.6-48.3,20.8C138.6,334.2,121.3,327.3,108.1,314.5z"/>
		<path class="st2" d="M205.3,274.3l-0.1-9.8c-0.2-12.3-4.9-23.9-13.2-32.9c0.1-0.1,0.2-0.2,0.4-0.4c4.9-5.1,7.9-11.4,8.8-17.9
			c0.9,0.8,1.9,1.7,2.7,2.5c10.8,10.5,17.7,23.9,20,38.6l11.6-0.2l-0.1-10.4l26,19.8L236,284.3l-0.1-10.4L205.3,274.3z"/>
		<ellipse class="st2" cx="169" cy="208.6" rx="28.4" ry="28.4"/>
	</g>
	<g class="st1">
		<ellipse class="st2" cx="95.5" cy="93.5" rx="28.4" ry="28.4"/>
		<path class="st2" d="M203,105.5l-0.1-9.8c-0.2-13.1-5.5-25.4-14.9-34.6S166.2,47,153,47.2c-13.1,0.2-25.4,5.5-34.6,14.9
			c-1.5,1.5-2.8,3.1-4,4.7c-5.8-4.1-12.7-6.1-19.5-5.9c2.7-4.4,5.9-8.6,9.6-12.4c12.8-13.2,30-20.6,48.3-20.8
			c18.4-0.3,35.7,6.6,48.9,19.4c10.8,10.5,17.7,23.9,20,38.6l11.6-0.2L233,75.1l26,19.8l-25.4,20.6l-0.1-10.4L203,105.5z"/>
		<path class="st2" d="M105.7,145.7c-6-5.8-10.8-12.6-14.3-19.9c6.8,0.9,13.9-0.5,20-3.9c2.2,3.6,4.8,6.9,7.8,9.8
			c9.4,9.2,21.8,14.1,35,13.9c13.1-0.2,25.4-5.5,34.6-14.9l14,13.6c-12.8,13.2-30,20.6-48.3,20.8
			C136.2,165.4,118.9,158.5,105.7,145.7z"/>
	</g>
	<g class="st0">
		<path class="st3" d="M105,471.4c-4.9-4.8-9-10.1-12.2-15.9c6.8,0.2,13.6-1.8,19.4-5.8c1.9,2.7,4,5.3,6.5,7.7
			c9.4,9.2,21.9,14.1,35,13.9c13.1-0.2,25.4-5.5,34.6-14.9l14,13.6c-12.8,13.2-30,20.6-48.3,20.8C135.5,491.1,118.1,484.2,105,471.4
			z"/>
		<path class="st3" d="M202.2,431.2l-0.1-9.8c-0.2-13.1-5.5-25.4-14.9-34.6s-21.8-14.1-35-13.9c-13.1,0.2-25.4,5.5-34.6,14.9
			c-2.4,2.4-4.4,5.1-6.2,7.9c-5.9-3.9-12.8-5.6-19.5-5.2c3.1-5.9,7-11.4,11.8-16.2c12.8-13.2,30-20.6,48.3-20.8
			c18.4-0.3,35.7,6.6,48.9,19.4c10.8,10.5,17.7,23.9,20,38.6l11.6-0.2l-0.1-10.4l26,19.8L233,441.3l-0.1-10.4L202.2,431.2z"/>
	</g>
	<g class="st0">
		<path class="st3" d="M102.7,314.6c-13.2-12.8-20.6-30-20.8-48.3c-0.3-18.4,6.6-35.7,19.4-48.9c8.7-9,19.4-15.2,31.2-18.4
			c-2.1,6.7-2,13.8,0.3,20.4c-6.5,2.5-12.5,6.4-17.5,11.6c-9.2,9.4-14.1,21.8-13.9,35c0.2,13.1,5.5,25.4,14.9,34.6
			s21.8,14.1,35,13.9c13.1-0.2,25.4-5.5,34.6-14.9l14,13.6c-12.8,13.2-30,20.6-48.3,20.8C133.3,334.3,115.9,327.3,102.7,314.6z"/>
		<path class="st3" d="M200,274.3l-0.1-9.8c-0.2-12.3-4.9-23.9-13.2-32.9c0.1-0.1,0.2-0.2,0.4-0.4c4.9-5.1,7.9-11.4,8.8-17.9
			c0.9,0.8,1.9,1.7,2.7,2.5c10.8,10.5,17.7,23.9,20,38.6l11.6-0.2l-0.1-10.4l26,19.8l-25.5,20.7l-0.1-10.4L200,274.3z"/>
	</g>
	<g class="st0">
		<g class="st4">
			<path class="st5" d="M197.6,105.6l-0.1-9.8c-0.2-13.1-5.5-25.4-14.9-34.6s-21.8-14.1-35-13.9c-13.2,0.2-25.5,5.5-34.6,14.9
				c-1.5,1.5-2.8,3.1-4,4.7c-5.8-4.1-12.7-6.1-19.5-5.9c2.7-4.4,5.9-8.6,9.6-12.4c12.8-13.2,30-20.6,48.3-20.8
				c18.4-0.3,35.7,6.6,48.9,19.4c10.8,10.5,17.7,23.9,20,38.6l11.6-0.2l-0.1-10.4l26,19.8l-25.4,20.6l-0.1-10.4L197.6,105.6z"/>
			<path class="st6" d="M100.4,145.8c-6-5.8-10.8-12.6-14.3-19.9c6.8,0.9,13.9-0.5,20-3.9c2.2,3.6,4.8,6.9,7.8,9.8
				c9.4,9.2,21.8,14.1,35,13.9c13.1-0.2,25.4-5.5,34.6-14.9l14,13.6c-12.8,13.2-30,20.6-48.3,20.8
				C130.9,165.5,113.5,158.6,100.4,145.8z"/>
		</g>
	</g>
	<g class="st0">
		<g class="st4">
			<circle class="st7" cx="163.6" cy="208.7" r="28.4"/>
			<g>
				<path class="st8" d="M164,237.5c7.4-0.1,14.7-3,20.3-8.7l0,0c11.1-11.4,10.8-29.7-0.6-40.8c-5.5-5.4-12.8-8.3-20.5-8.2l0,0
					c-7.7,0.1-14.9,3.2-20.3,8.7c-11.1,11.4-10.8,29.7,0.6,40.8C149.2,234.9,156.6,237.6,164,237.5z M183.6,228.1
					c-10.7,11-28.4,11.3-39.4,0.6s-11.3-28.4-0.6-39.4c5.2-5.3,12.1-8.3,19.6-8.4c7.4-0.1,14.5,2.7,19.8,7.9
					C194.1,199.4,194.3,217.1,183.6,228.1L183.6,228.1z"/>
			</g>
		</g>
		<circle class="st3" cx="163.6" cy="208.7" r="18.2"/>
	</g>
	<text transform="matrix(0.9999 -1.016892e-02 1.016892e-02 0.9999 126.372 109.233)" class="st9 st10 st11">01</text>
	<text transform="matrix(1 0 0 1 123.9864 280.7477)" class="st9 st10 st12">02</text>
	<text transform="matrix(1 0 0 1 127.6768 433.9867)" class="st9 st10 st12">03</text>
	<g>
		<g class="st0">
			<circle class="st13" cx="93.4" cy="423.4" r="28.4"/>
			<g class="st4">
				<path class="st8" d="M93.9,452.2c7.4-0.1,14.7-3,20.3-8.7c5.4-5.5,8.3-12.8,8.2-20.5c-0.1-7.7-3.2-14.9-8.7-20.3
					c-11.4-11.1-29.7-10.8-40.8,0.6c-5.4,5.5-8.3,12.8-8.2,20.5c0.1,7.7,3.2,14.9,8.7,20.3C79,449.6,86.5,452.3,93.9,452.2z
					 M93.1,395.5c7.1-0.1,14.3,2.5,19.8,7.9c5.3,5.2,8.3,12.1,8.4,19.6c0.1,7.4-2.7,14.5-7.9,19.8c-10.7,11-28.4,11.3-39.4,0.6l0,0
					c-5.3-5.2-8.3-12.1-8.4-19.6c-0.1-7.4,2.7-14.5,7.9-19.8C78.8,398.4,85.9,395.6,93.1,395.5z"/>
			</g>
		</g>
		
			<ellipse transform="matrix(0.9939 -0.1104 0.1104 0.9939 -46.1894 12.9082)" class="st14" cx="93.4" cy="423.4" rx="18.2" ry="18.2"/>
	</g>
	<g class="st0">
		<g class="st4">
			<ellipse class="st7" cx="90.7" cy="93.3" rx="28.4" ry="28.4"/>
			<g>
				<path class="st8" d="M119.6,92.9c-0.1-7.7-3.2-14.9-8.7-20.3c-5.5-5.4-12.9-8.3-20.6-8.1c-7.7,0.1-14.9,3.2-20.3,8.7
					S61.7,86,61.8,93.7s3.2,14.9,8.7,20.3s12.8,8.3,20.5,8.2c7.7-0.1,14.9-3.2,20.3-8.7C116.8,107.9,119.7,100.6,119.6,92.9z
					 M62.9,93.7c-0.1-7.4,2.7-14.5,7.9-19.8c5.2-5.3,12.1-8.3,19.6-8.4c7.4-0.1,14.5,2.7,19.8,7.9c5.3,5.2,8.3,12.1,8.4,19.6
					c0.1,7.4-2.7,14.5-7.9,19.8c-5.2,5.3-12.1,8.3-19.6,8.4c-7.4,0.1-14.5-2.7-19.8-7.9C66,108.1,63,101.2,62.9,93.7z"/>
			</g>
		</g>
		<circle class="st3" cx="90.7" cy="93.3" r="18.2"/>
	</g>
	<g class="st0">
		
			<rect x="266.6" y="419.7" transform="matrix(0.9999 -1.412220e-02 1.412220e-02 0.9999 -5.9056 4.1421)" class="st15" width="47.4" height="1"/>
	</g>
	<g class="st0">
		
			<rect x="264.3" y="262.7" transform="matrix(0.9999 -1.412220e-02 1.412220e-02 0.9999 -3.6887 4.094)" class="st15" width="47.4" height="1"/>
	</g>
	<g class="st0">
		
			<rect x="262" y="93.4" transform="matrix(0.9999 -1.412220e-02 1.412220e-02 0.9999 -1.298 4.0446)" class="st15" width="47.4" height="1"/>
	</g>
	<g class="st1">
		<path class="st2" d="M788.5,474.3c-4.9-4.8-9-10.1-12.2-15.9c6.8,0.2,13.6-1.8,19.4-5.8c1.9,2.7,4,5.3,6.5,7.7
			c9.4,9.2,21.9,14.1,35,13.9s25.4-5.5,34.6-14.9l14,13.6c-12.8,13.2-30,20.6-48.3,20.8C819,494,801.6,487.1,788.5,474.3z"/>
		<path class="st2" d="M885.7,434.1l-0.1-9.8c-0.2-13.1-5.5-25.4-14.9-34.6s-21.8-14.1-35-13.9c-13.1,0.2-25.4,5.5-34.6,14.9
			c-2.4,2.4-4.4,5.1-6.2,7.9c-5.9-3.9-12.8-5.6-19.5-5.2c3.1-5.9,7-11.4,11.8-16.2c12.8-13.2,30-20.6,48.3-20.8
			c18.4-0.3,35.7,6.6,48.9,19.4c10.8,10.5,17.7,23.9,20,38.6l11.6-0.2l-0.1-10.4l26,19.8l-25.4,20.6l-0.1-10.4L885.7,434.1z"/>
		<ellipse transform="matrix(0.4792 -0.8777 0.8777 0.4792 30.7956 903.8517)" class="st2" cx="777" cy="426" rx="28.4" ry="28.4"/>
	</g>
	<g class="st1">
		<path class="st2" d="M786.2,317.5c-13.2-12.8-20.6-30-20.8-48.3c-0.3-18.4,6.6-35.7,19.4-48.9c8.7-9,19.4-15.2,31.2-18.4
			c-2.1,6.7-2,13.8,0.3,20.4c-6.5,2.5-12.5,6.4-17.5,11.6c-9.2,9.4-14.1,21.8-13.9,35c0.2,13.1,5.5,25.4,14.9,34.6
			s21.8,14.1,35,13.9c13.1-0.2,25.4-5.5,34.6-14.9l14,13.6c-12.8,13.2-30,20.6-48.3,20.8C816.8,337.2,799.4,330.3,786.2,317.5z"/>
		<path class="st2" d="M883.5,277.3l-0.1-9.8c-0.2-12.3-4.9-23.9-13.2-32.9c0.1-0.1,0.2-0.2,0.4-0.4c4.9-5.1,7.9-11.4,8.8-17.9
			c0.9,0.8,1.9,1.7,2.7,2.5c10.8,10.5,17.7,23.9,20,38.6l11.6-0.2l-0.1-10.4l26,19.8l-25.5,20.7l-0.1-10.4L883.5,277.3z"/>
		
			<ellipse transform="matrix(0.9999 -1.412218e-02 1.412218e-02 0.9999 -2.9042 11.9845)" class="st2" cx="847.1" cy="211.6" rx="28.4" ry="28.4"/>
	</g>
	<g class="st1">
		
			<ellipse transform="matrix(0.9999 -1.412222e-02 1.412222e-02 0.9999 -1.2861 10.9365)" class="st2" cx="773.7" cy="96.5" rx="28.4" ry="28.4"/>
		<path class="st2" d="M881.1,108.5l-0.1-9.8c-0.2-13.1-5.5-25.4-14.9-34.6s-21.8-14.1-35-13.9c-13.1,0.2-25.4,5.5-34.6,14.9
			c-1.5,1.5-2.8,3.1-4,4.7c-5.8-4.1-12.7-6.1-19.5-5.9c2.7-4.4,5.9-8.6,9.6-12.4c12.8-13.2,30-20.6,48.3-20.8
			c18.4-0.3,35.7,6.6,48.9,19.4c10.8,10.5,17.7,23.9,20,38.6l11.6-0.2l-0.1-10.4l26,19.8l-25.4,20.6l-0.1-10.4L881.1,108.5z"/>
		<path class="st2" d="M783.9,148.7c-6-5.8-10.8-12.6-14.3-19.9c6.8,0.9,13.9-0.5,20-3.9c2.2,3.6,4.8,6.9,7.8,9.8
			c9.4,9.2,21.8,14.1,35,13.9c13.1-0.2,25.4-5.5,34.6-14.9l14,13.6c-12.8,13.2-30,20.6-48.3,20.8C814.4,168.4,797,161.5,783.9,148.7
			z"/>
	</g>
	<g class="st0">
		<path class="st3" d="M783.1,474.4c-4.9-4.8-9-10.1-12.2-15.9c6.8,0.2,13.6-1.8,19.4-5.8c1.9,2.7,4,5.3,6.5,7.7
			c9.4,9.2,21.9,14.1,35,13.9s25.4-5.5,34.6-14.9l14,13.6c-12.8,13.2-30,20.6-48.3,20.8C813.6,494.1,796.3,487.2,783.1,474.4z"/>
		<path class="st3" d="M880.3,434.2l-0.1-9.8c-0.2-13.1-5.5-25.4-14.9-34.6s-21.8-14.1-35-13.9c-13.1,0.2-25.4,5.5-34.6,14.9
			c-2.4,2.4-4.4,5.1-6.2,7.9c-5.9-3.9-12.8-5.6-19.5-5.2c3.1-5.9,7-11.4,11.8-16.2c12.8-13.2,30-20.6,48.3-20.8
			c18.4-0.3,35.7,6.6,48.9,19.4c10.8,10.5,17.7,23.9,20,38.6l11.6-0.2l-0.1-10.4l26,19.8l-25.4,20.6l-0.1-10.4L880.3,434.2z"/>
	</g>
	<g class="st0">
		<path class="st3" d="M780.9,317.6c-13.2-12.8-20.6-30-20.8-48.3c-0.3-18.4,6.6-35.7,19.4-48.9c8.7-9,19.4-15.2,31.2-18.4
			c-2.1,6.7-2,13.8,0.3,20.4c-6.5,2.5-12.5,6.4-17.5,11.6c-9.2,9.4-14.1,21.8-13.9,35c0.2,13.1,5.5,25.4,14.9,34.6
			s21.8,14.1,35,13.9c13.1-0.2,25.4-5.5,34.6-14.9l14,13.6c-12.8,13.2-30,20.6-48.3,20.8C811.4,337.3,794,330.4,780.9,317.6z"/>
		<path class="st3" d="M878.1,277.4l-0.1-9.8c-0.2-12.3-4.9-23.9-13.2-32.9c0.1-0.1,0.2-0.2,0.4-0.4c4.9-5.1,7.9-11.4,8.8-17.9
			c0.9,0.8,1.9,1.7,2.7,2.5c10.8,10.5,17.7,23.9,20,38.6l11.6-0.2l-0.1-10.4l26,19.8l-25.4,20.6l-0.1-10.4L878.1,277.4z"/>
	</g>
	<g class="st0">
		<g class="st4">
			<path class="st5" d="M875.7,108.6l-0.1-9.8c-0.2-13.1-5.5-25.4-14.9-34.6s-21.8-14.1-35-13.9c-13.1,0.2-25.4,5.5-34.6,14.9
				c-1.5,1.5-2.8,3.1-4,4.7c-5.8-4.1-12.7-6.1-19.5-5.9c2.7-4.4,5.9-8.6,9.6-12.4c12.8-13.2,30-20.6,48.3-20.8
				c18.4-0.3,35.7,6.6,48.9,19.4c10.8,10.5,17.7,23.9,20,38.6l11.6-0.2l-0.1-10.4l26,19.8l-25.4,20.6l-0.1-10.4L875.7,108.6z"/>
			<path class="st6" d="M778.5,148.8c-6-5.8-10.8-12.6-14.3-19.9c6.8,0.9,13.9-0.5,20-3.9c2.2,3.6,4.8,6.9,7.8,9.8
				c9.4,9.2,21.8,14.1,35,13.9c13.1-0.2,25.4-5.5,34.6-14.9l14,13.6c-12.8,13.2-30,20.6-48.3,20.8
				C809,168.5,791.7,161.6,778.5,148.8z"/>
		</g>
	</g>
	<g class="st0">
		<g class="st4">
			<circle class="st7" cx="841.7" cy="211.7" r="28.4"/>
			<g>
				<path class="st8" d="M842.2,240.5c7.4-0.1,14.7-3,20.3-8.7l0,0c11.1-11.4,10.8-29.7-0.6-40.8c-5.5-5.4-12.8-8.3-20.5-8.2l0,0
					c-7.7,0.1-14.9,3.2-20.3,8.7c-11.1,11.4-10.8,29.7,0.6,40.8C827.3,237.9,834.8,240.6,842.2,240.5z M861.7,231.1
					c-10.7,11-28.4,11.3-39.4,0.6s-11.3-28.4-0.6-39.4c5.2-5.3,12.1-8.3,19.6-8.4c7.4-0.1,14.5,2.7,19.8,7.9
					C872.2,202.4,872.5,220.1,861.7,231.1L861.7,231.1z"/>
			</g>
		</g>
		<circle class="st3" cx="841.7" cy="211.7" r="18.2"/>
	</g>
	<text transform="matrix(0.9999 -1.016892e-02 1.016892e-02 0.9999 804.5046 112.243)" class="st9 st10 st11">04</text>
	<text transform="matrix(1 0 0 1 802.1188 283.758)" class="st9 st10 st12">05</text>
	<g class="st0">
		<g class="st4">
			<circle class="st7" cx="768.3" cy="96.6" r="28.4"/>
			<g>
				<path class="st8" d="M797.2,96.2c-0.1-7.4-3-14.7-8.7-20.3c-5.5-5.4-12.8-8.3-20.5-8.2s-14.9,3.2-20.3,8.7
					c-11.1,11.4-10.8,29.7,0.6,40.8c5.5,5.4,12.8,8.3,20.5,8.2c7.7-0.1,14.9-3.2,20.3-8.7C794.6,111,797.3,103.6,797.2,96.2z
					 M740.5,97c-0.1-7.1,2.5-14.3,7.9-19.8c5.2-5.3,12.1-8.3,19.6-8.4c7.4-0.1,14.5,2.7,19.8,7.9c11,10.7,11.3,28.4,0.6,39.4l0,0
					c-5.2,5.3-12.1,8.3-19.6,8.4c-7.4,0.1-14.5-2.7-19.8-7.9C743.4,111.2,740.6,104.1,740.5,97z"/>
			</g>
		</g>
		<circle class="st3" cx="768.3" cy="96.6" r="18.2"/>
	</g>
	<g class="st0">
		<g class="st4">
			
				<ellipse transform="matrix(0.9212 -0.389 0.389 0.9212 -104.942 333.7648)" class="st7" cx="771.7" cy="426" rx="28.4" ry="28.4"/>
			<g>
				<path class="st8" d="M800.6,425.5c-0.1-7.7-3.2-14.9-8.7-20.3s-12.8-8.3-20.5-8.2c-7.7,0.1-14.9,3.2-20.3,8.7
					s-8.3,12.8-8.2,20.5s3.2,14.9,8.7,20.3s12.8,8.3,20.5,8.2c7.7-0.1,14.9-3.2,20.3-8.7C797.8,440.6,800.7,433.3,800.6,425.5z
					 M743.8,426.3c-0.1-7.4,2.7-14.5,7.9-19.8s12.1-8.3,19.6-8.4c7.4-0.1,14.5,2.7,19.8,7.9c5.3,5.2,8.3,12.1,8.4,19.6
					s-2.7,14.5-7.9,19.8s-12.1,8.3-19.6,8.4c-7.4,0.1-14.5-2.7-19.8-7.9C746.9,440.8,743.9,433.8,743.8,426.3z"/>
			</g>
		</g>
	</g>
	<g class="st0">
		
			<rect x="944.7" y="422.7" transform="matrix(0.9999 -1.412220e-02 1.412220e-02 0.9999 -5.8804 13.7187)" class="st15" width="47.4" height="1"/>
	</g>
	<g class="st0">
		
			<rect x="942.5" y="265.7" transform="matrix(0.9999 -1.412220e-02 1.412220e-02 0.9999 -3.6634 13.6719)" class="st15" width="47.4" height="1"/>
	</g>
	<g class="st0">
		
			<rect x="940.1" y="96.4" transform="matrix(0.9999 -1.412220e-02 1.412220e-02 0.9999 -1.2728 13.6212)" class="st15" width="47.4" height="1"/>
	</g>
	<g id="XMLID_1_" class="st0">
		<g id="XMLID_10_" class="st4">
			<path class="st16" d="M91.2,81.4c1.7,0,2.8,0.5,3.6,1.2c1,1.1,1.3,2.8,1.3,4.7c0,1.5-0.5,2.9-1.3,4c-0.9,1.2-2.2,1.9-3.6,1.9
				c-2.7,0-4.9-2.6-4.9-5.9S87.1,81.4,91.2,81.4 M91.2,80.7c-5,0-5.6,3.6-5.6,6.6c0,3.7,2.5,6.6,5.6,6.6c1.6,0,3.1-0.8,4.2-2.2
				c0.9-1.2,1.4-2.8,1.4-4.4c0-1.7-0.2-3.8-1.5-5.2C94.4,81.2,93,80.7,91.2,80.7L91.2,80.7z"/>
		</g>
		<g id="XMLID_3_" class="st4">
			<path class="st16" d="M93.9,94c0.3,0.1,0.6,0.1,0.9,0.2c4.8,1,5.5,2.8,5.6,8.1c0,0.3,0,0.4,0,0.4l0,0c0,0.1,0,0.2,0,0.4
				c0,0-0.9,1.8-5.6,2.5c-1,0.1-2.2,0.2-3.6,0.2c-7.8,0-9.2-2.7-9.2-2.7c0-0.3,0-0.5,0-0.6l0,0c0,0,0-0.1,0-0.4
				c0.1-5.5,0.9-7.1,6.5-8.1c0,0,0.8,1,2.7,1C93.1,95,93.9,94,93.9,94 M100.4,102.7L100.4,102.7 M93.9,93.2c-0.2,0-0.4,0.1-0.6,0.3
				c0,0-0.7,0.7-2.1,0.7s-2.1-0.7-2.1-0.7c-0.1-0.2-0.4-0.3-0.6-0.3h-0.1c-6,1.1-7,3.1-7.1,8.9c0,0.2,0,0.3,0,0.3v0.1v0.6
				c0,0.1,0,0.2,0.1,0.3c0.2,0.3,1.8,3.1,9.8,3.1c1.3,0,2.5-0.1,3.7-0.2c4.9-0.7,6.1-2.7,6.2-2.9c0.1-0.1,0.1-0.2,0.1-0.3v-0.3v-0.1
				c0,0,0,0,0-0.1v-0.1c0-0.1,0-0.2,0-0.3c-0.1-5.7-1-7.7-6.2-8.9C94.6,93.3,94.3,93.3,93.9,93.2L93.9,93.2L93.9,93.2z"/>
		</g>
		<path class="st17" d="M95.5,91.4l3.3,1.1c1.8-3.9,1.3-8.2-1.1-10.9c-1.9-2.1-4.3-2.7-5.3-2.8c-1.4-0.1-3.3,0-5.2,1
			c-3.6,2.1-5.3,7.2-4.1,12.7c1.2-0.5,2.3-1.1,3.5-1.6"/>
	</g>
	<circle class="st14" cx="772.4" cy="426.2" r="18.2"/>
	<g class="st18">
		<ellipse class="st19" cx="158.4" cy="242.6" rx="29.6" ry="29.8"/>
		<path class="st19" d="M270.5,255.2l-0.1-10.3c-0.2-13.8-5.7-26.7-15.5-36.3C245,199,232,193.8,218.3,194
			c-13.7,0.2-26.5,5.8-36,15.7c-1.5,1.6-2.9,3.2-4.2,5c-6.1-4.4-13.3-6.4-20.4-6.2c2.8-4.7,6.2-9.1,10-13.1
			c13.3-13.8,31.2-21.6,50.4-21.9c19.1-0.3,37.2,7,51,20.5c11.3,11,18.5,25.2,20.9,40.5l12.1-0.1l-0.1-11l27.1,20.8l-26.5,21.6
			l-0.1-11L270.5,255.2z"/>
		<path class="st19" d="M169.1,297.5c-6.2-6.1-11.3-13.2-14.9-21c7.1,0.9,14.5-0.4,20.9-4.1c2.3,3.8,5,7.2,8.2,10.3
			c9.8,9.6,22.8,14.8,36.5,14.6c13.7-0.2,26.5-5.8,36-15.7l14.6,14.3c-13.3,13.8-31.2,21.6-50.4,21.9
			C200.9,318.2,182.8,310.9,169.1,297.5z"/>
	</g>
	<g>
		<g>
			<path class="st20" d="M264.8,255.3l-0.1-10.3c-0.2-13.8-5.7-26.7-15.5-36.3c-9.8-9.6-22.8-14.8-36.5-14.6
				c-13.7,0.2-26.5,5.8-36,15.7c-1.5,1.6-2.9,3.2-4.2,5c-6.1-4.4-13.3-6.4-20.4-6.2c2.8-4.7,6.2-9.1,10-13.1
				c13.3-13.8,31.2-21.6,50.4-21.9c19.1-0.3,37.2,7,51,20.5c11.3,11,18.5,25.2,20.9,40.5l12.1-0.1l-0.1-11l27.1,20.8l-26.5,21.6
				l-0.1-11L264.8,255.3z"/>
			<path class="st20" d="M163.5,297.5c-6.2-6.1-11.3-13.2-14.9-21c7.1,0.9,14.5-0.4,20.9-4.1c2.3,3.8,5,7.2,8.2,10.3
				c9.8,9.6,22.8,14.8,36.5,14.6c13.7-0.2,26.5-5.8,36-15.7l14.6,14.3c-13.3,13.8-31.2,21.6-50.4,21.9
				C195.3,318.3,177.2,311.1,163.5,297.5z"/>
		</g>
	</g>
	<text transform="matrix(1 0 0 1 214.8237 276.3907)" class="st9 st10 st12">06</text>
	<text transform="matrix(0.9913 -1.016893e-02 1.008072e-02 0.9999 189.3927 259.4895)" class="st8 st10 st21 st22">02</text>
	<g>
		<g>
			<g class="st23">
				
					<image style="overflow:visible;" width="632" height="263" xlink:href="8EFD1A6F.png"  transform="matrix(1 0 0 1 319.9843 124.3843)">
				</image>
				<g>
					<rect x="343" y="147.3" class="st20" width="562.7" height="194.5"/>
				</g>
			</g>
			<ellipse class="st7" cx="153.5" cy="242.4" rx="29.6" ry="29.8"/>
			<g>
				<path class="st8" d="M183.6,242c-0.1-8.1-3.4-15.7-9.2-21.3c-5.8-5.7-13.4-8.7-21.4-8.6c-8.1,0.1-15.5,3.4-21.2,9.2
					c-5.6,5.8-8.6,13.5-8.5,21.6c0.1,8.1,3.4,15.7,9.2,21.3s13.4,8.7,21.4,8.6c8.1-0.1,15.5-3.4,21.2-9.2
					C180.6,257.7,183.6,250.1,183.6,242z M124.4,242.8c-0.1-7.8,2.8-15.2,8.2-20.8c5.4-5.6,12.7-8.8,20.4-8.9
					c7.8-0.1,15.1,2.8,20.6,8.3s8.7,12.8,8.8,20.6c0.1,7.8-2.8,15.2-8.2,20.8c-5.4,5.6-12.7,8.8-20.4,8.9
					c-7.8,0.1-15.1-2.8-20.6-8.3C127.6,257.9,124.5,250.6,124.4,242.8z"/>
			</g>
		</g>
		<ellipse class="st20" cx="153.5" cy="242.4" rx="19" ry="19.1"/>
		<g class="st0">
			<g class="st4">
				<path class="st7" d="M135.8,243.6L135.8,243.6L135.8,243.6l19,2l18.8-2.6c0.5-0.1,0.9,0.3,1,0.8v0.1l0.2,12.9
					c2.8,2.9,2.9,7.5,0.4,10.6l6.8,6.6c0.4,0.3,0.4,0.9,0.1,1.2c-0.3,0.4-0.9,0.4-1.3,0.1l-0.1-0.1l-5.8-5.7l0.1,4.4
					c0,0.5-0.3,0.8-0.8,0.9l-18.9,2.6h-0.2l-19-2c-0.5,0-0.8-0.4-0.8-0.9l-0.4-30.1C134.9,244,135.3,243.6,135.8,243.6z
					 M173.3,257.9L173.3,257.9c-2.6-2.5-6.6-2.4-9.1,0.1c-2.5,2.5-2.4,6.6,0.1,9s6.5,2.4,9-0.1S175.8,260.4,173.3,257.9z
					 M156.1,275.7l17.1-2.3l-0.1-4c-3.8,2.4-8.8,1.3-11.2-2.5c-2.4-3.8-1.3-8.8,2.5-11.2c2.6-1.6,5.9-1.7,8.5-0.1l-0.1-10.5
					l-17.1,2.3L156.1,275.7z M137.1,273.8l17.2,1.8l-0.4-28.3l-17.2-1.8L137.1,273.8z"/>
				<path class="st7" d="M171,252.1L171,252.1l-12.4,1.7h-0.1c-0.5,0-0.9-0.3-1-0.8c0-0.5,0.3-0.9,0.8-0.9l12.4-1.7
					c0.5-0.1,0.9,0.3,1,0.8C171.8,251.5,171.5,252,171,252.1z"/>
				<path class="st7" d="M151.6,253.8L151.6,253.8l-12.5-1.3c-0.5-0.1-0.8-0.5-0.8-1c0.1-0.5,0.5-0.8,1-0.8l12.4,1.3
					c0.5,0,0.9,0.4,0.8,0.9C152.5,253.5,152.1,253.9,151.6,253.8z"/>
				<path class="st7" d="M151.7,261.3L151.7,261.3l-12.5-1.3c-0.5,0-0.8-0.5-0.8-1c0.1-0.5,0.5-0.8,1-0.8l12.4,1.3
					c0.5,0,0.9,0.4,0.8,0.9C152.6,260.9,152.2,261.3,151.7,261.3z"/>
				<path class="st7" d="M151.8,268.8L151.8,268.8l-12.5-1.3c-0.5-0.1-0.8-0.5-0.8-1c0.1-0.5,0.5-0.8,1-0.8l12.4,1.3
					c0.5,0,0.9,0.4,0.8,0.9C152.7,268.4,152.3,268.8,151.8,268.8z"/>
			</g>
		</g>
		<g>
			<g>
				<path class="st7" d="M152.8,233.1c3.6-0.1,5.9,1.8,5.9,4.8c0,0.4-0.3,0.6-0.6,0.7l-10.5,0.1c-0.4,0-0.6-0.3-0.7-0.6
					C146.9,235.1,149.2,233.1,152.8,233.1L152.8,233.1z M157.4,237.3c-0.4-2.8-3.6-3-4.6-3s-4.2,0.3-4.5,3.1L157.4,237.3z"/>
				<path class="st7" d="M152.7,226.6c1.6,0,2.9,1.3,3,2.9c0,1.6-1.2,3-2.9,3c-1.6,0-2.9-1.3-2.9-2.9
					C149.8,228,151.1,226.6,152.7,226.6L152.7,226.6z M152.7,231.2c1,0,1.7-0.8,1.7-1.7c0-1-0.8-1.7-1.7-1.7c-1,0-1.7,0.8-1.7,1.7
					C151,230.5,151.9,231.2,152.7,231.2L152.7,231.2z"/>
				<path class="st7" d="M163.4,247.2c3.6-0.1,5.9,1.8,5.9,4.8c0,0.4-0.3,0.7-0.6,0.7l-10.5,0.1c-0.4,0-0.6-0.3-0.7-0.6
					C157.6,249.2,159.8,247.2,163.4,247.2L163.4,247.2z M168.1,251.4c-0.4-2.8-3.6-3-4.6-3c-1,0-4.2,0.3-4.5,3.1L168.1,251.4z"/>
				<path class="st7" d="M163.3,240.7c1.6,0,2.9,1.3,2.9,2.9c0,1.6-1.2,3-2.9,3s-2.9-1.3-2.9-2.9
					C160.5,242.1,161.7,240.7,163.3,240.7L163.3,240.7z M163.4,245.3c1,0,1.7-0.8,1.7-1.7c0-1-0.8-1.7-1.7-1.7c-1,0-1.7,0.8-1.7,1.7
					C161.7,244.6,162.5,245.4,163.4,245.3L163.4,245.3z"/>
				<path class="st7" d="M142.6,247.5c3.6-0.1,5.9,1.8,5.9,4.8c0,0.4-0.3,0.7-0.6,0.7l-10.5,0.1c-0.4,0-0.6-0.3-0.7-0.6
					C136.7,249.5,139,247.5,142.6,247.5L142.6,247.5z M147.2,251.7c-0.4-2.8-3.6-3-4.6-3c-1,0-4.2,0.3-4.5,3.1L147.2,251.7z"/>
				<path class="st7" d="M142.4,241c1.6,0,2.9,1.3,3,2.9c0,1.6-1.2,3-2.9,3s-2.9-1.3-2.9-2.9C139.5,242.4,140.8,241,142.4,241
					L142.4,241z M142.5,245.6c1,0,1.7-0.8,1.7-1.7c0-1-0.8-1.7-1.7-1.7c-1,0-1.7,0.8-1.7,1.7C140.8,244.9,141.6,245.7,142.5,245.6
					L142.5,245.6z"/>
				<path class="st7" d="M149.8,246.4l2.6-2.7l-0.1-3.7c0-0.4,0.3-0.6,0.6-0.7c0.4,0,0.7,0.3,0.7,0.6l0.1,3.7l2.6,2.6
					c0.2,0.2,0.2,0.7,0,0.9c-0.2,0.2-0.7,0.2-0.9,0l-2.3-2.3l-2.3,2.4c-0.3,0.2-0.7,0.2-0.9-0.1
					C149.6,246.9,149.6,246.6,149.8,246.4L149.8,246.4z"/>
			</g>
		</g>
	</g>
	<g id="XMLID_2_">
		<g>
			<g>
				<g class="st0">
					<g class="st4">
						<g>
							<g>
								<path class="st7" d="M154.5,249.6c6-0.1,11,4.7,11,10.7c0,3.9-1.9,7.6-5,10l0.1,7.9c0,0.1,0,0.2,0,0.3v0.1v0.1l-2.7,4.1
									c-0.1,0.2-0.4,0.3-0.6,0.3l-4.5,0.1c-0.3,0-0.5-0.1-0.6-0.3l-2.8-4c0,0,0-0.1-0.1-0.1v-0.1c0-0.1-0.1-0.2-0.1-0.3l-0.1-7.9
									c-3.2-2.2-5.2-5.9-5.3-9.8C143.8,254.7,148.5,249.8,154.5,249.6L154.5,249.6z M153.1,281.6l3.7-0.1l1.6-2.5l-7,0.1
									L153.1,281.6z M159.1,277.4v-2l-8.4,0.1v2L159.1,277.4z M150.2,269.4L150.2,269.4c0.2,0.2,0.4,0.4,0.4,0.7l0.1,3.9l8.4-0.1
									l-0.1-4c0-0.3,0.1-0.5,0.3-0.7c2.9-2,4.7-5.3,4.7-8.9c-0.2-5.2-4.6-9.2-9.7-8.9c-4.9,0.2-8.9,4.2-8.9,9.2
									C145.4,264.2,147.2,267.5,150.2,269.4L150.2,269.4z"/>
								<path class="st7" d="M154.2,253.1c0.4,0,0.8,0.3,0.8,0.8c0,0.4-0.3,0.8-0.8,0.8c-3.2,0-5.8,2.7-5.7,5.9
									c0,0.4-0.3,0.8-0.8,0.8c-0.4,0-0.8-0.3-0.8-0.8C146.9,256.5,150.2,253.2,154.2,253.1L154.2,253.1z"/>
								<path class="st7" d="M167.6,259.5l5.6-0.1c0.4,0,0.8,0.3,0.8,0.8c0,0.4-0.3,0.8-0.8,0.8l-5.6,0.1c-0.4,0-0.8-0.3-0.8-0.8
									C166.8,259.9,167.2,259.5,167.6,259.5L167.6,259.5z"/>
								<path class="st7" d="M136.1,260l5.6-0.1c0.4,0,0.8,0.3,0.8,0.8c0,0.4-0.3,0.8-0.8,0.8l-5.6,0.1c-0.4,0-0.8-0.3-0.8-0.8
									C135.4,260.3,135.7,260,136.1,260L136.1,260z"/>
								<path class="st7" d="M163.3,269c0.3-0.3,0.8-0.4,1.1-0.1l0.1,0.1l0,0l4,3.9c0.3,0.3,0.4,0.8,0.1,1.1
									c-0.3,0.3-0.8,0.4-1.1,0.1l-0.1-0.1l-4-3.9C163.1,269.8,163.1,269.3,163.3,269L163.3,269z"/>
								<path class="st7" d="M140.9,247c0.3-0.2,0.7-0.3,1,0l4,3.9c0.3,0.3,0.3,0.8,0,1.1c-0.1,0.1-0.3,0.2-0.5,0.2l0,0
									c-0.2,0-0.4-0.1-0.6-0.2l-4-3.9C140.5,247.8,140.6,247.3,140.9,247L140.9,247z"/>
								<path class="st7" d="M141,273.4c0-0.1,0.1-0.1,0.1-0.2l3.9-4c0.3-0.3,0.8-0.4,1.1-0.1c0.3,0.3,0.4,0.8,0.1,1.1l-0.1,0.1
									l-3.9,4c-0.2,0.3-0.7,0.4-1.1,0.2C140.9,274.2,140.8,273.8,141,273.4L141,273.4z"/>
								<path class="st7" d="M163.1,250.6l3.9-4c0.3-0.3,0.8-0.3,1.1,0.1c0.3,0.3,0.3,0.7,0,1l-3.9,4c-0.3,0.3-0.8,0.3-1.1-0.1
									C162.9,251.4,162.9,250.9,163.1,250.6L163.1,250.6z"/>
								<path class="st7" d="M154.4,241.4c0.4,0,0.8,0.3,0.8,0.8l0.1,5.6c0,0.4-0.3,0.8-0.7,0.8l0,0c-0.4,0-0.8-0.3-0.8-0.8
									l-0.1-5.6C153.6,241.8,154,241.4,154.4,241.4L154.4,241.4z"/>
							</g>
						</g>
					</g>
				</g>
				<path class="st24" d="M144.6,252.2c6.1-0.1,10,3,10.1,8.1c0,0.6-0.5,1.1-1.1,1.1l-17.7,0.2c-0.6,0-1.1-0.5-1.1-1
					C134.7,255.4,138.4,252.2,144.6,252.2L144.6,252.2z M152.4,259.2c-0.8-4.7-6.1-5-7.8-5c-1.7,0-7.1,0.5-7.7,5.2L152.4,259.2z"/>
				<path class="st24" d="M144.4,241.2c2.7,0,5,2.2,5,4.9c0,3-2.6,5.5-5.8,5c-2-0.3-3.7-1.9-4.1-3.9
					C139,244,141.3,241.2,144.4,241.2L144.4,241.2z M144.5,249c1.6,0,2.9-1.3,2.8-2.9c0-1.6-1.3-2.9-2.9-2.8c-1.6,0-2.9,1.3-2.8,2.9
					C141.6,247.8,142.9,249,144.5,249L144.5,249z"/>
				<path class="st24" d="M162.6,270.2c6.1-0.1,10,3,10.1,8.1c0,0.6-0.5,1-1.1,1.1l-17.7,0.2c-0.6,0-1.1-0.5-1.1-1
					C152.7,273.5,156.5,270.3,162.6,270.2L162.6,270.2z M170.5,277.3c-0.8-4.7-6.1-5-7.8-5s-7.1,0.5-7.7,5.2L170.5,277.3z"/>
				<path class="st24" d="M162.4,259.2c3.2,0,5.8,3,4.8,6.5c-0.4,1.5-1.6,2.7-3.1,3.2c-3.4,1.1-6.6-1.4-6.6-4.6
					C157.5,261.5,159.7,259.3,162.4,259.2L162.4,259.2z M162.6,267.1c1.6,0,2.9-1.3,2.8-2.9c0-1.6-1.3-2.9-2.9-2.8
					c-1.6,0-2.9,1.3-2.8,2.9C159.7,265.8,161,267.1,162.6,267.1L162.6,267.1z"/>
			</g>
		</g>
		<g id="XMLID_7_" class="st0">
			<path class="st13" d="M157.1,244.9c2.4,0,4,0.7,5.1,1.7c1.5,1.5,1.8,3.9,1.8,6.7c0,2.2-0.7,4.2-1.8,5.7c-1.3,1.7-3.1,2.7-5.1,2.7
				c-3.8,0-6.9-3.8-6.9-8.4S151.2,244.9,157.1,244.9 M157.1,244.2c-6.8,0-7.7,4.6-7.7,9.1c0,5,3.4,9.1,7.7,9.1c2.2,0,4.2-1.1,5.7-3
				c1.3-1.7,2-3.9,2-6.1c0-2.4-0.2-5.3-2-7.2C161.5,244.8,159.6,244.2,157.1,244.2L157.1,244.2z"/>
		</g>
		<g id="XMLID_5_" class="st0">
			<path class="st13" d="M160.9,262.7c0.5,0.1,0.9,0.2,1.3,0.3c6.9,1.5,7.8,4,8,11.6c0,0.4,0,0.6,0,0.6l0,0c0,0.1,0,0.3,0,0.6
				c0,0-1.3,2.6-8,3.5c-1.4,0.2-3.1,0.3-5.1,0.3c-11.1,0-13.1-3.9-13.1-3.9c0-0.5,0-0.7,0-0.8l0,0c0,0,0-0.1,0-0.6
				c0.1-7.9,1.3-10.1,9.2-11.6c0,0,1.1,1.4,3.8,1.4C159.8,264.2,160.9,262.7,160.9,262.7 M170.2,275.1L170.2,275.1 M160.9,262
				c-0.2,0-0.4,0.1-0.6,0.3c0,0.1-1,1.2-3.2,1.2s-3.2-1.1-3.2-1.2c-0.1-0.2-0.4-0.3-0.6-0.3h-0.1c-8.4,1.5-9.7,4.1-9.9,12.3
				c0,0.3,0,0.4,0,0.5v0.1v0.8c0,0.1,0,0.2,0.1,0.3c0.1,0.2,2.3,4.3,13.7,4.3c1.9,0,3.6-0.1,5.2-0.3c6.9-1,8.4-3.6,8.5-4
				c0.1-0.1,0.1-0.2,0.1-0.3v-0.4v-0.1c0,0,0,0,0-0.1V275c0-0.1,0-0.2,0-0.5c-0.1-8-1.3-10.7-8.6-12.3c-0.4-0.1-0.9-0.2-1.3-0.3
				C161,262,161,262,160.9,262L160.9,262z"/>
		</g>
		<path class="st25" d="M172.7,282c-0.6-1.1-1.2-2.6-1.7-4.4c-0.5-1.9-0.8-2.8-0.6-4c0.2-0.9,0.5-1.5,2.5-4.1c2.7-3.5,3-3.6,3.5-4.5
			c0.5-1.1,1.1-3,0.7-5.7c-0.5-2.2-1.1-4.4-1.6-6.7l-8.7-12.5c-0.4-0.8-1.4-1.2-2.2-0.9c-0.8,0.4-1.3,1.3-0.9,2.2c1.7,3,3.4,6,5.1,9
			c0.1,0,1,0,1.7,0.7s0.7,1.6,0.7,1.7c0,3.4,0.1,6.9,0.1,10.3"/>
		<path class="st26" d="M163.2,259.1l4.7,1.6c2.5-5.5,1.9-11.6-1.6-15.5c-2.6-3-6.1-3.8-7.5-4c-2-0.2-4.8,0-7.4,1.5
			c-5.1,3-7.6,10.3-5.8,18.1c1.7-0.7,3.3-1.5,5-2.2"/>
		<path class="st25" d="M139.6,281.8c0.6-1.1,1.2-2.6,1.7-4.4c0.5-1.9,0.8-2.8,0.6-4c-0.2-0.9-0.5-1.5-2.5-4.1
			c-2.7-3.5-3-3.6-3.5-4.5c-0.5-1.1-1.1-3-0.7-5.7c0.5-2.2,1.1-4.4,1.6-6.7l8.7-12.5c0.4-0.8,1.4-1.2,2.2-0.9
			c0.8,0.4,1.3,1.3,0.9,2.2c-1.7,3-3.4,6-5.1,9c-0.1,0-1,0-1.7,0.7s-0.7,1.6-0.7,1.7c0,3.4-0.1,6.9-0.1,10.3"/>
		<path class="st25" d="M151.9,282.2l0.5-13.3c0-0.6-0.1-2.6-1.5-4.5c-1.5-2-3.4-2.6-4-2.8c-0.3-1.7-0.4-3-0.5-3.9
			c-0.2-2.7,0-3.8-0.8-5.2c-0.6-1.1-1.4-1.9-2-2.3"/>
		<path class="st25" d="M160.4,282.4l-0.5-13.3c0-0.6,0.1-2.6,1.5-4.5c1.5-2,3.4-2.6,4-2.8c0.3-1.7,0.4-3,0.5-3.9
			c0.2-2.7,0-3.8,0.8-5.2c0.6-1.1,1.4-1.9,2-2.3"/>
		<polygon class="st24" points="156.6,260.4 156.5,260.2 156.6,260 156.8,260.2 		"/>
		<path class="st25" d="M156.9,259.9l-7.3-7.5c-1.1-1.9-0.8-4.2,0.6-5.5c1.7-1.6,4.7-1.6,6.6,0.5"/>
		<path class="st25" d="M156.4,247.3c1.8-2,4.9-2.1,6.6-0.5c1.4,1.3,1.7,3.6,0.6,5.5l-7.3,7.6"/>
	</g>
	
		<rect x="156.3" y="247.2" transform="matrix(0.7071 -0.7071 0.7071 0.7071 -129.0745 183.1994)" class="st24" width="0.6" height="0.5"/>
</g>
<rect x="350.9" y="161.5" class="st27" width="560.1" height="200"/>
<text transform="matrix(1 0 0 1 350.8919 188.907)"><tspan x="0" y="0" class="st28 st29">Host webinars and talks by </tspan><tspan x="0" y="43.2" class="st28 st29">esteemed women professionals </tspan><tspan x="0" y="86.4" class="st28 st29">around the world to inspire the </tspan><tspan x="0" y="129.6" class="st28 st29">youth</tspan></text>
</svg>
