<?xml version="1.0" encoding="utf-8"?>
<!-- Generator: Adobe Illustrator 24.2.0, SVG Export Plug-In . SVG Version: 6.00 Build 0)  -->
<svg version="1.1" xmlns="http://www.w3.org/2000/svg" xmlns:xlink="http://www.w3.org/1999/xlink" x="0px" y="0px"
	 viewBox="0 0 1009.8 517.4" style="enable-background:new 0 0 1009.8 517.4;" xml:space="preserve">
<style type="text/css">
	.st0{display:none;}
	.st1{display:none;opacity:0.24;}
	.st2{display:inline;fill:#7A7A7A;}
	.st3{display:inline;fill:#FFE52C;}
	.st4{display:inline;}
	.st5{fill:#FFE52C;}
	.st6{fill:#EFDF4B;}
	.st7{fill:#FFFFFF;}
	.st8{fill:#1D1D1B;}
	.st9{display:none;fill:#1D1D1B;}
	.st10{font-family:'Montserrat-Bold';}
	.st11{font-size:43.2714px;}
	.st12{letter-spacing:2;}
	.st13{display:inline;fill:#FFFFFF;}
	.st14{display:none;fill:#FFE52C;}
	.st15{display:inline;fill:#1D1D1B;}
	.st16{fill:none;}
	.st17{font-family:'MyriadPro-Regular';}
	.st18{font-size:24px;}
	.st19{fill:#231F20;}
	
		.st20{display:inline;fill:none;stroke:#231F20;stroke-width:0.75;stroke-linecap:round;stroke-linejoin:round;stroke-miterlimit:10;}
	.st21{opacity:0.24;}
	.st22{fill:#7A7A7A;}
	.st23{fill:#752F8B;}
	.st24{font-size:57.2661px;}
	.st25{letter-spacing:3;}
	.st26{opacity:0.33;fill:#752F8B;}
	.st27{display:none;fill:#FFFFFF;}
	.st28{display:none;fill:none;stroke:#FFFFFF;stroke-miterlimit:10;}
	.st29{display:none;fill:none;stroke:#FFFFFF;stroke-width:0.75;stroke-linecap:round;stroke-linejoin:round;stroke-miterlimit:10;}
</style>
<g id="BACKGROUND" class="st0">
</g>
<g id="OBJECTS">
	<g class="st1">
		<path class="st2" d="M68.3,461c-4.9-4.8-9-10.1-12.2-15.9c6.8,0.2,13.6-1.8,19.4-5.8c1.9,2.7,4,5.3,6.5,7.7
			c9.4,9.2,21.9,14.1,35,13.9c13.1-0.2,25.4-5.5,34.6-14.9l14,13.6c-12.8,13.2-30,20.6-48.3,20.8C98.8,480.7,81.5,473.8,68.3,461z"
			/>
		<path class="st2" d="M165.6,420.8l-0.1-9.8c-0.2-13.1-5.5-25.4-14.9-34.6c-9.4-9.2-21.8-14.1-35-13.9
			c-13.1,0.2-25.4,5.5-34.6,14.9c-2.4,2.4-4.4,5.1-6.2,7.9c-5.9-3.9-12.8-5.6-19.5-5.2c3.1-5.9,7-11.4,11.8-16.2
			c12.8-13.2,30-20.6,48.3-20.8c18.4-0.3,35.7,6.6,48.9,19.4c10.8,10.5,17.7,23.9,20,38.6l11.6-0.2l-0.1-10.4l26,19.8l-25.4,20.6
			l-0.1-10.4L165.6,420.8z"/>
		
			<ellipse transform="matrix(0.4792 -0.8777 0.8777 0.4792 -332.4672 264.8139)" class="st2" cx="56.9" cy="412.6" rx="28.4" ry="28.4"/>
	</g>
	<g class="st1">
		<path class="st2" d="M66.1,304.2c-13.2-12.8-20.6-30-20.8-48.3c-0.3-18.4,6.6-35.7,19.4-48.9c8.7-9,19.4-15.2,31.2-18.4
			c-2.1,6.7-2,13.8,0.3,20.4c-6.5,2.5-12.5,6.4-17.5,11.6c-9.2,9.4-14.1,21.8-13.9,35c0.2,13.1,5.5,25.4,14.9,34.6
			c9.4,9.2,21.8,14.1,35,13.9c13.1-0.2,25.4-5.5,34.6-14.9l14,13.6c-12.8,13.2-30,20.6-48.3,20.8C96.6,323.9,79.3,317,66.1,304.2z"
			/>
		<path class="st2" d="M163.3,264l-0.1-9.8c-0.2-12.3-4.9-23.9-13.2-32.9c0.1-0.1,0.2-0.2,0.4-0.4c4.9-5.1,7.9-11.4,8.8-17.9
			c0.9,0.8,1.9,1.7,2.7,2.5c10.8,10.5,17.7,23.9,20,38.6l11.6-0.2l-0.1-10.4l26,19.8L194,274l-0.1-10.4L163.3,264z"/>
		
			<ellipse transform="matrix(0.9999 -1.412220e-02 1.412220e-02 0.9999 -2.7875 1.8131)" class="st2" cx="127" cy="198.3" rx="28.4" ry="28.4"/>
	</g>
	<g class="st1">
		
			<ellipse transform="matrix(0.9999 -1.412220e-02 1.412220e-02 0.9999 -1.1694 0.7645)" class="st2" cx="53.5" cy="83.2" rx="28.4" ry="28.4"/>
		<path class="st2" d="M161,95.2l-0.1-9.8c-0.2-13.1-5.5-25.4-14.9-34.6c-9.4-9.2-21.8-14.1-35-13.9c-13.1,0.2-25.4,5.5-34.6,14.9
			c-1.5,1.5-2.8,3.1-4,4.7c-5.8-4.1-12.7-6.1-19.5-5.9c2.7-4.4,5.9-8.6,9.6-12.4c12.8-13.2,30-20.6,48.3-20.8
			c18.4-0.3,35.7,6.6,48.9,19.4c10.8,10.5,17.7,23.9,20,38.6l11.6-0.2L191,64.8l26,19.8l-25.4,20.6l-0.1-10.4L161,95.2z"/>
		<path class="st2" d="M63.7,135.4c-6-5.8-10.8-12.6-14.3-19.9c6.8,0.9,13.9-0.5,20-3.9c2.2,3.6,4.8,6.9,7.8,9.8
			c9.4,9.2,21.8,14.1,35,13.9c13.1-0.2,25.4-5.5,34.6-14.9l14,13.6c-12.8,13.2-30,20.6-48.3,20.8C94.2,155.1,76.9,148.2,63.7,135.4z
			"/>
	</g>
	<g class="st0">
		<path class="st3" d="M63,461.1c-4.9-4.8-9-10.1-12.2-15.9c6.8,0.2,13.6-1.8,19.4-5.8c1.9,2.7,4,5.3,6.5,7.7
			c9.4,9.2,21.9,14.1,35,13.9c13.1-0.2,25.4-5.5,34.6-14.9l14,13.6c-12.8,13.2-30,20.6-48.3,20.8C93.5,480.8,76.1,473.9,63,461.1z"
			/>
		<path class="st3" d="M160.2,420.9l-0.1-9.8c-0.2-13.1-5.5-25.4-14.9-34.6c-9.4-9.2-21.8-14.1-35-13.9
			c-13.1,0.2-25.4,5.5-34.6,14.9c-2.4,2.4-4.4,5.1-6.2,7.9c-5.9-3.9-12.8-5.6-19.5-5.2c3.1-5.9,7-11.4,11.8-16.2
			c12.8-13.2,30-20.6,48.3-20.8c18.4-0.3,35.7,6.6,48.9,19.4c10.8,10.5,17.7,23.9,20,38.6l11.6-0.2l-0.1-10.4l26,19.8l-25.4,20.6
			l-0.1-10.4L160.2,420.9z"/>
	</g>
	<g class="st0">
		<path class="st3" d="M60.7,304.3c-13.2-12.8-20.6-30-20.8-48.3c-0.3-18.4,6.6-35.7,19.4-48.9c8.7-9,19.4-15.2,31.2-18.4
			c-2.1,6.7-2,13.8,0.3,20.4c-6.5,2.5-12.5,6.4-17.5,11.6c-9.2,9.4-14.1,21.8-13.9,35c0.2,13.1,5.5,25.4,14.9,34.6
			c9.4,9.2,21.8,14.1,35,13.9c13.1-0.2,25.4-5.5,34.6-14.9l14,13.6c-12.8,13.2-30,20.6-48.3,20.8C91.3,324,73.9,317,60.7,304.3z"/>
		<path class="st3" d="M158,264l-0.1-9.8c-0.2-12.3-4.9-23.9-13.2-32.9c0.1-0.1,0.2-0.2,0.4-0.4c4.9-5.1,7.9-11.4,8.8-17.9
			c0.9,0.8,1.9,1.7,2.7,2.5c10.8,10.5,17.7,23.9,20,38.6l11.6-0.2l-0.1-10.4l26,19.8L188.6,274l-0.1-10.4L158,264z"/>
	</g>
	<g class="st0">
		<g class="st4">
			<path class="st5" d="M155.6,95.3l-0.1-9.8c-0.2-13.1-5.5-25.4-14.9-34.6c-9.4-9.2-21.8-14.1-35-13.9C92.4,37.2,80.1,42.5,71,51.9
				c-1.5,1.5-2.8,3.1-4,4.7c-5.8-4.1-12.7-6.1-19.5-5.9c2.7-4.4,5.9-8.6,9.6-12.4c12.8-13.2,30-20.6,48.3-20.8
				c18.4-0.3,35.7,6.6,48.9,19.4c10.8,10.5,17.7,23.9,20,38.6l11.6-0.2l-0.1-10.4l26,19.8l-25.4,20.6l-0.1-10.4L155.6,95.3z"/>
			<path class="st6" d="M58.4,135.5c-6-5.8-10.8-12.6-14.3-19.9c6.8,0.9,13.9-0.5,20-3.9c2.2,3.6,4.8,6.9,7.8,9.8
				c9.4,9.2,21.8,14.1,35,13.9c13.1-0.2,25.4-5.5,34.6-14.9l14,13.6c-12.8,13.2-30,20.6-48.3,20.8C88.9,155.2,71.5,148.3,58.4,135.5
				z"/>
		</g>
	</g>
	<g class="st0">
		<g class="st4">
			<circle class="st7" cx="121.6" cy="198.4" r="28.4"/>
			<g>
				<path class="st8" d="M122,227.2c7.4-0.1,14.7-3,20.3-8.7l0,0c11.1-11.4,10.8-29.7-0.6-40.8c-5.5-5.4-12.8-8.3-20.5-8.2
					c0,0,0,0,0,0c-7.7,0.1-14.9,3.2-20.3,8.7c-11.1,11.4-10.8,29.7,0.6,40.8C107.2,224.6,114.6,227.3,122,227.2z M141.6,217.8
					c-10.7,11-28.4,11.3-39.4,0.6c-11-10.7-11.3-28.4-0.6-39.4c5.2-5.3,12.1-8.3,19.6-8.4c7.4-0.1,14.5,2.7,19.8,7.9
					C152.1,189.1,152.3,206.8,141.6,217.8L141.6,217.8z"/>
			</g>
		</g>
		<circle class="st3" cx="121.6" cy="198.4" r="18.2"/>
	</g>
	<text transform="matrix(0.9999 -1.016794e-02 1.016794e-02 0.9999 84.3345 98.9002)" class="st9 st10 st11 st12">01</text>
	<text transform="matrix(1 0 0 1 81.9494 270.4159)" class="st9 st10 st11 st12">02</text>
	<text transform="matrix(1 0 0 1 85.6398 423.6549)" class="st9 st10 st11 st12">03</text>
	<g>
		<g class="st0">
			<circle class="st13" cx="51.4" cy="413.1" r="28.4"/>
			<g class="st4">
				<path class="st8" d="M51.9,441.9c7.4-0.1,14.7-3,20.3-8.7c5.4-5.5,8.3-12.8,8.2-20.5c-0.1-7.7-3.2-14.9-8.7-20.3
					c-11.4-11.1-29.7-10.8-40.8,0.6c-5.4,5.5-8.3,12.8-8.2,20.5c0.1,7.7,3.2,14.9,8.7,20.3C37,439.3,44.5,442,51.9,441.9z
					 M51.1,385.2c7.1-0.1,14.3,2.5,19.8,7.9c5.3,5.2,8.3,12.1,8.4,19.6c0.1,7.4-2.7,14.5-7.9,19.8c-10.7,11-28.4,11.3-39.4,0.6l0,0
					c-5.3-5.2-8.3-12.1-8.4-19.6c-0.1-7.4,2.7-14.5,7.9-19.8C36.8,388.1,43.9,385.3,51.1,385.2z"/>
			</g>
		</g>
		<circle class="st14" cx="51.4" cy="413.1" r="18.2"/>
	</g>
	<g class="st0">
		<g class="st4">
			<ellipse transform="matrix(0.9212 -0.389 0.389 0.9212 -28.4615 25.4953)" class="st7" cx="48.7" cy="83" rx="28.4" ry="28.4"/>
			<g>
				<path class="st8" d="M77.6,82.6c-0.1-7.7-3.2-14.9-8.7-20.3S56,54,48.3,54.2c-7.7,0.1-14.9,3.2-20.3,8.7s-8.3,12.8-8.2,20.5
					s3.2,14.9,8.7,20.3s12.8,8.3,20.5,8.2c7.7-0.1,14.9-3.2,20.3-8.7C74.8,97.6,77.7,90.3,77.6,82.6z M20.9,83.4
					c-0.1-7.4,2.7-14.5,7.9-19.8c5.2-5.3,12.1-8.3,19.6-8.4c7.4-0.1,14.5,2.7,19.8,7.9c5.3,5.2,8.3,12.1,8.4,19.6
					c0.1,7.4-2.7,14.5-7.9,19.8c-5.2,5.3-12.1,8.3-19.6,8.4c-7.4,0.1-14.5-2.7-19.8-7.9C24,97.8,21,90.9,20.9,83.4z"/>
			</g>
		</g>
		<circle class="st3" cx="48.7" cy="83" r="18.2"/>
	</g>
	<g class="st0">
		
			<rect x="224.6" y="409.4" transform="matrix(0.9999 -1.412220e-02 1.412220e-02 0.9999 -5.7634 3.5468)" class="st15" width="47.4" height="1"/>
	</g>
	<g class="st0">
		
			<rect x="222.3" y="252.4" transform="matrix(0.9999 -1.412220e-02 1.412220e-02 0.9999 -3.5466 3.4998)" class="st15" width="47.4" height="1"/>
	</g>
	<g class="st0">
		
			<rect x="220" y="83.1" transform="matrix(0.9999 -1.412220e-02 1.412220e-02 0.9999 -1.1557 3.4492)" class="st15" width="47.4" height="1"/>
	</g>
	<rect x="285.6" y="28.6" class="st16" width="367.7" height="108.9"/>
	<text transform="matrix(1 0 0 1 285.6102 45.5917)" class="st0"><tspan x="0" y="0" class="st4 st17 st18">Ensure proper representation of </tspan><tspan x="0" y="28.8" class="st4 st17 st18">women in the technical field and e</tspan><tspan x="357.5" y="28.8" class="st4 st17 st18">-</tspan><tspan x="0" y="57.6" class="st4 st17 st18">courage them to take up leadership </tspan><tspan x="0" y="86.4" class="st4 st17 st18">roles</tspan></text>
	<rect x="480.5" y="210.7" class="st16" width="405.9" height="97.4"/>
	<text transform="matrix(1 0 0 1 480.4821 227.6974)" class="st0"><tspan x="0" y="0" class="st4 st17 st18">Work on projects to develop deployable </tspan><tspan x="0" y="28.8" class="st4 st17 st18">solutions for the benefit of society, </tspan><tspan x="0" y="57.6" class="st4 st17 st18">especially women</tspan></text>
	<g class="st1">
		<path class="st2" d="M746.5,464c-4.9-4.8-9-10.1-12.2-15.9c6.8,0.2,13.6-1.8,19.4-5.8c1.9,2.7,4,5.3,6.5,7.7
			c9.4,9.2,21.9,14.1,35,13.9c13.1-0.2,25.4-5.5,34.6-14.9l14,13.6c-12.8,13.2-30,20.6-48.3,20.8C777,483.7,759.6,476.8,746.5,464z"
			/>
		<path class="st2" d="M843.7,423.8l-0.1-9.8c-0.2-13.1-5.5-25.4-14.9-34.6c-9.4-9.2-21.8-14.1-35-13.9
			c-13.1,0.2-25.4,5.5-34.6,14.9c-2.4,2.4-4.4,5.1-6.2,7.9c-5.9-3.9-12.8-5.6-19.5-5.2c3.1-5.9,7-11.4,11.8-16.2
			c12.8-13.2,30-20.6,48.3-20.8c18.4-0.3,35.7,6.6,48.9,19.4c10.8,10.5,17.7,23.9,20,38.6l11.6-0.2l-0.1-10.4l26,19.8l-25.4,20.6
			l-0.1-10.4L843.7,423.8z"/>
		
			<ellipse transform="matrix(0.4792 -0.8777 0.8777 0.4792 18.0504 861.5759)" class="st2" cx="735" cy="415.6" rx="28.4" ry="28.4"/>
	</g>
	<g class="st1">
		<path class="st2" d="M744.2,307.2c-13.2-12.8-20.6-30-20.8-48.3c-0.3-18.4,6.6-35.7,19.4-48.9c8.7-9,19.4-15.2,31.2-18.4
			c-2.1,6.7-2,13.8,0.3,20.4c-6.5,2.5-12.5,6.4-17.5,11.6c-9.2,9.4-14.1,21.8-13.9,35c0.2,13.1,5.5,25.4,14.9,34.6
			c9.4,9.2,21.8,14.1,35,13.9c13.1-0.2,25.4-5.5,34.6-14.9l14,13.6c-12.8,13.2-30,20.6-48.3,20.8C774.8,326.9,757.4,320,744.2,307.2
			z"/>
		<path class="st2" d="M841.5,267l-0.1-9.8c-0.2-12.3-4.9-23.9-13.2-32.9c0.1-0.1,0.2-0.2,0.4-0.4c4.9-5.1,7.9-11.4,8.8-17.9
			c0.9,0.8,1.9,1.7,2.7,2.5c10.8,10.5,17.7,23.9,20,38.6l11.6-0.2l-0.1-10.4l26,19.8L872.1,277l-0.1-10.4L841.5,267z"/>
		
			<ellipse transform="matrix(0.9999 -1.412221e-02 1.412221e-02 0.9999 -2.7624 11.3902)" class="st2" cx="805.1" cy="201.3" rx="28.4" ry="28.4"/>
	</g>
	<g class="st1">
		
			<ellipse transform="matrix(0.9999 -1.412219e-02 1.412219e-02 0.9999 -1.1443 10.3415)" class="st2" cx="731.7" cy="86.2" rx="28.4" ry="28.4"/>
		<path class="st2" d="M839.1,98.2l-0.1-9.8c-0.2-13.1-5.5-25.4-14.9-34.6c-9.4-9.2-21.8-14.1-35-13.9c-13.1,0.2-25.4,5.5-34.6,14.9
			c-1.5,1.5-2.8,3.1-4,4.7c-5.8-4.1-12.7-6.1-19.5-5.9c2.7-4.4,5.9-8.6,9.6-12.4c12.8-13.2,30-20.6,48.3-20.8
			c18.4-0.3,35.7,6.6,48.9,19.4c10.8,10.5,17.7,23.9,20,38.6l11.6-0.2l-0.1-10.4l26,19.8l-25.4,20.6l-0.1-10.4L839.1,98.2z"/>
		<path class="st2" d="M741.9,138.4c-6-5.8-10.8-12.6-14.3-19.9c6.8,0.9,13.9-0.5,20-3.9c2.2,3.6,4.8,6.9,7.8,9.8
			c9.4,9.2,21.8,14.1,35,13.9c13.1-0.2,25.4-5.5,34.6-14.9l14,13.6c-12.8,13.2-30,20.6-48.3,20.8C772.4,158.1,755,151.2,741.9,138.4
			z"/>
	</g>
	<g class="st0">
		<path class="st3" d="M741.1,464.1c-4.9-4.8-9-10.1-12.2-15.9c6.8,0.2,13.6-1.8,19.4-5.8c1.9,2.7,4,5.3,6.5,7.7
			c9.4,9.2,21.9,14.1,35,13.9c13.1-0.2,25.4-5.5,34.6-14.9l14,13.6c-12.8,13.2-30,20.6-48.3,20.8
			C771.6,483.8,754.3,476.9,741.1,464.1z"/>
		<path class="st3" d="M838.3,423.9l-0.1-9.8c-0.2-13.1-5.5-25.4-14.9-34.6c-9.4-9.2-21.8-14.1-35-13.9
			c-13.1,0.2-25.4,5.5-34.6,14.9c-2.4,2.4-4.4,5.1-6.2,7.9c-5.9-3.9-12.8-5.6-19.5-5.2c3.1-5.9,7-11.4,11.8-16.2
			c12.8-13.2,30-20.6,48.3-20.8c18.4-0.3,35.7,6.6,48.9,19.4c10.8,10.5,17.7,23.9,20,38.6l11.6-0.2l-0.1-10.4l26,19.8l-25.4,20.6
			l-0.1-10.4L838.3,423.9z"/>
	</g>
	<g class="st0">
		<path class="st3" d="M738.9,307.3c-13.2-12.8-20.6-30-20.8-48.3c-0.3-18.4,6.6-35.7,19.4-48.9c8.7-9,19.4-15.2,31.2-18.4
			c-2.1,6.7-2,13.8,0.3,20.4c-6.5,2.5-12.5,6.4-17.5,11.6c-9.2,9.4-14.1,21.8-13.9,35c0.2,13.1,5.5,25.4,14.9,34.6
			c9.4,9.2,21.8,14.1,35,13.9c13.1-0.2,25.4-5.5,34.6-14.9l14,13.6c-12.8,13.2-30,20.6-48.3,20.8C769.4,327,752,320.1,738.9,307.3z"
			/>
		<path class="st3" d="M836.1,267.1l-0.1-9.8c-0.2-12.3-4.9-23.9-13.2-32.9c0.1-0.1,0.2-0.2,0.4-0.4c4.9-5.1,7.9-11.4,8.8-17.9
			c0.9,0.8,1.9,1.7,2.7,2.5c10.8,10.5,17.7,23.9,20,38.6l11.6-0.2l-0.1-10.4l26,19.8l-25.4,20.6l-0.1-10.4L836.1,267.1z"/>
	</g>
	<g class="st0">
		<g class="st4">
			<path class="st5" d="M833.7,98.3l-0.1-9.8c-0.2-13.1-5.5-25.4-14.9-34.6c-9.4-9.2-21.8-14.1-35-13.9
				c-13.1,0.2-25.4,5.5-34.6,14.9c-1.5,1.5-2.8,3.1-4,4.7c-5.8-4.1-12.7-6.1-19.5-5.9c2.7-4.4,5.9-8.6,9.6-12.4
				c12.8-13.2,30-20.6,48.3-20.8c18.4-0.3,35.7,6.6,48.9,19.4c10.8,10.5,17.7,23.9,20,38.6l11.6-0.2l-0.1-10.4l26,19.8l-25.4,20.6
				l-0.1-10.4L833.7,98.3z"/>
			<path class="st6" d="M736.5,138.5c-6-5.8-10.8-12.6-14.3-19.9c6.8,0.9,13.9-0.5,20-3.9c2.2,3.6,4.8,6.9,7.8,9.8
				c9.4,9.2,21.8,14.1,35,13.9c13.1-0.2,25.4-5.5,34.6-14.9l14,13.6c-12.8,13.2-30,20.6-48.3,20.8
				C767,158.2,749.7,151.3,736.5,138.5z"/>
		</g>
	</g>
	<g class="st0">
		<g>
			<circle class="st13" cx="799.7" cy="201.4" r="28.4"/>
			<g class="st4">
				<path class="st8" d="M800.2,230.2c7.4-0.1,14.7-3,20.3-8.7l0,0c11.1-11.4,10.8-29.7-0.6-40.8c-5.5-5.4-12.8-8.3-20.5-8.2
					c0,0,0,0,0,0c-7.7,0.1-14.9,3.2-20.3,8.7c-11.1,11.4-10.8,29.7,0.6,40.8C785.3,227.6,792.8,230.3,800.2,230.2z M819.7,220.8
					c-10.7,11-28.4,11.3-39.4,0.6c-11-10.7-11.3-28.4-0.6-39.4c5.2-5.3,12.1-8.3,19.6-8.4c7.4-0.1,14.5,2.7,19.8,7.9
					C830.2,192.1,830.5,209.8,819.7,220.8L819.7,220.8z"/>
			</g>
		</g>
		<circle class="st5" cx="799.7" cy="201.4" r="18.2"/>
	</g>
	<text transform="matrix(0.9999 -1.016794e-02 1.016794e-02 0.9999 762.4669 101.9105)" class="st9 st10 st11 st12">04</text>
	<text transform="matrix(1 0 0 1 760.0817 273.4262)" class="st9 st10 st11 st12">05</text>
	<g class="st0">
		<g class="st4">
			<circle class="st7" cx="726.3" cy="86.3" r="28.4"/>
			<g>
				<path class="st8" d="M755.2,85.9c-0.1-7.4-3-14.7-8.7-20.3c-5.5-5.4-12.8-8.3-20.5-8.2c-7.7,0.1-14.9,3.2-20.3,8.7
					c-11.1,11.4-10.8,29.7,0.6,40.8c5.5,5.4,12.8,8.3,20.5,8.2c7.7-0.1,14.9-3.2,20.3-8.7C752.6,100.7,755.3,93.3,755.2,85.9z
					 M698.5,86.7c-0.1-7.1,2.5-14.3,7.9-19.8c5.2-5.3,12.1-8.3,19.6-8.4c7.4-0.1,14.5,2.7,19.8,7.9c11,10.7,11.3,28.4,0.6,39.4l0,0
					c-5.2,5.3-12.1,8.3-19.6,8.4c-7.4,0.1-14.5-2.7-19.8-7.9C701.4,100.9,698.6,93.8,698.5,86.7z"/>
			</g>
		</g>
		<circle class="st3" cx="726.3" cy="86.3" r="18.2"/>
	</g>
	<g class="st0">
		<g class="st4">
			
				<ellipse transform="matrix(0.9212 -0.389 0.389 0.9212 -104.2179 316.5882)" class="st7" cx="729.7" cy="415.7" rx="28.4" ry="28.4"/>
			<g>
				<path class="st8" d="M758.6,415.2c-0.1-7.7-3.2-14.9-8.7-20.3s-12.8-8.3-20.5-8.2c-7.7,0.1-14.9,3.2-20.3,8.7
					s-8.3,12.8-8.2,20.5c0.1,7.7,3.2,14.9,8.7,20.3s12.8,8.3,20.5,8.2c7.7-0.1,14.9-3.2,20.3-8.7C755.8,430.3,758.7,423,758.6,415.2
					z M701.8,416c-0.1-7.4,2.7-14.5,7.9-19.8c5.2-5.3,12.1-8.3,19.6-8.4c7.4-0.1,14.5,2.7,19.8,7.9c5.3,5.2,8.3,12.1,8.4,19.6
					s-2.7,14.5-7.9,19.8s-12.1,8.3-19.6,8.4c-7.4,0.1-14.5-2.7-19.8-7.9C704.9,430.5,701.9,423.5,701.8,416z"/>
			</g>
		</g>
	</g>
	<g class="st0">
		
			<rect x="902.7" y="412.4" transform="matrix(0.9999 -1.412220e-02 1.412220e-02 0.9999 -5.7383 13.1238)" class="st15" width="47.4" height="1"/>
	</g>
	<g class="st0">
		
			<rect x="900.5" y="255.4" transform="matrix(0.9999 -1.412220e-02 1.412220e-02 0.9999 -3.5215 13.0769)" class="st15" width="47.4" height="1"/>
	</g>
	<g class="st0">
		
			<rect x="898.1" y="86.1" transform="matrix(0.9999 -1.412220e-02 1.412220e-02 0.9999 -1.1305 13.0262)" class="st15" width="47.4" height="1"/>
	</g>
	<g id="XMLID_1_" class="st0">
		<g id="XMLID_10_" class="st4">
			<path class="st19" d="M49.2,71.1c1.7,0,2.8,0.5,3.6,1.2c1,1.1,1.3,2.8,1.3,4.7c0,1.5-0.5,2.9-1.3,4c-0.9,1.2-2.2,1.9-3.6,1.9
				c-2.7,0-4.9-2.6-4.9-5.9S45.1,71.1,49.2,71.1 M49.2,70.4c-5,0-5.6,3.6-5.6,6.6c0,3.7,2.5,6.6,5.6,6.6c1.6,0,3.1-0.8,4.2-2.2
				c0.9-1.2,1.4-2.8,1.4-4.4c0-1.7-0.2-3.8-1.5-5.2C52.4,70.9,51,70.4,49.2,70.4L49.2,70.4z"/>
		</g>
		<g id="XMLID_3_" class="st4">
			<path class="st19" d="M51.9,83.7c0.3,0.1,0.6,0.1,0.9,0.2c4.8,1,5.5,2.8,5.6,8.1c0,0.3,0,0.4,0,0.4c0,0,0,0,0,0
				c0,0.1,0,0.2,0,0.4c0,0-0.9,1.8-5.6,2.5c-1,0.1-2.2,0.2-3.6,0.2c-7.8,0-9.2-2.7-9.2-2.7c0-0.3,0-0.5,0-0.6c0,0,0,0,0,0
				c0,0,0-0.1,0-0.4c0.1-5.5,0.9-7.1,6.5-8.1c0,0,0.8,1,2.7,1C51.1,84.7,51.9,83.7,51.9,83.7 M58.4,92.4L58.4,92.4 M51.9,82.9
				c-0.2,0-0.4,0.1-0.6,0.3c0,0-0.7,0.7-2.1,0.7c-1.4,0-2.1-0.7-2.1-0.7c-0.1-0.2-0.4-0.3-0.6-0.3c0,0-0.1,0-0.1,0
				c-6,1.1-7,3.1-7.1,8.9c0,0.2,0,0.3,0,0.3c0,0,0,0.1,0,0.1l0,0.6c0,0.1,0,0.2,0.1,0.3c0.2,0.3,1.8,3.1,9.8,3.1
				c1.3,0,2.5-0.1,3.7-0.2c4.9-0.7,6.1-2.7,6.2-2.9c0.1-0.1,0.1-0.2,0.1-0.3l0-0.3l0-0.1c0,0,0,0,0-0.1c0,0,0-0.1,0-0.1
				c0-0.1,0-0.2,0-0.3c-0.1-5.7-1-7.7-6.2-8.9C52.6,83,52.3,83,52,82.9C51.9,82.9,51.9,82.9,51.9,82.9L51.9,82.9z"/>
		</g>
		<path class="st20" d="M53.5,81.1l3.3,1.1c1.8-3.9,1.3-8.2-1.1-10.9c-1.9-2.1-4.3-2.7-5.3-2.8c-1.4-0.1-3.3,0-5.2,1
			c-3.6,2.1-5.3,7.2-4.1,12.7c1.2-0.5,2.3-1.1,3.5-1.6"/>
	</g>
	<circle class="st14" cx="730.4" cy="415.9" r="18.2"/>
	<g class="st21">
		
			<ellipse transform="matrix(0.9999 -1.412222e-02 1.412222e-02 0.9999 -3.5435 1.7385)" class="st22" cx="121.3" cy="251.8" rx="40.4" ry="40.4"/>
		<path class="st22" d="M274.3,268.9l-0.2-13.9c-0.3-18.7-7.8-36.2-21.2-49.2c-13.4-13-31.1-20.1-49.8-19.8
			c-18.7,0.3-36.2,7.8-49.2,21.2c-2.1,2.1-4,4.4-5.8,6.8c-8.3-5.9-18.1-8.7-27.8-8.4c3.8-6.3,8.4-12.3,13.7-17.7
			c18.2-18.7,42.6-29.3,68.8-29.6c26.1-0.4,50.8,9.5,69.6,27.7c15.4,14.9,25.2,34.1,28.5,54.9l16.5-0.2l-0.2-14.9l37,28.2
			l-36.2,29.3l-0.2-14.9L274.3,268.9z"/>
		<path class="st22" d="M135.8,326.1c-8.5-8.3-15.4-17.9-20.3-28.4c9.7,1.2,19.8-0.6,28.5-5.6c3.1,5.1,6.8,9.8,11.2,14
			c13.4,13,31.1,20.1,49.8,19.8c18.7-0.3,36.2-7.8,49.2-21.2l19.9,19.4c-18.2,18.7-42.6,29.3-68.8,29.6
			C179.3,354.2,154.6,344.3,135.8,326.1z"/>
	</g>
	<g>
		<g>
			<path class="st23" d="M266.6,269l-0.2-13.9c-0.3-18.7-7.8-36.2-21.2-49.2c-13.4-13-31.1-20.1-49.8-19.8
				c-18.7,0.3-36.2,7.8-49.2,21.2c-2.1,2.1-4,4.4-5.8,6.8c-8.3-5.9-18.1-8.7-27.8-8.4c3.8-6.3,8.4-12.3,13.7-17.7
				c18.2-18.7,42.6-29.3,68.8-29.6c26.1-0.4,50.8,9.5,69.6,27.7c15.4,14.9,25.2,34.1,28.5,54.9l16.5-0.2l-0.2-14.9l37,28.2
				l-36.2,29.3l-0.2-14.9L266.6,269z"/>
			<path class="st23" d="M128.2,326.2c-8.5-8.3-15.4-17.9-20.3-28.4c9.7,1.2,19.8-0.6,28.5-5.6c3.1,5.1,6.8,9.8,11.2,14
				c13.4,13,31.1,20.1,49.8,19.8c18.7-0.3,36.2-7.8,49.2-21.2l19.9,19.4c-18.2,18.7-42.6,29.3-68.8,29.6
				C171.6,354.3,146.9,344.5,128.2,326.2z"/>
		</g>
	</g>
	<text transform="matrix(1 0 0 1 172.7867 266.0589)" class="st9 st10 st11 st12">06</text>
	<text transform="matrix(0.9999 -1.016794e-02 1.016794e-02 0.9999 163.5738 274.6873)" class="st8 st10 st24 st25">02</text>
	<g>
		<g>
			<rect x="442.1" y="169.2" class="st26" width="481.5" height="166.4"/>
			<rect x="495.3" y="209.1" class="st16" width="365.5" height="174.9"/>
			<text transform="matrix(1 0 0 1 495.3382 226.149)" class="st0"><tspan x="0" y="0" class="st4 st17 st18">Conduct student teaching programs </tspan><tspan x="0" y="28.8" class="st4 st17 st18">and  give learning opportunity to </tspan><tspan x="0" y="57.6" class="st4 st17 st18">underprivileged girls and boys </tspan></text>
			<rect x="496.5" y="209.7" class="st16" width="381.9" height="108.9"/>
			<text transform="matrix(1 0 0 1 496.5309 226.747)" class="st0"><tspan x="0" y="0" class="st4 st17 st18">Conduct awareness campaigns and </tspan><tspan x="0" y="28.8" class="st4 st17 st18">cleanliness drives as part of our duty </tspan><tspan x="0" y="57.6" class="st4 st17 st18">towards the society and environment</tspan></text>
			
				<ellipse transform="matrix(0.9212 -0.389 0.389 0.9212 -88.8406 64.3414)" class="st7" cx="114.5" cy="251.6" rx="40.4" ry="40.4"/>
			<g>
				<path class="st8" d="M155.6,251c-0.2-11-4.6-21.2-12.5-28.9c-7.9-7.7-18.3-11.8-29.2-11.6c-11,0.2-21.2,4.6-28.9,12.5
					c-7.7,7.9-11.8,18.3-11.6,29.2c0.2,11,4.6,21.2,12.5,28.9s18.3,11.8,29.2,11.6c11-0.2,21.2-4.6,28.9-12.5
					C151.6,272.3,155.7,262,155.6,251z M74.8,252.1c-0.1-10.6,3.8-20.6,11.2-28.2c7.4-7.6,17.3-11.9,27.9-12
					c10.6-0.1,20.6,3.8,28.2,11.2c7.6,7.4,11.9,17.3,12,27.9c0.1,10.6-3.8,20.6-11.2,28.2c-7.4,7.6-17.3,11.9-27.9,12
					c-10.6,0.1-20.6-3.8-28.2-11.2S74.9,262.7,74.8,252.1z"/>
			</g>
		</g>
		<circle class="st23" cx="114.5" cy="251.6" r="25.9"/>
		<g class="st0">
			<g class="st4">
				<path class="st7" d="M93.8,233.3c0,0,0.1,0,0.1,0l0,0l18.9,2l18.8-2.6c0.5-0.1,0.9,0.3,1,0.8c0,0,0,0.1,0,0.1l0.2,12.9
					c2.8,2.9,2.9,7.5,0.4,10.6l6.8,6.6c0.4,0.3,0.4,0.9,0.1,1.2c-0.3,0.4-0.9,0.4-1.3,0.1c0,0-0.1-0.1-0.1-0.1l-5.8-5.7l0.1,4.4
					c0,0.5-0.3,0.8-0.8,0.9l-18.9,2.6l-0.2,0l-19-2c-0.5,0-0.8-0.4-0.8-0.9l-0.4-30.1C92.9,233.7,93.3,233.3,93.8,233.3z
					 M131.3,247.6C131.3,247.6,131.3,247.6,131.3,247.6c-2.6-2.5-6.6-2.4-9.1,0.1c-2.5,2.5-2.4,6.6,0.1,9c2.5,2.4,6.5,2.4,9-0.1
					C133.8,254.1,133.8,250.1,131.3,247.6z M114.1,265.4l17.1-2.3l-0.1-4c-3.8,2.4-8.8,1.3-11.2-2.5c-2.4-3.8-1.3-8.8,2.5-11.2
					c2.6-1.6,5.9-1.7,8.5-0.1l-0.1-10.5l-17.1,2.3L114.1,265.4z M95.1,263.5l17.2,1.8l-0.4-28.3l-17.2-1.8L95.1,263.5z"/>
				<path class="st7" d="M129,241.8L129,241.8l-12.4,1.7l-0.1,0c-0.5,0-0.9-0.3-1-0.8c0-0.5,0.3-0.9,0.8-0.9l12.4-1.7
					c0.5-0.1,0.9,0.3,1,0.8C129.8,241.2,129.5,241.7,129,241.8z"/>
				<path class="st7" d="M109.6,243.5L109.6,243.5l-12.5-1.3c-0.5-0.1-0.8-0.5-0.8-1c0.1-0.5,0.5-0.8,1-0.8l12.4,1.3
					c0.5,0,0.9,0.4,0.8,0.9C110.5,243.2,110.1,243.6,109.6,243.5z"/>
				<path class="st7" d="M109.7,251L109.7,251l-12.5-1.3c-0.5,0-0.8-0.5-0.8-1c0.1-0.5,0.5-0.8,1-0.8l12.4,1.3
					c0.5,0,0.9,0.4,0.8,0.9C110.6,250.6,110.2,251,109.7,251z"/>
				<path class="st7" d="M109.8,258.5L109.8,258.5l-12.5-1.3c-0.5-0.1-0.8-0.5-0.8-1c0.1-0.5,0.5-0.8,1-0.8l12.4,1.3
					c0.5,0,0.9,0.4,0.8,0.9C110.7,258.1,110.3,258.5,109.8,258.5z"/>
			</g>
		</g>
		<g>
			<g>
				<path class="st7" d="M113.6,238.9c4.9-0.1,8,2.4,8.1,6.5c0,0.5-0.4,0.8-0.8,0.9l-14.3,0.2c-0.5,0-0.8-0.4-0.9-0.8
					C105.6,241.6,108.7,239,113.6,238.9L113.6,238.9z M119.9,244.6c-0.6-3.8-4.9-4-6.3-4c-1.4,0-5.7,0.4-6.2,4.2L119.9,244.6z
					 M119.9,244.6"/>
				<path class="st7" d="M113.5,230.1c2.2,0,4,1.7,4.1,3.9c0,2.2-1.7,4-3.9,4c-2.2,0-4-1.7-4-3.9C109.5,232,111.3,230.1,113.5,230.1
					L113.5,230.1z M113.5,236.4c1.3,0,2.3-1.1,2.3-2.3c0-1.3-1.1-2.3-2.3-2.3c-1.3,0-2.3,1.1-2.3,2.3
					C111.2,235.4,112.3,236.4,113.5,236.4L113.5,236.4z M113.5,236.4"/>
				<path class="st7" d="M128.1,258.1c4.9-0.1,8,2.4,8.1,6.5c0,0.5-0.4,0.9-0.8,0.9l-14.3,0.2c-0.5,0-0.8-0.4-0.9-0.8
					C120.2,260.7,123.2,258.1,128.1,258.1L128.1,258.1z M134.5,263.7c-0.6-3.8-4.9-4-6.3-4c-1.4,0-5.7,0.4-6.2,4.2L134.5,263.7z
					 M134.5,263.7"/>
				<path class="st7" d="M128,249.2c2.2,0,4,1.7,4,3.9c0,2.2-1.7,4-3.9,4c-2.2,0-4-1.7-4-3.9C124.1,251.1,125.8,249.3,128,249.2
					L128,249.2z M128.1,255.5c1.3,0,2.3-1.1,2.3-2.3c0-1.3-1.1-2.3-2.3-2.3c-1.3,0-2.3,1.1-2.3,2.3
					C125.8,254.5,126.8,255.6,128.1,255.5L128.1,255.5z M128.1,255.5"/>
				<path class="st7" d="M99.6,258.5c4.9-0.1,8,2.4,8.1,6.5c0,0.5-0.4,0.9-0.8,0.9L92.5,266c-0.5,0-0.8-0.4-0.9-0.8
					C91.6,261.1,94.7,258.5,99.6,258.5L99.6,258.5z M105.9,264.1c-0.6-3.8-4.9-4-6.3-4c-1.4,0-5.7,0.4-6.2,4.2L105.9,264.1z
					 M105.9,264.1"/>
				<path class="st7" d="M99.4,249.6c2.2,0,4,1.7,4.1,3.9c0,2.2-1.7,4-3.9,4c-2.2,0-4-1.7-4-3.9C95.5,251.5,97.2,249.7,99.4,249.6
					L99.4,249.6z M99.5,255.9c1.3,0,2.3-1.1,2.3-2.3c0-1.3-1.1-2.3-2.3-2.3c-1.3,0-2.3,1.1-2.3,2.3C97.2,254.9,98.3,256,99.5,255.9
					L99.5,255.9z M99.5,255.9"/>
				<path class="st7" d="M109.5,256.9l3.5-3.6l-0.1-5c0-0.5,0.4-0.8,0.8-0.9c0.5,0,0.9,0.4,0.9,0.8l0.1,5l3.5,3.5
					c0.3,0.3,0.3,0.9,0,1.2c-0.3,0.3-0.9,0.3-1.2,0l-3.2-3.1l-3.1,3.2c-0.4,0.3-0.9,0.3-1.2-0.1
					C109.2,257.6,109.2,257.2,109.5,256.9L109.5,256.9z M109.5,256.9"/>
			</g>
		</g>
	</g>
	<g>
		
			<rect x="358.2" y="251.6" transform="matrix(0.9999 -1.412220e-02 1.412220e-02 0.9999 -3.5239 5.5608)" class="st8" width="67.5" height="1.4"/>
	</g>
	<g id="XMLID_2_">
		<g>
			<g>
				<rect x="498.3" y="208.7" class="st16" width="375.7" height="101.9"/>
				<text transform="matrix(1 0 0 1 498.2648 225.7679)"><tspan x="0" y="0" class="st17 st18">Host </tspan><tspan x="51.4" y="0" class="st17 st18">w</tspan><tspan x="68.8" y="0" class="st17 st18">ebinars and talks </tspan><tspan x="241.9" y="0" class="st17 st18">b</tspan><tspan x="255.4" y="0" class="st17 st18">y es</tspan><tspan x="293.4" y="0" class="st17 st18">t</tspan><tspan x="301.1" y="0" class="st17 st18">eemed </tspan><tspan x="0" y="28.8" class="st17 st18">w</tspan><tspan x="17.4" y="28.8" class="st17 st18">omen p</tspan><tspan x="94.7" y="28.8" class="st17 st18">r</tspan><tspan x="102.3" y="28.8" class="st17 st18">o</tspan><tspan x="115.5" y="28.8" class="st17 st18">f</tspan><tspan x="122.2" y="28.8" class="st17 st18">essionals a</tspan><tspan x="228.7" y="28.8" class="st17 st18">r</tspan><tspan x="236.3" y="28.8" class="st17 st18">ound the </tspan><tspan x="0" y="57.6" class="st17 st18">w</tspan><tspan x="17.4" y="57.6" class="st17 st18">o</tspan><tspan x="30.6" y="57.6" class="st17 st18">r</tspan><tspan x="38.5" y="57.6" class="st17 st18">ld </tspan><tspan x="62.8" y="57.6" class="st17 st18">t</tspan><tspan x="70.6" y="57.6" class="st17 st18">o inspi</tspan><tspan x="136.6" y="57.6" class="st17 st18">r</tspan><tspan x="144.2" y="57.6" class="st17 st18">e the </tspan><tspan x="199.7" y="57.6" class="st17 st18">y</tspan><tspan x="210.8" y="57.6" class="st17 st18">outh </tspan></text>
				<g class="st0">
					<g class="st4">
						<g>
							<g>
								<path class="st7" d="M112.5,239.3c6-0.1,11,4.7,11,10.7c0,3.9-1.9,7.6-5,10l0.1,7.9c0,0.1,0,0.2,0,0.3l0,0.1
									c0,0,0,0.1,0,0.1l-2.7,4.1c-0.1,0.2-0.4,0.3-0.6,0.3l-4.5,0.1c-0.3,0-0.5-0.1-0.6-0.3l-2.8-4c0,0,0-0.1-0.1-0.1l0-0.1
									c0-0.1-0.1-0.2-0.1-0.3l-0.1-7.9c-3.2-2.2-5.2-5.9-5.3-9.8C101.8,244.4,106.5,239.5,112.5,239.3L112.5,239.3z M111.1,271.3
									l3.7-0.1l1.6-2.5l-7,0.1L111.1,271.3z M117.1,267.1l0-2l-8.4,0.1l0,2L117.1,267.1z M108.2,259.1L108.2,259.1
									c0.2,0.2,0.4,0.4,0.4,0.7l0.1,3.9l8.4-0.1l-0.1-4c0-0.3,0.1-0.5,0.3-0.7c2.9-2,4.7-5.3,4.7-8.9c-0.2-5.2-4.6-9.2-9.7-8.9
									c-4.9,0.2-8.9,4.2-8.9,9.2C103.4,253.9,105.2,257.2,108.2,259.1L108.2,259.1z M108.2,259.1"/>
								<path class="st7" d="M112.2,242.8c0.4,0,0.8,0.3,0.8,0.8c0,0.4-0.3,0.8-0.8,0.8c-3.2,0-5.8,2.7-5.7,5.9
									c0,0.4-0.3,0.8-0.8,0.8c-0.4,0-0.8-0.3-0.8-0.8C104.9,246.2,108.2,242.9,112.2,242.8L112.2,242.8z M112.2,242.8"/>
								<path class="st7" d="M125.6,249.2l5.6-0.1c0.4,0,0.8,0.3,0.8,0.8c0,0.4-0.3,0.8-0.8,0.8l-5.6,0.1c-0.4,0-0.8-0.3-0.8-0.8
									C124.8,249.6,125.2,249.2,125.6,249.2L125.6,249.2z M125.6,249.2"/>
								<path class="st7" d="M94.1,249.7l5.6-0.1c0.4,0,0.8,0.3,0.8,0.8c0,0.4-0.3,0.8-0.8,0.8l-5.6,0.1c-0.4,0-0.8-0.3-0.8-0.8
									C93.4,250,93.7,249.7,94.1,249.7L94.1,249.7z M94.1,249.7"/>
								<path class="st7" d="M121.3,258.7c0.3-0.3,0.8-0.4,1.1-0.1c0,0,0.1,0.1,0.1,0.1l0,0l4,3.9c0.3,0.3,0.4,0.8,0.1,1.1
									c-0.3,0.3-0.8,0.4-1.1,0.1c0,0-0.1-0.1-0.1-0.1l-4-3.9C121.1,259.5,121.1,259,121.3,258.7L121.3,258.7z M121.3,258.7"/>
								<path class="st7" d="M98.9,236.7c0.3-0.2,0.7-0.3,1,0l4,3.9c0.3,0.3,0.3,0.8,0,1.1c-0.1,0.1-0.3,0.2-0.5,0.2l0,0
									c-0.2,0-0.4-0.1-0.6-0.2l-4-3.9C98.5,237.5,98.6,237,98.9,236.7L98.9,236.7z M98.9,236.7"/>
								<path class="st7" d="M99,263.1c0-0.1,0.1-0.1,0.1-0.2l3.9-4c0.3-0.3,0.8-0.4,1.1-0.1c0.3,0.3,0.4,0.8,0.1,1.1
									c0,0-0.1,0.1-0.1,0.1l-3.9,4c-0.2,0.3-0.7,0.4-1.1,0.2C98.9,263.9,98.8,263.5,99,263.1L99,263.1z M99,263.1"/>
								<path class="st7" d="M121.1,240.3l3.9-4c0.3-0.3,0.8-0.3,1.1,0.1c0.3,0.3,0.3,0.7,0,1l-3.9,4c-0.3,0.3-0.8,0.3-1.1-0.1
									C120.9,241.1,120.9,240.6,121.1,240.3L121.1,240.3z M121.1,240.3"/>
								<path class="st7" d="M112.4,231.1c0.4,0,0.8,0.3,0.8,0.8l0.1,5.6c0,0.4-0.3,0.8-0.7,0.8c0,0,0,0,0,0c-0.4,0-0.8-0.3-0.8-0.8
									l-0.1-5.6C111.6,231.5,112,231.1,112.4,231.1L112.4,231.1z M112.4,231.1"/>
							</g>
						</g>
					</g>
				</g>
				<path class="st27" d="M102.6,241.9c6.1-0.1,10,3,10.1,8.1c0,0.6-0.5,1.1-1.1,1.1l-17.7,0.2c-0.6,0-1.1-0.5-1.1-1
					C92.7,245.1,96.4,241.9,102.6,241.9L102.6,241.9z M110.4,248.9c-0.8-4.7-6.1-5-7.8-5c-1.7,0-7.1,0.5-7.7,5.2L110.4,248.9z
					 M110.4,248.9"/>
				<path class="st27" d="M102.4,230.9c2.7,0,5,2.2,5,4.9c0,3-2.6,5.5-5.8,5c-2-0.3-3.7-1.9-4.1-3.9
					C97,233.7,99.3,230.9,102.4,230.9L102.4,230.9z M102.5,238.7c1.6,0,2.9-1.3,2.8-2.9c0-1.6-1.3-2.9-2.9-2.8
					c-1.6,0-2.9,1.3-2.8,2.9C99.6,237.5,100.9,238.7,102.5,238.7L102.5,238.7z M102.5,238.7"/>
				<path class="st27" d="M120.6,259.9c6.1-0.1,10,3,10.1,8.1c0,0.6-0.5,1-1.1,1.1l-17.7,0.2c-0.6,0-1.1-0.5-1.1-1
					C110.7,263.2,114.5,260,120.6,259.9L120.6,259.9z M128.5,267c-0.8-4.7-6.1-5-7.8-5c-1.7,0-7.1,0.5-7.7,5.2L128.5,267z
					 M128.5,267"/>
				<path class="st27" d="M120.4,248.9c3.2,0,5.8,3,4.8,6.5c-0.4,1.5-1.6,2.7-3.1,3.2c-3.4,1.1-6.6-1.4-6.6-4.6
					C115.5,251.2,117.7,249,120.4,248.9L120.4,248.9z M120.6,256.8c1.6,0,2.9-1.3,2.8-2.9c0-1.6-1.3-2.9-2.9-2.8
					c-1.6,0-2.9,1.3-2.8,2.9C117.7,255.5,119,256.8,120.6,256.8L120.6,256.8z M120.6,256.8"/>
			</g>
		</g>
		<g id="XMLID_7_" class="st0">
			<path class="st13" d="M115.1,234.6c2.4,0,4,0.7,5.1,1.7c1.5,1.5,1.8,3.9,1.8,6.7c0,2.2-0.7,4.2-1.8,5.7c-1.3,1.7-3.1,2.7-5.1,2.7
				c-3.8,0-6.9-3.8-6.9-8.4S109.2,234.6,115.1,234.6 M115.1,233.9c-6.8,0-7.7,4.6-7.7,9.1c0,5,3.4,9.1,7.7,9.1c2.2,0,4.2-1.1,5.7-3
				c1.3-1.7,2-3.9,2-6.1c0-2.4-0.2-5.3-2-7.2C119.5,234.5,117.6,233.9,115.1,233.9L115.1,233.9z"/>
		</g>
		<g id="XMLID_5_" class="st0">
			<path class="st13" d="M118.9,252.4c0.5,0.1,0.9,0.2,1.3,0.3c6.9,1.5,7.8,4,8,11.6c0,0.4,0,0.6,0,0.6c0,0,0,0,0,0
				c0,0.1,0,0.3,0,0.6c0,0-1.3,2.6-8,3.5c-1.4,0.2-3.1,0.3-5.1,0.3c-11.1,0-13.1-3.9-13.1-3.9c0-0.5,0-0.7,0-0.8c0,0,0,0,0,0
				c0,0,0-0.1,0-0.6c0.1-7.9,1.3-10.1,9.2-11.6c0,0,1.1,1.4,3.8,1.4C117.8,253.9,118.9,252.4,118.9,252.4 M128.2,264.8L128.2,264.8
				 M118.9,251.7c-0.2,0-0.4,0.1-0.6,0.3c0,0.1-1,1.2-3.2,1.2c-2.2,0-3.2-1.1-3.2-1.2c-0.1-0.2-0.4-0.3-0.6-0.3c0,0-0.1,0-0.1,0
				c-8.4,1.5-9.7,4.1-9.9,12.3c0,0.3,0,0.4,0,0.5c0,0,0,0.1,0,0.1l0,0.8c0,0.1,0,0.2,0.1,0.3c0.1,0.2,2.3,4.3,13.7,4.3
				c1.9,0,3.6-0.1,5.2-0.3c6.9-1,8.4-3.6,8.5-4c0.1-0.1,0.1-0.2,0.1-0.3l0-0.4l0-0.1c0,0,0,0,0-0.1c0,0,0-0.1,0-0.1
				c0-0.1,0-0.2,0-0.5c-0.1-8-1.3-10.7-8.6-12.3c-0.4-0.1-0.9-0.2-1.3-0.3C119,251.7,119,251.7,118.9,251.7L118.9,251.7z"/>
		</g>
		<path class="st28" d="M130.7,271.7c-0.6-1.1-1.2-2.6-1.7-4.4c-0.5-1.9-0.8-2.8-0.6-4c0.2-0.9,0.5-1.5,2.5-4.1
			c2.7-3.5,3-3.6,3.5-4.5c0.5-1.1,1.1-3,0.7-5.7c-0.5-2.2-1.1-4.4-1.6-6.7l-8.7-12.5c-0.4-0.8-1.4-1.2-2.2-0.9
			c-0.8,0.4-1.3,1.3-0.9,2.2c1.7,3,3.4,6,5.1,9c0.1,0,1,0,1.7,0.7c0.7,0.7,0.7,1.6,0.7,1.7c0,3.4,0.1,6.9,0.1,10.3"/>
		<path class="st29" d="M121.2,248.8l4.7,1.6c2.5-5.5,1.9-11.6-1.6-15.5c-2.6-3-6.1-3.8-7.5-4c-2-0.2-4.8,0-7.4,1.5
			c-5.1,3-7.6,10.3-5.8,18.1c1.7-0.7,3.3-1.5,5-2.2"/>
		<path class="st28" d="M97.6,271.5c0.6-1.1,1.2-2.6,1.7-4.4c0.5-1.9,0.8-2.8,0.6-4c-0.2-0.9-0.5-1.5-2.5-4.1
			c-2.7-3.5-3-3.6-3.5-4.5c-0.5-1.1-1.1-3-0.7-5.7c0.5-2.2,1.1-4.4,1.6-6.7l8.7-12.5c0.4-0.8,1.4-1.2,2.2-0.9
			c0.8,0.4,1.3,1.3,0.9,2.2c-1.7,3-3.4,6-5.1,9c-0.1,0-1,0-1.7,0.7c-0.7,0.7-0.7,1.6-0.7,1.7c0,3.4-0.1,6.9-0.1,10.3"/>
		<path class="st28" d="M109.9,271.9l0.5-13.3c0-0.6-0.1-2.6-1.5-4.5c-1.5-2-3.4-2.6-4-2.8c-0.3-1.7-0.4-3-0.5-3.9
			c-0.2-2.7,0-3.8-0.8-5.2c-0.6-1.1-1.4-1.9-2-2.3"/>
		<path class="st28" d="M118.4,272.1l-0.5-13.3c0-0.6,0.1-2.6,1.5-4.5c1.5-2,3.4-2.6,4-2.8c0.3-1.7,0.4-3,0.5-3.9
			c0.2-2.7,0-3.8,0.8-5.2c0.6-1.1,1.4-1.9,2-2.3"/>
		<polygon class="st27" points="114.6,250.1 114.5,249.9 114.6,249.7 114.8,249.9 		"/>
		<path class="st28" d="M114.9,249.6l-7.3-7.5c-1.1-1.9-0.8-4.2,0.6-5.5c1.7-1.6,4.7-1.6,6.6,0.5"/>
		<path class="st28" d="M114.4,237c1.8-2,4.9-2.1,6.6-0.5c1.4,1.3,1.7,3.6,0.6,5.5l-7.3,7.6"/>
	</g>
	
		<rect x="114.3" y="236.9" transform="matrix(0.7071 -0.7071 0.7071 0.7071 -134.1071 150.4446)" class="st27" width="0.6" height="0.5"/>
</g>
</svg>
