<?xml version="1.0" encoding="utf-8"?>
<!-- Generator: Adobe Illustrator 24.2.0, SVG Export Plug-In . SVG Version: 6.00 Build 0)  -->
<svg version="1.1" xmlns="http://www.w3.org/2000/svg" xmlns:xlink="http://www.w3.org/1999/xlink" x="0px" y="0px"
	 viewBox="0 0 1009.8 517.4" style="enable-background:new 0 0 1009.8 517.4;" xml:space="preserve">
<style type="text/css">
	.st0{display:none;}
	.st1{display:none;opacity:0.24;}
	.st2{display:inline;fill:#7A7A7A;}
	.st3{display:inline;fill:#FFE52C;}
	.st4{display:inline;}
	.st5{fill:#FFE52C;}
	.st6{fill:#EFDF4B;}
	.st7{fill:#FFFFFF;}
	.st8{fill:#1D1D1B;}
	.st9{display:none;fill:#1D1D1B;}
	.st10{font-family:'Montserrat-Bold';}
	.st11{font-size:43.2714px;}
	.st12{letter-spacing:2;}
	.st13{display:inline;fill:#1D1D1B;}
	.st14{fill:none;}
	.st15{font-family:'MyriadPro-Regular';}
	.st16{font-size:24px;}
	.st17{fill:#231F20;}
	
		.st18{display:inline;fill:none;stroke:#231F20;stroke-width:0.75;stroke-linecap:round;stroke-linejoin:round;stroke-miterlimit:10;}
	.st19{display:none;fill:#FFE52C;}
	.st20{display:none;fill:none;stroke:#1D1D1B;stroke-miterlimit:10;}
	.st21{opacity:0.24;}
	.st22{fill:#7A7A7A;}
	.st23{fill:#752F8B;}
	.st24{font-size:61.6072px;}
	.st25{letter-spacing:3;}
	.st26{opacity:0.33;fill:#752F8B;}
	.st27{font-size:34.1698px;}
	.st28{fill:none;stroke:#FFFFFF;stroke-width:0.75;stroke-linecap:round;stroke-linejoin:round;stroke-miterlimit:10;}
</style>
<g id="BACKGROUND" class="st0">
</g>
<g id="OBJECTS">
	<g class="st1">
		<path class="st2" d="M68.3,461c-4.9-4.8-9-10.1-12.2-15.9c6.8,0.2,13.6-1.8,19.4-5.8c1.9,2.7,4,5.3,6.5,7.7
			c9.4,9.2,21.9,14.1,35,13.9c13.1-0.2,25.4-5.5,34.6-14.9l14,13.6c-12.8,13.2-30,20.6-48.3,20.8C98.8,480.7,81.5,473.8,68.3,461z"
			/>
		<path class="st2" d="M165.6,420.8l-0.1-9.8c-0.2-13.1-5.5-25.4-14.9-34.6c-9.4-9.2-21.8-14.1-35-13.9
			c-13.1,0.2-25.4,5.5-34.6,14.9c-2.4,2.4-4.4,5.1-6.2,7.9c-5.9-3.9-12.8-5.6-19.5-5.2c3.1-5.9,7-11.4,11.8-16.2
			c12.8-13.2,30-20.6,48.3-20.8c18.4-0.3,35.7,6.6,48.9,19.4c10.8,10.5,17.7,23.9,20,38.6l11.6-0.2l-0.1-10.4l26,19.8l-25.4,20.6
			l-0.1-10.4L165.6,420.8z"/>
		
			<ellipse transform="matrix(0.4792 -0.8777 0.8777 0.4792 -332.4672 264.8139)" class="st2" cx="56.9" cy="412.6" rx="28.4" ry="28.4"/>
	</g>
	<g class="st1">
		<path class="st2" d="M66.1,304.2c-13.2-12.8-20.6-30-20.8-48.3c-0.3-18.4,6.6-35.7,19.4-48.9c8.7-9,19.4-15.2,31.2-18.4
			c-2.1,6.7-2,13.8,0.3,20.4c-6.5,2.5-12.5,6.4-17.5,11.6c-9.2,9.4-14.1,21.8-13.9,35c0.2,13.1,5.5,25.4,14.9,34.6
			c9.4,9.2,21.8,14.1,35,13.9c13.1-0.2,25.4-5.5,34.6-14.9l14,13.6c-12.8,13.2-30,20.6-48.3,20.8C96.6,323.9,79.3,317,66.1,304.2z"
			/>
		<path class="st2" d="M163.3,264l-0.1-9.8c-0.2-12.3-4.9-23.9-13.2-32.9c0.1-0.1,0.2-0.2,0.4-0.4c4.9-5.1,7.9-11.4,8.8-17.9
			c0.9,0.8,1.9,1.7,2.7,2.5c10.8,10.5,17.7,23.9,20,38.6l11.6-0.2l-0.1-10.4l26,19.8L194,274l-0.1-10.4L163.3,264z"/>
		
			<ellipse transform="matrix(0.9999 -1.412220e-02 1.412220e-02 0.9999 -2.7875 1.8131)" class="st2" cx="127" cy="198.3" rx="28.4" ry="28.4"/>
	</g>
	<g class="st1">
		
			<ellipse transform="matrix(0.9999 -1.412220e-02 1.412220e-02 0.9999 -1.1694 0.7645)" class="st2" cx="53.5" cy="83.2" rx="28.4" ry="28.4"/>
		<path class="st2" d="M161,95.2l-0.1-9.8c-0.2-13.1-5.5-25.4-14.9-34.6c-9.4-9.2-21.8-14.1-35-13.9c-13.1,0.2-25.4,5.5-34.6,14.9
			c-1.5,1.5-2.8,3.1-4,4.7c-5.8-4.1-12.7-6.1-19.5-5.9c2.7-4.4,5.9-8.6,9.6-12.4c12.8-13.2,30-20.6,48.3-20.8
			c18.4-0.3,35.7,6.6,48.9,19.4c10.8,10.5,17.7,23.9,20,38.6l11.6-0.2L191,64.8l26,19.8l-25.4,20.6l-0.1-10.4L161,95.2z"/>
		<path class="st2" d="M63.7,135.4c-6-5.8-10.8-12.6-14.3-19.9c6.8,0.9,13.9-0.5,20-3.9c2.2,3.6,4.8,6.9,7.8,9.8
			c9.4,9.2,21.8,14.1,35,13.9c13.1-0.2,25.4-5.5,34.6-14.9l14,13.6c-12.8,13.2-30,20.6-48.3,20.8C94.2,155.1,76.9,148.2,63.7,135.4z
			"/>
	</g>
	<g class="st0">
		<path class="st3" d="M63,461.1c-4.9-4.8-9-10.1-12.2-15.9c6.8,0.2,13.6-1.8,19.4-5.8c1.9,2.7,4,5.3,6.5,7.7
			c9.4,9.2,21.9,14.1,35,13.9c13.1-0.2,25.4-5.5,34.6-14.9l14,13.6c-12.8,13.2-30,20.6-48.3,20.8C93.5,480.8,76.1,473.9,63,461.1z"
			/>
		<path class="st3" d="M160.2,420.9l-0.1-9.8c-0.2-13.1-5.5-25.4-14.9-34.6c-9.4-9.2-21.8-14.1-35-13.9
			c-13.1,0.2-25.4,5.5-34.6,14.9c-2.4,2.4-4.4,5.1-6.2,7.9c-5.9-3.9-12.8-5.6-19.5-5.2c3.1-5.9,7-11.4,11.8-16.2
			c12.8-13.2,30-20.6,48.3-20.8c18.4-0.3,35.7,6.6,48.9,19.4c10.8,10.5,17.7,23.9,20,38.6l11.6-0.2l-0.1-10.4l26,19.8l-25.4,20.6
			l-0.1-10.4L160.2,420.9z"/>
	</g>
	<g class="st0">
		<path class="st3" d="M60.7,304.3c-13.2-12.8-20.6-30-20.8-48.3c-0.3-18.4,6.6-35.7,19.4-48.9c8.7-9,19.4-15.2,31.2-18.4
			c-2.1,6.7-2,13.8,0.3,20.4c-6.5,2.5-12.5,6.4-17.5,11.6c-9.2,9.4-14.1,21.8-13.9,35c0.2,13.1,5.5,25.4,14.9,34.6
			c9.4,9.2,21.8,14.1,35,13.9c13.1-0.2,25.4-5.5,34.6-14.9l14,13.6c-12.8,13.2-30,20.6-48.3,20.8C91.3,324,73.9,317,60.7,304.3z"/>
		<path class="st3" d="M158,264l-0.1-9.8c-0.2-12.3-4.9-23.9-13.2-32.9c0.1-0.1,0.2-0.2,0.4-0.4c4.9-5.1,7.9-11.4,8.8-17.9
			c0.9,0.8,1.9,1.7,2.7,2.5c10.8,10.5,17.7,23.9,20,38.6l11.6-0.2l-0.1-10.4l26,19.8L188.6,274l-0.1-10.4L158,264z"/>
	</g>
	<g class="st0">
		<g class="st4">
			<path class="st5" d="M155.6,95.3l-0.1-9.8c-0.2-13.1-5.5-25.4-14.9-34.6c-9.4-9.2-21.8-14.1-35-13.9C92.4,37.2,80.1,42.5,71,51.9
				c-1.5,1.5-2.8,3.1-4,4.7c-5.8-4.1-12.7-6.1-19.5-5.9c2.7-4.4,5.9-8.6,9.6-12.4c12.8-13.2,30-20.6,48.3-20.8
				c18.4-0.3,35.7,6.6,48.9,19.4c10.8,10.5,17.7,23.9,20,38.6l11.6-0.2l-0.1-10.4l26,19.8l-25.4,20.6l-0.1-10.4L155.6,95.3z"/>
			<path class="st6" d="M58.4,135.5c-6-5.8-10.8-12.6-14.3-19.9c6.8,0.9,13.9-0.5,20-3.9c2.2,3.6,4.8,6.9,7.8,9.8
				c9.4,9.2,21.8,14.1,35,13.9c13.1-0.2,25.4-5.5,34.6-14.9l14,13.6c-12.8,13.2-30,20.6-48.3,20.8C88.9,155.2,71.5,148.3,58.4,135.5
				z"/>
		</g>
	</g>
	<g class="st0">
		<g class="st4">
			<circle class="st7" cx="121.6" cy="198.4" r="28.4"/>
			<g>
				<path class="st8" d="M122,227.2c7.4-0.1,14.7-3,20.3-8.7l0,0c11.1-11.4,10.8-29.7-0.6-40.8c-5.5-5.4-12.8-8.3-20.5-8.2
					c0,0,0,0,0,0c-7.7,0.1-14.9,3.2-20.3,8.7c-11.1,11.4-10.8,29.7,0.6,40.8C107.2,224.6,114.6,227.3,122,227.2z M141.6,217.8
					c-10.7,11-28.4,11.3-39.4,0.6c-11-10.7-11.3-28.4-0.6-39.4c5.2-5.3,12.1-8.3,19.6-8.4c7.4-0.1,14.5,2.7,19.8,7.9
					C152.1,189.1,152.3,206.8,141.6,217.8L141.6,217.8z"/>
			</g>
		</g>
		<circle class="st3" cx="121.6" cy="198.4" r="18.2"/>
		<g class="st4">
			<g>
				<path class="st8" d="M121.9,188.4c3.8-0.1,6.1,1.8,6.2,5c0,0.4-0.3,0.6-0.6,0.7l-10.9,0.2c-0.4,0-0.6-0.3-0.7-0.6
					C115.8,190.4,118.1,188.4,121.9,188.4L121.9,188.4z M126.7,192.7c-0.5-2.9-3.8-3.1-4.8-3.1c-1.1,0-4.3,0.3-4.7,3.2L126.7,192.7z
					 M126.7,192.7"/>
				<path class="st8" d="M121.8,181.6c1.7,0,3.1,1.3,3.1,3c0,1.7-1.3,3.1-3,3.1c-1.7,0-3.1-1.3-3.1-3
					C118.7,183,120.1,181.6,121.8,181.6L121.8,181.6z M121.8,186.4c1,0,1.8-0.8,1.7-1.8c0-1-0.8-1.8-1.8-1.7c-1,0-1.8,0.8-1.7,1.8
					C120.1,185.7,120.9,186.4,121.8,186.4L121.8,186.4z M121.8,186.4"/>
				<path class="st8" d="M133,203c3.8-0.1,6.1,1.8,6.2,5c0,0.4-0.3,0.7-0.6,0.7l-10.9,0.2c-0.4,0-0.6-0.3-0.7-0.6
					C126.9,205,129.2,203,133,203L133,203z M137.8,207.3c-0.5-2.9-3.8-3.1-4.8-3c-1.1,0-4.3,0.3-4.7,3.2L137.8,207.3z M137.8,207.3"
					/>
				<path class="st8" d="M132.9,196.2c1.7,0,3.1,1.3,3.1,3c0,1.7-1.3,3.1-3,3.1c-1.7,0-3.1-1.3-3.1-3
					C129.9,197.6,131.2,196.3,132.9,196.2L132.9,196.2z M133,201c1,0,1.8-0.8,1.7-1.8c0-1-0.8-1.8-1.8-1.7c-1,0-1.8,0.8-1.7,1.8
					C131.2,200.3,132,201.1,133,201L133,201z M133,201"/>
				<path class="st8" d="M111.2,203.3c3.8-0.1,6.1,1.8,6.2,5c0,0.4-0.3,0.7-0.6,0.7l-10.9,0.2c-0.4,0-0.6-0.3-0.7-0.6
					C105.1,205.3,107.4,203.3,111.2,203.3L111.2,203.3z M116,207.6c-0.5-2.9-3.8-3.1-4.8-3c-1.1,0-4.3,0.3-4.7,3.2L116,207.6z
					 M116,207.6"/>
				<path class="st8" d="M111.1,196.5c1.7,0,3.1,1.3,3.1,3c0,1.7-1.3,3.1-3,3.1c-1.7,0-3.1-1.3-3.1-3
					C108,197.9,109.4,196.6,111.1,196.5L111.1,196.5z M111.1,201.3c1,0,1.8-0.8,1.7-1.8c0-1-0.8-1.8-1.8-1.7c-1,0-1.8,0.8-1.7,1.8
					C109.4,200.6,110.2,201.4,111.1,201.3L111.1,201.3z M111.1,201.3"/>
				<path class="st8" d="M118.7,202.1l2.6-2.7l-0.1-3.8c0-0.4,0.3-0.6,0.6-0.7c0.4,0,0.7,0.3,0.7,0.6l0.1,3.8l2.7,2.6
					c0.3,0.2,0.3,0.7,0,0.9c-0.2,0.3-0.7,0.3-0.9,0l-2.4-2.4l-2.4,2.5c-0.3,0.2-0.7,0.2-0.9-0.1
					C118.5,202.7,118.5,202.3,118.7,202.1L118.7,202.1z M118.7,202.1"/>
			</g>
		</g>
	</g>
	<text transform="matrix(0.9999 -1.016794e-02 1.016794e-02 0.9999 84.3345 98.9002)" class="st9 st10 st11 st12">01</text>
	<text transform="matrix(1 0 0 1 81.9494 270.4159)" class="st9 st10 st11 st12">02</text>
	<text transform="matrix(1 0 0 1 85.6398 423.6549)" class="st9 st10 st11 st12">03</text>
	<g class="st0">
		<g class="st4">
			<circle class="st7" cx="51.4" cy="413.1" r="28.4"/>
			<g>
				<path class="st8" d="M51.9,441.9c7.4-0.1,14.7-3,20.3-8.7c5.4-5.5,8.3-12.8,8.2-20.5c-0.1-7.7-3.2-14.9-8.7-20.3
					c-11.4-11.1-29.7-10.8-40.8,0.6c-5.4,5.5-8.3,12.8-8.2,20.5c0.1,7.7,3.2,14.9,8.7,20.3C37,439.3,44.5,442,51.9,441.9z
					 M51.1,385.2c7.1-0.1,14.3,2.5,19.8,7.9c5.3,5.2,8.3,12.1,8.4,19.6c0.1,7.4-2.7,14.5-7.9,19.8c-10.7,11-28.4,11.3-39.4,0.6l0,0
					c-5.3-5.2-8.3-12.1-8.4-19.6c-0.1-7.4,2.7-14.5,7.9-19.8C36.8,388.1,43.9,385.3,51.1,385.2z"/>
			</g>
		</g>
		<circle class="st3" cx="51.4" cy="413.1" r="18.2"/>
		<g class="st4">
			<g>
				<path class="st8" d="M34.1,400.3C34.1,400.3,34.2,400.3,34.1,400.3L34.1,400.3l14.4,1.5l14.3-1.9c0.4-0.1,0.7,0.2,0.8,0.6
					c0,0,0,0.1,0,0.1l0.1,9.8c2.1,2.2,2.2,5.7,0.3,8.1l5.2,5c0.3,0.2,0.3,0.7,0.1,0.9c-0.2,0.3-0.7,0.3-1,0.1c0,0,0,0-0.1-0.1
					l-4.4-4.3l0,3.3c0,0.3-0.2,0.6-0.6,0.7l-14.4,1.9l-0.2,0l-14.4-1.5c-0.3,0-0.6-0.3-0.6-0.7L33.5,401
					C33.4,400.7,33.7,400.4,34.1,400.3z M62.6,411.2C62.6,411.2,62.6,411.2,62.6,411.2c-2-1.9-5-1.9-6.9,0.1c-1.9,1.9-1.8,5,0.1,6.8
					c1.9,1.9,5,1.8,6.8-0.1C64.5,416.1,64.5,413.1,62.6,411.2z M49.5,424.6l13-1.8l0-3.1c-2.9,1.8-6.7,1-8.5-1.9
					c-1.8-2.9-1-6.7,1.9-8.5c2-1.2,4.4-1.3,6.4-0.1l-0.1-7.9l-13,1.8L49.5,424.6z M35.1,423.3l13.1,1.4l-0.3-21.5l-13.1-1.4
					L35.1,423.3z"/>
				<path class="st8" d="M60.8,406.7L60.8,406.7l-9.4,1.3l-0.1,0c-0.4,0-0.7-0.2-0.7-0.6c0-0.4,0.3-0.7,0.6-0.7l9.4-1.3
					c0.4-0.1,0.7,0.2,0.8,0.6C61.5,406.3,61.2,406.7,60.8,406.7z"/>
				<path class="st8" d="M46.1,408.1L46.1,408.1l-9.5-1c-0.4,0-0.6-0.4-0.6-0.7c0-0.4,0.4-0.6,0.8-0.6l9.4,1c0.4,0,0.7,0.3,0.6,0.7
					C46.8,407.8,46.5,408.1,46.1,408.1z"/>
				<path class="st8" d="M46.2,413.8L46.2,413.8l-9.5-1c-0.4,0-0.6-0.4-0.6-0.7c0-0.4,0.4-0.6,0.8-0.6l9.4,1c0.4,0,0.7,0.3,0.6,0.7
					C46.9,413.5,46.6,413.8,46.2,413.8z"/>
				<path class="st8" d="M46.3,419.4L46.3,419.4l-9.5-1c-0.4,0-0.6-0.4-0.6-0.7c0-0.4,0.4-0.6,0.8-0.6l9.4,1c0.4,0,0.7,0.3,0.6,0.7
					C47,419.1,46.6,419.4,46.3,419.4z"/>
			</g>
		</g>
	</g>
	<g class="st0">
		<g class="st4">
			<ellipse transform="matrix(0.9212 -0.389 0.389 0.9212 -28.4615 25.4953)" class="st7" cx="48.7" cy="83" rx="28.4" ry="28.4"/>
			<g>
				<path class="st8" d="M77.6,82.6c-0.1-7.7-3.2-14.9-8.7-20.3S56,54,48.3,54.2c-7.7,0.1-14.9,3.2-20.3,8.7s-8.3,12.8-8.2,20.5
					s3.2,14.9,8.7,20.3s12.8,8.3,20.5,8.2c7.7-0.1,14.9-3.2,20.3-8.7C74.8,97.6,77.7,90.3,77.6,82.6z M20.9,83.4
					c-0.1-7.4,2.7-14.5,7.9-19.8c5.2-5.3,12.1-8.3,19.6-8.4c7.4-0.1,14.5,2.7,19.8,7.9c5.3,5.2,8.3,12.1,8.4,19.6
					c0.1,7.4-2.7,14.5-7.9,19.8c-5.2,5.3-12.1,8.3-19.6,8.4c-7.4,0.1-14.5-2.7-19.8-7.9C24,97.8,21,90.9,20.9,83.4z"/>
			</g>
		</g>
		<circle class="st3" cx="48.7" cy="83" r="18.2"/>
	</g>
	<g class="st0">
		
			<rect x="224.6" y="409.4" transform="matrix(0.9999 -1.412220e-02 1.412220e-02 0.9999 -5.7634 3.5468)" class="st13" width="47.4" height="1"/>
	</g>
	<g class="st0">
		
			<rect x="222.3" y="252.4" transform="matrix(0.9999 -1.412220e-02 1.412220e-02 0.9999 -3.5466 3.4998)" class="st13" width="47.4" height="1"/>
	</g>
	<g class="st0">
		
			<rect x="220" y="83.1" transform="matrix(0.9999 -1.412220e-02 1.412220e-02 0.9999 -1.1557 3.4492)" class="st13" width="47.4" height="1"/>
	</g>
	<rect x="286.6" y="212.9" class="st14" width="375.7" height="101.9"/>
	<text transform="matrix(1 0 0 1 286.6094 229.9348)" class="st0"><tspan x="0" y="0" class="st4 st15 st16">Host webinars and talks by esteemed </tspan><tspan x="0" y="28.8" class="st4 st15 st16">women professionals around the </tspan><tspan x="0" y="57.6" class="st4 st15 st16">world to inspire the youth </tspan></text>
	<rect x="285.6" y="28.6" class="st14" width="367.7" height="108.9"/>
	<text transform="matrix(1 0 0 1 285.6102 45.5917)" class="st0"><tspan x="0" y="0" class="st4 st15 st16">Ensure proper representation of </tspan><tspan x="0" y="28.8" class="st4 st15 st16">women in the technical field and e</tspan><tspan x="357.5" y="28.8" class="st4 st15 st16">-</tspan><tspan x="0" y="57.6" class="st4 st15 st16">courage them to take up leadership </tspan><tspan x="0" y="86.4" class="st4 st15 st16">roles</tspan></text>
	<rect x="287.6" y="373.9" class="st14" width="405.9" height="97.4"/>
	<text transform="matrix(1 0 0 1 287.6162 390.891)" class="st0"><tspan x="0" y="0" class="st4 st15 st16">Work on projects to develop deployable </tspan><tspan x="0" y="28.8" class="st4 st15 st16">solutions for the benefit of society, </tspan><tspan x="0" y="57.6" class="st4 st15 st16">especially women</tspan></text>
	<g class="st1">
		<path class="st2" d="M746.5,464c-4.9-4.8-9-10.1-12.2-15.9c6.8,0.2,13.6-1.8,19.4-5.8c1.9,2.7,4,5.3,6.5,7.7
			c9.4,9.2,21.9,14.1,35,13.9c13.1-0.2,25.4-5.5,34.6-14.9l14,13.6c-12.8,13.2-30,20.6-48.3,20.8C777,483.7,759.6,476.8,746.5,464z"
			/>
		<path class="st2" d="M843.7,423.8l-0.1-9.8c-0.2-13.1-5.5-25.4-14.9-34.6c-9.4-9.2-21.8-14.1-35-13.9
			c-13.1,0.2-25.4,5.5-34.6,14.9c-2.4,2.4-4.4,5.1-6.2,7.9c-5.9-3.9-12.8-5.6-19.5-5.2c3.1-5.9,7-11.4,11.8-16.2
			c12.8-13.2,30-20.6,48.3-20.8c18.4-0.3,35.7,6.6,48.9,19.4c10.8,10.5,17.7,23.9,20,38.6l11.6-0.2l-0.1-10.4l26,19.8l-25.4,20.6
			l-0.1-10.4L843.7,423.8z"/>
		
			<ellipse transform="matrix(0.4792 -0.8777 0.8777 0.4792 18.0504 861.5759)" class="st2" cx="735" cy="415.6" rx="28.4" ry="28.4"/>
	</g>
	<g class="st1">
		<path class="st2" d="M744.2,307.2c-13.2-12.8-20.6-30-20.8-48.3c-0.3-18.4,6.6-35.7,19.4-48.9c8.7-9,19.4-15.2,31.2-18.4
			c-2.1,6.7-2,13.8,0.3,20.4c-6.5,2.5-12.5,6.4-17.5,11.6c-9.2,9.4-14.1,21.8-13.9,35c0.2,13.1,5.5,25.4,14.9,34.6
			c9.4,9.2,21.8,14.1,35,13.9c13.1-0.2,25.4-5.5,34.6-14.9l14,13.6c-12.8,13.2-30,20.6-48.3,20.8C774.8,326.9,757.4,320,744.2,307.2
			z"/>
		<path class="st2" d="M841.5,267l-0.1-9.8c-0.2-12.3-4.9-23.9-13.2-32.9c0.1-0.1,0.2-0.2,0.4-0.4c4.9-5.1,7.9-11.4,8.8-17.9
			c0.9,0.8,1.9,1.7,2.7,2.5c10.8,10.5,17.7,23.9,20,38.6l11.6-0.2l-0.1-10.4l26,19.8L872.1,277l-0.1-10.4L841.5,267z"/>
		
			<ellipse transform="matrix(0.9999 -1.412221e-02 1.412221e-02 0.9999 -2.7624 11.3902)" class="st2" cx="805.1" cy="201.3" rx="28.4" ry="28.4"/>
	</g>
	<g class="st1">
		
			<ellipse transform="matrix(0.9999 -1.412219e-02 1.412219e-02 0.9999 -1.1443 10.3415)" class="st2" cx="731.7" cy="86.2" rx="28.4" ry="28.4"/>
		<path class="st2" d="M839.1,98.2l-0.1-9.8c-0.2-13.1-5.5-25.4-14.9-34.6c-9.4-9.2-21.8-14.1-35-13.9c-13.1,0.2-25.4,5.5-34.6,14.9
			c-1.5,1.5-2.8,3.1-4,4.7c-5.8-4.1-12.7-6.1-19.5-5.9c2.7-4.4,5.9-8.6,9.6-12.4c12.8-13.2,30-20.6,48.3-20.8
			c18.4-0.3,35.7,6.6,48.9,19.4c10.8,10.5,17.7,23.9,20,38.6l11.6-0.2l-0.1-10.4l26,19.8l-25.4,20.6l-0.1-10.4L839.1,98.2z"/>
		<path class="st2" d="M741.9,138.4c-6-5.8-10.8-12.6-14.3-19.9c6.8,0.9,13.9-0.5,20-3.9c2.2,3.6,4.8,6.9,7.8,9.8
			c9.4,9.2,21.8,14.1,35,13.9c13.1-0.2,25.4-5.5,34.6-14.9l14,13.6c-12.8,13.2-30,20.6-48.3,20.8C772.4,158.1,755,151.2,741.9,138.4
			z"/>
	</g>
	<g class="st0">
		<path class="st3" d="M741.1,464.1c-4.9-4.8-9-10.1-12.2-15.9c6.8,0.2,13.6-1.8,19.4-5.8c1.9,2.7,4,5.3,6.5,7.7
			c9.4,9.2,21.9,14.1,35,13.9c13.1-0.2,25.4-5.5,34.6-14.9l14,13.6c-12.8,13.2-30,20.6-48.3,20.8
			C771.6,483.8,754.3,476.9,741.1,464.1z"/>
		<path class="st3" d="M838.3,423.9l-0.1-9.8c-0.2-13.1-5.5-25.4-14.9-34.6c-9.4-9.2-21.8-14.1-35-13.9
			c-13.1,0.2-25.4,5.5-34.6,14.9c-2.4,2.4-4.4,5.1-6.2,7.9c-5.9-3.9-12.8-5.6-19.5-5.2c3.1-5.9,7-11.4,11.8-16.2
			c12.8-13.2,30-20.6,48.3-20.8c18.4-0.3,35.7,6.6,48.9,19.4c10.8,10.5,17.7,23.9,20,38.6l11.6-0.2l-0.1-10.4l26,19.8l-25.4,20.6
			l-0.1-10.4L838.3,423.9z"/>
	</g>
	<g class="st0">
		<path class="st3" d="M738.9,307.3c-13.2-12.8-20.6-30-20.8-48.3c-0.3-18.4,6.6-35.7,19.4-48.9c8.7-9,19.4-15.2,31.2-18.4
			c-2.1,6.7-2,13.8,0.3,20.4c-6.5,2.5-12.5,6.4-17.5,11.6c-9.2,9.4-14.1,21.8-13.9,35c0.2,13.1,5.5,25.4,14.9,34.6
			c9.4,9.2,21.8,14.1,35,13.9c13.1-0.2,25.4-5.5,34.6-14.9l14,13.6c-12.8,13.2-30,20.6-48.3,20.8C769.4,327,752,320.1,738.9,307.3z"
			/>
		<path class="st3" d="M836.1,267.1l-0.1-9.8c-0.2-12.3-4.9-23.9-13.2-32.9c0.1-0.1,0.2-0.2,0.4-0.4c4.9-5.1,7.9-11.4,8.8-17.9
			c0.9,0.8,1.9,1.7,2.7,2.5c10.8,10.5,17.7,23.9,20,38.6l11.6-0.2l-0.1-10.4l26,19.8l-25.4,20.6l-0.1-10.4L836.1,267.1z"/>
	</g>
	<g class="st0">
		<g class="st4">
			<path class="st5" d="M833.7,98.3l-0.1-9.8c-0.2-13.1-5.5-25.4-14.9-34.6c-9.4-9.2-21.8-14.1-35-13.9
				c-13.1,0.2-25.4,5.5-34.6,14.9c-1.5,1.5-2.8,3.1-4,4.7c-5.8-4.1-12.7-6.1-19.5-5.9c2.7-4.4,5.9-8.6,9.6-12.4
				c12.8-13.2,30-20.6,48.3-20.8c18.4-0.3,35.7,6.6,48.9,19.4c10.8,10.5,17.7,23.9,20,38.6l11.6-0.2l-0.1-10.4l26,19.8l-25.4,20.6
				l-0.1-10.4L833.7,98.3z"/>
			<path class="st6" d="M736.5,138.5c-6-5.8-10.8-12.6-14.3-19.9c6.8,0.9,13.9-0.5,20-3.9c2.2,3.6,4.8,6.9,7.8,9.8
				c9.4,9.2,21.8,14.1,35,13.9c13.1-0.2,25.4-5.5,34.6-14.9l14,13.6c-12.8,13.2-30,20.6-48.3,20.8
				C767,158.2,749.7,151.3,736.5,138.5z"/>
		</g>
	</g>
	<g class="st0">
		<g class="st4">
			<circle class="st7" cx="799.7" cy="201.4" r="28.4"/>
			<g>
				<path class="st8" d="M800.2,230.2c7.4-0.1,14.7-3,20.3-8.7l0,0c11.1-11.4,10.8-29.7-0.6-40.8c-5.5-5.4-12.8-8.3-20.5-8.2
					c0,0,0,0,0,0c-7.7,0.1-14.9,3.2-20.3,8.7c-11.1,11.4-10.8,29.7,0.6,40.8C785.3,227.6,792.8,230.3,800.2,230.2z M819.7,220.8
					c-10.7,11-28.4,11.3-39.4,0.6c-11-10.7-11.3-28.4-0.6-39.4c5.2-5.3,12.1-8.3,19.6-8.4c7.4-0.1,14.5,2.7,19.8,7.9
					C830.2,192.1,830.5,209.8,819.7,220.8L819.7,220.8z"/>
			</g>
		</g>
		<circle class="st3" cx="799.7" cy="201.4" r="18.2"/>
		<g class="st4">
			<g>
				<path class="st8" d="M795,195.3c3.8-0.1,6.1,1.8,6.2,5c0,0.4-0.3,0.6-0.7,0.6l-10.8,0.2c-0.4,0-0.7-0.3-0.7-0.6
					C788.9,197.3,791.2,195.3,795,195.3L795,195.3z M799.8,199.6c-0.5-2.9-3.8-3.1-4.8-3.1c-1.1,0-4.3,0.3-4.7,3.2L799.8,199.6z
					 M799.8,199.6"/>
				<path class="st8" d="M794.9,188.6c1.7,0,3.1,1.3,3.1,3c0,1.9-1.6,3.3-3.5,3.1c-1.2-0.2-2.3-1.2-2.5-2.4
					C791.5,190.3,793,188.6,794.9,188.6L794.9,188.6z M794.9,193.4c1,0,1.8-0.8,1.7-1.8c0-1-0.8-1.8-1.8-1.7c-1,0-1.8,0.8-1.7,1.8
					C793.2,192.6,794,193.4,794.9,193.4L794.9,193.4z M794.9,193.4"/>
				<path class="st8" d="M806,206.4c3.8-0.1,6.1,1.8,6.2,5c0,0.4-0.3,0.6-0.7,0.6l-10.9,0.2c-0.4,0-0.7-0.3-0.7-0.6
					C800,208.4,802.3,206.4,806,206.4L806,206.4z M810.9,210.7c-0.5-2.9-3.8-3.1-4.8-3c-1.1,0-4.3,0.3-4.7,3.2L810.9,210.7z
					 M810.9,210.7"/>
				<path class="st8" d="M805.9,199.6c2,0,3.6,1.9,3,4c-0.3,0.9-1,1.7-1.9,2c-2.1,0.7-4-0.8-4.1-2.8
					C802.9,201,804.2,199.7,805.9,199.6L805.9,199.6z M806,204.4c1,0,1.8-0.8,1.7-1.8c0-1-0.8-1.8-1.8-1.7c-1,0-1.8,0.8-1.7,1.8
					C804.2,203.7,805,204.5,806,204.4L806,204.4z M806,204.4"/>
			</g>
		</g>
	</g>
	<text transform="matrix(0.9999 -1.016794e-02 1.016794e-02 0.9999 762.4669 101.9105)" class="st9 st10 st11 st12">04</text>
	<text transform="matrix(1 0 0 1 760.0817 273.4262)" class="st9 st10 st11 st12">05</text>
	<text transform="matrix(1 0 0 1 763.7721 426.6652)" class="st9 st10 st11 st12">06</text>
	<g class="st0">
		<g class="st4">
			<circle class="st7" cx="726.3" cy="86.3" r="28.4"/>
			<g>
				<path class="st8" d="M755.2,85.9c-0.1-7.4-3-14.7-8.7-20.3c-5.5-5.4-12.8-8.3-20.5-8.2c-7.7,0.1-14.9,3.2-20.3,8.7
					c-11.1,11.4-10.8,29.7,0.6,40.8c5.5,5.4,12.8,8.3,20.5,8.2c7.7-0.1,14.9-3.2,20.3-8.7C752.6,100.7,755.3,93.3,755.2,85.9z
					 M698.5,86.7c-0.1-7.1,2.5-14.3,7.9-19.8c5.2-5.3,12.1-8.3,19.6-8.4c7.4-0.1,14.5,2.7,19.8,7.9c11,10.7,11.3,28.4,0.6,39.4l0,0
					c-5.2,5.3-12.1,8.3-19.6,8.4c-7.4,0.1-14.5-2.7-19.8-7.9C701.4,100.9,698.6,93.8,698.5,86.7z"/>
			</g>
		</g>
		<circle class="st3" cx="726.3" cy="86.3" r="18.2"/>
	</g>
	<g class="st0">
		<g class="st4">
			
				<ellipse transform="matrix(0.9212 -0.389 0.389 0.9212 -104.2179 316.5882)" class="st7" cx="729.7" cy="415.7" rx="28.4" ry="28.4"/>
			<g>
				<path class="st8" d="M758.6,415.2c-0.1-7.7-3.2-14.9-8.7-20.3s-12.8-8.3-20.5-8.2c-7.7,0.1-14.9,3.2-20.3,8.7
					s-8.3,12.8-8.2,20.5c0.1,7.7,3.2,14.9,8.7,20.3s12.8,8.3,20.5,8.2c7.7-0.1,14.9-3.2,20.3-8.7C755.8,430.3,758.7,423,758.6,415.2
					z M701.8,416c-0.1-7.4,2.7-14.5,7.9-19.8c5.2-5.3,12.1-8.3,19.6-8.4c7.4-0.1,14.5,2.7,19.8,7.9c5.3,5.2,8.3,12.1,8.4,19.6
					s-2.7,14.5-7.9,19.8s-12.1,8.3-19.6,8.4c-7.4,0.1-14.5-2.7-19.8-7.9C704.9,430.5,701.9,423.5,701.8,416z"/>
			</g>
		</g>
		<g class="st4">
			<g>
				<g>
					<g>
						<path class="st8" d="M726.4,74.3c4.8-0.1,8.7,3.7,8.7,8.5c0,3.1-1.5,6-4,7.9l0.1,6.2c0,0.1,0,0.1,0,0.2l0,0c0,0,0,0,0,0.1
							l-2.1,3.2c-0.1,0.2-0.3,0.3-0.5,0.3l-3.6,0.1c-0.2,0-0.4-0.1-0.5-0.3l-2.2-3.2c0,0,0,0,0-0.1l0,0c0-0.1,0-0.1,0-0.2l-0.1-6.2
							c-2.5-1.8-4.1-4.7-4.2-7.8C717.9,78.3,721.6,74.4,726.4,74.3L726.4,74.3z M725.3,99.5l2.9,0l1.3-2l-5.6,0.1L725.3,99.5z
							 M730,96.3l0-1.6l-6.6,0.1l0,1.6L730,96.3z M723,89.9L723,89.9c0.2,0.1,0.3,0.3,0.3,0.5l0,3.1l6.6-0.1l0-3.1
							c0-0.2,0.1-0.4,0.3-0.5c2.3-1.6,3.7-4.2,3.7-7c-0.2-4.1-3.6-7.2-7.7-7.1c-3.9,0.2-7,3.4-7.1,7.3
							C719.2,85.8,720.6,88.4,723,89.9L723,89.9z M723,89.9"/>
						<path class="st8" d="M726.2,77.1c0.3,0,0.6,0.3,0.6,0.6c0,0.3-0.3,0.6-0.6,0.6c-2.5,0-4.6,2.1-4.5,4.7c0,0.3-0.3,0.6-0.6,0.6
							c-0.3,0-0.6-0.3-0.6-0.6C720.4,79.7,723,77.1,726.2,77.1L726.2,77.1z M726.2,77.1"/>
						<path class="st8" d="M736.7,82.1l4.4-0.1c0.3,0,0.6,0.3,0.6,0.6c0,0.3-0.3,0.6-0.6,0.6l-4.4,0.1c-0.3,0-0.6-0.3-0.6-0.6
							C736.1,82.4,736.4,82.1,736.7,82.1L736.7,82.1z M736.7,82.1"/>
						<path class="st8" d="M711.8,82.5l4.4-0.1c0.3,0,0.6,0.3,0.6,0.6c0,0.3-0.3,0.6-0.6,0.6l-4.4,0.1c-0.3,0-0.6-0.3-0.6-0.6
							C711.2,82.7,711.5,82.5,711.8,82.5L711.8,82.5z M711.8,82.5"/>
						<path class="st8" d="M733.3,89.6c0.2-0.3,0.6-0.3,0.9-0.1c0,0,0,0,0.1,0.1l0,0l3.2,3.1c0.3,0.2,0.3,0.6,0.1,0.9
							c-0.2,0.3-0.6,0.3-0.9,0.1c0,0,0,0-0.1-0.1l-3.2-3.1C733.1,90.2,733.1,89.8,733.3,89.6L733.3,89.6z M733.3,89.6"/>
						<path class="st8" d="M715.6,72.2c0.2-0.2,0.6-0.2,0.8,0l3.2,3.1c0.2,0.2,0.3,0.6,0,0.9c-0.1,0.1-0.3,0.2-0.4,0.2l0,0
							c-0.2,0-0.3-0.1-0.4-0.2l-3.2-3.1C715.3,72.8,715.4,72.4,715.6,72.2L715.6,72.2z M715.6,72.2"/>
						<path class="st8" d="M715.7,93.1c0,0,0.1-0.1,0.1-0.1l3.1-3.2c0.2-0.3,0.6-0.3,0.9-0.1c0.3,0.2,0.3,0.6,0.1,0.9
							c0,0,0,0-0.1,0.1l-3.1,3.2c-0.2,0.3-0.6,0.3-0.9,0.1C715.6,93.7,715.5,93.4,715.7,93.1L715.7,93.1z M715.7,93.1"/>
						<path class="st8" d="M733.2,75.1l3.1-3.2c0.3-0.2,0.6-0.2,0.9,0.1c0.2,0.2,0.2,0.6,0,0.8l-3.1,3.2c-0.3,0.2-0.6,0.2-0.9-0.1
							C733,75.7,733,75.3,733.2,75.1L733.2,75.1z M733.2,75.1"/>
						<path class="st8" d="M726.3,67.8c0.3,0,0.6,0.3,0.6,0.6l0.1,4.4c0,0.3-0.2,0.6-0.6,0.6c0,0,0,0,0,0c-0.3,0-0.6-0.3-0.6-0.6
							l-0.1-4.4C725.7,68.1,725.9,67.8,726.3,67.8L726.3,67.8z M726.3,67.8"/>
					</g>
				</g>
			</g>
		</g>
	</g>
	<g class="st0">
		
			<rect x="902.7" y="412.4" transform="matrix(0.9999 -1.412220e-02 1.412220e-02 0.9999 -5.7383 13.1238)" class="st13" width="47.4" height="1"/>
	</g>
	<g class="st0">
		
			<rect x="900.5" y="255.4" transform="matrix(0.9999 -1.412220e-02 1.412220e-02 0.9999 -3.5215 13.0769)" class="st13" width="47.4" height="1"/>
	</g>
	<g class="st0">
		
			<rect x="898.1" y="86.1" transform="matrix(0.9999 -1.412220e-02 1.412220e-02 0.9999 -1.1305 13.0262)" class="st13" width="47.4" height="1"/>
	</g>
	<rect x="964.8" y="215.9" class="st14" width="390.2" height="101.9"/>
	<text transform="matrix(1 0 0 1 964.7808 232.9451)" class="st0"><tspan x="0" y="0" class="st4 st15 st16">Conduct student teaching programs </tspan><tspan x="0" y="28.8" class="st4 st15 st16">and  give learning opportunity to </tspan><tspan x="0" y="57.6" class="st4 st15 st16">underprivileged girls and boys </tspan></text>
	<rect x="962.4" y="45.5" class="st14" width="381.9" height="108.9"/>
	<text transform="matrix(1 0 0 1 962.4429 62.5159)" class="st0"><tspan x="0" y="0" class="st4 st15 st16">Conduct awareness campaigns and </tspan><tspan x="0" y="28.8" class="st4 st15 st16">cleanliness drives as part of our duty </tspan><tspan x="0" y="57.6" class="st4 st15 st16">towards the society and environment</tspan></text>
	<rect x="965.8" y="361.2" class="st14" width="421.5" height="122.2"/>
	<text transform="matrix(1 0 0 1 965.8257 378.2681)" class="st0"><tspan x="0" y="0" class="st4 st15 st16">Build a family of like-minded volunteers </tspan><tspan x="0" y="28.8" class="st4 st15 st16">and members to work together for a </tspan><tspan x="0" y="57.6" class="st4 st15 st16">social cause with their technical </tspan><tspan x="0" y="86.4" class="st4 st15 st16">knowledge</tspan></text>
	<g id="XMLID_1_" class="st0">
		<g id="XMLID_10_" class="st4">
			<path class="st17" d="M49.2,71.1c1.7,0,2.8,0.5,3.6,1.2c1,1.1,1.3,2.8,1.3,4.7c0,1.5-0.5,2.9-1.3,4c-0.9,1.2-2.2,1.9-3.6,1.9
				c-2.7,0-4.9-2.6-4.9-5.9S45.1,71.1,49.2,71.1 M49.2,70.4c-5,0-5.6,3.6-5.6,6.6c0,3.7,2.5,6.6,5.6,6.6c1.6,0,3.1-0.8,4.2-2.2
				c0.9-1.2,1.4-2.8,1.4-4.4c0-1.7-0.2-3.8-1.5-5.2C52.4,70.9,51,70.4,49.2,70.4L49.2,70.4z"/>
		</g>
		<g id="XMLID_3_" class="st4">
			<path class="st17" d="M51.9,83.7c0.3,0.1,0.6,0.1,0.9,0.2c4.8,1,5.5,2.8,5.6,8.1c0,0.3,0,0.4,0,0.4c0,0,0,0,0,0
				c0,0.1,0,0.2,0,0.4c0,0-0.9,1.8-5.6,2.5c-1,0.1-2.2,0.2-3.6,0.2c-7.8,0-9.2-2.7-9.2-2.7c0-0.3,0-0.5,0-0.6c0,0,0,0,0,0
				c0,0,0-0.1,0-0.4c0.1-5.5,0.9-7.1,6.5-8.1c0,0,0.8,1,2.7,1C51.1,84.7,51.9,83.7,51.9,83.7 M58.4,92.4L58.4,92.4 M51.9,82.9
				c-0.2,0-0.4,0.1-0.6,0.3c0,0-0.7,0.7-2.1,0.7c-1.4,0-2.1-0.7-2.1-0.7c-0.1-0.2-0.4-0.3-0.6-0.3c0,0-0.1,0-0.1,0
				c-6,1.1-7,3.1-7.1,8.9c0,0.2,0,0.3,0,0.3c0,0,0,0.1,0,0.1l0,0.6c0,0.1,0,0.2,0.1,0.3c0.2,0.3,1.8,3.1,9.8,3.1
				c1.3,0,2.5-0.1,3.7-0.2c4.9-0.7,6.1-2.7,6.2-2.9c0.1-0.1,0.1-0.2,0.1-0.3l0-0.3l0-0.1c0,0,0,0,0-0.1c0,0,0-0.1,0-0.1
				c0-0.1,0-0.2,0-0.3c-0.1-5.7-1-7.7-6.2-8.9C52.6,83,52.3,83,52,82.9C51.9,82.9,51.9,82.9,51.9,82.9L51.9,82.9z"/>
		</g>
		<path class="st18" d="M53.5,81.1l3.3,1.1c1.8-3.9,1.3-8.2-1.1-10.9c-1.9-2.1-4.3-2.7-5.3-2.8c-1.4-0.1-3.3,0-5.2,1
			c-3.6,2.1-5.3,7.2-4.1,12.7c1.2-0.5,2.3-1.1,3.5-1.6"/>
	</g>
	<circle class="st19" cx="730.4" cy="415.9" r="18.2"/>
	<path class="st20" d="M718.9,429.6c0.4-0.7,0.8-1.7,1.2-2.9c0.4-1.3,0.5-1.9,0.4-2.7c-0.1-0.6-0.3-1-1.7-2.7c-1.8-2.3-2-2.4-2.3-3
		c-0.4-0.8-0.7-2-0.4-3.8c0.4-1.5,0.7-3,1.1-4.4l5.8-8.3c0.3-0.6,0.9-0.8,1.5-0.6c0.6,0.2,0.8,0.9,0.6,1.5c-1.1,2-2.3,4-3.4,6
		c-0.1,0-0.7,0-1.1,0.4c-0.5,0.5-0.5,1-0.5,1.1c0,2.3,0,4.6-0.1,6.9"/>
	<path class="st20" d="M727.1,429.9l0.3-8.9c0-0.4-0.1-1.7-1-3c-1-1.3-2.3-1.7-2.7-1.8c-0.2-1.1-0.3-2-0.3-2.6
		c-0.1-1.8,0-2.5-0.5-3.5c-0.4-0.8-1-1.2-1.3-1.5"/>
	<path class="st20" d="M740.9,429.8c-0.4-0.7-0.8-1.7-1.2-2.9c-0.4-1.3-0.5-1.9-0.4-2.7c0.1-0.6,0.3-1,1.7-2.7c1.8-2.3,2-2.4,2.3-3
		c0.4-0.8,0.7-2,0.4-3.8c-0.4-1.5-0.7-3-1.1-4.4l-5.8-8.3c-0.3-0.6-0.9-0.8-1.5-0.6c-0.6,0.2-0.8,0.9-0.6,1.5c1.1,2,2.3,4,3.4,6
		c0.1,0,0.7,0,1.1,0.4c0.5,0.5,0.5,1,0.5,1.1c0,2.3,0,4.6,0.1,6.9"/>
	<path class="st20" d="M732.7,430.1l-0.3-8.9c0-0.4,0.1-1.7,1-3c1-1.3,2.3-1.7,2.7-1.8c0.2-1.1,0.3-2,0.3-2.6c0.1-1.8,0-2.5,0.5-3.5
		c0.4-0.8,1-1.2,1.3-1.5"/>
	<path class="st20" d="M730.5,415.2l-5-5.1c-0.7-1.3-0.5-2.8,0.4-3.7c1.1-1.1,3.2-1,4.4,0.3"/>
	<path class="st20" d="M730,406.6c1.2-1.4,3.3-1.4,4.4-0.3c0.9,0.9,1.1,2.4,0.4,3.7l-5,5.2"/>
	<polygon class="st9" points="730.1,415.6 730.1,415.5 730.1,415.5 730.2,415.5 	"/>
	
		<rect x="730" y="406.8" transform="matrix(0.7071 -0.7071 0.7071 0.7071 -73.9049 635.4852)" class="st9" width="0.4" height="0.3"/>
	<g class="st21">
		
			<ellipse transform="matrix(0.9999 -1.412222e-02 1.412222e-02 0.9999 -3.5435 1.7385)" class="st22" cx="121.3" cy="251.8" rx="40.4" ry="40.4"/>
		<path class="st22" d="M274.3,268.9l-0.2-13.9c-0.3-18.7-7.8-36.2-21.2-49.2c-13.4-13-31.1-20.1-49.8-19.8
			c-18.7,0.3-36.2,7.8-49.2,21.2c-2.1,2.1-4,4.4-5.8,6.8c-8.3-5.9-18.1-8.7-27.8-8.4c3.8-6.3,8.4-12.3,13.7-17.7
			c18.2-18.7,42.6-29.3,68.8-29.6c26.1-0.4,50.8,9.5,69.6,27.7c15.4,14.9,25.2,34.1,28.5,54.9l16.5-0.2l-0.2-14.9l37,28.2
			l-36.2,29.3l-0.2-14.9L274.3,268.9z"/>
		<path class="st22" d="M135.8,326.1c-8.5-8.3-15.4-17.9-20.3-28.4c9.7,1.2,19.8-0.6,28.5-5.6c3.1,5.1,6.8,9.8,11.2,14
			c13.4,13,31.1,20.1,49.8,19.8c18.7-0.3,36.2-7.8,49.2-21.2l19.9,19.4c-18.2,18.7-42.6,29.3-68.8,29.6
			C179.3,354.2,154.6,344.3,135.8,326.1z"/>
	</g>
	<g>
		<g>
			<path class="st23" d="M266.6,269l-0.2-13.9c-0.3-18.7-7.8-36.2-21.2-49.2c-13.4-13-31.1-20.1-49.8-19.8
				c-18.7,0.3-36.2,7.8-49.2,21.2c-2.1,2.1-4,4.4-5.8,6.8c-8.3-5.9-18.1-8.7-27.8-8.4c3.8-6.3,8.4-12.3,13.7-17.7
				c18.2-18.7,42.6-29.3,68.8-29.6c26.1-0.4,50.8,9.5,69.6,27.7c15.4,14.9,25.2,34.1,28.5,54.9l16.5-0.2l-0.2-14.9l37,28.2
				l-36.2,29.3l-0.2-14.9L266.6,269z"/>
			<path class="st23" d="M128.2,326.2c-8.5-8.3-15.4-17.9-20.3-28.4c9.7,1.2,19.8-0.6,28.5-5.6c3.1,5.1,6.8,9.8,11.2,14
				c13.4,13,31.1,20.1,49.8,19.8c18.7-0.3,36.2-7.8,49.2-21.2l19.9,19.4c-18.2,18.7-42.6,29.3-68.8,29.6
				C171.6,354.3,146.9,344.5,128.2,326.2z"/>
		</g>
	</g>
	<text transform="matrix(0.9999 -1.016794e-02 1.016794e-02 0.9999 165.1608 274.1495)" class="st8 st10 st24 st25">01</text>
	<g>
		<g>
			<rect x="442.1" y="169.2" class="st26" width="481.5" height="166.4"/>
			
				<ellipse transform="matrix(0.9212 -0.389 0.389 0.9212 -88.8406 64.3414)" class="st7" cx="114.5" cy="251.6" rx="40.4" ry="40.4"/>
			<g>
				<path class="st8" d="M155.6,251c-0.2-11-4.6-21.2-12.5-28.9c-7.9-7.7-18.3-11.8-29.2-11.6c-11,0.2-21.2,4.6-28.9,12.5
					c-7.7,7.9-11.8,18.3-11.6,29.2c0.2,11,4.6,21.2,12.5,28.9s18.3,11.8,29.2,11.6c11-0.2,21.2-4.6,28.9-12.5
					C151.6,272.3,155.7,262,155.6,251z M74.8,252.1c-0.1-10.6,3.8-20.6,11.2-28.2c7.4-7.6,17.3-11.9,27.9-12
					c10.6-0.1,20.6,3.8,28.2,11.2c7.6,7.4,11.9,17.3,12,27.9c0.1,10.6-3.8,20.6-11.2,28.2c-7.4,7.6-17.3,11.9-27.9,12
					c-10.6,0.1-20.6-3.8-28.2-11.2S74.9,262.7,74.8,252.1z"/>
			</g>
		</g>
		<circle class="st23" cx="114.5" cy="251.6" r="25.9"/>
	</g>
	<g>
		
			<rect x="358.2" y="251.6" transform="matrix(0.9999 -1.412220e-02 1.412220e-02 0.9999 -3.5239 5.5608)" class="st8" width="67.5" height="1.4"/>
	</g>
	<rect x="451.7" y="174" class="st14" width="523.5" height="155.1"/>
	<text transform="matrix(1 0 0 1 451.7252 198.2524)"><tspan x="0" y="0" class="st15 st27">Ensure proper representation of </tspan><tspan x="0" y="41" class="st15 st27">women in the technical field and </tspan><tspan x="0" y="82" class="st15 st27">encourage them to take up </tspan><tspan x="0" y="123" class="st15 st27">leadership roles</tspan></text>
	<g id="XMLID_2_">
		<g id="XMLID_7_">
			<path class="st7" d="M115.1,234.6c2.4,0,4,0.7,5.1,1.7c1.5,1.5,1.8,3.9,1.8,6.7c0,2.2-0.7,4.2-1.8,5.7c-1.3,1.7-3.1,2.7-5.1,2.7
				c-3.8,0-6.9-3.8-6.9-8.4C108.2,238.4,109.2,234.6,115.1,234.6 M115.1,233.9c-6.8,0-7.7,4.6-7.7,9.1c0,5,3.4,9.1,7.7,9.1
				c2.2,0,4.2-1.1,5.7-3c1.3-1.7,2-3.9,2-6.1c0-2.4-0.2-5.3-2-7.2C119.5,234.5,117.6,233.9,115.1,233.9L115.1,233.9z"/>
		</g>
		<g id="XMLID_5_">
			<path class="st7" d="M118.9,252.4c0.5,0.1,0.9,0.2,1.3,0.3c6.9,1.5,7.8,4,8,11.6c0,0.4,0,0.6,0,0.6c0,0,0,0,0,0
				c0,0.1,0,0.3,0,0.6c0,0-1.3,2.6-8,3.5c-1.4,0.2-3.1,0.3-5.1,0.3c-11.1,0-13.1-3.9-13.1-3.9c0-0.5,0-0.7,0-0.8c0,0,0,0,0,0
				c0,0,0-0.1,0-0.6c0.1-7.9,1.3-10.1,9.2-11.6c0,0,1.1,1.4,3.8,1.4C117.8,253.9,118.9,252.4,118.9,252.4 M128.2,264.8L128.2,264.8
				 M118.9,251.7c-0.2,0-0.4,0.1-0.6,0.3c0,0.1-1,1.2-3.2,1.2c-2.2,0-3.2-1.1-3.2-1.2c-0.1-0.2-0.4-0.3-0.6-0.3c0,0-0.1,0-0.1,0
				c-8.4,1.5-9.7,4.1-9.9,12.3c0,0.3,0,0.4,0,0.5c0,0,0,0.1,0,0.1l0,0.8c0,0.1,0,0.2,0.1,0.3c0.1,0.2,2.3,4.3,13.7,4.3
				c1.9,0,3.6-0.1,5.2-0.3c6.9-1,8.4-3.6,8.5-4c0.1-0.1,0.1-0.2,0.1-0.3l0-0.4l0-0.1c0,0,0,0,0-0.1c0,0,0-0.1,0-0.1
				c0-0.1,0-0.2,0-0.5c-0.1-8-1.3-10.7-8.6-12.3c-0.4-0.1-0.9-0.2-1.3-0.3C119,251.7,119,251.7,118.9,251.7L118.9,251.7z"/>
		</g>
		<path class="st28" d="M121.2,248.8l4.7,1.6c2.5-5.5,1.9-11.6-1.6-15.5c-2.6-3-6.1-3.8-7.5-4c-2-0.2-4.8,0-7.4,1.5
			c-5.1,3-7.6,10.3-5.8,18.1c1.7-0.7,3.3-1.5,5-2.2"/>
	</g>
</g>
</svg>
