<?xml version="1.0" encoding="UTF-8"?>
<svg fill="none" viewBox="0 0 1440 894" xmlns="http://www.w3.org/2000/svg">
<g clip-path="url(#b)">
<rect width="1440" height="894" fill="#fff"/>
<path d="m559.89 787.82-569.89 92.177v-520.28l1456-79.886v542.82l-208.64-34.823-331.23 34.823h-40.528l-305.71-34.823z" fill="#BC14B8"/>
<path d="m508.5 124.3-518.5-110.3v865.32l416-104.14 459 54.81 304-58.236 281.5 87.696v-747.47l-182-68.513-760 80.845z" fill="url(#a)"/>
<path d="m454.14 596.59c0-80.501 65.7-146.22 146.18-146.22 32.693 0 65.386 12.264 94.621 34.905 4.086 3.145 4.715 8.805 1.572 12.578-3.144 4.088-8.802 4.717-12.575 1.573-26.091-20.44-55.012-31.132-83.618-31.132-70.73 0-127.94 57.546-127.94 127.98" fill="#FFD2FF"/>
<path d="m602 692c51.362 0 93.01-41.638 93.022-93s-41.616-93-92.979-93c-51.362 0-93.009 41.638-93.021 93s41.616 93 92.978 93z" stroke="#FFD2FF" stroke-miterlimit="10" stroke-width="30"/>
<path d="m582.09 566.09c14.775 0 20.119 16.037 20.119 29.559s-5.03 29.559-20.119 29.559-20.118-16.037-20.118-29.559c0-13.207 5.344-29.559 20.118-29.559zm0 3.773c-6.916 0-8.802 13.208-8.802 25.786s2.201 26.1 8.802 26.1c6.916 0 8.488-13.207 8.488-26.1 0.314-12.893-1.886-25.786-8.488-25.786z" fill="#DFB6FF"/>
<path d="m612.89 624.26v-3.145c9.745-0.629 10.374-1.258 10.374-8.176v-33.961c0-4.717-1.258-5.032-5.03-5.346l-3.458-0.315v-2.83c6.602-0.943 13.832-2.515 19.176-4.402v47.169c0 6.918 0.629 7.547 10.059 8.176v3.144h-31.121v-0.314z" fill="#DFB6FF"/>
<path d="m424.28 599.42h-332.9c-1.5717 0-2.8292-1.258-2.8292-2.831 0-1.572 1.2575-2.83 2.8292-2.83h330.07c1.257-71.382 44.324-135.22 110.65-162.58 1.572-0.629 3.143 0 3.772 1.572 0.629 1.573 0 3.145-1.572 3.774-65.071 27.043-107.2 89.935-107.2 160.37 0 1.258-1.257 2.516-2.829 2.516z" fill="#B3B3B3"/>
<path d="m91.064 579.61c8.8019 0 15.718 7.232 15.718 15.723 0 8.804-7.2302 15.723-15.718 15.723-8.802 0-15.718-7.233-15.718-15.723-0.3144-8.491 6.9158-15.723 15.718-15.723z" fill="#FFD2FF"/>
<path d="m72.517 392.19c3.1435 0 5.6583 0.629 7.5445 1.887 1.8861 1.258 3.1435 3.459 3.1435 6.289 0 6.289-5.344 9.119-9.745 9.119h-1.2574l-3.1436-0.629v6.604c0 3.774 0.3144 3.774 4.401 4.088v1.258h-12.574v-1.258c3.7723-0.314 3.7723-0.629 3.7723-4.402v-17.296c0-3.773-0.6287-4.088-3.7723-4.402v-1.258h11.631zm-3.458 14.78c0.6288 0.314 1.5718 0.629 3.1436 0.629 2.8292 0 6.2871-1.573 6.2871-6.919 0-4.716-3.1435-6.603-6.6015-6.603-1.2574 0-2.2004 0.314-2.2004 0.629-0.3144 0.314-0.3144 0.943-0.3144 1.887v10.377h-0.3144z" fill="#fff"/>
<path d="m102.38 417.03c-2.8292 3.774-5.9727 4.403-7.5445 4.403-5.3441 0-8.802-4.403-8.802-9.434 0-3.145 1.2575-5.975 2.8292-7.861 1.8862-2.202 4.401-3.145 6.6015-3.145 3.7723 0 6.9158 3.459 6.9158 6.918 0 0.943 0 1.258-0.943 1.572-0.943 0.315-6.6015 0.629-11.631 0.629 0 5.661 3.4579 8.176 6.6015 8.176 1.8861 0 3.4579-0.629 5.0297-2.201l0.943 0.943zm-7.8589-14.15c-1.8861 0-3.7722 1.886-4.4009 5.346h7.2301c0.6287 0 0.9431-0.315 0.9431-0.944 0-2.516-1.2574-4.402-3.7723-4.402z" fill="#fff"/>
<path d="m114.01 420.81c-0.943 0.629-1.572 0.629-1.886 0.629-2.829 0-4.401-1.573-4.401-5.346v-12.578h-3.143l-0.315-0.629 1.258-1.258h1.886v-3.774c0.943-0.943 2.515-2.201 3.458-3.144h0.628v6.603h5.03c0.314 0.315 0.314 1.573-0.314 1.887h-4.716v11.321c0 3.459 1.258 4.088 2.515 4.088 0.943 0 1.886-0.315 2.515-0.629l0.314 1.258-2.829 1.572z" fill="#fff"/>
<path d="m118.73 420.81v-1.258c2.83-0.314 3.144-0.629 3.144-3.459v-9.119c0-2.83 0-2.83-2.829-3.459v-0.944c2.515-0.314 4.715-0.943 6.601-1.887v5.661 9.748c0 3.145 0.315 3.145 3.144 3.459v1.258h-10.06zm4.716-23.899c-1.258 0-2.515-1.258-2.515-2.516 0-1.572 1.257-2.515 2.515-2.515 1.257 0 2.515 0.943 2.515 2.515 0 1.258-1.258 2.516-2.515 2.516z" fill="#fff"/>
<path d="m139.79 420.81c-0.943 0.629-1.571 0.629-1.886 0.629-2.829 0-4.401-1.573-4.401-5.346v-12.578h-3.143l-0.315-0.629 1.258-1.258h1.886v-3.774c0.943-0.943 2.515-2.201 3.458-3.144h0.628v6.603h4.716c0.314 0.315 0.314 1.573-0.315 1.887h-4.715v11.321c0 3.459 1.258 4.088 2.515 4.088 0.943 0 1.886-0.315 2.515-0.629l0.314 1.258-2.515 1.572z" fill="#fff"/>
<path d="m144.5 420.81v-1.258c2.829-0.314 3.143-0.629 3.143-3.459v-9.119c0-2.83 0-2.83-2.829-3.459v-0.944c2.515-0.314 4.715-0.943 6.601-1.887v5.661 9.748c0 3.145 0.315 3.145 3.144 3.459v1.258h-10.059zm4.715-23.899c-1.257 0-2.515-1.258-2.515-2.516 0-1.572 1.258-2.515 2.515-2.515s2.515 0.943 2.515 2.515c-0.315 1.258-1.258 2.516-2.515 2.516z" fill="#fff"/>
<path d="m166.82 401c5.658 0 9.745 4.402 9.745 9.748 0 7.233-5.344 10.692-9.745 10.692-6.287 0-9.745-5.032-9.745-9.748-0.315-7.233 5.344-10.692 9.745-10.692zm-0.629 1.572c-2.515 0-4.715 2.516-4.715 7.547 0 5.661 2.2 9.748 5.658 9.748 2.515 0 4.716-1.886 4.716-7.861 0-5.346-1.887-9.434-5.659-9.434z" fill="#fff"/>
<path d="m191.97 420.81v-1.258c2.515-0.314 2.515-0.629 2.515-3.459v-7.233c0-3.144-1.257-5.031-3.772-5.031-1.572 0-3.144 0.943-4.715 2.201v10.377c0 2.831 0.314 3.145 2.829 3.46v1.257h-9.745v-1.257c2.829-0.315 3.143-0.629 3.143-3.46v-9.119c0-2.83-0.314-2.83-2.515-3.459v-1.258c2.201-0.314 4.401-0.943 6.602-1.886v3.459l2.829-1.887c1.258-0.944 2.201-1.258 3.458-1.258 3.458 0 5.658 2.516 5.658 6.918v8.49c0 2.831 0.315 3.145 2.83 3.46v1.257h-9.117v-0.314z" fill="#fff"/>
<path d="m222.78 420.81c-0.629 0.629-1.257 0.629-1.886 0.629-2.829 0-4.401-1.573-4.401-5.346v-12.578h-3.144l-0.314-0.629 1.257-1.258h1.887v-3.774c0.943-0.943 2.514-2.201 3.458-3.144h0.628v6.603h5.03c0.314 0.315 0.314 1.573-0.314 1.887h-4.716v11.321c0 3.459 1.258 4.088 2.515 4.088 0.943 0 1.886-0.315 2.515-0.629l0.314 1.258-2.829 1.572z" fill="#fff"/>
<path d="m237.87 401c5.659 0 9.745 4.402 9.745 9.748 0 7.233-5.344 10.692-9.745 10.692-6.287 0-9.745-5.032-9.745-9.748-0.314-7.233 5.344-10.692 9.745-10.692zm-0.629 1.572c-2.514 0-4.715 2.516-4.715 7.547 0 5.661 2.201 9.748 5.659 9.748 2.514 0 4.715-1.886 4.715-7.861 0-5.346-1.886-9.434-5.659-9.434z" fill="#fff"/>
<path d="m263.64 401.62v-1.258c0-3.145 1.258-6.289 4.087-8.805 1.572-1.258 3.143-2.201 5.03-2.201 1.571 0 2.829 0.629 3.457 1.258 0.315 0.629 0.629 0.943 0.315 1.572 0 0.629-0.629 1.258-1.258 1.572-0.628 0.315-0.943 0.315-1.257 0-0.943-0.943-2.2-1.886-3.458-1.886-2.829 0-2.829 3.773-2.829 7.547v1.886h4.401c0.314 0.315 0 1.573-0.629 1.887h-4.086v12.579c0 3.144 0.314 3.144 3.772 3.459v1.257h-10.688v-1.257c2.829-0.315 3.143-0.315 3.143-3.459v-12.893h-3.143l-0.315-0.629 0.943-1.258h2.515v0.629z" fill="#fff"/>
<path d="m283.76 401c5.658 0 9.745 4.402 9.745 9.748 0 7.233-5.344 10.692-9.745 10.692-6.287 0-9.745-5.032-9.745-9.748-0.314-7.233 5.344-10.692 9.745-10.692zm-0.629 1.572c-2.515 0-4.715 2.516-4.715 7.547 0 5.661 2.2 9.748 5.658 9.748 2.515 0 4.716-1.886 4.716-7.861 0-5.346-1.886-9.434-5.659-9.434z" fill="#fff"/>
<path d="m306.71 420.81h-10.374v-1.258c2.829-0.314 2.829-0.629 2.829-3.459v-9.119c0-2.83-0.314-2.83-2.514-3.145v-1.258c2.2-0.314 4.401-0.943 6.601-1.886v4.716c1.572-2.515 3.458-4.716 5.658-4.716 1.572 0 2.515 0.943 2.515 2.201s-0.943 2.201-1.571 2.515c-0.629 0.315-0.944 0.315-1.258 0-0.629-0.629-1.257-1.257-1.886-1.257-0.943 0-2.515 1.257-3.458 3.459v8.176c0 2.83 0.314 3.144 3.458 3.459v1.572z" fill="#fff"/>
<path d="m337.2 420.81v-1.258c2.515-0.314 2.83-0.314 2.83-3.459v-7.233c0-3.144-1.258-5.031-3.773-5.031-1.571 0-2.829 0.943-4.715 2.201v1.887 8.49c0 2.831 0.314 2.831 2.829 3.145v1.258h-9.43v-1.258c2.514-0.314 2.829-0.314 2.829-3.145v-7.547c0-3.144-0.943-5.031-3.458-5.031-1.572 0-3.144 0.943-4.715 2.201v10.377c0 2.831 0.314 3.145 2.514 3.145v1.258h-9.43v-1.258c2.829-0.314 3.143-0.314 3.143-3.459v-9.119c0-2.83 0-2.83-2.515-3.459v-0.944c2.201-0.314 4.401-0.943 6.288-1.886v3.459c0.943-0.629 1.886-1.258 3.143-2.202 1.258-0.629 2.201-1.257 3.458-1.257 2.201 0 4.087 1.257 4.715 3.459 1.258-0.944 2.201-1.573 3.458-2.516 0.943-0.629 2.201-1.258 3.458-1.258 3.458 0 5.659 2.516 5.659 6.918v8.491c0 2.83 0.314 3.144 2.829 3.144v1.258h-9.117v0.629z" fill="#fff"/>
<path d="m69.059 473.64c-0.6287 0.314-1.5717 0.629-1.8861 0.629-2.8292 0-4.401-1.572-4.401-5.346v-12.578h-3.1435l-0.3144-0.629 1.2575-1.258h1.8861v-3.774c0.9431-0.943 2.5148-2.201 3.4579-3.144h0.6287v6.604h5.0297c0.3143 0.314 0.3143 1.572-0.3144 1.886h-4.7153v11.321c0 3.459 1.2574 4.088 2.5148 4.088 0.9431 0 1.8862-0.315 2.5149-0.629l0.3143 1.258-2.8292 1.572z" fill="#fff"/>
<path d="m86.034 473.64v-1.258c2.5149-0.314 2.8292-0.629 2.8292-3.459v-7.232c0-3.459-1.2574-5.346-4.0866-5.346-1.5718 0-3.1435 0.629-4.401 2.201v10.377c0 2.83 0.3144 3.145 2.8292 3.459v1.258h-9.745v-1.258c2.5149-0.314 3.1436-0.314 3.1436-3.459v-21.069c0-2.201 0-2.83-3.1436-3.144v-1.258c2.5149-0.315 5.3441-0.943 6.9158-1.572v5.345 9.434c1.5718-1.572 4.0867-3.144 6.2871-3.144 3.7723 0 5.9728 2.201 5.9728 7.547v7.861c0 2.83 0.3144 3.145 2.8292 3.459v1.258h-9.4307z" fill="#fff"/>
<path d="m114.33 469.86c-2.83 3.46-5.973 4.403-7.545 4.403-5.344 0-8.802-4.403-8.802-9.434 0-3.144 1.2575-5.975 2.829-7.861 1.886-2.202 4.401-3.145 6.602-3.145 3.772 0 6.916 3.459 6.916 6.918 0 0.944 0 1.258-0.944 1.572-0.943 0.315-6.601 0.629-11.631 0.629 0 5.661 3.458 8.176 6.602 8.176 1.886 0 3.458-0.629 5.029-2.201l0.944 0.943zm-7.545-14.15c-1.886 0-3.772 1.887-4.401 5.346h7.23c0.629 0 0.943-0.315 0.943-0.944 0-2.515-1.572-4.402-3.772-4.402z" fill="#fff"/>
<path d="m167.45 446.59c-3.144 0.314-3.458 0.943-4.716 4.402-1.257 4.088-5.029 15.408-7.23 23.27h-1.572c-2.2-6.918-5.029-14.78-7.544-21.383-2.515 7.547-5.03 14.779-7.23 21.383h-1.572c-2.201-7.233-4.716-15.723-7.23-23.585-1.258-3.459-1.572-4.087-4.401-4.402v-1.258h11.316v1.258c-3.143 0.315-3.457 0.943-2.829 3.145 1.572 5.66 3.458 11.635 5.03 17.609 2.515-6.918 5.03-14.465 7.23-21.383h1.572c2.515 7.233 5.03 14.151 7.544 21.383 1.887-5.66 4.401-13.521 5.03-16.98 0.629-2.516 0.314-3.145-3.458-3.459v-1.258h10.06v1.258z" fill="#fff"/>
<path d="m168.4 473.64v-1.258c3.458-0.314 3.772-0.629 3.772-4.402v-17.296c0-3.773-0.314-4.087-3.772-4.402v-1.258h12.259v1.258c-3.457 0.315-4.086 0.629-4.086 4.402v17.296c0 3.773 0.314 3.773 4.086 4.402v1.258h-12.259z" fill="#fff"/>
<path d="m207.69 466.72c-0.314 1.258-1.572 5.66-1.886 7.232h-21.691v-1.257c4.087-0.315 4.401-0.629 4.401-4.403v-17.295c0-3.774-0.628-4.088-3.772-4.402v-1.258h13.517 6.602c0 0.943 0.314 4.402 0.314 6.918l-1.257 0.314c-0.315-1.572-0.943-2.515-1.572-3.459-0.629-1.258-1.572-1.572-4.087-1.572h-4.086c-1.572 0-1.572 0-1.572 1.572v9.748h4.715c3.144 0 3.458-0.629 4.087-3.773h1.572v9.119h-1.572c-0.629-3.144-0.943-3.773-4.087-3.773h-4.715v8.49c0 3.145 0.943 3.459 3.144 3.459h3.772c2.515 0 3.143-0.314 4.086-1.572 0.943-0.944 1.887-2.83 2.515-4.088h1.572z" fill="#fff"/>
<path d="m235.35 473.64v-1.258c2.829-0.314 3.144-0.943 2.515-2.515-0.629-1.573-1.257-3.774-2.2-6.29h-9.431c-0.629 1.887-1.257 3.459-1.886 5.346-0.943 2.83-0.314 3.145 3.458 3.459v1.258h-10.374v-1.258c2.829-0.314 3.458-0.629 5.03-4.717l9.116-22.955 1.572-0.315c2.829 7.547 5.658 15.723 8.487 23.27 1.572 3.774 1.887 4.088 5.03 4.717v1.258h-11.317zm-4.401-22.956c-1.257 3.774-2.829 7.548-4.086 11.007h7.859l-3.773-11.007z" fill="#fff"/>
<path d="m276.53 461.69c-2.829 0.314-2.829 0.628-2.829 3.144v3.774c0 1.572 0 3.144 0.314 4.088-2.515 0.629-6.287 1.572-10.059 1.572-10.06 0-16.032-6.289-16.032-15.094 0-9.434 7.544-14.78 16.66-14.78 4.401 0 7.859 0.944 9.117 0.944 0 1.572 0.314 4.402 0.628 7.232l-1.257 0.315c-0.943-3.774-2.515-5.346-5.03-6.289-0.943-0.315-2.829-0.629-4.086-0.629-6.602 0-10.688 4.716-10.688 12.578 0 7.233 3.457 13.836 11.631 13.836 1.257 0 2.829-0.314 3.458-0.629 0.943-0.629 1.257-0.943 1.257-2.83v-3.459c0-3.145-0.314-3.459-4.401-3.773v-1.258h11.631v1.258h-0.314z" fill="#fff"/>
<path d="m71.888 512.63c-0.943-2.516-2.2004-4.403-4.7153-4.403-1.5718 0-2.5148 0.944-2.5148 2.831 0 1.886 1.2574 2.83 3.7722 3.773 3.7723 1.887 5.6584 3.145 5.6584 5.975 0 4.088-3.7722 6.289-7.2301 6.289-2.2005 0-4.401-0.629-5.3441-1.258-0.3143-1.258-0.6287-3.773-0.6287-5.346l1.2574-0.314c0.9431 2.83 2.5149 5.031 5.3441 5.031 1.5717 0 2.8292-1.258 2.8292-2.83 0-1.887-0.9431-2.83-3.4579-4.088-3.1436-1.572-5.6584-2.83-5.6584-6.289 0-3.145 2.8292-5.66 6.9158-5.66 1.8861 0 3.4579 0.314 4.401 0.629 0 0.943 0.3143 3.773 0.6287 5.031l-1.2575 0.629z" fill="#fff"/>
<path d="m98.294 525.52c-2.2005 0.314-4.7154 0.943-6.9159 1.572v-3.459c-2.2004 1.887-4.0866 3.459-6.6014 3.459-3.1436 0-5.6584-1.887-5.6584-6.604v-8.804c0-2.202-0.3144-2.516-1.5718-2.831l-1.2574-0.314v-1.258c1.8861 0 5.0297-0.629 6.6015-0.629v6.604 5.975c0 3.773 1.8861 4.716 3.7722 4.716 1.5718 0 3.1436-0.628 4.401-1.886v-10.377c0-2.202-0.6287-2.516-1.8861-2.831l-1.2575-0.314v-1.258c2.8292 0 5.9728-0.629 7.2302-0.629v14.78c0 2.201 0.3144 2.515 1.8861 2.515h1.2575v1.573z" fill="#fff"/>
<path d="m109.61 507.28c0.943-0.314 1.572-0.629 2.201-0.629 4.715 0 8.802 4.088 8.802 9.434 0 5.975-5.03 11.006-11.003 11.006-1.886 0-4.401-0.314-6.916-1.572v-3.459-21.069c0-2.83 0-2.83-2.8289-3.145v-1.257c2.2009-0.315 5.0299-0.944 6.9159-1.573v5.032 8.49l2.829-1.258zm-3.143 14.151c0 0.629 0 1.258 0.314 1.572 0.629 0.943 2.2 2.201 4.087 2.201 3.457 0 5.344-3.144 5.344-8.176 0-5.031-3.144-7.861-6.602-7.861-1.257 0-2.515 0.314-3.143 0.629v11.635z" fill="#fff"/>
<path d="m147.65 526.46v-1.258c2.515-0.314 2.829-0.314 2.829-3.459v-7.547c0-3.144-1.257-5.031-3.772-5.031-1.572 0-2.829 0.943-4.715 2.201v1.887 8.49c0 2.83 0.314 2.83 2.829 3.145v1.258h-9.431v-0.944c2.515-0.314 2.83-0.314 2.83-3.144v-7.547c0-3.145-0.944-5.032-3.458-5.032-1.572 0-3.144 0.944-4.716 2.202v10.377c0 2.83 0.315 3.144 2.515 3.144v1.258h-9.431v-1.258c2.83-0.314 3.144-0.314 3.144-3.459v-9.119c0-2.83 0-2.83-2.515-3.459v-1.258c2.201-0.314 4.401-0.943 6.287-1.887v3.459c0.943-0.629 1.886-1.257 3.144-2.201 1.257-0.629 2.2-1.258 3.458-1.258 2.2 0 4.086 1.258 4.715 3.459 1.258-0.943 2.201-1.572 3.458-2.515 0.943-0.629 2.2-1.258 3.458-1.258 3.458 0 5.658 2.515 5.658 6.918v8.49c0 2.83 0.315 3.145 2.83 3.145v1.258h-9.117v0.943z" fill="#fff"/>
<path d="m159.59 526.46v-1.258c2.829-0.314 3.143-0.629 3.143-3.459v-9.119c0-2.83 0-2.83-2.829-3.459v-1.258c2.515-0.314 4.715-0.943 6.602-1.572v5.66 9.748c0 3.145 0.314 3.145 3.143 3.459v1.258h-10.059zm4.715-23.899c-1.257 0-2.515-1.258-2.515-2.515 0-1.573 1.258-2.516 2.515-2.516s2.515 0.943 2.515 2.516c0 1.257-1.258 2.515-2.515 2.515z" fill="#fff"/>
<path d="m180.66 526.46c-0.628 0.315-1.571 0.629-1.886 0.629-2.829 0-4.401-1.572-4.401-5.346v-12.578h-3.143l-0.315-0.629 1.258-1.258h1.886v-3.773c0.943-0.944 2.515-2.202 3.458-3.145h0.629v6.604h4.715c0.314 0.314 0.314 1.572-0.314 1.886h-4.716v11.321c0 3.459 1.258 4.088 2.515 4.088 0.943 0 1.886-0.315 2.515-0.629l0.314 1.258-2.515 1.572z" fill="#fff"/>
<path d="m194.17 526.46c-0.629 0.315-1.572 0.629-1.886 0.629-2.83 0-4.401-1.572-4.401-5.346v-12.578h-3.144l-0.314-0.629 1.257-1.258h1.886v-3.773c0.943-0.944 2.515-2.202 3.458-3.145h0.629v6.604h5.03c0.314 0.314 0.314 1.572-0.315 1.886h-4.715v11.321c0 3.459 1.257 4.088 2.515 4.088 0.943 0 1.886-0.315 2.515-0.629l0.314 1.258-2.829 1.572z" fill="#fff"/>
<path d="m215.55 522.69c-2.829 3.459-5.973 4.402-7.545 4.402-5.344 0-8.802-4.402-8.802-9.434 0-3.144 1.258-5.974 2.83-7.861 1.886-2.201 4.401-3.145 6.601-3.145 3.772 0 6.916 3.459 6.916 6.918 0 0.944 0 1.258-0.943 1.573-0.943 0.314-6.602 0.628-11.631 0.628 0 5.661 3.458 8.176 6.601 8.176 1.886 0 3.458-0.628 5.03-2.201l0.943 0.944zm-7.859-14.151c-1.886 0-3.772 1.887-4.401 5.346h7.23c0.629 0 0.943-0.315 0.943-0.944 0-2.515-1.257-4.402-3.772-4.402z" fill="#fff"/>
<path d="m239.75 525.52c-0.943 0.314-4.401 0.629-7.23 1.572v-2.83c-0.943 0.629-1.886 1.258-2.829 1.572-1.572 0.944-2.829 1.258-3.144 1.258-3.458 0-8.487-3.459-8.487-9.748 0-5.975 5.344-10.692 11.631-10.692 0.629 0 1.886 0 2.829 0.315v-6.29c0-2.83-0.314-2.83-3.458-3.144v-1.258c2.201-0.314 5.344-0.943 7.23-1.572v5.346 21.068c0 2.201 0.315 2.516 1.887 2.83h1.257v1.573h0.314zm-6.916-14.78c-0.943-1.572-2.829-2.201-4.4-2.201-1.887 0-5.659 1.258-5.659 7.547 0 5.346 3.144 8.176 5.973 8.176 1.572 0 2.829-0.629 4.086-1.572v-11.95z" fill="#fff"/>
<path d="m143.88 318.92c-0.943 3.145-2.201 7.547-2.829 10.063h-24.52v-1.572c3.144-3.145 6.601-6.604 9.745-10.378 4.715-5.031 6.602-9.119 6.602-14.15 0-4.403-2.201-7.233-6.288-7.233-3.772 0-6.287 2.516-8.173 5.346l-1.572-1.258 3.773-5.66c2.2-2.516 5.344-3.774 9.43-3.774 5.973 0 11.317 4.088 11.317 11.006 0 4.717-1.886 8.176-8.173 13.837-2.515 2.201-5.659 5.345-7.859 7.232h10.374c3.772 0 4.401-0.314 6.601-4.088l1.572 0.629z" fill="#DFB6FF"/>
<path d="m160.85 290.31c10.374 0 13.832 11.006 13.832 19.811s-3.458 19.811-13.832 19.811-13.831-11.006-13.831-19.811c0-9.119 3.772-19.811 13.831-19.811zm0 2.516c-4.086 0-5.03 8.805-5.03 16.981s1.258 17.295 5.345 17.295c4.086 0 5.029-8.805 5.029-17.295-0.314-8.491-1.257-16.981-5.344-16.981z" fill="#DFB6FF"/>
<path d="m205.8 318.92c-0.943 3.145-2.2 7.547-2.829 10.063h-24.52v-1.572c3.144-3.145 6.602-6.604 9.745-10.378 4.715-5.031 6.602-9.119 6.602-14.15 0-4.403-2.201-7.233-6.288-7.233-3.772 0-6.287 2.516-8.173 5.346l-1.886-1.572 3.772-5.661c2.201-2.515 5.344-3.773 9.431-3.773 5.973 0 11.317 4.088 11.317 11.006 0 4.717-1.886 8.176-8.173 13.836-2.515 2.201-5.659 5.346-7.859 7.233h10.373c3.773 0 4.401-0.315 6.602-4.088l1.886 0.943z" fill="#DFB6FF"/>
<path d="m222.46 290.31c10.374 0 13.831 11.006 13.831 19.811s-3.457 19.811-13.831 19.811-13.832-11.006-13.832-19.811c0-9.119 3.772-19.811 13.832-19.811zm0 2.516c-4.087 0-5.03 8.805-5.03 16.981s1.258 17.295 5.344 17.295c4.087 0 5.03-8.805 5.03-17.295 0-8.491-1.258-16.981-5.344-16.981z" fill="#DFB6FF"/>
<path d="m270.25 364.2h-211.25v5.975h211.25v-5.975z" fill="#DFB6FF"/>
<path d="m80.376 328.98c-11.946 0-21.376-9.748-21.376-21.383 0-11.95 9.745-21.384 21.376-21.384 11.631 0 21.376 9.749 21.376 21.384 0 11.949-9.7447 21.383-21.376 21.383zm0-40.88c-10.688 0-19.49 8.805-19.49 19.497 0 10.691 8.802 19.496 19.49 19.496 10.688 0 19.49-8.805 19.49-19.496 0-10.692-8.802-19.497-19.49-19.497z" fill="#DFB6FF"/>
<path d="m80.376 290.62c-9.4307 0-16.975 7.547-16.975 16.981 0 9.433 7.5445 16.98 16.975 16.98 9.4306 0 16.975-7.547 16.975-16.98 0-9.434-7.8589-16.981-16.975-16.981zm11.946 18.238h-11.946c-0.6287 0-1.2574-0.628-1.2574-1.257v-14.466c0-0.628 0.6287-1.257 1.2574-1.257s1.2574 0.629 1.2574 1.257v13.208h11.002c0.6288 0 1.2575 0.629 1.2575 1.258-0.3144 0.629-0.9431 1.257-1.5718 1.257z" fill="#DFB6FF"/>
<path d="m688 384c0 51.42 41.614 93 93 93s93-41.58 93-93-41.614-93-93-93-93 41.58-93 93z" stroke="#DFB6FF" stroke-miterlimit="10" stroke-width="30"/>
<path d="m928.19 391.25c0 80.501-65.701 146.22-146.18 146.22-34.264 0-65.386-11.949-98.393-37.735-4.087-3.145-4.715-8.805-1.572-12.578 3.144-4.088 8.802-4.717 12.574-1.573 29.55 23.27 57.213 33.962 87.077 33.962 70.73 0 127.94-57.546 127.94-127.98" fill="#DFB6FF"/>
<path d="m760.64 357.06c14.775 0 20.119 16.038 20.119 29.56 0 13.521-5.03 29.559-20.119 29.559s-20.119-16.038-20.119-29.559c-0.314-13.522 5.344-29.56 20.119-29.56zm-0.314 3.774c-6.916 0-8.802 13.207-8.802 25.786 0 12.578 2.2 26.1 8.802 26.1 6.916 0 8.487-13.208 8.487-26.1 0.315-12.893-1.571-25.786-8.487-25.786z" fill="#FFD2FF"/>
<path d="m826.34 401.09c-1.257 4.717-3.143 10.377-4.086 14.15h-35.837v-2.515c5.03-4.717 10.374-10.377 14.775-15.409 6.601-7.232 10.374-13.836 10.374-21.383 0-6.918-3.458-11.321-9.745-11.321-5.659 0-9.745 4.088-12.575 8.176l-2.514-2.201 5.658-8.176c3.144-3.459 7.859-5.66 13.517-5.66 9.117 0 16.347 6.289 16.347 16.352 0 7.232-2.829 12.578-11.946 21.383-3.772 3.459-9.116 8.49-12.574 11.95h16.032c5.344 0 6.602-0.315 10.06-6.29l2.514 0.944z" fill="#FFD2FF"/>
<path d="m1308.6 215.78h-458.64c-1.257 0-2.515 0.943-2.829 2.201-0.315 1.258 0.314 2.515 1.572 3.144 65.071 27.044 107.2 89.936 107.2 160.38 0 1.572 1.257 2.83 2.829 2.83s2.829-1.258 2.829-2.83c0-68.238-38.351-129.87-98.707-160.06h445.75c1.57 0 2.83-1.258 2.83-2.83 0-1.573-1.26-2.83-2.83-2.83z" fill="#B2B4C4"/>
<path d="m1297.6 232.45c8.8 0 15.72-7.233 15.72-15.723s-7.23-15.723-15.72-15.723c-8.8 0-15.72 7.233-15.72 15.723s7.23 15.723 15.72 15.723z" fill="#DFB6FF"/>
<path d="m1145.4 401.94v-1.257c3.46-0.315 3.77-0.629 3.77-4.403v-17.295c0-3.774-0.31-4.088-3.77-4.403v-1.257h12.26v1.257c-3.46 0.315-4.08 0.629-4.08 4.403v17.295c0 3.774 0.31 3.774 4.08 4.403v1.257h-12.26z" fill="#fff"/>
<path d="m1173.4 401.94v-1.257c2.51-0.315 2.51-0.629 2.51-3.46v-7.232c0-3.145-1.25-5.031-3.77-5.031-1.57 0-3.14 0.943-4.71 2.201v10.377c0 2.83 0.31 3.144 2.83 3.459v1.258h-9.75v-1.258c2.83-0.315 3.14-0.629 3.14-3.459v-9.119c0-2.831-0.31-2.831-2.51-3.459v-1.258c2.2-0.315 4.4-0.944 6.6-1.887v3.459c0.94-0.629 1.89-1.258 2.83-1.887 1.26-0.943 2.2-1.258 3.46-1.258 3.46 0 5.66 2.516 5.66 6.919v8.49c0 2.83 0.31 3.144 2.83 3.459v1.258h-9.12v-0.315z" fill="#fff"/>
<path d="m1199.5 402.57c-0.63 0-1.57-0.314-2.2-0.943s-0.94-1.258-0.94-1.887c-1.89 1.258-3.77 2.83-5.03 2.83-3.15 0-5.35-2.515-5.35-5.346 0-2.201 1.26-3.459 3.46-4.402 2.52-0.943 5.97-2.201 6.92-2.83v-0.944c0-2.83-1.57-4.716-3.77-4.716-0.95 0-1.58 0.314-1.89 0.943-0.63 0.629-0.63 1.572-1.26 2.83-0.31 0.944-0.63 0.943-1.26 0.943-0.94 0-2.2-0.943-2.2-1.886 0-0.629 0.63-1.258 1.58-1.887 1.25-0.943 4.08-2.516 6.6-3.145 1.25 0 2.83 0.315 3.77 1.258 1.57 1.258 2.2 2.83 2.2 5.032v8.49c0 1.887 0.63 2.516 1.57 2.516 0.63 0 0.94-0.315 1.57-0.315l0.32 1.258-4.09 2.201zm-3.46-11.32c-0.94 0.629-2.83 1.258-3.77 1.886-1.57 0.629-2.51 1.573-2.51 3.145 0 2.516 1.88 3.459 3.14 3.459 0.94 0 2.51-0.629 3.46-1.572-0.32-1.887-0.32-4.717-0.32-6.918z" fill="#fff"/>
<path d="m1226.5 401c-2.2 0.314-4.72 0.943-6.92 1.572v-3.459c-2.2 1.887-4.09 3.459-6.6 3.459-3.15 0-5.66-1.886-5.66-6.603v-8.805c0-2.201-0.31-2.516-1.57-2.83l-1.26-0.315v-1.258c1.89 0 5.03-0.629 6.6-0.629v6.604 5.975c0 3.773 1.89 4.717 3.77 4.717 1.58 0 3.15-0.629 4.41-1.887v-10.377c0-2.201-0.63-2.516-1.89-2.83l-1.26-0.315v-1.258c2.83 0 5.97-0.629 7.23-0.629v14.78c0 2.201 0.32 2.516 1.89 2.516h1.26v1.572z" fill="#fff"/>
<path d="m1235 395.34c-0.94 0.629-1.25 1.572-1.25 2.201s0.62 1.572 2.83 1.572h5.02c2.83 0 6.61 0.944 6.61 5.346 0 4.717-5.66 8.805-11.32 8.805-5.03 0-7.86-2.83-7.86-5.346 0-0.943 0.31-1.887 1.26-2.516 0.94-0.943 2.51-2.201 3.46-3.144-1.58-0.629-2.83-1.573-3.46-2.516-0.32-0.629-0.63-1.572-0.63-1.887 1.89-0.629 3.46-1.886 4.09-3.144l1.25 0.629zm2.2 0.629c-4.4 0-7.54-2.516-7.54-6.604 0-5.031 4.4-7.233 8.17-7.233 1.57 0 2.83 0.315 4.4 1.258 1.89 0 4.72-0.314 5.98-0.629l0.31 0.315c-0.31 0.629-0.94 1.887-1.57 2.515-0.63 0-2.2-0.314-2.83-0.314 0.63 0.943 1.26 2.201 1.26 4.088-0.32 4.402-4.09 6.604-8.18 6.604zm0.95 6.603c-2.2 0-3.15 0.315-4.09 0.944-1.26 0.943-1.89 2.201-1.89 3.459 0 2.515 2.52 4.088 5.98 4.088 4.08 0 6.28-2.202 6.28-4.717 0-1.573-0.62-2.83-1.88-3.145-1.26-0.629-2.52-0.629-4.4-0.629zm-0.95-19.182c-1.88 0-3.45 1.887-3.45 5.346s1.57 5.975 4.08 5.975c1.89 0 3.46-1.887 3.46-5.346s-1.57-5.975-4.09-5.975z" fill="#fff"/>
<path d="m1271.2 401c-2.2 0.314-4.71 0.943-6.91 1.572v-3.459c-2.2 1.887-4.09 3.459-6.6 3.459-3.15 0-5.66-1.886-5.66-6.603v-8.805c0-2.201-0.32-2.516-1.57-2.83l-1.26-0.315v-1.258c1.89 0 5.03-0.629 6.6-0.629v6.604 5.975c0 3.773 1.89 4.717 3.77 4.717 1.57 0 3.15-0.629 4.4-1.887v-10.377c0-2.201-0.62-2.516-1.88-2.83l-1.26-0.315v-1.258c2.83 0 5.97-0.629 7.23-0.629v14.78c0 2.201 0.32 2.516 1.89 2.516h1.25v1.572z" fill="#fff"/>
<path d="m1283.7 401.94h-10.38v-1.257c2.83-0.315 2.83-0.629 2.83-3.46v-9.119c0-2.83-0.31-2.83-2.51-3.144v-1.258c2.2-0.315 4.4-0.944 6.6-1.887v4.717c1.57-2.516 3.46-4.717 5.66-4.717 1.57 0 2.51 0.943 2.51 2.201s-0.94 2.201-1.57 2.516c-0.63 0.314-0.94 0.314-1.26 0-0.62-0.629-1.25-1.258-1.88-1.258-0.94 0-2.52 1.258-3.46 3.459v8.176c0 2.83 0.31 3.145 3.46 3.459v1.572z" fill="#fff"/>
<path d="m1304.2 402.57c-0.63 0-1.57-0.314-2.2-0.943s-0.94-1.258-0.94-1.887c-1.89 1.258-3.77 2.83-5.03 2.83-3.15 0-5.35-2.515-5.35-5.346 0-2.201 1.26-3.459 3.46-4.402 2.52-0.943 5.97-2.201 6.92-2.83v-0.944c0-2.83-1.57-4.716-3.77-4.716-0.95 0-1.58 0.314-1.89 0.943-0.63 0.629-0.63 1.572-1.26 2.83-0.31 0.944-0.63 0.943-1.26 0.943-0.94 0-2.2-0.943-2.2-1.886 0-0.629 0.63-1.258 1.58-1.887 1.25-0.943 4.08-2.516 6.6-3.145 1.25 0 2.83 0.315 3.77 1.258 1.57 1.258 2.2 2.83 2.2 5.032v8.49c0 1.887 0.63 2.516 1.57 2.516 0.63 0 0.95-0.315 1.57-0.315l0.32 1.258-4.09 2.201zm-3.46-11.32c-0.94 0.629-2.83 1.258-3.77 1.886-1.57 0.629-2.51 1.573-2.51 3.145 0 2.516 1.88 3.459 3.14 3.459 0.94 0 2.51-0.629 3.46-1.572-0.32-1.887-0.32-4.717-0.32-6.918z" fill="#fff"/>
<path d="m1318.6 401.94c-0.63 0.315-1.57 0.629-1.88 0.629-2.83 0-4.41-1.572-4.41-5.346v-12.578h-3.14l-0.31-0.629 1.25-1.258h1.89v-3.773c0.94-0.944 2.52-2.201 3.46-3.145h0.63v6.604h5.03c0.31 0.314 0.31 1.572-0.32 1.887h-4.71v11.32c0 3.459 1.25 4.088 2.51 4.088 0.94 0 1.89-0.314 2.52-0.629l0.31 1.258-2.83 1.572z" fill="#fff"/>
<path d="m1323.3 401.94v-1.257c2.83-0.315 3.14-0.629 3.14-3.46v-9.119c0-2.83 0-2.83-2.83-3.459v-0.943c2.52-0.315 4.72-0.944 6.6-1.573v5.661 9.748c0 3.145 0.32 3.144 3.15 3.459v1.258h-10.06v-0.315zm4.71-23.899c-1.25 0-2.51-1.257-2.51-2.515 0-1.573 1.26-2.516 2.51-2.516 1.26 0 2.52 0.943 2.52 2.516 0 1.258-0.95 2.515-2.52 2.515z" fill="#fff"/>
<path d="m1345.7 382.13c5.65 0 9.74 4.403 9.74 9.749 0 7.232-5.34 10.691-9.74 10.691-6.29 0-9.75-5.031-9.75-9.748 0-7.233 5.35-10.692 9.75-10.692zm-0.63 1.573c-2.52 0-4.72 2.515-4.72 7.547 0 5.66 2.2 9.748 5.66 9.748 2.52 0 4.72-1.887 4.72-7.862 0-5.345-1.89-9.433-5.66-9.433z" fill="#fff"/>
<path d="m1371.1 401.94v-1.257c2.51-0.315 2.51-0.629 2.51-3.46v-7.232c0-3.145-1.25-5.031-3.77-5.031-1.57 0-3.14 0.943-4.71 2.201v10.377c0 2.83 0.31 3.144 2.83 3.459v1.258h-9.75v-1.258c2.83-0.315 3.14-0.629 3.14-3.459v-9.119c0-2.831-0.31-2.831-2.51-3.459v-1.258c2.2-0.315 4.4-0.944 6.6-1.887v3.459c0.94-0.629 1.89-1.258 2.83-1.887 1.26-0.943 2.2-1.258 3.46-1.258 3.46 0 5.66 2.516 5.66 6.919v8.49c0 2.83 0.31 3.144 2.83 3.459v1.258h-9.12v-0.315z" fill="#fff"/>
<path d="m1154.8 434.96c5.66 0 9.75 4.402 9.75 9.748 0 7.232-5.35 10.691-9.75 10.691-6.28 0-9.74-5.031-9.74-9.748 0-7.232 5.34-10.691 9.74-10.691zm-0.31 1.572c-2.52 0-4.72 2.515-4.72 7.547 0 5.66 2.2 9.748 5.66 9.748 2.52 0 4.72-1.887 4.72-7.861 0-5.346-2.2-9.434-5.66-9.434z" fill="#fff"/>
<path d="m1170.6 435.59v-1.257c0-3.145 1.26-6.29 4.09-8.805 1.57-1.258 3.14-2.201 5.03-2.201 1.57 0 2.83 0.628 3.45 1.257 0.32 0.629 0.63 0.944 0.32 1.573 0 0.629-0.63 1.258-1.26 1.572s-0.94 0.314-1.26 0c-0.94-0.943-2.2-1.887-3.45-1.887-2.83 0-2.83 3.774-2.83 7.547v1.887h4.4c0.31 0.314 0 1.572-0.63 1.887h-4.09v12.578c0 3.145 0.32 3.145 3.78 3.459v1.258h-10.69v-1.258c2.83-0.314 3.14-0.314 3.14-3.459v-12.578h-3.14l-0.32-0.629 0.95-1.258h2.51v0.314z" fill="#fff"/>
<path d="m1230.9 427.41c-3.15 0.314-3.46 0.943-4.72 4.402-1.26 4.088-5.03 15.408-7.23 23.27h-1.88c-2.21-6.918-5.03-14.78-7.55-21.383-2.51 7.547-5.03 14.779-7.23 21.383h-1.57c-2.2-7.233-4.72-15.723-7.23-23.585-1.26-3.459-1.57-4.087-4.4-4.402v-1.258h11.31v1.258c-3.14 0.315-3.45 0.943-2.83 3.145 1.58 5.66 3.46 11.635 5.03 17.609 2.52-6.918 5.03-14.465 7.23-21.383h1.58c2.51 7.233 5.03 14.151 7.54 21.383 1.89-5.66 4.4-13.521 5.03-16.98 0.63-2.516 0.32-3.145-3.46-3.459v-1.258h10.06v1.258h0.32z" fill="#fff"/>
<path d="m1231.9 454.77v-1.257c3.46-0.315 3.77-0.629 3.77-4.403v-17.295c0-3.774-0.31-4.088-3.77-4.402v-1.258h12.26v1.258c-3.46 0.314-4.09 0.628-4.09 4.402v17.295c0 3.774 0.32 3.774 4.09 4.403v1.257h-12.26z" fill="#fff"/>
<path d="m1270.8 447.85c-0.31 1.258-1.57 5.661-1.89 7.233h-21.69v-1.258c4.09-0.314 4.4-0.629 4.4-4.402v-17.296c0-3.773-0.62-4.088-3.77-4.402v-1.258h13.52 6.6c0 0.943 0.31 4.403 0.31 6.918l-1.25 0.315c-0.32-1.573-0.95-2.516-1.57-3.459-0.63-1.258-1.58-1.573-4.09-1.573h-4.09c-1.57 0-1.57 0-1.57 1.573v9.748h4.72c3.14 0 3.45-0.629 4.08-3.774h1.57v9.12h-1.57c-0.63-3.145-0.94-3.774-4.08-3.774h-4.72v8.491c0 3.144 0.94 3.459 3.14 3.459h3.78c2.51 0 3.14-0.315 4.08-1.573 0.95-0.943 1.89-2.83 2.52-4.088h1.57z" fill="#fff"/>
<path d="m1298.8 454.77v-1.257c2.83-0.315 3.14-0.944 2.51-2.516s-1.26-3.774-2.2-6.289h-9.43c-0.63 1.886-1.26 3.459-1.88 5.346-0.95 2.83-0.32 3.144 3.45 3.459v1.257h-10.37v-1.257c2.83-0.315 3.46-0.629 5.03-4.717l9.12-22.956 1.57-0.314c2.83 7.547 5.66 15.723 8.48 23.27 1.58 3.773 1.89 4.088 5.03 4.717v1.257h-11.31zm-4.4-22.955c-1.26 3.773-2.83 7.547-4.09 11.006h7.86l-3.77-11.006z" fill="#fff"/>
<path d="m1340 442.82c-2.83 0.314-2.83 0.629-2.83 3.145v3.773c0 1.572 0 3.145 0.31 4.088-2.51 0.629-6.28 1.572-10.06 1.572-10.06 0-16.03-6.289-16.03-15.094 0-9.433 7.55-14.779 16.66-14.779 4.4 0 7.86 0.943 9.12 0.943 0 1.572 0.31 4.403 0.63 7.233l-1.26 0.314c-0.94-3.773-2.51-5.346-5.03-6.289-0.94-0.314-2.83-0.629-4.09-0.629-6.6 0-10.68 4.717-10.68 12.578 0 7.233 3.45 13.837 11.63 13.837 1.25 0 2.83-0.315 3.45-0.629 0.95-0.629 1.26-0.944 1.26-2.83v-3.459c0-3.145-0.31-3.46-4.4-3.774v-1.258h11.63v1.258h-0.31z" fill="#fff"/>
<path d="m1354.5 345.34h-211.25v5.974h211.25v-5.974z" fill="#FFD2FF"/>
<path d="m1235.6 300.06c-0.94 3.144-2.2 7.547-2.83 10.062h-24.52v-1.572c3.15-3.145 6.6-6.604 9.75-10.377 4.71-5.031 6.6-9.119 6.6-14.151 0-4.402-2.2-7.232-6.29-7.232-3.77 0-6.28 2.515-8.17 5.345l-1.89-1.572 3.78-5.66c2.2-2.516 5.34-3.774 9.43-3.774 5.97 0 11.31 4.088 11.31 11.006 0 4.717-1.88 8.176-8.17 13.837-2.52 2.201-5.66 5.345-7.86 7.232h10.37c3.78 0 4.41-0.314 6.61-4.088l1.88 0.944z" fill="#FFD2FF"/>
<path d="m1252.6 271.44c10.37 0 13.83 11.006 13.83 19.811s-3.46 19.811-13.83 19.811c-10.38 0-13.83-11.006-13.83-19.811 0-9.12 3.77-19.811 13.83-19.811zm0 2.83c-4.09 0-5.03 8.805-5.03 16.981s1.25 17.295 5.34 17.295 5.03-8.805 5.03-17.295c-0.31-8.805-1.26-16.981-5.34-16.981z" fill="#FFD2FF"/>
<path d="m1297.6 300.06c-0.94 3.144-2.2 7.547-2.83 10.062h-24.52v-1.572c3.14-3.145 6.6-6.604 9.75-10.377 4.71-5.031 6.6-9.119 6.6-14.151 0-4.402-2.2-7.232-6.29-7.232-3.77 0-6.29 2.515-8.17 5.345l-1.89-1.572 3.77-5.66c2.2-2.516 5.35-3.774 9.43-3.774 5.98 0 11.32 4.088 11.32 11.006 0 4.717-1.89 8.176-8.17 13.837-2.52 2.201-5.66 5.345-7.86 7.232h10.37c3.77 0 4.4-0.314 6.6-4.088l1.89 0.944z" fill="#FFD2FF"/>
<path d="m1303.8 310.12v-2.201c6.28-0.314 6.6-0.943 6.6-5.346v-22.012c0-3.144-0.94-3.459-3.46-3.773l-1.89-0.315v-1.887c4.72-0.628 10.06-1.886 13.52-3.144v31.131c0 4.403 0.32 5.032 6.6 5.346v2.201h-21.37z" fill="#FFD2FF"/>
<path d="m1165.8 314.52c-11.95 0-21.38-9.749-21.38-21.383 0-11.95 9.74-21.384 21.38-21.384 11.63 0 21.37 9.749 21.37 21.384 0 11.634-9.74 21.383-21.37 21.383zm0-41.194c-10.69 0-19.49 8.804-19.49 19.496s8.8 19.496 19.49 19.496c10.68 0 19.49-8.804 19.49-19.496s-8.81-19.496-19.49-19.496z" fill="#FFD2FF"/>
<path d="m1165.8 276.16c-9.44 0-16.98 7.547-16.98 16.981 0 9.433 7.54 16.98 16.98 16.98 9.43 0 16.97-7.547 16.97-16.98 0-9.434-7.54-16.981-16.97-16.981zm11.94 18.238h-11.94c-0.63 0-1.26-0.629-1.26-1.257v-14.466c0-0.629 0.63-1.257 1.26-1.257 0.62 0 1.25 0.628 1.25 1.257v13.208h11.01c0.62 0 1.25 0.629 1.25 1.258-0.31 0.628-0.94 1.257-1.57 1.257z" fill="#FFD2FF"/>
<path d="m919.08 400.37c5.035 0 9.117-4.083 9.117-9.119 0-5.037-4.082-9.12-9.117-9.12s-9.116 4.083-9.116 9.12c0 5.036 4.081 9.119 9.116 9.119z" fill="#DFB6FF"/>
<path d="m463.26 605.71c5.035 0 9.116-4.083 9.116-9.12 0-5.036-4.081-9.119-9.116-9.119s-9.116 4.083-9.116 9.119c0 5.037 4.081 9.12 9.116 9.12z" fill="#FFD2FF"/>
</g>
<defs>
<linearGradient id="a" x1="40" x2="1483.3" y1="117.45" y2="473.93" gradientUnits="userSpaceOnUse">
<stop stop-color="#4E0860" offset="0"/>
<stop stop-color="#752F8B" offset="1"/>
</linearGradient>
<clipPath id="b">
<rect width="1440" height="894" fill="#fff"/>
</clipPath>
</defs>
</svg>
