<svg width="1440" height="894" viewBox="0 0 1440 894" fill="none" xmlns="http://www.w3.org/2000/svg">
<g clip-path="url(#clip0)">
<rect width="1440" height="894" fill="white"/>
<path d="M559.891 787.823L-10 880V359.715L1446 279.829V822.646L1237.36 787.823L906.129 822.646H865.601L559.891 787.823Z" fill="#BC14B8"/>
<path d="M508.5 124.305L-10 14V879.315L406 775.176L865 829.986L1169 771.75L1450.5 859.446V111.973L1268.5 43.4604L508.5 124.305Z" fill="url(#paint0_linear)"/>
<path d="M454.145 596.589C454.145 516.088 519.845 450.366 600.32 450.366C633.013 450.366 665.706 462.63 694.941 485.271C699.027 488.416 699.656 494.076 696.513 497.849C693.369 501.937 687.711 502.566 683.938 499.422C657.847 478.982 628.926 468.29 600.32 468.29C529.59 468.29 472.377 525.836 472.377 596.275" fill="#FFD2FF"/>
<path d="M602 692C653.362 692 695.01 650.362 695.022 599C695.034 547.638 653.406 506 602.043 506C550.681 506 509.034 547.638 509.022 599C509.01 650.362 550.638 692 602 692Z" stroke="#FFD2FF" stroke-width="30" stroke-miterlimit="10"/>
<path d="M582.087 566.087C596.862 566.087 602.206 582.124 602.206 595.646C602.206 609.168 597.176 625.205 582.087 625.205C566.998 625.205 561.969 609.168 561.969 595.646C561.969 582.439 567.313 566.087 582.087 566.087ZM582.087 569.86C575.171 569.86 573.285 583.068 573.285 595.646C573.285 608.224 575.486 621.746 582.087 621.746C589.003 621.746 590.575 608.539 590.575 595.646C590.889 582.753 588.689 569.86 582.087 569.86Z" fill="#DFB6FF"/>
<path d="M612.894 624.262V621.117C622.639 620.488 623.268 619.859 623.268 612.941V578.98C623.268 574.263 622.01 573.948 618.238 573.634L614.78 573.319V570.489C621.382 569.546 628.612 567.974 633.956 566.087V613.256C633.956 620.174 634.585 620.803 644.015 621.432V624.576H612.894V624.262Z" fill="#DFB6FF"/>
<path d="M424.281 599.42H91.3786C89.8069 599.42 88.5494 598.162 88.5494 596.589C88.5494 595.017 89.8069 593.759 91.3786 593.759H421.452C422.709 522.377 465.776 458.542 532.105 431.184C533.677 430.555 535.248 431.184 535.877 432.756C536.506 434.329 535.877 435.901 534.305 436.53C469.234 463.573 427.11 526.465 427.11 596.904C427.11 598.162 425.853 599.42 424.281 599.42Z" fill="#B3B3B3"/>
<path d="M91.0643 579.609C99.8662 579.609 106.782 586.841 106.782 595.332C106.782 604.136 99.5518 611.055 91.0643 611.055C82.2623 611.055 75.3465 603.822 75.3465 595.332C75.0321 586.841 82.2623 579.609 91.0643 579.609Z" fill="#FFD2FF"/>
<path d="M72.5173 392.191C75.6608 392.191 78.1756 392.82 80.0618 394.078C81.9479 395.336 83.2053 397.537 83.2053 400.367C83.2053 406.656 77.8613 409.486 73.4603 409.486C72.8316 409.486 72.5173 409.486 72.2029 409.486L69.0593 408.857V415.461C69.0593 419.235 69.3737 419.235 73.4603 419.549V420.807H60.8861V419.549C64.6584 419.235 64.6584 418.92 64.6584 415.147V397.851C64.6584 394.078 64.0297 393.763 60.8861 393.449V392.191H72.5173ZM69.0593 406.971C69.6881 407.285 70.6311 407.6 72.2029 407.6C75.0321 407.6 78.49 406.027 78.49 400.681C78.49 395.965 75.3465 394.078 71.8885 394.078C70.6311 394.078 69.6881 394.392 69.6881 394.707C69.3737 395.021 69.3737 395.65 69.3737 396.594V406.971H69.0593Z" fill="white"/>
<path d="M102.381 417.033C99.5518 420.807 96.4083 421.436 94.8365 421.436C89.4924 421.436 86.0345 417.033 86.0345 412.002C86.0345 408.857 87.292 406.027 88.8637 404.141C90.7499 401.939 93.2647 400.996 95.4652 400.996C99.2375 400.996 102.381 404.455 102.381 407.914C102.381 408.857 102.381 409.172 101.438 409.486C100.495 409.801 94.8365 410.115 89.8068 410.115C89.8068 415.776 93.2647 418.291 96.4083 418.291C98.2944 418.291 99.8662 417.662 101.438 416.09L102.381 417.033ZM94.5221 402.883C92.636 402.883 90.7499 404.769 90.1212 408.229C92.3216 408.229 94.8365 408.229 97.3513 408.229C97.98 408.229 98.2944 407.914 98.2944 407.285C98.2944 404.769 97.037 402.883 94.5221 402.883Z" fill="white"/>
<path d="M114.012 420.807C113.069 421.436 112.44 421.436 112.126 421.436C109.297 421.436 107.725 419.863 107.725 416.09V403.512H104.582L104.267 402.883L105.525 401.625H107.411V397.851C108.354 396.908 109.926 395.65 110.869 394.707H111.497C111.497 396.594 111.497 399.109 111.497 401.31H116.527C116.841 401.625 116.841 402.883 116.213 403.197H111.497V414.518C111.497 417.977 112.755 418.606 114.012 418.606C114.955 418.606 115.898 418.291 116.527 417.977L116.841 419.235L114.012 420.807Z" fill="white"/>
<path d="M118.727 420.807V419.549C121.557 419.235 121.871 418.92 121.871 416.09V406.971C121.871 404.141 121.871 404.141 119.042 403.512V402.568C121.557 402.254 123.757 401.625 125.643 400.681C125.643 402.568 125.643 404.455 125.643 406.342V416.09C125.643 419.235 125.958 419.235 128.787 419.549V420.807H118.727ZM123.443 396.908C122.185 396.908 120.928 395.65 120.928 394.392C120.928 392.82 122.185 391.877 123.443 391.877C124.7 391.877 125.958 392.82 125.958 394.392C125.958 395.65 124.7 396.908 123.443 396.908Z" fill="white"/>
<path d="M139.789 420.807C138.846 421.436 138.218 421.436 137.903 421.436C135.074 421.436 133.502 419.863 133.502 416.09V403.512H130.359L130.044 402.883L131.302 401.625H133.188V397.851C134.131 396.908 135.703 395.65 136.646 394.707H137.274C137.274 396.594 137.274 399.109 137.274 401.31H141.99C142.304 401.625 142.304 402.883 141.675 403.197H136.96V414.518C136.96 417.977 138.218 418.606 139.475 418.606C140.418 418.606 141.361 418.291 141.99 417.977L142.304 419.235L139.789 420.807Z" fill="white"/>
<path d="M144.505 420.807V419.549C147.334 419.235 147.648 418.92 147.648 416.09V406.971C147.648 404.141 147.648 404.141 144.819 403.512V402.568C147.334 402.254 149.534 401.625 151.42 400.681C151.42 402.568 151.42 404.455 151.42 406.342V416.09C151.42 419.235 151.735 419.235 154.564 419.549V420.807H144.505ZM149.22 396.908C147.963 396.908 146.705 395.65 146.705 394.392C146.705 392.82 147.963 391.877 149.22 391.877C150.477 391.877 151.735 392.82 151.735 394.392C151.42 395.65 150.477 396.908 149.22 396.908Z" fill="white"/>
<path d="M166.824 400.996C172.482 400.996 176.569 405.398 176.569 410.744C176.569 417.977 171.225 421.436 166.824 421.436C160.537 421.436 157.079 416.404 157.079 411.688C156.764 404.455 162.423 400.996 166.824 400.996ZM166.195 402.568C163.68 402.568 161.48 405.084 161.48 410.115C161.48 415.776 163.68 419.863 167.138 419.863C169.653 419.863 171.854 417.977 171.854 412.002C171.854 406.656 169.967 402.568 166.195 402.568Z" fill="white"/>
<path d="M191.972 420.807V419.549C194.487 419.235 194.487 418.92 194.487 416.09V408.857C194.487 405.713 193.23 403.826 190.715 403.826C189.143 403.826 187.571 404.769 186 406.027V416.404C186 419.235 186.314 419.549 188.829 419.864V421.121H179.084V419.864C181.913 419.549 182.227 419.235 182.227 416.404V407.285C182.227 404.455 181.913 404.455 179.712 403.826V402.568C181.913 402.254 184.113 401.625 186.314 400.682C186.314 401.625 186.314 403.197 186.314 404.141C187.257 403.512 188.2 402.883 189.143 402.254C190.401 401.31 191.344 400.996 192.601 400.996C196.059 400.996 198.259 403.512 198.259 407.914V416.404C198.259 419.235 198.574 419.549 201.089 419.864V421.121H191.972V420.807Z" fill="white"/>
<path d="M222.779 420.807C222.15 421.436 221.522 421.436 220.893 421.436C218.064 421.436 216.492 419.863 216.492 416.09V403.512H213.348L213.034 402.883L214.291 401.625H216.178V397.851C217.121 396.908 218.692 395.65 219.636 394.707H220.264C220.264 396.594 220.264 399.109 220.264 401.31H225.294C225.608 401.625 225.608 402.883 224.98 403.197H220.264V414.518C220.264 417.977 221.522 418.606 222.779 418.606C223.722 418.606 224.665 418.291 225.294 417.977L225.608 419.235L222.779 420.807Z" fill="white"/>
<path d="M237.868 400.996C243.527 400.996 247.613 405.398 247.613 410.744C247.613 417.977 242.269 421.436 237.868 421.436C231.581 421.436 228.123 416.404 228.123 411.688C227.809 404.455 233.467 400.996 237.868 400.996ZM237.239 402.568C234.725 402.568 232.524 405.084 232.524 410.115C232.524 415.776 234.725 419.863 238.183 419.863C240.697 419.863 242.898 417.977 242.898 412.002C242.898 406.656 241.012 402.568 237.239 402.568Z" fill="white"/>
<path d="M263.645 401.625V400.367C263.645 397.222 264.903 394.078 267.732 391.562C269.304 390.304 270.875 389.361 272.762 389.361C274.333 389.361 275.591 389.99 276.219 390.619C276.534 391.248 276.848 391.562 276.534 392.191C276.534 392.82 275.905 393.449 275.276 393.763C274.648 394.078 274.333 394.078 274.019 393.763C273.076 392.82 271.819 391.877 270.561 391.877C267.732 391.877 267.732 395.65 267.732 399.424V401.31H272.133C272.447 401.625 272.133 402.883 271.504 403.197H267.418V415.776C267.418 418.92 267.732 418.92 271.19 419.235V420.492H260.502V419.235C263.331 418.92 263.645 418.92 263.645 415.776V402.883H260.502L260.187 402.254L261.13 400.996H263.645V401.625Z" fill="white"/>
<path d="M283.764 400.996C289.422 400.996 293.509 405.398 293.509 410.744C293.509 417.977 288.165 421.436 283.764 421.436C277.477 421.436 274.019 416.404 274.019 411.688C273.705 404.455 279.363 400.996 283.764 400.996ZM283.135 402.568C280.62 402.568 278.42 405.084 278.42 410.115C278.42 415.776 280.62 419.863 284.078 419.863C286.593 419.863 288.794 417.977 288.794 412.002C288.794 406.656 286.908 402.568 283.135 402.568Z" fill="white"/>
<path d="M306.712 420.807H296.338V419.549C299.167 419.235 299.167 418.92 299.167 416.09V406.971C299.167 404.141 298.853 404.141 296.653 403.826V402.568C298.853 402.254 301.054 401.625 303.254 400.682C303.254 402.254 303.254 404.141 303.254 405.398C304.826 402.883 306.712 400.682 308.912 400.682C310.484 400.682 311.427 401.625 311.427 402.883C311.427 404.141 310.484 405.084 309.856 405.398C309.227 405.713 308.912 405.713 308.598 405.398C307.969 404.769 307.341 404.141 306.712 404.141C305.769 404.141 304.197 405.398 303.254 407.6V415.776C303.254 418.606 303.568 418.92 306.712 419.235V420.807Z" fill="white"/>
<path d="M337.204 420.807V419.549C339.719 419.235 340.034 419.235 340.034 416.09V408.857C340.034 405.713 338.776 403.826 336.261 403.826C334.69 403.826 333.432 404.769 331.546 406.027C331.546 406.656 331.546 406.971 331.546 407.914V416.404C331.546 419.235 331.86 419.235 334.375 419.549V420.807H324.945V419.549C327.459 419.235 327.774 419.235 327.774 416.404V408.857C327.774 405.713 326.831 403.826 324.316 403.826C322.744 403.826 321.172 404.769 319.601 406.027V416.404C319.601 419.235 319.915 419.549 322.115 419.549V420.807H312.685V419.549C315.514 419.235 315.828 419.235 315.828 416.09V406.971C315.828 404.141 315.828 404.141 313.313 403.512V402.568C315.514 402.254 317.714 401.625 319.601 400.682C319.601 401.625 319.601 403.197 319.601 404.141C320.544 403.512 321.487 402.883 322.744 401.939C324.002 401.31 324.945 400.682 326.202 400.682C328.403 400.682 330.289 401.939 330.917 404.141C332.175 403.197 333.118 402.568 334.375 401.625C335.318 400.996 336.576 400.367 337.833 400.367C341.291 400.367 343.492 402.883 343.492 407.285V415.776C343.492 418.606 343.806 418.92 346.321 418.92V420.178H337.204V420.807Z" fill="white"/>
<path d="M69.0593 473.636C68.4306 473.95 67.4876 474.265 67.1732 474.265C64.344 474.265 62.7722 472.693 62.7722 468.919V456.341H59.6287L59.3143 455.712L60.5718 454.454H62.4579V450.68C63.401 449.737 64.9727 448.479 65.9158 447.536H66.5445C66.5445 449.423 66.5445 451.938 66.5445 454.14H71.5742C71.8885 454.454 71.8885 455.712 71.2598 456.026H66.5445V467.347C66.5445 470.806 67.8019 471.435 69.0593 471.435C70.0024 471.435 70.9455 471.12 71.5742 470.806L71.8885 472.064L69.0593 473.636Z" fill="white"/>
<path d="M86.0345 473.636V472.378C88.5494 472.064 88.8637 471.749 88.8637 468.919V461.687C88.8637 458.228 87.6063 456.341 84.7771 456.341C83.2053 456.341 81.6336 456.97 80.3761 458.542V468.919C80.3761 471.749 80.6905 472.064 83.2053 472.378V473.636H73.4603V472.378C75.9752 472.064 76.6039 472.064 76.6039 468.919V447.85C76.6039 445.649 76.6039 445.02 73.4603 444.706V443.448C75.9752 443.133 78.8044 442.505 80.3761 441.876C80.3761 443.448 80.3761 445.335 80.3761 447.221V456.655C81.9479 455.083 84.4628 453.511 86.6632 453.511C90.4355 453.511 92.636 455.712 92.636 461.058V468.919C92.636 471.749 92.9504 472.064 95.4652 472.378V473.636H86.0345Z" fill="white"/>
<path d="M114.327 469.862C111.497 473.322 108.354 474.265 106.782 474.265C101.438 474.265 97.98 469.862 97.98 464.831C97.98 461.687 99.2375 458.856 100.809 456.97C102.695 454.768 105.21 453.825 107.411 453.825C111.183 453.825 114.327 457.284 114.327 460.743C114.327 461.687 114.327 462.001 113.383 462.315C112.44 462.63 106.782 462.944 101.752 462.944C101.752 468.605 105.21 471.12 108.354 471.12C110.24 471.12 111.812 470.491 113.383 468.919L114.327 469.862ZM106.782 455.712C104.896 455.712 103.01 457.599 102.381 461.058C104.582 461.058 107.096 461.058 109.611 461.058C110.24 461.058 110.554 460.743 110.554 460.114C110.554 457.599 108.982 455.712 106.782 455.712Z" fill="white"/>
<path d="M167.453 446.593C164.309 446.907 163.995 447.536 162.737 450.995C161.48 455.083 157.708 466.403 155.507 474.265H153.935C151.735 467.347 148.906 459.485 146.391 452.882C143.876 460.429 141.361 467.661 139.161 474.265H137.589C135.388 467.032 132.873 458.542 130.359 450.68C129.101 447.221 128.787 446.593 125.958 446.278V445.02H137.274V446.278C134.131 446.593 133.817 447.221 134.445 449.423C136.017 455.083 137.903 461.058 139.475 467.032C141.99 460.114 144.505 452.567 146.705 445.649H148.277C150.792 452.882 153.307 459.8 155.821 467.032C157.708 461.372 160.222 453.511 160.851 450.052C161.48 447.536 161.165 446.907 157.393 446.593V445.335H167.453V446.593Z" fill="white"/>
<path d="M168.396 473.636V472.378C171.854 472.064 172.168 471.749 172.168 467.976V450.68C172.168 446.907 171.854 446.593 168.396 446.278V445.02H180.655V446.278C177.198 446.593 176.569 446.907 176.569 450.68V467.976C176.569 471.749 176.883 471.749 180.655 472.378V473.636H168.396Z" fill="white"/>
<path d="M207.69 466.718C207.376 467.976 206.118 472.378 205.804 473.95H184.113V472.693C188.2 472.378 188.514 472.064 188.514 468.29V450.995C188.514 447.221 187.886 446.907 184.742 446.593V445.335H198.259C202.346 445.335 204.232 445.335 204.861 445.335C204.861 446.278 205.175 449.737 205.175 452.253L203.918 452.567C203.603 450.995 202.975 450.052 202.346 449.108C201.717 447.85 200.774 447.536 198.259 447.536H194.173C192.601 447.536 192.601 447.536 192.601 449.108V458.856H197.316C200.46 458.856 200.774 458.227 201.403 455.083H202.975V464.202H201.403C200.774 461.058 200.46 460.429 197.316 460.429H192.601V468.919C192.601 472.064 193.544 472.378 195.745 472.378H199.517C202.032 472.378 202.66 472.064 203.603 470.806C204.546 469.862 205.49 467.976 206.118 466.718H207.69Z" fill="white"/>
<path d="M235.353 473.636V472.378C238.182 472.064 238.497 471.435 237.868 469.863C237.239 468.29 236.611 466.089 235.668 463.573H226.237C225.608 465.46 224.98 467.032 224.351 468.919C223.408 471.749 224.037 472.064 227.809 472.378V473.636H217.435V472.378C220.264 472.064 220.893 471.749 222.465 467.661L231.581 444.706L233.153 444.391C235.982 451.938 238.811 460.114 241.64 467.661C243.212 471.435 243.527 471.749 246.67 472.378V473.636H235.353ZM230.952 450.68C229.695 454.454 228.123 458.228 226.866 461.687H234.725L230.952 450.68Z" fill="white"/>
<path d="M276.534 461.687C273.705 462.001 273.705 462.315 273.705 464.831V468.605C273.705 470.177 273.705 471.749 274.019 472.693C271.504 473.322 267.732 474.265 263.96 474.265C253.9 474.265 247.928 467.976 247.928 459.171C247.928 449.737 255.472 444.391 264.588 444.391C268.989 444.391 272.447 445.335 273.705 445.335C273.705 446.907 274.019 449.737 274.333 452.567L273.076 452.882C272.133 449.108 270.561 447.536 268.046 446.593C267.103 446.278 265.217 445.964 263.96 445.964C257.358 445.964 253.272 450.68 253.272 458.542C253.272 465.775 256.729 472.378 264.903 472.378C266.16 472.378 267.732 472.064 268.361 471.749C269.304 471.12 269.618 470.806 269.618 468.919V465.46C269.618 462.315 269.304 462.001 265.217 461.687V460.429H276.848V461.687H276.534Z" fill="white"/>
<path d="M71.8885 512.629C70.9455 510.113 69.6881 508.226 67.1732 508.226C65.6014 508.226 64.6584 509.17 64.6584 511.057C64.6584 512.943 65.9158 513.887 68.4306 514.83C72.2029 516.717 74.089 517.975 74.089 520.805C74.089 524.893 70.3168 527.094 66.8589 527.094C64.6584 527.094 62.4579 526.465 61.5148 525.836C61.2005 524.578 60.8861 522.063 60.8861 520.49L62.1435 520.176C63.0866 523.006 64.6584 525.207 67.4876 525.207C69.0593 525.207 70.3168 523.949 70.3168 522.377C70.3168 520.49 69.3737 519.547 66.8589 518.289C63.7153 516.717 61.2005 515.459 61.2005 512C61.2005 508.855 64.0297 506.34 68.1163 506.34C70.0024 506.34 71.5742 506.654 72.5173 506.969C72.5173 507.912 72.8316 510.742 73.146 512L71.8885 512.629Z" fill="white"/>
<path d="M98.2944 525.522C96.0939 525.836 93.579 526.465 91.3785 527.094C91.3785 526.465 91.3785 524.893 91.3785 523.635C89.1781 525.522 87.2919 527.094 84.7771 527.094C81.6335 527.094 79.1187 525.207 79.1187 520.49V511.686C79.1187 509.484 78.8043 509.17 77.5469 508.855L76.2895 508.541V507.283C78.1756 507.283 81.3192 506.654 82.891 506.654C82.891 508.226 82.891 510.428 82.891 513.258V519.233C82.891 523.006 84.7771 523.949 86.6632 523.949C88.235 523.949 89.8068 523.321 91.0642 522.063V511.686C91.0642 509.484 90.4355 509.17 89.1781 508.855L87.9206 508.541V507.283C90.7498 507.283 93.8934 506.654 95.1508 506.654V521.434C95.1508 523.635 95.4652 523.949 97.0369 523.949H98.2944V525.522Z" fill="white"/>
<path d="M109.611 507.283C110.554 506.969 111.183 506.654 111.812 506.654C116.527 506.654 120.614 510.742 120.614 516.088C120.614 522.063 115.584 527.094 109.611 527.094C107.725 527.094 105.21 526.78 102.695 525.522C102.695 524.264 102.695 523.321 102.695 522.063V500.994C102.695 498.164 102.695 498.164 99.8661 497.849V496.592C102.067 496.277 104.896 495.648 106.782 495.019C106.782 496.592 106.782 498.478 106.782 500.051V508.541L109.611 507.283ZM106.468 521.434C106.468 522.063 106.468 522.692 106.782 523.006C107.411 523.949 108.982 525.207 110.869 525.207C114.326 525.207 116.213 522.063 116.213 517.031C116.213 512 113.069 509.17 109.611 509.17C108.354 509.17 107.096 509.484 106.468 509.799V521.434Z" fill="white"/>
<path d="M147.648 526.465V525.207C150.163 524.893 150.477 524.893 150.477 521.748V514.201C150.477 511.057 149.22 509.17 146.705 509.17C145.133 509.17 143.876 510.113 141.99 511.371C141.99 512 141.99 512.314 141.99 513.258V521.748C141.99 524.578 142.304 524.578 144.819 524.893V526.151H135.388V525.207C137.903 524.893 138.218 524.893 138.218 522.063V514.516C138.218 511.371 137.274 509.484 134.76 509.484C133.188 509.484 131.616 510.428 130.044 511.686V522.063C130.044 524.893 130.359 525.207 132.559 525.207V526.465H123.128V525.207C125.958 524.893 126.272 524.893 126.272 521.748V512.629C126.272 509.799 126.272 509.799 123.757 509.17V507.912C125.958 507.598 128.158 506.969 130.044 506.025C130.044 506.969 130.044 508.541 130.044 509.484C130.987 508.855 131.93 508.227 133.188 507.283C134.445 506.654 135.388 506.025 136.646 506.025C138.846 506.025 140.732 507.283 141.361 509.484C142.619 508.541 143.562 507.912 144.819 506.969C145.762 506.34 147.019 505.711 148.277 505.711C151.735 505.711 153.935 508.226 153.935 512.629V521.119C153.935 523.949 154.25 524.264 156.765 524.264V525.522H147.648V526.465Z" fill="white"/>
<path d="M159.594 526.465V525.207C162.423 524.893 162.737 524.578 162.737 521.748V512.629C162.737 509.799 162.737 509.799 159.908 509.17V507.912C162.423 507.598 164.623 506.969 166.51 506.34C166.51 508.226 166.51 510.113 166.51 512V521.748C166.51 524.893 166.824 524.893 169.653 525.207V526.465H159.594ZM164.309 502.566C163.052 502.566 161.794 501.308 161.794 500.051C161.794 498.478 163.052 497.535 164.309 497.535C165.566 497.535 166.824 498.478 166.824 500.051C166.824 501.308 165.566 502.566 164.309 502.566Z" fill="white"/>
<path d="M180.655 526.465C180.027 526.78 179.084 527.094 178.769 527.094C175.94 527.094 174.368 525.522 174.368 521.748V509.17H171.225L170.91 508.541L172.168 507.283H174.054V503.51C174.997 502.566 176.569 501.308 177.512 500.365H178.141C178.141 502.252 178.141 504.767 178.141 506.969H182.856C183.17 507.283 183.17 508.541 182.542 508.855H177.826V520.176C177.826 523.635 179.084 524.264 180.341 524.264C181.284 524.264 182.227 523.949 182.856 523.635L183.17 524.893L180.655 526.465Z" fill="white"/>
<path d="M194.173 526.465C193.544 526.78 192.601 527.094 192.287 527.094C189.457 527.094 187.886 525.522 187.886 521.748V509.17H184.742L184.428 508.541L185.685 507.283H187.571V503.51C188.514 502.566 190.086 501.308 191.029 500.365H191.658C191.658 502.252 191.658 504.767 191.658 506.969H196.688C197.002 507.283 197.002 508.541 196.373 508.855H191.658V520.176C191.658 523.635 192.915 524.264 194.173 524.264C195.116 524.264 196.059 523.949 196.688 523.635L197.002 524.893L194.173 526.465Z" fill="white"/>
<path d="M215.549 522.692C212.72 526.151 209.576 527.094 208.004 527.094C202.66 527.094 199.202 522.692 199.202 517.66C199.202 514.516 200.46 511.686 202.032 509.799C203.918 507.598 206.433 506.654 208.633 506.654C212.405 506.654 215.549 510.113 215.549 513.572C215.549 514.516 215.549 514.83 214.606 515.145C213.663 515.459 208.004 515.773 202.975 515.773C202.975 521.434 206.433 523.949 209.576 523.949C211.462 523.949 213.034 523.321 214.606 521.748L215.549 522.692ZM207.69 508.541C205.804 508.541 203.918 510.428 203.289 513.887C205.49 513.887 208.004 513.887 210.519 513.887C211.148 513.887 211.462 513.572 211.462 512.943C211.462 510.428 210.205 508.541 207.69 508.541Z" fill="white"/>
<path d="M239.754 525.522C238.811 525.836 235.353 526.151 232.524 527.094C232.524 526.151 232.524 525.207 232.524 524.264C231.581 524.893 230.638 525.522 229.695 525.836C228.123 526.78 226.866 527.094 226.551 527.094C223.093 527.094 218.064 523.635 218.064 517.346C218.064 511.371 223.408 506.654 229.695 506.654C230.324 506.654 231.581 506.654 232.524 506.969V500.679C232.524 497.849 232.21 497.849 229.066 497.535V496.277C231.267 495.963 234.41 495.334 236.296 494.705C236.296 496.277 236.296 498.164 236.296 500.051V521.119C236.296 523.32 236.611 523.635 238.183 523.949H239.44V525.522H239.754ZM232.838 510.742C231.895 509.17 230.009 508.541 228.438 508.541C226.551 508.541 222.779 509.799 222.779 516.088C222.779 521.434 225.923 524.264 228.752 524.264C230.324 524.264 231.581 523.635 232.838 522.692V510.742Z" fill="white"/>
<path d="M143.876 318.922C142.933 322.067 141.675 326.469 141.047 328.985H116.527V327.413C119.671 324.268 123.128 320.809 126.272 317.035C130.987 312.004 132.874 307.916 132.874 302.885C132.874 298.482 130.673 295.652 126.586 295.652C122.814 295.652 120.299 298.168 118.413 300.998L116.841 299.74L120.614 294.08C122.814 291.564 125.958 290.306 130.044 290.306C136.017 290.306 141.361 294.394 141.361 301.312C141.361 306.029 139.475 309.488 133.188 315.149C130.673 317.35 127.529 320.494 125.329 322.381C125.643 322.381 135.388 322.381 135.703 322.381C139.475 322.381 140.104 322.067 142.304 318.293L143.876 318.922Z" fill="#DFB6FF"/>
<path d="M160.851 290.306C171.225 290.306 174.683 301.312 174.683 310.117C174.683 318.922 171.225 329.928 160.851 329.928C150.477 329.928 147.02 318.922 147.02 310.117C147.02 300.998 150.792 290.306 160.851 290.306ZM160.851 292.822C156.765 292.822 155.821 301.627 155.821 309.803C155.821 317.979 157.079 327.098 161.166 327.098C165.252 327.098 166.195 318.293 166.195 309.803C165.881 301.312 164.938 292.822 160.851 292.822Z" fill="#DFB6FF"/>
<path d="M205.804 318.922C204.861 322.067 203.604 326.469 202.975 328.985H178.455V327.413C181.599 324.268 185.057 320.809 188.2 317.035C192.915 312.004 194.802 307.916 194.802 302.885C194.802 298.482 192.601 295.652 188.514 295.652C184.742 295.652 182.227 298.168 180.341 300.998L178.455 299.426L182.227 293.765C184.428 291.25 187.571 289.992 191.658 289.992C197.631 289.992 202.975 294.08 202.975 300.998C202.975 305.715 201.089 309.174 194.802 314.834C192.287 317.035 189.143 320.18 186.943 322.067C187.257 322.067 197.002 322.067 197.316 322.067C201.089 322.067 201.717 321.752 203.918 317.979L205.804 318.922Z" fill="#DFB6FF"/>
<path d="M222.465 290.306C232.839 290.306 236.296 301.312 236.296 310.117C236.296 318.922 232.839 329.928 222.465 329.928C212.091 329.928 208.633 318.922 208.633 310.117C208.633 300.998 212.405 290.306 222.465 290.306ZM222.465 292.822C218.378 292.822 217.435 301.627 217.435 309.803C217.435 317.979 218.693 327.098 222.779 327.098C226.866 327.098 227.809 318.293 227.809 309.803C227.809 301.312 226.551 292.822 222.465 292.822Z" fill="#DFB6FF"/>
<path d="M270.247 364.204H59V370.179H270.247V364.204Z" fill="#DFB6FF"/>
<path d="M80.3762 328.985C68.4307 328.985 59 319.237 59 307.602C59 295.652 68.745 286.218 80.3762 286.218C92.0073 286.218 101.752 295.967 101.752 307.602C101.752 319.551 92.0073 328.985 80.3762 328.985ZM80.3762 288.105C69.6881 288.105 60.8861 296.91 60.8861 307.602C60.8861 318.293 69.6881 327.098 80.3762 327.098C91.0642 327.098 99.8662 318.293 99.8662 307.602C99.8662 296.91 91.0642 288.105 80.3762 288.105Z" fill="#DFB6FF"/>
<path d="M80.3762 290.621C70.9455 290.621 63.401 298.168 63.401 307.602C63.401 317.035 70.9455 324.582 80.3762 324.582C89.8068 324.582 97.3514 317.035 97.3514 307.602C97.3514 298.168 89.4925 290.621 80.3762 290.621ZM92.3217 308.859H80.3762C79.7475 308.859 79.1188 308.231 79.1188 307.602V293.136C79.1188 292.508 79.7475 291.879 80.3762 291.879C81.0049 291.879 81.6336 292.508 81.6336 293.136V306.344H92.636C93.2648 306.344 93.8935 306.973 93.8935 307.602C93.5791 308.231 92.9504 308.859 92.3217 308.859Z" fill="#DFB6FF"/>
<path d="M688 384C688 435.42 729.614 477 781 477C832.386 477 874 435.42 874 384C874 332.58 832.386 291 781 291C729.614 291 688 332.58 688 384Z" stroke="#DFB6FF" stroke-width="30" stroke-miterlimit="10"/>
<path d="M928.193 391.248C928.193 471.749 862.492 537.471 782.017 537.471C747.753 537.471 716.631 525.522 683.624 499.736C679.537 496.591 678.909 490.931 682.052 487.158C685.196 483.07 690.854 482.441 694.626 485.585C724.176 508.855 751.839 519.547 781.703 519.547C852.433 519.547 909.646 462.001 909.646 391.562" fill="#DFB6FF"/>
<path d="M760.641 357.064C775.416 357.064 780.76 373.102 780.76 386.624C780.76 400.145 775.73 416.183 760.641 416.183C745.552 416.183 740.522 400.145 740.522 386.624C740.208 373.102 745.866 357.064 760.641 357.064ZM760.327 360.838C753.411 360.838 751.525 374.045 751.525 386.624C751.525 399.202 753.725 412.724 760.327 412.724C767.243 412.724 768.814 399.516 768.814 386.624C769.129 373.731 767.243 360.838 760.327 360.838Z" fill="#FFD2FF"/>
<path d="M826.341 401.089C825.084 405.806 823.198 411.466 822.255 415.239H786.418V412.724C791.448 408.007 796.792 402.347 801.193 397.315C807.794 390.083 811.567 383.479 811.567 375.932C811.567 369.014 808.109 364.611 801.822 364.611C796.163 364.611 792.077 368.699 789.247 372.787L786.733 370.586L792.391 362.41C795.535 358.951 800.25 356.75 805.908 356.75C815.025 356.75 822.255 363.039 822.255 373.102C822.255 380.334 819.426 385.68 810.309 394.485C806.537 397.944 801.193 402.975 797.735 406.435C798.364 406.435 813.453 406.435 813.767 406.435C819.111 406.435 820.369 406.12 823.827 400.145L826.341 401.089Z" fill="#FFD2FF"/>
<path d="M1308.56 215.78H849.918C848.661 215.78 847.403 216.723 847.089 217.981C846.774 219.239 847.403 220.496 848.661 221.125C913.732 248.169 955.856 311.061 955.856 381.5C955.856 383.072 957.113 384.33 958.685 384.33C960.257 384.33 961.514 383.072 961.514 381.5C961.514 313.262 923.163 251.628 862.807 221.44H1308.56C1310.13 221.44 1311.39 220.182 1311.39 218.61C1311.39 217.037 1310.13 215.78 1308.56 215.78Z" fill="#B2B4C4"/>
<path d="M1297.56 232.446C1306.36 232.446 1313.28 225.213 1313.28 216.723C1313.28 208.233 1306.05 201 1297.56 201C1288.76 201 1281.84 208.233 1281.84 216.723C1281.84 225.213 1289.07 232.446 1297.56 232.446Z" fill="#DFB6FF"/>
<path d="M1145.41 401.939V400.682C1148.87 400.367 1149.18 400.053 1149.18 396.279V378.984C1149.18 375.21 1148.87 374.896 1145.41 374.581V373.324H1157.67V374.581C1154.21 374.896 1153.59 375.21 1153.59 378.984V396.279C1153.59 400.053 1153.9 400.053 1157.67 400.682V401.939H1145.41Z" fill="white"/>
<path d="M1173.39 401.939V400.682C1175.9 400.367 1175.9 400.053 1175.9 397.222V389.99C1175.9 386.845 1174.65 384.959 1172.13 384.959C1170.56 384.959 1168.99 385.902 1167.42 387.16V397.537C1167.42 400.367 1167.73 400.681 1170.25 400.996V402.254H1160.5V400.996C1163.33 400.681 1163.64 400.367 1163.64 397.537V388.418C1163.64 385.587 1163.33 385.587 1161.13 384.959V383.701C1163.33 383.386 1165.53 382.757 1167.73 381.814C1167.73 382.757 1167.73 384.33 1167.73 385.273C1168.67 384.644 1169.62 384.015 1170.56 383.386C1171.82 382.443 1172.76 382.128 1174.02 382.128C1177.48 382.128 1179.68 384.644 1179.68 389.047V397.537C1179.68 400.367 1179.99 400.681 1182.51 400.996V402.254H1173.39V401.939Z" fill="white"/>
<path d="M1199.48 402.568C1198.85 402.568 1197.91 402.254 1197.28 401.625C1196.65 400.996 1196.34 400.367 1196.34 399.738C1194.45 400.996 1192.57 402.568 1191.31 402.568C1188.16 402.568 1185.96 400.053 1185.96 397.222C1185.96 395.021 1187.22 393.763 1189.42 392.82C1191.94 391.877 1195.39 390.619 1196.34 389.99V389.046C1196.34 386.216 1194.77 384.33 1192.57 384.33C1191.62 384.33 1190.99 384.644 1190.68 385.273C1190.05 385.902 1190.05 386.845 1189.42 388.103C1189.11 389.047 1188.79 389.046 1188.16 389.046C1187.22 389.046 1185.96 388.103 1185.96 387.16C1185.96 386.531 1186.59 385.902 1187.54 385.273C1188.79 384.33 1191.62 382.757 1194.14 382.128C1195.39 382.128 1196.97 382.443 1197.91 383.386C1199.48 384.644 1200.11 386.216 1200.11 388.418V396.908C1200.11 398.795 1200.74 399.424 1201.68 399.424C1202.31 399.424 1202.62 399.109 1203.25 399.109L1203.57 400.367L1199.48 402.568ZM1196.02 391.248C1195.08 391.877 1193.19 392.506 1192.25 393.134C1190.68 393.763 1189.74 394.707 1189.74 396.279C1189.74 398.795 1191.62 399.738 1192.88 399.738C1193.82 399.738 1195.39 399.109 1196.34 398.166C1196.02 396.279 1196.02 393.449 1196.02 391.248Z" fill="white"/>
<path d="M1226.52 400.996C1224.32 401.31 1221.8 401.939 1219.6 402.568C1219.6 401.939 1219.6 400.367 1219.6 399.109C1217.4 400.996 1215.51 402.568 1213 402.568C1209.85 402.568 1207.34 400.682 1207.34 395.965V387.16C1207.34 384.959 1207.03 384.644 1205.77 384.33L1204.51 384.015V382.757C1206.4 382.757 1209.54 382.128 1211.11 382.128C1211.11 383.701 1211.11 385.902 1211.11 388.732V394.707C1211.11 398.48 1213 399.424 1214.88 399.424C1216.46 399.424 1218.03 398.795 1219.29 397.537V387.16C1219.29 384.959 1218.66 384.644 1217.4 384.33L1216.14 384.015V382.757C1218.97 382.757 1222.11 382.128 1223.37 382.128V396.908C1223.37 399.109 1223.69 399.424 1225.26 399.424H1226.52V400.996Z" fill="white"/>
<path d="M1235 395.336C1234.06 395.965 1233.75 396.908 1233.75 397.537C1233.75 398.166 1234.37 399.109 1236.58 399.109C1238.15 399.109 1240.03 399.109 1241.6 399.109C1244.43 399.109 1248.21 400.053 1248.21 404.455C1248.21 409.172 1242.55 413.26 1236.89 413.26C1231.86 413.26 1229.03 410.43 1229.03 407.914C1229.03 406.971 1229.34 406.027 1230.29 405.398C1231.23 404.455 1232.8 403.197 1233.75 402.254C1232.17 401.625 1230.92 400.681 1230.29 399.738C1229.97 399.109 1229.66 398.166 1229.66 397.851C1231.55 397.222 1233.12 395.965 1233.75 394.707L1235 395.336ZM1237.2 395.965C1232.8 395.965 1229.66 393.449 1229.66 389.361C1229.66 384.33 1234.06 382.128 1237.83 382.128C1239.4 382.128 1240.66 382.443 1242.23 383.386C1244.12 383.386 1246.95 383.072 1248.21 382.757L1248.52 383.072C1248.21 383.701 1247.58 384.959 1246.95 385.587C1246.32 385.587 1244.75 385.273 1244.12 385.273C1244.75 386.216 1245.38 387.474 1245.38 389.361C1245.06 393.763 1241.29 395.965 1237.2 395.965ZM1238.15 402.568C1235.95 402.568 1235 402.883 1234.06 403.512C1232.8 404.455 1232.17 405.713 1232.17 406.971C1232.17 409.486 1234.69 411.059 1238.15 411.059C1242.23 411.059 1244.43 408.857 1244.43 406.342C1244.43 404.769 1243.81 403.512 1242.55 403.197C1241.29 402.568 1240.03 402.568 1238.15 402.568ZM1237.2 383.386C1235.32 383.386 1233.75 385.273 1233.75 388.732C1233.75 392.191 1235.32 394.707 1237.83 394.707C1239.72 394.707 1241.29 392.82 1241.29 389.361C1241.29 385.902 1239.72 383.386 1237.2 383.386Z" fill="white"/>
<path d="M1271.15 400.996C1268.95 401.31 1266.44 401.939 1264.24 402.568C1264.24 401.939 1264.24 400.367 1264.24 399.109C1262.04 400.996 1260.15 402.568 1257.64 402.568C1254.49 402.568 1251.98 400.682 1251.98 395.965V387.16C1251.98 384.959 1251.66 384.644 1250.41 384.33L1249.15 384.015V382.757C1251.04 382.757 1254.18 382.128 1255.75 382.128C1255.75 383.701 1255.75 385.902 1255.75 388.732V394.707C1255.75 398.48 1257.64 399.424 1259.52 399.424C1261.09 399.424 1262.67 398.795 1263.92 397.537V387.16C1263.92 384.959 1263.3 384.644 1262.04 384.33L1260.78 384.015V382.757C1263.61 382.757 1266.75 382.128 1268.01 382.128V396.908C1268.01 399.109 1268.33 399.424 1269.9 399.424H1271.15V400.996Z" fill="white"/>
<path d="M1283.73 401.939H1273.35V400.682C1276.18 400.367 1276.18 400.053 1276.18 397.222V388.103C1276.18 385.273 1275.87 385.273 1273.67 384.959V383.701C1275.87 383.386 1278.07 382.757 1280.27 381.814C1280.27 383.386 1280.27 385.273 1280.27 386.531C1281.84 384.015 1283.73 381.814 1285.93 381.814C1287.5 381.814 1288.44 382.757 1288.44 384.015C1288.44 385.273 1287.5 386.216 1286.87 386.531C1286.24 386.845 1285.93 386.845 1285.61 386.531C1284.99 385.902 1284.36 385.273 1283.73 385.273C1282.79 385.273 1281.21 386.531 1280.27 388.732V396.908C1280.27 399.738 1280.58 400.053 1283.73 400.367V401.939Z" fill="white"/>
<path d="M1304.16 402.568C1303.53 402.568 1302.59 402.254 1301.96 401.625C1301.33 400.996 1301.02 400.367 1301.02 399.738C1299.13 400.996 1297.25 402.568 1295.99 402.568C1292.84 402.568 1290.64 400.053 1290.64 397.222C1290.64 395.021 1291.9 393.763 1294.1 392.82C1296.62 391.877 1300.07 390.619 1301.02 389.99V389.046C1301.02 386.216 1299.45 384.33 1297.25 384.33C1296.3 384.33 1295.67 384.644 1295.36 385.273C1294.73 385.902 1294.73 386.845 1294.1 388.103C1293.79 389.047 1293.47 389.046 1292.84 389.046C1291.9 389.046 1290.64 388.103 1290.64 387.16C1290.64 386.531 1291.27 385.902 1292.22 385.273C1293.47 384.33 1296.3 382.757 1298.82 382.128C1300.07 382.128 1301.65 382.443 1302.59 383.386C1304.16 384.644 1304.79 386.216 1304.79 388.418V396.908C1304.79 398.795 1305.42 399.424 1306.36 399.424C1306.99 399.424 1307.31 399.109 1307.93 399.109L1308.25 400.367L1304.16 402.568ZM1300.7 391.248C1299.76 391.877 1297.87 392.506 1296.93 393.134C1295.36 393.763 1294.42 394.707 1294.42 396.279C1294.42 398.795 1296.3 399.738 1297.56 399.738C1298.5 399.738 1300.07 399.109 1301.02 398.166C1300.7 396.279 1300.7 393.449 1300.7 391.248Z" fill="white"/>
<path d="M1318.62 401.939C1317.99 402.254 1317.05 402.568 1316.74 402.568C1313.91 402.568 1312.33 400.996 1312.33 397.222V384.644H1309.19L1308.88 384.015L1310.13 382.757H1312.02V378.984C1312.96 378.04 1314.54 376.783 1315.48 375.839H1316.11C1316.11 377.726 1316.11 380.242 1316.11 382.443H1321.14C1321.45 382.757 1321.45 384.015 1320.82 384.33H1316.11V395.65C1316.11 399.109 1317.36 399.738 1318.62 399.738C1319.56 399.738 1320.51 399.424 1321.14 399.109L1321.45 400.367L1318.62 401.939Z" fill="white"/>
<path d="M1323.34 401.939V400.682C1326.17 400.367 1326.48 400.053 1326.48 397.222V388.103C1326.48 385.273 1326.48 385.273 1323.65 384.644V383.701C1326.17 383.386 1328.37 382.757 1330.25 382.128C1330.25 384.015 1330.25 385.902 1330.25 387.789V397.537C1330.25 400.682 1330.57 400.681 1333.4 400.996V402.254H1323.34V401.939ZM1328.05 378.04C1326.8 378.04 1325.54 376.783 1325.54 375.525C1325.54 373.952 1326.8 373.009 1328.05 373.009C1329.31 373.009 1330.57 373.952 1330.57 375.525C1330.57 376.783 1329.62 378.04 1328.05 378.04Z" fill="white"/>
<path d="M1345.66 382.128C1351.31 382.128 1355.4 386.531 1355.4 391.877C1355.4 399.109 1350.06 402.568 1345.66 402.568C1339.37 402.568 1335.91 397.537 1335.91 392.82C1335.91 385.587 1341.26 382.128 1345.66 382.128ZM1345.03 383.701C1342.51 383.701 1340.31 386.216 1340.31 391.248C1340.31 396.908 1342.51 400.996 1345.97 400.996C1348.49 400.996 1350.69 399.109 1350.69 393.134C1350.69 387.789 1348.8 383.701 1345.03 383.701Z" fill="white"/>
<path d="M1371.12 401.939V400.682C1373.63 400.367 1373.63 400.053 1373.63 397.222V389.99C1373.63 386.845 1372.38 384.959 1369.86 384.959C1368.29 384.959 1366.72 385.902 1365.15 387.16V397.537C1365.15 400.367 1365.46 400.681 1367.98 400.996V402.254H1358.23V400.996C1361.06 400.681 1361.37 400.367 1361.37 397.537V388.418C1361.37 385.587 1361.06 385.587 1358.86 384.959V383.701C1361.06 383.386 1363.26 382.757 1365.46 381.814C1365.46 382.757 1365.46 384.33 1365.46 385.273C1366.4 384.644 1367.35 384.015 1368.29 383.386C1369.55 382.443 1370.49 382.128 1371.75 382.128C1375.21 382.128 1377.41 384.644 1377.41 389.047V397.537C1377.41 400.367 1377.72 400.681 1380.24 400.996V402.254H1371.12V401.939Z" fill="white"/>
<path d="M1154.84 434.958C1160.5 434.958 1164.59 439.36 1164.59 444.706C1164.59 451.938 1159.24 455.397 1154.84 455.397C1148.56 455.397 1145.1 450.366 1145.1 445.649C1145.1 438.417 1150.44 434.958 1154.84 434.958ZM1154.53 436.53C1152.01 436.53 1149.81 439.045 1149.81 444.077C1149.81 449.737 1152.01 453.825 1155.47 453.825C1157.99 453.825 1160.19 451.938 1160.19 445.964C1160.19 440.618 1157.99 436.53 1154.53 436.53Z" fill="white"/>
<path d="M1170.56 435.586V434.329C1170.56 431.184 1171.82 428.039 1174.65 425.524C1176.22 424.266 1177.79 423.323 1179.68 423.323C1181.25 423.323 1182.51 423.951 1183.13 424.58C1183.45 425.209 1183.76 425.524 1183.45 426.153C1183.45 426.782 1182.82 427.411 1182.19 427.725C1181.56 428.039 1181.25 428.039 1180.93 427.725C1179.99 426.782 1178.73 425.838 1177.48 425.838C1174.65 425.838 1174.65 429.612 1174.65 433.385V435.272H1179.05C1179.36 435.586 1179.05 436.844 1178.42 437.159H1174.33V449.737C1174.33 452.882 1174.65 452.882 1178.11 453.196V454.454H1167.42V453.196C1170.25 452.882 1170.56 452.882 1170.56 449.737V437.159H1167.42L1167.1 436.53L1168.05 435.272H1170.56V435.586Z" fill="white"/>
<path d="M1230.92 427.411C1227.77 427.725 1227.46 428.354 1226.2 431.813C1224.94 435.901 1221.17 447.221 1218.97 455.083H1217.09C1214.88 448.165 1212.06 440.303 1209.54 433.7C1207.03 441.247 1204.51 448.479 1202.31 455.083H1200.74C1198.54 447.85 1196.02 439.36 1193.51 431.498C1192.25 428.039 1191.94 427.411 1189.11 427.096V425.838H1200.42V427.096C1197.28 427.411 1196.97 428.039 1197.59 430.241C1199.17 435.901 1201.05 441.876 1202.62 447.85C1205.14 440.932 1207.65 433.385 1209.85 426.467H1211.43C1213.94 433.7 1216.46 440.618 1218.97 447.85C1220.86 442.19 1223.37 434.329 1224 430.87C1224.63 428.354 1224.32 427.725 1220.54 427.411V426.153H1230.6V427.411H1230.92Z" fill="white"/>
<path d="M1231.86 454.768V453.511C1235.32 453.196 1235.63 452.882 1235.63 449.108V431.813C1235.63 428.039 1235.32 427.725 1231.86 427.411V426.153H1244.12V427.411C1240.66 427.725 1240.03 428.039 1240.03 431.813V449.108C1240.03 452.882 1240.35 452.882 1244.12 453.511V454.768H1231.86Z" fill="white"/>
<path d="M1270.84 447.85C1270.53 449.108 1269.27 453.511 1268.95 455.083H1247.26V453.825C1251.35 453.511 1251.66 453.196 1251.66 449.423V432.127C1251.66 428.354 1251.04 428.039 1247.89 427.725V426.467H1261.41C1265.5 426.467 1267.38 426.467 1268.01 426.467C1268.01 427.41 1268.32 430.87 1268.32 433.385L1267.07 433.7C1266.75 432.127 1266.12 431.184 1265.5 430.241C1264.87 428.983 1263.92 428.668 1261.41 428.668H1257.32C1255.75 428.668 1255.75 428.668 1255.75 430.241V439.989H1260.47C1263.61 439.989 1263.92 439.36 1264.55 436.215H1266.12V445.335H1264.55C1263.92 442.19 1263.61 441.561 1260.47 441.561H1255.75V450.052C1255.75 453.196 1256.69 453.511 1258.89 453.511H1262.67C1265.18 453.511 1265.81 453.196 1266.75 451.938C1267.7 450.995 1268.64 449.108 1269.27 447.85H1270.84Z" fill="white"/>
<path d="M1298.82 454.768V453.511C1301.65 453.196 1301.96 452.567 1301.33 450.995C1300.7 449.423 1300.07 447.221 1299.13 444.706H1289.7C1289.07 446.592 1288.44 448.165 1287.82 450.052C1286.87 452.882 1287.5 453.196 1291.27 453.511V454.768H1280.9V453.511C1283.73 453.196 1284.36 452.882 1285.93 448.794L1295.05 425.838L1296.62 425.524C1299.45 433.071 1302.28 441.247 1305.1 448.794C1306.68 452.567 1306.99 452.882 1310.13 453.511V454.768H1298.82ZM1294.42 431.813C1293.16 435.586 1291.59 439.36 1290.33 442.819H1298.19L1294.42 431.813Z" fill="white"/>
<path d="M1340 442.819C1337.17 443.133 1337.17 443.448 1337.17 445.964V449.737C1337.17 451.309 1337.17 452.882 1337.48 453.825C1334.97 454.454 1331.2 455.397 1327.42 455.397C1317.36 455.397 1311.39 449.108 1311.39 440.303C1311.39 430.87 1318.94 425.524 1328.05 425.524C1332.45 425.524 1335.91 426.467 1337.17 426.467C1337.17 428.039 1337.48 430.87 1337.8 433.7L1336.54 434.014C1335.6 430.241 1334.03 428.668 1331.51 427.725C1330.57 427.411 1328.68 427.096 1327.42 427.096C1320.82 427.096 1316.74 431.813 1316.74 439.674C1316.74 446.907 1320.19 453.511 1328.37 453.511C1329.62 453.511 1331.2 453.196 1331.82 452.882C1332.77 452.253 1333.08 451.938 1333.08 450.052V446.593C1333.08 443.448 1332.77 443.133 1328.68 442.819V441.561H1340.31V442.819H1340Z" fill="white"/>
<path d="M1354.46 345.337H1143.21V351.311H1354.46V345.337Z" fill="#FFD2FF"/>
<path d="M1235.63 300.055C1234.69 303.199 1233.43 307.602 1232.8 310.117H1208.28V308.545C1211.43 305.4 1214.88 301.941 1218.03 298.168C1222.74 293.137 1224.63 289.049 1224.63 284.017C1224.63 279.615 1222.43 276.785 1218.34 276.785C1214.57 276.785 1212.06 279.3 1210.17 282.13L1208.28 280.558L1212.06 274.898C1214.26 272.382 1217.4 271.124 1221.49 271.124C1227.46 271.124 1232.8 275.212 1232.8 282.13C1232.8 286.847 1230.92 290.306 1224.63 295.967C1222.11 298.168 1218.97 301.312 1216.77 303.199C1217.08 303.199 1226.83 303.199 1227.14 303.199C1230.92 303.199 1231.55 302.885 1233.75 299.111L1235.63 300.055Z" fill="#FFD2FF"/>
<path d="M1252.61 271.439C1262.98 271.439 1266.44 282.445 1266.44 291.25C1266.44 300.055 1262.98 311.061 1252.61 311.061C1242.23 311.061 1238.78 300.055 1238.78 291.25C1238.78 282.13 1242.55 271.439 1252.61 271.439ZM1252.61 274.269C1248.52 274.269 1247.58 283.074 1247.58 291.25C1247.58 299.426 1248.83 308.545 1252.92 308.545C1257.01 308.545 1257.95 299.74 1257.95 291.25C1257.64 282.445 1256.69 274.269 1252.61 274.269Z" fill="#FFD2FF"/>
<path d="M1297.56 300.055C1296.62 303.199 1295.36 307.602 1294.73 310.117H1270.21V308.545C1273.35 305.4 1276.81 301.941 1279.96 298.168C1284.67 293.137 1286.56 289.049 1286.56 284.017C1286.56 279.615 1284.36 276.785 1280.27 276.785C1276.5 276.785 1273.98 279.3 1272.1 282.13L1270.21 280.558L1273.98 274.898C1276.18 272.382 1279.33 271.124 1283.41 271.124C1289.39 271.124 1294.73 275.212 1294.73 282.13C1294.73 286.847 1292.84 290.306 1286.56 295.967C1284.04 298.168 1280.9 301.312 1278.7 303.199C1279.01 303.199 1288.76 303.199 1289.07 303.199C1292.84 303.199 1293.47 302.885 1295.67 299.111L1297.56 300.055Z" fill="#FFD2FF"/>
<path d="M1303.85 310.117V307.916C1310.13 307.602 1310.45 306.973 1310.45 302.57V280.558C1310.45 277.414 1309.51 277.099 1306.99 276.785L1305.1 276.47V274.583C1309.82 273.955 1315.16 272.697 1318.62 271.439V302.57C1318.62 306.973 1318.94 307.602 1325.22 307.916V310.117H1303.85Z" fill="#FFD2FF"/>
<path d="M1165.85 314.52C1153.9 314.52 1144.47 304.771 1144.47 293.137C1144.47 281.187 1154.21 271.753 1165.85 271.753C1177.48 271.753 1187.22 281.502 1187.22 293.137C1187.22 304.771 1177.48 314.52 1165.85 314.52ZM1165.85 273.326C1155.16 273.326 1146.36 282.13 1146.36 292.822C1146.36 303.514 1155.16 312.318 1165.85 312.318C1176.53 312.318 1185.34 303.514 1185.34 292.822C1185.34 282.13 1176.53 273.326 1165.85 273.326Z" fill="#FFD2FF"/>
<path d="M1165.85 276.156C1156.41 276.156 1148.87 283.703 1148.87 293.137C1148.87 302.57 1156.41 310.117 1165.85 310.117C1175.28 310.117 1182.82 302.57 1182.82 293.137C1182.82 283.703 1175.28 276.156 1165.85 276.156ZM1177.79 294.394H1165.85C1165.22 294.394 1164.59 293.765 1164.59 293.137V278.671C1164.59 278.042 1165.22 277.414 1165.85 277.414C1166.47 277.414 1167.1 278.042 1167.1 278.671V291.879H1178.11C1178.73 291.879 1179.36 292.508 1179.36 293.137C1179.05 293.765 1178.42 294.394 1177.79 294.394Z" fill="#FFD2FF"/>
<path d="M919.076 400.367C924.111 400.367 928.193 396.284 928.193 391.248C928.193 386.211 924.111 382.128 919.076 382.128C914.041 382.128 909.96 386.211 909.96 391.248C909.96 396.284 914.041 400.367 919.076 400.367Z" fill="#DFB6FF"/>
<path d="M463.261 605.709C468.296 605.709 472.377 601.626 472.377 596.589C472.377 591.553 468.296 587.47 463.261 587.47C458.226 587.47 454.145 591.553 454.145 596.589C454.145 601.626 458.226 605.709 463.261 605.709Z" fill="#FFD2FF"/>
</g>
<defs>
<linearGradient id="paint0_linear" x1="40" y1="117.454" x2="1483.33" y2="473.93" gradientUnits="userSpaceOnUse">
<stop stop-color="#4E0860"/>
<stop offset="1" stop-color="#752F8B"/>
</linearGradient>
<clipPath id="clip0">
<rect width="1440" height="894" fill="white"/>
</clipPath>
</defs>
</svg>
