<?xml version="1.0" encoding="UTF-8"?>
<svg enable-background="new 0 0 734.1 406.7" version="1.1" viewBox="0 0 734.1 406.7" xml:space="preserve" xmlns="http://www.w3.org/2000/svg">
<style type="text/css">
	.st0{fill:url(#a);}
	.st1{opacity:0.8;fill:#FFFFFF;enable-background:new    ;}
	.st2{opacity:0.28;fill:#FFFFFF;enable-background:new    ;}
	.st3{opacity:0.33;fill:#FFFFFF;enable-background:new    ;}
	.st4{opacity:0.16;fill:#FFFFFF;enable-background:new    ;}
	.st5{fill:none;stroke:#FFFFFF;stroke-width:1;stroke-miterlimit:9.9991;}
	.st6{fill:none;stroke:#FFFFFF;stroke-miterlimit:9.9994;}
	.st7{fill:none;stroke:#FFFFFF;stroke-miterlimit:10;}
	.st8{fill:none;stroke:#FFFFFF;stroke-miterlimit:10.0002;}
	.st9{opacity:0.23;fill:#FFFFFF;enable-background:new    ;}
	.st10{font-family:'ArialMT';}
	.st11{font-size:19.7719px;}
	.st12{font-size:41.4877px;}
	.st13{font-size:19.7723px;}
	.st14{opacity:0.4;}
	.st15{fill:#FFFFFF;}
	.st16{font-size:16.9679px;}
	.st17{opacity:0.6;fill:#FFFFFF;enable-background:new    ;}
	.st18{font-size:19.7717px;}
	.st19{font-size:14.1425px;}
	.st20{font-size:41.1715px;}
	.st21{opacity:0.83;}
	.st22{opacity:0.6;}
	.st23{opacity:0.48;}
	.st24{opacity:0.64;}
	.st25{fill:#E6E6E6;}
	.st26{fill:#FBCC98;}
	.st27{fill:#E3AD6F;}
	.st28{fill:#0A0809;}
	.st29{fill:#2B272D;}
	.st30{fill:#231F20;}
	.st31{fill:#E8AF7A;}
	.st32{fill:#0E0C0D;}
	.st33{fill:#AE1AAF;}
	.st34{fill:#A8A39E;}
	.st35{fill:none;}
</style>
		<linearGradient id="a" x1="369.44" x2="369.44" y1="258.48" y2="613.68" gradientTransform="translate(8.4104e-6 -257.78)" gradientUnits="userSpaceOnUse">
		<stop stop-color="#BC14B8" offset="0"/>
		<stop stop-color="#752F8B" offset=".974"/>
	</linearGradient>
	<path class="st0" d="m504.9 344.3c-21.6 7.1-81 7-109.8 5l-92.4 6.6-23.4-4.3c-8.1-1.1-25.7-5.2-31.9-12.4-4.8-5.6-14.4-11.2-35-12-23.2-1-32.9 2.7-46 4-20.8 2.1-41.9-4-55.1-16.8-1.4-1.5-2.6-2.3-5.1-7.3-1.5-2.9-5.5-14.5-7.7-18.2-2.6-4.3-6.8-10-25.2-12.4-11.1-1.5-23.8 2.1-32.4-4.4-9.3-6.9-9.3-10.9-23.7-12.2-17.1-1.5-17.8-8.1-18.5-11.6v-247.6h737.3l4.1 183.5s1.6 0.6-9.8 3.8c-14.4 4-34.5 4.2-51.5 8.8-11.8 3.2-23.1 7.3-26 16.4-3.4 10.9 10.3 24.9 0 40s-22.1 18-66.9 21.4c-24.2 1.8-46.6 18.6-49.1 30.6-3.8 17.9-3.6 29.8-31.9 39.1z"/>
			<path class="st1" d="m194.5 266h-1.9c-0.3-3-1.6-5.8-3.5-8l1.3-1.5c0.4-0.4 0.4-1.1-0.1-1.5l-2-1.8c-0.4-0.4-1.1-0.4-1.5 0.1l-1.5 1.8c-1.3-0.7-2.8-1.2-4.3-1.5v-2.3c0-0.6-0.5-1-1.1-1h-2.6c-0.6 0-1.1 0.4-1.1 1v2.3c-2.2 0.4-4.3 1.3-6 2.6l-1.5-1.4c-0.4-0.4-1.1-0.4-1.5 0.1l-1.8 2c-0.4 0.4-0.4 1.1 0.1 1.5l1.5 1.4c-1.2 1.8-2 3.8-2.3 6l-2.4-0.1c-0.6 0-1.1 0.4-1.1 1v2.6c0 0.6 0.4 1.1 1 1.1l2.6 0.1c0.4 1.9 1.2 3.6 2.2 5.1l-1.7 1.9c-0.4 0.4-0.4 1.1 0.1 1.5l2 1.8c0.4 0.4 1.1 0.4 1.5-0.1l1.5-1.7c1.7 1.2 3.7 2.1 5.9 2.5v2.3c0 0.6 0.5 1 1.1 1h2.6c0.6 0 1.1-0.4 1.1-1v-2.3c2.4-0.4 4.5-1.4 6.4-2.9l1.8 1.6c0.4 0.4 1.1 0.4 1.5-0.1l1.8-2c0.4-0.4 0.4-1.1-0.1-1.5l-1.8-1.7c0.8-1.3 1.4-2.7 1.8-4.2h2.1c0.6 0 1.1-0.4 1.1-1v-2.6c-0.1-0.7-0.6-1.1-1.2-1.1zm-15 10.6c-5.9 0.6-10.8-4.3-10.2-10.2 0.4-4.4 3.9-7.9 8.3-8.3 5.9-0.6 10.8 4.3 10.2 10.2-0.4 4.4-3.9 7.9-8.3 8.3z">
<animateTransform fill="remove" accumulate="none" additive="replace" attributeName="transform" attributeType="XML" calcMode="linear" dur="6s" from="0 178.57 267.23" repeatCount="indefinite" restart="always" to="360 178.57 267.23" type="rotate">
					</animateTransform>
			</path>
			<path class="st2" d="m616 127.8-3.7-0.1c-0.2-1.8-0.6-3.5-1.1-5.2-0.5-1.5-1.4-3.9-3-6.4-1-1.5-2-2.7-2.7-3.6 0.9-1 1.7-1.9 2.6-2.9 0.7-0.8 0.7-2.1-0.1-2.9l-3.8-3.4c-0.8-0.7-2.1-0.7-2.9 0.1l-3 3.3c-2.6-1.4-5.3-2.3-8.3-2.9v-4.3c0-1.1-0.9-2-2-2h-5.1c-1.1 0-2 0.9-2 2v4.3c-4.2 0.7-8.2 2.5-11.6 5l-2.9-2.7c-0.8-0.7-2.1-0.7-2.9 0.1l-3.4 3.7c-0.7 0.8-0.7 2.1 0.1 2.9l2.9 2.6c-2.3 3.4-3.7 7.2-4.3 11.4l-4.6-0.1c-1.1 0-2 0.9-2 2l-0.1 5.1c0 1.1 0.9 2 2 2l5 0.1c0.7 3.6 2.2 6.9 4.2 9.8l-3.3 3.6c-0.7 0.8-0.7 2.1 0.1 2.9l3.8 3.4c0.8 0.7 2.1 0.7 2.9-0.1l2.9-3.2c3.3 2.3 7.1 4 11.2 4.8v4.3c0 1.1 0.9 2 2 2h5.1c1.1 0 2-0.9 2-2v-4.3c4.5-0.8 8.7-2.7 12.2-5.4l3.4 3.1c0.8 0.7 2.1 0.7 2.9-0.1l3.4-3.7c0.7-0.8 0.7-2.1-0.1-2.9l-3.5-3.2c1.5-2.5 2.7-5.2 3.4-8l4.1 0.1c1.1 0 2-0.9 2-2l0.1-5.1c0.2-1.2-0.7-2.1-1.9-2.1zm-30.5 20.6c-9.9 0-17.8-8-17.8-17.8s8-17.8 17.8-17.8c9.9 0 17.8 8 17.8 17.8s-7.9 17.8-17.8 17.8z">
<animateTransform fill="remove" accumulate="none" additive="replace" attributeName="transform" attributeType="XML" calcMode="linear" dur="6s" from="0 585.74 130.68" repeatCount="indefinite" restart="always" to="360 585.74 130.68" type="rotate">
					</animateTransform>
			</path>
			<path class="st1" d="m246.9 218.1h-1.3c-0.2-2.1-1.1-4.1-2.5-5.6l1-1c0.3-0.3 0.2-0.8-0.1-1l-1.4-1.2c-0.3-0.3-0.8-0.2-1 0.1l-1.1 1.2c-1-0.5-2-0.9-3.1-1v-1.6c0-0.4-0.4-0.7-0.7-0.7h-1.8c-0.4 0-0.7 0.4-0.7 0.7v1.6c-1.5 0.3-3 0.9-4.2 1.8l-1.1-1c-0.3-0.3-0.8-0.3-1 0.1l-1.2 1.4c-0.3 0.3-0.3 0.8 0.1 1l1 1c-0.8 1.2-1.4 2.6-1.6 4.2h-1.7c-0.4 0-0.7 0.3-0.7 0.7v1.9c0 0.4 0.3 0.7 0.7 0.7h1.8c0.3 1.3 0.8 2.5 1.5 3.6l-1.2 1.3c-0.3 0.3-0.2 0.8 0.1 1l1.4 1.2c0.3 0.3 0.8 0.2 1-0.1l1-1.2c1.2 0.9 2.6 1.5 4.1 1.8v1.6c0 0.4 0.4 0.7 0.7 0.7h1.8c0.4 0 0.7-0.4 0.7-0.7v-1.6c1.7-0.3 3.2-1 4.5-2l1.2 1.2c0.3 0.3 0.8 0.3 1-0.1l1.2-1.4c0.3-0.3 0.3-0.8-0.1-1l-1.2-1.2c0.6-0.9 1-1.9 1.2-2.9h1.5c0.4 0 0.7-0.3 0.7-0.7v-1.9c0.2-0.7-0.1-0.9-0.5-0.9zm-10.3 7.4c-4.2 0.5-7.9-3.1-7.3-7.3 0.4-2.9 2.7-5.3 5.6-5.6 4.2-0.5 7.9 3.1 7.3 7.3-0.3 2.9-2.7 5.2-5.6 5.6z">
<animateTransform fill="remove" accumulate="none" additive="replace" attributeName="transform" attributeType="XML" calcMode="linear" dur="6s" from="0 235.75 219.05" repeatCount="indefinite" restart="always" to="360 235.75 219.05" type="rotate">
					</animateTransform>
			</path>
			<path class="st3" d="m167.3 102.1-3.2-0.1c-0.5-5.2-2.7-9.8-6-13.5l2.3-2.6c0.7-0.7 0.6-1.9-0.1-2.6l-3.4-3c-0.7-0.7-1.9-0.6-2.6 0.1l-2.6 2.9c-2.3-1.2-4.8-2.1-7.3-2.6v-3.8c0-1-0.8-1.8-1.8-1.8h-4.6c-1 0-1.8 0.8-1.8 1.8v3.8c-3.8 0.7-7.3 2.2-10.2 4.4l-2.6-2.4c-0.7-0.7-1.9-0.7-2.6 0.1l-3.1 3.3c-0.7 0.7-0.7 1.9 0.1 2.6l2.6 2.3c-2 3-3.4 6.4-3.8 10.1l-4.1-0.1c-1 0-1.8 0.8-1.8 1.8l-0.1 4.5c0 1 0.8 1.8 1.8 1.8l4.5 0.1c0.7 3.1 2 6.1 3.7 8.6l-2.9 3.2c-0.7 0.7-0.6 1.9 0.1 2.6l3.4 3c0.7 0.7 1.9 0.6 2.6-0.1l2.6-2.9c2.9 2.1 6.3 3.6 9.9 4.2v3.8c0 1 0.8 1.8 1.8 1.8h4.5c1 0 1.8-0.8 1.8-1.8v-3.6c4-0.7 7.7-2.4 10.8-4.8l3 2.8c0.7 0.7 1.9 0.7 2.6-0.1l3.1-3.3c0.7-0.7 0.7-1.9-0.1-2.6l-3.1-2.9c1.4-2.2 2.4-4.6 3-7.2l3.7 0.1c1 0 1.8-0.8 1.8-1.8l0.1-4.5c-0.1-0.8-0.9-1.6-2-1.6zm-26.1 18.2c-9.4 0.4-17.1-7.2-16.6-16.6 0.4-8 6.9-14.6 15-15 9.4-0.5 17.1 7.2 16.6 16.6-0.5 8.1-7 14.7-15 15z">
<animateTransform fill="remove" accumulate="none" additive="replace" attributeName="transform" attributeType="XML" calcMode="linear" dur="6s" from="0 140.58 104.38" repeatCount="indefinite" restart="always" to="360 140.58 104.38" type="rotate">
					</animateTransform>
			</path>
			<path class="st4" d="m584.5 287.6-6.8-0.1c-1.2-10.9-5.8-20.8-12.7-28.5l4.8-5.4c1.4-1.5 1.3-4-0.3-5.4l-7.1-6.4c-1.6-1.4-3.9-1.3-5.4 0.3l-5.6 6.2c-4.8-2.6-10-4.5-15.6-5.4v-8.1c0-2.1-1.7-3.8-3.8-3.8h-9.6c-2.1 0-3.8 1.7-3.8 3.8v8.1c-8 1.4-15.4 4.6-21.7 9.3l-5.6-5.1c-1.5-1.5-3.9-1.3-5.4 0.2l-6.5 7c-1.5 1.5-1.3 3.9 0.2 5.4l5.3 5c-4.2 6.3-7.1 13.6-8.1 21.4l-8.6-0.1c-2.1 0-3.9 1.7-3.9 3.7l-0.1 9.6c0 2.1 1.7 3.9 3.8 3.9l9.5 0.1c1.4 6.7 4.2 12.9 7.9 18.4l-6.1 6.8c-1.4 1.6-1.3 4 0.3 5.4l7.1 6.4c1.6 1.4 4 1.3 5.4-0.3l5.3-6c6.1 4.5 13.3 7.5 21.1 8.8v8c0 2.1 1.7 3.8 3.8 3.8h9.6c2.1 0 3.8-1.7 3.8-3.8v-8c8.6-1.5 16.4-5 22.9-10.2l6.4 5.9c1.5 1.5 3.9 1.3 5.4-0.2l6.5-7c1.5-1.5 1.3-3.9-0.2-5.4l-6.5-6c2.9-4.6 5-9.7 6.4-15.1l7.7 0.1c2.1 0 3.9-1.7 3.9-3.7l0.1-9.6c0-2.3-1.7-4-3.8-4zm-57.2 38.7c-18.5 0-33.5-15-33.5-33.5s15-33.5 33.5-33.5 33.5 15 33.5 33.5-15 33.5-33.5 33.5z">
<animateTransform fill="remove" accumulate="none" additive="replace" attributeName="transform" attributeType="XML" calcMode="linear" dur="6s" from="0 527.74 292.69" repeatCount="indefinite" restart="always" to="360 527.74 292.69" type="rotate">
					</animateTransform>
			</path>
			<path class="st1" d="m706.4 164.2h-1.9c-0.3-3-1.6-5.8-3.5-7.9l1.3-1.5c0.4-0.4 0.4-1.1-0.1-1.5l-2-1.8c-0.4-0.4-1.1-0.4-1.5 0.1l-1.5 1.8c-1.3-0.7-2.8-1.2-4.3-1.5v-2.3c0-0.6-0.5-1.1-1.1-1.1h-2.6c-0.6 0-1.1 0.4-1.1 1.1v2.3c-2.2 0.4-4.3 1.3-6 2.6l-1.5-1.4c-0.4-0.4-1.1-0.4-1.5 0.1l-1.8 2c-0.4 0.4-0.4 1.1 0.1 1.5l1.5 1.4c-1.2 1.8-2 3.8-2.3 6h-2.4c-0.6 0-1.1 0.4-1.1 1v2.6c0 0.6 0.4 1.1 1 1.1h2.6c0.4 1.9 1.2 3.6 2.2 5.1l-1.7 1.9c-0.4 0.4-0.4 1.1 0.1 1.5l2 1.8c0.4 0.4 1.1 0.4 1.5-0.1l1.5-1.7c1.7 1.2 3.7 2.1 5.9 2.5v2.3c0 0.6 0.5 1.1 1.1 1.1h2.6c0.6 0 1.1-0.5 1.1-1.1v-2.3c2.3-0.4 4.5-1.4 6.4-2.9l1.8 1.6c0.4 0.4 1.1 0.4 1.5-0.1l1.8-2c0.4-0.4 0.4-1.1-0.1-1.5l-1.8-1.7c0.8-1.3 1.4-2.7 1.8-4.2h2.1c0.6 0 1.1-0.4 1.1-1v-2.6c-0.1-0.7-0.6-1.2-1.2-1.2zm-15.9 10.8c-5.1 0-9.3-4.2-9.3-9.3s4.2-9.3 9.3-9.3 9.3 4.2 9.3 9.3-4.1 9.3-9.3 9.3z">
<animateTransform fill="remove" accumulate="none" additive="replace" attributeName="transform" attributeType="XML" calcMode="linear" dur="6s" from="0 690.35 165.7" repeatCount="indefinite" restart="always" to="360 690.35 165.7" type="rotate">
					</animateTransform>
			</path>
			<path class="st1" d="m436.2 275.5h-1.3c-0.2-2.1-1.1-4-2.5-5.6l1-1c0.3-0.3 0.2-0.8-0.1-1l-1.4-1.2c-0.3-0.3-0.8-0.2-1 0.1l-1.1 1.2c-1-0.5-2-0.9-3.1-1v-1.8c0-0.4-0.4-0.7-0.7-0.7h-1.8c-0.4 0-0.7 0.4-0.7 0.7v1.6c-1.5 0.3-3 0.9-4.2 1.8l-1.1-1c-0.3-0.3-0.8-0.3-1 0.1l-1.2 1.4c-0.3 0.3-0.3 0.8 0.1 1l1 1c-0.8 1.2-1.4 2.6-1.6 4.2h-1.7c-0.4 0-0.7 0.3-0.7 0.7v1.8c0 0.4 0.3 0.7 0.7 0.7h1.8c0.3 1.3 0.8 2.5 1.5 3.6l-1.2 1.3c-0.3 0.3-0.2 0.8 0.1 1l1.4 1.2c0.3 0.3 0.8 0.2 1-0.1l1-1.2c1.2 0.9 2.6 1.5 4.1 1.8v1.6c0 0.4 0.4 0.7 0.7 0.7h1.8c0.4 0 0.7-0.4 0.7-0.7v-1.6c1.7-0.3 3.2-1 4.5-2l1.2 1.2c0.3 0.3 0.8 0.3 1-0.1l1.2-1.4c0.3-0.3 0.3-0.8-0.1-1l-1.2-1.2c0.6-0.9 1-1.9 1.2-2.9h1.5c0.4 0 0.7-0.3 0.7-0.7v-1.8c0.3-0.3-0.1-0.7-0.5-0.7zm-11.1 7.6c-3.6 0-6.5-2.9-6.5-6.5s2.9-6.5 6.5-6.5 6.5 2.9 6.5 6.5c0 3.5-3 6.5-6.5 6.5z">
<animateTransform fill="remove" accumulate="none" additive="replace" attributeName="transform" attributeType="XML" calcMode="linear" dur="6s" from="0 424.82 276.47" repeatCount="indefinite" restart="always" to="360 424.82 276.47" type="rotate">
					</animateTransform>
			</path>
			<path class="st2" d="m357 214.7-3.7-0.1c-0.6-5.9-3.1-11.1-6.8-15.2l2.6-2.9c0.7-0.8 0.7-2.1-0.1-2.9l-3.8-3.4c-0.8-0.7-2.1-0.7-2.9 0.1l-3 3.3c-2.6-1.4-5.3-2.3-8.3-2.9v-4.3c0-1.1-0.9-2-2-2h-5.1c-1.1 0-2 0.9-2 2v4.3c-4.2 0.7-8.2 2.5-11.6 5l-2.9-2.7c-0.8-0.7-2.1-0.7-2.9 0.1l-3.4 3.7c-0.7 0.8-0.7 2.1 0.1 2.9l2.9 2.6c-2.3 3.4-3.7 7.2-4.3 11.4l-4.6-0.1c-1.1 0-2 0.9-2 2l-0.2 5.4c0 1.1 0.9 2 2 2l5 0.1c0.7 3.6 2.2 6.9 4.2 9.8l-3.3 3.7c-0.7 0.8-0.7 2.1 0.1 2.9l3.8 3.4c0.8 0.7 2.1 0.7 2.9-0.1l2.9-3.2c3.3 2.3 7.1 4 11.2 4.8v4.3c0 1.1 0.9 2 2 2h5.1c1.1 0 2-0.9 2-2v-4.3c4.5-0.8 8.7-2.7 12.2-5.4l3.4 3.1c0.8 0.7 2.1 0.7 2.9-0.1l3.4-3.7c0.7-0.8 0.7-2.1-0.1-2.9l-3.5-3.2c1.5-2.5 2.7-5.2 3.4-8l4.1 0.1c1.1 0 2-0.9 2-2l0.1-5.1c0.1-1.6-0.7-2.5-1.8-2.5zm-30.5 20.6c-9.9 0-17.8-8-17.8-17.8s8-17.8 17.8-17.8 17.8 8 17.8 17.8-7.9 17.8-17.8 17.8z">
<animateTransform fill="remove" accumulate="none" additive="replace" attributeName="transform" attributeType="XML" calcMode="linear" dur="6s" from="0 326.5 217.55" repeatCount="indefinite" restart="always" to="360 326.5 217.55" type="rotate">
					</animateTransform>
			</path>
				<rect class="st5" transform="matrix(.6059 -.7955 .7955 .6059 -3.6925 394.09)" x="390.1" y="194.9" width="11.7" height="11.7">
				<animateTransform fill="remove" accumulate="none" additive="replace" attributeName="transform" attributeType="XML" calcMode="linear" dur="6s" from="0 395.62 200.46" repeatCount="indefinite" restart="always" to="360 395.62 200.46" type="rotate">
				</animateTransform>
			</rect>
				<rect class="st5" transform="matrix(.6059 -.7955 .7955 .6059 -95.962 333.1)" x="280.3" y="255.4" width="15.9" height="16.1">
				<animateTransform fill="remove" accumulate="none" additive="replace" attributeName="transform" attributeType="XML" calcMode="linear" dur="6s" from="0 288.23 263.41" repeatCount="indefinite" restart="always" to="360 288.23 263.41" type="rotate">
				</animateTransform>
			</rect>
				<rect class="st5" transform="matrix(.6059 -.7955 .7955 .6059 35.364 218.75)" x="232.6" y="67.8" width="11.7" height="11.7">
				<animateTransform fill="remove" accumulate="none" additive="replace" attributeName="transform" attributeType="XML" calcMode="linear" dur="6s" from="0 238.53 73.76" repeatCount="indefinite" restart="always" to="360 238.53 73.76" type="rotate">
				</animateTransform>
			</rect>
				<rect class="st5" transform="matrix(.6059 -.7955 .7955 .6059 -30.356 101.56)" x="74.7" y="69" width="25.2" height="24.9">
				<animateTransform fill="remove" accumulate="none" additive="replace" attributeName="transform" attributeType="XML" calcMode="linear" dur="6s" from="0 87.01 81.4" repeatCount="indefinite" restart="always" to="360 87.01 81.4" type="rotate">
				</animateTransform>
			</rect>
				<rect class="st5" transform="matrix(.6059 -.7955 .7955 .6059 -13.116 438.23)" x="429.9" y="226.5" width="11.7" height="11.7">
				<animateTransform fill="remove" accumulate="none" additive="replace" attributeName="transform" attributeType="XML" calcMode="linear" dur="6s" from="0 435.96 232.15" repeatCount="indefinite" restart="always" to="360 435.96 232.15" type="rotate">
				</animateTransform>
			</rect>
				<rect class="st5" transform="matrix(.6059 -.7955 .7955 .6059 56.818 493.68)" x="514.3" y="177.1" width="24.9" height="24.7">
				<animateTransform fill="remove" accumulate="none" additive="replace" attributeName="transform" attributeType="XML" calcMode="linear" dur="6s" from="0 526.25 189.49" repeatCount="indefinite" restart="always" to="360 526.25 189.49" type="rotate">
				</animateTransform>
			</rect>
			<polygon class="st6" points="544.2 80.4 534.4 67.4 521.5 77.3 531.3 90.3">
				<animateTransform fill="remove" accumulate="none" additive="replace" attributeName="transform" attributeType="XML" calcMode="linear" dur="6s" from="0 532.37 78.1" repeatCount="indefinite" restart="always" to="360 532.37 78.1" type="rotate">
				</animateTransform>
			</polygon>
				<rect class="st5" transform="matrix(.6059 -.7955 .7955 .6059 -78.023 229.06)" x="179.6" y="180.8" width="25.1" height="25">
				<animateTransform fill="remove" accumulate="none" additive="replace" attributeName="transform" attributeType="XML" calcMode="linear" dur="6s" from="0 192.18 193.28" repeatCount="indefinite" restart="always" to="360 192.18 192.28" type="rotate">
				</animateTransform>
			</rect>
				<rect class="st5" transform="matrix(.6059 -.7955 .7955 .6059 -88.13 489.11)" x="437.1" y="321" width="25.1" height="25">
				<animateTransform fill="remove" accumulate="none" additive="replace" attributeName="transform" attributeType="XML" calcMode="linear" dur="6s" from="0 450 333.68" repeatCount="indefinite" restart="always" to="360 450 333.68" type="rotate">
				</animateTransform>
			</rect>
				<rect class="st5" transform="matrix(.6059 -.7955 .7955 .6059 -186.92 173.56)" x="69.2" y="262.9" width="25.1" height="25">
				<animateTransform fill="remove" accumulate="none" additive="replace" attributeName="transform" attributeType="XML" calcMode="linear" dur="6s" from="0 83.11 273.25" repeatCount="indefinite" restart="always" to="360 83.11 273.25" type="rotate">
				</animateTransform>
			</rect>
				<rect class="st5" transform="matrix(.6059 -.7955 .7955 .6059 -132.76 73.61)" x="-4.6" y="158.3" width="25.1" height="25">
				<animateTransform fill="remove" accumulate="none" additive="replace" attributeName="transform" attributeType="XML" calcMode="linear" dur="6s" from="0 7.75 170.78" repeatCount="indefinite" restart="always" to="360 7.75 170.78" type="rotate">
				</animateTransform>
			</rect>
			<circle class="st7" cx="631.7" cy="183.9" r="9.5"/>
			<circle class="st7" cx="58.9" cy="213.8" r="22.3"/>
			<ellipse class="st8" cx="163.4" cy="328" rx="17.4" ry="17.4"/>
			<circle class="st7" cx="276.6" cy="202.9" r="9.5"/>
			<circle class="st7" cx="469.7" cy="62.4" r="15.7"/>
			<text class="st9 st10 st11" transform="matrix(.9953 .096899 -.096899 .9953 631.68 88.25)">1</text>
			<text class="st9 st10 st12" transform="matrix(.9035 -.5229 .5009 .8655 135.4 203.73)">1</text>
			<text class="st9 st10 st13" transform="matrix(.9937 -.1123 .1123 .9937 283.2 81.397)">1</text>
		<g class="st14">
			<text class="st15 st10 st16" transform="matrix(.9683 .2497 -.2497 .9683 425.01 202.07)">0</text>
			<text class="st17 st10 st18" transform="translate(179.48 79.978)">0</text>
			<text class="st17 st10 st19" transform="matrix(1.0006 -.2348 .2284 .9736 191.07 233.42)">0</text>
			<text class="st17 st10 st20" transform="matrix(-.6281 -.5783 .6773 -.7357 586.17 200.33)">0</text>
		</g>
			<g class="st21">
				<path class="st15" d="m302.3 321.9c-1-1-2.3-1.2-3.6-1l-2.6-2.5c3.2-3.7 5-8.5 4.8-13.8-0.4-10-8.6-18.2-18.6-18.7-11.6-0.6-21.2 9-20.7 20.6 0.5 10 8.6 18.1 18.6 18.6 4.8 0.3 9.3-1.2 12.8-3.9l2.7 2.6c-0.3 1.3 0.1 2.9 1.1 3.8l3.1 3 5.5-5.9-3.1-2.8zm-36.5-15.5c-0.6-9.3 7.1-17 16.4-16.4 7.7 0.5 13.9 6.7 14.4 14.4 0.6 9.3-7.1 17-16.4 16.4-7.7-0.4-13.9-6.7-14.4-14.4z"/>
				<path class="st15" d="m315.5 334.3-8.6-8-5.5 5.9 8.6 8.1c1.8 1.7 4.6 1.4 6.1-0.7 1.2-1.6 0.9-3.9-0.6-5.3z"/>
			</g>
			<g class="st22">
				<path class="st15" d="m703.8 103.6c1.3-1.4 1.7-3.2 1.3-4.9l3.4-3.6c4.8 4.1 10.9 6.6 17.7 6.5 14.8-0.1 26.8-12.1 26.8-27-0.1-14.8-12.1-26.8-27-26.8-14.8 0.1-26.8 12.1-26.8 27 0 6 2 11.5 5.4 15.9l-3.5 3.7c-1.8-0.4-3.9 0.1-5.3 1.5l-4 4.3 8 7.5 4-4.1zm22.2-49.9c11.6-0.1 21.1 9.4 21.2 21s-9.4 21.1-21 21.2-21.1-9.4-21.2-21 9.3-21.1 21-21.2z"/>
				<path class="st15" d="m686.8 121.9 11.1-11.8-8-7.5-11.2 11.8c-2 2.2-2 5.7 0.2 7.8 2.3 2 5.7 1.9 7.9-0.3z"/>
			</g>
				<path class="st15" d="m98.2 152.8c-0.7-0.7-1.7-1-2.6-0.7l-1.9-1.8c2.2-2.5 3.5-5.7 3.5-9.3 0-7.8-6.4-14.2-14.2-14.2s-14.2 6.4-14.2 14.2 6.4 14.2 14.2 14.2c3.1 0 6.1-1 8.4-2.8l2 1.8c-0.2 1 0 2 0.8 2.8l2.3 2.1 3.9-4.2-2.2-2.1zm-26.2-11.9c0-6.1 5-11.1 11.1-11.1s11.1 5 11.1 11.1-5 11.1-11.1 11.1c-6.2 0.1-11.1-4.9-11.1-11.1z"/>
				<path class="st15" d="m107.9 161.8-6.2-5.9-3.9 4.2 6.2 5.9c1.2 1.1 3 1 4.1-0.1 0.9-1.2 0.9-3-0.2-4.1z"/>
				<path class="st15" d="m237.5 294.3-8.7-1.6c-0.7-0.1-1.3 0.3-1.5 1-0.1 0.7 0.3 1.3 1 1.5l8.7 1.6c0.7 0.1 1.3-0.3 1.5-1 0.1-0.7-0.4-1.4-1-1.5z">
<animate fill="remove" accumulate="none" additive="replace" attributeName="opacity" begin="0s" calcMode="linear" dur="10s" keyTimes="0;0.5;1" repeatCount="indefinite" restart="always" values="1;0.2;1">
						</animate>
				</path>
				<path class="st15" d="m236.7 297.2-8.7-1.6c-0.7-0.1-1.3 0.3-1.5 1-0.1 0.7 0.3 1.3 1 1.5l8.7 1.6c0.7 0.1 1.3-0.3 1.5-1 0.1-0.8-0.3-1.4-1-1.5z">
<animate fill="remove" accumulate="none" additive="replace" attributeName="opacity" begin="0s" calcMode="linear" dur="10s" keyTimes="0;0.5;1" repeatCount="indefinite" restart="always" values="1;0.2;1">
						</animate>
				</path>
				<path class="st15" d="m229.3 301.6 4.5 0.8c1.3 0.2 2.6-0.7 2.9-2l-9.3-1.8c-0.3 1.4 0.6 2.8 1.9 3z">
<animate fill="remove" accumulate="none" additive="replace" attributeName="opacity" begin="0s" calcMode="linear" dur="10s" keyTimes="0;0.5;1" repeatCount="indefinite" restart="always" values="1;0.2;1">
						</animate>
				</path>
				<path class="st15" d="m239.4 260.2c-7.7-1.5-15.1 3.6-16.5 11.3-1.1 5.7 1.5 11.3 5.9 14.3l-0.8 4.2c-0.1 0.9 0.4 1.7 1.2 1.8l8 1.5c0.9 0.1 1.7-0.4 1.8-1.2l0.8-4.2c5.3-1.2 9.7-5.5 10.8-11.2 1.5-7.7-3.5-15.1-11.2-16.5zm-0.7 26.2-0.7 3.7c-0.1 0.7-0.7 1.3-1.4 1.2l-5.9-1.1c-0.7-0.1-1-0.8-0.9-1.6l0.7-3.7c-3.2-2.6-6.8-8-5.9-13 1.2-6.8 8.7-10.8 14.3-9.8s11 7.5 9.7 14.3c-0.7 4.9-5.9 8.7-9.9 10z">
<animate fill="remove" accumulate="none" additive="replace" attributeName="opacity" begin="0s" calcMode="linear" dur="10s" keyTimes="0;0.5;1" repeatCount="indefinite" restart="always" values="1;0.2;1">
						</animate>
				</path>
				<path class="st15" d="m482.7 227.6-12.2 1.2c-1 0.1-1.6 1-1.5 1.8 0.1 1 1 1.6 1.8 1.5l12.2-1.2c1-0.1 1.6-1 1.5-1.8-0.1-1-0.9-1.6-1.8-1.5z">
<animate fill="remove" accumulate="none" additive="replace" attributeName="opacity" begin="0s" calcMode="linear" dur="10s" keyTimes="0;0.5;1" repeatCount="indefinite" restart="always" values="1;0.2;1">
						</animate>
				</path>
				<path class="st15" d="m482.8 231.7-12.2 1.2c-1 0.1-1.6 1-1.5 1.8 0.1 1 1 1.6 1.8 1.5l12.2-1.2c1-0.1 1.6-1 1.5-1.8 0-0.9-0.9-1.5-1.8-1.5z">
<animate fill="remove" accumulate="none" additive="replace" attributeName="opacity" begin="0s" calcMode="linear" dur="10s" keyTimes="0;0.5;1" repeatCount="indefinite" restart="always" values="1;0.2;1">
						</animate>
				</path>
				<path class="st15" d="m474.6 240.5 6.2-0.6c1.9-0.2 3.2-1.8 3.1-3.7l-13 1.2c0.2 1.9 1.8 3.3 3.7 3.1z">
<animate fill="remove" accumulate="none" additive="replace" attributeName="opacity" begin="0s" calcMode="linear" dur="10s" keyTimes="0;0.5;1" repeatCount="indefinite" restart="always" values="1;0.2;1">
						</animate>
				</path>
				<path class="st15" d="m472 181.3c-10.8 1-18.6 10.7-17.6 21.4 0.8 8 6.3 14.4 13.5 16.7l0.6 6c0.1 1.2 1.2 2.1 2.4 2l11.3-1.1c1.2-0.1 2-1.2 2-2.4l-0.6-6c6.6-3.7 10.8-11 10-19-1.2-10.8-10.8-18.7-21.6-17.6zm9.2 35.2 0.5 5.3c0.1 1.1-0.5 2-1.4 2.1l-8.3 0.8c-0.9 0.1-1.7-0.7-1.8-1.8l-0.5-5.3c-5.3-2.2-12.1-8-12.8-15.1-1-9.6 7.5-17.8 15.4-18.6s17.6 5.7 18.5 15.3c0.7 7.1-4.8 14.2-9.6 17.3z">
<animate fill="remove" accumulate="none" additive="replace" attributeName="opacity" begin="0s" calcMode="linear" dur="10s" keyTimes="0;0.5;1" repeatCount="indefinite" restart="always" values="1;0.2;1">
						</animate>
				</path>
			<g class="st23">
				<path class="st15" d="m20.6 106.2-11.1-4.4c-0.8-0.4-1.8 0.1-2.1 0.9-0.4 0.8 0.1 1.8 0.9 2.1l11.1 4.4c0.8 0.4 1.8-0.1 2.1-0.9 0.4-0.8 0-1.7-0.9-2.1z">
<animate fill="remove" accumulate="none" additive="replace" attributeName="opacity" begin="0s" calcMode="linear" dur="10s" keyTimes="0;0.5;1" repeatCount="indefinite" restart="always" values="1;0.2;1">
						</animate>
				</path>
				<path class="st15" d="m19 109.8-11.1-4.4c-0.8-0.4-1.8 0.1-2.1 0.9-0.4 0.8 0.1 1.8 0.9 2.1l11.1 4.4c0.8 0.4 1.8-0.1 2.1-0.9s-0.1-1.8-0.9-2.1z">
<animate fill="remove" accumulate="none" additive="replace" attributeName="opacity" begin="0s" calcMode="linear" dur="10s" keyTimes="0;0.5;1" repeatCount="indefinite" restart="always" values="1;0.2;1">
						</animate>
				</path>
				<path class="st15" d="m8 113.7 5.7 2.2c1.7 0.6 3.7-0.2 4.3-1.8l-11.8-4.7c-0.7 1.7 0.2 3.6 1.8 4.3z">
<animate fill="remove" accumulate="none" additive="replace" attributeName="opacity" begin="0s" calcMode="linear" dur="10s" keyTimes="0;0.5;1" repeatCount="indefinite" restart="always" values="1;0.2;1">
						</animate>
				</path>
				<path class="st15" d="m31.6 61.9c-9.8-3.8-20.7 0.9-24.6 10.6-2.8 7.2-0.9 15.1 4.3 20.2l-2.1 5.4c-0.5 1.1 0.1 2.3 1.2 2.7l10.2 4c1.1 0.5 2.3-0.1 2.7-1.2l2.1-5.4c7.3-0.3 14.1-4.8 16.9-11.9 4-9.6-0.9-20.5-10.7-24.4zm-7.4 34.2-1.8 4.8c-0.4 1-1.4 1.5-2.1 1.2l-7.5-2.9c-0.8-0.3-1.2-1.4-0.7-2.3l1.8-4.8c-3.7-4.2-7-12.2-4.5-18.6 3.4-8.6 14.2-12 21.3-9.1 7.1 2.8 12.7 12.6 9.3 21.2-2.4 6.3-10.2 9.9-15.8 10.5z">
<animate fill="remove" accumulate="none" additive="replace" attributeName="opacity" begin="0s" calcMode="linear" dur="10s" keyTimes="0;0.5;1" repeatCount="indefinite" restart="always" values="1;0.2;1">
						</animate>
				</path>
			</g>
				<path class="st15" d="m124.1 261.2h-9.1c-0.7 0-1.2 0.6-1.2 1.2 0 0.7 0.6 1.2 1.2 1.2h9.1c0.7 0 1.2-0.6 1.2-1.2 0.1-0.6-0.4-1.2-1.2-1.2z">
<animate fill="remove" accumulate="none" additive="replace" attributeName="opacity" begin="0s" calcMode="linear" dur="10s" keyTimes="0;0.5;1" repeatCount="indefinite" restart="always" values="1;0.2;1">
						</animate>
				</path>
				<path class="st15" d="m124 264.3h-9.2c-0.7 0-1.2 0.6-1.2 1.2 0 0.7 0.6 1.2 1.2 1.2h9.1c0.7 0 1.2-0.6 1.2-1.2 0.1-0.6-0.5-1.2-1.1-1.2z">
<animate fill="remove" accumulate="none" additive="replace" attributeName="opacity" begin="0s" calcMode="linear" dur="10s" keyTimes="0;0.5;1" repeatCount="indefinite" restart="always" values="1;0.2;1">
						</animate>
				</path>
				<path class="st15" d="m117.2 270.2h4.7c1.4 0 2.6-1.2 2.6-2.6h-9.8c0 1.5 1.1 2.6 2.5 2.6z">
<animate fill="remove" accumulate="none" additive="replace" attributeName="opacity" begin="0s" calcMode="linear" dur="10s" keyTimes="0;0.5;1" repeatCount="indefinite" restart="always" values="1;0.2;1">
						</animate>
				</path>
				<path class="st15" d="m119.6 226.1c-8.1 0-14.6 6.6-14.6 14.6 0 6 3.7 11.2 8.8 13.5v4.5c0 0.9 0.7 1.6 1.6 1.6h8.5c0.9 0 1.6-0.7 1.6-1.6v-4.5c5.2-2.3 8.8-7.4 8.8-13.5-0.1-8.1-6.7-14.6-14.7-14.6zm4.3 26.8v3.9c0 0.8-0.5 1.5-1.2 1.5h-6.2c-0.7 0-1.2-0.7-1.2-1.5v-3.9c-3.8-2-8.4-6.9-8.4-12.1 0-7.2 6.8-12.7 12.7-12.7s12.7 5.6 12.7 12.7c-0.1 5.3-4.7 10.1-8.4 12.1z">
<animate fill="remove" accumulate="none" additive="replace" attributeName="opacity" begin="0s" calcMode="linear" dur="10s" keyTimes="0;0.5;1" repeatCount="indefinite" restart="always" values="1;0.2;1">
						</animate>
				</path>
			<g class="st24">
				<path class="st15" d="m618.1 273.3-9.3-2.4c-0.7-0.2-1.5 0.2-1.6 1-0.1 0.7 0.2 1.5 1 1.6l9.3 2.4c0.7 0.2 1.5-0.2 1.6-1 0.1-0.7-0.3-1.4-1-1.6z">
<animate fill="remove" accumulate="none" additive="replace" attributeName="opacity" begin="0s" calcMode="linear" dur="10s" keyTimes="0;0.5;1" repeatCount="indefinite" restart="always" values="1;0.2;1">
						</animate>
				</path>
				<path class="st15" d="m617 276.4-9.3-2.4c-0.7-0.2-1.5 0.2-1.6 1s0.2 1.5 1 1.6l9.3 2.4c0.7 0.2 1.5-0.2 1.6-1 0.2-0.7-0.2-1.4-1-1.6z">
<animate fill="remove" accumulate="none" additive="replace" attributeName="opacity" begin="0s" calcMode="linear" dur="10s" keyTimes="0;0.5;1" repeatCount="indefinite" restart="always" values="1;0.2;1">
						</animate>
				</path>
				<path class="st15" d="m608.7 280.7 4.8 1.2c1.4 0.4 2.9-0.5 3.2-1.9l-9.9-2.6c-0.4 1.4 0.5 2.9 1.9 3.3z">
<animate fill="remove" accumulate="none" additive="replace" attributeName="opacity" begin="0s" calcMode="linear" dur="10s" keyTimes="0;0.5;1" repeatCount="indefinite" restart="always" values="1;0.2;1">
						</animate>
				</path>
				<path class="st15" d="m622.5 236.6c-8.2-2.1-16.5 2.9-18.6 11-1.5 6.1 0.8 12.2 5.4 15.9l-1.2 4.5c-0.2 1 0.3 1.8 1.2 2l8.6 2.2c1 0.2 1.8-0.3 2-1.2l1.2-4.5c5.9-1 10.8-5.2 12.4-11.3 2.2-8.3-2.8-16.6-11-18.6zm-2.5 28.2-1 4c-0.2 0.8-1 1.3-1.6 1.2l-6.3-1.6c-0.7-0.1-1-1-0.8-1.8l1-4c-3.3-3-6.8-9.1-5.4-14.5 1.8-7.2 10.2-11 16.2-9.6 6 1.5 11.4 8.8 9.5 16.2-1.4 5.3-7.3 9.1-11.6 10.1z">
<animate fill="remove" accumulate="none" additive="replace" attributeName="opacity" begin="0s" calcMode="linear" dur="10s" keyTimes="0;0.5;1" repeatCount="indefinite" restart="always" values="1;0.2;1">
						</animate>
				</path>
			</g>
		<path class="st25" d="m361.3 402.1c50.8 0 91.9-1.7 91.9-3.8s-41.1-3.8-91.9-3.8-91.9 1.7-91.9 3.8 41.1 3.8 91.9 3.8z"/>
		<path class="st26" d="m372 248.5c0.1 0.6 0.3 1.5 0.8 2.5 0.2 0.3 0.4 0.9 0.9 1.5 1 1.2 1.7 1.2 2.6 2.4 0.4 0.6 0.7 1 0.8 1.4 0.8 1.8 0.7 3.5 0.5 4.6-0.1 1.3-0.4 3.3-1.8 5.3-1.5 2-3.4 2.7-4.8 3.1-2.7 1-5 0.8-7.4 0.7-3-0.2-5-0.4-7-1.8-2.4-1.6-3.4-3.8-3.8-4.8-0.8-1.8-1.7-5.3-0.5-6.4 0.2-0.2 0.5-0.4 0.8-0.9 0.5-0.8 0.6-1.6 0.7-1.9 0.1-0.9 0.6-2.2 2.4-4.3 0.1-1.8 0.2-3.5 0.4-5.3 5.1 1.3 10.3 2.6 15.4 3.9z">
<animateTransform fill="remove" accumulate="none" additive="replace" attributeName="transform" attributeType="XML" calcMode="linear" dur="3s" repeatCount="indefinite" restart="always" type="translate" values="0,0;0,-15;0,0">
				</animateTransform>
		</path>
		<path class="st26" d="m372 244.9v4.7l-15.1-4.7">
<animateTransform fill="remove" accumulate="none" additive="replace" attributeName="transform" attributeType="XML" calcMode="linear" dur="3s" repeatCount="indefinite" restart="always" type="translate" values="0,0;0,-15;0,0">
				</animateTransform>
		</path>
		<path class="st27" d="m357.2 248.4c1.7 0.8 8.9 4.3 14.8 0.1 1.4-1 3.2-2.3 3-3.7-0.5-3.3-12.2-6-17.5-1.8-0.5 0.4-2.6 2-2.3 3.6 0.2 0.9 1.1 1.4 2 1.8z">
<animateTransform fill="remove" accumulate="none" additive="replace" attributeName="transform" attributeType="XML" calcMode="linear" dur="3s" repeatCount="indefinite" restart="always" type="translate" values="0,0;0,-15;0,0">
				</animateTransform>
		</path>
		<path class="st26" d="m323.7 343c2.4-1-3.3-11.2-2.2-29.3 0.4-6.5 1.5-11.2-0.9-12.7s-7.1 0.7-9.7 3.9c-5.5 7-0.3 19 1.6 23.5 3.2 7.3 9 15.5 11.2 14.6z">
<animateTransform fill="remove" accumulate="none" additive="replace" attributeName="transform" attributeType="XML" calcMode="linear" dur="3s" repeatCount="indefinite" restart="always" type="translate" values="0,0;0,-15;0,0">
				</animateTransform>
		</path>
		<path class="st26" d="m404.1 343c-2.4-1 3.3-11.2 2.2-29.3-0.4-6.5-1.5-11.2 0.9-12.7s7.1 0.7 9.7 3.9c5.5 7 0.3 19-1.6 23.5-3.2 7.3-9 15.5-11.2 14.6z">
<animateTransform fill="remove" accumulate="none" additive="replace" attributeName="transform" attributeType="XML" calcMode="linear" dur="3s" repeatCount="indefinite" restart="always" type="translate" values="0,0;0,-15;0,0">
				</animateTransform>
		</path>
		<path class="st28" d="m349.7 233.5c-2.9 1.6-0.9 8.6-4.4 10.2-1 0.5-1.4 0-2.5 0.4-3.2 1.5-5.5 9.1-1.8 12.7 3.2 3.2 9.2 1.7 12.2-0.9 0.3-0.3 3-2.5 3.6-6 0.4-2.2-0.3-2.8 0.1-5.2 0.5-3.1 2.2-3.5 2.2-5.3-0.2-3.4-6.6-7.4-9.4-5.9z">
<animateTransform fill="remove" accumulate="none" additive="replace" attributeName="transform" attributeType="XML" calcMode="linear" dur="3s" repeatCount="indefinite" restart="always" type="translate" values="0,0;0,-15;0,0">
				</animateTransform>
		</path>
		<path class="st28" d="m371.9 245.4c-0.6 1.6-0.2 3.2 0.1 4.2 0.2 0.9 0.7 2.7 2.3 3.9 0.7 0.5 1.3 0.7 1.9 0.9 3.6 1.1 4.6 0.6 7.2 1.1 2.3 0.5 5.3 0.7 7.6 2.7 1.3 1.2 1.4 2.1 1.8 2 1.2-0.3 2-8.6-2.1-14.9-1.8-2.8-2.6-2.3-4.8-5.4-3.9-5.5-3.6-11.1-4.7-11-0.8 0-0.5 3.1-2.7 7.8-0.9 1.9-1.4 3-2.5 4.3-1.9 2.3-3.4 2.4-4.1 4.4z">
<animateTransform fill="remove" accumulate="none" additive="replace" attributeName="transform" attributeType="XML" calcMode="linear" dur="3s" repeatCount="indefinite" restart="always" type="translate" values="0,0;0,-15;0,0">
				</animateTransform>
		</path>
		<path class="st29" d="m387.3 256c1.3 1.1 3.3 2.9 4.6 5.7 0.4 0.9 1.2 2.9 1.4 10.1 0.1 2.8 0.1 6.1-0.3 10.6-0.5 4.9-0.7 8-2.2 11.9 0 0-1.4 3.8-3.5 6.8-8.5 12.4-45.5 10.8-49.4 0.2-0.3-0.8-0.1-0.9-1.4-7.1-1.4-7.1-1.8-7.5-2.2-9.9-1.6-9.2 0.5-16.9 1.2-19.1 1.1-3.8 2.7-6.9 4.1-9.3 1.9-0.9 4.5-1.8 7.7-2.4 3.4-0.6 7.2-1.7 7.8-0.5 0.6 1-2.2 2.6-2.5 6.1 0 0-0.2 1.9 0.6 3.9 1.8 4.5 8.3 7 13.7 6.3 1.2-0.2 7.7-1.2 9.4-6 0.8-2.3 0.7-5.7-1-8.1-0.9-1.2-1.8-1.7-1.6-2.1 0.5-1.1 7.3 0.9 7.9 1 2.5 0.5 4.4 1.3 5.7 1.9z">
<animateTransform fill="remove" accumulate="none" additive="replace" attributeName="transform" attributeType="XML" calcMode="linear" dur="3s" repeatCount="indefinite" restart="always" type="translate" values="0,0;0,-15;0,0">
				</animateTransform>
		</path>
		<path class="st26" d="m355.8 206c-1.6 0.7-4.5 2.4-6.6 5.8-2.7 4.4-2.3 9.1-2.2 10.7 0.3 3.2 1.6 7.7 2.2 9.7 0.1 0.3 0.1 0.4 0.2 0.6 1.1 3.7 2.6 8.7 7.2 11.8 0.9 0.6 3.9 2.6 8.2 2.5 4.1-0.1 6.9-2.1 8.2-3 3.9-2.8 5.5-6.7 6.6-9.4 1.8-4.6 1.9-8.4 1.9-9.6 0 0 0-3.5-0.9-6.4-2-6.2-11.9-11.5-24.8-12.7z">
<animateTransform fill="remove" accumulate="none" additive="replace" attributeName="transform" attributeType="XML" calcMode="linear" dur="3s" repeatCount="indefinite" restart="always" type="translate" values="0,0;0,-15;0,0">
				</animateTransform>
		</path>
		<path class="st26" d="m349.4 376.5c6.7 5.3 12.7 8.7 16.5 9.9 2.2 0.7 4.2 1.1 4.2 1.1 2.4 0.5 3.5 0.4 6.7 0.7 3.6 0.3 3.3 0.5 8.1 1 4.1 0.4 6.1 0.7 6.7 0.5 5-1.1 10.5-7.7 8.5-13.2-1.1-3-4.3-5.2-7.4-5.5-3.8-0.3-5.3 2.4-10.6 4.3-4.7 1.7-8.8 1.3-11.7 1.1-8.5-0.7-14.9-4.7-18-7.1-3 2.2-4 5.1-3.1 6.6 0.1 0.2 0.7 1 2.5 1.2">
<animateTransform fill="remove" accumulate="none" additive="replace" attributeName="transform" attributeType="XML" calcMode="linear" dur="3s" repeatCount="indefinite" restart="always" type="translate" values="0,0;0,-15;0,0">
				</animateTransform>
		</path>
		<path class="st30" d="m400.5 377.3c1.4 4.3-2.1 9-5.4 11.1-2.7 1.7-5.3 1.6-9.8 1.6-5.8-0.1-10.3-1.5-10.2-1.7 0-0.2 2.7 0.7 5.8-0.5 2.5-1 4.9-3.3 5.9-6.1 1.5-4.5-1.6-7.3-0.1-9 2.1-2.7 11.9-1.3 13.8 4.6z">
<animateTransform fill="remove" accumulate="none" additive="replace" attributeName="transform" attributeType="XML" calcMode="linear" dur="3s" repeatCount="indefinite" restart="always" type="translate" values="0,0;0,-15;0,0">
				</animateTransform>
		</path>
		<path class="st31" d="m380.6 228.7s-1.3-2.2-3.6-4.3c-1.2-1.1-2.5-1.8-5.1-3.1-4.4-2.1-6.4-2.9-8-3.7-4.8-2.3-7.1-4-9.1-6.5-0.5-0.4-0.8-0.6-1-1-0.6-1.6 1.9-4.1 3-4.9 6.3-4.3 26.7 7 26.8 18 0 2.6-1.1 7-2 7-0.3 0-0.5-0.5-1-1.5z">
<animateTransform fill="remove" accumulate="none" additive="replace" attributeName="transform" attributeType="XML" calcMode="linear" dur="3s" repeatCount="indefinite" restart="always" type="translate" values="0,0;0,-15;0,0">
				</animateTransform>
		</path>
		<path class="st31" d="m345.8 218.7c0.3 0.1 1.4-1.1 3.6-3.5 1.6-1.8 2-2.4 3-3 1.3-0.8 2.6-1 3.9-1.2 3.2-0.4 4.3 0.3 4.8-0.2 1.3-1.6-4.7-11.8-9.3-11-5.7 0.8-7.5 18.3-6 18.9z">
<animateTransform fill="remove" accumulate="none" additive="replace" attributeName="transform" attributeType="XML" calcMode="linear" dur="3s" repeatCount="indefinite" restart="always" type="translate" values="0,0;0,-15;0,0">
				</animateTransform>
		</path>
		<path class="st30" d="m363.4 187.7c-4.3 0.8-7.3 3.3-9.2 4.9-0.7 0.6-0.2 0.3-3.2 3.1-2.3 2.2-3.4 3.2-4.4 4.1-3.8 3.2-4 2.3-5.3 4 0 0-2.6 3.4-2.3 8.1 0.2 2.1 0.8 2.1 1.6 5.2 0.7 2.7 1.6 6.4 0.3 9.8-1.1 2.6-2.2 1.9-4.7 5.7-1 1.6-2.7 4.2-2.9 8-0.1 1.3 0.2 2.8 0.7 5.6 0.9 5.1 1.5 4.9 1.3 6.8-0.1 1.7-0.8 4.4-2.3 7-0.7 1.3-1.4 2-1.1 2.7 0.5 1 3 1.3 4.8 0.5 3.1-1.2 4.2-5.1 4.8-7.3 1-3.4 0.3-4.5 1.5-7.5 0.6-1.5 0.9-1.3 2.9-4.5 2.6-4 4.5-6.9 3.9-10-0.1-0.4-0.1-0.2-0.4-1.3-0.8-2.5-1.2-4.9-1.4-8-0.3-4.9-0.4-7.4 0.4-9.6 1.6-4.5 5.2-7.1 7.4-8.7 4.4-3.2 5.8-2.1 8.4-4.7 4.4-4.4 5.3-12.4 2.8-14.1-0.9-0.3-1.8-0.1-3.6 0.2z">
<animateTransform fill="remove" accumulate="none" additive="replace" attributeName="transform" attributeType="XML" calcMode="linear" dur="3s" repeatCount="indefinite" restart="always" type="translate" values="0,0;0,-15;0,0">
				</animateTransform>
		</path>
		<path class="st30" d="m354.4 205.6c2.5 0.7 2 2.7 6.2 6.1 2.6 2.1 5.2 3.3 6.4 3.8 2.3 1 2.2 0.6 4.7 1.6 1 0.4 3.5 1.6 6.2 3.7 1.7 1.3 2.6 2 3 3.1 0.4 0.8 0.6 1.9 0.1 4.9-0.8 5.2-2.1 6.6-1.3 8.3 0.6 1.3 1.6 1.2 3.8 2.6 5.6 3.5 7.4 9.8 7.8 10.9 1.1 3.1-0.1 3.2 0.7 7.1 1 5.5 4 9.3 10.1 17.1 2.8 3.6 4.3 4.7 4.8 6.9 0.1 0.3 0.2 1.1 0.8 1.3 0.8 0.4 1.9-0.7 4.1-2.4s2.2-1.5 3.4-2.4c1.2-1 4.7-3.8 6.3-8.8 0.5-1.8 1.6-5.1 0.2-8.4-0.4-1-1.3-2.2-3.2-4.7-2.2-2.8-2.6-2.9-3.4-4.3-0.4-0.7-0.9-1.8-1.7-5.9-1-5.1-0.5-5.5-1.3-9-0.9-4-1.3-6-2.9-7.6-1.7-1.7-2.9-1.2-5.6-3.5-0.7-0.6-2.3-1.9-3.5-3.9-1.4-2.3-1.5-4.2-1.9-6.9-0.3-1.9-1.1-6.8-2-9.7-1.8-5.3-5.8-8.4-9-10.8-5.8-4.5-11.6-5.8-14.3-6.4-4.8-1-7.4-1.6-10.6-0.7-4.4 1.3-7.6 6.2-14.1 16.2-0.4 0.6-1.5 2.4-1 3 0.5 1.2 3.8-2.1 7.2-1.2z">
<animateTransform fill="remove" accumulate="none" additive="replace" attributeName="transform" attributeType="XML" calcMode="linear" dur="3s" repeatCount="indefinite" restart="always" type="translate" values="0,0;0,-15;0,0">
				</animateTransform>
		</path>
		<path class="st30" d="m390.7 294.2c-2.6-4-8-13.9-7-26.8 0.4-5.4 0.8-10 3.2-10.7 6-2 20 21.5 27.8 40.4 2.6 6.2 4.3 11.6 5.3 15.2-2.4 0.2-4.9 0.6-7.6 1.1-2.2 0.4-4.3 0.9-6.2 1.3-3.1-4.3-6.3-8.6-9.7-13-1.8-2.5-3.8-5-5.8-7.5z">
<animateTransform fill="remove" accumulate="none" additive="replace" attributeName="transform" attributeType="XML" calcMode="linear" dur="3s" repeatCount="indefinite" restart="always" type="translate" values="0,0;0,-15;0,0">
				</animateTransform>
		</path>
		<path class="st32" d="m337.2 295c4.5-10.9 6.3-20.1 7-26.8 0.6-5.7 1.2-11.9-1.3-13.1-3.8-1.7-12.3 9.3-13.4 10.7-2.1 2.8-4.3 6.5-8.5 14.1-1.6 2.9-3.1 5.5-5.1 9.3-5.2 10-6.5 14.1-7 15.7-0.9 3.1-1.4 5.8-1.7 7.5 2 0 4.6 0.2 7.6 0.8 2.7 0.6 5 1.5 6.8 2.3 3.1-4.3 6.3-8.6 9.7-13 2-2.6 4-5.1 5.9-7.5z">
<animateTransform fill="remove" accumulate="none" additive="replace" attributeName="transform" attributeType="XML" calcMode="linear" dur="3s" repeatCount="indefinite" restart="always" type="translate" values="0,0;0,-15;0,0">
				</animateTransform>
		</path>
		<path class="st26" d="m380.2 381.7c-6.4 2.8-11.7 4.2-15.3 4.9-1.9 0.4-3.8 0.6-7.6 1.2-4.8 0.7-8.2 1.1-10.8 1.3-5.6 0.6-8.4 0.8-10.3 0.4-2.1-0.5-6.7-1.6-8.4-5.6-1.1-2.6-0.9-5.9 0.9-8.2 3-3.9 9.7-3.4 13-2.4 0.9 0.3 2.3 0.8 5.2 1.7s3.7 1 4.3 1.1c2 0.3 3.6 0.2 5.3 0.2 0.2 0 2.9-0.2 5.6-0.7 6.2-1.3 11.9-4.7 13.5-5.7l4.6 11.8z">
<animateTransform fill="remove" accumulate="none" additive="replace" attributeName="transform" attributeType="XML" calcMode="linear" dur="3s" repeatCount="indefinite" restart="always" type="translate" values="0,0;0,-15;0,0">
				</animateTransform>
		</path>
		<path class="st30" d="m345.8 374.6c-0.4 0.2-4 2.4-4.2 5.9-0.1 3.8 3.9 8.7 9.6 8-3.5 0.4-2.3 0.3-5.4 0.9-1.1 0.2-5.5 0.4-7.6 0.2-1.3-0.1-2.4-0.3-3.3-0.6-0.9-0.2-2.2-0.6-3.5-1.4-1.1-0.7-1.9-1.4-2.4-2-0.4-0.5-1.1-1.5-1.4-2.8-0.4-1.3-0.3-2.3-0.3-2.9 0-1 0.3-3.2 1.9-5.3 0.9-1.2 1.8-1.8 2.3-2.2 0.8-0.6 1.3-0.9 2.1-1 1-0.2 1.3 0.3 2.8 0.4 1.5 0.2 1.6-0.2 3-0.1 0.9 0.1 1.7 0.4 3.2 1.1 0.8 0.5 1.9 1.1 3.2 1.8z">
<animateTransform fill="remove" accumulate="none" additive="replace" attributeName="transform" attributeType="XML" calcMode="linear" dur="3s" repeatCount="indefinite" restart="always" type="translate" values="0,0;0,-15;0,0">
				</animateTransform>
		</path>
		<path class="st33" d="m350.2 375.9c-1.2-0.2-3.1-0.5-5.2-1.2s-2.3-1.1-3.8-1.6c-1.2-0.4-4.9-1.7-8.6-0.2-0.9 0.4-2.9 1.3-4.6 3.7-1.8-0.4-4.6-1-7.9-2-6-1.8-10.3-4-17-7.3-2.1-1-4.7-2.4-9.8-5.2-5-2.7-10-5.5-12.2-10.2-0.2-0.4-0.4-0.9-0.5-1-0.9-2.2-2.3-5.9-1.1-9.3 1-2.9 3.5-4.3 4.6-4.9 2.6-1.5 5.2-1.7 8.4-1.7 4.3 0 11.3 0 20 2.2 3.6 0.9 6.8 2 10 3.7 0 0 1 0.6 2.1 1.2 4.1 2.5 14.5 12.6 27.7 27">
<animateTransform fill="remove" accumulate="none" additive="replace" attributeName="transform" attributeType="XML" calcMode="linear" dur="3s" repeatCount="indefinite" restart="always" type="translate" values="0,0;0,-15;0,0">
				</animateTransform>
		</path>
		<path class="st15" d="m323.9 351.9-3.6-50.7h87.3l-4.2 52.2-15.2 9.8h-47.8l-16.5-11.3z">
<animateTransform fill="remove" accumulate="none" additive="replace" attributeName="transform" attributeType="XML" calcMode="linear" dur="3s" repeatCount="indefinite" restart="always" type="translate" values="0,0;0,-15;0,0">
				</animateTransform>
		</path>
		<path class="st34" d="m335.3 359.7c19.6-0.1 39.2-0.1 58.8-0.2-1.9 1.3-3.9 2.5-5.8 3.8h-47.8c-1.8-1.2-3.5-2.4-5.2-3.6z">
<animateTransform fill="remove" accumulate="none" additive="replace" attributeName="transform" attributeType="XML" calcMode="linear" dur="3s" repeatCount="indefinite" restart="always" type="translate" values="0,0;0,-15;0,0">
				</animateTransform>
		</path>
		<path class="st34" d="m363.1 337.1c3.6 0 6.6-2.9 6.6-6.6s-3-6.6-6.6-6.6-6.6 2.9-6.6 6.6 3 6.6 6.6 6.6z">
<animateTransform fill="remove" accumulate="none" additive="replace" attributeName="transform" attributeType="XML" calcMode="linear" dur="3s" repeatCount="indefinite" restart="always" type="translate" values="0,0;0,-15;0,0">
				</animateTransform>
		</path>
		<path class="st33" d="m380.5 381.6c2.4 0 5.2-0.3 8.2-0.8 3.6-0.7 6.3-1.6 11.8-3.5 3.6-1.2 6.3-2.3 7.9-2.9 3.3-1.3 5.9-2.4 6.9-2.8 4.1-1.8 5.6-2.6 14.4-6.9 8.1-4 8.4-4.1 9.7-5 3.3-2.3 7-5.1 8.6-10 0.5-1.5 1.7-5.4-0.1-9-2.2-4.3-7.4-5.4-11.8-6.3-9.6-1.9-17.5 0.4-19.4 1-10.3 3.2-16.8 9.3-29.4 21.5-5.4 5.2-9.6 9.8-12.4 13">
<animateTransform fill="remove" accumulate="none" additive="replace" attributeName="transform" attributeType="XML" calcMode="linear" dur="3s" repeatCount="indefinite" restart="always" type="translate" values="0,0;0,-15;0,0">
				</animateTransform>
		</path>
		<path class="st33" d="m364 375.3c-0.6-0.2-1.4-0.5-2.4-0.9-0.2-0.1-3.2-1.2-5.9-2.7-3.1-1.7-4.3-2.9-6.8-4.4-2.3-1.4-5.7-3.1-10.6-4.3 16.7 0 33.4 0 50.1-0.1-3.8 1.6-6.8 3.2-8.8 4.3-3.9 2.3-5.9 3.8-10.1 5.8-2.2 1.2-4.2 1.8-5.5 2.3z">
<animateTransform fill="remove" accumulate="none" additive="replace" attributeName="transform" attributeType="XML" calcMode="linear" dur="3s" repeatCount="indefinite" restart="always" type="translate" values="0,0;0,-15;0,0">
				</animateTransform>
		</path>
	<rect class="st35" x="44.1" y="-3.8" width="63.8" height="63.8"/>
	<path class="st15" d="m342.2 98.4h-4.9v-20.3h4.9v20.3zm16-8.6h-7.7v4.8h9.1v3.8h-14v-20.3h14v3.8h-9.1v4.3h7.7v3.6zm16 0h-7.7v4.8h9.1v3.8h-14v-20.3h14v3.8h-9.1v4.3h7.7v3.6zm16 0h-7.7v4.8h9.1v3.8h-14v-20.3h14v3.8h-9.1v4.3h7.7v3.6zm-174.9 34.5 2.3-12.7h4.9l-4.3 20.3h-5.1l-2.7-11.6-2.7 11.6h-5.1l-4.3-20.3h4.9l2.3 12.7 2.8-12.7h4.2l2.8 12.7zm26.3-2.2c0 2-0.4 3.7-1.1 5.3-0.7 1.5-1.8 2.7-3.1 3.5s-2.9 1.2-4.6 1.2-3.3-0.4-4.6-1.2-2.4-1.9-3.1-3.4-1.1-3.2-1.2-5.1v-1.1c0-2 0.4-3.7 1.1-5.3 0.7-1.5 1.8-2.7 3.1-3.5 1.4-0.8 2.9-1.2 4.7-1.2 1.7 0 3.3 0.4 4.6 1.2s2.4 2 3.1 3.5c0.8 1.5 1.1 3.2 1.1 5.2v0.9zm-5-0.8c0-2-0.3-3.5-1-4.6s-1.6-1.6-2.9-1.6c-2.5 0-3.8 1.8-3.9 5.5v1.5c0 2 0.3 3.5 1 4.6s1.6 1.6 2.9 1.6c1.2 0 2.2-0.5 2.9-1.6s1-2.6 1-4.5v-0.9zm14-9.7 4.5 14.1 4.5-14.1h6.4v20.3h-4.9v-4.7l0.5-9.7-4.9 14.4h-3.2l-4.9-14.5 0.5 9.7v4.7h-4.9v-20.3h6.4v0.1zm31.2 11.7h-7.7v4.8h9.1v3.8h-14v-20.3h14v3.8h-9.1v4.3h7.7v3.6zm20.3 8.6h-4.9l-7.2-12.6v12.6h-4.9v-20.3h4.9l7.2 12.6v-12.6h4.9v20.3zm15.4 0h-4.9v-20.3h4.9v20.3zm20.4 0h-4.9l-7.2-12.6v12.6h-4.9v-20.3h4.9l7.2 12.6v-12.6h4.9v20.3zm22.8-8.6h-7.7v4.8h9.1v3.8h-14v-20.3h14v3.8h-9.1v4.3h7.7v3.6zm20.3 8.6h-4.9l-7.2-12.6v12.6h-4.9v-20.3h4.9l7.2 12.6v-12.6h4.9v20.3zm19.8-2.5c-0.8 0.8-1.9 1.5-3.3 2-1.5 0.5-3 0.8-4.8 0.8-2.7 0-4.8-0.8-6.4-2.4s-2.4-3.9-2.6-6.8v-1.8c0-2 0.4-3.7 1.1-5.2s1.7-2.6 3-3.4 2.8-1.2 4.6-1.2c2.5 0 4.5 0.6 5.9 1.7 1.4 1.2 2.2 2.9 2.5 5.2h-4.8c-0.2-1.1-0.5-1.9-1.1-2.4s-1.3-0.7-2.4-0.7c-1.2 0-2.2 0.5-2.8 1.6-0.7 1-1 2.5-1 4.5v1.2c0 2 0.3 3.6 1 4.6s1.8 1.5 3.3 1.5c1.3 0 2.2-0.3 2.8-0.9v-3.2h-3.4v-3.5h8.3v8.4h0.1zm8 2.5h-4.9v-20.3h4.9v20.3zm20.4 0h-4.9l-7.2-12.6v12.6h-4.9v-20.3h4.9l7.2 12.6v-12.6h4.9v20.3zm15.7-8.6h-7.7v4.8h9.1v3.8h-14v-20.3h14v3.8h-9.1v4.3h7.7v3.6zm15.9 0h-7.7v4.8h9.1v3.8h-14v-20.3h14v3.8h-9.1v4.3h7.7v3.6zm11 1.4h-2.6v7.2h-4.9v-20.3h8c2.4 0 4.3 0.5 5.6 1.6 1.4 1.1 2 2.6 2 4.5 0 1.4-0.3 2.6-0.9 3.5s-1.5 1.7-2.7 2.3l4.2 8.2v0.2h-5.2l-3.5-7.2zm-2.7-3.8h3.1c0.9 0 1.6-0.2 2.1-0.7s0.7-1.2 0.7-2c0-0.9-0.2-1.6-0.7-2-0.5-0.5-1.2-0.8-2.1-0.8h-3.1v5.5zm19 11h-4.9v-20.3h4.9v20.3zm20.3 0h-4.9l-7.2-12.6v12.6h-4.9v-20.3h4.9l7.2 12.6v-12.6h4.9v20.3zm19.8-2.5c-0.8 0.8-1.9 1.5-3.3 2-1.5 0.5-3 0.8-4.8 0.8-2.7 0-4.8-0.8-6.4-2.4s-2.4-3.9-2.6-6.8v-1.8c0-2 0.4-3.7 1.1-5.2s1.7-2.6 3-3.4 2.8-1.2 4.6-1.2c2.5 0 4.5 0.6 5.9 1.7 1.4 1.2 2.2 2.9 2.5 5.2h-4.7c-0.2-1.1-0.5-1.9-1.1-2.4s-1.4-0.7-2.4-0.7c-1.2 0-2.2 0.5-2.8 1.6-0.7 1-1 2.5-1 4.5v1.2c0 2 0.3 3.6 1 4.6s1.8 1.5 3.3 1.5c1.3 0 2.2-0.3 2.8-0.9v-3.2h-3.4v-3.5h8.3v8.4zm-246.4 15.6 4.5 14.1 4.5-14.1h6.4v20.3h-4.9v-4.7l0.5-9.7-4.9 14.4h-3.2l-4.9-14.5 0.5 9.7v4.7h-4.9v-20.2h6.4zm23.8 20.3h-4.9v-20.3h4.9v20.3zm19-16.5h-6.1v16.5h-4.9v-16.5h-6v-3.8h17v3.8zm17.3-3.5 4.5 14.1 4.5-14.1h6.4v20.3h-4.9v-4.7l0.5-9.7-4.9 14.4h-3.2l-4.9-14.5 0.5 9.7v4.7h-4.9v-20.2h6.4zm30.4 16.5h-6.7l-1.2 3.8h-5.2l7.4-20.3h4.6l7.5 20.3h-5.3l-1.1-3.8zm-5.6-3.7h4.4l-2.2-7-2.2 7zm30.4 7.5h-4.9l-7.2-12.6v12.6h-4.9v-20.3h4.9l7.2 12.6v-12.6h4.9v20.3zm8.4 0h-4.9v-20.3h4.9v20.3zm8.3-6.9v6.9h-4.9v-20.3h8.1c1.6 0 2.9 0.3 4.1 0.9s2.1 1.4 2.8 2.4c0.7 1.1 1 2.2 1 3.6 0 2-0.7 3.6-2.1 4.8s-3.4 1.8-5.8 1.8h-3.2v-0.1zm0-3.7h3.2c0.9 0 1.7-0.2 2.2-0.7s0.8-1.1 0.8-2-0.3-1.7-0.8-2.3-1.2-0.9-2.1-0.9h-3.3v5.9zm22.7 6.8h-6.7l-1.2 3.8h-5.2l7.4-20.3h4.6l7.5 20.3h-5.2l-1.2-3.8zm-5.5-3.7h4.4l-2.2-7-2.2 7zm18.3 3.8h8.5v3.8h-13.4v-20.4h4.9v16.6z"/>
</svg>
