<?xml version="1.0" encoding="utf-8"?>
<!-- Generator: Adobe Illustrator 24.2.0, SVG Export Plug-In . SVG Version: 6.00 Build 0)  -->
<svg version="1.1" id="Layer_1" xmlns="http://www.w3.org/2000/svg" xmlns:xlink="http://www.w3.org/1999/xlink" x="0px" y="0px"
	 viewBox="0 0 734.1 406.7" style="enable-background:new 0 0 734.1 406.7;" xml:space="preserve">
<style type="text/css">
	.st0{fill:url(#SVGID_1_);}
	.st1{opacity:0.8;fill:#FFFFFF;enable-background:new    ;}
	.st2{opacity:0.28;fill:#FFFFFF;enable-background:new    ;}
	.st3{opacity:0.33;fill:#FFFFFF;enable-background:new    ;}
	.st4{opacity:0.16;fill:#FFFFFF;enable-background:new    ;}
	.st5{fill:none;stroke:#FFFFFF;stroke-width:1;stroke-miterlimit:9.9991;}
	.st6{fill:none;stroke:#FFFFFF;stroke-miterlimit:9.9994;}
	.st7{fill:none;stroke:#FFFFFF;stroke-miterlimit:10;}
	.st8{fill:none;stroke:#FFFFFF;stroke-miterlimit:10.0002;}
	.st9{opacity:0.23;fill:#FFFFFF;enable-background:new    ;}
	.st10{font-family:'ArialMT';}
	.st11{font-size:19.7719px;}
	.st12{font-size:41.4877px;}
	.st13{font-size:19.7723px;}
	.st14{opacity:0.4;}
	.st15{fill:#FFFFFF;}
	.st16{font-size:16.9679px;}
	.st17{opacity:0.6;fill:#FFFFFF;enable-background:new    ;}
	.st18{font-size:19.7717px;}
	.st19{font-size:14.1425px;}
	.st20{font-size:41.1715px;}
	.st21{opacity:0.83;}
	.st22{opacity:0.6;}
	.st23{opacity:0.48;}
	.st24{opacity:0.64;}
	.st25{fill:#E6E6E6;}
	.st26{fill:#FBCC98;}
	.st27{fill:#E3AD6F;}
	.st28{fill:#0A0809;}
	.st29{fill:#2B272D;}
	.st30{fill:#231F20;}
	.st31{fill:#E8AF7A;}
	.st32{fill:#0E0C0D;}
	.st33{fill:#AE1AAF;}
	.st34{fill:#A8A39E;}
	.st35{fill:none;}
</style>
<g id="Layer_1_1_">
</g>
<g id="Layer_2_2_">
	
		<linearGradient id="SVGID_1_" gradientUnits="userSpaceOnUse" x1="369.4384" y1="258.4818" x2="369.4384" y2="613.6818" gradientTransform="matrix(1 0 0 1 8.410366e-06 -257.7819)">
		<stop  offset="0" style="stop-color:#BC14B8"/>
		<stop  offset="0.974" style="stop-color:#752F8B"/>
	</linearGradient>
	<path class="st0" d="M504.9,344.3c-21.6,7.1-81,7-109.8,5l-92.4,6.6l-23.4-4.3c-8.1-1.1-25.7-5.2-31.9-12.4
		c-4.8-5.6-14.4-11.2-35-12c-23.2-1-32.9,2.7-46,4c-20.8,2.1-41.9-4-55.1-16.8c-1.4-1.5-2.6-2.3-5.1-7.3c-1.5-2.9-5.5-14.5-7.7-18.2
		c-2.6-4.3-6.8-10-25.2-12.4c-11.1-1.5-23.8,2.1-32.4-4.4c-9.3-6.9-9.3-10.9-23.7-12.2c-17.1-1.5-17.8-8.1-18.5-11.6V0.7H736
		l4.1,183.5c0,0,1.6,0.6-9.8,3.8c-14.4,4-34.5,4.2-51.5,8.8c-11.8,3.2-23.1,7.3-26,16.4c-3.4,10.9,10.3,24.9,0,40
		c-10.3,15.1-22.1,18-66.9,21.4c-24.2,1.8-46.6,18.6-49.1,30.6C533,323.1,533.2,335,504.9,344.3z"/>
	<g id="Layer_2_1_">
		<g>
			<path class="st1" d="M194.5,266h-1.9c-0.3-3-1.6-5.8-3.5-8l1.3-1.5c0.4-0.4,0.4-1.1-0.1-1.5l-2-1.8c-0.4-0.4-1.1-0.4-1.5,0.1
				l-1.5,1.8c-1.3-0.7-2.8-1.2-4.3-1.5v-2.3c0-0.6-0.5-1-1.1-1h-2.6c-0.6,0-1.1,0.4-1.1,1v2.3c-2.2,0.4-4.3,1.3-6,2.6l-1.5-1.4
				c-0.4-0.4-1.1-0.4-1.5,0.1l-1.8,2c-0.4,0.4-0.4,1.1,0.1,1.5l1.5,1.4c-1.2,1.8-2,3.8-2.3,6l-2.4-0.1c-0.6,0-1.1,0.4-1.1,1v2.6
				c0,0.6,0.4,1.1,1,1.1l2.6,0.1c0.4,1.9,1.2,3.6,2.2,5.1l-1.7,1.9c-0.4,0.4-0.4,1.1,0.1,1.5l2,1.8c0.4,0.4,1.1,0.4,1.5-0.1l1.5-1.7
				c1.7,1.2,3.7,2.1,5.9,2.5v2.3c0,0.6,0.5,1,1.1,1h2.6c0.6,0,1.1-0.4,1.1-1v-2.3c2.4-0.4,4.5-1.4,6.4-2.9l1.8,1.6
				c0.4,0.4,1.1,0.4,1.5-0.1l1.8-2c0.4-0.4,0.4-1.1-0.1-1.5l-1.8-1.7c0.8-1.3,1.4-2.7,1.8-4.2h2.1c0.6,0,1.1-0.4,1.1-1v-2.6
				C195.6,266.4,195.1,266,194.5,266z M179.5,276.6c-5.9,0.6-10.8-4.3-10.2-10.2c0.4-4.4,3.9-7.9,8.3-8.3
				c5.9-0.6,10.8,4.3,10.2,10.2C187.4,272.7,183.9,276.2,179.5,276.6z			">
<animateTransform  accumulate="none" additive="replace" attributeName="transform" attributeType="XML" calcMode="linear" dur="6s" fill="remove" from="0 178.57 267.23" repeatCount="indefinite" restart="always" to="360 178.57 267.23" type="rotate">
					</animateTransform>
			</path>
			<path class="st2" d="M616,127.8l-3.7-0.1c-0.2-1.8-0.6-3.5-1.1-5.2c-0.5-1.5-1.4-3.9-3-6.4c-1-1.5-2-2.7-2.7-3.6
				c0.9-1,1.7-1.9,2.6-2.9c0.7-0.8,0.7-2.1-0.1-2.9l-3.8-3.4c-0.8-0.7-2.1-0.7-2.9,0.1l-3,3.3c-2.6-1.4-5.3-2.3-8.3-2.9v-4.3
				c0-1.1-0.9-2-2-2h-5.1c-1.1,0-2,0.9-2,2v4.3c-4.2,0.7-8.2,2.5-11.6,5l-2.9-2.7c-0.8-0.7-2.1-0.7-2.9,0.1l-3.4,3.7
				c-0.7,0.8-0.7,2.1,0.1,2.9l2.9,2.6c-2.3,3.4-3.7,7.2-4.3,11.4l-4.6-0.1c-1.1,0-2,0.9-2,2l-0.1,5.1c0,1.1,0.9,2,2,2l5,0.1
				c0.7,3.6,2.2,6.9,4.2,9.8l-3.3,3.6c-0.7,0.8-0.7,2.1,0.1,2.9l3.8,3.4c0.8,0.7,2.1,0.7,2.9-0.1l2.9-3.2c3.3,2.3,7.1,4,11.2,4.8
				v4.3c0,1.1,0.9,2,2,2h5.1c1.1,0,2-0.9,2-2v-4.3c4.5-0.8,8.7-2.7,12.2-5.4l3.4,3.1c0.8,0.7,2.1,0.7,2.9-0.1l3.4-3.7
				c0.7-0.8,0.7-2.1-0.1-2.9l-3.5-3.2c1.5-2.5,2.7-5.2,3.4-8l4.1,0.1c1.1,0,2-0.9,2-2l0.1-5.1C618.1,128.7,617.2,127.8,616,127.8z
				 M585.5,148.4c-9.9,0-17.8-8-17.8-17.8s8-17.8,17.8-17.8c9.9,0,17.8,8,17.8,17.8S595.4,148.4,585.5,148.4z			">
<animateTransform  accumulate="none" additive="replace" attributeName="transform" attributeType="XML" calcMode="linear" dur="6s" fill="remove" from="0 585.74 130.68" repeatCount="indefinite" restart="always" to="360 585.74 130.68" type="rotate">
					</animateTransform>
			</path>
			<path class="st1" d="M246.9,218.1h-1.3c-0.2-2.1-1.1-4.1-2.5-5.6l1-1c0.3-0.3,0.2-0.8-0.1-1l-1.4-1.2c-0.3-0.3-0.8-0.2-1,0.1
				l-1.1,1.2c-1-0.5-2-0.9-3.1-1V208c0-0.4-0.4-0.7-0.7-0.7h-1.8c-0.4,0-0.7,0.4-0.7,0.7v1.6c-1.5,0.3-3,0.9-4.2,1.8l-1.1-1
				c-0.3-0.3-0.8-0.3-1,0.1l-1.2,1.4c-0.3,0.3-0.3,0.8,0.1,1l1,1c-0.8,1.2-1.4,2.6-1.6,4.2h-1.7c-0.4,0-0.7,0.3-0.7,0.7v1.9
				c0,0.4,0.3,0.7,0.7,0.7h1.8c0.3,1.3,0.8,2.5,1.5,3.6l-1.2,1.3c-0.3,0.3-0.2,0.8,0.1,1l1.4,1.2c0.3,0.3,0.8,0.2,1-0.1l1-1.2
				c1.2,0.9,2.6,1.5,4.1,1.8v1.6c0,0.4,0.4,0.7,0.7,0.7h1.8c0.4,0,0.7-0.4,0.7-0.7V229c1.7-0.3,3.2-1,4.5-2l1.2,1.2
				c0.3,0.3,0.8,0.3,1-0.1l1.2-1.4c0.3-0.3,0.3-0.8-0.1-1l-1.2-1.2c0.6-0.9,1-1.9,1.2-2.9h1.5c0.4,0,0.7-0.3,0.7-0.7V219
				C247.6,218.3,247.3,218.1,246.9,218.1z M236.6,225.5c-4.2,0.5-7.9-3.1-7.3-7.3c0.4-2.9,2.7-5.3,5.6-5.6c4.2-0.5,7.9,3.1,7.3,7.3
				C241.9,222.8,239.5,225.1,236.6,225.5z			">
<animateTransform  accumulate="none" additive="replace" attributeName="transform" attributeType="XML" calcMode="linear" dur="6s" fill="remove" from="0 235.75 219.05" repeatCount="indefinite" restart="always" to="360 235.75 219.05" type="rotate">
					</animateTransform>
			</path>
			<path class="st3" d="M167.3,102.1l-3.2-0.1c-0.5-5.2-2.7-9.8-6-13.5l2.3-2.6c0.7-0.7,0.6-1.9-0.1-2.6l-3.4-3
				c-0.7-0.7-1.9-0.6-2.6,0.1l-2.6,2.9c-2.3-1.2-4.8-2.1-7.3-2.6v-3.8c0-1-0.8-1.8-1.8-1.8H138c-1,0-1.8,0.8-1.8,1.8v3.8
				c-3.8,0.7-7.3,2.2-10.2,4.4l-2.6-2.4c-0.7-0.7-1.9-0.7-2.6,0.1l-3.1,3.3c-0.7,0.7-0.7,1.9,0.1,2.6l2.6,2.3c-2,3-3.4,6.4-3.8,10.1
				l-4.1-0.1c-1,0-1.8,0.8-1.8,1.8l-0.1,4.5c0,1,0.8,1.8,1.8,1.8l4.5,0.1c0.7,3.1,2,6.1,3.7,8.6l-2.9,3.2c-0.7,0.7-0.6,1.9,0.1,2.6
				l3.4,3c0.7,0.7,1.9,0.6,2.6-0.1l2.6-2.9c2.9,2.1,6.3,3.6,9.9,4.2v3.8c0,1,0.8,1.8,1.8,1.8h4.5c1,0,1.8-0.8,1.8-1.8V128
				c4-0.7,7.7-2.4,10.8-4.8l3,2.8c0.7,0.7,1.9,0.7,2.6-0.1l3.1-3.3c0.7-0.7,0.7-1.9-0.1-2.6l-3.1-2.9c1.4-2.2,2.4-4.6,3-7.2l3.7,0.1
				c1,0,1.8-0.8,1.8-1.8l0.1-4.5C169.2,102.9,168.4,102.1,167.3,102.1z M141.2,120.3c-9.4,0.4-17.1-7.2-16.6-16.6
				c0.4-8,6.9-14.6,15-15c9.4-0.5,17.1,7.2,16.6,16.6C155.7,113.4,149.2,120,141.2,120.3z			">
<animateTransform  accumulate="none" additive="replace" attributeName="transform" attributeType="XML" calcMode="linear" dur="6s" fill="remove" from="0 140.58 104.38" repeatCount="indefinite" restart="always" to="360 140.58 104.38" type="rotate">
					</animateTransform>
			</path>
			<path class="st4" d="M584.5,287.6l-6.8-0.1c-1.2-10.9-5.8-20.8-12.7-28.5l4.8-5.4c1.4-1.5,1.3-4-0.3-5.4l-7.1-6.4
				c-1.6-1.4-3.9-1.3-5.4,0.3l-5.6,6.2c-4.8-2.6-10-4.5-15.6-5.4v-8.1c0-2.1-1.7-3.8-3.8-3.8h-9.6c-2.1,0-3.8,1.7-3.8,3.8v8.1
				c-8,1.4-15.4,4.6-21.7,9.3l-5.6-5.1c-1.5-1.5-3.9-1.3-5.4,0.2l-6.5,7c-1.5,1.5-1.3,3.9,0.2,5.4l5.3,5c-4.2,6.3-7.1,13.6-8.1,21.4
				l-8.6-0.1c-2.1,0-3.9,1.7-3.9,3.7l-0.1,9.6c0,2.1,1.7,3.9,3.8,3.9l9.5,0.1c1.4,6.7,4.2,12.9,7.9,18.4l-6.1,6.8
				c-1.4,1.6-1.3,4,0.3,5.4l7.1,6.4c1.6,1.4,4,1.3,5.4-0.3l5.3-6c6.1,4.5,13.3,7.5,21.1,8.8v8c0,2.1,1.7,3.8,3.8,3.8h9.6
				c2.1,0,3.8-1.7,3.8-3.8v-8c8.6-1.5,16.4-5,22.9-10.2l6.4,5.9c1.5,1.5,3.9,1.3,5.4-0.2l6.5-7c1.5-1.5,1.3-3.9-0.2-5.4l-6.5-6
				c2.9-4.6,5-9.7,6.4-15.1l7.7,0.1c2.1,0,3.9-1.7,3.9-3.7l0.1-9.6C588.3,289.3,586.6,287.6,584.5,287.6z M527.3,326.3
				c-18.5,0-33.5-15-33.5-33.5s15-33.5,33.5-33.5s33.5,15,33.5,33.5S545.8,326.3,527.3,326.3z			">
<animateTransform  accumulate="none" additive="replace" attributeName="transform" attributeType="XML" calcMode="linear" dur="6s" fill="remove" from="0 527.74 292.69" repeatCount="indefinite" restart="always" to="360 527.74 292.69" type="rotate">
					</animateTransform>
			</path>
			<path class="st1" d="M706.4,164.2h-1.9c-0.3-3-1.6-5.8-3.5-7.9l1.3-1.5c0.4-0.4,0.4-1.1-0.1-1.5l-2-1.8c-0.4-0.4-1.1-0.4-1.5,0.1
				l-1.5,1.8c-1.3-0.7-2.8-1.2-4.3-1.5v-2.3c0-0.6-0.5-1.1-1.1-1.1h-2.6c-0.6,0-1.1,0.4-1.1,1.1v2.3c-2.2,0.4-4.3,1.3-6,2.6
				l-1.5-1.4c-0.4-0.4-1.1-0.4-1.5,0.1l-1.8,2c-0.4,0.4-0.4,1.1,0.1,1.5l1.5,1.4c-1.2,1.8-2,3.8-2.3,6h-2.4c-0.6,0-1.1,0.4-1.1,1
				v2.6c0,0.6,0.4,1.1,1,1.1h2.6c0.4,1.9,1.2,3.6,2.2,5.1l-1.7,1.9c-0.4,0.4-0.4,1.1,0.1,1.5l2,1.8c0.4,0.4,1.1,0.4,1.5-0.1l1.5-1.7
				c1.7,1.2,3.7,2.1,5.9,2.5v2.3c0,0.6,0.5,1.1,1.1,1.1h2.6c0.6,0,1.1-0.5,1.1-1.1v-2.3c2.3-0.4,4.5-1.4,6.4-2.9l1.8,1.6
				c0.4,0.4,1.1,0.4,1.5-0.1l1.8-2c0.4-0.4,0.4-1.1-0.1-1.5l-1.8-1.7c0.8-1.3,1.4-2.7,1.8-4.2h2.1c0.6,0,1.1-0.4,1.1-1v-2.6
				C707.5,164.7,707,164.2,706.4,164.2z M690.5,175c-5.1,0-9.3-4.2-9.3-9.3s4.2-9.3,9.3-9.3s9.3,4.2,9.3,9.3S695.7,175,690.5,175z
							">
<animateTransform  accumulate="none" additive="replace" attributeName="transform" attributeType="XML" calcMode="linear" dur="6s" fill="remove" from="0 690.35 165.7" repeatCount="indefinite" restart="always" to="360 690.35 165.7" type="rotate">
					</animateTransform>
			</path>
			<path class="st1" d="M436.2,275.5h-1.3c-0.2-2.1-1.1-4-2.5-5.6l1-1c0.3-0.3,0.2-0.8-0.1-1l-1.4-1.2c-0.3-0.3-0.8-0.2-1,0.1
				l-1.1,1.2c-1-0.5-2-0.9-3.1-1v-1.8c0-0.4-0.4-0.7-0.7-0.7h-1.8c-0.4,0-0.7,0.4-0.7,0.7v1.6c-1.5,0.3-3,0.9-4.2,1.8l-1.1-1
				c-0.3-0.3-0.8-0.3-1,0.1l-1.2,1.4c-0.3,0.3-0.3,0.8,0.1,1l1,1c-0.8,1.2-1.4,2.6-1.6,4.2h-1.7c-0.4,0-0.7,0.3-0.7,0.7v1.8
				c0,0.4,0.3,0.7,0.7,0.7h1.8c0.3,1.3,0.8,2.5,1.5,3.6l-1.2,1.3c-0.3,0.3-0.2,0.8,0.1,1l1.4,1.2c0.3,0.3,0.8,0.2,1-0.1l1-1.2
				c1.2,0.9,2.6,1.5,4.1,1.8v1.6c0,0.4,0.4,0.7,0.7,0.7h1.8c0.4,0,0.7-0.4,0.7-0.7v-1.6c1.7-0.3,3.2-1,4.5-2l1.2,1.2
				c0.3,0.3,0.8,0.3,1-0.1l1.2-1.4c0.3-0.3,0.3-0.8-0.1-1l-1.2-1.2c0.6-0.9,1-1.9,1.2-2.9h1.5c0.4,0,0.7-0.3,0.7-0.7v-1.8
				C437,275.9,436.6,275.5,436.2,275.5z M425.1,283.1c-3.6,0-6.5-2.9-6.5-6.5s2.9-6.5,6.5-6.5s6.5,2.9,6.5,6.5
				C431.6,280.1,428.6,283.1,425.1,283.1z			">
<animateTransform  accumulate="none" additive="replace" attributeName="transform" attributeType="XML" calcMode="linear" dur="6s" fill="remove" from="0 424.82 276.47" repeatCount="indefinite" restart="always" to="360 424.82 276.47" type="rotate">
					</animateTransform>
			</path>
			<path class="st2" d="M357,214.7l-3.7-0.1c-0.6-5.9-3.1-11.1-6.8-15.2l2.6-2.9c0.7-0.8,0.7-2.1-0.1-2.9l-3.8-3.4
				c-0.8-0.7-2.1-0.7-2.9,0.1l-3,3.3c-2.6-1.4-5.3-2.3-8.3-2.9v-4.3c0-1.1-0.9-2-2-2h-5.1c-1.1,0-2,0.9-2,2v4.3
				c-4.2,0.7-8.2,2.5-11.6,5l-2.9-2.7c-0.8-0.7-2.1-0.7-2.9,0.1l-3.4,3.7c-0.7,0.8-0.7,2.1,0.1,2.9l2.9,2.6
				c-2.3,3.4-3.7,7.2-4.3,11.4l-4.6-0.1c-1.1,0-2,0.9-2,2L293,221c0,1.1,0.9,2,2,2l5,0.1c0.7,3.6,2.2,6.9,4.2,9.8l-3.3,3.7
				c-0.7,0.8-0.7,2.1,0.1,2.9l3.8,3.4c0.8,0.7,2.1,0.7,2.9-0.1l2.9-3.2c3.3,2.3,7.1,4,11.2,4.8v4.3c0,1.1,0.9,2,2,2h5.1
				c1.1,0,2-0.9,2-2v-4.3c4.5-0.8,8.7-2.7,12.2-5.4l3.4,3.1c0.8,0.7,2.1,0.7,2.9-0.1l3.4-3.7c0.7-0.8,0.7-2.1-0.1-2.9l-3.5-3.2
				c1.5-2.5,2.7-5.2,3.4-8l4.1,0.1c1.1,0,2-0.9,2-2l0.1-5.1C358.9,215.6,358.1,214.7,357,214.7z M326.5,235.3
				c-9.9,0-17.8-8-17.8-17.8s8-17.8,17.8-17.8s17.8,8,17.8,17.8S336.4,235.3,326.5,235.3z			">
<animateTransform  accumulate="none" additive="replace" attributeName="transform" attributeType="XML" calcMode="linear" dur="6s" fill="remove" from="0 326.5 217.55" repeatCount="indefinite" restart="always" to="360 326.5 217.55" type="rotate">
					</animateTransform>
			</path>
		</g>
		<g>
			
				<rect x="390.1" y="194.9" transform="matrix(0.6059 -0.7955 0.7955 0.6059 -3.6925 394.0929)" class="st5" width="11.7" height="11.7">
			
				<animateTransform  accumulate="none" additive="replace" attributeName="transform" attributeType="XML" calcMode="linear" dur="6s" fill="remove" from="0 395.62 200.46" repeatCount="indefinite" restart="always" to="360 395.62 200.46" type="rotate">
				</animateTransform>
			</rect>
			
				<rect x="280.3" y="255.4" transform="matrix(0.6059 -0.7955 0.7955 0.6059 -95.9624 333.096)" class="st5" width="15.9" height="16.1">
			
				<animateTransform  accumulate="none" additive="replace" attributeName="transform" attributeType="XML" calcMode="linear" dur="6s" fill="remove" from="0 288.23 263.41" repeatCount="indefinite" restart="always" to="360 288.23 263.41" type="rotate">
				</animateTransform>
			</rect>
			
				<rect x="232.6" y="67.8" transform="matrix(0.6059 -0.7955 0.7955 0.6059 35.3637 218.7459)" class="st5" width="11.7" height="11.7">
			
				<animateTransform  accumulate="none" additive="replace" attributeName="transform" attributeType="XML" calcMode="linear" dur="6s" fill="remove" from="0 238.53 73.76" repeatCount="indefinite" restart="always" to="360 238.53 73.76" type="rotate">
				</animateTransform>
			</rect>
			
				<rect x="74.7" y="69" transform="matrix(0.6059 -0.7955 0.7955 0.6059 -30.3556 101.5625)" class="st5" width="25.2" height="24.9">
			
				<animateTransform  accumulate="none" additive="replace" attributeName="transform" attributeType="XML" calcMode="linear" dur="6s" fill="remove" from="0 87.01 81.4" repeatCount="indefinite" restart="always" to="360 87.01 81.4" type="rotate">
				</animateTransform>
			</rect>
			
				<rect x="429.9" y="226.5" transform="matrix(0.6059 -0.7955 0.7955 0.6059 -13.1161 438.2273)" class="st5" width="11.7" height="11.7">
			
				<animateTransform  accumulate="none" additive="replace" attributeName="transform" attributeType="XML" calcMode="linear" dur="6s" fill="remove" from="0 435.96 232.15" repeatCount="indefinite" restart="always" to="360 435.96 232.15" type="rotate">
				</animateTransform>
			</rect>
			
				<rect x="514.3" y="177.1" transform="matrix(0.6059 -0.7955 0.7955 0.6059 56.8184 493.6813)" class="st5" width="24.9" height="24.7">
			
				<animateTransform  accumulate="none" additive="replace" attributeName="transform" attributeType="XML" calcMode="linear" dur="6s" fill="remove" from="0 526.25 189.49" repeatCount="indefinite" restart="always" to="360 526.25 189.49" type="rotate">
				</animateTransform>
			</rect>
			<polygon class="st6" points="544.2,80.4 534.4,67.4 521.5,77.3 531.3,90.3 			">
			
				<animateTransform  accumulate="none" additive="replace" attributeName="transform" attributeType="XML" calcMode="linear" dur="6s" fill="remove" from="0 532.37 78.1" repeatCount="indefinite" restart="always" to="360 532.37 78.1" type="rotate">
				</animateTransform>
			</polygon>
			
				<rect x="179.6" y="180.8" transform="matrix(0.6059 -0.7955 0.7955 0.6059 -78.0228 229.0556)" class="st5" width="25.1" height="25">
			
				<animateTransform  accumulate="none" additive="replace" attributeName="transform" attributeType="XML" calcMode="linear" dur="6s" fill="remove" from="0 192.18 193.28" repeatCount="indefinite" restart="always" to="360 192.18 192.28" type="rotate">
				</animateTransform>
			</rect>
			
				<rect x="437.1" y="321" transform="matrix(0.6059 -0.7955 0.7955 0.6059 -88.1304 489.1146)" class="st5" width="25.1" height="25">
			
				<animateTransform  accumulate="none" additive="replace" attributeName="transform" attributeType="XML" calcMode="linear" dur="6s" fill="remove" from="0 450 333.68" repeatCount="indefinite" restart="always" to="360 450 333.68" type="rotate">
				</animateTransform>
			</rect>
			
				<rect x="69.2" y="262.9" transform="matrix(0.6059 -0.7955 0.7955 0.6059 -186.9166 173.5647)" class="st5" width="25.1" height="25">
			
				<animateTransform  accumulate="none" additive="replace" attributeName="transform" attributeType="XML" calcMode="linear" dur="6s" fill="remove" from="0 83.11 273.25" repeatCount="indefinite" restart="always" to="360 83.11 273.25" type="rotate">
				</animateTransform>
			</rect>
			
				<rect x="-4.6" y="158.3" transform="matrix(0.6059 -0.7955 0.7955 0.6059 -132.7589 73.6104)" class="st5" width="25.1" height="25">
			
				<animateTransform  accumulate="none" additive="replace" attributeName="transform" attributeType="XML" calcMode="linear" dur="6s" fill="remove" from="0 7.75 170.78" repeatCount="indefinite" restart="always" to="360 7.75 170.78" type="rotate">
				</animateTransform>
			</rect>
			<circle class="st7" cx="631.7" cy="183.9" r="9.5"/>
			<circle class="st7" cx="58.9" cy="213.8" r="22.3"/>
			<ellipse class="st8" cx="163.4" cy="328" rx="17.4" ry="17.4"/>
			<circle class="st7" cx="276.6" cy="202.9" r="9.5"/>
			<circle class="st7" cx="469.7" cy="62.4" r="15.7"/>
			<text transform="matrix(0.9953 9.689943e-02 -9.689943e-02 0.9953 631.6824 88.2502)" class="st9 st10 st11">1</text>
			<text transform="matrix(0.9035 -0.5229 0.5009 0.8655 135.3982 203.7253)" class="st9 st10 st12">1</text>
			<text transform="matrix(0.9937 -0.1123 0.1123 0.9937 283.1962 81.3974)" class="st9 st10 st13">1</text>
		</g>
		<g class="st14">
			<text transform="matrix(0.9683 0.2497 -0.2497 0.9683 425.0139 202.0671)" class="st15 st10 st16">0</text>
			<text transform="matrix(1 0 0 1 179.4789 79.9785)" class="st17 st10 st18">0</text>
			<text transform="matrix(1.0006 -0.2348 0.2284 0.9736 191.0652 233.4171)" class="st17 st10 st19">0</text>
			<text transform="matrix(-0.6281 -0.5783 0.6773 -0.7357 586.1725 200.3261)" class="st17 st10 st20">0</text>
		</g>
		<g>
			<g class="st21">
				<path class="st15" d="M302.3,321.9c-1-1-2.3-1.2-3.6-1l-2.6-2.5c3.2-3.7,5-8.5,4.8-13.8c-0.4-10-8.6-18.2-18.6-18.7
					c-11.6-0.6-21.2,9-20.7,20.6c0.5,10,8.6,18.1,18.6,18.6c4.8,0.3,9.3-1.2,12.8-3.9l2.7,2.6c-0.3,1.3,0.1,2.9,1.1,3.8l3.1,3
					l5.5-5.9L302.3,321.9z M265.8,306.4c-0.6-9.3,7.1-17,16.4-16.4c7.7,0.5,13.9,6.7,14.4,14.4c0.6,9.3-7.1,17-16.4,16.4
					C272.5,320.4,266.3,314.1,265.8,306.4z"/>
				<path class="st15" d="M315.5,334.3l-8.6-8l-5.5,5.9l8.6,8.1c1.8,1.7,4.6,1.4,6.1-0.7C317.3,338,317,335.7,315.5,334.3z"/>
			</g>
			<g class="st22">
				<path class="st15" d="M703.8,103.6c1.3-1.4,1.7-3.2,1.3-4.9l3.4-3.6c4.8,4.1,10.9,6.6,17.7,6.5c14.8-0.1,26.8-12.1,26.8-27
					c-0.1-14.8-12.1-26.8-27-26.8c-14.8,0.1-26.8,12.1-26.8,27c0,6,2,11.5,5.4,15.9l-3.5,3.7c-1.8-0.4-3.9,0.1-5.3,1.5l-4,4.3l8,7.5
					L703.8,103.6z M726,53.7c11.6-0.1,21.1,9.4,21.2,21s-9.4,21.1-21,21.2s-21.1-9.4-21.2-21S714.3,53.8,726,53.7z"/>
				<path class="st15" d="M686.8,121.9l11.1-11.8l-8-7.5l-11.2,11.8c-2,2.2-2,5.7,0.2,7.8C681.2,124.2,684.6,124.1,686.8,121.9z"/>
			</g>
			<g>
				<path class="st15" d="M98.2,152.8c-0.7-0.7-1.7-1-2.6-0.7l-1.9-1.8c2.2-2.5,3.5-5.7,3.5-9.3c0-7.8-6.4-14.2-14.2-14.2
					s-14.2,6.4-14.2,14.2s6.4,14.2,14.2,14.2c3.1,0,6.1-1,8.4-2.8l2,1.8c-0.2,1,0,2,0.8,2.8l2.3,2.1l3.9-4.2L98.2,152.8z M72,140.9
					c0-6.1,5-11.1,11.1-11.1s11.1,5,11.1,11.1s-5,11.1-11.1,11.1C76.9,152.1,72,147.1,72,140.9z"/>
				<path class="st15" d="M107.9,161.8l-6.2-5.9l-3.9,4.2l6.2,5.9c1.2,1.1,3,1,4.1-0.1C109,164.7,109,162.9,107.9,161.8z"/>
			</g>
		</g>
		<g>
			<g>
				<path class="st15" d="M237.5,294.3l-8.7-1.6c-0.7-0.1-1.3,0.3-1.5,1c-0.1,0.7,0.3,1.3,1,1.5l8.7,1.6c0.7,0.1,1.3-0.3,1.5-1
					C238.6,295.1,238.1,294.4,237.5,294.3z				">
<animate  accumulate="none" additive="replace" attributeName="opacity" begin="0s" calcMode="linear" dur="10s" fill="remove" keyTimes="0;0.5;1" repeatCount="indefinite" restart="always" values="1;0.2;1">
						</animate>
				</path>
				<path class="st15" d="M236.7,297.2l-8.7-1.6c-0.7-0.1-1.3,0.3-1.5,1c-0.1,0.7,0.3,1.3,1,1.5l8.7,1.6c0.7,0.1,1.3-0.3,1.5-1
					C237.8,297.9,237.4,297.3,236.7,297.2z				">
<animate  accumulate="none" additive="replace" attributeName="opacity" begin="0s" calcMode="linear" dur="10s" fill="remove" keyTimes="0;0.5;1" repeatCount="indefinite" restart="always" values="1;0.2;1">
						</animate>
				</path>
				<path class="st15" d="M229.3,301.6l4.5,0.8c1.3,0.2,2.6-0.7,2.9-2l-9.3-1.8C227.1,300,228,301.4,229.3,301.6z				">
<animate  accumulate="none" additive="replace" attributeName="opacity" begin="0s" calcMode="linear" dur="10s" fill="remove" keyTimes="0;0.5;1" repeatCount="indefinite" restart="always" values="1;0.2;1">
						</animate>
				</path>
				<path class="st15" d="M239.4,260.2c-7.7-1.5-15.1,3.6-16.5,11.3c-1.1,5.7,1.5,11.3,5.9,14.3L228,290c-0.1,0.9,0.4,1.7,1.2,1.8
					l8,1.5c0.9,0.1,1.7-0.4,1.8-1.2l0.8-4.2c5.3-1.2,9.7-5.5,10.8-11.2C252.1,269,247.1,261.6,239.4,260.2z M238.7,286.4l-0.7,3.7
					c-0.1,0.7-0.7,1.3-1.4,1.2l-5.9-1.1c-0.7-0.1-1-0.8-0.9-1.6l0.7-3.7c-3.2-2.6-6.8-8-5.9-13c1.2-6.8,8.7-10.8,14.3-9.8
					s11,7.5,9.7,14.3C247.9,281.3,242.7,285.1,238.7,286.4z				">
<animate  accumulate="none" additive="replace" attributeName="opacity" begin="0s" calcMode="linear" dur="10s" fill="remove" keyTimes="0;0.5;1" repeatCount="indefinite" restart="always" values="1;0.2;1">
						</animate>
				</path>
			</g>
			<g>
				<path class="st15" d="M482.7,227.6l-12.2,1.2c-1,0.1-1.6,1-1.5,1.8c0.1,1,1,1.6,1.8,1.5l12.2-1.2c1-0.1,1.6-1,1.5-1.8
					C484.4,228.1,483.6,227.5,482.7,227.6z				">
<animate  accumulate="none" additive="replace" attributeName="opacity" begin="0s" calcMode="linear" dur="10s" fill="remove" keyTimes="0;0.5;1" repeatCount="indefinite" restart="always" values="1;0.2;1">
						</animate>
				</path>
				<path class="st15" d="M482.8,231.7l-12.2,1.2c-1,0.1-1.6,1-1.5,1.8c0.1,1,1,1.6,1.8,1.5l12.2-1.2c1-0.1,1.6-1,1.5-1.8
					C484.6,232.3,483.7,231.7,482.8,231.7z				">
<animate  accumulate="none" additive="replace" attributeName="opacity" begin="0s" calcMode="linear" dur="10s" fill="remove" keyTimes="0;0.5;1" repeatCount="indefinite" restart="always" values="1;0.2;1">
						</animate>
				</path>
				<path class="st15" d="M474.6,240.5l6.2-0.6c1.9-0.2,3.2-1.8,3.1-3.7l-13,1.2C471.1,239.3,472.7,240.7,474.6,240.5z				">
<animate  accumulate="none" additive="replace" attributeName="opacity" begin="0s" calcMode="linear" dur="10s" fill="remove" keyTimes="0;0.5;1" repeatCount="indefinite" restart="always" values="1;0.2;1">
						</animate>
				</path>
				<path class="st15" d="M472,181.3c-10.8,1-18.6,10.7-17.6,21.4c0.8,8,6.3,14.4,13.5,16.7l0.6,6c0.1,1.2,1.2,2.1,2.4,2l11.3-1.1
					c1.2-0.1,2-1.2,2-2.4l-0.6-6c6.6-3.7,10.8-11,10-19C492.4,188.1,482.8,180.2,472,181.3z M481.2,216.5l0.5,5.3
					c0.1,1.1-0.5,2-1.4,2.1l-8.3,0.8c-0.9,0.1-1.7-0.7-1.8-1.8l-0.5-5.3c-5.3-2.2-12.1-8-12.8-15.1c-1-9.6,7.5-17.8,15.4-18.6
					s17.6,5.7,18.5,15.3C491.5,206.3,486,213.4,481.2,216.5z				">
<animate  accumulate="none" additive="replace" attributeName="opacity" begin="0s" calcMode="linear" dur="10s" fill="remove" keyTimes="0;0.5;1" repeatCount="indefinite" restart="always" values="1;0.2;1">
						</animate>
				</path>
			</g>
			<g class="st23">
				<path class="st15" d="M20.6,106.2l-11.1-4.4c-0.8-0.4-1.8,0.1-2.1,0.9c-0.4,0.8,0.1,1.8,0.9,2.1l11.1,4.4
					c0.8,0.4,1.8-0.1,2.1-0.9C21.9,107.5,21.5,106.6,20.6,106.2z				">
<animate  accumulate="none" additive="replace" attributeName="opacity" begin="0s" calcMode="linear" dur="10s" fill="remove" keyTimes="0;0.5;1" repeatCount="indefinite" restart="always" values="1;0.2;1">
						</animate>
				</path>
				<path class="st15" d="M19,109.8l-11.1-4.4c-0.8-0.4-1.8,0.1-2.1,0.9c-0.4,0.8,0.1,1.8,0.9,2.1l11.1,4.4c0.8,0.4,1.8-0.1,2.1-0.9
					S19.8,110.1,19,109.8z				">
<animate  accumulate="none" additive="replace" attributeName="opacity" begin="0s" calcMode="linear" dur="10s" fill="remove" keyTimes="0;0.5;1" repeatCount="indefinite" restart="always" values="1;0.2;1">
						</animate>
				</path>
				<path class="st15" d="M8,113.7l5.7,2.2c1.7,0.6,3.7-0.2,4.3-1.8l-11.8-4.7C5.5,111.1,6.4,113,8,113.7z				">
<animate  accumulate="none" additive="replace" attributeName="opacity" begin="0s" calcMode="linear" dur="10s" fill="remove" keyTimes="0;0.5;1" repeatCount="indefinite" restart="always" values="1;0.2;1">
						</animate>
				</path>
				<path class="st15" d="M31.6,61.9C21.8,58.1,10.9,62.8,7,72.5c-2.8,7.2-0.9,15.1,4.3,20.2l-2.1,5.4c-0.5,1.1,0.1,2.3,1.2,2.7
					l10.2,4c1.1,0.5,2.3-0.1,2.7-1.2l2.1-5.4c7.3-0.3,14.1-4.8,16.9-11.9C46.3,76.7,41.4,65.8,31.6,61.9z M24.2,96.1l-1.8,4.8
					c-0.4,1-1.4,1.5-2.1,1.2l-7.5-2.9c-0.8-0.3-1.2-1.4-0.7-2.3l1.8-4.8c-3.7-4.2-7-12.2-4.5-18.6c3.4-8.6,14.2-12,21.3-9.1
					C37.8,67.2,43.4,77,40,85.6C37.6,91.9,29.8,95.5,24.2,96.1z				">
<animate  accumulate="none" additive="replace" attributeName="opacity" begin="0s" calcMode="linear" dur="10s" fill="remove" keyTimes="0;0.5;1" repeatCount="indefinite" restart="always" values="1;0.2;1">
						</animate>
				</path>
			</g>
			<g>
				<path class="st15" d="M124.1,261.2H115c-0.7,0-1.2,0.6-1.2,1.2c0,0.7,0.6,1.2,1.2,1.2h9.1c0.7,0,1.2-0.6,1.2-1.2
					C125.4,261.8,124.9,261.2,124.1,261.2z				">
<animate  accumulate="none" additive="replace" attributeName="opacity" begin="0s" calcMode="linear" dur="10s" fill="remove" keyTimes="0;0.5;1" repeatCount="indefinite" restart="always" values="1;0.2;1">
						</animate>
				</path>
				<path class="st15" d="M124,264.3h-9.2c-0.7,0-1.2,0.6-1.2,1.2c0,0.7,0.6,1.2,1.2,1.2h9.1c0.7,0,1.2-0.6,1.2-1.2
					C125.2,264.9,124.6,264.3,124,264.3z				">
<animate  accumulate="none" additive="replace" attributeName="opacity" begin="0s" calcMode="linear" dur="10s" fill="remove" keyTimes="0;0.5;1" repeatCount="indefinite" restart="always" values="1;0.2;1">
						</animate>
				</path>
				<path class="st15" d="M117.2,270.2h4.7c1.4,0,2.6-1.2,2.6-2.6h-9.8C114.7,269.1,115.8,270.2,117.2,270.2z				">
<animate  accumulate="none" additive="replace" attributeName="opacity" begin="0s" calcMode="linear" dur="10s" fill="remove" keyTimes="0;0.5;1" repeatCount="indefinite" restart="always" values="1;0.2;1">
						</animate>
				</path>
				<path class="st15" d="M119.6,226.1c-8.1,0-14.6,6.6-14.6,14.6c0,6,3.7,11.2,8.8,13.5v4.5c0,0.9,0.7,1.6,1.6,1.6h8.5
					c0.9,0,1.6-0.7,1.6-1.6v-4.5c5.2-2.3,8.8-7.4,8.8-13.5C134.2,232.6,127.6,226.1,119.6,226.1z M123.9,252.9v3.9
					c0,0.8-0.5,1.5-1.2,1.5h-6.2c-0.7,0-1.2-0.7-1.2-1.5v-3.9c-3.8-2-8.4-6.9-8.4-12.1c0-7.2,6.8-12.7,12.7-12.7
					c5.9,0,12.7,5.6,12.7,12.7C132.2,246.1,127.6,250.9,123.9,252.9z				">
<animate  accumulate="none" additive="replace" attributeName="opacity" begin="0s" calcMode="linear" dur="10s" fill="remove" keyTimes="0;0.5;1" repeatCount="indefinite" restart="always" values="1;0.2;1">
						</animate>
				</path>
			</g>
			<g class="st24">
				<path class="st15" d="M618.1,273.3l-9.3-2.4c-0.7-0.2-1.5,0.2-1.6,1c-0.1,0.7,0.2,1.5,1,1.6l9.3,2.4c0.7,0.2,1.5-0.2,1.6-1
					C619.2,274.2,618.8,273.5,618.1,273.3z				">
<animate  accumulate="none" additive="replace" attributeName="opacity" begin="0s" calcMode="linear" dur="10s" fill="remove" keyTimes="0;0.5;1" repeatCount="indefinite" restart="always" values="1;0.2;1">
						</animate>
				</path>
				<path class="st15" d="M617,276.4l-9.3-2.4c-0.7-0.2-1.5,0.2-1.6,1s0.2,1.5,1,1.6l9.3,2.4c0.7,0.2,1.5-0.2,1.6-1
					C618.2,277.3,617.8,276.6,617,276.4z				">
<animate  accumulate="none" additive="replace" attributeName="opacity" begin="0s" calcMode="linear" dur="10s" fill="remove" keyTimes="0;0.5;1" repeatCount="indefinite" restart="always" values="1;0.2;1">
						</animate>
				</path>
				<path class="st15" d="M608.7,280.7l4.8,1.2c1.4,0.4,2.9-0.5,3.2-1.9l-9.9-2.6C606.4,278.8,607.3,280.3,608.7,280.7z				">
<animate  accumulate="none" additive="replace" attributeName="opacity" begin="0s" calcMode="linear" dur="10s" fill="remove" keyTimes="0;0.5;1" repeatCount="indefinite" restart="always" values="1;0.2;1">
						</animate>
				</path>
				<path class="st15" d="M622.5,236.6c-8.2-2.1-16.5,2.9-18.6,11c-1.5,6.1,0.8,12.2,5.4,15.9l-1.2,4.5c-0.2,1,0.3,1.8,1.2,2
					l8.6,2.2c1,0.2,1.8-0.3,2-1.2l1.2-4.5c5.9-1,10.8-5.2,12.4-11.3C635.7,246.9,630.7,238.6,622.5,236.6z M620,264.8l-1,4
					c-0.2,0.8-1,1.3-1.6,1.2l-6.3-1.6c-0.7-0.1-1-1-0.8-1.8l1-4c-3.3-3-6.8-9.1-5.4-14.5c1.8-7.2,10.2-11,16.2-9.6
					c6,1.5,11.4,8.8,9.5,16.2C630.2,260,624.3,263.8,620,264.8z				">
<animate  accumulate="none" additive="replace" attributeName="opacity" begin="0s" calcMode="linear" dur="10s" fill="remove" keyTimes="0;0.5;1" repeatCount="indefinite" restart="always" values="1;0.2;1">
						</animate>
				</path>
			</g>
		</g>
	</g>
	<g>
		<path class="st25" d="M361.3,402.1c50.8,0,91.9-1.7,91.9-3.8c0-2.1-41.1-3.8-91.9-3.8s-91.9,1.7-91.9,3.8S310.5,402.1,361.3,402.1
			z"/>
		<path class="st26" d="M372,248.5c0.1,0.6,0.3,1.5,0.8,2.5c0.2,0.3,0.4,0.9,0.9,1.5c1,1.2,1.7,1.2,2.6,2.4c0.4,0.6,0.7,1,0.8,1.4
			c0.8,1.8,0.7,3.5,0.5,4.6c-0.1,1.3-0.4,3.3-1.8,5.3c-1.5,2-3.4,2.7-4.8,3.1c-2.7,1-5,0.8-7.4,0.7c-3-0.2-5-0.4-7-1.8
			c-2.4-1.6-3.4-3.8-3.8-4.8c-0.8-1.8-1.7-5.3-0.5-6.4c0.2-0.2,0.5-0.4,0.8-0.9c0.5-0.8,0.6-1.6,0.7-1.9c0.1-0.9,0.6-2.2,2.4-4.3
			c0.1-1.8,0.2-3.5,0.4-5.3C361.7,245.9,366.9,247.2,372,248.5z		">
<animateTransform  accumulate="none" additive="replace" attributeName="transform" attributeType="XML" calcMode="linear" dur="3s" fill="remove" repeatCount="indefinite" restart="always" type="translate" values="0,0;0,-15;0,0">
				</animateTransform>
		</path>
		<path class="st26" d="M372,244.9v4.7l-15.1-4.7		">
<animateTransform  accumulate="none" additive="replace" attributeName="transform" attributeType="XML" calcMode="linear" dur="3s" fill="remove" repeatCount="indefinite" restart="always" type="translate" values="0,0;0,-15;0,0">
				</animateTransform>
		</path>
		<path class="st27" d="M357.2,248.4c1.7,0.8,8.9,4.3,14.8,0.1c1.4-1,3.2-2.3,3-3.7c-0.5-3.3-12.2-6-17.5-1.8
			c-0.5,0.4-2.6,2-2.3,3.6C355.4,247.5,356.3,248,357.2,248.4z		">
<animateTransform  accumulate="none" additive="replace" attributeName="transform" attributeType="XML" calcMode="linear" dur="3s" fill="remove" repeatCount="indefinite" restart="always" type="translate" values="0,0;0,-15;0,0">
				</animateTransform>
		</path>
		<path class="st26" d="M323.7,343c2.4-1-3.3-11.2-2.2-29.3c0.4-6.5,1.5-11.2-0.9-12.7s-7.1,0.7-9.7,3.9c-5.5,7-0.3,19,1.6,23.5
			C315.7,335.7,321.5,343.9,323.7,343z		">
<animateTransform  accumulate="none" additive="replace" attributeName="transform" attributeType="XML" calcMode="linear" dur="3s" fill="remove" repeatCount="indefinite" restart="always" type="translate" values="0,0;0,-15;0,0">
				</animateTransform>
		</path>
		<path class="st26" d="M404.1,343c-2.4-1,3.3-11.2,2.2-29.3c-0.4-6.5-1.5-11.2,0.9-12.7s7.1,0.7,9.7,3.9c5.5,7,0.3,19-1.6,23.5
			C412.1,335.7,406.3,343.9,404.1,343z		">
<animateTransform  accumulate="none" additive="replace" attributeName="transform" attributeType="XML" calcMode="linear" dur="3s" fill="remove" repeatCount="indefinite" restart="always" type="translate" values="0,0;0,-15;0,0">
				</animateTransform>
		</path>
		<path class="st28" d="M349.7,233.5c-2.9,1.6-0.9,8.6-4.4,10.2c-1,0.5-1.4,0-2.5,0.4c-3.2,1.5-5.5,9.1-1.8,12.7
			c3.2,3.2,9.2,1.7,12.2-0.9c0.3-0.3,3-2.5,3.6-6c0.4-2.2-0.3-2.8,0.1-5.2c0.5-3.1,2.2-3.5,2.2-5.3C358.9,236,352.5,232,349.7,233.5
			z		">
<animateTransform  accumulate="none" additive="replace" attributeName="transform" attributeType="XML" calcMode="linear" dur="3s" fill="remove" repeatCount="indefinite" restart="always" type="translate" values="0,0;0,-15;0,0">
				</animateTransform>
		</path>
		<path class="st28" d="M371.9,245.4c-0.6,1.6-0.2,3.2,0.1,4.2c0.2,0.9,0.7,2.7,2.3,3.9c0.7,0.5,1.3,0.7,1.9,0.9
			c3.6,1.1,4.6,0.6,7.2,1.1c2.3,0.5,5.3,0.7,7.6,2.7c1.3,1.2,1.4,2.1,1.8,2c1.2-0.3,2-8.6-2.1-14.9c-1.8-2.8-2.6-2.3-4.8-5.4
			c-3.9-5.5-3.6-11.1-4.7-11c-0.8,0-0.5,3.1-2.7,7.8c-0.9,1.9-1.4,3-2.5,4.3C374.1,243.3,372.6,243.4,371.9,245.4z		">
<animateTransform  accumulate="none" additive="replace" attributeName="transform" attributeType="XML" calcMode="linear" dur="3s" fill="remove" repeatCount="indefinite" restart="always" type="translate" values="0,0;0,-15;0,0">
				</animateTransform>
		</path>
		<path class="st29" d="M387.3,256c1.3,1.1,3.3,2.9,4.6,5.7c0.4,0.9,1.2,2.9,1.4,10.1c0.1,2.8,0.1,6.1-0.3,10.6
			c-0.5,4.9-0.7,8-2.2,11.9c0,0-1.4,3.8-3.5,6.8c-8.5,12.4-45.5,10.8-49.4,0.2c-0.3-0.8-0.1-0.9-1.4-7.1c-1.4-7.1-1.8-7.5-2.2-9.9
			c-1.6-9.2,0.5-16.9,1.2-19.1c1.1-3.8,2.7-6.9,4.1-9.3c1.9-0.9,4.5-1.8,7.7-2.4c3.4-0.6,7.2-1.7,7.8-0.5c0.6,1-2.2,2.6-2.5,6.1
			c0,0-0.2,1.9,0.6,3.9c1.8,4.5,8.3,7,13.7,6.3c1.2-0.2,7.7-1.2,9.4-6c0.8-2.3,0.7-5.7-1-8.1c-0.9-1.2-1.8-1.7-1.6-2.1
			c0.5-1.1,7.3,0.9,7.9,1C384.1,254.6,386,255.4,387.3,256z		">
<animateTransform  accumulate="none" additive="replace" attributeName="transform" attributeType="XML" calcMode="linear" dur="3s" fill="remove" repeatCount="indefinite" restart="always" type="translate" values="0,0;0,-15;0,0">
				</animateTransform>
		</path>
		<path class="st26" d="M355.8,206c-1.6,0.7-4.5,2.4-6.6,5.8c-2.7,4.4-2.3,9.1-2.2,10.7c0.3,3.2,1.6,7.7,2.2,9.7
			c0.1,0.3,0.1,0.4,0.2,0.6c1.1,3.7,2.6,8.7,7.2,11.8c0.9,0.6,3.9,2.6,8.2,2.5c4.1-0.1,6.9-2.1,8.2-3c3.9-2.8,5.5-6.7,6.6-9.4
			c1.8-4.6,1.9-8.4,1.9-9.6c0,0,0-3.5-0.9-6.4C378.6,212.5,368.7,207.2,355.8,206z		">
<animateTransform  accumulate="none" additive="replace" attributeName="transform" attributeType="XML" calcMode="linear" dur="3s" fill="remove" repeatCount="indefinite" restart="always" type="translate" values="0,0;0,-15;0,0">
				</animateTransform>
		</path>
		<path class="st26" d="M349.4,376.5c6.7,5.3,12.7,8.7,16.5,9.9c2.2,0.7,4.2,1.1,4.2,1.1c2.4,0.5,3.5,0.4,6.7,0.7
			c3.6,0.3,3.3,0.5,8.1,1c4.1,0.4,6.1,0.7,6.7,0.5c5-1.1,10.5-7.7,8.5-13.2c-1.1-3-4.3-5.2-7.4-5.5c-3.8-0.3-5.3,2.4-10.6,4.3
			c-4.7,1.7-8.8,1.3-11.7,1.1c-8.5-0.7-14.9-4.7-18-7.1c-3,2.2-4,5.1-3.1,6.6c0.1,0.2,0.7,1,2.5,1.2		">
<animateTransform  accumulate="none" additive="replace" attributeName="transform" attributeType="XML" calcMode="linear" dur="3s" fill="remove" repeatCount="indefinite" restart="always" type="translate" values="0,0;0,-15;0,0">
				</animateTransform>
		</path>
		<path class="st30" d="M400.5,377.3c1.4,4.3-2.1,9-5.4,11.1c-2.7,1.7-5.3,1.6-9.8,1.6c-5.8-0.1-10.3-1.5-10.2-1.7
			c0-0.2,2.7,0.7,5.8-0.5c2.5-1,4.9-3.3,5.9-6.1c1.5-4.5-1.6-7.3-0.1-9C388.8,370,398.6,371.4,400.5,377.3z		">
<animateTransform  accumulate="none" additive="replace" attributeName="transform" attributeType="XML" calcMode="linear" dur="3s" fill="remove" repeatCount="indefinite" restart="always" type="translate" values="0,0;0,-15;0,0">
				</animateTransform>
		</path>
		<path class="st31" d="M380.6,228.7c0,0-1.3-2.2-3.6-4.3c-1.2-1.1-2.5-1.8-5.1-3.1c-4.4-2.1-6.4-2.9-8-3.7c-4.8-2.3-7.1-4-9.1-6.5
			c-0.5-0.4-0.8-0.6-1-1c-0.6-1.6,1.9-4.1,3-4.9c6.3-4.3,26.7,7,26.8,18c0,2.6-1.1,7-2,7C381.3,230.2,381.1,229.7,380.6,228.7z		">
<animateTransform  accumulate="none" additive="replace" attributeName="transform" attributeType="XML" calcMode="linear" dur="3s" fill="remove" repeatCount="indefinite" restart="always" type="translate" values="0,0;0,-15;0,0">
				</animateTransform>
		</path>
		<path class="st31" d="M345.8,218.7c0.3,0.1,1.4-1.1,3.6-3.5c1.6-1.8,2-2.4,3-3c1.3-0.8,2.6-1,3.9-1.2c3.2-0.4,4.3,0.3,4.8-0.2
			c1.3-1.6-4.7-11.8-9.3-11C346.1,200.6,344.3,218.1,345.8,218.7z		">
<animateTransform  accumulate="none" additive="replace" attributeName="transform" attributeType="XML" calcMode="linear" dur="3s" fill="remove" repeatCount="indefinite" restart="always" type="translate" values="0,0;0,-15;0,0">
				</animateTransform>
		</path>
		<path class="st30" d="M363.4,187.7c-4.3,0.8-7.3,3.3-9.2,4.9c-0.7,0.6-0.2,0.3-3.2,3.1c-2.3,2.2-3.4,3.2-4.4,4.1
			c-3.8,3.2-4,2.3-5.3,4c0,0-2.6,3.4-2.3,8.1c0.2,2.1,0.8,2.1,1.6,5.2c0.7,2.7,1.6,6.4,0.3,9.8c-1.1,2.6-2.2,1.9-4.7,5.7
			c-1,1.6-2.7,4.2-2.9,8c-0.1,1.3,0.2,2.8,0.7,5.6c0.9,5.1,1.5,4.9,1.3,6.8c-0.1,1.7-0.8,4.4-2.3,7c-0.7,1.3-1.4,2-1.1,2.7
			c0.5,1,3,1.3,4.8,0.5c3.1-1.2,4.2-5.1,4.8-7.3c1-3.4,0.3-4.5,1.5-7.5c0.6-1.5,0.9-1.3,2.9-4.5c2.6-4,4.5-6.9,3.9-10
			c-0.1-0.4-0.1-0.2-0.4-1.3c-0.8-2.5-1.2-4.9-1.4-8c-0.3-4.9-0.4-7.4,0.4-9.6c1.6-4.5,5.2-7.1,7.4-8.7c4.4-3.2,5.8-2.1,8.4-4.7
			c4.4-4.4,5.3-12.4,2.8-14.1C366.1,187.2,365.2,187.4,363.4,187.7z		">
<animateTransform  accumulate="none" additive="replace" attributeName="transform" attributeType="XML" calcMode="linear" dur="3s" fill="remove" repeatCount="indefinite" restart="always" type="translate" values="0,0;0,-15;0,0">
				</animateTransform>
		</path>
		<path class="st30" d="M354.4,205.6c2.5,0.7,2,2.7,6.2,6.1c2.6,2.1,5.2,3.3,6.4,3.8c2.3,1,2.2,0.6,4.7,1.6c1,0.4,3.5,1.6,6.2,3.7
			c1.7,1.3,2.6,2,3,3.1c0.4,0.8,0.6,1.9,0.1,4.9c-0.8,5.2-2.1,6.6-1.3,8.3c0.6,1.3,1.6,1.2,3.8,2.6c5.6,3.5,7.4,9.8,7.8,10.9
			c1.1,3.1-0.1,3.2,0.7,7.1c1,5.5,4,9.3,10.1,17.1c2.8,3.6,4.3,4.7,4.8,6.9c0.1,0.3,0.2,1.1,0.8,1.3c0.8,0.4,1.9-0.7,4.1-2.4
			c2.2-1.7,2.2-1.5,3.4-2.4c1.2-1,4.7-3.8,6.3-8.8c0.5-1.8,1.6-5.1,0.2-8.4c-0.4-1-1.3-2.2-3.2-4.7c-2.2-2.8-2.6-2.9-3.4-4.3
			c-0.4-0.7-0.9-1.8-1.7-5.9c-1-5.1-0.5-5.5-1.3-9c-0.9-4-1.3-6-2.9-7.6c-1.7-1.7-2.9-1.2-5.6-3.5c-0.7-0.6-2.3-1.9-3.5-3.9
			c-1.4-2.3-1.5-4.2-1.9-6.9c-0.3-1.9-1.1-6.8-2-9.7c-1.8-5.3-5.8-8.4-9-10.8c-5.8-4.5-11.6-5.8-14.3-6.4c-4.8-1-7.4-1.6-10.6-0.7
			c-4.4,1.3-7.6,6.2-14.1,16.2c-0.4,0.6-1.5,2.4-1,3C347.7,208,351,204.7,354.4,205.6z		">
<animateTransform  accumulate="none" additive="replace" attributeName="transform" attributeType="XML" calcMode="linear" dur="3s" fill="remove" repeatCount="indefinite" restart="always" type="translate" values="0,0;0,-15;0,0">
				</animateTransform>
		</path>
		<path class="st30" d="M390.7,294.2c-2.6-4-8-13.9-7-26.8c0.4-5.4,0.8-10,3.2-10.7c6-2,20,21.5,27.8,40.4
			c2.6,6.2,4.3,11.6,5.3,15.2c-2.4,0.2-4.9,0.6-7.6,1.1c-2.2,0.4-4.3,0.9-6.2,1.3c-3.1-4.3-6.3-8.6-9.7-13
			C394.7,299.2,392.7,296.7,390.7,294.2z		">
<animateTransform  accumulate="none" additive="replace" attributeName="transform" attributeType="XML" calcMode="linear" dur="3s" fill="remove" repeatCount="indefinite" restart="always" type="translate" values="0,0;0,-15;0,0">
				</animateTransform>
		</path>
		<path class="st32" d="M337.2,295c4.5-10.9,6.3-20.1,7-26.8c0.6-5.7,1.2-11.9-1.3-13.1c-3.8-1.7-12.3,9.3-13.4,10.7
			c-2.1,2.8-4.3,6.5-8.5,14.1c-1.6,2.9-3.1,5.5-5.1,9.3c-5.2,10-6.5,14.1-7,15.7c-0.9,3.1-1.4,5.8-1.7,7.5c2,0,4.6,0.2,7.6,0.8
			c2.7,0.6,5,1.5,6.8,2.3c3.1-4.3,6.3-8.6,9.7-13C333.3,299.9,335.3,297.4,337.2,295z		">
<animateTransform  accumulate="none" additive="replace" attributeName="transform" attributeType="XML" calcMode="linear" dur="3s" fill="remove" repeatCount="indefinite" restart="always" type="translate" values="0,0;0,-15;0,0">
				</animateTransform>
		</path>
		<path class="st26" d="M380.2,381.7c-6.4,2.8-11.7,4.2-15.3,4.9c-1.9,0.4-3.8,0.6-7.6,1.2c-4.8,0.7-8.2,1.1-10.8,1.3
			c-5.6,0.6-8.4,0.8-10.3,0.4c-2.1-0.5-6.7-1.6-8.4-5.6c-1.1-2.6-0.9-5.9,0.9-8.2c3-3.9,9.7-3.4,13-2.4c0.9,0.3,2.3,0.8,5.2,1.7
			c2.9,0.9,3.7,1,4.3,1.1c2,0.3,3.6,0.2,5.3,0.2c0.2,0,2.9-0.2,5.6-0.7c6.2-1.3,11.9-4.7,13.5-5.7L380.2,381.7z		">
<animateTransform  accumulate="none" additive="replace" attributeName="transform" attributeType="XML" calcMode="linear" dur="3s" fill="remove" repeatCount="indefinite" restart="always" type="translate" values="0,0;0,-15;0,0">
				</animateTransform>
		</path>
		<path class="st30" d="M345.8,374.6c-0.4,0.2-4,2.4-4.2,5.9c-0.1,3.8,3.9,8.7,9.6,8c-3.5,0.4-2.3,0.3-5.4,0.9
			c-1.1,0.2-5.5,0.4-7.6,0.2c-1.3-0.1-2.4-0.3-3.3-0.6c-0.9-0.2-2.2-0.6-3.5-1.4c-1.1-0.7-1.9-1.4-2.4-2c-0.4-0.5-1.1-1.5-1.4-2.8
			c-0.4-1.3-0.3-2.3-0.3-2.9c0-1,0.3-3.2,1.9-5.3c0.9-1.2,1.8-1.8,2.3-2.2c0.8-0.6,1.3-0.9,2.1-1c1-0.2,1.3,0.3,2.8,0.4
			c1.5,0.2,1.6-0.2,3-0.1c0.9,0.1,1.7,0.4,3.2,1.1C343.4,373.3,344.5,373.9,345.8,374.6z		">
<animateTransform  accumulate="none" additive="replace" attributeName="transform" attributeType="XML" calcMode="linear" dur="3s" fill="remove" repeatCount="indefinite" restart="always" type="translate" values="0,0;0,-15;0,0">
				</animateTransform>
		</path>
		<path class="st33" d="M350.2,375.9c-1.2-0.2-3.1-0.5-5.2-1.2s-2.3-1.1-3.8-1.6c-1.2-0.4-4.9-1.7-8.6-0.2c-0.9,0.4-2.9,1.3-4.6,3.7
			c-1.8-0.4-4.6-1-7.9-2c-6-1.8-10.3-4-17-7.3c-2.1-1-4.7-2.4-9.8-5.2c-5-2.7-10-5.5-12.2-10.2c-0.2-0.4-0.4-0.9-0.5-1
			c-0.9-2.2-2.3-5.9-1.1-9.3c1-2.9,3.5-4.3,4.6-4.9c2.6-1.5,5.2-1.7,8.4-1.7c4.3,0,11.3,0,20,2.2c3.6,0.9,6.8,2,10,3.7
			c0,0,1,0.6,2.1,1.2c4.1,2.5,14.5,12.6,27.7,27		">
<animateTransform  accumulate="none" additive="replace" attributeName="transform" attributeType="XML" calcMode="linear" dur="3s" fill="remove" repeatCount="indefinite" restart="always" type="translate" values="0,0;0,-15;0,0">
				</animateTransform>
		</path>
		<path class="st15" d="M323.9,351.9l-3.6-50.7h87.3l-4.2,52.2l-15.2,9.8h-47.8L323.9,351.9z		">
<animateTransform  accumulate="none" additive="replace" attributeName="transform" attributeType="XML" calcMode="linear" dur="3s" fill="remove" repeatCount="indefinite" restart="always" type="translate" values="0,0;0,-15;0,0">
				</animateTransform>
		</path>
		<path class="st34" d="M335.3,359.7c19.6-0.1,39.2-0.1,58.8-0.2c-1.9,1.3-3.9,2.5-5.8,3.8c-15.9,0-31.9,0-47.8,0
			C338.7,362.1,337,360.9,335.3,359.7z		">
<animateTransform  accumulate="none" additive="replace" attributeName="transform" attributeType="XML" calcMode="linear" dur="3s" fill="remove" repeatCount="indefinite" restart="always" type="translate" values="0,0;0,-15;0,0">
				</animateTransform>
		</path>
		<path class="st34" d="M363.1,337.1c3.6,0,6.6-2.9,6.6-6.6s-3-6.6-6.6-6.6s-6.6,2.9-6.6,6.6S359.5,337.1,363.1,337.1z		">
<animateTransform  accumulate="none" additive="replace" attributeName="transform" attributeType="XML" calcMode="linear" dur="3s" fill="remove" repeatCount="indefinite" restart="always" type="translate" values="0,0;0,-15;0,0">
				</animateTransform>
		</path>
		<path class="st33" d="M380.5,381.6c2.4,0,5.2-0.3,8.2-0.8c3.6-0.7,6.3-1.6,11.8-3.5c3.6-1.2,6.3-2.3,7.9-2.9
			c3.3-1.3,5.9-2.4,6.9-2.8c4.1-1.8,5.6-2.6,14.4-6.9c8.1-4,8.4-4.1,9.7-5c3.3-2.3,7-5.1,8.6-10c0.5-1.5,1.7-5.4-0.1-9
			c-2.2-4.3-7.4-5.4-11.8-6.3c-9.6-1.9-17.5,0.4-19.4,1c-10.3,3.2-16.8,9.3-29.4,21.5c-5.4,5.2-9.6,9.8-12.4,13		">
<animateTransform  accumulate="none" additive="replace" attributeName="transform" attributeType="XML" calcMode="linear" dur="3s" fill="remove" repeatCount="indefinite" restart="always" type="translate" values="0,0;0,-15;0,0">
				</animateTransform>
		</path>
		<path class="st33" d="M364,375.3c-0.6-0.2-1.4-0.5-2.4-0.9c-0.2-0.1-3.2-1.2-5.9-2.7c-3.1-1.7-4.3-2.9-6.8-4.4
			c-2.3-1.4-5.7-3.1-10.6-4.3c16.7,0,33.4,0,50.1-0.1c-3.8,1.6-6.8,3.2-8.8,4.3c-3.9,2.3-5.9,3.8-10.1,5.8
			C367.3,374.2,365.3,374.8,364,375.3z		">
<animateTransform  accumulate="none" additive="replace" attributeName="transform" attributeType="XML" calcMode="linear" dur="3s" fill="remove" repeatCount="indefinite" restart="always" type="translate" values="0,0;0,-15;0,0">
				</animateTransform>
		</path>
	</g>
	<rect x="44.1" y="-3.8" class="st35" width="63.8" height="63.8"/>
	<path class="st15" d="M342.2,98.4h-4.9V78.1h4.9V98.4z M358.2,89.8h-7.7v4.8h9.1v3.8h-14V78.1h14v3.8h-9.1v4.3h7.7V89.8z
		 M374.2,89.8h-7.7v4.8h9.1v3.8h-14V78.1h14v3.8h-9.1v4.3h7.7V89.8z M390.2,89.8h-7.7v4.8h9.1v3.8h-14V78.1h14v3.8h-9.1v4.3h7.7
		V89.8z M215.3,124.3l2.3-12.7h4.9l-4.3,20.3h-5.1l-2.7-11.6l-2.7,11.6h-5.1l-4.3-20.3h4.9l2.3,12.7l2.8-12.7h4.2L215.3,124.3z
		 M241.6,122.1c0,2-0.4,3.7-1.1,5.3c-0.7,1.5-1.8,2.7-3.1,3.5c-1.3,0.8-2.9,1.2-4.6,1.2c-1.7,0-3.3-0.4-4.6-1.2s-2.4-1.9-3.1-3.4
		c-0.7-1.5-1.1-3.2-1.2-5.1v-1.1c0-2,0.4-3.7,1.1-5.3c0.7-1.5,1.8-2.7,3.1-3.5c1.4-0.8,2.9-1.2,4.7-1.2c1.7,0,3.3,0.4,4.6,1.2
		c1.3,0.8,2.4,2,3.1,3.5c0.8,1.5,1.1,3.2,1.1,5.2V122.1z M236.6,121.3c0-2-0.3-3.5-1-4.6s-1.6-1.6-2.9-1.6c-2.5,0-3.8,1.8-3.9,5.5
		v1.5c0,2,0.3,3.5,1,4.6s1.6,1.6,2.9,1.6c1.2,0,2.2-0.5,2.9-1.6s1-2.6,1-4.5V121.3z M250.6,111.6l4.5,14.1l4.5-14.1h6.4v20.3h-4.9
		v-4.7l0.5-9.7l-4.9,14.4h-3.2l-4.9-14.5l0.5,9.7v4.7h-4.9v-20.3h6.4V111.6z M281.8,123.3h-7.7v4.8h9.1v3.8h-14v-20.3h14v3.8h-9.1
		v4.3h7.7V123.3z M302.1,131.9h-4.9l-7.2-12.6v12.6h-4.9v-20.3h4.9l7.2,12.6v-12.6h4.9V131.9z M317.5,131.9h-4.9v-20.3h4.9V131.9z
		 M337.9,131.9H333l-7.2-12.6v12.6h-4.9v-20.3h4.9l7.2,12.6v-12.6h4.9V131.9z M360.7,123.3H353v4.8h9.1v3.8h-14v-20.3h14v3.8H353
		v4.3h7.7V123.3z M381,131.9h-4.9l-7.2-12.6v12.6H364v-20.3h4.9l7.2,12.6v-12.6h4.9V131.9z M400.8,129.4c-0.8,0.8-1.9,1.5-3.3,2
		c-1.5,0.5-3,0.8-4.8,0.8c-2.7,0-4.8-0.8-6.4-2.4c-1.6-1.6-2.4-3.9-2.6-6.8v-1.8c0-2,0.4-3.7,1.1-5.2s1.7-2.6,3-3.4s2.8-1.2,4.6-1.2
		c2.5,0,4.5,0.6,5.9,1.7c1.4,1.2,2.2,2.9,2.5,5.2H396c-0.2-1.1-0.5-1.9-1.1-2.4s-1.3-0.7-2.4-0.7c-1.2,0-2.2,0.5-2.8,1.6
		c-0.7,1-1,2.5-1,4.5v1.2c0,2,0.3,3.6,1,4.6c0.7,1,1.8,1.5,3.3,1.5c1.3,0,2.2-0.3,2.8-0.9v-3.2h-3.4V121h8.3v8.4H400.8z
		 M408.8,131.9h-4.9v-20.3h4.9V131.9z M429.2,131.9h-4.9l-7.2-12.6v12.6h-4.9v-20.3h4.9l7.2,12.6v-12.6h4.9V131.9z M444.9,123.3
		h-7.7v4.8h9.1v3.8h-14v-20.3h14v3.8h-9.1v4.3h7.7V123.3z M460.8,123.3h-7.7v4.8h9.1v3.8h-14v-20.3h14v3.8h-9.1v4.3h7.7V123.3z
		 M471.8,124.7h-2.6v7.2h-4.9v-20.3h8c2.4,0,4.3,0.5,5.6,1.6c1.4,1.1,2,2.6,2,4.5c0,1.4-0.3,2.6-0.9,3.5s-1.5,1.7-2.7,2.3l4.2,8.2
		v0.2h-5.2L471.8,124.7z M469.1,120.9h3.1c0.9,0,1.6-0.2,2.1-0.7s0.7-1.2,0.7-2c0-0.9-0.2-1.6-0.7-2c-0.5-0.5-1.2-0.8-2.1-0.8h-3.1
		V120.9z M488.1,131.9h-4.9v-20.3h4.9V131.9z M508.4,131.9h-4.9l-7.2-12.6v12.6h-4.9v-20.3h4.9l7.2,12.6v-12.6h4.9V131.9z
		 M528.2,129.4c-0.8,0.8-1.9,1.5-3.3,2c-1.5,0.5-3,0.8-4.8,0.8c-2.7,0-4.8-0.8-6.4-2.4c-1.6-1.6-2.4-3.9-2.6-6.8v-1.8
		c0-2,0.4-3.7,1.1-5.2s1.7-2.6,3-3.4s2.8-1.2,4.6-1.2c2.5,0,4.5,0.6,5.9,1.7c1.4,1.2,2.2,2.9,2.5,5.2h-4.7c-0.2-1.1-0.5-1.9-1.1-2.4
		s-1.4-0.7-2.4-0.7c-1.2,0-2.2,0.5-2.8,1.6c-0.7,1-1,2.5-1,4.5v1.2c0,2,0.3,3.6,1,4.6c0.7,1,1.8,1.5,3.3,1.5c1.3,0,2.2-0.3,2.8-0.9
		v-3.2h-3.4V121h8.3L528.2,129.4L528.2,129.4z M281.8,145l4.5,14.1l4.5-14.1h6.4v20.3h-4.9v-4.7l0.5-9.7l-4.9,14.4h-3.2l-4.9-14.5
		l0.5,9.7v4.7h-4.9V145H281.8z M305.6,165.3h-4.9V145h4.9V165.3z M324.6,148.8h-6.1v16.5h-4.9v-16.5h-6V145h17V148.8z M341.9,145.3
		l4.5,14.1l4.5-14.1h6.4v20.3h-4.9v-4.7l0.5-9.7l-4.9,14.4h-3.2l-4.9-14.5l0.5,9.7v4.7h-4.9v-20.2H341.9z M372.3,161.8h-6.7
		l-1.2,3.8h-5.2l7.4-20.3h4.6l7.5,20.3h-5.3L372.3,161.8z M366.7,158.1h4.4l-2.2-7L366.7,158.1z M397.1,165.6h-4.9L385,153v12.6
		h-4.9v-20.3h4.9l7.2,12.6v-12.6h4.9V165.6z M405.5,165.6h-4.9v-20.3h4.9V165.6z M413.8,158.7v6.9h-4.9v-20.3h8.1
		c1.6,0,2.9,0.3,4.1,0.9c1.2,0.6,2.1,1.4,2.8,2.4c0.7,1.1,1,2.2,1,3.6c0,2-0.7,3.6-2.1,4.8s-3.4,1.8-5.8,1.8h-3.2V158.7z M413.8,155
		h3.2c0.9,0,1.7-0.2,2.2-0.7s0.8-1.1,0.8-2s-0.3-1.7-0.8-2.3s-1.2-0.9-2.1-0.9h-3.3L413.8,155L413.8,155z M436.5,161.8h-6.7
		l-1.2,3.8h-5.2l7.4-20.3h4.6l7.5,20.3h-5.2L436.5,161.8z M431,158.1h4.4l-2.2-7L431,158.1z M449.3,161.9h8.5v3.8h-13.4v-20.4h4.9
		V161.9z"/>
</g>
</svg>
