<?xml version="1.0" encoding="utf-8"?>
<!-- Generator: Adobe Illustrator 24.2.0, SVG Export Plug-In . SVG Version: 6.00 Build 0)  -->
<svg version="1.1" xmlns="http://www.w3.org/2000/svg" xmlns:xlink="http://www.w3.org/1999/xlink" x="0px" y="0px"
	 viewBox="0 0 500 500" style="enable-background:new 0 0 500 500;" xml:space="preserve">
<style type="text/css">
	.st0{opacity:0.5;}
	.st1{fill:url(#SVGID_1_);}
	.st2{fill:url(#SVGID_2_);}
	.st3{fill:#907FCC;}
	.st4{fill:#9F98BD;}
	.st5{fill:#FFFFFF;}
	.st6{fill:url(#SVGID_3_);}
	.st7{fill:url(#SVGID_4_);}
	.st8{fill:url(#SVGID_5_);}
	.st9{fill:url(#SVGID_6_);}
	.st10{fill:url(#SVGID_7_);}
	.st11{fill:url(#SVGID_8_);}
	.st12{fill:none;stroke:#808080;stroke-width:0.5;stroke-miterlimit:10;}
	.st13{fill:url(#SVGID_9_);}
	.st14{fill:#E4E4E4;}
	.st15{fill:url(#SVGID_10_);}
	.st16{fill:url(#SVGID_11_);}
	.st17{fill:url(#SVGID_12_);}
	.st18{fill:url(#SVGID_13_);}
	.st19{fill:url(#SVGID_14_);}
</style>
<g id="BACKGROUND">
</g>
<g id="OBJECTS">
	<g class="st0">
		
			<linearGradient id="SVGID_1_" gradientUnits="userSpaceOnUse" x1="89.6405" y1="-75.4333" x2="145.1754" y2="294.4812" gradientTransform="matrix(1 0 0 -1 8.410366e-06 500.1102)">
			<stop  offset="0.6089" style="stop-color:#C2AFF6"/>
			<stop  offset="1" style="stop-color:#FFFFFF"/>
		</linearGradient>
		<path class="st1" d="M251.5,175.7l-17.9,138.7c-0.8,6.5-6.8,11.1-13.3,10.3L41.2,301.5c-6.5-0.8-11.1-6.8-10.3-13.3l17.9-138.7
			c0.8-6.5,6.8-11.1,13.3-10.3l179.1,23.2C247.8,163.3,252.4,169.3,251.5,175.7z"/>
		
			<linearGradient id="SVGID_2_" gradientUnits="userSpaceOnUse" x1="47.5248" y1="341.6207" x2="251.9529" y2="332.9453" gradientTransform="matrix(1 0 0 -1 8.410366e-06 500.1102)">
			<stop  offset="0" style="stop-color:#C2AFF6"/>
			<stop  offset="0.9948" style="stop-color:#9583D1"/>
		</linearGradient>
		<path class="st2" d="M251.5,175.7l-1.5,11.3L47.4,160.8l1.5-11.3c0.8-6.5,6.8-11.1,13.3-10.3l179.1,23.2
			C247.8,163.3,252.4,169.3,251.5,175.7z"/>
		<path class="st3" d="M144,214.6l-1,7.5l-2.2-0.3l0.7-5.9l-1.4-0.1l0.2-1.6L144,214.6z"/>
		<path class="st3" d="M174.2,224.4l-0.2,1.7l-5.9-0.7l0.1-1.3l3.1-2.2c0.3-0.2,0.5-0.4,0.7-0.6c0.1-0.1,0.1-0.4,0.2-0.5
			c0-0.2,0-0.4-0.1-0.6s-0.4-0.2-0.7-0.3c-0.3,0-0.5,0-0.8,0.1c-0.2,0.1-0.4,0.2-0.7,0.4l-1.5-1.1c0.4-0.4,0.8-0.7,1.4-1
			c0.6-0.2,1.2-0.3,1.9-0.1c0.6,0.1,1,0.2,1.5,0.4s0.7,0.5,0.9,1c0.2,0.4,0.3,0.8,0.2,1.3c-0.1,0.4-0.2,0.7-0.4,1.1
			c-0.2,0.4-0.6,0.7-1.2,1.1l-1.6,1.1L174.2,224.4z"/>
		<path class="st3" d="M202,225.9c0.3,0.4,0.4,0.9,0.3,1.5c-0.1,0.4-0.2,0.8-0.5,1.2c-0.3,0.4-0.7,0.6-1.2,0.7
			c-0.5,0.1-1.1,0.2-1.9,0.1c-0.5-0.1-1-0.2-1.6-0.4c-0.5-0.2-0.9-0.4-1.3-0.7l1-1.5c0.3,0.2,0.6,0.4,1,0.6c0.4,0.1,0.7,0.2,1,0.3
			c0.4,0.1,0.7,0,0.9-0.1c0.2-0.1,0.4-0.3,0.4-0.5c0.1-0.5-0.3-0.7-1-0.9l-0.9-0.1l0.1-1.3l1.6-1.3l-3-0.4l0.2-1.6l5.4,0.7l-0.1,1.3
			l-1.8,1.5C201.2,225.2,201.7,225.6,202,225.9z"/>
		<path class="st3" d="M231.6,232.1l-1.1-0.1l-0.2,1.4l-2.1-0.3l0.2-1.4l-3.9-0.5l0.1-1.4l3.9-4.2l2.2,0.3l-3.6,4l1.5,0.2l0.1-1.3
			l2,0.2l-0.1,1.3l1.1,0.1L231.6,232.1z"/>
		<path class="st4" d="M59.4,225.3c0.4,0.5,0.6,1.1,0.5,1.8c-0.1,0.4-0.2,0.9-0.5,1.3c-0.3,0.4-0.7,0.6-1.2,0.8
			c-0.5,0.1-1.1,0.2-1.9,0.1c-0.5-0.1-1-0.2-1.6-0.4c-0.5-0.2-0.9-0.4-1.3-0.7l1-1.5c0.3,0.2,0.6,0.4,1,0.6c0.4,0.1,0.7,0.2,1,0.3
			c0.4,0.1,0.7,0,0.9-0.1c0.2-0.1,0.4-0.3,0.4-0.5c0-0.2-0.1-0.4-0.2-0.6c-0.2-0.1-0.6-0.3-1.1-0.4l-2-0.3l1-4.3l4.8,0.6l-0.2,1.6
			l-3.1-0.4l-0.2,1.1l0.5,0.1C58.2,224.4,59,224.8,59.4,225.3z"/>
		<path class="st3" d="M87.6,228.5c0.4,0.2,0.7,0.6,0.8,1c0.1,0.4,0.2,0.8,0.2,1.3c-0.1,0.5-0.2,1-0.6,1.3c-0.3,0.4-0.7,0.6-1.2,0.7
			c-0.4,0.1-1,0.2-1.6,0.1c-1-0.1-1.9-0.6-2.4-1.3c-0.5-0.7-0.7-1.6-0.6-2.9c0.1-0.9,0.4-1.6,0.8-2.2c0.4-0.6,1-1,1.6-1.2
			c0.7-0.2,1.3-0.3,2.2-0.2c0.4,0.1,0.8,0.1,1.2,0.3c0.4,0.1,0.7,0.3,1,0.5l-1,1.4c-0.3-0.3-0.7-0.5-1.3-0.6c-0.5-0.1-1,0-1.4,0.3
			c-0.4,0.2-0.6,0.7-0.7,1.2c0.4-0.3,1-0.4,1.8-0.4C86.7,228.2,87.2,228.3,87.6,228.5z M86.1,231.3c0.2-0.1,0.4-0.4,0.4-0.7
			c0-0.3,0-0.5-0.2-0.7c-0.1-0.2-0.4-0.3-0.7-0.4c-0.3-0.1-0.6,0-0.8,0.1c-0.2,0.1-0.4,0.4-0.4,0.7c0,0.3,0,0.5,0.2,0.7
			c0.1,0.2,0.4,0.3,0.7,0.4C85.6,231.5,85.9,231.4,86.1,231.3z"/>
		<path class="st3" d="M116.9,229.3l-0.1,1.3l-3.4,5.8l-2.3-0.3l3.3-5.5l-2-0.2l-0.1,1.2l-1.8-0.2l0.4-2.8L116.9,229.3z"/>
		<path class="st3" d="M144.5,237.3c0.1,0.3,0.2,0.7,0.1,1c-0.1,0.4-0.2,0.9-0.6,1.2c-0.3,0.3-0.7,0.5-1.3,0.7
			c-0.5,0.1-1.1,0.1-1.7,0.1c-0.7-0.1-1.2-0.2-1.6-0.5c-0.4-0.2-0.8-0.6-1-1c-0.2-0.4-0.3-0.8-0.2-1.3c0.1-0.4,0.1-0.7,0.4-1
			c0.2-0.3,0.5-0.4,0.9-0.7c-0.2-0.2-0.4-0.4-0.5-0.7c-0.1-0.3-0.1-0.6-0.1-0.9c0.1-0.4,0.2-0.8,0.5-1.1c0.3-0.3,0.7-0.5,1.1-0.6
			c0.4-0.1,1-0.1,1.6-0.1c0.6,0.1,1.1,0.2,1.6,0.4c0.4,0.2,0.7,0.5,1,0.9c0.2,0.4,0.3,0.7,0.2,1.2c-0.1,0.3-0.1,0.6-0.3,0.8
			s-0.4,0.4-0.7,0.6C144.2,236.7,144.4,237,144.5,237.3z M142.2,238.6c0.2-0.1,0.4-0.4,0.4-0.7c0-0.3,0-0.5-0.2-0.7
			c-0.1-0.2-0.4-0.3-0.8-0.4c-0.4-0.1-0.6,0-0.8,0.1c-0.2,0.1-0.4,0.4-0.4,0.7c-0.1,0.3,0,0.5,0.2,0.7c0.1,0.2,0.4,0.3,0.8,0.4
			C141.6,238.7,141.9,238.7,142.2,238.6z M141.3,234.1c-0.1,0.1-0.3,0.3-0.3,0.5c0,0.2,0,0.4,0.1,0.6c0.1,0.1,0.4,0.2,0.6,0.3
			c0.3,0,0.5,0,0.7-0.1c0.1-0.1,0.3-0.3,0.3-0.5s0-0.4-0.1-0.6c-0.1-0.1-0.4-0.2-0.6-0.3C141.6,233.9,141.4,233.9,141.3,234.1z"/>
		<path class="st3" d="M172.1,237.3c0.5,0.7,0.7,1.6,0.6,2.9c-0.1,0.9-0.4,1.6-0.8,2.2c-0.4,0.6-1,1-1.6,1.3
			c-0.7,0.2-1.3,0.3-2.2,0.2c-0.4-0.1-0.8-0.1-1.2-0.3c-0.4-0.1-0.7-0.3-1-0.5l1-1.4c0.3,0.3,0.7,0.5,1.3,0.6c0.5,0.1,1,0,1.3-0.3
			c0.4-0.2,0.6-0.7,0.7-1.2c-0.4,0.3-1,0.4-1.8,0.3c-0.4-0.1-0.9-0.2-1.3-0.4c-0.4-0.2-0.7-0.6-0.8-1c-0.1-0.4-0.2-0.8-0.2-1.3
			c0.1-0.5,0.2-1,0.6-1.3c0.3-0.4,0.7-0.6,1.2-0.7c0.4-0.1,1-0.2,1.6-0.1C170.7,236.1,171.5,236.5,172.1,237.3z M170.2,239.3
			c0.2-0.1,0.4-0.4,0.4-0.7c0-0.3,0-0.5-0.2-0.7c-0.1-0.2-0.4-0.3-0.7-0.4c-0.3-0.1-0.5,0-0.7,0.1c-0.2,0.1-0.4,0.4-0.4,0.7
			c0,0.3,0,0.5,0.2,0.7c0.1,0.2,0.4,0.3,0.7,0.4C169.6,239.4,169.9,239.4,170.2,239.3z"/>
		<path class="st3" d="M195,239.4l-1,7.5l-2.2-0.3l0.7-5.9l-1.4-0.1l0.2-1.6L195,239.4z"/>
		<path class="st3" d="M196.7,246.9c-0.4-0.4-0.8-0.9-1-1.5c-0.2-0.6-0.2-1.3-0.1-2.2c0.1-0.8,0.4-1.5,0.7-2c0.4-0.5,0.8-1,1.3-1.2
			c0.5-0.2,1.1-0.3,1.8-0.2c0.7,0.1,1.2,0.3,1.6,0.7c0.4,0.4,0.8,0.9,1,1.5c0.2,0.6,0.2,1.3,0.1,2.2c-0.1,0.8-0.4,1.5-0.7,2
			c-0.4,0.5-0.8,1-1.3,1.2c-0.5,0.2-1.1,0.3-1.8,0.2C197.8,247.5,197.2,247.3,196.7,246.9z M199.6,245.5c0.2-0.3,0.4-0.8,0.5-1.6
			c0.1-0.7,0.1-1.3-0.1-1.7c-0.1-0.4-0.4-0.6-0.8-0.6c-0.4-0.1-0.7,0.1-1,0.4c-0.2,0.3-0.4,0.9-0.5,1.6c-0.1,0.7-0.1,1.3,0.1,1.7
			c0.1,0.4,0.4,0.6,0.8,0.7C199,246,199.3,245.8,199.6,245.5z"/>
		<path class="st3" d="M226.2,243.4l-1,7.5l-2.2-0.3l0.7-5.9l-1.4-0.1l0.2-1.6L226.2,243.4z"/>
		<path class="st3" d="M230.5,244l-1,7.5l-2.2-0.3l0.7-5.9l-1.4-0.1l0.2-1.6L230.5,244z"/>
		<path class="st4" d="M52.3,239.1l-1,7.5l-2.2-0.3l0.7-5.9l-1.4-0.1l0.2-1.6L52.3,239.1z"/>
		<path class="st4" d="M58.5,245.8l-0.2,1.7l-5.9-0.7l0.1-1.3l3.1-2.2c0.3-0.2,0.5-0.4,0.6-0.6c0.1-0.1,0.1-0.4,0.2-0.5
			c0-0.2,0-0.4-0.1-0.6c-0.1-0.1-0.4-0.2-0.7-0.3c-0.3,0-0.5,0-0.8,0.1c-0.2,0.1-0.4,0.2-0.7,0.4l-1.5-1.1c0.4-0.4,0.8-0.7,1.4-1
			c0.6-0.2,1.2-0.3,1.9-0.1c0.6,0.1,1,0.2,1.5,0.4c0.4,0.2,0.7,0.5,0.9,1c0.2,0.4,0.3,0.8,0.2,1.3c-0.1,0.4-0.2,0.7-0.4,1.1
			c-0.2,0.4-0.6,0.7-1.2,1.1l-1.6,1.1L58.5,245.8z"/>
		<path class="st3" d="M80.4,242.8l-1,7.5l-2.2-0.3l0.7-5.9l-1.4-0.1l0.2-1.6L80.4,242.8z"/>
		<path class="st3" d="M86.3,247.4c0.3,0.4,0.4,0.9,0.3,1.5c-0.1,0.4-0.2,0.8-0.5,1.2c-0.3,0.4-0.7,0.6-1.2,0.7
			c-0.5,0.1-1.1,0.2-1.9,0.1c-0.5-0.1-1-0.2-1.6-0.4c-0.5-0.2-0.9-0.4-1.3-0.7l1-1.5c0.3,0.2,0.6,0.4,1,0.6c0.4,0.1,0.7,0.2,1,0.3
			c0.4,0.1,0.7,0,0.9-0.1c0.2-0.1,0.4-0.3,0.4-0.5c0.1-0.5-0.3-0.7-1-0.9l-0.9-0.1l0.1-1.3l1.6-1.3l-3-0.4l0.2-1.6l5.4,0.7l-0.1,1.3
			l-1.8,1.5C85.6,246.6,86.1,246.9,86.3,247.4z"/>
		<path class="st3" d="M108.6,246.4l-1,7.5l-2.2-0.3l0.7-5.9l-1.4-0.1l0.2-1.6L108.6,246.4z"/>
		<path class="st3" d="M116,253.6l-1.1-0.1l-0.2,1.4l-2.1-0.3l0.2-1.4l-3.9-0.5l0.1-1.4l3.9-4.2l2.2,0.3l-3.6,4l1.5,0.2l0.1-1.3
			l2,0.2l-0.1,1.3l1.1,0.1L116,253.6z"/>
		<path class="st3" d="M136.5,250l-1,7.5l-2.2-0.3l0.7-5.9l-1.4-0.1l0.2-1.6L136.5,250z"/>
		<path class="st3" d="M142.3,254.2c0.4,0.5,0.6,1.1,0.5,1.8c-0.1,0.4-0.2,0.9-0.5,1.3c-0.3,0.4-0.7,0.6-1.2,0.8
			c-0.5,0.1-1.1,0.2-1.9,0.1c-0.5-0.1-1-0.2-1.6-0.4c-0.5-0.2-0.9-0.4-1.3-0.7l1-1.5c0.3,0.2,0.6,0.4,1,0.6c0.4,0.1,0.7,0.2,1,0.3
			c0.4,0.1,0.7,0,0.9-0.1c0.2-0.1,0.4-0.3,0.4-0.5s-0.1-0.4-0.2-0.6c-0.2-0.1-0.6-0.3-1.1-0.4l-2-0.3l1-4.3l4.8,0.6l-0.2,1.6
			l-3.1-0.4l-0.2,1.1l0.5,0.1C141.1,253.4,141.9,253.7,142.3,254.2z"/>
		<path class="st3" d="M164.6,253.6l-1,7.5l-2.2-0.3l0.7-5.9l-1.4-0.1l0.2-1.6L164.6,253.6z"/>
		<path class="st3" d="M170.5,257.5c0.4,0.2,0.7,0.6,0.8,1c0.1,0.4,0.2,0.8,0.2,1.3c-0.1,0.5-0.2,1-0.6,1.3
			c-0.3,0.4-0.7,0.6-1.2,0.7c-0.4,0.1-1,0.2-1.6,0.1c-1-0.1-1.9-0.6-2.4-1.3c-0.5-0.7-0.7-1.6-0.6-2.9c0.1-0.9,0.4-1.6,0.8-2.2
			c0.4-0.6,1-1,1.6-1.3c0.7-0.2,1.3-0.3,2.2-0.2c0.4,0.1,0.8,0.1,1.2,0.3c0.4,0.1,0.7,0.3,1,0.5l-1,1.4c-0.3-0.3-0.7-0.5-1.3-0.6
			c-0.5-0.1-1,0-1.4,0.3c-0.4,0.2-0.6,0.7-0.7,1.2c0.4-0.3,1-0.4,1.8-0.4C169.6,257.1,170.1,257.2,170.5,257.5z M169,260.2
			c0.2-0.1,0.4-0.4,0.4-0.7c0-0.3,0-0.5-0.2-0.7c-0.1-0.2-0.4-0.3-0.7-0.4c-0.3-0.1-0.6,0-0.8,0.1c-0.2,0.1-0.4,0.4-0.4,0.7
			c0,0.3,0,0.5,0.2,0.7c0.1,0.2,0.4,0.3,0.7,0.4C168.5,260.4,168.8,260.3,169,260.2z"/>
		<path class="st3" d="M192.6,257.3l-1,7.5l-2.2-0.3l0.7-5.9l-1.4-0.1l0.2-1.6L192.6,257.3z"/>
		<path class="st3" d="M199.8,258.3l-0.1,1.3l-3.4,5.8l-2.3-0.3l3.3-5.5l-2-0.2l-0.1,1.2l-1.8-0.2l0.4-2.8L199.8,258.3z"/>
		<path class="st3" d="M221.5,261l-1,7.5l-2.2-0.3l0.7-5.9l-1.4-0.1l0.2-1.6L221.5,261z"/>
		<path class="st3" d="M228.3,266.3c0.1,0.3,0.2,0.7,0.1,1c-0.1,0.4-0.2,0.9-0.6,1.2c-0.3,0.3-0.7,0.5-1.3,0.7
			c-0.5,0.1-1.1,0.1-1.7,0.1c-0.7-0.1-1.2-0.2-1.6-0.5c-0.4-0.2-0.8-0.6-1-1c-0.2-0.4-0.3-0.8-0.2-1.3c0.1-0.4,0.1-0.7,0.4-1
			c0.2-0.3,0.5-0.4,0.9-0.7c-0.2-0.2-0.4-0.4-0.5-0.7c-0.1-0.3-0.1-0.6-0.1-0.9c0.1-0.4,0.2-0.8,0.5-1.1c0.3-0.3,0.7-0.5,1.2-0.6
			c0.4-0.1,1-0.1,1.6-0.1c0.6,0.1,1.1,0.2,1.6,0.4c0.4,0.2,0.7,0.5,1,0.9c0.2,0.4,0.3,0.7,0.2,1.2c-0.1,0.3-0.1,0.6-0.3,0.8
			s-0.4,0.4-0.7,0.6C227.9,265.7,228.2,266,228.3,266.3z M225.9,267.6c0.2-0.1,0.4-0.4,0.4-0.7c0-0.3,0-0.5-0.2-0.7
			c-0.1-0.2-0.4-0.3-0.8-0.4c-0.4-0.1-0.6,0-0.8,0.1c-0.2,0.1-0.4,0.4-0.4,0.7c0,0.3,0,0.5,0.2,0.7c0.1,0.2,0.4,0.3,0.8,0.4
			C225.4,267.8,225.7,267.8,225.9,267.6z M225,263.1c-0.1,0.1-0.3,0.3-0.3,0.5s0,0.4,0.1,0.6c0.1,0.1,0.4,0.2,0.6,0.3
			c0.3,0,0.5,0,0.7-0.1c0.1-0.1,0.3-0.3,0.3-0.5s0-0.4-0.1-0.6s-0.4-0.2-0.6-0.3C225.4,262.9,225.2,262.9,225,263.1z"/>
		<path class="st4" d="M50.1,257l-1,7.5l-2.2-0.3l0.7-5.9l-1.4-0.1l0.2-1.6L50.1,257z"/>
		<path class="st4" d="M56.4,258.6c0.5,0.7,0.7,1.6,0.6,2.9c-0.1,0.9-0.4,1.6-0.8,2.2c-0.4,0.6-1,1-1.6,1.2
			c-0.7,0.2-1.3,0.3-2.2,0.2c-0.4-0.1-0.8-0.1-1.2-0.3c-0.4-0.1-0.7-0.3-1-0.5l1-1.4c0.3,0.3,0.7,0.5,1.3,0.6c0.5,0.1,1,0,1.3-0.3
			c0.4-0.2,0.6-0.7,0.7-1.2c-0.4,0.3-1,0.4-1.8,0.3c-0.4-0.1-0.9-0.2-1.3-0.4c-0.4-0.2-0.7-0.6-0.8-1c-0.1-0.4-0.2-0.8-0.2-1.3
			c0.1-0.5,0.2-1,0.6-1.3c0.3-0.4,0.7-0.6,1.2-0.7c0.4-0.1,1-0.2,1.6-0.1C55.1,257.5,55.9,258,56.4,258.6z M54.5,260.6
			c0.2-0.1,0.4-0.4,0.4-0.7c0-0.3,0-0.5-0.2-0.7c-0.1-0.2-0.4-0.3-0.7-0.4c-0.3-0.1-0.6,0-0.7,0.1c-0.2,0.1-0.4,0.4-0.4,0.7
			c0,0.3,0,0.5,0.2,0.7c0.1,0.2,0.4,0.3,0.7,0.4C54.1,260.9,54.3,260.8,54.5,260.6z"/>
		<path class="st3" d="M80.3,266.9l-0.2,1.7l-5.9-0.7l0.1-1.3l3.1-2.2c0.3-0.2,0.5-0.4,0.7-0.6c0.1-0.1,0.1-0.4,0.2-0.5
			c0-0.2,0-0.4-0.1-0.6c-0.1-0.1-0.4-0.2-0.7-0.3c-0.3,0-0.5,0-0.8,0.1c-0.2,0.1-0.4,0.2-0.7,0.4l-1.5-1.1c0.4-0.4,0.8-0.7,1.4-1
			c0.6-0.2,1.2-0.3,1.9-0.1c0.6,0.1,1,0.2,1.5,0.4c0.4,0.2,0.7,0.5,0.9,1c0.2,0.4,0.3,0.8,0.2,1.3c-0.1,0.4-0.2,0.7-0.4,1.1
			c-0.2,0.4-0.6,0.7-1.2,1.1l-1.6,1.1L80.3,266.9z"/>
		<path class="st3" d="M82.4,268.5c-0.4-0.4-0.8-0.9-1-1.5c-0.2-0.6-0.2-1.3-0.1-2.2c0.1-0.8,0.4-1.5,0.7-2c0.4-0.5,0.8-1,1.3-1.2
			c0.5-0.2,1.1-0.3,1.8-0.2c0.7,0.1,1.2,0.3,1.6,0.7c0.4,0.4,0.8,0.9,1,1.5c0.2,0.6,0.2,1.3,0.1,2.2c-0.1,0.8-0.4,1.5-0.7,2
			c-0.4,0.5-0.8,1-1.3,1.2c-0.5,0.2-1.1,0.3-1.8,0.2C83.4,269.1,82.8,268.9,82.4,268.5z M85.2,267c0.2-0.3,0.4-0.8,0.5-1.6
			c0.1-0.7,0.1-1.3-0.1-1.7c-0.1-0.4-0.4-0.6-0.8-0.6c-0.4-0.1-0.7,0.1-0.9,0.4c-0.2,0.3-0.4,0.8-0.5,1.6c-0.1,0.7-0.1,1.3,0.1,1.7
			c0.1,0.4,0.4,0.6,0.8,0.6C84.6,267.5,84.9,267.4,85.2,267z"/>
		<path class="st3" d="M108,270.5l-0.2,1.7l-5.9-0.7l0.1-1.3l3.1-2.2c0.3-0.2,0.5-0.4,0.7-0.6c0.1-0.1,0.1-0.4,0.2-0.5
			c0-0.2,0-0.4-0.1-0.6c-0.1-0.1-0.4-0.2-0.7-0.3c-0.3,0-0.5,0-0.8,0.1c-0.2,0.1-0.4,0.2-0.7,0.4l-1.5-1.1c0.4-0.4,0.8-0.7,1.4-1
			c0.6-0.2,1.2-0.3,1.9-0.1c0.6,0.1,1,0.2,1.5,0.4c0.4,0.2,0.7,0.5,0.9,1c0.2,0.4,0.3,0.8,0.2,1.3c-0.1,0.4-0.2,0.7-0.4,1.1
			c-0.2,0.4-0.6,0.7-1.2,1.1l-1.6,1.1L108,270.5z"/>
		<path class="st3" d="M112.5,265.1l-1,7.5l-2.2-0.3l0.7-5.9l-1.4-0.1l0.2-1.6L112.5,265.1z"/>
		<path class="st3" d="M136.3,274.1l-0.2,1.7l-5.9-0.7l0.1-1.3l3.1-2.2c0.3-0.2,0.5-0.4,0.6-0.6c0.1-0.1,0.1-0.4,0.2-0.5
			c0-0.2,0-0.4-0.1-0.6s-0.4-0.2-0.7-0.3c-0.3,0-0.5,0-0.8,0.1c-0.2,0.1-0.4,0.2-0.7,0.4l-1.5-1.1c0.4-0.4,0.8-0.7,1.4-1
			s1.2-0.3,1.9-0.1c0.6,0.1,1,0.2,1.5,0.4c0.4,0.2,0.7,0.5,0.9,1c0.2,0.4,0.3,0.8,0.2,1.3c-0.1,0.4-0.2,0.7-0.4,1.1
			c-0.2,0.4-0.6,0.7-1.2,1.1l-1.6,1.1L136.3,274.1z"/>
		<path class="st3" d="M142.7,274.9l-0.2,1.7l-5.9-0.7l0.1-1.3l3.1-2.2c0.3-0.2,0.5-0.4,0.7-0.6c0.1-0.1,0.2-0.4,0.2-0.5
			c0-0.2,0-0.4-0.1-0.6c-0.1-0.1-0.4-0.2-0.7-0.3c-0.3,0-0.5,0-0.8,0.1c-0.2,0.1-0.4,0.2-0.7,0.4l-1.5-1.1c0.4-0.4,0.8-0.7,1.4-1
			c0.6-0.2,1.2-0.3,1.9-0.1c0.6,0.1,1,0.2,1.5,0.4c0.4,0.2,0.7,0.5,0.9,1c0.2,0.4,0.3,0.8,0.2,1.3c-0.1,0.4-0.2,0.7-0.4,1.1
			c-0.2,0.4-0.6,0.7-1.2,1.1l-1.6,1.1L142.7,274.9z"/>
		<path class="st3" d="M164.3,277.8l-0.2,1.7l-5.9-0.7l0.1-1.3l3.1-2.2c0.3-0.2,0.5-0.4,0.7-0.6c0.1-0.1,0.2-0.4,0.2-0.5
			c0-0.2,0-0.4-0.1-0.6c-0.1-0.1-0.4-0.2-0.7-0.3c-0.3,0-0.5,0-0.8,0.1c-0.2,0.1-0.4,0.2-0.7,0.4l-1.5-1.1c0.4-0.4,0.8-0.7,1.4-1
			s1.2-0.3,1.9-0.1c0.6,0.1,1,0.2,1.5,0.4c0.4,0.2,0.7,0.5,0.9,1c0.2,0.4,0.3,0.8,0.2,1.3c-0.1,0.4-0.2,0.7-0.4,1.1
			c-0.2,0.4-0.6,0.7-1.2,1.1l-1.6,1.1L164.3,277.8z"/>
		<path class="st3" d="M170.5,276.4c0.3,0.4,0.4,0.9,0.3,1.5c-0.1,0.4-0.2,0.8-0.5,1.2c-0.3,0.4-0.7,0.6-1.2,0.7
			c-0.5,0.1-1.1,0.2-1.9,0.1c-0.5-0.1-1-0.2-1.6-0.4c-0.5-0.2-0.9-0.4-1.3-0.7l1-1.5c0.3,0.2,0.6,0.4,1,0.6c0.4,0.1,0.7,0.2,1,0.3
			c0.4,0.1,0.7,0,0.9-0.1c0.2-0.1,0.4-0.3,0.4-0.5c0.1-0.5-0.3-0.7-1-0.9l-0.9-0.1l0.1-1.3l1.6-1.3l-3-0.4l0.2-1.6l5.4,0.7l-0.1,1.3
			l-1.8,1.5C169.7,275.7,170.2,276.1,170.5,276.4z"/>
		<path class="st3" d="M192.4,281.4l-0.2,1.7l-5.9-0.7l0.1-1.3l3.1-2.2c0.3-0.2,0.5-0.4,0.7-0.6c0.1-0.1,0.2-0.4,0.2-0.5
			c0-0.2,0-0.4-0.1-0.6s-0.4-0.2-0.7-0.3c-0.3,0-0.5,0-0.8,0.1c-0.2,0.1-0.4,0.2-0.7,0.4l-1.5-1.1c0.4-0.4,0.8-0.7,1.4-1
			c0.6-0.2,1.2-0.3,1.9-0.1c0.6,0.1,1,0.2,1.5,0.4c0.4,0.2,0.7,0.5,0.9,1c0.2,0.4,0.3,0.8,0.2,1.3c-0.1,0.4-0.2,0.7-0.4,1.1
			c-0.2,0.4-0.6,0.7-1.2,1.1l-1.6,1.1L192.4,281.4z"/>
		<path class="st3" d="M200.1,282.6l-1.1-0.1l-0.2,1.4l-2.1-0.3l0.2-1.4l-3.9-0.5l0.1-1.4l3.9-4.2l2.2,0.3l-3.6,4l1.5,0.2l0.1-1.3
			l2,0.2l-0.1,1.3l1.1,0.1L200.1,282.6z"/>
		<path class="st3" d="M220.3,285l-0.2,1.7l-5.9-0.7l0.1-1.3l3.1-2.2c0.3-0.2,0.5-0.4,0.7-0.6s0.2-0.4,0.2-0.5c0-0.2,0-0.4-0.1-0.6
			c-0.1-0.1-0.4-0.2-0.7-0.3c-0.3,0-0.5,0-0.8,0.1c-0.2,0.1-0.4,0.2-0.7,0.4l-1.5-1.1c0.4-0.4,0.8-0.7,1.4-1
			c0.6-0.2,1.2-0.3,1.9-0.1c0.6,0.1,1,0.2,1.5,0.4c0.4,0.2,0.7,0.5,0.9,1c0.2,0.4,0.3,0.8,0.2,1.3c-0.1,0.4-0.2,0.7-0.4,1.1
			c-0.2,0.4-0.6,0.7-1.2,1.1l-1.6,1.1L220.3,285z"/>
		<path class="st3" d="M226.5,283.3c0.4,0.5,0.6,1.1,0.5,1.8c-0.1,0.4-0.2,0.9-0.5,1.3c-0.3,0.4-0.7,0.6-1.2,0.8
			c-0.5,0.1-1.1,0.2-1.9,0.1c-0.5-0.1-1-0.2-1.6-0.4c-0.5-0.2-0.9-0.4-1.3-0.7l1-1.5c0.3,0.2,0.6,0.4,1,0.6c0.4,0.1,0.7,0.2,1,0.3
			c0.4,0.1,0.7,0,0.9-0.1c0.2-0.1,0.4-0.3,0.4-0.5c0-0.2-0.1-0.4-0.2-0.6c-0.2-0.1-0.6-0.3-1.1-0.4l-2-0.3l1-4.3l4.8,0.6l-0.2,1.6
			l-3.1-0.4l-0.2,1.1l0.5,0.1C225.3,282.5,226,282.8,226.5,283.3z"/>
		<path class="st4" d="M49.9,281.1l-0.2,1.7l-5.9-0.7l0.1-1.3l3.1-2.2c0.3-0.2,0.5-0.4,0.6-0.6c0.1-0.1,0.2-0.4,0.2-0.5
			c0-0.2,0-0.4-0.1-0.6c-0.1-0.1-0.4-0.2-0.7-0.3c-0.3,0-0.5,0-0.8,0.1c-0.2,0.1-0.4,0.2-0.7,0.4l-1.5-1.1c0.4-0.4,0.8-0.7,1.4-1
			c0.6-0.2,1.2-0.3,1.9-0.1c0.6,0.1,1,0.2,1.5,0.4c0.4,0.2,0.7,0.5,0.9,1c0.2,0.4,0.3,0.8,0.2,1.3c-0.1,0.4-0.2,0.7-0.4,1.1
			c-0.2,0.4-0.6,0.7-1.2,1.1l-1.6,1.1L49.9,281.1z"/>
		<path class="st4" d="M56.1,279c0.4,0.2,0.7,0.6,0.8,1c0.1,0.4,0.2,0.8,0.2,1.3c-0.1,0.5-0.2,1-0.6,1.3c-0.3,0.4-0.7,0.6-1.2,0.7
			c-0.4,0.1-1,0.2-1.6,0.1c-1-0.1-1.9-0.6-2.5-1.3c-0.5-0.7-0.7-1.6-0.6-2.9c0.1-0.9,0.4-1.6,0.8-2.2c0.4-0.6,1-1,1.6-1.2
			c0.7-0.2,1.3-0.3,2.2-0.2c0.4,0.1,0.8,0.1,1.2,0.3c0.4,0.1,0.7,0.3,1,0.5l-1,1.4c-0.3-0.3-0.7-0.5-1.3-0.6c-0.5-0.1-1,0-1.4,0.3
			c-0.4,0.2-0.6,0.7-0.7,1.2c0.4-0.3,1-0.4,1.8-0.4C55.2,278.7,55.7,278.8,56.1,279z M54.6,281.8c0.2-0.1,0.4-0.4,0.4-0.7
			c0-0.3,0-0.5-0.2-0.7c-0.1-0.2-0.4-0.3-0.7-0.4c-0.3-0.1-0.6,0-0.8,0.1c-0.2,0.1-0.4,0.4-0.4,0.7c0,0.3,0,0.5,0.2,0.7
			c0.1,0.2,0.4,0.3,0.7,0.4C54.1,282,54.4,281.9,54.6,281.8z"/>
		<path class="st3" d="M77.9,284.8l-0.2,1.7l-5.9-0.7l0.1-1.3l3.1-2.2c0.3-0.2,0.5-0.4,0.6-0.6c0.1-0.1,0.2-0.4,0.2-0.5
			c0-0.2,0-0.4-0.1-0.6c-0.1-0.1-0.4-0.2-0.7-0.3c-0.3,0-0.5,0-0.8,0.1c-0.2,0.1-0.4,0.2-0.7,0.4l-1.5-1.1c0.4-0.4,0.8-0.7,1.4-1
			s1.2-0.3,1.9-0.1c0.6,0.1,1,0.2,1.5,0.4c0.4,0.2,0.7,0.5,0.9,1c0.2,0.4,0.3,0.8,0.2,1.3c-0.1,0.4-0.2,0.7-0.4,1.1
			c-0.2,0.4-0.6,0.7-1.2,1.1l-1.6,1.1L77.9,284.8z"/>
		<path class="st3" d="M85.4,279.8l-0.1,1.3l-3.4,5.8l-2.3-0.3l3.3-5.5l-1.9-0.2l-0.1,1.2l-1.8-0.2l0.4-2.8L85.4,279.8z"/>
		<path class="st3" d="M106,288.4l-0.2,1.7l-5.9-0.7l0.1-1.3l3.1-2.2c0.3-0.2,0.5-0.4,0.7-0.6c0.1-0.1,0.2-0.4,0.2-0.5
			c0-0.2,0-0.4-0.1-0.6c-0.1-0.1-0.4-0.2-0.7-0.3c-0.3,0-0.5,0-0.8,0.1c-0.2,0.1-0.4,0.2-0.7,0.4l-1.5-1.1c0.4-0.4,0.8-0.7,1.4-1
			c0.6-0.2,1.2-0.3,1.9-0.1c0.6,0.1,1,0.2,1.5,0.4c0.4,0.2,0.7,0.5,0.9,1c0.2,0.4,0.3,0.8,0.2,1.3c-0.1,0.4-0.2,0.7-0.4,1.1
			c-0.2,0.4-0.6,0.7-1.2,1.1l-1.6,1.1L106,288.4z"/>
		<path class="st3" d="M113,287.7c0.1,0.3,0.2,0.7,0.1,1c-0.1,0.4-0.2,0.9-0.6,1.2c-0.3,0.3-0.7,0.5-1.3,0.7
			c-0.5,0.1-1.1,0.1-1.7,0.1c-0.7-0.1-1.2-0.2-1.6-0.5c-0.4-0.2-0.8-0.6-1-1c-0.2-0.4-0.3-0.8-0.2-1.3c0.1-0.4,0.1-0.7,0.4-1
			c0.2-0.3,0.5-0.4,0.9-0.7c-0.2-0.2-0.4-0.4-0.5-0.7c-0.1-0.3-0.1-0.6-0.1-0.9c0.1-0.4,0.2-0.8,0.5-1.1c0.3-0.3,0.7-0.5,1.2-0.6
			c0.4-0.1,1-0.1,1.6-0.1c0.6,0.1,1.1,0.2,1.5,0.4c0.4,0.2,0.7,0.5,1,0.9c0.2,0.4,0.3,0.7,0.2,1.2c-0.1,0.3-0.1,0.6-0.3,0.8
			c-0.1,0.2-0.4,0.4-0.7,0.6C112.7,287.1,112.9,287.4,113,287.7z M110.7,289.1c0.2-0.1,0.4-0.4,0.4-0.7c0-0.3,0-0.5-0.2-0.7
			c-0.1-0.2-0.4-0.3-0.8-0.4s-0.6,0-0.8,0.1c-0.2,0.1-0.4,0.4-0.4,0.7c-0.1,0.3,0,0.5,0.2,0.7c0.1,0.2,0.4,0.3,0.8,0.4
			C110.1,289.2,110.4,289.2,110.7,289.1z M109.8,284.5c-0.1,0.1-0.3,0.3-0.3,0.5c0,0.2,0,0.4,0.1,0.6c0.1,0.1,0.4,0.2,0.6,0.3
			c0.3,0,0.5,0,0.7-0.1c0.1-0.1,0.3-0.3,0.3-0.5c0-0.2,0-0.4-0.1-0.6c-0.1-0.1-0.4-0.2-0.6-0.3C110.1,284.4,109.9,284.4,109.8,284.5
			z"/>
		<path class="st3" d="M134,292l-0.2,1.7l-5.9-0.7l0.1-1.3l3.1-2.2c0.3-0.2,0.5-0.4,0.7-0.6c0.1-0.1,0.2-0.4,0.2-0.5
			c0-0.2,0-0.4-0.1-0.6c-0.1-0.1-0.4-0.2-0.7-0.3c-0.3,0-0.5,0-0.8,0.1c-0.2,0.1-0.4,0.2-0.7,0.4l-1.5-1.1c0.4-0.4,0.8-0.7,1.4-1
			s1.2-0.3,1.9-0.1c0.6,0.1,1,0.2,1.5,0.4c0.4,0.2,0.7,0.5,0.9,1c0.2,0.4,0.3,0.8,0.2,1.3c-0.1,0.4-0.2,0.7-0.4,1.1
			c-0.2,0.4-0.6,0.7-1.2,1.1l-1.6,1.1L134,292z"/>
		<path class="st3" d="M140.6,287.7c0.5,0.7,0.7,1.6,0.6,2.9c-0.1,0.9-0.4,1.6-0.8,2.2c-0.4,0.6-1,1-1.6,1.3
			c-0.7,0.2-1.3,0.3-2.2,0.2c-0.4-0.1-0.8-0.1-1.2-0.3c-0.4-0.1-0.7-0.3-1-0.5l1-1.4c0.3,0.3,0.7,0.5,1.3,0.6c0.5,0.1,1,0,1.3-0.3
			c0.4-0.2,0.6-0.7,0.7-1.2c-0.4,0.3-1,0.4-1.8,0.3c-0.4-0.1-0.9-0.2-1.3-0.4c-0.4-0.2-0.7-0.6-0.8-1c-0.1-0.4-0.2-0.8-0.2-1.3
			c0.1-0.5,0.2-1,0.6-1.3c0.3-0.4,0.7-0.6,1.2-0.7c0.4-0.1,1-0.2,1.6-0.1C139.2,286.6,140,287,140.6,287.7z M138.7,289.8
			c0.2-0.1,0.4-0.4,0.4-0.7c0-0.3,0-0.5-0.2-0.7c-0.1-0.2-0.4-0.3-0.7-0.4c-0.3-0.1-0.6,0-0.7,0.1c-0.2,0.1-0.4,0.4-0.4,0.7
			c0,0.3,0,0.5,0.2,0.7c0.1,0.2,0.4,0.3,0.7,0.4C138.1,289.9,138.4,289.9,138.7,289.8z"/>
		<path class="st3" d="M161.8,293.6c0.3,0.4,0.4,0.9,0.3,1.5c-0.1,0.4-0.2,0.8-0.5,1.2c-0.3,0.4-0.7,0.6-1.2,0.7s-1.1,0.2-1.9,0.1
			c-0.5-0.1-1-0.2-1.6-0.4c-0.5-0.2-0.9-0.4-1.3-0.7l1-1.5c0.3,0.2,0.6,0.4,1,0.6c0.4,0.1,0.7,0.2,1,0.3c0.4,0.1,0.7,0,0.9-0.1
			c0.2-0.1,0.4-0.3,0.4-0.5c0.1-0.5-0.3-0.7-1-0.9l-0.9-0.1l0.1-1.3l1.6-1.3l-3-0.4l0.2-1.6l5.4,0.7l-0.1,1.3l-1.8,1.5
			C161.1,292.8,161.5,293.1,161.8,293.6z"/>
		<path class="st3" d="M164.2,297.3c-0.4-0.4-0.8-0.9-1-1.5c-0.2-0.6-0.2-1.3-0.1-2.2c0.1-0.8,0.4-1.5,0.7-2c0.4-0.5,0.8-1,1.3-1.2
			c0.5-0.2,1.1-0.3,1.8-0.2c0.7,0.1,1.2,0.3,1.6,0.7c0.4,0.4,0.8,0.9,1,1.5c0.2,0.6,0.2,1.3,0.1,2.2c-0.1,0.8-0.4,1.5-0.7,2
			c-0.4,0.5-0.8,1-1.3,1.2c-0.5,0.2-1.1,0.3-1.8,0.2S164.6,297.7,164.2,297.3z M166.9,295.9c0.2-0.3,0.4-0.8,0.5-1.6
			c0.1-0.7,0.1-1.3-0.1-1.7c-0.1-0.4-0.4-0.6-0.8-0.6c-0.4-0.1-0.7,0.1-1,0.4c-0.2,0.3-0.4,0.8-0.5,1.6c-0.1,0.7-0.1,1.3,0.1,1.7
			c0.1,0.4,0.4,0.6,0.8,0.7C166.4,296.3,166.7,296.2,166.9,295.9z"/>
		<path class="st3" d="M189.4,297.1c0.3,0.4,0.4,0.9,0.3,1.5c-0.1,0.4-0.2,0.8-0.5,1.2c-0.3,0.4-0.7,0.6-1.2,0.7
			c-0.5,0.1-1.1,0.2-1.9,0.1c-0.5-0.1-1-0.2-1.6-0.4c-0.5-0.2-0.9-0.4-1.3-0.7l1-1.5c0.3,0.2,0.6,0.4,1,0.6c0.4,0.1,0.7,0.2,1,0.3
			c0.4,0.1,0.7,0,0.9-0.1c0.2-0.1,0.4-0.3,0.4-0.5c0.1-0.5-0.3-0.7-1-0.9l-0.9-0.1l0.1-1.3l1.6-1.3l-3-0.4l0.2-1.6l5.4,0.7l-0.1,1.3
			l-1.8,1.5C188.8,296.4,189.2,296.7,189.4,297.1z"/>
		<path class="st3" d="M194.4,293.9l-1,7.5l-2.2-0.3l0.7-5.9l-1.4-0.1l0.2-1.6L194.4,293.9z"/>
		<path class="st5" d="M82.7,152c-0.4,3.5-3.6,6-7.2,5.6c-3.5-0.4-6-3.6-5.6-7.2c0.4-3.5,3.7-6,7.2-5.6
			C80.6,145.2,83.1,148.5,82.7,152z"/>
		<path class="st5" d="M119.7,156.8c-0.4,3.5-3.7,6-7.2,5.6c-3.5-0.4-6-3.7-5.6-7.2c0.4-3.5,3.6-6,7.2-5.6
			C117.7,150.1,120.2,153.3,119.7,156.8z"/>
		<path class="st5" d="M156.8,161.6c-0.4,3.5-3.7,6-7.2,5.6c-3.5-0.4-6-3.7-5.6-7.2c0.4-3.5,3.7-6,7.2-5.6
			C154.8,154.8,157.3,158.1,156.8,161.6z"/>
		<path class="st5" d="M193.9,166.4c-0.4,3.5-3.7,6-7.2,5.6c-3.5-0.4-6-3.6-5.6-7.2c0.4-3.5,3.7-6,7.2-5.6
			C191.9,159.7,194.4,162.9,193.9,166.4z"/>
		<path class="st5" d="M231.1,171.2c-0.4,3.5-3.6,6-7.2,5.6c-3.5-0.4-6-3.7-5.6-7.2c0.4-3.5,3.7-6,7.2-5.6
			C229,164.4,231.5,167.7,231.1,171.2z"/>
		
			<linearGradient id="SVGID_3_" gradientUnits="userSpaceOnUse" x1="73.645" y1="358.8914" x2="81.4652" y2="358.8914" gradientTransform="matrix(1 0 0 -1 8.410366e-06 500.1102)">
			<stop  offset="0" style="stop-color:#C7B5FB"/>
			<stop  offset="1" style="stop-color:#907FCC"/>
		</linearGradient>
		<path class="st6" d="M76,152.8c-1.5-0.2-2.6-1.6-2.4-3.1l2.3-17.6c0.2-1.5,1.6-2.6,3.1-2.4c1.5,0.2,2.6,1.6,2.4,3.1l-2.3,17.6
			C78.9,151.9,77.6,153,76,152.8z"/>
		
			<linearGradient id="SVGID_4_" gradientUnits="userSpaceOnUse" x1="110.744" y1="354.1181" x2="118.5637" y2="354.1181" gradientTransform="matrix(1 0 0 -1 8.410366e-06 500.1102)">
			<stop  offset="0" style="stop-color:#C7B5FB"/>
			<stop  offset="1" style="stop-color:#907FCC"/>
		</linearGradient>
		<path class="st7" d="M113.2,157.6c-1.5-0.2-2.6-1.6-2.4-3.1l2.3-17.6c0.2-1.5,1.6-2.6,3.1-2.4c1.5,0.2,2.6,1.6,2.4,3.1l-2.3,17.6
			C116.1,156.7,114.7,157.8,113.2,157.6z"/>
		
			<linearGradient id="SVGID_5_" gradientUnits="userSpaceOnUse" x1="147.8425" y1="349.2847" x2="155.6622" y2="349.2847" gradientTransform="matrix(1 0 0 -1 8.410366e-06 500.1102)">
			<stop  offset="0" style="stop-color:#C7B5FB"/>
			<stop  offset="1" style="stop-color:#907FCC"/>
		</linearGradient>
		<path class="st8" d="M150.3,162.4c-1.5-0.2-2.6-1.6-2.4-3.1l2.3-17.6c0.2-1.5,1.6-2.6,3.1-2.4c1.5,0.2,2.6,1.6,2.4,3.1l-2.3,17.6
			C153.2,161.5,151.8,162.6,150.3,162.4z"/>
		
			<linearGradient id="SVGID_6_" gradientUnits="userSpaceOnUse" x1="184.943" y1="344.5107" x2="192.7631" y2="344.5107" gradientTransform="matrix(1 0 0 -1 8.410366e-06 500.1102)">
			<stop  offset="0" style="stop-color:#C7B5FB"/>
			<stop  offset="1" style="stop-color:#907FCC"/>
		</linearGradient>
		<path class="st9" d="M187.4,167.2c-1.5-0.2-2.6-1.6-2.4-3.1l2.3-17.6c0.2-1.5,1.6-2.6,3.1-2.4c1.5,0.2,2.6,1.6,2.4,3.1l-2.3,17.6
			C190.3,166.4,188.8,167.4,187.4,167.2z"/>
		
			<linearGradient id="SVGID_7_" gradientUnits="userSpaceOnUse" x1="222.04" y1="339.6783" x2="229.8597" y2="339.6783" gradientTransform="matrix(1 0 0 -1 8.410366e-06 500.1102)">
			<stop  offset="0" style="stop-color:#C7B5FB"/>
			<stop  offset="1" style="stop-color:#907FCC"/>
		</linearGradient>
		<path class="st10" d="M224.4,172c-1.5-0.2-2.6-1.6-2.4-3.1l2.3-17.6c0.2-1.5,1.6-2.6,3.1-2.4c1.5,0.2,2.6,1.6,2.4,3.1l-2.3,17.6
			C227.3,171.1,226,172.2,224.4,172z"/>
		<path class="st3" d="M60.4,181l-0.7-1.3l-1,1.1l-0.9-0.1l1.5-1.6l-1-1.9l0.9,0.1l0.7,1.2l0.9-1l0.9,0.1l-1.4,1.5l1.1,2L60.4,181z
			 M63.9,181.4l-0.7-1.3l-1,1.1l-0.9-0.1l1.5-1.6l-1-1.9l0.9,0.1l0.7,1.2l0.9-1l0.9,0.1l-1.4,1.5l1.1,2L63.9,181.4z M67.4,181.9
			l-0.7-1.3l-1,1.1l-0.9-0.1l1.5-1.6l-1-1.9l0.9,0.1l0.7,1.2l0.9-1l0.9,0.1l-1.4,1.5l1.1,2L67.4,181.9z M71,182.3l-0.7-1.3l-1,1.1
			l-0.9-0.1l1.5-1.6l-1-1.9l0.9,0.1l0.7,1.2l0.9-1l0.9,0.1l-1.4,1.5l1.1,2L71,182.3z M74.5,182.8l-0.7-1.3l-1,1.1l-0.9-0.1l1.5-1.6
			l-1-1.9l0.9,0.1l0.7,1.2l0.9-1l0.9,0.1l-1.4,1.5l1.1,2L74.5,182.8z M78,183.2l-0.7-1.3l-1,1.1l-0.9-0.1l1.5-1.6l-1-1.9l0.9,0.1
			l0.7,1.2l0.9-1l0.9,0.1l-1.4,1.5l1.1,2L78,183.2z M81.6,183.6l-0.7-1.3l-1,1.1l-0.9-0.1l1.5-1.6l-1-1.9l0.9,0.1l0.7,1.2l0.9-1
			l0.9,0.1l-1.4,1.5l1.1,2L81.6,183.6z M85.1,184.1l-0.7-1.3l-1,1.1l-0.9-0.1l1.5-1.6l-1-1.9l0.9,0.1l0.7,1.2l0.9-1l0.9,0.1
			l-1.4,1.5l1.1,2L85.1,184.1z M88.6,184.5l-0.7-1.3l-1,1.1l-0.9-0.1l1.5-1.6l-1-1.9l0.9,0.1l0.7,1.2l0.9-1l0.9,0.1l-1.4,1.5l1.1,2
			L88.6,184.5z"/>
		<path class="st3" d="M223.5,344c13.6,0,24.6-11,24.6-24.6c0-13.6-11-24.6-24.6-24.6s-24.6,11-24.6,24.6C199,333,210,344,223.5,344
			z"/>
		<path class="st5" d="M223.5,341c11.9,0,21.5-9.6,21.5-21.5c0-11.9-9.6-21.5-21.5-21.5s-21.5,9.6-21.5,21.5
			C202,331.4,211.7,341,223.5,341z"/>
		<path class="st3" d="M224.7,318.2c0.7,0.6,0.7,1.7,0.1,2.4c-0.6,0.7-1.7,0.7-2.4,0.1c-0.7-0.6-0.7-1.7-0.1-2.4
			C223,317.7,224,317.6,224.7,318.2z"/>
		<path class="st3" d="M223.5,319.5c-0.3,0.4-0.9,0.4-1.3,0.1l-9.9-9.1c-0.4-0.3-0.4-0.9-0.1-1.3c0.3-0.4,0.9-0.4,1.3-0.1l9.9,9.1
			C223.8,318.6,223.9,319.1,223.5,319.5z"/>
		<path class="st3" d="M223.5,319.5c-0.1-0.4,0.2-1,0.7-1l8.3-1.9c0.4-0.1,1,0.2,1,0.7c0.1,0.4-0.2,1-0.7,1l-8.3,1.9
			C224.1,320.3,223.7,320,223.5,319.5z"/>
		
			<linearGradient id="SVGID_8_" gradientUnits="userSpaceOnUse" x1="16.3576" y1="270.3308" x2="16.3576" y2="287.3629" gradientTransform="matrix(1 0 0 -1 8.410366e-06 500.1102)">
			<stop  offset="0" style="stop-color:#C2AFF6"/>
			<stop  offset="0.9948" style="stop-color:#9583D1"/>
		</linearGradient>
		<path class="st11" d="M19.5,217.6c-0.9-0.9-2-1.3-3.1-1.3c-1.1,0-2.2,0.4-3.1,1.3c-1.5,1.5-1.7,3.7-0.6,5.4c0.5,0.8,3.7,5,3.7,5
			s3.2-4.2,3.7-5c0.4-0.7,0.7-1.5,0.7-2.3C20.8,219.6,20.4,218.4,19.5,217.6z M16.4,222.3c-0.9,0-1.6-0.7-1.6-1.6
			c0-0.9,0.7-1.6,1.6-1.6c0.9,0,1.6,0.7,1.6,1.6C18,221.5,17.3,222.3,16.4,222.3z"/>
		<path class="st12" d="M85.7,238.4c4.8,0,8.7-3.9,8.7-8.7s-3.9-8.7-8.7-8.7s-8.7,3.9-8.7,8.7S80.9,238.4,85.7,238.4z"/>
		<path class="st12" d="M76.9,229.7H5.4"/>
		<path class="st3" d="M26.4,233.9h-20c-0.5,0-1-0.4-1-1c0-0.5,0.4-1,1-1h20c0.5,0,1,0.4,1,1C27.4,233.5,26.9,233.9,26.4,233.9z"/>
		<path class="st3" d="M26.4,236.7h-20c-0.5,0-1-0.4-1-1c0-0.5,0.4-1,1-1h20c0.5,0,1,0.4,1,1C27.4,236.3,26.9,236.7,26.4,236.7z"/>
		<path class="st3" d="M15.7,239.5H6.4c-0.5,0-1-0.4-1-1c0-0.5,0.4-1,1-1h9.3c0.5,0,1,0.4,1,1C16.7,239,16.2,239.5,15.7,239.5z"/>
		<path class="st3" d="M130.9,330.1h-20c-0.5,0-1-0.4-1-1c0-0.5,0.4-1,1-1h20c0.5,0,1,0.4,1,1C131.9,329.7,131.4,330.1,130.9,330.1z
			"/>
		<path class="st3" d="M130.9,332.9h-20c-0.5,0-1-0.4-1-1c0-0.5,0.4-1,1-1h20c0.5,0,1,0.4,1,1C131.9,332.5,131.4,332.9,130.9,332.9z
			"/>
		<path class="st3" d="M120.2,335.8h-9.3c-0.5,0-1-0.4-1-1c0-0.5,0.4-1,1-1h9.3c0.5,0,1,0.4,1,1
			C121.1,335.3,120.7,335.8,120.2,335.8z"/>
		
			<linearGradient id="SVGID_9_" gradientUnits="userSpaceOnUse" x1="101.7899" y1="172.973" x2="101.7899" y2="163.9761" gradientTransform="matrix(1 0 0 -1 8.410366e-06 500.1102)">
			<stop  offset="0" style="stop-color:#C2AFF6"/>
			<stop  offset="0.9948" style="stop-color:#9583D1"/>
		</linearGradient>
		<path class="st13" d="M106.3,331.6c0,2.5-2,4.5-4.5,4.5c-2.5,0-4.5-2-4.5-4.5s2-4.5,4.5-4.5C104.2,327.1,106.3,329.1,106.3,331.6z
			"/>
		<path class="st14" d="M106.2,326.3c-1.6,1.8-3.1,3.6-4.6,5.4c-0.4-0.3-0.7-0.6-1.1-0.8c-1.1-0.8-2.2,1-1.1,1.8l1.8,1.4
			c0.4,0.3,1,0.1,1.3-0.1c1.7-2.1,3.5-4.1,5.2-6.2C108.6,326.8,107.1,325.3,106.2,326.3z"/>
		<path class="st3" d="M130.9,344h-20c-0.5,0-1-0.4-1-1c0-0.5,0.4-1,1-1h20c0.5,0,1,0.4,1,1C131.9,343.6,131.4,344,130.9,344z"/>
		<path class="st3" d="M130.9,346.8h-20c-0.5,0-1-0.4-1-1c0-0.5,0.4-1,1-1h20c0.5,0,1,0.4,1,1C131.9,346.4,131.4,346.8,130.9,346.8z
			"/>
		<path class="st3" d="M120.3,349.6h-9.6c-0.4,0-0.8-0.4-0.8-0.8v-0.3c0-0.4,0.4-0.8,0.8-0.8h9.6c0.4,0,0.8,0.4,0.8,0.8v0.3
			C121.1,349.3,120.8,349.6,120.3,349.6z"/>
		
			<linearGradient id="SVGID_10_" gradientUnits="userSpaceOnUse" x1="101.7899" y1="159.0906" x2="101.7899" y2="150.0936" gradientTransform="matrix(1 0 0 -1 8.410366e-06 500.1102)">
			<stop  offset="0" style="stop-color:#C2AFF6"/>
			<stop  offset="0.9948" style="stop-color:#9583D1"/>
		</linearGradient>
		<path class="st15" d="M106.3,345.5c0,2.5-2,4.5-4.5,4.5c-2.5,0-4.5-2-4.5-4.5c0-2.5,2-4.5,4.5-4.5
			C104.2,341,106.3,343,106.3,345.5z"/>
		<path class="st3" d="M130.9,357.9h-20c-0.5,0-1-0.4-1-1c0-0.5,0.4-1,1-1h20c0.5,0,1,0.4,1,1C131.9,357.4,131.4,357.9,130.9,357.9z
			"/>
		<path class="st3" d="M130.9,360.7h-20c-0.5,0-1-0.4-1-1c0-0.5,0.4-1,1-1h20c0.5,0,1,0.4,1,1C131.9,360.3,131.4,360.7,130.9,360.7z
			"/>
		<path class="st3" d="M120.2,363.5h-9.3c-0.5,0-1-0.4-1-1c0-0.5,0.4-1,1-1h9.3c0.5,0,1,0.4,1,1
			C121.1,363.1,120.7,363.5,120.2,363.5z"/>
		
			<linearGradient id="SVGID_11_" gradientUnits="userSpaceOnUse" x1="101.7899" y1="145.2109" x2="101.7899" y2="136.214" gradientTransform="matrix(1 0 0 -1 8.410366e-06 500.1102)">
			<stop  offset="0" style="stop-color:#C2AFF6"/>
			<stop  offset="0.9948" style="stop-color:#9583D1"/>
		</linearGradient>
		<path class="st16" d="M106.3,359.4c0,2.5-2,4.5-4.5,4.5c-2.5,0-4.5-2-4.5-4.5s2-4.5,4.5-4.5C104.2,354.9,106.3,356.9,106.3,359.4z
			"/>
		<path class="st12" d="M134.6,364.8v-37.7l22.1-26.4"/>
		<path class="st12" d="M162.4,302.8c4.8,0,8.7-3.9,8.7-8.7s-3.9-8.7-8.7-8.7c-4.8,0-8.7,3.9-8.7,8.7S157.6,302.8,162.4,302.8z"/>
		<path class="st12" d="M171.3,231c4.8,0,8.7-3.9,8.7-8.7s-3.9-8.7-8.7-8.7s-8.7,3.9-8.7,8.7S166.5,231,171.3,231z"/>
		<path class="st12" d="M174.6,214.2l35.1-72h21.6"/>
		<path class="st3" d="M230.4,134.6h-20c-0.5,0-1-0.4-1-1c0-0.5,0.4-1,1-1h20c0.5,0,1,0.4,1,1C231.4,134.1,230.9,134.6,230.4,134.6z
			"/>
		<path class="st3" d="M230.4,137.3h-20c-0.5,0-1-0.4-1-1s0.4-1,1-1h20c0.5,0,1,0.4,1,1S230.9,137.3,230.4,137.3z"/>
		<path class="st3" d="M219.7,140.1h-9.3c-0.5,0-1-0.4-1-1c0-0.5,0.4-1,1-1h9.3c0.5,0,1,0.4,1,1
			C220.6,139.7,220.2,140.1,219.7,140.1z"/>
		
			<linearGradient id="SVGID_12_" gradientUnits="userSpaceOnUse" x1="217.3657" y1="373.027" x2="217.3657" y2="384.4575" gradientTransform="matrix(1 0 0 -1 8.410366e-06 500.1102)">
			<stop  offset="0" style="stop-color:#C2AFF6"/>
			<stop  offset="0.9948" style="stop-color:#9583D1"/>
		</linearGradient>
		<path class="st17" d="M219,121.7c1-0.6,1.6-1.6,1.6-2.8c0-1.8-1.4-3.2-3.2-3.2c-1.8,0-3.2,1.4-3.2,3.2c0,1.2,0.7,2.2,1.6,2.8
			c-2,0.7-3.5,2.6-3.5,4.9c0,0.1,0,0.4,0,0.5h10.3c0-0.1,0-0.4,0-0.5C222.5,124.3,221,122.3,219,121.7z"/>
		
			<linearGradient id="SVGID_13_" gradientUnits="userSpaceOnUse" x1="223.9187" y1="371.2086" x2="223.9187" y2="382.6388" gradientTransform="matrix(1 0 0 -1 8.410366e-06 500.1102)">
			<stop  offset="0" style="stop-color:#C2AFF6"/>
			<stop  offset="0.9948" style="stop-color:#9583D1"/>
		</linearGradient>
		<path class="st18" d="M225.6,123.5c1-0.6,1.6-1.6,1.6-2.8c0-1.8-1.4-3.2-3.2-3.2c-1.8,0-3.2,1.4-3.2,3.2c0,1.2,0.7,2.2,1.6,2.8
			c-2,0.7-3.5,2.6-3.5,4.9c0,0.1,0,0.4,0,0.5h10.3c0-0.1,0-0.4,0-0.5C229.1,126.1,227.6,124.1,225.6,123.5z"/>
	</g>
	<path class="st5" d="M198.5,243.3h-26.3v17.8H203v11h-44.6v-66.6H203v11.1h-30.8v15.9h26.3V243.3z M235.7,255.6l15.1-50.1h15.3
		l-23.2,66.6h-14.3l-23.1-66.6h15.2L235.7,255.6z M312.4,243.3h-26.3v17.8H317v11h-44.6v-66.6h44.5v11.1h-30.8v15.9h26.3V243.3z
		 M379.2,272.1h-13.7l-26.7-43.8v43.8H325v-66.6h13.7l26.8,43.9v-43.9h13.7V272.1z M439.9,216.7h-20.4v55.5h-13.7v-55.5h-20.1v-11.1
		l54.2,0V216.7z M481.6,254.7c0-2.6-0.9-4.6-2.7-5.9c-1.8-1.4-5.1-2.9-9.9-4.4c-4.8-1.6-8.5-3.1-11.3-4.6
		c-7.6-4.1-11.3-9.6-11.3-16.5c0-3.6,1-6.8,3-9.6c2-2.8,5-5,8.7-6.6c3.8-1.6,8.1-2.4,12.8-2.4c4.8,0,9,0.9,12.7,2.6
		c3.7,1.7,6.6,4.1,8.6,7.3c2.1,3.1,3.1,6.7,3.1,10.7h-13.7c0-3-1-5.4-2.9-7.1c-1.9-1.7-4.6-2.6-8.1-2.6c-3.4,0-6,0.7-7.8,2.1
		c-1.9,1.4-2.8,3.3-2.8,5.6c0,2.2,1.1,4,3.2,5.4c2.2,1.5,5.4,2.8,9.7,4.1c7.8,2.3,13.5,5.3,17.1,8.7s5.4,7.8,5.4,13
		c0,5.8-2.2,10.3-6.5,13.6c-4.4,3.3-10.2,4.9-17.6,4.9c-5.1,0-9.8-0.9-14-2.8c-4.2-1.9-7.4-4.5-9.6-7.7c-2.2-3.3-3.3-7-3.3-11.3H458
		c0,7.3,4.4,11,13.2,11c3.3,0,5.8-0.7,7.6-2C480.7,258.9,481.6,257,481.6,254.7z"/>
	
		<linearGradient id="SVGID_14_" gradientUnits="userSpaceOnUse" x1="229.3956" y1="261.2777" x2="662.5042" y2="261.2777" gradientTransform="matrix(1 0 0 -1 8.410366e-06 500.1102)">
		<stop  offset="0" style="stop-color:#A01BB2"/>
		<stop  offset="1" style="stop-color:#683387"/>
	</linearGradient>
	<path class="st19" d="M198.5,243.3h-26.3v17.8H203v11h-44.6v-66.6H203v11.1h-30.8v15.9h26.3V243.3z M235.7,255.6l15.1-50.1h15.3
		l-23.2,66.6h-14.3l-23.1-66.6h15.2L235.7,255.6z M312.4,243.3h-26.3v17.8H317v11h-44.6v-66.6h44.5v11.1h-30.8v15.9h26.3V243.3z
		 M379.2,272.1h-13.7l-26.7-43.8v43.8H325v-66.6h13.7l26.8,43.9v-43.9h13.7V272.1z M439.9,216.7h-20.4v55.5h-13.7v-55.5h-20.1v-11.1
		l54.2,0V216.7z M481.6,254.7c0-2.6-0.9-4.6-2.7-5.9c-1.8-1.4-5.1-2.9-9.9-4.4c-4.8-1.6-8.5-3.1-11.3-4.6
		c-7.6-4.1-11.3-9.6-11.3-16.5c0-3.6,1-6.8,3-9.6c2-2.8,5-5,8.7-6.6c3.8-1.6,8.1-2.4,12.8-2.4c4.8,0,9,0.9,12.7,2.6
		c3.7,1.7,6.6,4.1,8.6,7.3c2.1,3.1,3.1,6.7,3.1,10.7h-13.7c0-3-1-5.4-2.9-7.1c-1.9-1.7-4.6-2.6-8.1-2.6c-3.4,0-6,0.7-7.8,2.1
		c-1.9,1.4-2.8,3.3-2.8,5.6c0,2.2,1.1,4,3.2,5.4c2.2,1.5,5.4,2.8,9.7,4.1c7.8,2.3,13.5,5.3,17.1,8.7s5.4,7.8,5.4,13
		c0,5.8-2.2,10.3-6.5,13.6c-4.4,3.3-10.2,4.9-17.6,4.9c-5.1,0-9.8-0.9-14-2.8c-4.2-1.9-7.4-4.5-9.6-7.7c-2.2-3.3-3.3-7-3.3-11.3H458
		c0,7.3,4.4,11,13.2,11c3.3,0,5.8-0.7,7.6-2C480.7,258.9,481.6,257,481.6,254.7z"/>
</g>
</svg>
