<?xml version="1.0" encoding="UTF-8"?>
<svg enable-background="new 0 0 500 500" version="1.1" viewBox="0 0 500 500" xml:space="preserve" xmlns="http://www.w3.org/2000/svg">
<style type="text/css">
	.st0{opacity:0.5;}
	.st1{fill:url(#i);}
	.st2{fill:url(#h);}
	.st3{fill:#907FCC;}
	.st4{fill:#9F98BD;}
	.st5{fill:#FFFFFF;}
	.st6{fill:url(#g);}
	.st7{fill:url(#f);}
	.st8{fill:url(#e);}
	.st9{fill:url(#d);}
	.st10{fill:url(#c);}
	.st11{fill:url(#b);}
	.st12{fill:none;stroke:#808080;stroke-width:0.5;stroke-miterlimit:10;}
	.st13{fill:url(#a);}
	.st14{fill:#E4E4E4;}
	.st15{fill:url(#n);}
	.st16{fill:url(#m);}
	.st17{fill:url(#l);}
	.st18{fill:url(#k);}
	.st19{fill:url(#j);}
</style>
	<g class="st0">
			<linearGradient id="i" x1="89.64" x2="145.18" y1="-75.433" y2="294.48" gradientTransform="matrix(1 0 0 -1 8.4104e-6 500.11)" gradientUnits="userSpaceOnUse">
			<stop stop-color="#C2AFF6" offset=".6089"/>
			<stop stop-color="#fff" offset="1"/>
		</linearGradient>
		<path class="st1" d="m251.5 175.7-17.9 138.7c-0.8 6.5-6.8 11.1-13.3 10.3l-179.1-23.2c-6.5-0.8-11.1-6.8-10.3-13.3l17.9-138.7c0.8-6.5 6.8-11.1 13.3-10.3l179.1 23.2c6.6 0.9 11.2 6.9 10.3 13.3z"/>
			<linearGradient id="h" x1="47.525" x2="251.95" y1="341.62" y2="332.95" gradientTransform="matrix(1 0 0 -1 8.4104e-6 500.11)" gradientUnits="userSpaceOnUse">
			<stop stop-color="#C2AFF6" offset="0"/>
			<stop stop-color="#9583D1" offset=".9948"/>
		</linearGradient>
		<path class="st2" d="m251.5 175.7-1.5 11.3-202.6-26.2 1.5-11.3c0.8-6.5 6.8-11.1 13.3-10.3l179.1 23.2c6.5 0.9 11.1 6.9 10.2 13.3z"/>
		<path class="st3" d="m144 214.6-1 7.5-2.2-0.3 0.7-5.9-1.4-0.1 0.2-1.6 3.7 0.4z"/>
		<path class="st3" d="m174.2 224.4-0.2 1.7-5.9-0.7 0.1-1.3 3.1-2.2c0.3-0.2 0.5-0.4 0.7-0.6 0.1-0.1 0.1-0.4 0.2-0.5 0-0.2 0-0.4-0.1-0.6s-0.4-0.2-0.7-0.3c-0.3 0-0.5 0-0.8 0.1-0.2 0.1-0.4 0.2-0.7 0.4l-1.5-1.1c0.4-0.4 0.8-0.7 1.4-1 0.6-0.2 1.2-0.3 1.9-0.1 0.6 0.1 1 0.2 1.5 0.4s0.7 0.5 0.9 1c0.2 0.4 0.3 0.8 0.2 1.3-0.1 0.4-0.2 0.7-0.4 1.1s-0.6 0.7-1.2 1.1l-1.6 1.1 3.1 0.2z"/>
		<path class="st3" d="m202 225.9c0.3 0.4 0.4 0.9 0.3 1.5-0.1 0.4-0.2 0.8-0.5 1.2s-0.7 0.6-1.2 0.7-1.1 0.2-1.9 0.1c-0.5-0.1-1-0.2-1.6-0.4-0.5-0.2-0.9-0.4-1.3-0.7l1-1.5c0.3 0.2 0.6 0.4 1 0.6 0.4 0.1 0.7 0.2 1 0.3 0.4 0.1 0.7 0 0.9-0.1s0.4-0.3 0.4-0.5c0.1-0.5-0.3-0.7-1-0.9l-0.9-0.1 0.1-1.3 1.6-1.3-3-0.4 0.2-1.6 5.4 0.7-0.1 1.3-1.8 1.5c0.6 0.2 1.1 0.6 1.4 0.9z"/>
		<path class="st3" d="m231.6 232.1-1.1-0.1-0.2 1.4-2.1-0.3 0.2-1.4-3.9-0.5 0.1-1.4 3.9-4.2 2.2 0.3-3.6 4 1.5 0.2 0.1-1.3 2 0.2-0.1 1.3 1.1 0.1-0.1 1.7z"/>
		<path class="st4" d="m59.4 225.3c0.4 0.5 0.6 1.1 0.5 1.8-0.1 0.4-0.2 0.9-0.5 1.3s-0.7 0.6-1.2 0.8c-0.5 0.1-1.1 0.2-1.9 0.1-0.5-0.1-1-0.2-1.6-0.4-0.5-0.2-0.9-0.4-1.3-0.7l1-1.5c0.3 0.2 0.6 0.4 1 0.6 0.4 0.1 0.7 0.2 1 0.3 0.4 0.1 0.7 0 0.9-0.1s0.4-0.3 0.4-0.5-0.1-0.4-0.2-0.6c-0.2-0.1-0.6-0.3-1.1-0.4l-2-0.3 1-4.3 4.8 0.6-0.2 1.6-3.1-0.4-0.2 1.1 0.5 0.1c1 0 1.8 0.4 2.2 0.9z"/>
		<path class="st3" d="m87.6 228.5c0.4 0.2 0.7 0.6 0.8 1s0.2 0.8 0.2 1.3c-0.1 0.5-0.2 1-0.6 1.3-0.3 0.4-0.7 0.6-1.2 0.7-0.4 0.1-1 0.2-1.6 0.1-1-0.1-1.9-0.6-2.4-1.3s-0.7-1.6-0.6-2.9c0.1-0.9 0.4-1.6 0.8-2.2s1-1 1.6-1.2c0.7-0.2 1.3-0.3 2.2-0.2 0.4 0.1 0.8 0.1 1.2 0.3 0.4 0.1 0.7 0.3 1 0.5l-1 1.4c-0.3-0.3-0.7-0.5-1.3-0.6-0.5-0.1-1 0-1.4 0.3-0.4 0.2-0.6 0.7-0.7 1.2 0.4-0.3 1-0.4 1.8-0.4 0.3 0.4 0.8 0.5 1.2 0.7zm-1.5 2.8c0.2-0.1 0.4-0.4 0.4-0.7s0-0.5-0.2-0.7c-0.1-0.2-0.4-0.3-0.7-0.4s-0.6 0-0.8 0.1-0.4 0.4-0.4 0.7 0 0.5 0.2 0.7c0.1 0.2 0.4 0.3 0.7 0.4s0.6 0 0.8-0.1z"/>
		<path class="st3" d="m116.9 229.3-0.1 1.3-3.4 5.8-2.3-0.3 3.3-5.5-2-0.2-0.1 1.2-1.8-0.2 0.4-2.8 6 0.7z"/>
		<path class="st3" d="m144.5 237.3c0.1 0.3 0.2 0.7 0.1 1-0.1 0.4-0.2 0.9-0.6 1.2-0.3 0.3-0.7 0.5-1.3 0.7-0.5 0.1-1.1 0.1-1.7 0.1-0.7-0.1-1.2-0.2-1.6-0.5-0.4-0.2-0.8-0.6-1-1s-0.3-0.8-0.2-1.3c0.1-0.4 0.1-0.7 0.4-1 0.2-0.3 0.5-0.4 0.9-0.7-0.2-0.2-0.4-0.4-0.5-0.7s-0.1-0.6-0.1-0.9c0.1-0.4 0.2-0.8 0.5-1.1s0.7-0.5 1.1-0.6 1-0.1 1.6-0.1c0.6 0.1 1.1 0.2 1.6 0.4 0.4 0.2 0.7 0.5 1 0.9 0.2 0.4 0.3 0.7 0.2 1.2-0.1 0.3-0.1 0.6-0.3 0.8s-0.4 0.4-0.7 0.6c0.3 0.4 0.5 0.7 0.6 1zm-2.3 1.3c0.2-0.1 0.4-0.4 0.4-0.7s0-0.5-0.2-0.7c-0.1-0.2-0.4-0.3-0.8-0.4s-0.6 0-0.8 0.1-0.4 0.4-0.4 0.7c-0.1 0.3 0 0.5 0.2 0.7 0.1 0.2 0.4 0.3 0.8 0.4 0.2 0 0.5 0 0.8-0.1zm-0.9-4.5c-0.1 0.1-0.3 0.3-0.3 0.5s0 0.4 0.1 0.6c0.1 0.1 0.4 0.2 0.6 0.3 0.3 0 0.5 0 0.7-0.1 0.1-0.1 0.3-0.3 0.3-0.5s0-0.4-0.1-0.6c-0.1-0.1-0.4-0.2-0.6-0.3-0.4-0.1-0.6-0.1-0.7 0.1z"/>
		<path class="st3" d="m172.1 237.3c0.5 0.7 0.7 1.6 0.6 2.9-0.1 0.9-0.4 1.6-0.8 2.2s-1 1-1.6 1.3c-0.7 0.2-1.3 0.3-2.2 0.2-0.4-0.1-0.8-0.1-1.2-0.3-0.4-0.1-0.7-0.3-1-0.5l1-1.4c0.3 0.3 0.7 0.5 1.3 0.6 0.5 0.1 1 0 1.3-0.3 0.4-0.2 0.6-0.7 0.7-1.2-0.4 0.3-1 0.4-1.8 0.3-0.4-0.1-0.9-0.2-1.3-0.4s-0.7-0.6-0.8-1-0.2-0.8-0.2-1.3c0.1-0.5 0.2-1 0.6-1.3 0.3-0.4 0.7-0.6 1.2-0.7 0.4-0.1 1-0.2 1.6-0.1 1.2-0.2 2 0.2 2.6 1zm-1.9 2c0.2-0.1 0.4-0.4 0.4-0.7s0-0.5-0.2-0.7c-0.1-0.2-0.4-0.3-0.7-0.4s-0.5 0-0.7 0.1-0.4 0.4-0.4 0.7 0 0.5 0.2 0.7c0.1 0.2 0.4 0.3 0.7 0.4 0.1 0 0.4 0 0.7-0.1z"/>
		<path class="st3" d="m195 239.4-1 7.5-2.2-0.3 0.7-5.9-1.4-0.1 0.2-1.6 3.7 0.4z"/>
		<path class="st3" d="m196.7 246.9c-0.4-0.4-0.8-0.9-1-1.5s-0.2-1.3-0.1-2.2c0.1-0.8 0.4-1.5 0.7-2 0.4-0.5 0.8-1 1.3-1.2s1.1-0.3 1.8-0.2 1.2 0.3 1.6 0.7 0.8 0.9 1 1.5 0.2 1.3 0.1 2.2c-0.1 0.8-0.4 1.5-0.7 2-0.4 0.5-0.8 1-1.3 1.2s-1.1 0.3-1.8 0.2c-0.5-0.1-1.1-0.3-1.6-0.7zm2.9-1.4c0.2-0.3 0.4-0.8 0.5-1.6 0.1-0.7 0.1-1.3-0.1-1.7-0.1-0.4-0.4-0.6-0.8-0.6-0.4-0.1-0.7 0.1-1 0.4-0.2 0.3-0.4 0.9-0.5 1.6s-0.1 1.3 0.1 1.7c0.1 0.4 0.4 0.6 0.8 0.7 0.4 0 0.7-0.2 1-0.5z"/>
		<path class="st3" d="m226.2 243.4-1 7.5-2.2-0.3 0.7-5.9-1.4-0.1 0.2-1.6 3.7 0.4z"/>
		<path class="st3" d="m230.5 244-1 7.5-2.2-0.3 0.7-5.9-1.4-0.1 0.2-1.6 3.7 0.4z"/>
		<path class="st4" d="m52.3 239.1-1 7.5-2.2-0.3 0.7-5.9-1.4-0.1 0.2-1.6 3.7 0.4z"/>
		<path class="st4" d="m58.5 245.8-0.2 1.7-5.9-0.7 0.1-1.3 3.1-2.2c0.3-0.2 0.5-0.4 0.6-0.6 0.1-0.1 0.1-0.4 0.2-0.5 0-0.2 0-0.4-0.1-0.6-0.1-0.1-0.4-0.2-0.7-0.3-0.3 0-0.5 0-0.8 0.1-0.2 0.1-0.4 0.2-0.7 0.4l-1.5-1.1c0.4-0.4 0.8-0.7 1.4-1 0.6-0.2 1.2-0.3 1.9-0.1 0.6 0.1 1 0.2 1.5 0.4 0.4 0.2 0.7 0.5 0.9 1 0.2 0.4 0.3 0.8 0.2 1.3-0.1 0.4-0.2 0.7-0.4 1.1s-0.6 0.7-1.2 1.1l-1.6 1.1 3.2 0.2z"/>
		<path class="st3" d="m80.4 242.8-1 7.5-2.2-0.3 0.7-5.9-1.4-0.1 0.2-1.6 3.7 0.4z"/>
		<path class="st3" d="m86.3 247.4c0.3 0.4 0.4 0.9 0.3 1.5-0.1 0.4-0.2 0.8-0.5 1.2s-0.7 0.6-1.2 0.7-1.1 0.2-1.9 0.1c-0.5-0.1-1-0.2-1.6-0.4-0.5-0.2-0.9-0.4-1.3-0.7l1-1.5c0.3 0.2 0.6 0.4 1 0.6 0.4 0.1 0.7 0.2 1 0.3 0.4 0.1 0.7 0 0.9-0.1s0.4-0.3 0.4-0.5c0.1-0.5-0.3-0.7-1-0.9l-0.9-0.1 0.1-1.3 1.6-1.3-3-0.4 0.2-1.6 5.4 0.7-0.1 1.3-1.8 1.5c0.7 0.1 1.2 0.4 1.4 0.9z"/>
		<path class="st3" d="m108.6 246.4-1 7.5-2.2-0.3 0.7-5.9-1.4-0.1 0.2-1.6 3.7 0.4z"/>
		<path class="st3" d="m116 253.6-1.1-0.1-0.2 1.4-2.1-0.3 0.2-1.4-3.9-0.5 0.1-1.4 3.9-4.2 2.2 0.3-3.6 4 1.5 0.2 0.1-1.3 2 0.2-0.1 1.3 1.1 0.1-0.1 1.7z"/>
		<path class="st3" d="m136.5 250-1 7.5-2.2-0.3 0.7-5.9-1.4-0.1 0.2-1.6 3.7 0.4z"/>
		<path class="st3" d="m142.3 254.2c0.4 0.5 0.6 1.1 0.5 1.8-0.1 0.4-0.2 0.9-0.5 1.3s-0.7 0.6-1.2 0.8c-0.5 0.1-1.1 0.2-1.9 0.1-0.5-0.1-1-0.2-1.6-0.4-0.5-0.2-0.9-0.4-1.3-0.7l1-1.5c0.3 0.2 0.6 0.4 1 0.6 0.4 0.1 0.7 0.2 1 0.3 0.4 0.1 0.7 0 0.9-0.1s0.4-0.3 0.4-0.5-0.1-0.4-0.2-0.6c-0.2-0.1-0.6-0.3-1.1-0.4l-2-0.3 1-4.3 4.8 0.6-0.2 1.6-3.1-0.4-0.2 1.1 0.5 0.1c1 0.1 1.8 0.4 2.2 0.9z"/>
		<path class="st3" d="m164.6 253.6-1 7.5-2.2-0.3 0.7-5.9-1.4-0.1 0.2-1.6 3.7 0.4z"/>
		<path class="st3" d="m170.5 257.5c0.4 0.2 0.7 0.6 0.8 1s0.2 0.8 0.2 1.3c-0.1 0.5-0.2 1-0.6 1.3-0.3 0.4-0.7 0.6-1.2 0.7-0.4 0.1-1 0.2-1.6 0.1-1-0.1-1.9-0.6-2.4-1.3s-0.7-1.6-0.6-2.9c0.1-0.9 0.4-1.6 0.8-2.2s1-1 1.6-1.3c0.7-0.2 1.3-0.3 2.2-0.2 0.4 0.1 0.8 0.1 1.2 0.3 0.4 0.1 0.7 0.3 1 0.5l-1 1.4c-0.3-0.3-0.7-0.5-1.3-0.6-0.5-0.1-1 0-1.4 0.3-0.4 0.2-0.6 0.7-0.7 1.2 0.4-0.3 1-0.4 1.8-0.4 0.3 0.4 0.8 0.5 1.2 0.8zm-1.5 2.7c0.2-0.1 0.4-0.4 0.4-0.7s0-0.5-0.2-0.7c-0.1-0.2-0.4-0.3-0.7-0.4s-0.6 0-0.8 0.1-0.4 0.4-0.4 0.7 0 0.5 0.2 0.7c0.1 0.2 0.4 0.3 0.7 0.4s0.6 0 0.8-0.1z"/>
		<path class="st3" d="m192.6 257.3-1 7.5-2.2-0.3 0.7-5.9-1.4-0.1 0.2-1.6 3.7 0.4z"/>
		<path class="st3" d="m199.8 258.3-0.1 1.3-3.4 5.8-2.3-0.3 3.3-5.5-2-0.2-0.1 1.2-1.8-0.2 0.4-2.8 6 0.7z"/>
		<path class="st3" d="m221.5 261-1 7.5-2.2-0.3 0.7-5.9-1.4-0.1 0.2-1.6 3.7 0.4z"/>
		<path class="st3" d="m228.3 266.3c0.1 0.3 0.2 0.7 0.1 1-0.1 0.4-0.2 0.9-0.6 1.2-0.3 0.3-0.7 0.5-1.3 0.7-0.5 0.1-1.1 0.1-1.7 0.1-0.7-0.1-1.2-0.2-1.6-0.5-0.4-0.2-0.8-0.6-1-1s-0.3-0.8-0.2-1.3c0.1-0.4 0.1-0.7 0.4-1 0.2-0.3 0.5-0.4 0.9-0.7-0.2-0.2-0.4-0.4-0.5-0.7s-0.1-0.6-0.1-0.9c0.1-0.4 0.2-0.8 0.5-1.1s0.7-0.5 1.2-0.6c0.4-0.1 1-0.1 1.6-0.1 0.6 0.1 1.1 0.2 1.6 0.4 0.4 0.2 0.7 0.5 1 0.9 0.2 0.4 0.3 0.7 0.2 1.2-0.1 0.3-0.1 0.6-0.3 0.8s-0.4 0.4-0.7 0.6c0.1 0.4 0.4 0.7 0.5 1zm-2.4 1.3c0.2-0.1 0.4-0.4 0.4-0.7s0-0.5-0.2-0.7c-0.1-0.2-0.4-0.3-0.8-0.4s-0.6 0-0.8 0.1-0.4 0.4-0.4 0.7 0 0.5 0.2 0.7c0.1 0.2 0.4 0.3 0.8 0.4 0.3 0.1 0.6 0.1 0.8-0.1zm-0.9-4.5c-0.1 0.1-0.3 0.3-0.3 0.5s0 0.4 0.1 0.6c0.1 0.1 0.4 0.2 0.6 0.3 0.3 0 0.5 0 0.7-0.1 0.1-0.1 0.3-0.3 0.3-0.5s0-0.4-0.1-0.6-0.4-0.2-0.6-0.3c-0.3-0.1-0.5-0.1-0.7 0.1z"/>
		<path class="st4" d="m50.1 257-1 7.5-2.2-0.3 0.7-5.9-1.4-0.1 0.2-1.6 3.7 0.4z"/>
		<path class="st4" d="m56.4 258.6c0.5 0.7 0.7 1.6 0.6 2.9-0.1 0.9-0.4 1.6-0.8 2.2s-1 1-1.6 1.2c-0.7 0.2-1.3 0.3-2.2 0.2-0.4-0.1-0.8-0.1-1.2-0.3-0.4-0.1-0.7-0.3-1-0.5l1-1.4c0.3 0.3 0.7 0.5 1.3 0.6 0.5 0.1 1 0 1.3-0.3 0.4-0.2 0.6-0.7 0.7-1.2-0.4 0.3-1 0.4-1.8 0.3-0.4-0.1-0.9-0.2-1.3-0.4s-0.7-0.6-0.8-1-0.2-0.8-0.2-1.3c0.1-0.5 0.2-1 0.6-1.3 0.3-0.4 0.7-0.6 1.2-0.7 0.4-0.1 1-0.2 1.6-0.1 1.3 0 2.1 0.5 2.6 1.1zm-1.9 2c0.2-0.1 0.4-0.4 0.4-0.7s0-0.5-0.2-0.7c-0.1-0.2-0.4-0.3-0.7-0.4s-0.6 0-0.7 0.1c-0.2 0.1-0.4 0.4-0.4 0.7s0 0.5 0.2 0.7c0.1 0.2 0.4 0.3 0.7 0.4 0.3 0.2 0.5 0.1 0.7-0.1z"/>
		<path class="st3" d="m80.3 266.9-0.2 1.7-5.9-0.7 0.1-1.3 3.1-2.2c0.3-0.2 0.5-0.4 0.7-0.6 0.1-0.1 0.1-0.4 0.2-0.5 0-0.2 0-0.4-0.1-0.6-0.1-0.1-0.4-0.2-0.7-0.3-0.3 0-0.5 0-0.8 0.1-0.2 0.1-0.4 0.2-0.7 0.4l-1.5-1.1c0.4-0.4 0.8-0.7 1.4-1 0.6-0.2 1.2-0.3 1.9-0.1 0.6 0.1 1 0.2 1.5 0.4 0.4 0.2 0.7 0.5 0.9 1 0.2 0.4 0.3 0.8 0.2 1.3-0.1 0.4-0.2 0.7-0.4 1.1s-0.6 0.7-1.2 1.1l-1.6 1.1 3.1 0.2z"/>
		<path class="st3" d="m82.4 268.5c-0.4-0.4-0.8-0.9-1-1.5s-0.2-1.3-0.1-2.2c0.1-0.8 0.4-1.5 0.7-2 0.4-0.5 0.8-1 1.3-1.2s1.1-0.3 1.8-0.2 1.2 0.3 1.6 0.7 0.8 0.9 1 1.5 0.2 1.3 0.1 2.2c-0.1 0.8-0.4 1.5-0.7 2-0.4 0.5-0.8 1-1.3 1.2s-1.1 0.3-1.8 0.2c-0.6-0.1-1.2-0.3-1.6-0.7zm2.8-1.5c0.2-0.3 0.4-0.8 0.5-1.6 0.1-0.7 0.1-1.3-0.1-1.7-0.1-0.4-0.4-0.6-0.8-0.6-0.4-0.1-0.7 0.1-0.9 0.4s-0.4 0.8-0.5 1.6c-0.1 0.7-0.1 1.3 0.1 1.7 0.1 0.4 0.4 0.6 0.8 0.6 0.3 0.1 0.6 0 0.9-0.4z"/>
		<path class="st3" d="m108 270.5-0.2 1.7-5.9-0.7 0.1-1.3 3.1-2.2c0.3-0.2 0.5-0.4 0.7-0.6 0.1-0.1 0.1-0.4 0.2-0.5 0-0.2 0-0.4-0.1-0.6-0.1-0.1-0.4-0.2-0.7-0.3-0.3 0-0.5 0-0.8 0.1-0.2 0.1-0.4 0.2-0.7 0.4l-1.5-1.1c0.4-0.4 0.8-0.7 1.4-1 0.6-0.2 1.2-0.3 1.9-0.1 0.6 0.1 1 0.2 1.5 0.4 0.4 0.2 0.7 0.5 0.9 1 0.2 0.4 0.3 0.8 0.2 1.3-0.1 0.4-0.2 0.7-0.4 1.1s-0.6 0.7-1.2 1.1l-1.6 1.1 3.1 0.2z"/>
		<path class="st3" d="m112.5 265.1-1 7.5-2.2-0.3 0.7-5.9-1.4-0.1 0.2-1.6 3.7 0.4z"/>
		<path class="st3" d="m136.3 274.1-0.2 1.7-5.9-0.7 0.1-1.3 3.1-2.2c0.3-0.2 0.5-0.4 0.6-0.6 0.1-0.1 0.1-0.4 0.2-0.5 0-0.2 0-0.4-0.1-0.6s-0.4-0.2-0.7-0.3c-0.3 0-0.5 0-0.8 0.1-0.2 0.1-0.4 0.2-0.7 0.4l-1.5-1.1c0.4-0.4 0.8-0.7 1.4-1s1.2-0.3 1.9-0.1c0.6 0.1 1 0.2 1.5 0.4 0.4 0.2 0.7 0.5 0.9 1 0.2 0.4 0.3 0.8 0.2 1.3-0.1 0.4-0.2 0.7-0.4 1.1s-0.6 0.7-1.2 1.1l-1.6 1.1 3.2 0.2z"/>
		<path class="st3" d="m142.7 274.9-0.2 1.7-5.9-0.7 0.1-1.3 3.1-2.2c0.3-0.2 0.5-0.4 0.7-0.6 0.1-0.1 0.2-0.4 0.2-0.5 0-0.2 0-0.4-0.1-0.6-0.1-0.1-0.4-0.2-0.7-0.3-0.3 0-0.5 0-0.8 0.1-0.2 0.1-0.4 0.2-0.7 0.4l-1.5-1.1c0.4-0.4 0.8-0.7 1.4-1 0.6-0.2 1.2-0.3 1.9-0.1 0.6 0.1 1 0.2 1.5 0.4 0.4 0.2 0.7 0.5 0.9 1 0.2 0.4 0.3 0.8 0.2 1.3-0.1 0.4-0.2 0.7-0.4 1.1s-0.6 0.7-1.2 1.1l-1.6 1.1 3.1 0.2z"/>
		<path class="st3" d="m164.3 277.8-0.2 1.7-5.9-0.7 0.1-1.3 3.1-2.2c0.3-0.2 0.5-0.4 0.7-0.6 0.1-0.1 0.2-0.4 0.2-0.5 0-0.2 0-0.4-0.1-0.6-0.1-0.1-0.4-0.2-0.7-0.3-0.3 0-0.5 0-0.8 0.1-0.2 0.1-0.4 0.2-0.7 0.4l-1.5-1.1c0.4-0.4 0.8-0.7 1.4-1s1.2-0.3 1.9-0.1c0.6 0.1 1 0.2 1.5 0.4 0.4 0.2 0.7 0.5 0.9 1 0.2 0.4 0.3 0.8 0.2 1.3-0.1 0.4-0.2 0.7-0.4 1.1s-0.6 0.7-1.2 1.1l-1.6 1.1 3.1 0.2z"/>
		<path class="st3" d="m170.5 276.4c0.3 0.4 0.4 0.9 0.3 1.5-0.1 0.4-0.2 0.8-0.5 1.2s-0.7 0.6-1.2 0.7-1.1 0.2-1.9 0.1c-0.5-0.1-1-0.2-1.6-0.4-0.5-0.2-0.9-0.4-1.3-0.7l1-1.5c0.3 0.2 0.6 0.4 1 0.6 0.4 0.1 0.7 0.2 1 0.3 0.4 0.1 0.7 0 0.9-0.1s0.4-0.3 0.4-0.5c0.1-0.5-0.3-0.7-1-0.9l-0.9-0.1 0.1-1.3 1.6-1.3-3-0.4 0.2-1.6 5.4 0.7-0.1 1.3-1.8 1.5c0.6 0.2 1.1 0.6 1.4 0.9z"/>
		<path class="st3" d="m192.4 281.4-0.2 1.7-5.9-0.7 0.1-1.3 3.1-2.2c0.3-0.2 0.5-0.4 0.7-0.6 0.1-0.1 0.2-0.4 0.2-0.5 0-0.2 0-0.4-0.1-0.6s-0.4-0.2-0.7-0.3c-0.3 0-0.5 0-0.8 0.1-0.2 0.1-0.4 0.2-0.7 0.4l-1.5-1.1c0.4-0.4 0.8-0.7 1.4-1 0.6-0.2 1.2-0.3 1.9-0.1 0.6 0.1 1 0.2 1.5 0.4 0.4 0.2 0.7 0.5 0.9 1 0.2 0.4 0.3 0.8 0.2 1.3-0.1 0.4-0.2 0.7-0.4 1.1s-0.6 0.7-1.2 1.1l-1.6 1.1 3.1 0.2z"/>
		<path class="st3" d="m200.1 282.6-1.1-0.1-0.2 1.4-2.1-0.3 0.2-1.4-3.9-0.5 0.1-1.4 3.9-4.2 2.2 0.3-3.6 4 1.5 0.2 0.1-1.3 2 0.2-0.1 1.3 1.1 0.1-0.1 1.7z"/>
		<path class="st3" d="m220.3 285-0.2 1.7-5.9-0.7 0.1-1.3 3.1-2.2c0.3-0.2 0.5-0.4 0.7-0.6s0.2-0.4 0.2-0.5c0-0.2 0-0.4-0.1-0.6-0.1-0.1-0.4-0.2-0.7-0.3-0.3 0-0.5 0-0.8 0.1-0.2 0.1-0.4 0.2-0.7 0.4l-1.5-1.1c0.4-0.4 0.8-0.7 1.4-1 0.6-0.2 1.2-0.3 1.9-0.1 0.6 0.1 1 0.2 1.5 0.4 0.4 0.2 0.7 0.5 0.9 1 0.2 0.4 0.3 0.8 0.2 1.3-0.1 0.4-0.2 0.7-0.4 1.1s-0.6 0.7-1.2 1.1l-1.6 1.1 3.1 0.2z"/>
		<path class="st3" d="m226.5 283.3c0.4 0.5 0.6 1.1 0.5 1.8-0.1 0.4-0.2 0.9-0.5 1.3s-0.7 0.6-1.2 0.8c-0.5 0.1-1.1 0.2-1.9 0.1-0.5-0.1-1-0.2-1.6-0.4-0.5-0.2-0.9-0.4-1.3-0.7l1-1.5c0.3 0.2 0.6 0.4 1 0.6 0.4 0.1 0.7 0.2 1 0.3 0.4 0.1 0.7 0 0.9-0.1s0.4-0.3 0.4-0.5-0.1-0.4-0.2-0.6c-0.2-0.1-0.6-0.3-1.1-0.4l-2-0.3 1-4.3 4.8 0.6-0.2 1.6-3.1-0.4-0.2 1.1 0.5 0.1c1 0.1 1.7 0.4 2.2 0.9z"/>
		<path class="st4" d="m49.9 281.1-0.2 1.7-5.9-0.7 0.1-1.3 3.1-2.2c0.3-0.2 0.5-0.4 0.6-0.6 0.1-0.1 0.2-0.4 0.2-0.5 0-0.2 0-0.4-0.1-0.6-0.1-0.1-0.4-0.2-0.7-0.3-0.3 0-0.5 0-0.8 0.1-0.2 0.1-0.4 0.2-0.7 0.4l-1.5-1.1c0.4-0.4 0.8-0.7 1.4-1 0.6-0.2 1.2-0.3 1.9-0.1 0.6 0.1 1 0.2 1.5 0.4 0.4 0.2 0.7 0.5 0.9 1 0.2 0.4 0.3 0.8 0.2 1.3-0.1 0.4-0.2 0.7-0.4 1.1s-0.6 0.7-1.2 1.1l-1.6 1.1 3.2 0.2z"/>
		<path class="st4" d="m56.1 279c0.4 0.2 0.7 0.6 0.8 1s0.2 0.8 0.2 1.3c-0.1 0.5-0.2 1-0.6 1.3-0.3 0.4-0.7 0.6-1.2 0.7-0.4 0.1-1 0.2-1.6 0.1-1-0.1-1.9-0.6-2.5-1.3-0.5-0.7-0.7-1.6-0.6-2.9 0.1-0.9 0.4-1.6 0.8-2.2s1-1 1.6-1.2c0.7-0.2 1.3-0.3 2.2-0.2 0.4 0.1 0.8 0.1 1.2 0.3 0.4 0.1 0.7 0.3 1 0.5l-1 1.4c-0.3-0.3-0.7-0.5-1.3-0.6-0.5-0.1-1 0-1.4 0.3-0.4 0.2-0.6 0.7-0.7 1.2 0.4-0.3 1-0.4 1.8-0.4 0.4 0.4 0.9 0.5 1.3 0.7zm-1.5 2.8c0.2-0.1 0.4-0.4 0.4-0.7s0-0.5-0.2-0.7c-0.1-0.2-0.4-0.3-0.7-0.4s-0.6 0-0.8 0.1-0.4 0.4-0.4 0.7 0 0.5 0.2 0.7c0.1 0.2 0.4 0.3 0.7 0.4s0.6 0 0.8-0.1z"/>
		<path class="st3" d="m77.9 284.8-0.2 1.7-5.9-0.7 0.1-1.3 3.1-2.2c0.3-0.2 0.5-0.4 0.6-0.6 0.1-0.1 0.2-0.4 0.2-0.5 0-0.2 0-0.4-0.1-0.6-0.1-0.1-0.4-0.2-0.7-0.3-0.3 0-0.5 0-0.8 0.1-0.2 0.1-0.4 0.2-0.7 0.4l-1.5-1.1c0.4-0.4 0.8-0.7 1.4-1s1.2-0.3 1.9-0.1c0.6 0.1 1 0.2 1.5 0.4 0.4 0.2 0.7 0.5 0.9 1 0.2 0.4 0.3 0.8 0.2 1.3-0.1 0.4-0.2 0.7-0.4 1.1s-0.6 0.7-1.2 1.1l-1.6 1.1 3.2 0.2z"/>
		<path class="st3" d="m85.4 279.8-0.1 1.3-3.4 5.8-2.3-0.3 3.3-5.5-1.9-0.2-0.1 1.2-1.8-0.2 0.4-2.8 5.9 0.7z"/>
		<path class="st3" d="m106 288.4-0.2 1.7-5.9-0.7 0.1-1.3 3.1-2.2c0.3-0.2 0.5-0.4 0.7-0.6 0.1-0.1 0.2-0.4 0.2-0.5 0-0.2 0-0.4-0.1-0.6-0.1-0.1-0.4-0.2-0.7-0.3-0.3 0-0.5 0-0.8 0.1-0.2 0.1-0.4 0.2-0.7 0.4l-1.5-1.1c0.4-0.4 0.8-0.7 1.4-1 0.6-0.2 1.2-0.3 1.9-0.1 0.6 0.1 1 0.2 1.5 0.4 0.4 0.2 0.7 0.5 0.9 1 0.2 0.4 0.3 0.8 0.2 1.3-0.1 0.4-0.2 0.7-0.4 1.1s-0.6 0.7-1.2 1.1l-1.6 1.1 3.1 0.2z"/>
		<path class="st3" d="m113 287.7c0.1 0.3 0.2 0.7 0.1 1-0.1 0.4-0.2 0.9-0.6 1.2-0.3 0.3-0.7 0.5-1.3 0.7-0.5 0.1-1.1 0.1-1.7 0.1-0.7-0.1-1.2-0.2-1.6-0.5-0.4-0.2-0.8-0.6-1-1s-0.3-0.8-0.2-1.3c0.1-0.4 0.1-0.7 0.4-1 0.2-0.3 0.5-0.4 0.9-0.7-0.2-0.2-0.4-0.4-0.5-0.7s-0.1-0.6-0.1-0.9c0.1-0.4 0.2-0.8 0.5-1.1s0.7-0.5 1.2-0.6c0.4-0.1 1-0.1 1.6-0.1 0.6 0.1 1.1 0.2 1.5 0.4s0.7 0.5 1 0.9c0.2 0.4 0.3 0.7 0.2 1.2-0.1 0.3-0.1 0.6-0.3 0.8-0.1 0.2-0.4 0.4-0.7 0.6 0.3 0.4 0.5 0.7 0.6 1zm-2.3 1.4c0.2-0.1 0.4-0.4 0.4-0.7s0-0.5-0.2-0.7c-0.1-0.2-0.4-0.3-0.8-0.4s-0.6 0-0.8 0.1-0.4 0.4-0.4 0.7c-0.1 0.3 0 0.5 0.2 0.7 0.1 0.2 0.4 0.3 0.8 0.4 0.2 0 0.5 0 0.8-0.1zm-0.9-4.6c-0.1 0.1-0.3 0.3-0.3 0.5s0 0.4 0.1 0.6c0.1 0.1 0.4 0.2 0.6 0.3 0.3 0 0.5 0 0.7-0.1 0.1-0.1 0.3-0.3 0.3-0.5s0-0.4-0.1-0.6c-0.1-0.1-0.4-0.2-0.6-0.3-0.4 0-0.6 0-0.7 0.1z"/>
		<path class="st3" d="m134 292-0.2 1.7-5.9-0.7 0.1-1.3 3.1-2.2c0.3-0.2 0.5-0.4 0.7-0.6 0.1-0.1 0.2-0.4 0.2-0.5 0-0.2 0-0.4-0.1-0.6-0.1-0.1-0.4-0.2-0.7-0.3-0.3 0-0.5 0-0.8 0.1-0.2 0.1-0.4 0.2-0.7 0.4l-1.5-1.1c0.4-0.4 0.8-0.7 1.4-1s1.2-0.3 1.9-0.1c0.6 0.1 1 0.2 1.5 0.4 0.4 0.2 0.7 0.5 0.9 1 0.2 0.4 0.3 0.8 0.2 1.3-0.1 0.4-0.2 0.7-0.4 1.1s-0.6 0.7-1.2 1.1l-1.6 1.1 3.1 0.2z"/>
		<path class="st3" d="m140.6 287.7c0.5 0.7 0.7 1.6 0.6 2.9-0.1 0.9-0.4 1.6-0.8 2.2s-1 1-1.6 1.3c-0.7 0.2-1.3 0.3-2.2 0.2-0.4-0.1-0.8-0.1-1.2-0.3-0.4-0.1-0.7-0.3-1-0.5l1-1.4c0.3 0.3 0.7 0.5 1.3 0.6 0.5 0.1 1 0 1.3-0.3 0.4-0.2 0.6-0.7 0.7-1.2-0.4 0.3-1 0.4-1.8 0.3-0.4-0.1-0.9-0.2-1.3-0.4s-0.7-0.6-0.8-1-0.2-0.8-0.2-1.3c0.1-0.5 0.2-1 0.6-1.3 0.3-0.4 0.7-0.6 1.2-0.7 0.4-0.1 1-0.2 1.6-0.1 1.2-0.1 2 0.3 2.6 1zm-1.9 2.1c0.2-0.1 0.4-0.4 0.4-0.7s0-0.5-0.2-0.7c-0.1-0.2-0.4-0.3-0.7-0.4s-0.6 0-0.7 0.1c-0.2 0.1-0.4 0.4-0.4 0.7s0 0.5 0.2 0.7c0.1 0.2 0.4 0.3 0.7 0.4 0.1 0 0.4 0 0.7-0.1z"/>
		<path class="st3" d="m161.8 293.6c0.3 0.4 0.4 0.9 0.3 1.5-0.1 0.4-0.2 0.8-0.5 1.2s-0.7 0.6-1.2 0.7-1.1 0.2-1.9 0.1c-0.5-0.1-1-0.2-1.6-0.4-0.5-0.2-0.9-0.4-1.3-0.7l1-1.5c0.3 0.2 0.6 0.4 1 0.6 0.4 0.1 0.7 0.2 1 0.3 0.4 0.1 0.7 0 0.9-0.1s0.4-0.3 0.4-0.5c0.1-0.5-0.3-0.7-1-0.9l-0.9-0.1 0.1-1.3 1.6-1.3-3-0.4 0.2-1.6 5.4 0.7-0.1 1.3-1.8 1.5c0.7 0.1 1.1 0.4 1.4 0.9z"/>
		<path class="st3" d="m164.2 297.3c-0.4-0.4-0.8-0.9-1-1.5s-0.2-1.3-0.1-2.2c0.1-0.8 0.4-1.5 0.7-2 0.4-0.5 0.8-1 1.3-1.2s1.1-0.3 1.8-0.2 1.2 0.3 1.6 0.7 0.8 0.9 1 1.5 0.2 1.3 0.1 2.2c-0.1 0.8-0.4 1.5-0.7 2-0.4 0.5-0.8 1-1.3 1.2s-1.1 0.3-1.8 0.2-1.2-0.3-1.6-0.7zm2.7-1.4c0.2-0.3 0.4-0.8 0.5-1.6 0.1-0.7 0.1-1.3-0.1-1.7-0.1-0.4-0.4-0.6-0.8-0.6-0.4-0.1-0.7 0.1-1 0.4-0.2 0.3-0.4 0.8-0.5 1.6-0.1 0.7-0.1 1.3 0.1 1.7 0.1 0.4 0.4 0.6 0.8 0.7 0.5-0.1 0.8-0.2 1-0.5z"/>
		<path class="st3" d="m189.4 297.1c0.3 0.4 0.4 0.9 0.3 1.5-0.1 0.4-0.2 0.8-0.5 1.2s-0.7 0.6-1.2 0.7-1.1 0.2-1.9 0.1c-0.5-0.1-1-0.2-1.6-0.4-0.5-0.2-0.9-0.4-1.3-0.7l1-1.5c0.3 0.2 0.6 0.4 1 0.6 0.4 0.1 0.7 0.2 1 0.3 0.4 0.1 0.7 0 0.9-0.1s0.4-0.3 0.4-0.5c0.1-0.5-0.3-0.7-1-0.9l-0.9-0.1 0.1-1.3 1.6-1.3-3-0.4 0.2-1.6 5.4 0.7-0.1 1.3-1.8 1.5c0.8 0.2 1.2 0.5 1.4 0.9z"/>
		<path class="st3" d="m194.4 293.9-1 7.5-2.2-0.3 0.7-5.9-1.4-0.1 0.2-1.6 3.7 0.4z"/>
		<path class="st5" d="m82.7 152c-0.4 3.5-3.6 6-7.2 5.6-3.5-0.4-6-3.6-5.6-7.2 0.4-3.5 3.7-6 7.2-5.6s6 3.7 5.6 7.2z"/>
		<path class="st5" d="m119.7 156.8c-0.4 3.5-3.7 6-7.2 5.6s-6-3.7-5.6-7.2 3.6-6 7.2-5.6c3.6 0.5 6.1 3.7 5.6 7.2z"/>
		<path class="st5" d="m156.8 161.6c-0.4 3.5-3.7 6-7.2 5.6s-6-3.7-5.6-7.2 3.7-6 7.2-5.6c3.6 0.4 6.1 3.7 5.6 7.2z"/>
		<path class="st5" d="m193.9 166.4c-0.4 3.5-3.7 6-7.2 5.6s-6-3.6-5.6-7.2c0.4-3.5 3.7-6 7.2-5.6 3.6 0.5 6.1 3.7 5.6 7.2z"/>
		<path class="st5" d="m231.1 171.2c-0.4 3.5-3.6 6-7.2 5.6-3.5-0.4-6-3.7-5.6-7.2s3.7-6 7.2-5.6 6 3.7 5.6 7.2z"/>
			<linearGradient id="g" x1="73.645" x2="81.465" y1="358.89" y2="358.89" gradientTransform="matrix(1 0 0 -1 8.4104e-6 500.11)" gradientUnits="userSpaceOnUse">
			<stop stop-color="#C7B5FB" offset="0"/>
			<stop stop-color="#907FCC" offset="1"/>
		</linearGradient>
		<path class="st6" d="m76 152.8c-1.5-0.2-2.6-1.6-2.4-3.1l2.3-17.6c0.2-1.5 1.6-2.6 3.1-2.4s2.6 1.6 2.4 3.1l-2.3 17.6c-0.2 1.5-1.5 2.6-3.1 2.4z"/>
			<linearGradient id="f" x1="110.74" x2="118.56" y1="354.12" y2="354.12" gradientTransform="matrix(1 0 0 -1 8.4104e-6 500.11)" gradientUnits="userSpaceOnUse">
			<stop stop-color="#C7B5FB" offset="0"/>
			<stop stop-color="#907FCC" offset="1"/>
		</linearGradient>
		<path class="st7" d="m113.2 157.6c-1.5-0.2-2.6-1.6-2.4-3.1l2.3-17.6c0.2-1.5 1.6-2.6 3.1-2.4s2.6 1.6 2.4 3.1l-2.3 17.6c-0.2 1.5-1.6 2.6-3.1 2.4z"/>
			<linearGradient id="e" x1="147.84" x2="155.66" y1="349.28" y2="349.28" gradientTransform="matrix(1 0 0 -1 8.4104e-6 500.11)" gradientUnits="userSpaceOnUse">
			<stop stop-color="#C7B5FB" offset="0"/>
			<stop stop-color="#907FCC" offset="1"/>
		</linearGradient>
		<path class="st8" d="m150.3 162.4c-1.5-0.2-2.6-1.6-2.4-3.1l2.3-17.6c0.2-1.5 1.6-2.6 3.1-2.4s2.6 1.6 2.4 3.1l-2.3 17.6c-0.2 1.5-1.6 2.6-3.1 2.4z"/>
			<linearGradient id="d" x1="184.94" x2="192.76" y1="344.51" y2="344.51" gradientTransform="matrix(1 0 0 -1 8.4104e-6 500.11)" gradientUnits="userSpaceOnUse">
			<stop stop-color="#C7B5FB" offset="0"/>
			<stop stop-color="#907FCC" offset="1"/>
		</linearGradient>
		<path class="st9" d="m187.4 167.2c-1.5-0.2-2.6-1.6-2.4-3.1l2.3-17.6c0.2-1.5 1.6-2.6 3.1-2.4s2.6 1.6 2.4 3.1l-2.3 17.6c-0.2 1.6-1.7 2.6-3.1 2.4z"/>
			<linearGradient id="c" x1="222.04" x2="229.86" y1="339.68" y2="339.68" gradientTransform="matrix(1 0 0 -1 8.4104e-6 500.11)" gradientUnits="userSpaceOnUse">
			<stop stop-color="#C7B5FB" offset="0"/>
			<stop stop-color="#907FCC" offset="1"/>
		</linearGradient>
		<path class="st10" d="m224.4 172c-1.5-0.2-2.6-1.6-2.4-3.1l2.3-17.6c0.2-1.5 1.6-2.6 3.1-2.4s2.6 1.6 2.4 3.1l-2.3 17.6c-0.2 1.5-1.5 2.6-3.1 2.4z"/>
		<path class="st3" d="m60.4 181-0.7-1.3-1 1.1-0.9-0.1 1.5-1.6-1-1.9 0.9 0.1 0.7 1.2 0.9-1 0.9 0.1-1.4 1.5 1.1 2-1-0.1zm3.5 0.4-0.7-1.3-1 1.1-0.9-0.1 1.5-1.6-1-1.9 0.9 0.1 0.7 1.2 0.9-1 0.9 0.1-1.4 1.5 1.1 2-1-0.1zm3.5 0.5-0.7-1.3-1 1.1-0.9-0.1 1.5-1.6-1-1.9 0.9 0.1 0.7 1.2 0.9-1 0.9 0.1-1.4 1.5 1.1 2-1-0.1zm3.6 0.4-0.7-1.3-1 1.1-0.9-0.1 1.5-1.6-1-1.9 0.9 0.1 0.7 1.2 0.9-1 0.9 0.1-1.4 1.5 1.1 2-1-0.1zm3.5 0.5-0.7-1.3-1 1.1-0.9-0.1 1.5-1.6-1-1.9 0.9 0.1 0.7 1.2 0.9-1 0.9 0.1-1.4 1.5 1.1 2-1-0.1zm3.5 0.4-0.7-1.3-1 1.1-0.9-0.1 1.5-1.6-1-1.9 0.9 0.1 0.7 1.2 0.9-1 0.9 0.1-1.4 1.5 1.1 2-1-0.1zm3.6 0.4-0.7-1.3-1 1.1-0.9-0.1 1.5-1.6-1-1.9 0.9 0.1 0.7 1.2 0.9-1 0.9 0.1-1.4 1.5 1.1 2-1-0.1zm3.5 0.5-0.7-1.3-1 1.1-0.9-0.1 1.5-1.6-1-1.9 0.9 0.1 0.7 1.2 0.9-1 0.9 0.1-1.4 1.5 1.1 2-1-0.1zm3.5 0.4-0.7-1.3-1 1.1-0.9-0.1 1.5-1.6-1-1.9 0.9 0.1 0.7 1.2 0.9-1 0.9 0.1-1.4 1.5 1.1 2-1-0.1z"/>
		<path class="st3" d="m223.5 344c13.6 0 24.6-11 24.6-24.6s-11-24.6-24.6-24.6-24.6 11-24.6 24.6c0.1 13.6 11.1 24.6 24.6 24.6z"/>
		<path class="st5" d="m223.5 341c11.9 0 21.5-9.6 21.5-21.5s-9.6-21.5-21.5-21.5-21.5 9.6-21.5 21.5 9.7 21.5 21.5 21.5z"/>
		<path class="st3" d="m224.7 318.2c0.7 0.6 0.7 1.7 0.1 2.4s-1.7 0.7-2.4 0.1-0.7-1.7-0.1-2.4c0.7-0.6 1.7-0.7 2.4-0.1z"/>
		<path class="st3" d="m223.5 319.5c-0.3 0.4-0.9 0.4-1.3 0.1l-9.9-9.1c-0.4-0.3-0.4-0.9-0.1-1.3s0.9-0.4 1.3-0.1l9.9 9.1c0.4 0.4 0.5 0.9 0.1 1.3z"/>
		<path class="st3" d="m223.5 319.5c-0.1-0.4 0.2-1 0.7-1l8.3-1.9c0.4-0.1 1 0.2 1 0.7 0.1 0.4-0.2 1-0.7 1l-8.3 1.9c-0.4 0.1-0.8-0.2-1-0.7z"/>
			<linearGradient id="b" x1="16.358" x2="16.358" y1="270.33" y2="287.36" gradientTransform="matrix(1 0 0 -1 8.4104e-6 500.11)" gradientUnits="userSpaceOnUse">
			<stop stop-color="#C2AFF6" offset="0"/>
			<stop stop-color="#9583D1" offset=".9948"/>
		</linearGradient>
		<path class="st11" d="m19.5 217.6c-0.9-0.9-2-1.3-3.1-1.3s-2.2 0.4-3.1 1.3c-1.5 1.5-1.7 3.7-0.6 5.4 0.5 0.8 3.7 5 3.7 5s3.2-4.2 3.7-5c0.4-0.7 0.7-1.5 0.7-2.3 0-1.1-0.4-2.3-1.3-3.1zm-3.1 4.7c-0.9 0-1.6-0.7-1.6-1.6s0.7-1.6 1.6-1.6 1.6 0.7 1.6 1.6c0 0.8-0.7 1.6-1.6 1.6z"/>
		<path class="st12" d="m85.7 238.4c4.8 0 8.7-3.9 8.7-8.7s-3.9-8.7-8.7-8.7-8.7 3.9-8.7 8.7 3.9 8.7 8.7 8.7z"/>
		<path class="st12" d="M76.9,229.7H5.4"/>
		<path class="st3" d="m26.4 233.9h-20c-0.5 0-1-0.4-1-1 0-0.5 0.4-1 1-1h20c0.5 0 1 0.4 1 1s-0.5 1-1 1z"/>
		<path class="st3" d="m26.4 236.7h-20c-0.5 0-1-0.4-1-1 0-0.5 0.4-1 1-1h20c0.5 0 1 0.4 1 1s-0.5 1-1 1z"/>
		<path class="st3" d="m15.7 239.5h-9.3c-0.5 0-1-0.4-1-1 0-0.5 0.4-1 1-1h9.3c0.5 0 1 0.4 1 1 0 0.5-0.5 1-1 1z"/>
		<path class="st3" d="m130.9 330.1h-20c-0.5 0-1-0.4-1-1 0-0.5 0.4-1 1-1h20c0.5 0 1 0.4 1 1s-0.5 1-1 1z"/>
		<path class="st3" d="m130.9 332.9h-20c-0.5 0-1-0.4-1-1 0-0.5 0.4-1 1-1h20c0.5 0 1 0.4 1 1s-0.5 1-1 1z"/>
		<path class="st3" d="m120.2 335.8h-9.3c-0.5 0-1-0.4-1-1 0-0.5 0.4-1 1-1h9.3c0.5 0 1 0.4 1 1-0.1 0.5-0.5 1-1 1z"/>
			<linearGradient id="a" x1="101.79" x2="101.79" y1="172.97" y2="163.98" gradientTransform="matrix(1 0 0 -1 8.4104e-6 500.11)" gradientUnits="userSpaceOnUse">
			<stop stop-color="#C2AFF6" offset="0"/>
			<stop stop-color="#9583D1" offset=".9948"/>
		</linearGradient>
		<path class="st13" d="m106.3 331.6c0 2.5-2 4.5-4.5 4.5s-4.5-2-4.5-4.5 2-4.5 4.5-4.5c2.4 0 4.5 2 4.5 4.5z"/>
		<path class="st14" d="m106.2 326.3c-1.6 1.8-3.1 3.6-4.6 5.4-0.4-0.3-0.7-0.6-1.1-0.8-1.1-0.8-2.2 1-1.1 1.8l1.8 1.4c0.4 0.3 1 0.1 1.3-0.1 1.7-2.1 3.5-4.1 5.2-6.2 0.9-1-0.6-2.5-1.5-1.5z"/>
		<path class="st3" d="m130.9 344h-20c-0.5 0-1-0.4-1-1 0-0.5 0.4-1 1-1h20c0.5 0 1 0.4 1 1s-0.5 1-1 1z"/>
		<path class="st3" d="m130.9 346.8h-20c-0.5 0-1-0.4-1-1 0-0.5 0.4-1 1-1h20c0.5 0 1 0.4 1 1s-0.5 1-1 1z"/>
		<path class="st3" d="m120.3 349.6h-9.6c-0.4 0-0.8-0.4-0.8-0.8v-0.3c0-0.4 0.4-0.8 0.8-0.8h9.6c0.4 0 0.8 0.4 0.8 0.8v0.3c0 0.5-0.3 0.8-0.8 0.8z"/>
			<linearGradient id="n" x1="101.79" x2="101.79" y1="159.09" y2="150.09" gradientTransform="matrix(1 0 0 -1 8.4104e-6 500.11)" gradientUnits="userSpaceOnUse">
			<stop stop-color="#C2AFF6" offset="0"/>
			<stop stop-color="#9583D1" offset=".9948"/>
		</linearGradient>
		<path class="st15" d="m106.3 345.5c0 2.5-2 4.5-4.5 4.5s-4.5-2-4.5-4.5 2-4.5 4.5-4.5c2.4 0 4.5 2 4.5 4.5z"/>
		<path class="st3" d="m130.9 357.9h-20c-0.5 0-1-0.4-1-1 0-0.5 0.4-1 1-1h20c0.5 0 1 0.4 1 1 0 0.5-0.5 1-1 1z"/>
		<path class="st3" d="m130.9 360.7h-20c-0.5 0-1-0.4-1-1 0-0.5 0.4-1 1-1h20c0.5 0 1 0.4 1 1s-0.5 1-1 1z"/>
		<path class="st3" d="m120.2 363.5h-9.3c-0.5 0-1-0.4-1-1 0-0.5 0.4-1 1-1h9.3c0.5 0 1 0.4 1 1-0.1 0.6-0.5 1-1 1z"/>
			<linearGradient id="m" x1="101.79" x2="101.79" y1="145.21" y2="136.21" gradientTransform="matrix(1 0 0 -1 8.4104e-6 500.11)" gradientUnits="userSpaceOnUse">
			<stop stop-color="#C2AFF6" offset="0"/>
			<stop stop-color="#9583D1" offset=".9948"/>
		</linearGradient>
		<path class="st16" d="m106.3 359.4c0 2.5-2 4.5-4.5 4.5s-4.5-2-4.5-4.5 2-4.5 4.5-4.5c2.4 0 4.5 2 4.5 4.5z"/>
		<path class="st12" d="m134.6 364.8v-37.7l22.1-26.4"/>
		<path class="st12" d="m162.4 302.8c4.8 0 8.7-3.9 8.7-8.7s-3.9-8.7-8.7-8.7-8.7 3.9-8.7 8.7 3.9 8.7 8.7 8.7z"/>
		<path class="st12" d="m171.3 231c4.8 0 8.7-3.9 8.7-8.7s-3.9-8.7-8.7-8.7-8.7 3.9-8.7 8.7 3.9 8.7 8.7 8.7z"/>
		<path class="st12" d="m174.6 214.2 35.1-72h21.6"/>
		<path class="st3" d="m230.4 134.6h-20c-0.5 0-1-0.4-1-1 0-0.5 0.4-1 1-1h20c0.5 0 1 0.4 1 1 0 0.5-0.5 1-1 1z"/>
		<path class="st3" d="m230.4 137.3h-20c-0.5 0-1-0.4-1-1s0.4-1 1-1h20c0.5 0 1 0.4 1 1s-0.5 1-1 1z"/>
		<path class="st3" d="m219.7 140.1h-9.3c-0.5 0-1-0.4-1-1 0-0.5 0.4-1 1-1h9.3c0.5 0 1 0.4 1 1-0.1 0.6-0.5 1-1 1z"/>
			<linearGradient id="l" x1="217.37" x2="217.37" y1="373.03" y2="384.46" gradientTransform="matrix(1 0 0 -1 8.4104e-6 500.11)" gradientUnits="userSpaceOnUse">
			<stop stop-color="#C2AFF6" offset="0"/>
			<stop stop-color="#9583D1" offset=".9948"/>
		</linearGradient>
		<path class="st17" d="m219 121.7c1-0.6 1.6-1.6 1.6-2.8 0-1.8-1.4-3.2-3.2-3.2s-3.2 1.4-3.2 3.2c0 1.2 0.7 2.2 1.6 2.8-2 0.7-3.5 2.6-3.5 4.9v0.5h10.3v-0.5c-0.1-2.3-1.6-4.3-3.6-4.9z"/>
			<linearGradient id="k" x1="223.92" x2="223.92" y1="371.21" y2="382.64" gradientTransform="matrix(1 0 0 -1 8.4104e-6 500.11)" gradientUnits="userSpaceOnUse">
			<stop stop-color="#C2AFF6" offset="0"/>
			<stop stop-color="#9583D1" offset=".9948"/>
		</linearGradient>
		<path class="st18" d="m225.6 123.5c1-0.6 1.6-1.6 1.6-2.8 0-1.8-1.4-3.2-3.2-3.2s-3.2 1.4-3.2 3.2c0 1.2 0.7 2.2 1.6 2.8-2 0.7-3.5 2.6-3.5 4.9v0.5h10.3v-0.5c-0.1-2.3-1.6-4.3-3.6-4.9z"/>
	</g>
	<path class="st5" d="m198.5 243.3h-26.3v17.8h30.8v11h-44.6v-66.6h44.6v11.1h-30.8v15.9h26.3v10.8zm37.2 12.3 15.1-50.1h15.3l-23.2 66.6h-14.3l-23.1-66.6h15.2l15 50.1zm76.7-12.3h-26.3v17.8h30.9v11h-44.6v-66.6h44.5v11.1h-30.8v15.9h26.3v10.8zm66.8 28.8h-13.7l-26.7-43.8v43.8h-13.8v-66.6h13.7l26.8 43.9v-43.9h13.7v66.6zm60.7-55.4h-20.4v55.5h-13.7v-55.5h-20.1v-11.1h54.2v11.1zm41.7 38c0-2.6-0.9-4.6-2.7-5.9-1.8-1.4-5.1-2.9-9.9-4.4-4.8-1.6-8.5-3.1-11.3-4.6-7.6-4.1-11.3-9.6-11.3-16.5 0-3.6 1-6.8 3-9.6s5-5 8.7-6.6c3.8-1.6 8.1-2.4 12.8-2.4 4.8 0 9 0.9 12.7 2.6s6.6 4.1 8.6 7.3c2.1 3.1 3.1 6.7 3.1 10.7h-13.7c0-3-1-5.4-2.9-7.1s-4.6-2.6-8.1-2.6c-3.4 0-6 0.7-7.8 2.1-1.9 1.4-2.8 3.3-2.8 5.6 0 2.2 1.1 4 3.2 5.4 2.2 1.5 5.4 2.8 9.7 4.1 7.8 2.3 13.5 5.3 17.1 8.7s5.4 7.8 5.4 13c0 5.8-2.2 10.3-6.5 13.6-4.4 3.3-10.2 4.9-17.6 4.9-5.1 0-9.8-0.9-14-2.8s-7.4-4.5-9.6-7.7c-2.2-3.3-3.3-7-3.3-11.3h13.6c0 7.3 4.4 11 13.2 11 3.3 0 5.8-0.7 7.6-2 1.9-1.3 2.8-3.2 2.8-5.5z"/>
		<linearGradient id="j" x1="229.4" x2="662.5" y1="261.28" y2="261.28" gradientTransform="matrix(1 0 0 -1 8.4104e-6 500.11)" gradientUnits="userSpaceOnUse">
		<stop stop-color="#A01BB2" offset="0"/>
		<stop stop-color="#683387" offset="1"/>
	</linearGradient>
	<path class="st19" d="m198.5 243.3h-26.3v17.8h30.8v11h-44.6v-66.6h44.6v11.1h-30.8v15.9h26.3v10.8zm37.2 12.3 15.1-50.1h15.3l-23.2 66.6h-14.3l-23.1-66.6h15.2l15 50.1zm76.7-12.3h-26.3v17.8h30.9v11h-44.6v-66.6h44.5v11.1h-30.8v15.9h26.3v10.8zm66.8 28.8h-13.7l-26.7-43.8v43.8h-13.8v-66.6h13.7l26.8 43.9v-43.9h13.7v66.6zm60.7-55.4h-20.4v55.5h-13.7v-55.5h-20.1v-11.1h54.2v11.1zm41.7 38c0-2.6-0.9-4.6-2.7-5.9-1.8-1.4-5.1-2.9-9.9-4.4-4.8-1.6-8.5-3.1-11.3-4.6-7.6-4.1-11.3-9.6-11.3-16.5 0-3.6 1-6.8 3-9.6s5-5 8.7-6.6c3.8-1.6 8.1-2.4 12.8-2.4 4.8 0 9 0.9 12.7 2.6s6.6 4.1 8.6 7.3c2.1 3.1 3.1 6.7 3.1 10.7h-13.7c0-3-1-5.4-2.9-7.1s-4.6-2.6-8.1-2.6c-3.4 0-6 0.7-7.8 2.1-1.9 1.4-2.8 3.3-2.8 5.6 0 2.2 1.1 4 3.2 5.4 2.2 1.5 5.4 2.8 9.7 4.1 7.8 2.3 13.5 5.3 17.1 8.7s5.4 7.8 5.4 13c0 5.8-2.2 10.3-6.5 13.6-4.4 3.3-10.2 4.9-17.6 4.9-5.1 0-9.8-0.9-14-2.8s-7.4-4.5-9.6-7.7c-2.2-3.3-3.3-7-3.3-11.3h13.6c0 7.3 4.4 11 13.2 11 3.3 0 5.8-0.7 7.6-2 1.9-1.3 2.8-3.2 2.8-5.5z"/>
</svg>
