<?xml version="1.0" encoding="utf-8"?>
<!-- Generator: Adobe Illustrator 24.2.0, SVG Export Plug-In . SVG Version: 6.00 Build 0)  -->
<svg version="1.1" xmlns="http://www.w3.org/2000/svg" xmlns:xlink="http://www.w3.org/1999/xlink" x="0px" y="0px"
	 viewBox="0 0 750 500" style="enable-background:new 0 0 750 500;" xml:space="preserve">
<style type="text/css">
	.st0{fill:url(#SVGID_1_);}
	.st1{fill:url(#SVGID_2_);}
	.st2{fill:#9980D1;}
	.st3{fill:#A59AC1;}
	.st4{fill:#FFFFFF;}
	.st5{fill:url(#SVGID_3_);}
	.st6{fill:url(#SVGID_4_);}
	.st7{fill:url(#SVGID_5_);}
	.st8{fill:url(#SVGID_6_);}
	.st9{fill:url(#SVGID_7_);}
	.st10{font-family:'Montserrat-Bold';}
	.st11{font-size:10.7836px;}
	.st12{letter-spacing:3;}
	.st13{fill:url(#SVGID_8_);}
	.st14{fill:none;stroke:#828282;stroke-width:0.5;stroke-miterlimit:10;}
	.st15{fill:url(#SVGID_9_);}
	.st16{fill:#E6E6E6;}
	.st17{fill:url(#SVGID_10_);}
	.st18{fill:url(#SVGID_11_);}
	.st19{fill:url(#SVGID_12_);}
	.st20{fill:url(#SVGID_13_);}
</style>
<g id="BACKGROUND">
</g>
<g id="OBJECTS">
	<g>
		<g>
			<g>
				<g>
					
						<image style="overflow:visible;opacity:0.15;" width="1362" height="1218" xlink:href="C332D4BE.png"  transform="matrix(0.24 0 0 0.24 228.44 70.855)">
					</image>
					<g>
						<g>
							<g>
								
									<linearGradient id="SVGID_1_" gradientUnits="userSpaceOnUse" x1="333.6781" y1="685.7953" x2="387.1245" y2="186.3444" gradientTransform="matrix(0.9991 4.240000e-02 -4.240000e-02 0.9991 11.3109 -21.6539)">
									<stop  offset="0.6089" style="stop-color:#CBB2FA"/>
									<stop  offset="1" style="stop-color:#FFFFFF"/>
								</linearGradient>
								<path class="st0" d="M533,140.8l-24.1,186.3c-1.1,8.7-9.1,14.9-17.9,13.8l-240.5-31.2c-8.7-1.1-14.9-9.1-13.8-17.9
									l24.1-186.3c1.1-8.7,9.1-14.9,17.9-13.8l240.5,31.2C528,124.1,534.1,132.1,533,140.8z"/>
								
									<linearGradient id="SVGID_2_" gradientUnits="userSpaceOnUse" x1="253.4227" y1="128.7005" x2="528.1641" y2="128.7005" gradientTransform="matrix(0.9991 4.240000e-02 -4.240000e-02 0.9991 11.3109 -21.6539)">
									<stop  offset="0" style="stop-color:#CBB2FA"/>
									<stop  offset="0.9948" style="stop-color:#9E85D6"/>
								</linearGradient>
								<path class="st1" d="M533,140.8l-2,15.2l-272.1-35.3l2-15.2c1.1-8.7,9.1-14.9,17.9-13.8l240.5,31.2
									C528,124.1,534.1,132.1,533,140.8z"/>
							</g>
							<g>
								<g>
									<path class="st2" d="M388.6,193l-1.3,10.1l-2.9-0.4l1-7.9l-1.9-0.2l0.3-2.2L388.6,193z"/>
								</g>
								<g>
									<path class="st2" d="M429.1,206.2l-0.3,2.3l-7.9-1l0.2-1.8l4.2-3c0.4-0.3,0.7-0.6,0.9-0.8c0.2-0.2,0.2-0.5,0.3-0.7
										c0-0.3,0-0.6-0.2-0.8c-0.2-0.2-0.5-0.3-0.9-0.4c-0.4,0-0.7,0-1.1,0.1c-0.3,0.1-0.6,0.3-0.9,0.6l-2-1.5
										c0.5-0.6,1.1-1,1.9-1.3c0.8-0.3,1.6-0.4,2.6-0.2c0.8,0.1,1.4,0.3,2,0.6c0.6,0.3,1,0.7,1.2,1.3c0.3,0.5,0.4,1.1,0.3,1.7
										c-0.1,0.5-0.3,1-0.6,1.5c-0.3,0.5-0.8,0.9-1.6,1.5l-2.1,1.5L429.1,206.2z"/>
								</g>
								<g>
									<path class="st2" d="M466.4,208.2c0.4,0.6,0.5,1.2,0.4,2c-0.1,0.6-0.3,1.1-0.7,1.6c-0.4,0.5-0.9,0.8-1.6,1
										c-0.7,0.2-1.5,0.3-2.5,0.2c-0.7-0.1-1.4-0.3-2.1-0.5c-0.7-0.3-1.2-0.6-1.7-1l1.3-2c0.4,0.3,0.8,0.6,1.3,0.8
										c0.5,0.2,1,0.3,1.4,0.4c0.5,0.1,0.9,0,1.2-0.1c0.3-0.1,0.5-0.4,0.5-0.7c0.1-0.7-0.4-1-1.4-1.2l-1.2-0.2l0.2-1.8l2.1-1.7
										l-4-0.5l0.3-2.2l7.3,0.9L467,205l-2.4,2C465.4,207.2,466,207.7,466.4,208.2z"/>
								</g>
								<g>
									<path class="st2" d="M506.2,216.5l-1.5-0.2l-0.3,1.9l-2.8-0.4l0.3-1.9l-5.3-0.7l0.2-1.9l5.3-5.7l3,0.4l-4.9,5.4l2,0.3
										l0.2-1.7l2.7,0.3l-0.2,1.7l1.5,0.2L506.2,216.5z"/>
								</g>
								<g>
									<path class="st3" d="M275,207.3c0.6,0.7,0.8,1.5,0.7,2.4c-0.1,0.6-0.3,1.2-0.7,1.7c-0.4,0.5-0.9,0.8-1.6,1.1
										c-0.7,0.2-1.5,0.3-2.5,0.2c-0.7-0.1-1.4-0.3-2.1-0.5c-0.7-0.3-1.2-0.6-1.7-1l1.3-2c0.4,0.3,0.8,0.6,1.3,0.8
										c0.5,0.2,0.9,0.3,1.4,0.4c0.5,0.1,0.9,0,1.2-0.1c0.3-0.2,0.5-0.4,0.5-0.7c0-0.3-0.1-0.6-0.3-0.8c-0.3-0.2-0.8-0.4-1.5-0.5
										l-2.7-0.4l1.3-5.8l6.4,0.8l-0.3,2.2l-4.1-0.5l-0.3,1.5l0.7,0.1C273.4,206.2,274.4,206.7,275,207.3z"/>
								</g>
								<g>
									<path class="st2" d="M312.8,211.7c0.5,0.3,0.9,0.8,1.1,1.3c0.2,0.5,0.3,1.1,0.3,1.7c-0.1,0.7-0.3,1.3-0.8,1.7
										c-0.4,0.5-0.9,0.8-1.6,1c-0.6,0.2-1.3,0.3-2.1,0.2c-1.4-0.2-2.5-0.8-3.2-1.7c-0.7-1-1-2.2-0.8-3.9c0.1-1.2,0.5-2.1,1.1-2.9
										c0.6-0.8,1.3-1.3,2.1-1.6c0.9-0.3,1.8-0.4,2.9-0.3c0.6,0.1,1.1,0.2,1.6,0.4c0.5,0.2,0.9,0.4,1.3,0.7l-1.3,1.9
										c-0.4-0.4-1-0.7-1.8-0.8c-0.7-0.1-1.3,0-1.9,0.4c-0.5,0.3-0.8,0.9-1,1.6c0.6-0.4,1.4-0.6,2.4-0.5
										C311.7,211.2,312.3,211.4,312.8,211.7z M310.8,215.4c0.3-0.2,0.5-0.5,0.5-0.9c0-0.4,0-0.7-0.3-1c-0.2-0.3-0.5-0.4-1-0.5
										c-0.4-0.1-0.8,0-1.1,0.2c-0.3,0.2-0.5,0.5-0.5,0.9c0,0.4,0,0.7,0.3,1c0.2,0.3,0.6,0.4,1,0.5
										C310.2,215.7,310.6,215.6,310.8,215.4z"/>
								</g>
								<g>
									<path class="st2" d="M352.2,212.7l-0.2,1.8l-4.6,7.8l-3.1-0.4l4.4-7.4l-2.7-0.3l-0.2,1.6l-2.4-0.3l0.5-3.8L352.2,212.7z"/>
								</g>
								<g>
									<path class="st2" d="M389.3,223.4c0.2,0.4,0.3,0.9,0.2,1.4c-0.1,0.6-0.3,1.2-0.8,1.6c-0.4,0.4-1,0.7-1.7,0.9
										c-0.7,0.2-1.5,0.2-2.3,0.1c-0.9-0.1-1.6-0.3-2.2-0.7c-0.6-0.3-1.1-0.8-1.4-1.3c-0.3-0.5-0.4-1.1-0.3-1.7
										c0.1-0.5,0.2-0.9,0.5-1.3c0.3-0.4,0.7-0.6,1.2-0.9c-0.3-0.3-0.5-0.6-0.7-1c-0.1-0.4-0.2-0.8-0.1-1.2
										c0.1-0.6,0.3-1.1,0.7-1.5c0.4-0.4,0.9-0.7,1.5-0.8c0.6-0.2,1.4-0.2,2.1-0.1c0.8,0.1,1.5,0.3,2.1,0.6c0.6,0.3,1,0.7,1.3,1.2
										c0.3,0.5,0.4,1,0.3,1.6c-0.1,0.4-0.2,0.8-0.4,1.1c-0.2,0.3-0.5,0.6-0.9,0.8C388.8,222.6,389.1,223,389.3,223.4z
										 M386.1,225.2c0.3-0.2,0.5-0.5,0.5-0.9c0-0.4,0-0.7-0.3-1c-0.2-0.3-0.6-0.4-1.1-0.5c-0.5-0.1-0.8,0-1.1,0.2
										c-0.3,0.2-0.5,0.5-0.5,0.9c-0.1,0.4,0,0.7,0.3,1c0.2,0.3,0.6,0.4,1.1,0.5C385.4,225.4,385.8,225.4,386.1,225.2z
										 M384.9,219.1c-0.2,0.2-0.4,0.4-0.4,0.7c0,0.3,0,0.6,0.2,0.8c0.2,0.2,0.5,0.3,0.8,0.4c0.4,0,0.7,0,0.9-0.2
										c0.2-0.2,0.4-0.4,0.4-0.7c0-0.3,0-0.6-0.2-0.8c-0.2-0.2-0.5-0.3-0.8-0.4C385.4,218.9,385.1,218.9,384.9,219.1z"/>
								</g>
								<g>
									<path class="st2" d="M426.3,223.4c0.7,1,1,2.2,0.8,3.9c-0.1,1.2-0.5,2.1-1.1,2.9c-0.6,0.8-1.3,1.3-2.1,1.7
										c-0.9,0.3-1.8,0.4-2.9,0.3c-0.6-0.1-1.1-0.2-1.6-0.4c-0.5-0.2-0.9-0.4-1.3-0.7l1.3-1.9c0.4,0.4,1,0.7,1.8,0.8
										c0.7,0.1,1.3,0,1.8-0.4c0.5-0.3,0.8-0.9,1-1.6c-0.6,0.4-1.4,0.6-2.4,0.4c-0.6-0.1-1.2-0.3-1.7-0.6
										c-0.5-0.3-0.9-0.8-1.1-1.3c-0.2-0.5-0.3-1.1-0.3-1.7c0.1-0.7,0.3-1.3,0.8-1.7c0.4-0.5,0.9-0.8,1.6-1
										c0.6-0.2,1.3-0.3,2.1-0.2C424.5,221.9,425.5,222.4,426.3,223.4z M423.7,226.1c0.3-0.2,0.5-0.5,0.5-0.9c0-0.4,0-0.7-0.3-1
										c-0.2-0.3-0.6-0.4-1-0.5c-0.4-0.1-0.7,0-1,0.2c-0.3,0.2-0.5,0.5-0.5,0.9c0,0.4,0,0.7,0.3,1c0.2,0.3,0.5,0.4,1,0.5
										C423,226.3,423.4,226.3,423.7,226.1z"/>
								</g>
								<g>
									<path class="st2" d="M457,226.3l-1.3,10.1l-2.9-0.4l1-7.9l-1.9-0.2l0.3-2.2L457,226.3z"/>
									<path class="st2" d="M459.4,236.4c-0.6-0.5-1.1-1.2-1.3-2c-0.3-0.8-0.3-1.8-0.2-2.9c0.1-1.1,0.5-2,0.9-2.7
										c0.5-0.7,1.1-1.3,1.8-1.6c0.7-0.3,1.5-0.4,2.4-0.3c0.9,0.1,1.6,0.4,2.2,0.9c0.6,0.5,1.1,1.2,1.3,2c0.3,0.8,0.3,1.8,0.2,2.9
										c-0.1,1.1-0.5,2-0.9,2.7c-0.5,0.7-1.1,1.3-1.8,1.6c-0.7,0.3-1.5,0.4-2.4,0.3C460.8,237.2,460,236.9,459.4,236.4z
										 M463.2,234.5c0.3-0.4,0.6-1.1,0.7-2.2c0.1-1,0.1-1.8-0.1-2.3c-0.2-0.5-0.6-0.8-1.1-0.8c-0.5-0.1-0.9,0.1-1.3,0.5
										c-0.3,0.4-0.6,1.2-0.7,2.2c-0.1,1-0.1,1.8,0.1,2.3c0.2,0.5,0.6,0.8,1.1,0.9C462.4,235.1,462.8,234.9,463.2,234.5z"/>
								</g>
								<g>
									<path class="st2" d="M498.9,231.7l-1.3,10.1l-2.9-0.4l1-7.9l-1.9-0.2l0.3-2.2L498.9,231.7z"/>
									<path class="st2" d="M504.7,232.5l-1.3,10.1l-2.9-0.4l1-7.9l-1.9-0.2l0.3-2.2L504.7,232.5z"/>
								</g>
								<g>
									<path class="st3" d="M265.5,225.9l-1.3,10.1l-2.9-0.4l1-7.9l-1.9-0.2l0.3-2.2L265.5,225.9z"/>
									<path class="st3" d="M273.8,234.9l-0.3,2.3l-7.9-1l0.2-1.8l4.2-3c0.4-0.3,0.7-0.6,0.8-0.8c0.2-0.2,0.2-0.5,0.3-0.7
										c0-0.3,0-0.6-0.2-0.8c-0.2-0.2-0.5-0.3-0.9-0.4c-0.4,0-0.7,0-1.1,0.1c-0.3,0.1-0.6,0.3-0.9,0.6l-2-1.5
										c0.5-0.6,1.1-1,1.9-1.3c0.8-0.3,1.6-0.4,2.6-0.2c0.8,0.1,1.4,0.3,2,0.6c0.6,0.3,1,0.7,1.2,1.3c0.3,0.5,0.4,1.1,0.3,1.7
										c-0.1,0.5-0.3,1-0.6,1.5c-0.3,0.5-0.8,0.9-1.6,1.5l-2.1,1.5L273.8,234.9z"/>
								</g>
								<g>
									<path class="st2" d="M303.2,230.8l-1.3,10.1l-2.9-0.4l1-7.9l-1.9-0.2l0.3-2.2L303.2,230.8z"/>
									<path class="st2" d="M311.1,237c0.4,0.6,0.5,1.2,0.4,2c-0.1,0.6-0.3,1.1-0.7,1.6c-0.4,0.5-0.9,0.8-1.6,1
										c-0.7,0.2-1.5,0.3-2.5,0.2c-0.7-0.1-1.4-0.3-2.1-0.5c-0.7-0.3-1.2-0.6-1.7-1l1.3-2c0.4,0.3,0.8,0.6,1.3,0.8
										c0.5,0.2,1,0.3,1.4,0.4c0.5,0.1,0.9,0,1.2-0.1c0.3-0.1,0.5-0.4,0.5-0.7c0.1-0.7-0.4-1-1.4-1.2l-1.2-0.2l0.2-1.8l2.1-1.7
										l-4-0.5l0.3-2.2l7.3,0.9l-0.2,1.8l-2.4,2C310.2,236,310.8,236.4,311.1,237z"/>
								</g>
								<g>
									<path class="st2" d="M341,235.7l-1.3,10.1l-2.9-0.4l1-7.9l-1.9-0.2l0.3-2.2L341,235.7z"/>
									<path class="st2" d="M351,245.3l-1.5-0.2l-0.3,1.9l-2.8-0.4l0.3-1.9l-5.3-0.7l0.2-1.9l5.3-5.7l3,0.4l-4.9,5.4l2,0.3
										l0.2-1.7l2.7,0.3l-0.2,1.7l1.5,0.2L351,245.3z"/>
								</g>
								<g>
									<path class="st2" d="M378.5,240.5l-1.3,10.1l-2.9-0.4l1-7.9l-1.9-0.2l0.3-2.2L378.5,240.5z"/>
									<path class="st2" d="M386.3,246.2c0.6,0.7,0.8,1.5,0.7,2.4c-0.1,0.6-0.3,1.2-0.7,1.7c-0.4,0.5-0.9,0.8-1.6,1.1
										c-0.7,0.2-1.5,0.3-2.5,0.2c-0.7-0.1-1.4-0.3-2.1-0.5c-0.7-0.3-1.2-0.6-1.7-1l1.3-2c0.4,0.3,0.8,0.6,1.3,0.8
										c0.5,0.2,0.9,0.3,1.4,0.4c0.5,0.1,0.9,0,1.2-0.1c0.3-0.1,0.5-0.4,0.5-0.7c0-0.3-0.1-0.6-0.3-0.8c-0.3-0.2-0.8-0.4-1.5-0.5
										l-2.7-0.4l1.3-5.8l6.4,0.8l-0.3,2.2l-4.1-0.5l-0.3,1.5l0.7,0.1C384.7,245.1,385.7,245.5,386.3,246.2z"/>
								</g>
								<g>
									<path class="st2" d="M416.2,245.4l-1.3,10.1l-2.9-0.4l1-7.9l-1.9-0.2l0.3-2.2L416.2,245.4z"/>
									<path class="st2" d="M424.1,250.6c0.5,0.3,0.9,0.8,1.1,1.3c0.2,0.5,0.3,1.1,0.3,1.7c-0.1,0.7-0.3,1.3-0.8,1.7
										c-0.4,0.5-0.9,0.8-1.6,1c-0.6,0.2-1.3,0.3-2.1,0.2c-1.4-0.2-2.5-0.8-3.2-1.7c-0.7-1-1-2.2-0.8-3.9c0.1-1.2,0.5-2.1,1.1-2.9
										c0.6-0.8,1.3-1.3,2.1-1.7c0.9-0.3,1.8-0.4,2.9-0.3c0.6,0.1,1.1,0.2,1.6,0.4c0.5,0.2,0.9,0.4,1.3,0.7l-1.3,1.9
										c-0.4-0.4-1-0.7-1.8-0.8c-0.7-0.1-1.3,0-1.9,0.4c-0.5,0.3-0.8,0.9-1,1.6c0.6-0.4,1.4-0.6,2.4-0.5
										C423,250,423.6,250.2,424.1,250.6z M422.2,254.2c0.3-0.2,0.5-0.5,0.5-0.9c0-0.4,0-0.7-0.3-1c-0.2-0.3-0.5-0.4-1-0.5
										c-0.4-0.1-0.8,0-1.1,0.2c-0.3,0.2-0.5,0.5-0.5,0.9c0,0.4,0,0.7,0.3,1c0.2,0.3,0.6,0.4,1,0.5
										C421.5,254.5,421.9,254.4,422.2,254.2z"/>
								</g>
								<g>
									<path class="st2" d="M453.8,250.3l-1.3,10.1l-2.9-0.4l1-7.9l-1.9-0.2l0.3-2.2L453.8,250.3z"/>
									<path class="st2" d="M463.5,251.6l-0.2,1.8l-4.6,7.8l-3.1-0.4l4.4-7.4l-2.7-0.3l-0.2,1.6l-2.4-0.3l0.5-3.8L463.5,251.6z"/>
								</g>
								<g>
									<path class="st2" d="M492.7,255.3l-1.3,10.1l-2.9-0.4l1-7.9l-1.9-0.2l0.3-2.2L492.7,255.3z"/>
									<path class="st2" d="M501.8,262.4c0.2,0.4,0.3,0.9,0.2,1.4c-0.1,0.6-0.3,1.2-0.8,1.6c-0.4,0.4-1,0.7-1.7,0.9
										c-0.7,0.2-1.5,0.2-2.3,0.1c-0.9-0.1-1.6-0.3-2.2-0.7c-0.6-0.3-1.1-0.8-1.4-1.3c-0.3-0.5-0.4-1.1-0.3-1.7
										c0.1-0.5,0.2-0.9,0.5-1.3c0.3-0.4,0.7-0.6,1.2-0.9c-0.3-0.3-0.5-0.6-0.7-1c-0.1-0.4-0.2-0.8-0.1-1.2
										c0.1-0.6,0.3-1.1,0.7-1.5c0.4-0.4,0.9-0.7,1.6-0.8c0.6-0.2,1.4-0.2,2.1-0.1c0.8,0.1,1.5,0.3,2.1,0.6c0.6,0.3,1,0.7,1.3,1.2
										c0.3,0.5,0.4,1,0.3,1.6c-0.1,0.4-0.2,0.8-0.4,1.1c-0.2,0.3-0.5,0.6-0.9,0.8C501.3,261.6,501.6,262,501.8,262.4z
										 M498.6,264.2c0.3-0.2,0.5-0.5,0.5-0.9c0-0.4,0-0.7-0.3-1c-0.2-0.3-0.6-0.4-1.1-0.5c-0.5-0.1-0.8,0-1.1,0.2
										c-0.3,0.2-0.5,0.5-0.5,0.9c0,0.4,0,0.7,0.3,1c0.2,0.3,0.6,0.4,1.1,0.5C497.9,264.4,498.3,264.4,498.6,264.2z M497.4,258.1
										c-0.2,0.2-0.4,0.4-0.4,0.7c0,0.3,0,0.6,0.2,0.8c0.2,0.2,0.5,0.3,0.8,0.4c0.4,0,0.7,0,0.9-0.2c0.2-0.2,0.4-0.4,0.4-0.7
										c0-0.3,0-0.6-0.2-0.8c-0.2-0.2-0.5-0.3-0.8-0.4C497.9,257.9,497.6,257.9,497.4,258.1z"/>
								</g>
								<g>
									<path class="st3" d="M262.5,249.9l-1.3,10.1l-2.9-0.4l1-7.9l-1.9-0.2l0.3-2.2L262.5,249.9z"/>
									<path class="st3" d="M271,252.1c0.7,1,1,2.2,0.8,3.9c-0.1,1.2-0.5,2.1-1.1,2.9c-0.6,0.8-1.3,1.3-2.1,1.6
										c-0.9,0.3-1.8,0.4-2.9,0.3c-0.6-0.1-1.1-0.2-1.6-0.4c-0.5-0.2-0.9-0.4-1.3-0.7l1.3-1.9c0.4,0.4,1,0.7,1.8,0.8
										c0.7,0.1,1.3,0,1.8-0.4c0.5-0.3,0.8-0.9,1-1.6c-0.6,0.4-1.4,0.6-2.4,0.4c-0.6-0.1-1.2-0.3-1.7-0.6
										c-0.5-0.3-0.9-0.8-1.1-1.3c-0.2-0.5-0.3-1.1-0.3-1.7c0.1-0.7,0.3-1.3,0.8-1.7c0.4-0.5,0.9-0.8,1.6-1
										c0.6-0.2,1.3-0.3,2.1-0.2C269.2,250.6,270.3,251.2,271,252.1z M268.4,254.8c0.3-0.2,0.5-0.5,0.5-0.9c0-0.4,0-0.7-0.3-1
										c-0.2-0.3-0.6-0.4-1-0.5c-0.4-0.1-0.8,0-1,0.2c-0.3,0.2-0.5,0.5-0.5,0.9c0,0.4,0,0.7,0.3,1c0.2,0.3,0.5,0.4,1,0.5
										C267.8,255.1,268.1,255,268.4,254.8z"/>
								</g>
								<g>
									<path class="st2" d="M303.1,263.2l-0.3,2.3l-7.9-1l0.2-1.8l4.2-3c0.4-0.3,0.7-0.6,0.9-0.8c0.2-0.2,0.2-0.5,0.3-0.7
										c0-0.3,0-0.6-0.2-0.8c-0.2-0.2-0.5-0.3-0.9-0.4c-0.4,0-0.7,0-1.1,0.1c-0.3,0.1-0.6,0.3-0.9,0.6l-2-1.5
										c0.5-0.6,1.1-1,1.9-1.3c0.8-0.3,1.6-0.4,2.6-0.2c0.8,0.1,1.4,0.3,2,0.6c0.6,0.3,1,0.7,1.2,1.3c0.3,0.5,0.4,1.1,0.3,1.7
										c-0.1,0.5-0.3,1-0.6,1.5c-0.3,0.5-0.8,0.9-1.6,1.5l-2.1,1.5L303.1,263.2z"/>
									<path class="st2" d="M305.8,265.4c-0.6-0.5-1.1-1.2-1.3-2c-0.3-0.8-0.3-1.8-0.2-2.9c0.1-1.1,0.5-2,0.9-2.7
										c0.5-0.7,1.1-1.3,1.8-1.6c0.7-0.3,1.5-0.4,2.4-0.3c0.9,0.1,1.6,0.4,2.2,0.9c0.6,0.5,1.1,1.2,1.3,2c0.3,0.8,0.3,1.8,0.2,2.9
										c-0.1,1.1-0.5,2-0.9,2.7c-0.5,0.7-1.1,1.3-1.8,1.6c-0.7,0.3-1.5,0.4-2.4,0.3C307.2,266.2,306.4,265.9,305.8,265.4z
										 M309.6,263.4c0.3-0.4,0.6-1.1,0.7-2.2c0.1-1,0.1-1.8-0.1-2.3c-0.2-0.5-0.6-0.8-1.1-0.8c-0.5-0.1-0.9,0.1-1.2,0.5
										c-0.3,0.4-0.6,1.1-0.7,2.2c-0.1,1-0.1,1.8,0.1,2.3c0.2,0.5,0.6,0.8,1.1,0.8C308.8,264,309.2,263.9,309.6,263.4z"/>
								</g>
								<g>
									<path class="st2" d="M340.2,268l-0.3,2.3l-7.9-1l0.2-1.8l4.2-3c0.4-0.3,0.7-0.6,0.9-0.8c0.2-0.2,0.2-0.5,0.3-0.7
										c0-0.3,0-0.6-0.2-0.8c-0.2-0.2-0.5-0.3-0.9-0.4c-0.4,0-0.7,0-1.1,0.1c-0.3,0.1-0.6,0.3-0.9,0.6l-2-1.5
										c0.5-0.6,1.1-1,1.9-1.3c0.8-0.3,1.6-0.4,2.6-0.2c0.8,0.1,1.4,0.3,2,0.6c0.6,0.3,1,0.7,1.2,1.3c0.3,0.5,0.4,1.1,0.3,1.7
										c-0.1,0.5-0.3,1-0.6,1.5c-0.3,0.5-0.8,0.9-1.6,1.5l-2.1,1.5L340.2,268z"/>
									<path class="st2" d="M346.3,260.8l-1.3,10.1l-2.9-0.4l1-7.9l-1.9-0.2l0.3-2.2L346.3,260.8z"/>
								</g>
								<g>
									<path class="st2" d="M378.2,272.9l-0.3,2.3l-7.9-1l0.2-1.8l4.2-3c0.4-0.3,0.7-0.6,0.8-0.8c0.2-0.2,0.2-0.5,0.3-0.7
										c0-0.3,0-0.6-0.2-0.8c-0.2-0.2-0.5-0.3-0.9-0.4c-0.4,0-0.7,0-1.1,0.1c-0.3,0.1-0.6,0.3-0.9,0.6l-2-1.5
										c0.5-0.6,1.1-1,1.9-1.3c0.8-0.3,1.6-0.4,2.6-0.2c0.8,0.1,1.4,0.3,2,0.6c0.6,0.3,1,0.7,1.2,1.3c0.3,0.5,0.4,1.1,0.3,1.7
										c-0.1,0.5-0.3,1-0.6,1.5c-0.3,0.5-0.8,0.9-1.6,1.5l-2.1,1.5L378.2,272.9z"/>
									<path class="st2" d="M386.8,274l-0.3,2.3l-7.9-1l0.2-1.8l4.2-3c0.4-0.3,0.7-0.6,0.9-0.8c0.2-0.2,0.3-0.5,0.3-0.7
										c0-0.3,0-0.6-0.2-0.8c-0.2-0.2-0.5-0.3-0.9-0.4c-0.4,0-0.7,0-1.1,0.1c-0.3,0.1-0.6,0.3-0.9,0.6l-2-1.5
										c0.5-0.6,1.1-1,1.9-1.3c0.8-0.3,1.6-0.4,2.6-0.2c0.8,0.1,1.4,0.3,2,0.6c0.6,0.3,1,0.7,1.2,1.3c0.3,0.5,0.4,1.1,0.3,1.7
										c-0.1,0.5-0.3,1-0.6,1.5c-0.3,0.5-0.8,0.9-1.6,1.5l-2.1,1.5L386.8,274z"/>
								</g>
								<g>
									<path class="st2" d="M415.8,277.8l-0.3,2.3l-7.9-1l0.2-1.8l4.2-3c0.4-0.3,0.7-0.6,0.9-0.8c0.2-0.2,0.3-0.5,0.3-0.7
										c0-0.3,0-0.6-0.2-0.8c-0.2-0.2-0.5-0.3-0.9-0.4c-0.4,0-0.7,0-1.1,0.1c-0.3,0.1-0.6,0.3-0.9,0.6l-2-1.5
										c0.5-0.6,1.1-1,1.9-1.3c0.8-0.3,1.6-0.4,2.6-0.2c0.8,0.1,1.4,0.3,2,0.6c0.6,0.3,1,0.7,1.2,1.3c0.3,0.5,0.4,1.1,0.3,1.7
										c-0.1,0.5-0.3,1-0.6,1.5c-0.3,0.5-0.8,0.9-1.6,1.5l-2.1,1.5L415.8,277.8z"/>
									<path class="st2" d="M424.1,276c0.4,0.6,0.5,1.2,0.4,2c-0.1,0.6-0.3,1.1-0.7,1.6c-0.4,0.5-0.9,0.8-1.6,1
										c-0.7,0.2-1.5,0.3-2.5,0.2c-0.7-0.1-1.4-0.3-2.1-0.5c-0.7-0.3-1.2-0.6-1.7-1l1.3-2c0.4,0.3,0.8,0.6,1.3,0.8
										c0.5,0.2,1,0.3,1.4,0.4c0.5,0.1,0.9,0,1.2-0.1c0.3-0.1,0.5-0.4,0.5-0.7c0.1-0.7-0.4-1-1.4-1.2l-1.2-0.2l0.2-1.8l2.1-1.7
										l-4-0.5l0.3-2.2l7.3,0.9l-0.2,1.8l-2.4,2C423.1,275,423.7,275.5,424.1,276z"/>
								</g>
								<g>
									<path class="st2" d="M453.6,282.7l-0.3,2.3l-7.9-1l0.2-1.8l4.2-3c0.4-0.3,0.7-0.6,0.9-0.8c0.2-0.2,0.3-0.5,0.3-0.7
										c0-0.3,0-0.6-0.2-0.8c-0.2-0.2-0.5-0.3-0.9-0.4c-0.4,0-0.7,0-1.1,0.1c-0.3,0.1-0.6,0.3-0.9,0.6l-2-1.5
										c0.5-0.6,1.1-1,1.9-1.3c0.8-0.3,1.6-0.4,2.6-0.2c0.8,0.1,1.4,0.3,2,0.6c0.6,0.3,1,0.7,1.2,1.3c0.3,0.5,0.4,1.1,0.3,1.7
										c-0.1,0.5-0.3,1-0.6,1.5c-0.3,0.5-0.8,0.9-1.6,1.5l-2.1,1.5L453.6,282.7z"/>
									<path class="st2" d="M463.9,284.3l-1.5-0.2l-0.3,1.9l-2.8-0.4l0.3-1.9l-5.3-0.7l0.2-1.9l5.3-5.7l3,0.4l-4.9,5.4l2,0.3
										l0.2-1.7l2.7,0.3l-0.2,1.7l1.5,0.2L463.9,284.3z"/>
								</g>
								<g>
									<path class="st2" d="M491.1,287.5l-0.3,2.3l-7.9-1l0.2-1.8l4.2-3c0.4-0.3,0.7-0.6,0.9-0.8c0.2-0.2,0.3-0.5,0.3-0.7
										c0-0.3,0-0.6-0.2-0.8c-0.2-0.2-0.5-0.3-0.9-0.4c-0.4,0-0.7,0-1.1,0.1c-0.3,0.1-0.6,0.3-0.9,0.6l-2-1.5
										c0.5-0.6,1.1-1,1.9-1.3c0.8-0.3,1.6-0.4,2.6-0.2c0.8,0.1,1.4,0.3,2,0.6c0.6,0.3,1,0.7,1.2,1.3c0.3,0.5,0.4,1.1,0.3,1.7
										c-0.1,0.5-0.3,1-0.6,1.5c-0.3,0.5-0.8,0.9-1.6,1.5l-2.1,1.5L491.1,287.5z"/>
									<path class="st2" d="M499.3,285.2c0.6,0.7,0.8,1.5,0.7,2.4c-0.1,0.6-0.3,1.2-0.7,1.7c-0.4,0.5-0.9,0.8-1.6,1.1
										c-0.7,0.2-1.5,0.3-2.5,0.2c-0.7-0.1-1.4-0.3-2.1-0.5c-0.7-0.3-1.2-0.6-1.7-1l1.3-2c0.4,0.3,0.8,0.6,1.3,0.8
										c0.5,0.2,0.9,0.3,1.4,0.4c0.5,0.1,0.9,0,1.2-0.1c0.3-0.1,0.5-0.4,0.5-0.7c0-0.3-0.1-0.6-0.3-0.8c-0.3-0.2-0.8-0.4-1.5-0.5
										l-2.7-0.4l1.3-5.8l6.4,0.8l-0.3,2.2l-4.1-0.5l-0.3,1.5l0.7,0.1C497.7,284.1,498.7,284.6,499.3,285.2z"/>
								</g>
								<g>
									<path class="st3" d="M262.2,282.3l-0.3,2.3l-7.9-1l0.2-1.8l4.2-3c0.4-0.3,0.7-0.6,0.8-0.8c0.2-0.2,0.3-0.5,0.3-0.7
										c0-0.3,0-0.6-0.2-0.8c-0.2-0.2-0.5-0.3-0.9-0.4c-0.4,0-0.7,0-1.1,0.1c-0.3,0.1-0.6,0.3-0.9,0.6l-2-1.5
										c0.5-0.6,1.1-1,1.9-1.3c0.8-0.3,1.6-0.4,2.6-0.2c0.8,0.1,1.4,0.3,2,0.6c0.6,0.3,1,0.7,1.2,1.3c0.3,0.5,0.4,1.1,0.3,1.7
										c-0.1,0.5-0.3,1-0.5,1.5c-0.3,0.5-0.8,0.9-1.6,1.5l-2.1,1.5L262.2,282.3z"/>
									<path class="st3" d="M270.5,279.5c0.5,0.3,0.9,0.8,1.1,1.3c0.2,0.5,0.3,1.1,0.3,1.7c-0.1,0.7-0.3,1.3-0.8,1.7
										c-0.4,0.5-0.9,0.8-1.6,1c-0.6,0.2-1.3,0.3-2.1,0.2c-1.4-0.2-2.5-0.8-3.3-1.7c-0.7-1-1-2.2-0.8-3.9c0.1-1.2,0.5-2.1,1.1-2.9
										c0.6-0.8,1.3-1.3,2.1-1.6c0.9-0.3,1.8-0.4,2.9-0.3c0.6,0.1,1.1,0.2,1.6,0.4c0.5,0.2,0.9,0.4,1.3,0.7l-1.3,1.9
										c-0.4-0.4-1-0.7-1.8-0.8c-0.7-0.1-1.3,0-1.9,0.4c-0.5,0.3-0.8,0.9-1,1.6c0.6-0.4,1.4-0.6,2.4-0.5
										C269.4,279,270,279.2,270.5,279.5z M268.5,283.2c0.3-0.2,0.5-0.5,0.5-0.9c0-0.4,0-0.7-0.3-1c-0.2-0.3-0.5-0.4-1-0.5
										c-0.4-0.1-0.8,0-1.1,0.2c-0.3,0.2-0.5,0.5-0.5,0.9c0,0.4,0,0.7,0.3,1c0.2,0.3,0.6,0.4,1,0.5
										C267.9,283.5,268.3,283.4,268.5,283.2z"/>
								</g>
								<g>
									<path class="st2" d="M299.8,287.2l-0.3,2.3l-7.9-1l0.2-1.8l4.2-3c0.4-0.3,0.7-0.6,0.8-0.8c0.2-0.2,0.3-0.5,0.3-0.7
										c0-0.3,0-0.6-0.2-0.8c-0.2-0.2-0.5-0.3-0.9-0.4c-0.4,0-0.7,0-1.1,0.1c-0.3,0.1-0.6,0.3-0.9,0.6l-2-1.5
										c0.5-0.6,1.1-1,1.9-1.3c0.8-0.3,1.6-0.4,2.6-0.2c0.8,0.1,1.4,0.3,2,0.6c0.6,0.3,1,0.7,1.2,1.3c0.3,0.5,0.4,1.1,0.3,1.7
										c-0.1,0.5-0.3,1-0.6,1.5c-0.3,0.5-0.8,0.9-1.6,1.5l-2.1,1.5L299.8,287.2z"/>
									<path class="st2" d="M309.9,280.5l-0.2,1.8l-4.6,7.8l-3.1-0.4l4.4-7.4l-2.6-0.3l-0.2,1.6l-2.4-0.3l0.5-3.8L309.9,280.5z"/>
								</g>
								<g>
									<path class="st2" d="M337.5,292.1l-0.3,2.3l-7.9-1l0.2-1.8l4.2-3c0.4-0.3,0.7-0.6,0.9-0.8c0.2-0.2,0.3-0.5,0.3-0.7
										c0-0.3,0-0.6-0.2-0.8c-0.2-0.2-0.5-0.3-0.9-0.4c-0.4,0-0.7,0-1.1,0.1c-0.3,0.1-0.6,0.3-0.9,0.6l-2-1.5
										c0.5-0.6,1.1-1,1.9-1.3c0.8-0.3,1.6-0.4,2.6-0.2c0.8,0.1,1.4,0.3,2,0.6c0.6,0.3,1,0.7,1.2,1.3c0.3,0.5,0.4,1.1,0.3,1.7
										c-0.1,0.5-0.3,1-0.6,1.5c-0.3,0.5-0.8,0.9-1.6,1.5l-2.1,1.5L337.5,292.1z"/>
									<path class="st2" d="M347,291.2c0.2,0.4,0.3,0.9,0.2,1.4c-0.1,0.6-0.3,1.2-0.8,1.6c-0.4,0.4-1,0.7-1.7,0.9
										c-0.7,0.2-1.5,0.2-2.3,0.1c-0.9-0.1-1.6-0.3-2.2-0.7c-0.6-0.3-1.1-0.8-1.4-1.3c-0.3-0.5-0.4-1.1-0.3-1.7
										c0.1-0.5,0.2-0.9,0.6-1.3c0.3-0.4,0.7-0.6,1.2-0.9c-0.3-0.3-0.5-0.6-0.7-1c-0.1-0.4-0.2-0.8-0.1-1.2
										c0.1-0.6,0.3-1.1,0.7-1.5c0.4-0.4,0.9-0.7,1.6-0.8c0.6-0.2,1.4-0.2,2.1-0.1c0.8,0.1,1.5,0.3,2,0.6c0.6,0.3,1,0.7,1.3,1.2
										c0.3,0.5,0.4,1,0.3,1.6c-0.1,0.4-0.2,0.8-0.4,1.1c-0.2,0.3-0.5,0.6-0.9,0.8C346.5,290.4,346.8,290.8,347,291.2z M343.8,293
										c0.3-0.2,0.5-0.5,0.5-0.9c0-0.4,0-0.7-0.3-1c-0.2-0.3-0.6-0.4-1.1-0.5c-0.5-0.1-0.8,0-1.1,0.2c-0.3,0.2-0.5,0.5-0.5,0.9
										c-0.1,0.4,0,0.7,0.3,1c0.2,0.3,0.6,0.4,1.1,0.5C343.1,293.2,343.5,293.2,343.8,293z M342.6,286.9c-0.2,0.2-0.4,0.4-0.4,0.7
										c0,0.3,0,0.6,0.2,0.8c0.2,0.2,0.5,0.3,0.8,0.4c0.4,0,0.7,0,0.9-0.2c0.2-0.2,0.4-0.4,0.4-0.7c0-0.3,0-0.6-0.2-0.8
										c-0.2-0.2-0.5-0.3-0.8-0.4C343.1,286.7,342.8,286.7,342.6,286.9z"/>
								</g>
								<g>
									<path class="st2" d="M375.1,296.9l-0.3,2.3l-7.9-1l0.2-1.8l4.2-3c0.4-0.3,0.7-0.6,0.9-0.8c0.2-0.2,0.3-0.5,0.3-0.7
										c0-0.3,0-0.6-0.2-0.8c-0.2-0.2-0.5-0.3-0.9-0.4c-0.4,0-0.7,0-1.1,0.1c-0.3,0.1-0.6,0.3-0.9,0.6l-2-1.5
										c0.5-0.6,1.1-1,1.9-1.3c0.8-0.3,1.6-0.4,2.6-0.2c0.8,0.1,1.4,0.3,2,0.6c0.6,0.3,1,0.7,1.2,1.3c0.3,0.5,0.4,1.1,0.3,1.7
										c-0.1,0.5-0.3,1-0.6,1.5c-0.3,0.5-0.8,0.9-1.6,1.5l-2.1,1.5L375.1,296.9z"/>
									<path class="st2" d="M384,291.2c0.7,1,1,2.2,0.8,3.9c-0.1,1.2-0.5,2.1-1.1,2.9c-0.6,0.8-1.3,1.3-2.1,1.7
										c-0.9,0.3-1.8,0.4-2.9,0.3c-0.6-0.1-1.1-0.2-1.6-0.4c-0.5-0.2-0.9-0.4-1.3-0.7l1.3-1.9c0.4,0.4,1,0.7,1.8,0.8
										c0.7,0.1,1.3,0,1.8-0.4c0.5-0.3,0.8-0.9,1-1.6c-0.6,0.4-1.4,0.6-2.4,0.4c-0.6-0.1-1.2-0.3-1.7-0.6
										c-0.5-0.3-0.9-0.8-1.1-1.3c-0.2-0.5-0.3-1.1-0.3-1.7c0.1-0.7,0.3-1.3,0.8-1.7c0.4-0.5,0.9-0.8,1.6-1
										c0.6-0.2,1.3-0.3,2.1-0.2C382.2,289.7,383.2,290.2,384,291.2z M381.4,293.9c0.3-0.2,0.5-0.5,0.5-0.9c0-0.4,0-0.7-0.3-1
										c-0.2-0.3-0.6-0.4-1-0.5c-0.4-0.1-0.8,0-1,0.2c-0.3,0.2-0.5,0.5-0.5,0.9c0,0.4,0,0.7,0.3,1c0.2,0.3,0.5,0.4,1,0.5
										C380.7,294.1,381.1,294.1,381.4,293.9z"/>
								</g>
								<g>
									<path class="st2" d="M412.5,299c0.4,0.6,0.5,1.2,0.4,2c-0.1,0.6-0.3,1.1-0.7,1.6c-0.4,0.5-0.9,0.8-1.6,1
										c-0.7,0.2-1.5,0.3-2.5,0.2c-0.7-0.1-1.4-0.3-2.1-0.5c-0.7-0.3-1.2-0.6-1.7-1l1.3-2c0.4,0.3,0.8,0.6,1.3,0.8
										c0.5,0.2,1,0.3,1.4,0.4c0.5,0.1,0.9,0,1.2-0.1c0.3-0.1,0.5-0.4,0.5-0.7c0.1-0.7-0.4-1-1.4-1.2l-1.2-0.2l0.2-1.8l2.1-1.7
										l-4-0.5l0.3-2.2l7.3,0.9l-0.2,1.8l-2.4,2C411.5,298,412.1,298.4,412.5,299z"/>
									<path class="st2" d="M415.7,304.1c-0.6-0.5-1.1-1.2-1.3-2c-0.3-0.8-0.3-1.8-0.2-2.9c0.1-1.1,0.5-2,0.9-2.7
										c0.5-0.7,1.1-1.3,1.8-1.6c0.7-0.3,1.5-0.4,2.4-0.3c0.9,0.1,1.6,0.4,2.2,0.9c0.6,0.5,1.1,1.2,1.3,2c0.3,0.8,0.3,1.8,0.2,2.9
										c-0.1,1.1-0.5,2-0.9,2.7c-0.5,0.7-1.1,1.3-1.8,1.6c-0.7,0.3-1.5,0.4-2.4,0.3C417,304.9,416.3,304.6,415.7,304.1z
										 M419.4,302.1c0.3-0.4,0.6-1.1,0.7-2.2c0.1-1,0.1-1.8-0.1-2.3c-0.2-0.5-0.6-0.8-1.1-0.8c-0.5-0.1-0.9,0.1-1.3,0.5
										c-0.3,0.4-0.6,1.1-0.7,2.2c-0.1,1-0.1,1.8,0.1,2.3c0.2,0.5,0.6,0.8,1.1,0.9C418.7,302.7,419.1,302.5,419.4,302.1z"/>
								</g>
								<g>
									<path class="st2" d="M449.6,303.8c0.4,0.6,0.5,1.2,0.4,2c-0.1,0.6-0.3,1.1-0.7,1.6c-0.4,0.5-0.9,0.8-1.6,1
										c-0.7,0.2-1.5,0.3-2.5,0.2c-0.7-0.1-1.4-0.3-2.1-0.5c-0.7-0.3-1.2-0.6-1.7-1l1.3-2c0.4,0.3,0.8,0.6,1.3,0.8
										c0.5,0.2,1,0.3,1.4,0.4c0.5,0.1,0.9,0,1.2-0.1c0.3-0.1,0.5-0.4,0.5-0.7c0.1-0.7-0.4-1-1.4-1.2l-1.2-0.2l0.2-1.8l2.1-1.7
										l-4-0.5l0.3-2.2l7.3,0.9l-0.2,1.8l-2.4,2C448.7,302.8,449.3,303.2,449.6,303.8z"/>
									<path class="st2" d="M456.2,299.5l-1.3,10.1l-2.9-0.4l1-7.9l-1.9-0.2l0.3-2.2L456.2,299.5z"/>
								</g>
							</g>
							<g>
								<path class="st4" d="M306.2,108.9c-0.6,4.7-4.9,8.1-9.7,7.5c-4.7-0.6-8.1-4.9-7.5-9.7c0.6-4.7,5-8.1,9.7-7.5
									C303.5,99.8,306.8,104.2,306.2,108.9z"/>
								<path class="st4" d="M356,115.3c-0.6,4.7-5,8.1-9.7,7.5c-4.7-0.6-8.1-5-7.5-9.7c0.6-4.7,4.9-8.1,9.7-7.5
									C353.3,106.3,356.6,110.6,356,115.3z"/>
								<path class="st4" d="M405.8,121.8c-0.6,4.7-5,8.1-9.7,7.5c-4.7-0.6-8.1-5-7.5-9.7c0.6-4.7,5-8.1,9.7-7.5
									C403.1,112.7,406.4,117.1,405.8,121.8z"/>
								<path class="st4" d="M455.6,128.3c-0.6,4.7-5,8.1-9.7,7.5c-4.7-0.6-8.1-4.9-7.5-9.7c0.6-4.7,5-8.1,9.7-7.5
									C452.9,119.2,456.3,123.5,455.6,128.3z"/>
								<path class="st4" d="M505.5,134.7c-0.6,4.7-4.9,8.1-9.7,7.5c-4.7-0.6-8.1-5-7.5-9.7c0.6-4.7,5-8.1,9.7-7.5
									C502.7,125.6,506.1,130,505.5,134.7z"/>
								<g>
									<linearGradient id="SVGID_3_" gradientUnits="userSpaceOnUse" x1="294.1057" y1="94.4461" x2="304.6067" y2="94.4461">
										<stop  offset="0" style="stop-color:#D0B7FF"/>
										<stop  offset="1" style="stop-color:#9980D1"/>
									</linearGradient>
									<path class="st5" d="M297.3,110L297.3,110c-2-0.3-3.5-2.1-3.2-4.2l3.1-23.7c0.3-2,2.1-3.5,4.2-3.2l0,0
										c2,0.3,3.5,2.1,3.2,4.2l-3.1,23.7C301.2,108.8,299.4,110.2,297.3,110z"/>
									<linearGradient id="SVGID_4_" gradientUnits="userSpaceOnUse" x1="343.9236" y1="100.9008" x2="354.4244" y2="100.9008">
										<stop  offset="0" style="stop-color:#D0B7FF"/>
										<stop  offset="1" style="stop-color:#9980D1"/>
									</linearGradient>
									<path class="st6" d="M347.2,116.4L347.2,116.4c-2-0.3-3.5-2.1-3.2-4.2l3.1-23.7c0.3-2,2.1-3.5,4.2-3.2l0,0
										c2,0.3,3.5,2.1,3.2,4.2l-3.1,23.7C351.1,115.2,349.2,116.7,347.2,116.4z"/>
									<linearGradient id="SVGID_5_" gradientUnits="userSpaceOnUse" x1="393.7414" y1="107.3555" x2="404.2422" y2="107.3555">
										<stop  offset="0" style="stop-color:#D0B7FF"/>
										<stop  offset="1" style="stop-color:#9980D1"/>
									</linearGradient>
									<path class="st7" d="M397,122.9L397,122.9c-2-0.3-3.5-2.1-3.2-4.2l3.1-23.7c0.3-2,2.1-3.5,4.2-3.2l0,0
										c2,0.3,3.5,2.1,3.2,4.2l-3.1,23.7C400.9,121.7,399,123.1,397,122.9z"/>
									<linearGradient id="SVGID_6_" gradientUnits="userSpaceOnUse" x1="443.5592" y1="113.8103" x2="454.0601" y2="113.8103">
										<stop  offset="0" style="stop-color:#D0B7FF"/>
										<stop  offset="1" style="stop-color:#9980D1"/>
									</linearGradient>
									<path class="st8" d="M446.8,129.3L446.8,129.3c-2-0.3-3.5-2.1-3.2-4.2l3.1-23.7c0.3-2,2.1-3.5,4.2-3.2l0,0
										c2,0.3,3.5,2.1,3.2,4.2l-3.1,23.7C450.7,128.2,448.8,129.6,446.8,129.3z"/>
									<linearGradient id="SVGID_7_" gradientUnits="userSpaceOnUse" x1="493.3768" y1="120.265" x2="503.8778" y2="120.265">
										<stop  offset="0" style="stop-color:#D0B7FF"/>
										<stop  offset="1" style="stop-color:#9980D1"/>
									</linearGradient>
									<path class="st9" d="M496.6,135.8L496.6,135.8c-2-0.3-3.5-2.1-3.2-4.2l3.1-23.7c0.3-2,2.1-3.5,4.2-3.2l0,0
										c2,0.3,3.5,2.1,3.2,4.2l-3.1,23.7C500.5,134.6,498.7,136,496.6,135.8z"/>
								</g>
							</g>
							<text transform="matrix(0.9923 0.1241 -0.1241 0.9923 272.2131 151.873)" class="st2 st10 st11 st12">XXXXXXXXX</text>
						</g>
					</g>
				</g>
				<g>
					<g>
						
							<image style="overflow:visible;opacity:0.2;" width="400" height="400" xlink:href="C332D4C2.png"  transform="matrix(0.24 0 0 0.24 450.44 288.775)">
						</image>
						<g>
							<circle class="st2" cx="495.4" cy="333.8" r="33"/>
						</g>
					</g>
					<circle class="st4" cx="495.4" cy="333.8" r="28.9"/>
					<g>
						<path class="st2" d="M496.9,332.1c0.9,0.8,1,2.3,0.1,3.2c-0.8,0.9-2.3,1-3.2,0.1c-0.9-0.8-1-2.3-0.1-3.2
							C494.6,331.4,496,331.3,496.9,332.1z"/>
						<path class="st2" d="M495.4,333.8L495.4,333.8c-0.4,0.5-1.2,0.5-1.7,0.1l-13.3-12.2c-0.5-0.4-0.5-1.2-0.1-1.7l0,0
							c0.4-0.5,1.2-0.5,1.7-0.1l13.3,12.2C495.8,332.6,495.9,333.3,495.4,333.8z"/>
						<path class="st2" d="M495.4,333.8L495.4,333.8c-0.1-0.6,0.3-1.3,0.9-1.4l11.1-2.5c0.6-0.1,1.3,0.3,1.4,0.9l0,0
							c0.1,0.6-0.3,1.3-0.9,1.4l-11.1,2.5C496.2,334.9,495.6,334.5,495.4,333.8z"/>
					</g>
				</g>
				<g>
					<linearGradient id="SVGID_8_" gradientUnits="userSpaceOnUse" x1="217.2604" y1="213.3632" x2="217.2604" y2="190.4918">
						<stop  offset="0" style="stop-color:#CBB2FA"/>
						<stop  offset="0.9948" style="stop-color:#9E85D6"/>
					</linearGradient>
					<path class="st13" d="M221.4,197c-1.2-1.2-2.7-1.7-4.2-1.7c-1.5,0-3,0.6-4.2,1.7c-2,2-2.3,5-0.8,7.3c0.7,1.1,5,6.7,5,6.7
						s4.3-5.6,5-6.7c0.6-0.9,0.9-2,0.9-3.1C223.1,199.7,222.6,198.1,221.4,197z M217.3,203.3c-1.2,0-2.1-0.9-2.1-2.1
						c0-1.2,0.9-2.1,2.1-2.1c1.2,0,2.1,0.9,2.1,2.1C219.4,202.3,218.4,203.3,217.3,203.3z"/>
					<g>
						<circle class="st14" cx="310.3" cy="213.2" r="11.7"/>
						<line class="st14" x1="298.5" y1="213.2" x2="202.5" y2="213.2"/>
					</g>
					<g>
						<path class="st2" d="M230.7,218.9h-26.9c-0.7,0-1.3-0.6-1.3-1.3l0,0c0-0.7,0.6-1.3,1.3-1.3h26.9c0.7,0,1.3,0.6,1.3,1.3l0,0
							C232,218.3,231.4,218.9,230.7,218.9z"/>
						<path class="st2" d="M230.7,222.6h-26.9c-0.7,0-1.3-0.6-1.3-1.3l0,0c0-0.7,0.6-1.3,1.3-1.3h26.9c0.7,0,1.3,0.6,1.3,1.3l0,0
							C232,222.1,231.4,222.6,230.7,222.6z"/>
						<path class="st2" d="M216.3,226.4h-12.5c-0.7,0-1.3-0.6-1.3-1.3l0,0c0-0.7,0.6-1.3,1.3-1.3h12.5c0.7,0,1.3,0.6,1.3,1.3l0,0
							C217.6,225.8,217,226.4,216.3,226.4z"/>
					</g>
				</g>
				<g>
					<g>
						<g>
							<g>
								<path class="st2" d="M371,348.1h-26.9c-0.7,0-1.3-0.6-1.3-1.3l0,0c0-0.7,0.6-1.3,1.3-1.3H371c0.7,0,1.3,0.6,1.3,1.3l0,0
									C372.3,347.6,371.7,348.1,371,348.1z"/>
								<path class="st2" d="M371,351.9h-26.9c-0.7,0-1.3-0.6-1.3-1.3l0,0c0-0.7,0.6-1.3,1.3-1.3H371c0.7,0,1.3,0.6,1.3,1.3l0,0
									C372.3,351.3,371.7,351.9,371,351.9z"/>
								<path class="st2" d="M356.6,355.7h-12.5c-0.7,0-1.3-0.6-1.3-1.3l0,0c0-0.7,0.6-1.3,1.3-1.3h12.5c0.7,0,1.3,0.6,1.3,1.3l0,0
									C357.8,355.1,357.3,355.7,356.6,355.7z"/>
							</g>
							<linearGradient id="SVGID_9_" gradientUnits="userSpaceOnUse" x1="331.904" y1="344.1034" x2="331.904" y2="356.1848">
								<stop  offset="0" style="stop-color:#CBB2FA"/>
								<stop  offset="0.9948" style="stop-color:#9E85D6"/>
							</linearGradient>
							<path class="st15" d="M337.9,350.1c0,3.3-2.7,6-6,6c-3.3,0-6-2.7-6-6c0-3.3,2.7-6,6-6C335.2,344.1,337.9,346.8,337.9,350.1z"
								/>
							<path class="st16" d="M337.8,343c-2.1,2.4-4.1,4.9-6.2,7.3c-0.5-0.4-1-0.8-1.5-1.1c-1.5-1.1-2.9,1.3-1.5,2.4l2.4,1.9
								c0.5,0.4,1.4,0.2,1.7-0.2c2.3-2.8,4.7-5.5,7-8.3C341,343.7,339,341.6,337.8,343z"/>
						</g>
						<g>
							<g>
								<path class="st2" d="M371,366.8h-26.9c-0.7,0-1.3-0.6-1.3-1.3l0,0c0-0.7,0.6-1.3,1.3-1.3H371c0.7,0,1.3,0.6,1.3,1.3l0,0
									C372.3,366.2,371.7,366.8,371,366.8z"/>
								<path class="st2" d="M371,370.5h-26.9c-0.7,0-1.3-0.6-1.3-1.3l0,0c0-0.7,0.6-1.3,1.3-1.3H371c0.7,0,1.3,0.6,1.3,1.3l0,0
									C372.3,370,371.7,370.5,371,370.5z"/>
								<path class="st2" d="M356.8,374.3h-12.9c-0.6,0-1.1-0.5-1.1-1.1v-0.4c0-0.6,0.5-1.1,1.1-1.1h12.9c0.6,0,1.1,0.5,1.1,1.1v0.4
									C357.8,373.8,357.4,374.3,356.8,374.3z"/>
							</g>
							<linearGradient id="SVGID_10_" gradientUnits="userSpaceOnUse" x1="331.904" y1="362.7416" x2="331.904" y2="374.8232">
								<stop  offset="0" style="stop-color:#CBB2FA"/>
								<stop  offset="0.9948" style="stop-color:#9E85D6"/>
							</linearGradient>
							<path class="st17" d="M337.9,368.8c0,3.3-2.7,6-6,6c-3.3,0-6-2.7-6-6c0-3.3,2.7-6,6-6C335.2,362.7,337.9,365.4,337.9,368.8z"
								/>
						</g>
						<g>
							<g>
								<path class="st2" d="M371,385.4h-26.9c-0.7,0-1.3-0.6-1.3-1.3l0,0c0-0.7,0.6-1.3,1.3-1.3H371c0.7,0,1.3,0.6,1.3,1.3l0,0
									C372.3,384.8,371.7,385.4,371,385.4z"/>
								<path class="st2" d="M371,389.2h-26.9c-0.7,0-1.3-0.6-1.3-1.3l0,0c0-0.7,0.6-1.3,1.3-1.3H371c0.7,0,1.3,0.6,1.3,1.3l0,0
									C372.3,388.6,371.7,389.2,371,389.2z"/>
								<path class="st2" d="M356.6,392.9h-12.5c-0.7,0-1.3-0.6-1.3-1.3l0,0c0-0.7,0.6-1.3,1.3-1.3h12.5c0.7,0,1.3,0.6,1.3,1.3l0,0
									C357.8,392.4,357.3,392.9,356.6,392.9z"/>
							</g>
							<linearGradient id="SVGID_11_" gradientUnits="userSpaceOnUse" x1="331.904" y1="381.3798" x2="331.904" y2="393.4614">
								<stop  offset="0" style="stop-color:#CBB2FA"/>
								<stop  offset="0.9948" style="stop-color:#9E85D6"/>
							</linearGradient>
							<path class="st18" d="M337.9,387.4c0,3.3-2.7,6-6,6c-3.3,0-6-2.7-6-6c0-3.3,2.7-6,6-6C335.2,381.4,337.9,384.1,337.9,387.4z"
								/>
						</g>
					</g>
					<g>
						<polyline class="st14" points="376,394.7 376,344.1 405.7,308.6 						"/>
						<circle class="st14" cx="413.3" cy="299.7" r="11.7"/>
					</g>
				</g>
				<g>
					<circle class="st14" cx="425.2" cy="203.3" r="11.7"/>
					<polyline class="st14" points="429.7,192.4 476.9,95.7 505.9,95.7 					"/>
					<g>
						<path class="st2" d="M504.6,85.5h-26.9c-0.7,0-1.3-0.6-1.3-1.3l0,0c0-0.7,0.6-1.3,1.3-1.3h26.9c0.7,0,1.3,0.6,1.3,1.3l0,0
							C505.9,84.9,505.3,85.5,504.6,85.5z"/>
						<path class="st2" d="M504.6,89.2h-26.9c-0.7,0-1.3-0.6-1.3-1.3l0,0c0-0.7,0.6-1.3,1.3-1.3h26.9c0.7,0,1.3,0.6,1.3,1.3l0,0
							C505.9,88.6,505.3,89.2,504.6,89.2z"/>
						<path class="st2" d="M490.2,93h-12.5c-0.7,0-1.3-0.6-1.3-1.3l0,0c0-0.7,0.6-1.3,1.3-1.3h12.5c0.7,0,1.3,0.6,1.3,1.3l0,0
							C491.4,92.4,490.9,93,490.2,93z"/>
					</g>
					<g>
						<linearGradient id="SVGID_12_" gradientUnits="userSpaceOnUse" x1="487.047" y1="75.458" x2="487.047" y2="60.1091">
							<stop  offset="0" style="stop-color:#CBB2FA"/>
							<stop  offset="0.9948" style="stop-color:#9E85D6"/>
						</linearGradient>
						<path class="st19" d="M489.3,68.2c1.3-0.8,2.1-2.1,2.1-3.7c0-2.4-1.9-4.3-4.3-4.3c-2.4,0-4.3,1.9-4.3,4.3c0,1.6,0.9,3,2.1,3.7
							c-2.7,0.9-4.7,3.5-4.7,6.6c0,0.2,0,0.5,0,0.7h13.8c0-0.2,0-0.5,0-0.7C494,71.7,492,69.1,489.3,68.2z"/>
						<linearGradient id="SVGID_13_" gradientUnits="userSpaceOnUse" x1="495.8448" y1="77.8893" x2="495.8448" y2="62.5404">
							<stop  offset="0" style="stop-color:#CBB2FA"/>
							<stop  offset="0.9948" style="stop-color:#9E85D6"/>
						</linearGradient>
						<path class="st20" d="M498.1,70.6c1.3-0.8,2.1-2.1,2.1-3.7c0-2.4-1.9-4.3-4.3-4.3c-2.4,0-4.3,1.9-4.3,4.3c0,1.6,0.9,3,2.1,3.7
							c-2.7,0.9-4.7,3.5-4.7,6.6c0,0.2,0,0.5,0,0.7h13.8c0-0.2,0-0.5,0-0.7C502.8,74.1,500.8,71.5,498.1,70.6z"/>
					</g>
				</g>
			</g>
		</g>
	</g>
</g>
</svg>
