<?xml version="1.0" encoding="UTF-8"?>
<svg enable-background="new 0 0 750 500" version="1.1" viewBox="0 0 750 500" xml:space="preserve" xmlns="http://www.w3.org/2000/svg" xmlns:xlink="http://www.w3.org/1999/xlink">
<style type="text/css">
	.st0{fill:url(#i);}
	.st1{fill:url(#h);}
	.st2{fill:#9980D1;}
	.st3{fill:#A59AC1;}
	.st4{fill:#FFFFFF;}
	.st5{fill:url(#g);}
	.st6{fill:url(#f);}
	.st7{fill:url(#e);}
	.st8{fill:url(#d);}
	.st9{fill:url(#c);}
	.st10{font-family:'Montserrat-Bold';}
	.st11{font-size:10.7836px;}
	.st12{letter-spacing:3;}
	.st13{fill:url(#b);}
	.st14{fill:none;stroke:#828282;stroke-width:0.5;stroke-miterlimit:10;}
	.st15{fill:url(#a);}
	.st16{fill:#E6E6E6;}
	.st17{fill:url(#m);}
	.st18{fill:url(#l);}
	.st19{fill:url(#k);}
	.st20{fill:url(#j);}
</style>
						<image transform="matrix(.24 0 0 .24 228.44 70.855)" width="1362" height="1218" opacity=".15" overflow="visible" xlink:href="C332D4BE.png">
					</image>
									<linearGradient id="i" x1="333.68" x2="387.12" y1="685.8" y2="186.34" gradientTransform="matrix(.9991 .0424 -.0424 .9991 11.311 -21.654)" gradientUnits="userSpaceOnUse">
									<stop stop-color="#CBB2FA" offset=".6089"/>
									<stop stop-color="#fff" offset="1"/>
								</linearGradient>
								<path class="st0" d="m533 140.8-24.1 186.3c-1.1 8.7-9.1 14.9-17.9 13.8l-240.5-31.2c-8.7-1.1-14.9-9.1-13.8-17.9l24.1-186.3c1.1-8.7 9.1-14.9 17.9-13.8l240.5 31.2c8.8 1.2 14.9 9.2 13.8 17.9z"/>
									<linearGradient id="h" x1="253.42" x2="528.16" y1="128.7" y2="128.7" gradientTransform="matrix(.9991 .0424 -.0424 .9991 11.311 -21.654)" gradientUnits="userSpaceOnUse">
									<stop stop-color="#CBB2FA" offset="0"/>
									<stop stop-color="#9E85D6" offset=".9948"/>
								</linearGradient>
								<path class="st1" d="m533 140.8-2 15.2-272.1-35.3 2-15.2c1.1-8.7 9.1-14.9 17.9-13.8l240.5 31.2c8.7 1.2 14.8 9.2 13.7 17.9z"/>
									<path class="st2" d="m388.6 193-1.3 10.1-2.9-0.4 1-7.9-1.9-0.2 0.3-2.2 4.8 0.6z"/>
									<path class="st2" d="m429.1 206.2-0.3 2.3-7.9-1 0.2-1.8 4.2-3c0.4-0.3 0.7-0.6 0.9-0.8s0.2-0.5 0.3-0.7c0-0.3 0-0.6-0.2-0.8s-0.5-0.3-0.9-0.4c-0.4 0-0.7 0-1.1 0.1-0.3 0.1-0.6 0.3-0.9 0.6l-2-1.5c0.5-0.6 1.1-1 1.9-1.3s1.6-0.4 2.6-0.2c0.8 0.1 1.4 0.3 2 0.6s1 0.7 1.2 1.3c0.3 0.5 0.4 1.1 0.3 1.7-0.1 0.5-0.3 1-0.6 1.5s-0.8 0.9-1.6 1.5l-2.1 1.5 4 0.4z"/>
									<path class="st2" d="m466.4 208.2c0.4 0.6 0.5 1.2 0.4 2-0.1 0.6-0.3 1.1-0.7 1.6s-0.9 0.8-1.6 1-1.5 0.3-2.5 0.2c-0.7-0.1-1.4-0.3-2.1-0.5-0.7-0.3-1.2-0.6-1.7-1l1.3-2c0.4 0.3 0.8 0.6 1.3 0.8s1 0.3 1.4 0.4c0.5 0.1 0.9 0 1.2-0.1s0.5-0.4 0.5-0.7c0.1-0.7-0.4-1-1.4-1.2l-1.2-0.2 0.2-1.8 2.1-1.7-4-0.5 0.3-2.2 7.3 0.9-0.2 1.8-2.4 2c0.8 0.2 1.4 0.7 1.8 1.2z"/>
									<path class="st2" d="m506.2 216.5-1.5-0.2-0.3 1.9-2.8-0.4 0.3-1.9-5.3-0.7 0.2-1.9 5.3-5.7 3 0.4-4.9 5.4 2 0.3 0.2-1.7 2.7 0.3-0.2 1.7 1.5 0.2-0.2 2.3z"/>
									<path class="st3" d="m275 207.3c0.6 0.7 0.8 1.5 0.7 2.4-0.1 0.6-0.3 1.2-0.7 1.7s-0.9 0.8-1.6 1.1c-0.7 0.2-1.5 0.3-2.5 0.2-0.7-0.1-1.4-0.3-2.1-0.5-0.7-0.3-1.2-0.6-1.7-1l1.3-2c0.4 0.3 0.8 0.6 1.3 0.8s0.9 0.3 1.4 0.4 0.9 0 1.2-0.1c0.3-0.2 0.5-0.4 0.5-0.7s-0.1-0.6-0.3-0.8c-0.3-0.2-0.8-0.4-1.5-0.5l-2.7-0.4 1.3-5.8 6.4 0.8-0.3 2.2-4.1-0.5-0.3 1.5 0.7 0.1c1.4 0 2.4 0.5 3 1.1z"/>
									<path class="st2" d="m312.8 211.7c0.5 0.3 0.9 0.8 1.1 1.3s0.3 1.1 0.3 1.7c-0.1 0.7-0.3 1.3-0.8 1.7-0.4 0.5-0.9 0.8-1.6 1-0.6 0.2-1.3 0.3-2.1 0.2-1.4-0.2-2.5-0.8-3.2-1.7-0.7-1-1-2.2-0.8-3.9 0.1-1.2 0.5-2.1 1.1-2.9s1.3-1.3 2.1-1.6c0.9-0.3 1.8-0.4 2.9-0.3 0.6 0.1 1.1 0.2 1.6 0.4s0.9 0.4 1.3 0.7l-1.3 1.9c-0.4-0.4-1-0.7-1.8-0.8-0.7-0.1-1.3 0-1.9 0.4-0.5 0.3-0.8 0.9-1 1.6 0.6-0.4 1.4-0.6 2.4-0.5 0.6 0.3 1.2 0.5 1.7 0.8zm-2 3.7c0.3-0.2 0.5-0.5 0.5-0.9s0-0.7-0.3-1c-0.2-0.3-0.5-0.4-1-0.5-0.4-0.1-0.8 0-1.1 0.2s-0.5 0.5-0.5 0.9 0 0.7 0.3 1c0.2 0.3 0.6 0.4 1 0.5 0.5 0.1 0.9 0 1.1-0.2z"/>
									<path class="st2" d="m352.2 212.7-0.2 1.8-4.6 7.8-3.1-0.4 4.4-7.4-2.7-0.3-0.2 1.6-2.4-0.3 0.5-3.8 8.3 1z"/>
									<path class="st2" d="m389.3 223.4c0.2 0.4 0.3 0.9 0.2 1.4-0.1 0.6-0.3 1.2-0.8 1.6-0.4 0.4-1 0.7-1.7 0.9s-1.5 0.2-2.3 0.1c-0.9-0.1-1.6-0.3-2.2-0.7-0.6-0.3-1.1-0.8-1.4-1.3s-0.4-1.1-0.3-1.7c0.1-0.5 0.2-0.9 0.5-1.3s0.7-0.6 1.2-0.9c-0.3-0.3-0.5-0.6-0.7-1-0.1-0.4-0.2-0.8-0.1-1.2 0.1-0.6 0.3-1.1 0.7-1.5s0.9-0.7 1.5-0.8c0.6-0.2 1.4-0.2 2.1-0.1 0.8 0.1 1.5 0.3 2.1 0.6s1 0.7 1.3 1.2 0.4 1 0.3 1.6c-0.1 0.4-0.2 0.8-0.4 1.1s-0.5 0.6-0.9 0.8c0.4 0.4 0.7 0.8 0.9 1.2zm-3.2 1.8c0.3-0.2 0.5-0.5 0.5-0.9s0-0.7-0.3-1c-0.2-0.3-0.6-0.4-1.1-0.5s-0.8 0-1.1 0.2-0.5 0.5-0.5 0.9c-0.1 0.4 0 0.7 0.3 1 0.2 0.3 0.6 0.4 1.1 0.5 0.4 0 0.8 0 1.1-0.2zm-1.2-6.1c-0.2 0.2-0.4 0.4-0.4 0.7s0 0.6 0.2 0.8 0.5 0.3 0.8 0.4c0.4 0 0.7 0 0.9-0.2s0.4-0.4 0.4-0.7 0-0.6-0.2-0.8-0.5-0.3-0.8-0.4c-0.4 0-0.7 0-0.9 0.2z"/>
									<path class="st2" d="m426.3 223.4c0.7 1 1 2.2 0.8 3.9-0.1 1.2-0.5 2.1-1.1 2.9s-1.3 1.3-2.1 1.7c-0.9 0.3-1.8 0.4-2.9 0.3-0.6-0.1-1.1-0.2-1.6-0.4s-0.9-0.4-1.3-0.7l1.3-1.9c0.4 0.4 1 0.7 1.8 0.8 0.7 0.1 1.3 0 1.8-0.4 0.5-0.3 0.8-0.9 1-1.6-0.6 0.4-1.4 0.6-2.4 0.4-0.6-0.1-1.2-0.3-1.7-0.6s-0.9-0.8-1.1-1.3-0.3-1.1-0.3-1.7c0.1-0.7 0.3-1.3 0.8-1.7 0.4-0.5 0.9-0.8 1.6-1 0.6-0.2 1.3-0.3 2.1-0.2 1.5 0 2.5 0.5 3.3 1.5zm-2.6 2.7c0.3-0.2 0.5-0.5 0.5-0.9s0-0.7-0.3-1c-0.2-0.3-0.6-0.4-1-0.5s-0.7 0-1 0.2-0.5 0.5-0.5 0.9 0 0.7 0.3 1c0.2 0.3 0.5 0.4 1 0.5 0.3 0 0.7 0 1-0.2z"/>
									<path class="st2" d="m457 226.3-1.3 10.1-2.9-0.4 1-7.9-1.9-0.2 0.3-2.2 4.8 0.6z"/>
									<path class="st2" d="m459.4 236.4c-0.6-0.5-1.1-1.2-1.3-2-0.3-0.8-0.3-1.8-0.2-2.9s0.5-2 0.9-2.7c0.5-0.7 1.1-1.3 1.8-1.6s1.5-0.4 2.4-0.3 1.6 0.4 2.2 0.9 1.1 1.2 1.3 2c0.3 0.8 0.3 1.8 0.2 2.9s-0.5 2-0.9 2.7c-0.5 0.7-1.1 1.3-1.8 1.6s-1.5 0.4-2.4 0.3c-0.8-0.1-1.6-0.4-2.2-0.9zm3.8-1.9c0.3-0.4 0.6-1.1 0.7-2.2 0.1-1 0.1-1.8-0.1-2.3s-0.6-0.8-1.1-0.8c-0.5-0.1-0.9 0.1-1.3 0.5-0.3 0.4-0.6 1.2-0.7 2.2s-0.1 1.8 0.1 2.3 0.6 0.8 1.1 0.9c0.5 0 0.9-0.2 1.3-0.6z"/>
									<path class="st2" d="m498.9 231.7-1.3 10.1-2.9-0.4 1-7.9-1.9-0.2 0.3-2.2 4.8 0.6z"/>
									<path class="st2" d="m504.7 232.5-1.3 10.1-2.9-0.4 1-7.9-1.9-0.2 0.3-2.2 4.8 0.6z"/>
									<path class="st3" d="m265.5 225.9-1.3 10.1-2.9-0.4 1-7.9-1.9-0.2 0.3-2.2 4.8 0.6z"/>
									<path class="st3" d="m273.8 234.9-0.3 2.3-7.9-1 0.2-1.8 4.2-3c0.4-0.3 0.7-0.6 0.8-0.8 0.2-0.2 0.2-0.5 0.3-0.7 0-0.3 0-0.6-0.2-0.8s-0.5-0.3-0.9-0.4c-0.4 0-0.7 0-1.1 0.1-0.3 0.1-0.6 0.3-0.9 0.6l-2-1.5c0.5-0.6 1.1-1 1.9-1.3s1.6-0.4 2.6-0.2c0.8 0.1 1.4 0.3 2 0.6s1 0.7 1.2 1.3c0.3 0.5 0.4 1.1 0.3 1.7-0.1 0.5-0.3 1-0.6 1.5s-0.8 0.9-1.6 1.5l-2.1 1.5 4.1 0.4z"/>
									<path class="st2" d="m303.2 230.8-1.3 10.1-2.9-0.4 1-7.9-1.9-0.2 0.3-2.2 4.8 0.6z"/>
									<path class="st2" d="m311.1 237c0.4 0.6 0.5 1.2 0.4 2-0.1 0.6-0.3 1.1-0.7 1.6s-0.9 0.8-1.6 1-1.5 0.3-2.5 0.2c-0.7-0.1-1.4-0.3-2.1-0.5-0.7-0.3-1.2-0.6-1.7-1l1.3-2c0.4 0.3 0.8 0.6 1.3 0.8s1 0.3 1.4 0.4c0.5 0.1 0.9 0 1.2-0.1s0.5-0.4 0.5-0.7c0.1-0.7-0.4-1-1.4-1.2l-1.2-0.2 0.2-1.8 2.1-1.7-4-0.5 0.3-2.2 7.3 0.9-0.2 1.8-2.4 2c0.9 0.2 1.5 0.6 1.8 1.2z"/>
									<path class="st2" d="m341 235.7-1.3 10.1-2.9-0.4 1-7.9-1.9-0.2 0.3-2.2 4.8 0.6z"/>
									<path class="st2" d="m351 245.3-1.5-0.2-0.3 1.9-2.8-0.4 0.3-1.9-5.3-0.7 0.2-1.9 5.3-5.7 3 0.4-4.9 5.4 2 0.3 0.2-1.7 2.7 0.3-0.2 1.7 1.5 0.2-0.2 2.3z"/>
									<path class="st2" d="m378.5 240.5-1.3 10.1-2.9-0.4 1-7.9-1.9-0.2 0.3-2.2 4.8 0.6z"/>
									<path class="st2" d="m386.3 246.2c0.6 0.7 0.8 1.5 0.7 2.4-0.1 0.6-0.3 1.2-0.7 1.7s-0.9 0.8-1.6 1.1c-0.7 0.2-1.5 0.3-2.5 0.2-0.7-0.1-1.4-0.3-2.1-0.5-0.7-0.3-1.2-0.6-1.7-1l1.3-2c0.4 0.3 0.8 0.6 1.3 0.8s0.9 0.3 1.4 0.4 0.9 0 1.2-0.1 0.5-0.4 0.5-0.7-0.1-0.6-0.3-0.8c-0.3-0.2-0.8-0.4-1.5-0.5l-2.7-0.4 1.3-5.8 6.4 0.8-0.3 2.2-4.1-0.5-0.3 1.5 0.7 0.1c1.4 0 2.4 0.4 3 1.1z"/>
									<path class="st2" d="m416.2 245.4-1.3 10.1-2.9-0.4 1-7.9-1.9-0.2 0.3-2.2 4.8 0.6z"/>
									<path class="st2" d="m424.1 250.6c0.5 0.3 0.9 0.8 1.1 1.3s0.3 1.1 0.3 1.7c-0.1 0.7-0.3 1.3-0.8 1.7-0.4 0.5-0.9 0.8-1.6 1-0.6 0.2-1.3 0.3-2.1 0.2-1.4-0.2-2.5-0.8-3.2-1.7-0.7-1-1-2.2-0.8-3.9 0.1-1.2 0.5-2.1 1.1-2.9s1.3-1.3 2.1-1.7c0.9-0.3 1.8-0.4 2.9-0.3 0.6 0.1 1.1 0.2 1.6 0.4s0.9 0.4 1.3 0.7l-1.3 1.9c-0.4-0.4-1-0.7-1.8-0.8-0.7-0.1-1.3 0-1.9 0.4-0.5 0.3-0.8 0.9-1 1.6 0.6-0.4 1.4-0.6 2.4-0.5 0.6 0.3 1.2 0.5 1.7 0.9zm-1.9 3.6c0.3-0.2 0.5-0.5 0.5-0.9s0-0.7-0.3-1c-0.2-0.3-0.5-0.4-1-0.5-0.4-0.1-0.8 0-1.1 0.2s-0.5 0.5-0.5 0.9 0 0.7 0.3 1c0.2 0.3 0.6 0.4 1 0.5s0.8 0 1.1-0.2z"/>
									<path class="st2" d="m453.8 250.3-1.3 10.1-2.9-0.4 1-7.9-1.9-0.2 0.3-2.2 4.8 0.6z"/>
									<path class="st2" d="m463.5 251.6-0.2 1.8-4.6 7.8-3.1-0.4 4.4-7.4-2.7-0.3-0.2 1.6-2.4-0.3 0.5-3.8 8.3 1z"/>
									<path class="st2" d="m492.7 255.3-1.3 10.1-2.9-0.4 1-7.9-1.9-0.2 0.3-2.2 4.8 0.6z"/>
									<path class="st2" d="m501.8 262.4c0.2 0.4 0.3 0.9 0.2 1.4-0.1 0.6-0.3 1.2-0.8 1.6-0.4 0.4-1 0.7-1.7 0.9s-1.5 0.2-2.3 0.1c-0.9-0.1-1.6-0.3-2.2-0.7-0.6-0.3-1.1-0.8-1.4-1.3s-0.4-1.1-0.3-1.7c0.1-0.5 0.2-0.9 0.5-1.3s0.7-0.6 1.2-0.9c-0.3-0.3-0.5-0.6-0.7-1-0.1-0.4-0.2-0.8-0.1-1.2 0.1-0.6 0.3-1.1 0.7-1.5s0.9-0.7 1.6-0.8c0.6-0.2 1.4-0.2 2.1-0.1 0.8 0.1 1.5 0.3 2.1 0.6s1 0.7 1.3 1.2 0.4 1 0.3 1.6c-0.1 0.4-0.2 0.8-0.4 1.1s-0.5 0.6-0.9 0.8c0.3 0.4 0.6 0.8 0.8 1.2zm-3.2 1.8c0.3-0.2 0.5-0.5 0.5-0.9s0-0.7-0.3-1c-0.2-0.3-0.6-0.4-1.1-0.5s-0.8 0-1.1 0.2-0.5 0.5-0.5 0.9 0 0.7 0.3 1c0.2 0.3 0.6 0.4 1.1 0.5 0.4 0 0.8 0 1.1-0.2zm-1.2-6.1c-0.2 0.2-0.4 0.4-0.4 0.7s0 0.6 0.2 0.8 0.5 0.3 0.8 0.4c0.4 0 0.7 0 0.9-0.2s0.4-0.4 0.4-0.7 0-0.6-0.2-0.8-0.5-0.3-0.8-0.4c-0.4 0-0.7 0-0.9 0.2z"/>
									<path class="st3" d="m262.5 249.9-1.3 10.1-2.9-0.4 1-7.9-1.9-0.2 0.3-2.2 4.8 0.6z"/>
									<path class="st3" d="m271 252.1c0.7 1 1 2.2 0.8 3.9-0.1 1.2-0.5 2.1-1.1 2.9s-1.3 1.3-2.1 1.6c-0.9 0.3-1.8 0.4-2.9 0.3-0.6-0.1-1.1-0.2-1.6-0.4s-0.9-0.4-1.3-0.7l1.3-1.9c0.4 0.4 1 0.7 1.8 0.8 0.7 0.1 1.3 0 1.8-0.4 0.5-0.3 0.8-0.9 1-1.6-0.6 0.4-1.4 0.6-2.4 0.4-0.6-0.1-1.2-0.3-1.7-0.6s-0.9-0.8-1.1-1.3-0.3-1.1-0.3-1.7c0.1-0.7 0.3-1.3 0.8-1.7 0.4-0.5 0.9-0.8 1.6-1 0.6-0.2 1.3-0.3 2.1-0.2 1.5 0.1 2.6 0.7 3.3 1.6zm-2.6 2.7c0.3-0.2 0.5-0.5 0.5-0.9s0-0.7-0.3-1c-0.2-0.3-0.6-0.4-1-0.5s-0.8 0-1 0.2c-0.3 0.2-0.5 0.5-0.5 0.9s0 0.7 0.3 1c0.2 0.3 0.5 0.4 1 0.5 0.4 0.1 0.7 0 1-0.2z"/>
									<path class="st2" d="m303.1 263.2-0.3 2.3-7.9-1 0.2-1.8 4.2-3c0.4-0.3 0.7-0.6 0.9-0.8s0.2-0.5 0.3-0.7c0-0.3 0-0.6-0.2-0.8s-0.5-0.3-0.9-0.4c-0.4 0-0.7 0-1.1 0.1-0.3 0.1-0.6 0.3-0.9 0.6l-2-1.5c0.5-0.6 1.1-1 1.9-1.3s1.6-0.4 2.6-0.2c0.8 0.1 1.4 0.3 2 0.6s1 0.7 1.2 1.3c0.3 0.5 0.4 1.1 0.3 1.7-0.1 0.5-0.3 1-0.6 1.5s-0.8 0.9-1.6 1.5l-2.1 1.5 4 0.4z"/>
									<path class="st2" d="m305.8 265.4c-0.6-0.5-1.1-1.2-1.3-2-0.3-0.8-0.3-1.8-0.2-2.9s0.5-2 0.9-2.7c0.5-0.7 1.1-1.3 1.8-1.6s1.5-0.4 2.4-0.3 1.6 0.4 2.2 0.9 1.1 1.2 1.3 2c0.3 0.8 0.3 1.8 0.2 2.9s-0.5 2-0.9 2.7c-0.5 0.7-1.1 1.3-1.8 1.6s-1.5 0.4-2.4 0.3c-0.8-0.1-1.6-0.4-2.2-0.9zm3.8-2c0.3-0.4 0.6-1.1 0.7-2.2 0.1-1 0.1-1.8-0.1-2.3s-0.6-0.8-1.1-0.8c-0.5-0.1-0.9 0.1-1.2 0.5s-0.6 1.1-0.7 2.2c-0.1 1-0.1 1.8 0.1 2.3s0.6 0.8 1.1 0.8c0.4 0.1 0.8 0 1.2-0.5z"/>
									<path class="st2" d="m340.2 268-0.3 2.3-7.9-1 0.2-1.8 4.2-3c0.4-0.3 0.7-0.6 0.9-0.8s0.2-0.5 0.3-0.7c0-0.3 0-0.6-0.2-0.8s-0.5-0.3-0.9-0.4c-0.4 0-0.7 0-1.1 0.1-0.3 0.1-0.6 0.3-0.9 0.6l-2-1.5c0.5-0.6 1.1-1 1.9-1.3s1.6-0.4 2.6-0.2c0.8 0.1 1.4 0.3 2 0.6s1 0.7 1.2 1.3c0.3 0.5 0.4 1.1 0.3 1.7-0.1 0.5-0.3 1-0.6 1.5s-0.8 0.9-1.6 1.5l-2.1 1.5 4 0.4z"/>
									<path class="st2" d="m346.3 260.8-1.3 10.1-2.9-0.4 1-7.9-1.9-0.2 0.3-2.2 4.8 0.6z"/>
									<path class="st2" d="m378.2 272.9-0.3 2.3-7.9-1 0.2-1.8 4.2-3c0.4-0.3 0.7-0.6 0.8-0.8 0.2-0.2 0.2-0.5 0.3-0.7 0-0.3 0-0.6-0.2-0.8s-0.5-0.3-0.9-0.4c-0.4 0-0.7 0-1.1 0.1-0.3 0.1-0.6 0.3-0.9 0.6l-2-1.5c0.5-0.6 1.1-1 1.9-1.3s1.6-0.4 2.6-0.2c0.8 0.1 1.4 0.3 2 0.6s1 0.7 1.2 1.3c0.3 0.5 0.4 1.1 0.3 1.7-0.1 0.5-0.3 1-0.6 1.5s-0.8 0.9-1.6 1.5l-2.1 1.5 4.1 0.4z"/>
									<path class="st2" d="m386.8 274-0.3 2.3-7.9-1 0.2-1.8 4.2-3c0.4-0.3 0.7-0.6 0.9-0.8s0.3-0.5 0.3-0.7c0-0.3 0-0.6-0.2-0.8s-0.5-0.3-0.9-0.4c-0.4 0-0.7 0-1.1 0.1-0.3 0.1-0.6 0.3-0.9 0.6l-2-1.5c0.5-0.6 1.1-1 1.9-1.3s1.6-0.4 2.6-0.2c0.8 0.1 1.4 0.3 2 0.6s1 0.7 1.2 1.3c0.3 0.5 0.4 1.1 0.3 1.7-0.1 0.5-0.3 1-0.6 1.5s-0.8 0.9-1.6 1.5l-2.1 1.5 4 0.4z"/>
									<path class="st2" d="m415.8 277.8-0.3 2.3-7.9-1 0.2-1.8 4.2-3c0.4-0.3 0.7-0.6 0.9-0.8s0.3-0.5 0.3-0.7c0-0.3 0-0.6-0.2-0.8s-0.5-0.3-0.9-0.4c-0.4 0-0.7 0-1.1 0.1-0.3 0.1-0.6 0.3-0.9 0.6l-2-1.5c0.5-0.6 1.1-1 1.9-1.3s1.6-0.4 2.6-0.2c0.8 0.1 1.4 0.3 2 0.6s1 0.7 1.2 1.3c0.3 0.5 0.4 1.1 0.3 1.7-0.1 0.5-0.3 1-0.6 1.5s-0.8 0.9-1.6 1.5l-2.1 1.5 4 0.4z"/>
									<path class="st2" d="m424.1 276c0.4 0.6 0.5 1.2 0.4 2-0.1 0.6-0.3 1.1-0.7 1.6s-0.9 0.8-1.6 1-1.5 0.3-2.5 0.2c-0.7-0.1-1.4-0.3-2.1-0.5-0.7-0.3-1.2-0.6-1.7-1l1.3-2c0.4 0.3 0.8 0.6 1.3 0.8s1 0.3 1.4 0.4c0.5 0.1 0.9 0 1.2-0.1s0.5-0.4 0.5-0.7c0.1-0.7-0.4-1-1.4-1.2l-1.2-0.2 0.2-1.8 2.1-1.7-4-0.5 0.3-2.2 7.3 0.9-0.2 1.8-2.4 2c0.8 0.2 1.4 0.7 1.8 1.2z"/>
									<path class="st2" d="m453.6 282.7-0.3 2.3-7.9-1 0.2-1.8 4.2-3c0.4-0.3 0.7-0.6 0.9-0.8s0.3-0.5 0.3-0.7c0-0.3 0-0.6-0.2-0.8s-0.5-0.3-0.9-0.4c-0.4 0-0.7 0-1.1 0.1-0.3 0.1-0.6 0.3-0.9 0.6l-2-1.5c0.5-0.6 1.1-1 1.9-1.3s1.6-0.4 2.6-0.2c0.8 0.1 1.4 0.3 2 0.6s1 0.7 1.2 1.3c0.3 0.5 0.4 1.1 0.3 1.7-0.1 0.5-0.3 1-0.6 1.5s-0.8 0.9-1.6 1.5l-2.1 1.5 4 0.4z"/>
									<path class="st2" d="m463.9 284.3-1.5-0.2-0.3 1.9-2.8-0.4 0.3-1.9-5.3-0.7 0.2-1.9 5.3-5.7 3 0.4-4.9 5.4 2 0.3 0.2-1.7 2.7 0.3-0.2 1.7 1.5 0.2-0.2 2.3z"/>
									<path class="st2" d="m491.1 287.5-0.3 2.3-7.9-1 0.2-1.8 4.2-3c0.4-0.3 0.7-0.6 0.9-0.8s0.3-0.5 0.3-0.7c0-0.3 0-0.6-0.2-0.8s-0.5-0.3-0.9-0.4c-0.4 0-0.7 0-1.1 0.1-0.3 0.1-0.6 0.3-0.9 0.6l-2-1.5c0.5-0.6 1.1-1 1.9-1.3s1.6-0.4 2.6-0.2c0.8 0.1 1.4 0.3 2 0.6s1 0.7 1.2 1.3c0.3 0.5 0.4 1.1 0.3 1.7-0.1 0.5-0.3 1-0.6 1.5s-0.8 0.9-1.6 1.5l-2.1 1.5 4 0.4z"/>
									<path class="st2" d="m499.3 285.2c0.6 0.7 0.8 1.5 0.7 2.4-0.1 0.6-0.3 1.2-0.7 1.7s-0.9 0.8-1.6 1.1c-0.7 0.2-1.5 0.3-2.5 0.2-0.7-0.1-1.4-0.3-2.1-0.5-0.7-0.3-1.2-0.6-1.7-1l1.3-2c0.4 0.3 0.8 0.6 1.3 0.8s0.9 0.3 1.4 0.4 0.9 0 1.2-0.1 0.5-0.4 0.5-0.7-0.1-0.6-0.3-0.8c-0.3-0.2-0.8-0.4-1.5-0.5l-2.7-0.4 1.3-5.8 6.4 0.8-0.3 2.2-4.1-0.5-0.3 1.5 0.7 0.1c1.4 0 2.4 0.5 3 1.1z"/>
									<path class="st3" d="m262.2 282.3-0.3 2.3-7.9-1 0.2-1.8 4.2-3c0.4-0.3 0.7-0.6 0.8-0.8 0.2-0.2 0.3-0.5 0.3-0.7 0-0.3 0-0.6-0.2-0.8s-0.5-0.3-0.9-0.4c-0.4 0-0.7 0-1.1 0.1-0.3 0.1-0.6 0.3-0.9 0.6l-2-1.5c0.5-0.6 1.1-1 1.9-1.3s1.6-0.4 2.6-0.2c0.8 0.1 1.4 0.3 2 0.6s1 0.7 1.2 1.3c0.3 0.5 0.4 1.1 0.3 1.7-0.1 0.5-0.3 1-0.5 1.5-0.3 0.5-0.8 0.9-1.6 1.5l-2.1 1.5 4 0.4z"/>
									<path class="st3" d="m270.5 279.5c0.5 0.3 0.9 0.8 1.1 1.3s0.3 1.1 0.3 1.7c-0.1 0.7-0.3 1.3-0.8 1.7-0.4 0.5-0.9 0.8-1.6 1-0.6 0.2-1.3 0.3-2.1 0.2-1.4-0.2-2.5-0.8-3.3-1.7-0.7-1-1-2.2-0.8-3.9 0.1-1.2 0.5-2.1 1.1-2.9s1.3-1.3 2.1-1.6c0.9-0.3 1.8-0.4 2.9-0.3 0.6 0.1 1.1 0.2 1.6 0.4s0.9 0.4 1.3 0.7l-1.3 1.9c-0.4-0.4-1-0.7-1.8-0.8-0.7-0.1-1.3 0-1.9 0.4-0.5 0.3-0.8 0.9-1 1.6 0.6-0.4 1.4-0.6 2.4-0.5 0.7 0.3 1.3 0.5 1.8 0.8zm-2 3.7c0.3-0.2 0.5-0.5 0.5-0.9s0-0.7-0.3-1c-0.2-0.3-0.5-0.4-1-0.5-0.4-0.1-0.8 0-1.1 0.2s-0.5 0.5-0.5 0.9 0 0.7 0.3 1c0.2 0.3 0.6 0.4 1 0.5 0.5 0.1 0.9 0 1.1-0.2z"/>
									<path class="st2" d="m299.8 287.2-0.3 2.3-7.9-1 0.2-1.8 4.2-3c0.4-0.3 0.7-0.6 0.8-0.8 0.2-0.2 0.3-0.5 0.3-0.7 0-0.3 0-0.6-0.2-0.8s-0.5-0.3-0.9-0.4c-0.4 0-0.7 0-1.1 0.1-0.3 0.1-0.6 0.3-0.9 0.6l-2-1.5c0.5-0.6 1.1-1 1.9-1.3s1.6-0.4 2.6-0.2c0.8 0.1 1.4 0.3 2 0.6s1 0.7 1.2 1.3c0.3 0.5 0.4 1.1 0.3 1.7-0.1 0.5-0.3 1-0.6 1.5s-0.8 0.9-1.6 1.5l-2.1 1.5 4.1 0.4z"/>
									<path class="st2" d="m309.9 280.5-0.2 1.8-4.6 7.8-3.1-0.4 4.4-7.4-2.6-0.3-0.2 1.6-2.4-0.3 0.5-3.8 8.2 1z"/>
									<path class="st2" d="m337.5 292.1-0.3 2.3-7.9-1 0.2-1.8 4.2-3c0.4-0.3 0.7-0.6 0.9-0.8s0.3-0.5 0.3-0.7c0-0.3 0-0.6-0.2-0.8s-0.5-0.3-0.9-0.4c-0.4 0-0.7 0-1.1 0.1-0.3 0.1-0.6 0.3-0.9 0.6l-2-1.5c0.5-0.6 1.1-1 1.9-1.3s1.6-0.4 2.6-0.2c0.8 0.1 1.4 0.3 2 0.6s1 0.7 1.2 1.3c0.3 0.5 0.4 1.1 0.3 1.7-0.1 0.5-0.3 1-0.6 1.5s-0.8 0.9-1.6 1.5l-2.1 1.5 4 0.4z"/>
									<path class="st2" d="m347 291.2c0.2 0.4 0.3 0.9 0.2 1.4-0.1 0.6-0.3 1.2-0.8 1.6-0.4 0.4-1 0.7-1.7 0.9s-1.5 0.2-2.3 0.1c-0.9-0.1-1.6-0.3-2.2-0.7-0.6-0.3-1.1-0.8-1.4-1.3s-0.4-1.1-0.3-1.7c0.1-0.5 0.2-0.9 0.6-1.3 0.3-0.4 0.7-0.6 1.2-0.9-0.3-0.3-0.5-0.6-0.7-1-0.1-0.4-0.2-0.8-0.1-1.2 0.1-0.6 0.3-1.1 0.7-1.5s0.9-0.7 1.6-0.8c0.6-0.2 1.4-0.2 2.1-0.1 0.8 0.1 1.5 0.3 2 0.6 0.6 0.3 1 0.7 1.3 1.2s0.4 1 0.3 1.6c-0.1 0.4-0.2 0.8-0.4 1.1s-0.5 0.6-0.9 0.8c0.3 0.4 0.6 0.8 0.8 1.2zm-3.2 1.8c0.3-0.2 0.5-0.5 0.5-0.9s0-0.7-0.3-1c-0.2-0.3-0.6-0.4-1.1-0.5s-0.8 0-1.1 0.2-0.5 0.5-0.5 0.9c-0.1 0.4 0 0.7 0.3 1 0.2 0.3 0.6 0.4 1.1 0.5 0.4 0 0.8 0 1.1-0.2zm-1.2-6.1c-0.2 0.2-0.4 0.4-0.4 0.7s0 0.6 0.2 0.8 0.5 0.3 0.8 0.4c0.4 0 0.7 0 0.9-0.2s0.4-0.4 0.4-0.7 0-0.6-0.2-0.8-0.5-0.3-0.8-0.4c-0.4 0-0.7 0-0.9 0.2z"/>
									<path class="st2" d="m375.1 296.9-0.3 2.3-7.9-1 0.2-1.8 4.2-3c0.4-0.3 0.7-0.6 0.9-0.8s0.3-0.5 0.3-0.7c0-0.3 0-0.6-0.2-0.8s-0.5-0.3-0.9-0.4c-0.4 0-0.7 0-1.1 0.1-0.3 0.1-0.6 0.3-0.9 0.6l-2-1.5c0.5-0.6 1.1-1 1.9-1.3s1.6-0.4 2.6-0.2c0.8 0.1 1.4 0.3 2 0.6s1 0.7 1.2 1.3c0.3 0.5 0.4 1.1 0.3 1.7-0.1 0.5-0.3 1-0.6 1.5s-0.8 0.9-1.6 1.5l-2.1 1.5 4 0.4z"/>
									<path class="st2" d="m384 291.2c0.7 1 1 2.2 0.8 3.9-0.1 1.2-0.5 2.1-1.1 2.9s-1.3 1.3-2.1 1.7c-0.9 0.3-1.8 0.4-2.9 0.3-0.6-0.1-1.1-0.2-1.6-0.4s-0.9-0.4-1.3-0.7l1.3-1.9c0.4 0.4 1 0.7 1.8 0.8 0.7 0.1 1.3 0 1.8-0.4 0.5-0.3 0.8-0.9 1-1.6-0.6 0.4-1.4 0.6-2.4 0.4-0.6-0.1-1.2-0.3-1.7-0.6s-0.9-0.8-1.1-1.3-0.3-1.1-0.3-1.7c0.1-0.7 0.3-1.3 0.8-1.7 0.4-0.5 0.9-0.8 1.6-1 0.6-0.2 1.3-0.3 2.1-0.2 1.5 0 2.5 0.5 3.3 1.5zm-2.6 2.7c0.3-0.2 0.5-0.5 0.5-0.9s0-0.7-0.3-1c-0.2-0.3-0.6-0.4-1-0.5s-0.8 0-1 0.2c-0.3 0.2-0.5 0.5-0.5 0.9s0 0.7 0.3 1c0.2 0.3 0.5 0.4 1 0.5 0.3 0 0.7 0 1-0.2z"/>
									<path class="st2" d="m412.5 299c0.4 0.6 0.5 1.2 0.4 2-0.1 0.6-0.3 1.1-0.7 1.6s-0.9 0.8-1.6 1-1.5 0.3-2.5 0.2c-0.7-0.1-1.4-0.3-2.1-0.5-0.7-0.3-1.2-0.6-1.7-1l1.3-2c0.4 0.3 0.8 0.6 1.3 0.8s1 0.3 1.4 0.4c0.5 0.1 0.9 0 1.2-0.1s0.5-0.4 0.5-0.7c0.1-0.7-0.4-1-1.4-1.2l-1.2-0.2 0.2-1.8 2.1-1.7-4-0.5 0.3-2.2 7.3 0.9-0.2 1.8-2.4 2c0.8 0.2 1.4 0.6 1.8 1.2z"/>
									<path class="st2" d="m415.7 304.1c-0.6-0.5-1.1-1.2-1.3-2-0.3-0.8-0.3-1.8-0.2-2.9s0.5-2 0.9-2.7c0.5-0.7 1.1-1.3 1.8-1.6s1.5-0.4 2.4-0.3 1.6 0.4 2.2 0.9 1.1 1.2 1.3 2c0.3 0.8 0.3 1.8 0.2 2.9s-0.5 2-0.9 2.7c-0.5 0.7-1.1 1.3-1.8 1.6s-1.5 0.4-2.4 0.3-1.6-0.4-2.2-0.9zm3.7-2c0.3-0.4 0.6-1.1 0.7-2.2 0.1-1 0.1-1.8-0.1-2.3s-0.6-0.8-1.1-0.8c-0.5-0.1-0.9 0.1-1.3 0.5-0.3 0.4-0.6 1.1-0.7 2.2-0.1 1-0.1 1.8 0.1 2.3s0.6 0.8 1.1 0.9c0.6 0 1-0.2 1.3-0.6z"/>
									<path class="st2" d="m449.6 303.8c0.4 0.6 0.5 1.2 0.4 2-0.1 0.6-0.3 1.1-0.7 1.6s-0.9 0.8-1.6 1-1.5 0.3-2.5 0.2c-0.7-0.1-1.4-0.3-2.1-0.5-0.7-0.3-1.2-0.6-1.7-1l1.3-2c0.4 0.3 0.8 0.6 1.3 0.8s1 0.3 1.4 0.4c0.5 0.1 0.9 0 1.2-0.1s0.5-0.4 0.5-0.7c0.1-0.7-0.4-1-1.4-1.2l-1.2-0.2 0.2-1.8 2.1-1.7-4-0.5 0.3-2.2 7.3 0.9-0.2 1.8-2.4 2c0.9 0.2 1.5 0.6 1.8 1.2z"/>
									<path class="st2" d="m456.2 299.5-1.3 10.1-2.9-0.4 1-7.9-1.9-0.2 0.3-2.2 4.8 0.6z"/>
								<path class="st4" d="m306.2 108.9c-0.6 4.7-4.9 8.1-9.7 7.5-4.7-0.6-8.1-4.9-7.5-9.7 0.6-4.7 5-8.1 9.7-7.5 4.8 0.6 8.1 5 7.5 9.7z"/>
								<path class="st4" d="m356 115.3c-0.6 4.7-5 8.1-9.7 7.5s-8.1-5-7.5-9.7 4.9-8.1 9.7-7.5c4.8 0.7 8.1 5 7.5 9.7z"/>
								<path class="st4" d="m405.8 121.8c-0.6 4.7-5 8.1-9.7 7.5s-8.1-5-7.5-9.7 5-8.1 9.7-7.5c4.8 0.6 8.1 5 7.5 9.7z"/>
								<path class="st4" d="m455.6 128.3c-0.6 4.7-5 8.1-9.7 7.5s-8.1-4.9-7.5-9.7c0.6-4.7 5-8.1 9.7-7.5 4.8 0.6 8.2 4.9 7.5 9.7z"/>
								<path class="st4" d="m505.5 134.7c-0.6 4.7-4.9 8.1-9.7 7.5-4.7-0.6-8.1-5-7.5-9.7s5-8.1 9.7-7.5 8.1 5 7.5 9.7z"/>
									<linearGradient id="g" x1="294.11" x2="304.61" y1="94.446" y2="94.446" gradientUnits="userSpaceOnUse">
										<stop stop-color="#D0B7FF" offset="0"/>
										<stop stop-color="#9980D1" offset="1"/>
									</linearGradient>
									<path class="st5" d="m297.3 110c-2-0.3-3.5-2.1-3.2-4.2l3.1-23.7c0.3-2 2.1-3.5 4.2-3.2 2 0.3 3.5 2.1 3.2 4.2l-3.1 23.7c-0.3 2-2.1 3.4-4.2 3.2z"/>
									<linearGradient id="f" x1="343.92" x2="354.42" y1="100.9" y2="100.9" gradientUnits="userSpaceOnUse">
										<stop stop-color="#D0B7FF" offset="0"/>
										<stop stop-color="#9980D1" offset="1"/>
									</linearGradient>
									<path class="st6" d="m347.2 116.4c-2-0.3-3.5-2.1-3.2-4.2l3.1-23.7c0.3-2 2.1-3.5 4.2-3.2 2 0.3 3.5 2.1 3.2 4.2l-3.1 23.7c-0.3 2-2.2 3.5-4.2 3.2z"/>
									<linearGradient id="e" x1="393.74" x2="404.24" y1="107.36" y2="107.36" gradientUnits="userSpaceOnUse">
										<stop stop-color="#D0B7FF" offset="0"/>
										<stop stop-color="#9980D1" offset="1"/>
									</linearGradient>
									<path class="st7" d="m397 122.9c-2-0.3-3.5-2.1-3.2-4.2l3.1-23.7c0.3-2 2.1-3.5 4.2-3.2 2 0.3 3.5 2.1 3.2 4.2l-3.1 23.7c-0.3 2-2.2 3.4-4.2 3.2z"/>
									<linearGradient id="d" x1="443.56" x2="454.06" y1="113.81" y2="113.81" gradientUnits="userSpaceOnUse">
										<stop stop-color="#D0B7FF" offset="0"/>
										<stop stop-color="#9980D1" offset="1"/>
									</linearGradient>
									<path class="st8" d="m446.8 129.3c-2-0.3-3.5-2.1-3.2-4.2l3.1-23.7c0.3-2 2.1-3.5 4.2-3.2 2 0.3 3.5 2.1 3.2 4.2l-3.1 23.7c-0.3 2.1-2.2 3.5-4.2 3.2z"/>
									<linearGradient id="c" x1="493.38" x2="503.88" y1="120.26" y2="120.26" gradientUnits="userSpaceOnUse">
										<stop stop-color="#D0B7FF" offset="0"/>
										<stop stop-color="#9980D1" offset="1"/>
									</linearGradient>
									<path class="st9" d="m496.6 135.8c-2-0.3-3.5-2.1-3.2-4.2l3.1-23.7c0.3-2 2.1-3.5 4.2-3.2 2 0.3 3.5 2.1 3.2 4.2l-3.1 23.7c-0.3 2-2.1 3.4-4.2 3.2z"/>
							<text class="st2 st10 st11 st12" transform="matrix(.9923 .1241 -.1241 .9923 272.21 151.87)">XXXXXXXXX</text>
							<image transform="matrix(.24 0 0 .24 450.44 288.78)" width="400" height="400" opacity=".2" overflow="visible" xlink:href="C332D4C2.png">
						</image>
							<circle class="st2" cx="495.4" cy="333.8" r="33"/>
					<circle class="st4" cx="495.4" cy="333.8" r="28.9"/>
						<path class="st2" d="m496.9 332.1c0.9 0.8 1 2.3 0.1 3.2-0.8 0.9-2.3 1-3.2 0.1-0.9-0.8-1-2.3-0.1-3.2 0.9-0.8 2.3-0.9 3.2-0.1z"/>
						<path class="st2" d="m495.4 333.8c-0.4 0.5-1.2 0.5-1.7 0.1l-13.3-12.2c-0.5-0.4-0.5-1.2-0.1-1.7s1.2-0.5 1.7-0.1l13.3 12.2c0.5 0.5 0.6 1.2 0.1 1.7z"/>
						<path class="st2" d="m495.4 333.8c-0.1-0.6 0.3-1.3 0.9-1.4l11.1-2.5c0.6-0.1 1.3 0.3 1.4 0.9s-0.3 1.3-0.9 1.4l-11.1 2.5c-0.6 0.2-1.2-0.2-1.4-0.9z"/>
					<linearGradient id="b" x1="217.26" x2="217.26" y1="213.36" y2="190.49" gradientUnits="userSpaceOnUse">
						<stop stop-color="#CBB2FA" offset="0"/>
						<stop stop-color="#9E85D6" offset=".9948"/>
					</linearGradient>
					<path class="st13" d="m221.4 197c-1.2-1.2-2.7-1.7-4.2-1.7s-3 0.6-4.2 1.7c-2 2-2.3 5-0.8 7.3 0.7 1.1 5 6.7 5 6.7s4.3-5.6 5-6.7c0.6-0.9 0.9-2 0.9-3.1 0-1.5-0.5-3.1-1.7-4.2zm-4.1 6.3c-1.2 0-2.1-0.9-2.1-2.1s0.9-2.1 2.1-2.1 2.1 0.9 2.1 2.1c0 1.1-1 2.1-2.1 2.1z"/>
						<circle class="st14" cx="310.3" cy="213.2" r="11.7"/>
						<line class="st14" x1="298.5" x2="202.5" y1="213.2" y2="213.2"/>
						<path class="st2" d="m230.7 218.9h-26.9c-0.7 0-1.3-0.6-1.3-1.3s0.6-1.3 1.3-1.3h26.9c0.7 0 1.3 0.6 1.3 1.3s-0.6 1.3-1.3 1.3z"/>
						<path class="st2" d="m230.7 222.6h-26.9c-0.7 0-1.3-0.6-1.3-1.3s0.6-1.3 1.3-1.3h26.9c0.7 0 1.3 0.6 1.3 1.3 0 0.8-0.6 1.3-1.3 1.3z"/>
						<path class="st2" d="m216.3 226.4h-12.5c-0.7 0-1.3-0.6-1.3-1.3s0.6-1.3 1.3-1.3h12.5c0.7 0 1.3 0.6 1.3 1.3s-0.6 1.3-1.3 1.3z"/>
								<path class="st2" d="m371 348.1h-26.9c-0.7 0-1.3-0.6-1.3-1.3s0.6-1.3 1.3-1.3h26.9c0.7 0 1.3 0.6 1.3 1.3 0 0.8-0.6 1.3-1.3 1.3z"/>
								<path class="st2" d="m371 351.9h-26.9c-0.7 0-1.3-0.6-1.3-1.3s0.6-1.3 1.3-1.3h26.9c0.7 0 1.3 0.6 1.3 1.3s-0.6 1.3-1.3 1.3z"/>
								<path class="st2" d="m356.6 355.7h-12.5c-0.7 0-1.3-0.6-1.3-1.3s0.6-1.3 1.3-1.3h12.5c0.7 0 1.3 0.6 1.3 1.3-0.1 0.7-0.6 1.3-1.3 1.3z"/>
							<linearGradient id="a" x1="331.9" x2="331.9" y1="344.1" y2="356.18" gradientUnits="userSpaceOnUse">
								<stop stop-color="#CBB2FA" offset="0"/>
								<stop stop-color="#9E85D6" offset=".9948"/>
							</linearGradient>
							<path class="st15" d="m337.9 350.1c0 3.3-2.7 6-6 6s-6-2.7-6-6 2.7-6 6-6 6 2.7 6 6z"/>
							<path class="st16" d="m337.8 343c-2.1 2.4-4.1 4.9-6.2 7.3-0.5-0.4-1-0.8-1.5-1.1-1.5-1.1-2.9 1.3-1.5 2.4l2.4 1.9c0.5 0.4 1.4 0.2 1.7-0.2 2.3-2.8 4.7-5.5 7-8.3 1.3-1.3-0.7-3.4-1.9-2z"/>
								<path class="st2" d="m371 366.8h-26.9c-0.7 0-1.3-0.6-1.3-1.3s0.6-1.3 1.3-1.3h26.9c0.7 0 1.3 0.6 1.3 1.3s-0.6 1.3-1.3 1.3z"/>
								<path class="st2" d="m371 370.5h-26.9c-0.7 0-1.3-0.6-1.3-1.3s0.6-1.3 1.3-1.3h26.9c0.7 0 1.3 0.6 1.3 1.3 0 0.8-0.6 1.3-1.3 1.3z"/>
								<path class="st2" d="m356.8 374.3h-12.9c-0.6 0-1.1-0.5-1.1-1.1v-0.4c0-0.6 0.5-1.1 1.1-1.1h12.9c0.6 0 1.1 0.5 1.1 1.1v0.4c-0.1 0.6-0.5 1.1-1.1 1.1z"/>
							<linearGradient id="m" x1="331.9" x2="331.9" y1="362.74" y2="374.82" gradientUnits="userSpaceOnUse">
								<stop stop-color="#CBB2FA" offset="0"/>
								<stop stop-color="#9E85D6" offset=".9948"/>
							</linearGradient>
							<path class="st17" d="m337.9 368.8c0 3.3-2.7 6-6 6s-6-2.7-6-6 2.7-6 6-6c3.3-0.1 6 2.6 6 6z"/>
								<path class="st2" d="m371 385.4h-26.9c-0.7 0-1.3-0.6-1.3-1.3s0.6-1.3 1.3-1.3h26.9c0.7 0 1.3 0.6 1.3 1.3s-0.6 1.3-1.3 1.3z"/>
								<path class="st2" d="m371 389.2h-26.9c-0.7 0-1.3-0.6-1.3-1.3s0.6-1.3 1.3-1.3h26.9c0.7 0 1.3 0.6 1.3 1.3s-0.6 1.3-1.3 1.3z"/>
								<path class="st2" d="m356.6 392.9h-12.5c-0.7 0-1.3-0.6-1.3-1.3s0.6-1.3 1.3-1.3h12.5c0.7 0 1.3 0.6 1.3 1.3-0.1 0.8-0.6 1.3-1.3 1.3z"/>
							<linearGradient id="l" x1="331.9" x2="331.9" y1="381.38" y2="393.46" gradientUnits="userSpaceOnUse">
								<stop stop-color="#CBB2FA" offset="0"/>
								<stop stop-color="#9E85D6" offset=".9948"/>
							</linearGradient>
							<path class="st18" d="m337.9 387.4c0 3.3-2.7 6-6 6s-6-2.7-6-6 2.7-6 6-6 6 2.7 6 6z"/>
						<polyline class="st14" points="376 394.7 376 344.1 405.7 308.6"/>
						<circle class="st14" cx="413.3" cy="299.7" r="11.7"/>
					<circle class="st14" cx="425.2" cy="203.3" r="11.7"/>
					<polyline class="st14" points="429.7 192.4 476.9 95.7 505.9 95.7"/>
						<path class="st2" d="m504.6 85.5h-26.9c-0.7 0-1.3-0.6-1.3-1.3s0.6-1.3 1.3-1.3h26.9c0.7 0 1.3 0.6 1.3 1.3s-0.6 1.3-1.3 1.3z"/>
						<path class="st2" d="m504.6 89.2h-26.9c-0.7 0-1.3-0.6-1.3-1.3s0.6-1.3 1.3-1.3h26.9c0.7 0 1.3 0.6 1.3 1.3s-0.6 1.3-1.3 1.3z"/>
						<path class="st2" d="m490.2 93h-12.5c-0.7 0-1.3-0.6-1.3-1.3s0.6-1.3 1.3-1.3h12.5c0.7 0 1.3 0.6 1.3 1.3-0.1 0.7-0.6 1.3-1.3 1.3z"/>
						<linearGradient id="k" x1="487.05" x2="487.05" y1="75.458" y2="60.109" gradientUnits="userSpaceOnUse">
							<stop stop-color="#CBB2FA" offset="0"/>
							<stop stop-color="#9E85D6" offset=".9948"/>
						</linearGradient>
						<path class="st19" d="m489.3 68.2c1.3-0.8 2.1-2.1 2.1-3.7 0-2.4-1.9-4.3-4.3-4.3s-4.3 1.9-4.3 4.3c0 1.6 0.9 3 2.1 3.7-2.7 0.9-4.7 3.5-4.7 6.6v0.7h13.8v-0.7c0-3.1-2-5.7-4.7-6.6z"/>
						<linearGradient id="j" x1="495.84" x2="495.84" y1="77.889" y2="62.54" gradientUnits="userSpaceOnUse">
							<stop stop-color="#CBB2FA" offset="0"/>
							<stop stop-color="#9E85D6" offset=".9948"/>
						</linearGradient>
						<path class="st20" d="m498.1 70.6c1.3-0.8 2.1-2.1 2.1-3.7 0-2.4-1.9-4.3-4.3-4.3s-4.3 1.9-4.3 4.3c0 1.6 0.9 3 2.1 3.7-2.7 0.9-4.7 3.5-4.7 6.6v0.7h13.8v-0.7c0-3.1-2-5.7-4.7-6.6z"/>
</svg>
