<svg id="Layer_1" data-name="Layer 1" xmlns="http://www.w3.org/2000/svg" xmlns:xlink="http://www.w3.org/1999/xlink" viewBox="0 0 1080 1080"><defs><style>.cls-1{fill:#efdfff;}.cls-2,.cls-3{fill:#d7b7ff;}.cls-2{opacity:0.42;}.cls-4{fill:url(#linear-gradient);}.cls-5{fill:url(#linear-gradient-2);}.cls-6{fill:url(#linear-gradient-3);}.cls-7{fill:url(#linear-gradient-4);}.cls-8{fill:url(#linear-gradient-5);}.cls-9{fill:url(#linear-gradient-6);}.cls-10{fill:url(#linear-gradient-7);}.cls-11{fill:url(#linear-gradient-8);}.cls-12{fill:url(#linear-gradient-9);}.cls-13{fill:url(#linear-gradient-10);}.cls-14{fill:url(#linear-gradient-11);}.cls-15{fill:url(#linear-gradient-12);}.cls-16{fill:url(#linear-gradient-13);}.cls-17{fill:url(#linear-gradient-14);}.cls-18{fill:url(#linear-gradient-15);}.cls-19{fill:url(#linear-gradient-16);}.cls-20{fill:url(#linear-gradient-17);}.cls-21{fill:url(#linear-gradient-18);}.cls-22{stroke:#fff;stroke-miterlimit:10;stroke-width:2px;fill:url(#linear-gradient-19);}.cls-23{opacity:0.37;fill:url(#linear-gradient-20);}</style><linearGradient id="linear-gradient" x1="492.25" y1="603.09" x2="532.77" y2="603.09" gradientUnits="userSpaceOnUse"><stop offset="0" stop-color="#c7aef7"/><stop offset="0.47" stop-color="#c8abf8"/><stop offset="0.81" stop-color="#caa2fc"/><stop offset="1" stop-color="#c9f"/></linearGradient><linearGradient id="linear-gradient-2" x1="474.64" y1="538.79" x2="553.91" y2="538.79" gradientUnits="userSpaceOnUse"><stop offset="0" stop-color="#d0b7ff"/><stop offset="0.2" stop-color="#bca3ee"/><stop offset="0.46" stop-color="#a990de"/><stop offset="0.73" stop-color="#9d84d4"/><stop offset="1" stop-color="#9980d1"/></linearGradient><linearGradient id="linear-gradient-3" x1="397.13" y1="380.25" x2="633.18" y2="380.25" xlink:href="#linear-gradient"/><linearGradient id="linear-gradient-4" x1="432.36" y1="691.17" x2="594.43" y2="691.17" xlink:href="#linear-gradient"/><linearGradient id="linear-gradient-5" x1="367.18" y1="225.23" x2="659.61" y2="225.23" xlink:href="#linear-gradient-2"/><linearGradient id="linear-gradient-6" x1="379.51" y1="284.24" x2="643.75" y2="284.24" xlink:href="#linear-gradient-2"/><linearGradient id="linear-gradient-7" x1="469.35" y1="655.06" x2="557.43" y2="655.06" xlink:href="#linear-gradient-2"/><linearGradient id="linear-gradient-8" x1="386.56" y1="744.02" x2="640.23" y2="744.02" xlink:href="#linear-gradient-2"/><linearGradient id="linear-gradient-9" x1="323.14" y1="779.25" x2="701.88" y2="779.25" xlink:href="#linear-gradient"/><linearGradient id="linear-gradient-10" x1="246.04" y1="384.42" x2="419.21" y2="384.42" gradientTransform="translate(-2.66 2.57) rotate(-0.3)" xlink:href="#linear-gradient-2"/><linearGradient id="linear-gradient-11" x1="594.83" y1="388.44" x2="768.01" y2="388.44" gradientTransform="matrix(-1, -0.01, -0.01, 1, 1375.97, 2.57)" xlink:href="#linear-gradient-2"/><linearGradient id="linear-gradient-12" x1="148.97" y1="734.97" x2="245.75" y2="734.97" xlink:href="#linear-gradient-2"/><linearGradient id="linear-gradient-13" x1="147.36" y1="760.41" x2="244.14" y2="760.41" xlink:href="#linear-gradient-2"/><linearGradient id="linear-gradient-14" x1="157.13" y1="788.24" x2="237.78" y2="788.24" xlink:href="#linear-gradient-2"/><linearGradient id="linear-gradient-15" x1="76" y1="575.3" x2="317.95" y2="575.3" gradientUnits="userSpaceOnUse"><stop offset="0" stop-color="#d0b7ff"/><stop offset="0.19" stop-color="#bda4ef"/><stop offset="0.46" stop-color="#a990de"/><stop offset="0.73" stop-color="#9d84d4"/><stop offset="1" stop-color="#9980d1"/></linearGradient><linearGradient id="linear-gradient-16" x1="726.41" y1="711.86" x2="868.98" y2="711.86" xlink:href="#linear-gradient-2"/><linearGradient id="linear-gradient-17" x1="1775.7" y1="714" x2="1918.27" y2="714" gradientTransform="matrix(-1, 0, 0, 1, 2767.98, 0)" xlink:href="#linear-gradient-2"/><linearGradient id="linear-gradient-18" x1="737" y1="573.62" x2="1000" y2="573.62" xlink:href="#linear-gradient-2"/><linearGradient id="linear-gradient-19" x1="764.57" y1="575.32" x2="973.16" y2="575.32" xlink:href="#linear-gradient"/><linearGradient id="linear-gradient-20" x1="865.47" y1="653.12" x2="865.47" y2="488.67" gradientUnits="userSpaceOnUse"><stop offset="0" stop-color="#d0b7ff"/><stop offset="0.08" stop-color="#bea5f0"/><stop offset="0.18" stop-color="#ad94e2"/><stop offset="0.31" stop-color="#a289d8"/><stop offset="0.49" stop-color="#9b82d3"/><stop offset="1" stop-color="#9980d1"/></linearGradient></defs><rect class="cls-1" x="61" y="135" width="958" height="800" rx="82.35"/><polygon class="cls-1" points="184.48 443.15 112.7 471.02 88.38 527.88 92.52 587.81 122.48 638.44 149.35 654.98 157.61 700.44 197.91 711.81 238.21 700.44 238.21 662.21 282.64 631.21 317.72 562.57 302.27 508.25 264.14 454.47 184.48 443.15"/><polygon class="cls-2" points="196.88 433.86 197.91 711.81 149.35 705.61 149.35 663.24 92.13 603.09 88.38 541.94 105.15 488.67 157.13 453.77 196.88 433.86"/><rect class="cls-3" x="367.18" y="298.33" width="26.42" height="31.71"/><rect class="cls-4" x="492.25" y="562.57" width="40.52" height="81.03"/><rect class="cls-5" x="474.64" y="499.16" width="79.27" height="79.27" rx="22.5"/><rect class="cls-6" x="397.13" y="227.87" width="236.05" height="304.76" rx="102.15"/><rect class="cls-3" x="629.66" y="300.1" width="26.42" height="31.71"/><path class="cls-7" d="M594.43,719.36H432.36c0-29.19,42.28-54.61,65.18-56.38h31.71c24.66,1.77,65.18,27.19,65.18,56.38Z"/><rect class="cls-8" x="367.18" y="204.97" width="292.43" height="40.52"/><rect class="cls-9" x="379.51" y="227.87" width="264.24" height="112.74"/><rect class="cls-3" x="379.51" y="245.49" width="264.24" height="10.57"/><rect class="cls-3" x="333.71" y="795.1" width="359.37" height="72.23"/><rect class="cls-10" x="469.35" y="638.32" width="88.08" height="33.47"/><rect class="cls-11" x="386.56" y="719.36" width="253.67" height="49.32"/><rect class="cls-12" x="323.14" y="759.87" width="378.74" height="38.76"/><path class="cls-13" d="M340.47,330c9.38-7.08,8.64-31-3.77-45.79-7.34-8.73-20.3-16.11-33.54-13.91C281.65,273.86,269.68,301,270,319.8c.37,25.88,36.26,44.77,70.8,64.81,1.52.87,4.53,2.6,8.84,5.23,12.79,7.83,27.68,17,40.67,29.74,7.12,7,13.87,13.64,19.51,24.56,2.78,5.38,15.49,30,5.57,54.58-.72,1.79-6.18,14.83-19.25,23-3.73,2.33-7.93,4.87-12.32,3.59C377.28,523.42,373,514,374.86,506c1.35-5.89,6.12-6.49,10.51-12.39,7.15-9.6,5.67-22,5.14-26.45-2.17-18.26-18.25-30-35.45-42.09-20.74-14.64-25.57-11.76-51.23-27.92-17.62-11.09-28.51-17.95-38.93-31.5-5.34-7-18.16-24.11-19.63-49.22-.51-8.65-1.57-26.7,10.33-44.1,12.22-17.85,30.15-23.39,35.11-24.85,5.35-1.56,30.45-8.17,52.88,6.77,16.43,11,22.11,27.25,24.85,35.1,2.24,6.42,6.24,18.37,3.7,33.45-.91,5.38-4.27,25.33-21,35.35-3.56,2.14-16.23,9.74-26.4,3.66-10-6-12.73-22.22-7.2-28.15S333,335.59,340.47,330Z"/><path class="cls-14" d="M684,332.18c-9.38-7.07-8.64-31,3.77-45.78,7.34-8.74,20.3-16.12,33.54-13.92,21.51,3.57,33.48,30.66,33.21,49.5-.37,25.88-36.26,44.77-70.8,64.81-1.52.88-4.53,2.6-8.84,5.24-12.79,7.83-27.68,16.94-40.67,29.73-7.12,7-13.87,13.64-19.51,24.56-2.78,5.39-15.49,30-5.57,54.58.72,1.79,6.18,14.84,19.25,23,3.73,2.33,7.93,4.87,12.32,3.59,6.5-1.89,10.73-11.36,8.91-19.33-1.35-5.89-6.12-6.49-10.51-12.39-7.15-9.6-5.67-22-5.14-26.45,2.17-18.26,18.26-29.95,35.45-42.09,20.75-14.64,25.57-11.75,51.24-27.92,17.61-11.09,28.5-17.95,38.92-31.5,5.35-7,18.16-24.11,19.63-49.22.51-8.64,1.57-26.7-10.33-44.1-12.22-17.85-30.15-23.39-35.11-24.85-5.35-1.56-30.45-8.17-52.88,6.77-16.43,10.95-22.11,27.25-24.85,35.1-2.24,6.42-6.24,18.37-3.7,33.46.91,5.37,4.27,25.32,21,35.34,3.56,2.14,16.23,9.75,26.4,3.66,10-6,12.73-22.22,7.2-28.15S691.46,337.77,684,332.18Z"/><path class="cls-15" d="M235.23,724.38l-75.77.17a10.51,10.51,0,1,0,0,21l75.77-.17a10.51,10.51,0,0,0,0-21Z"/><path class="cls-16" d="M233.62,749.83l-75.77.16a10.51,10.51,0,1,0,0,21l75.77-.16a10.51,10.51,0,0,0,0-21Z"/><path class="cls-17" d="M178.19,798.81l38.63-.09a21,21,0,0,0,21-21.05l-80.65.17A21,21,0,0,0,178.19,798.81Z"/><path class="cls-18" d="M196.71,434.13a121,121,0,0,0-47.88,231.92l.08,37a13.49,13.49,0,0,0,13.52,13.47l69.79-.15a13.49,13.49,0,0,0,13.46-13.53l-.08-37a121,121,0,0,0-48.89-231.71ZM232.84,655.5l.07,32.74c0,6.6-4.39,12-9.84,12l-51,.11c-5.45,0-9.88-5.33-9.89-11.93l-.07-32.74c-31.26-16.48-69.86-56.4-70-100.33-.13-59.18,56-105,104.89-105.07s104.67,45.44,104.8,104.61C301.91,598.8,264,638.89,232.84,655.5Z"/><polygon class="cls-19" points="805.4 613.6 726.41 787.97 779.39 755.21 789.99 810.12 868.98 650.21 805.4 613.6"/><polygon class="cls-20" points="913.29 615.73 992.28 790.1 939.3 757.35 928.7 812.26 849.71 652.34 913.29 615.73"/><circle class="cls-21" cx="868.5" cy="573.62" r="131.5"/><circle class="cls-22" cx="868.87" cy="575.32" r="104.3"/><polygon class="cls-23" points="920.78 650.73 867.11 624.04 814.69 653.12 823.49 593.83 779.64 552.96 838.75 543.01 864.06 488.67 891.79 541.82 951.29 549.1 909.32 591.9 920.78 650.73"/></svg>