<svg id="Layer_1" data-name="Layer 1" xmlns="http://www.w3.org/2000/svg" xmlns:xlink="http://www.w3.org/1999/xlink" viewBox="0 0 1080 1080"><defs><style>.cls-1{fill:url(#linear-gradient);}.cls-14,.cls-15,.cls-2{fill:#fff;}.cls-3{opacity:0.05;}.cls-4{fill:url(#linear-gradient-2);}.cls-5{opacity:0.73;font-size:103.88px;fill:#9c7cff;font-family:ArialNarrow, Arial Narrow;}.cls-6{letter-spacing:-0.01em;}.cls-7{letter-spacing:0em;}.cls-8{fill:none;stroke:#d7b7ff;}.cls-15,.cls-8{stroke-miterlimit:10;stroke-width:2px;}.cls-9{fill:#efdfff;}.cls-10{fill:#d7b7ff;}.cls-11{fill:url(#linear-gradient-3);}.cls-12{fill:url(#linear-gradient-4);}.cls-13{fill:url(#linear-gradient-5);}.cls-14{opacity:0.8;}.cls-15{stroke:#fff;opacity:0.35;}.cls-16{opacity:0.5;}.cls-17{fill:url(#linear-gradient-6);}.cls-18{fill:url(#linear-gradient-7);}.cls-19{fill:url(#linear-gradient-8);}.cls-20{fill:url(#linear-gradient-9);}.cls-21{fill:url(#linear-gradient-10);}.cls-22{fill:url(#linear-gradient-11);}.cls-23{fill:url(#linear-gradient-12);}.cls-24{fill:url(#linear-gradient-13);}.cls-25{fill:url(#linear-gradient-14);}.cls-26{fill:url(#linear-gradient-15);}.cls-27{opacity:0.38;}.cls-28{fill:url(#linear-gradient-16);}.cls-29{fill:url(#linear-gradient-17);}.cls-30{fill:url(#linear-gradient-18);}.cls-31{fill:url(#linear-gradient-19);}.cls-32{fill:url(#linear-gradient-20);}.cls-33{fill:url(#linear-gradient-21);}.cls-34{fill:url(#linear-gradient-22);}.cls-35{fill:url(#linear-gradient-23);}.cls-36{fill:url(#linear-gradient-24);}.cls-37{fill:url(#linear-gradient-25);}.cls-38{fill:url(#linear-gradient-26);}.cls-39{fill:url(#linear-gradient-27);}.cls-40{fill:url(#linear-gradient-28);}.cls-41{fill:url(#linear-gradient-29);}.cls-42{fill:url(#linear-gradient-30);}.cls-43{fill:url(#linear-gradient-31);}.cls-44{fill:url(#linear-gradient-32);}.cls-45,.cls-46{opacity:0.16;}.cls-45{fill:url(#linear-gradient-33);}.cls-46{fill:url(#linear-gradient-34);}</style><linearGradient id="linear-gradient" x1="201.94" y1="551.87" x2="811.48" y2="551.87" gradientUnits="userSpaceOnUse"><stop offset="0" stop-color="#d0b7ff"/><stop offset="1" stop-color="#9980d1"/></linearGradient><linearGradient id="linear-gradient-2" x1="268.52" y1="497.13" x2="878.06" y2="497.13" xlink:href="#linear-gradient"/><linearGradient id="linear-gradient-3" x1="301" y1="204.5" x2="847" y2="204.5" gradientUnits="userSpaceOnUse"><stop offset="0" stop-color="#c7aef7"/><stop offset="0.49" stop-color="#c9a6fa"/><stop offset="1" stop-color="#c9f"/></linearGradient><linearGradient id="linear-gradient-4" y1="229.5" y2="229.5" xlink:href="#linear-gradient-3"/><linearGradient id="linear-gradient-5" y1="624.5" y2="624.5" xlink:href="#linear-gradient-3"/><linearGradient id="linear-gradient-6" x1="509" y1="397.53" x2="840.3" y2="397.53" xlink:href="#linear-gradient"/><linearGradient id="linear-gradient-7" x1="509" y1="420.5" x2="840.3" y2="420.5" xlink:href="#linear-gradient"/><linearGradient id="linear-gradient-8" x1="510.71" y1="443.47" x2="842.01" y2="443.47" gradientTransform="translate(1352.71 886.93) rotate(180)" xlink:href="#linear-gradient"/><linearGradient id="linear-gradient-9" x1="510.71" y1="466.43" x2="842.01" y2="466.43" gradientTransform="translate(1352.71 932.87) rotate(180)" xlink:href="#linear-gradient"/><linearGradient id="linear-gradient-10" x1="509" y1="489.4" x2="840.3" y2="489.4" xlink:href="#linear-gradient"/><linearGradient id="linear-gradient-11" x1="509" y1="512.37" x2="840.3" y2="512.37" xlink:href="#linear-gradient"/><linearGradient id="linear-gradient-12" x1="509" y1="533.57" x2="840.3" y2="533.57" gradientTransform="translate(1349.3 1067.13) rotate(180)" xlink:href="#linear-gradient"/><linearGradient id="linear-gradient-13" x1="509" y1="556.53" x2="840.3" y2="556.53" gradientTransform="translate(1349.3 1113.07) rotate(180)" xlink:href="#linear-gradient"/><linearGradient id="linear-gradient-14" x1="509" y1="579.5" x2="840.3" y2="579.5" xlink:href="#linear-gradient"/><linearGradient id="linear-gradient-15" x1="509" y1="602.47" x2="840.3" y2="602.47" xlink:href="#linear-gradient"/><linearGradient id="linear-gradient-16" x1="303.48" y1="651.14" x2="634.78" y2="651.14" xlink:href="#linear-gradient"/><linearGradient id="linear-gradient-17" x1="303.48" y1="674.11" x2="634.78" y2="674.11" xlink:href="#linear-gradient"/><linearGradient id="linear-gradient-18" x1="366.51" y1="697.08" x2="697.81" y2="697.08" gradientTransform="matrix(1, 0, 0, -1, -61.33, 1394.15)" xlink:href="#linear-gradient"/><linearGradient id="linear-gradient-19" x1="366.51" y1="720.04" x2="697.81" y2="720.04" gradientTransform="matrix(1, 0, 0, -1, -61.33, 1440.08)" xlink:href="#linear-gradient"/><linearGradient id="linear-gradient-20" x1="303.48" y1="743.01" x2="634.78" y2="743.01" xlink:href="#linear-gradient"/><linearGradient id="linear-gradient-21" x1="303.48" y1="765.98" x2="634.78" y2="765.98" xlink:href="#linear-gradient"/><linearGradient id="linear-gradient-22" x1="368.22" y1="787.18" x2="699.52" y2="787.18" gradientTransform="matrix(1, 0, 0, -1, -64.74, 1574.35)" xlink:href="#linear-gradient"/><linearGradient id="linear-gradient-23" x1="368.22" y1="810.14" x2="699.52" y2="810.14" gradientTransform="matrix(1, 0, 0, -1, -64.74, 1620.28)" xlink:href="#linear-gradient"/><linearGradient id="linear-gradient-24" x1="303.48" y1="833.11" x2="634.78" y2="833.11" xlink:href="#linear-gradient"/><linearGradient id="linear-gradient-25" x1="303.48" y1="856.08" x2="634.78" y2="856.08" xlink:href="#linear-gradient"/><linearGradient id="linear-gradient-26" x1="303.33" y1="879.61" x2="634.63" y2="879.61" xlink:href="#linear-gradient"/><linearGradient id="linear-gradient-27" x1="209.78" y1="303.39" x2="209.78" y2="202" gradientUnits="userSpaceOnUse"><stop offset="0" stop-color="#9980d1"/><stop offset="0.06" stop-color="#a78edc"/><stop offset="0.16" stop-color="#b9a0ec"/><stop offset="0.28" stop-color="#c6adf7"/><stop offset="0.44" stop-color="#ceb5fd"/><stop offset="0.76" stop-color="#d0b7ff"/><stop offset="0.83" stop-color="#ddcdfa"/><stop offset="0.94" stop-color="#ece8f4"/><stop offset="1" stop-color="#f2f2f2"/></linearGradient><linearGradient id="linear-gradient-28" x1="180.7" y1="480.91" x2="236.59" y2="480.91" gradientUnits="userSpaceOnUse"><stop offset="0" stop-color="#d0b7ff"/><stop offset="0.2" stop-color="#bca3ee"/><stop offset="0.46" stop-color="#a990de"/><stop offset="0.73" stop-color="#9d84d4"/><stop offset="1" stop-color="#9980d1"/></linearGradient><linearGradient id="linear-gradient-29" x1="187.35" y1="368.4" x2="232.18" y2="368.4" xlink:href="#linear-gradient-28"/><linearGradient id="linear-gradient-30" x1="176.29" y1="816.45" x2="241.37" y2="816.45" xlink:href="#linear-gradient-28"/><linearGradient id="linear-gradient-31" x1="176.29" y1="683.34" x2="241.37" y2="683.34" gradientUnits="userSpaceOnUse"><stop offset="0" stop-color="#c7aef7"/><stop offset="0.47" stop-color="#c8abf8"/><stop offset="0.81" stop-color="#caa2fc"/><stop offset="1" stop-color="#c9f"/></linearGradient><linearGradient id="linear-gradient-32" x1="182.44" y1="955.01" x2="234" y2="955.01" xlink:href="#linear-gradient-31"/><linearGradient id="linear-gradient-33" x1="313" y1="283" x2="836" y2="283" xlink:href="#linear-gradient-28"/><linearGradient id="linear-gradient-34" x1="312" y1="341.5" x2="835" y2="341.5" xlink:href="#linear-gradient-28"/></defs><rect class="cls-1" x="201.94" y="128.74" width="609.54" height="846.26"/><rect class="cls-2" x="216.73" y="140.58" width="578.47" height="821.11"/><rect class="cls-3" x="201.94" y="128.74" width="609.54" height="846.26"/><rect class="cls-4" x="268.52" y="74" width="609.54" height="846.26"/><rect class="cls-2" x="283.31" y="85.84" width="578.47" height="821.11"/><text class="cls-5" transform="translate(317.85 191.03) scale(1.23 1)">A<tspan class="cls-6" x="56.81" y="0">R</tspan><tspan class="cls-7" x="116.82" y="0">TICLES</tspan></text><rect class="cls-8" x="301" y="211" width="12" height="12"/><rect class="cls-8" x="563.5" y="210.5" width="12" height="12"/><rect class="cls-8" x="831.5" y="210.5" width="12" height="12"/><rect class="cls-9" x="301" y="245" width="546" height="132"/><rect class="cls-10" x="303" y="394" width="188" height="212"/><rect class="cls-11" x="301" y="203" width="546" height="3"/><rect class="cls-12" x="301" y="228" width="546" height="3"/><rect class="cls-13" x="301" y="623" width="546" height="3"/><path class="cls-2" d="M415.24,553l-38.05.08a5.28,5.28,0,1,0,0,10.55l38.06-.08a5.28,5.28,0,1,0,0-10.55Z"/><path class="cls-2" d="M414.44,565.72l-38.06.09a5.28,5.28,0,0,0,0,10.55l38.06-.08a5.28,5.28,0,0,0,0-10.56Z"/><path class="cls-2" d="M386.6,590.32l19.4,0a10.55,10.55,0,0,0,10.53-10.57l-40.51.08A10.55,10.55,0,0,0,386.6,590.32Z"/><path class="cls-2" d="M395.9,407.17a60.75,60.75,0,0,0-24,116.48l0,18.56a6.78,6.78,0,0,0,6.79,6.76l35.05-.07a6.79,6.79,0,0,0,6.77-6.79l0-18.57A60.75,60.75,0,0,0,395.9,407.17Zm18.15,111.18,0,16.44c0,3.32-2.2,6-4.94,6l-25.63.05c-2.73,0-5-2.67-5-6l0-16.44c-15.7-8.28-35.09-28.33-35.13-50.39-.07-29.72,28.14-52.72,52.67-52.77s52.57,22.82,52.64,52.54C448.74,489.87,429.71,510,414.05,518.35Z"/><rect class="cls-10" x="654" y="649" width="188" height="233"/><path class="cls-14" d="M747.18,821l-4.71-.07a34.8,34.8,0,0,0-8.77-19.67l3.34-3.72a2.63,2.63,0,0,0-.2-3.71l-4.9-4.4a2.63,2.63,0,0,0-3.71.2l-3.84,4.28a34.85,34.85,0,0,0-10.73-3.71v-5.57A2.63,2.63,0,0,0,711,782h-6.58a2.62,2.62,0,0,0-2.63,2.63v5.57a34.83,34.83,0,0,0-15,6.41L683,793.08a2.64,2.64,0,0,0-3.72.14l-4.46,4.84a2.64,2.64,0,0,0,.14,3.72l3.71,3.42A34.7,34.7,0,0,0,673.12,820l-5.93-.08a2.63,2.63,0,0,0-2.67,2.59l-.09,6.58a2.63,2.63,0,0,0,2.59,2.67l6.53.09A34.5,34.5,0,0,0,679,844.48l-4.21,4.68a2.63,2.63,0,0,0,.2,3.72l4.89,4.4a2.64,2.64,0,0,0,3.72-.2l3.7-4.13a34.67,34.67,0,0,0,14.53,6.11v5.58a2.63,2.63,0,0,0,2.63,2.63H711a2.63,2.63,0,0,0,2.63-2.63v-5.58a34.7,34.7,0,0,0,15.75-7l4.37,4a2.64,2.64,0,0,0,3.72-.14l4.46-4.84a2.63,2.63,0,0,0-.15-3.72l-4.49-4.14a34.79,34.79,0,0,0,4.39-10.43l5.31.07a2.64,2.64,0,0,0,2.67-2.59l.09-6.58A2.63,2.63,0,0,0,747.18,821Zm-39.44,26.72a23.09,23.09,0,1,1,23.09-23.09A23.1,23.1,0,0,1,707.74,847.73Z"/><path class="cls-15" d="M826,750.3l-7.29-.1a55,55,0,0,0-13.56-30.92l5.16-5.85a4.17,4.17,0,0,0-.31-5.83l-7.57-6.92a4,4,0,0,0-5.75.32l-5.94,6.72a52.92,52.92,0,0,0-16.59-5.82v-8.77a4.11,4.11,0,0,0-4.07-4.13H759.89a4.1,4.1,0,0,0-4.07,4.13v8.77A53.26,53.26,0,0,0,732.71,712l-5.93-5.56a4,4,0,0,0-5.75.23l-6.91,7.6a4.18,4.18,0,0,0,.23,5.84l5.73,5.38a55.15,55.15,0,0,0-8.64,23.23l-9.17-.13a4.1,4.1,0,0,0-4.13,4.08L698,763a4.1,4.1,0,0,0,4,4.19l10.09.14a55.19,55.19,0,0,0,8.41,19.88L714,794.55a4.17,4.17,0,0,0,.31,5.83l7.57,6.91a4,4,0,0,0,5.75-.31l5.72-6.48a53.27,53.27,0,0,0,22.47,9.6v8.77a4.1,4.1,0,0,0,4.07,4.13h10.18a4.11,4.11,0,0,0,4.07-4.13V810.1A53.35,53.35,0,0,0,798.5,799l6.75,6.33a4,4,0,0,0,5.75-.23l6.91-7.6a4.18,4.18,0,0,0-.23-5.84l-6.95-6.52a55,55,0,0,0,6.79-16.39l8.21.12a4.11,4.11,0,0,0,4.13-4.08l.14-10.34A4.11,4.11,0,0,0,826,750.3Zm-61,42c-19.73,0-35.72-16.25-35.72-36.29s16-36.29,35.72-36.29S800.69,736,800.69,756,784.7,792.29,765,792.29Z"/><path class="cls-14" d="M742.27,683.53l-3.3,0a24.46,24.46,0,0,0-6.15-13.8l2.34-2.61a1.85,1.85,0,0,0-.14-2.61l-3.44-3.08a1.84,1.84,0,0,0-2.6.14l-2.7,3a24.2,24.2,0,0,0-7.53-2.6V658a1.84,1.84,0,0,0-1.84-1.85h-4.62a1.84,1.84,0,0,0-1.84,1.85v3.91A24.38,24.38,0,0,0,700,666.42l-2.69-2.48a1.84,1.84,0,0,0-2.6.1l-3.14,3.39a1.85,1.85,0,0,0,.11,2.61l2.6,2.4a24.29,24.29,0,0,0-3.92,10.37l-4.16-.06a1.84,1.84,0,0,0-1.87,1.82l-.07,4.62a1.85,1.85,0,0,0,1.82,1.87l4.58.06a24.19,24.19,0,0,0,3.81,8.87l-2.95,3.29a1.85,1.85,0,0,0,.14,2.61l3.43,3.08a1.85,1.85,0,0,0,2.61-.14l2.6-2.89a24.38,24.38,0,0,0,10.19,4.29v3.91a1.84,1.84,0,0,0,1.84,1.84h4.62a1.84,1.84,0,0,0,1.84-1.84v-3.91a24.53,24.53,0,0,0,11.06-4.94l3.06,2.83a1.85,1.85,0,0,0,2.61-.11l3.13-3.39a1.86,1.86,0,0,0-.1-2.61l-3.16-2.91a24.3,24.3,0,0,0,3.08-7.31l3.73.05A1.85,1.85,0,0,0,744,690l.06-4.62A1.84,1.84,0,0,0,742.27,683.53ZM714.6,702.28a16.2,16.2,0,1,1,16.2-16.2A16.2,16.2,0,0,1,714.6,702.28Z"/><g class="cls-16"><rect class="cls-17" x="509" y="394" width="331.3" height="7.07"/><rect class="cls-18" x="509" y="416.97" width="331.3" height="7.07"/><rect class="cls-19" x="510.71" y="439.93" width="331.3" height="7.07" transform="translate(1352.71 886.93) rotate(-180)"/><rect class="cls-20" x="510.71" y="462.9" width="331.3" height="7.07" transform="translate(1352.71 932.87) rotate(-180)"/><rect class="cls-21" x="509" y="485.87" width="331.3" height="7.07"/><rect class="cls-22" x="509" y="508.83" width="331.3" height="7.07"/><rect class="cls-23" x="509" y="530.03" width="331.3" height="7.07" transform="translate(1349.3 1067.13) rotate(-180)"/><rect class="cls-24" x="509" y="553" width="331.3" height="7.07" transform="translate(1349.3 1113.07) rotate(-180)"/><rect class="cls-25" x="509" y="575.97" width="331.3" height="7.07"/><rect class="cls-26" x="509" y="598.93" width="331.3" height="7.07"/></g><g class="cls-27"><rect class="cls-28" x="303.48" y="647.61" width="331.3" height="7.07"/><rect class="cls-29" x="303.48" y="670.58" width="331.3" height="7.07"/><rect class="cls-30" x="305.19" y="693.54" width="331.3" height="7.07" transform="translate(941.67 1394.15) rotate(-180)"/><rect class="cls-31" x="305.19" y="716.51" width="331.3" height="7.07" transform="translate(941.67 1440.08) rotate(-180)"/><rect class="cls-32" x="303.48" y="739.48" width="331.3" height="7.07"/><rect class="cls-33" x="303.48" y="762.44" width="331.3" height="7.07"/><rect class="cls-34" x="303.48" y="783.64" width="331.3" height="7.07" transform="translate(938.26 1574.35) rotate(-180)"/><rect class="cls-35" x="303.48" y="806.61" width="331.3" height="7.07" transform="translate(938.26 1620.28) rotate(-180)"/><rect class="cls-36" x="303.48" y="829.58" width="331.3" height="7.07"/><rect class="cls-37" x="303.48" y="852.54" width="331.3" height="7.07"/><rect class="cls-38" x="303.33" y="876.08" width="331.3" height="7.07"/></g><polygon class="cls-39" points="194.61 303.39 189.43 254.4 210.94 202 230.14 255.46 222.81 303.39 209.01 296.87 194.61 303.39"/><rect class="cls-2" x="207.86" y="226.89" width="5.72" height="65.76"/><path class="cls-40" d="M180.7,667.33s33.83-7.36,55.89,0L229.24,298.9l-20.6-4.41-16.91,5.88Z"/><polygon class="cls-41" points="187.35 446.18 232.18 446.18 229.24 298.9 210.44 290.61 191.73 300.37 187.35 446.18"/><path class="cls-2" d="M186.87,443.68s31.44-3.31,45.78,0l-2.21,2.48H189.35Z"/><path class="cls-2" d="M187.13,448.48h45.59s3.49-2.39,0-4.6H187.13S182.9,446.46,187.13,448.48Z"/><path class="cls-2" d="M186.78,439H234s5.74-1,0-3.15-46.41-.48-46.41-.48S179.36,438.41,186.78,439Z"/><path class="cls-2" d="M187.91,431.12h45s5.46-.87,0-2.75-44.18-.42-44.18-.42S180.84,430.63,187.91,431.12Z"/><path class="cls-2" d="M187.91,423.82h45s5.46-.81,0-2.55-44.18-.39-44.18-.39S180.84,423.37,187.91,423.82Z"/><path class="cls-2" d="M191.15,323.17h38.42s4.67-.78,0-2.45-37.74-.37-37.74-.37S185.11,322.73,191.15,323.17Z"/><path class="cls-2" d="M191.15,315.45h38.42s4.67-.78,0-2.45-37.74-.37-37.74-.37S185.11,315,191.15,315.45Z"/><path class="cls-2" d="M190.77,307.72H229.2s4.66-.77,0-2.44-37.74-.37-37.74-.37S184.73,307.29,190.77,307.72Z"/><path class="cls-42" d="M176.29,705.38s15.64-36,65.08-3.12L233.3,935.93s-27.75,19.3-50.45,0Z"/><path class="cls-43" d="M176.29,704.47l1.71-36s27.75-14,63.37,0V703S210.88,685.35,176.29,704.47Z"/><path class="cls-2" d="M197.1,923.61l11.67,6.07,11.66-6.07V873.42s-5.72-29.23-5.72-39.71-1.42-88.25-1.42-88.25l4.76-3.31L211.86,708H207.1L199,743.26l5.23,2.2-1,90.45s-4.28,37-6.19,39.16S197.1,923.61,197.1,923.61Z"/><path class="cls-44" d="M182.44,934s23.74,17.65,51.56,0l-2.38,33.09s-21.71,20.23-47.49,0Z"/><rect class="cls-45" x="313" y="258" width="523" height="50"/><rect class="cls-46" x="312" y="316" width="523" height="51"/></svg>