<svg id="Layer_1" data-name="Layer 1" xmlns="http://www.w3.org/2000/svg" xmlns:xlink="http://www.w3.org/1999/xlink" viewBox="0 0 1080 1080"><defs><style>.cls-1{fill:url(#linear-gradient);}.cls-2{fill:url(#linear-gradient-2);}.cls-3{fill:#efdfff;}.cls-4{fill:url(#linear-gradient-3);}.cls-5{fill:url(#linear-gradient-4);}.cls-6{fill:url(#linear-gradient-5);}.cls-7{fill:url(#linear-gradient-6);}.cls-8{fill:#ffecff;}.cls-9{fill:#d7b7ff;}.cls-10,.cls-24,.cls-26,.cls-27{fill:#fff;}.cls-11{opacity:0.59;}.cls-12{fill:url(#linear-gradient-7);}.cls-13{fill:url(#linear-gradient-8);}.cls-14{fill:url(#linear-gradient-9);}.cls-15{fill:url(#linear-gradient-10);}.cls-16{fill:url(#linear-gradient-11);}.cls-17{fill:url(#linear-gradient-12);}.cls-18{fill:url(#linear-gradient-13);}.cls-19{fill:url(#linear-gradient-14);}.cls-20{fill:url(#linear-gradient-15);}.cls-21{fill:url(#linear-gradient-16);}.cls-22{opacity:0.73;font-size:103.88px;fill:#9c7cff;font-family:ArialNarrow, Arial Narrow;letter-spacing:-0.04em;}.cls-23{letter-spacing:0em;}.cls-24,.cls-26{font-size:59.71px;}.cls-24,.cls-26,.cls-27{font-family:Raleway-Regular, Raleway;}.cls-25,.cls-28{fill:none;}.cls-25{stroke:#f2f2f2;stroke-width:2px;}.cls-25,.cls-27,.cls-28{stroke-miterlimit:10;}.cls-26{letter-spacing:-0.03em;}.cls-27{font-size:97.24px;stroke-width:0.5px;}.cls-27,.cls-28{stroke:#fff;}.cls-28{stroke-width:0.75px;}</style><linearGradient id="linear-gradient" x1="442.62" y1="792.19" x2="623.77" y2="792.19" gradientUnits="userSpaceOnUse"><stop offset="0" stop-color="#d0b7ff"/><stop offset="1" stop-color="#9980d1"/></linearGradient><linearGradient id="linear-gradient-2" x1="908.95" y1="507.01" x2="180.76" y2="507.01" gradientUnits="userSpaceOnUse"><stop offset="0" stop-color="#c7aef7"/><stop offset="0.49" stop-color="#c9a6fa"/><stop offset="1" stop-color="#c9f"/></linearGradient><linearGradient id="linear-gradient-3" x1="602.25" y1="798.46" x2="465.94" y2="798.46" xlink:href="#linear-gradient-2"/><linearGradient id="linear-gradient-4" x1="180.76" y1="740.17" x2="908.95" y2="740.17" xlink:href="#linear-gradient"/><linearGradient id="linear-gradient-5" x1="657.85" y1="855.86" x2="424.69" y2="855.86" xlink:href="#linear-gradient-2"/><linearGradient id="linear-gradient-6" x1="424.69" y1="840.61" x2="657.85" y2="840.61" xlink:href="#linear-gradient"/><linearGradient id="linear-gradient-7" x1="387.02" y1="368.01" x2="734.98" y2="368.01" xlink:href="#linear-gradient"/><linearGradient id="linear-gradient-8" x1="387.02" y1="391.32" x2="734.98" y2="391.32" xlink:href="#linear-gradient"/><linearGradient id="linear-gradient-9" x1="266.23" y1="414.64" x2="614.18" y2="414.64" gradientTransform="matrix(1, 0, 0, -1, 122.59, 829.28)" xlink:href="#linear-gradient"/><linearGradient id="linear-gradient-10" x1="266.23" y1="437.96" x2="614.18" y2="437.96" gradientTransform="matrix(1, 0, 0, -1, 122.59, 875.91)" xlink:href="#linear-gradient"/><linearGradient id="linear-gradient-11" x1="387.02" y1="461.27" x2="734.98" y2="461.27" xlink:href="#linear-gradient"/><linearGradient id="linear-gradient-12" x1="387.02" y1="484.59" x2="734.98" y2="484.59" xlink:href="#linear-gradient"/><linearGradient id="linear-gradient-13" x1="268.02" y1="506.11" x2="615.98" y2="506.11" gradientTransform="matrix(1, 0, 0, -1, 119, 1012.23)" xlink:href="#linear-gradient"/><linearGradient id="linear-gradient-14" x1="268.02" y1="529.43" x2="615.98" y2="529.43" gradientTransform="matrix(1, 0, 0, -1, 119, 1058.86)" xlink:href="#linear-gradient"/><linearGradient id="linear-gradient-15" x1="387.02" y1="552.75" x2="734.98" y2="552.75" xlink:href="#linear-gradient"/><linearGradient id="linear-gradient-16" x1="387.02" y1="576.06" x2="734.98" y2="576.06" xlink:href="#linear-gradient"/></defs><rect class="cls-1" x="442.62" y="741.07" width="181.15" height="102.23"/><rect class="cls-2" x="180.76" y="256.81" width="728.19" height="500.4" rx="16.75"/><rect class="cls-3" x="209.33" y="285.5" width="672.71" height="414.31"/><rect class="cls-4" x="465.94" y="757.21" width="136.31" height="82.5"/><path class="cls-5" d="M180.76,714.17H909a0,0,0,0,1,0,0v26.36a25.66,25.66,0,0,1-25.66,25.66H203.07a22.31,22.31,0,0,1-22.31-22.31V714.17A0,0,0,0,1,180.76,714.17Z"/><rect class="cls-6" x="424.69" y="839.72" width="233.16" height="32.28"/><rect class="cls-7" x="424.69" y="832.54" width="233.16" height="16.14"/><polygon class="cls-8" points="209.33 371.16 802.15 699.82 882.05 699.82 882.05 621.65 288.77 285.5 209.46 285.5 209.33 371.16"/><polygon class="cls-8" points="465.94 285.5 882.05 492.66 882.05 285.5 465.94 285.5"/><polygon class="cls-8" points="623.77 699.82 209.33 476.74 209.33 507.01 574.44 699.82 623.77 699.82"/><path class="cls-9" d="M344.46,202h22.95a0,0,0,0,1,0,0v55.16a0,0,0,0,1,0,0H322.46a0,0,0,0,1,0,0V224A22,22,0,0,1,344.46,202Z"/><rect class="cls-9" x="365.41" y="202" width="390.23" height="469.91"/><rect class="cls-10" x="375.62" y="212.22" width="369.8" height="445.4"/><path class="cls-9" d="M387.88,604.49H823.06a0,0,0,0,1,0,0v43.84a23.58,23.58,0,0,1-23.58,23.58H387.88a0,0,0,0,1,0,0V604.49A0,0,0,0,1,387.88,604.49Z"/><g class="cls-11"><rect class="cls-12" x="387.02" y="364.42" width="347.95" height="7.17"/><rect class="cls-13" x="387.02" y="387.74" width="347.95" height="7.17"/><rect class="cls-14" x="388.82" y="411.05" width="347.95" height="7.17" transform="translate(1125.59 829.28) rotate(-180)"/><rect class="cls-15" x="388.82" y="434.37" width="347.95" height="7.17" transform="translate(1125.59 875.91) rotate(-180)"/><rect class="cls-16" x="387.02" y="457.69" width="347.95" height="7.17"/><rect class="cls-17" x="387.02" y="481" width="347.95" height="7.17"/><rect class="cls-18" x="387.02" y="502.53" width="347.95" height="7.17" transform="translate(1122 1012.23) rotate(-180)"/><rect class="cls-19" x="387.02" y="525.84" width="347.95" height="7.17" transform="translate(1122 1058.86) rotate(-180)"/><rect class="cls-20" x="387.02" y="549.16" width="347.95" height="7.17"/><rect class="cls-21" x="387.02" y="572.47" width="347.95" height="7.17"/></g><text class="cls-22" transform="translate(412.77 333.41) scale(1.23 1)">F<tspan class="cls-23" x="47.38" y="0">AQ’S</tspan></text><path class="cls-9" d="M309.85,319.58H136a32.34,32.34,0,0,0-32.34,32.34V382.3a32.33,32.33,0,0,0,23.32,31V438l35-23.32H309.85a32.33,32.33,0,0,0,32.33-32.34V351.92A32.33,32.33,0,0,0,309.85,319.58Z"/><path class="cls-9" d="M812.15,470.24H986a32.34,32.34,0,0,1,32.34,32.34V533A32.33,32.33,0,0,1,995,564v24.62l-35-23.32H812.15A32.33,32.33,0,0,1,779.82,533V502.58A32.33,32.33,0,0,1,812.15,470.24Z"/><text class="cls-24" transform="translate(124.24 389.16) scale(1.11 1)">Q</text><circle class="cls-25" cx="205.87" cy="366.21" r="8.97"/><circle class="cls-25" cx="249.82" cy="365.32" r="8.97"/><circle class="cls-25" cx="296.45" cy="365.32" r="8.97"/><text class="cls-26" transform="translate(806.34 538.29) scale(1.11 1)">A</text><circle class="cls-25" cx="880.8" cy="515.34" r="8.97"/><circle class="cls-25" cx="924.74" cy="514.45" r="8.97"/><circle class="cls-25" cx="971.37" cy="514.45" r="8.97"/><path class="cls-10" d="M272.86,536.78a58.4,58.4,0,1,0,33.89,75.32A58.39,58.39,0,0,0,272.86,536.78ZM234.79,637.12a48.92,48.92,0,1,1,63.1-28.38A48.92,48.92,0,0,1,234.79,637.12Z"/><path class="cls-10" d="M207.41,635.73a58.41,58.41,0,0,1-4.73-5.13l-8.1,8.41,11.29,10.88,8.26-8.58A57.63,57.63,0,0,1,207.41,635.73Z"/><path class="cls-10" d="M156.32,634.82H178.4a0,0,0,0,1,0,0v80.32a6.16,6.16,0,0,1-6.16,6.16h-9.77a6.16,6.16,0,0,1-6.16-6.16V634.82A0,0,0,0,1,156.32,634.82Z" transform="translate(517.41 73.71) rotate(43.94)"/><text class="cls-27" transform="translate(229.19 627.91) scale(1.12 1)">?</text><rect class="cls-28" x="790" y="477" width="218" height="79" rx="22.92"/><rect class="cls-28" x="113.5" y="328.5" width="218" height="79" rx="22.92"/><rect class="cls-10" x="181" y="714" width="728" height="7"/><rect class="cls-10" x="443" y="828" width="181" height="5"/></svg>