<?xml version="1.0" encoding="UTF-8"?>
<svg enable-background="new 0 0 500 500" version="1.1" viewBox="0 0 500 500" xml:space="preserve" xmlns="http://www.w3.org/2000/svg">
<style type="text/css">
	.st0{opacity:0.5;}
	.st1{fill:url(#i);}
	.st2{fill:url(#h);}
	.st3{fill:#E9DDFD;}
	.st4{fill:url(#g);}
	.st5{fill:url(#f);}
	.st6{fill:url(#e);}
	.st7{fill:url(#d);}
	.st8{fill:#F9EAFD;}
	.st9{fill:#CCB5FB;}
	.st10{fill:#FFFFFF;}
	.st11{opacity:0.59;}
	.st12{opacity:0.59;fill:url(#c);enable-background:new    ;}
	.st13{opacity:0.59;fill:url(#b);enable-background:new    ;}
	.st14{opacity:0.59;fill:url(#a);enable-background:new    ;}
	.st15{opacity:0.59;fill:url(#q);enable-background:new    ;}
	.st16{opacity:0.59;fill:url(#p);enable-background:new    ;}
	.st17{opacity:0.59;fill:url(#o);enable-background:new    ;}
	.st18{opacity:0.59;fill:url(#n);enable-background:new    ;}
	.st19{opacity:0.59;fill:url(#m);enable-background:new    ;}
	.st20{opacity:0.59;fill:url(#l);enable-background:new    ;}
	.st21{opacity:0.59;fill:url(#k);enable-background:new    ;}
	.st22{fill:none;stroke:#F1F1F1;stroke-width:2;stroke-miterlimit:10;}
	.st23{fill:none;stroke:#FFFFFF;stroke-width:0.75;stroke-miterlimit:10;}
	.st24{fill:url(#j);}
</style>
	<g class="st0">
			<linearGradient id="i" x1="149.28" x2="207.12" y1="162.86" y2="162.86" gradientTransform="matrix(1 0 0 -1 8.4104e-6 500.11)" gradientUnits="userSpaceOnUse">
			<stop stop-color="#C7B5FB" offset="0"/>
			<stop stop-color="#907FCC" offset="1"/>
		</linearGradient>
		<path class="st1" d="m207.1 320.9h-57.8v32.6h57.8v-32.6z"/>
			<linearGradient id="h" x1="298.18" x2="65.666" y1="253.92" y2="253.92" gradientTransform="matrix(1 0 0 -1 8.4104e-6 500.11)" gradientUnits="userSpaceOnUse">
			<stop stop-color="#BEABF3" offset="0"/>
			<stop stop-color="#BDA3F6" offset=".49"/>
			<stop stop-color="#BD97FB" offset="1"/>
		</linearGradient>
		<path class="st2" d="m292.8 166.3h-221.8c-3 0-5.3 2.4-5.3 5.3v149.1c0 3 2.4 5.3 5.3 5.3h221.8c3 0 5.3-2.4 5.3-5.3v-149.1c0.1-2.9-2.3-5.3-5.3-5.3z"/>
		<path class="st3" d="M289.6,175.5H74.8v132.3h214.8V175.5z"/>
			<linearGradient id="g" x1="26369" x2="20436" y1="160.86" y2="160.86" gradientTransform="matrix(1 0 0 -1 8.4104e-6 500.11)" gradientUnits="userSpaceOnUse">
			<stop stop-color="#BEABF3" offset="0"/>
			<stop stop-color="#BDA3F6" offset=".49"/>
			<stop stop-color="#BD97FB" offset="1"/>
		</linearGradient>
		<path class="st4" d="m200.2 326.1h-43.5v26.3h43.5v-26.3z"/>
			<linearGradient id="f" x1="42098" x2="211423" y1="179.47" y2="179.47" gradientTransform="matrix(1 0 0 -1 8.4104e-6 500.11)" gradientUnits="userSpaceOnUse">
			<stop stop-color="#C7B5FB" offset="0"/>
			<stop stop-color="#907FCC" offset="1"/>
		</linearGradient>
		<path class="st5" d="m65.7 312.3h232.5v8.4c0 2.2-0.9 4.3-2.4 5.8s-3.6 2.4-5.8 2.4h-217.2c-1.9 0-3.7-0.8-5-2.1s-2.1-3.1-2.1-5v-9.5z"/>
			<linearGradient id="e" x1="49120" x2="31761" y1="142.53" y2="142.53" gradientTransform="matrix(1 0 0 -1 8.4104e-6 500.11)" gradientUnits="userSpaceOnUse">
			<stop stop-color="#BEABF3" offset="0"/>
			<stop stop-color="#BDA3F6" offset=".49"/>
			<stop stop-color="#BD97FB" offset="1"/>
		</linearGradient>
		<path class="st6" d="M218,352.4h-74.4v10.3H218V352.4z"/>
			<linearGradient id="d" x1="31761" x2="49120" y1="147.4" y2="147.4" gradientTransform="matrix(1 0 0 -1 8.4104e-6 500.11)" gradientUnits="userSpaceOnUse">
			<stop stop-color="#C7B5FB" offset="0"/>
			<stop stop-color="#907FCC" offset="1"/>
		</linearGradient>
		<path class="st7" d="m218 350.1h-74.4v5.2h74.4v-5.2z"/>
		<path class="st8" d="m74.8 202.8 189.3 104.9h25.5v-25l-189.4-107.2h-25.4v27.3z"/>
		<path class="st8" d="M156.7,175.5l132.9,66.1v-66.1H156.7z"/>
		<path class="st8" d="m207.1 307.8-132.3-71.3v9.7l116.6 61.6h15.7z"/>
		<path class="st9" d="m117.9 148.8h7.3v17.6h-14.4v-10.6c0-1.9 0.7-3.6 2.1-5 1.4-1.3 3.2-2 5-2z"/>
		<path class="st9" d="m249.2 148.8h-124.6v150h124.6v-150z"/>
		<path class="st10" d="M246,152.1H127.9v142.2H246V152.1z"/>
		<path class="st9" d="m131.8 277.3h139v14c0 1-0.2 2-0.6 2.9s-0.9 1.7-1.6 2.4-1.5 1.3-2.4 1.6c-0.9 0.4-1.9 0.6-2.9 0.6h-131.5v-21.5z"/>
		<g class="st11">
				<linearGradient id="c" x1="43130" x2="81789" y1="298.3" y2="298.3" gradientTransform="matrix(1 0 0 -1 8.4104e-6 500.11)" gradientUnits="userSpaceOnUse">
				<stop stop-color="#C7B5FB" offset="0"/>
				<stop stop-color="#907FCC" offset="1"/>
			</linearGradient>
			<path class="st12" d="m242.6 200.7h-111.1v2.3h111.1v-2.3z"/>
				<linearGradient id="b" x1="43130" x2="81789" y1="290.86" y2="290.86" gradientTransform="matrix(1 0 0 -1 8.4104e-6 500.11)" gradientUnits="userSpaceOnUse">
				<stop stop-color="#C7B5FB" offset="0"/>
				<stop stop-color="#907FCC" offset="1"/>
			</linearGradient>
			<path class="st13" d="m242.6 208.1h-111.1v2.3h111.1v-2.3z"/>
				<linearGradient id="a" x1="-29374" x2="-68032" y1="283.41" y2="283.41" gradientTransform="matrix(1 0 0 -1 8.4104e-6 500.11)" gradientUnits="userSpaceOnUse">
				<stop stop-color="#C7B5FB" offset="0"/>
				<stop stop-color="#907FCC" offset="1"/>
			</linearGradient>
			<path class="st14" d="m132.1 217.8h111.1v-2.3h-111.1v2.3z"/>
				<linearGradient id="q" x1="-29374" x2="-68032" y1="275.97" y2="275.97" gradientTransform="matrix(1 0 0 -1 8.4104e-6 500.11)" gradientUnits="userSpaceOnUse">
				<stop stop-color="#C7B5FB" offset="0"/>
				<stop stop-color="#907FCC" offset="1"/>
			</linearGradient>
			<path class="st15" d="m132.1 225.3h111.1v-2.3h-111.1v2.3z"/>
				<linearGradient id="p" x1="43130" x2="81789" y1="268.52" y2="268.52" gradientTransform="matrix(1 0 0 -1 8.4104e-6 500.11)" gradientUnits="userSpaceOnUse">
				<stop stop-color="#C7B5FB" offset="0"/>
				<stop stop-color="#907FCC" offset="1"/>
			</linearGradient>
			<path class="st16" d="m242.6 230.4h-111.1v2.3h111.1v-2.3z"/>
				<linearGradient id="o" x1="43130" x2="81789" y1="261.08" y2="261.08" gradientTransform="matrix(1 0 0 -1 8.4104e-6 500.11)" gradientUnits="userSpaceOnUse">
				<stop stop-color="#C7B5FB" offset="0"/>
				<stop stop-color="#907FCC" offset="1"/>
			</linearGradient>
			<path class="st17" d="m242.6 237.9h-111.1v2.3h111.1v-2.3z"/>
				<linearGradient id="n" x1="-29573" x2="-68232" y1="254.2" y2="254.2" gradientTransform="matrix(1 0 0 -1 8.4104e-6 500.11)" gradientUnits="userSpaceOnUse">
				<stop stop-color="#C7B5FB" offset="0"/>
				<stop stop-color="#907FCC" offset="1"/>
			</linearGradient>
			<path class="st18" d="m131.5 247.1h111.1v-2.3h-111.1v2.3z"/>
				<linearGradient id="m" x1="-29573" x2="-68232" y1="246.76" y2="246.76" gradientTransform="matrix(1 0 0 -1 8.4104e-6 500.11)" gradientUnits="userSpaceOnUse">
				<stop stop-color="#C7B5FB" offset="0"/>
				<stop stop-color="#907FCC" offset="1"/>
			</linearGradient>
			<path class="st19" d="m131.5 254.5h111.1v-2.3h-111.1v2.3z"/>
				<linearGradient id="l" x1="43130" x2="81789" y1="239.32" y2="239.32" gradientTransform="matrix(1 0 0 -1 8.4104e-6 500.11)" gradientUnits="userSpaceOnUse">
				<stop stop-color="#C7B5FB" offset="0"/>
				<stop stop-color="#907FCC" offset="1"/>
			</linearGradient>
			<path class="st20" d="m242.6 259.6h-111.1v2.3h111.1v-2.3z"/>
				<linearGradient id="k" x1="43130" x2="81789" y1="231.87" y2="231.87" gradientTransform="matrix(1 0 0 -1 8.4104e-6 500.11)" gradientUnits="userSpaceOnUse">
				<stop stop-color="#C7B5FB" offset="0"/>
				<stop stop-color="#907FCC" offset="1"/>
			</linearGradient>
			<path class="st21" d="m242.6 267.1h-111.1v2.3h111.1v-2.3z"/>
		</g>
		<path class="st9" d="m106.9 186.3h-55.5c-2.7 0-5.4 1.1-7.3 3s-3 4.6-3 7.3v9.7c0 2.2 0.7 4.4 2.1 6.2 1.3 1.8 3.2 3.1 5.4 3.7v7.9l11.2-7.4h47.2c1.4 0 2.7-0.3 4-0.8s2.4-1.3 3.3-2.2c1-1 1.7-2.1 2.2-3.3 0.5-1.3 0.8-2.6 0.8-4v-9.7c0-1.4-0.3-2.7-0.8-4s-1.3-2.4-2.2-3.4c-1-1-2.1-1.7-3.3-2.2s-2.8-0.8-4.1-0.8z"/>
		<path class="st9" d="m267.3 234.5h55.5c1.4 0 2.7 0.3 4 0.8s2.4 1.3 3.3 2.2c1 1 1.7 2.1 2.2 3.4s0.8 2.6 0.8 4v9.7c0 2.2-0.7 4.4-2.1 6.2-1.3 1.8-3.2 3.1-5.4 3.7v7.9l-11.2-7.4h-47.2c-2.7 0-5.4-1.1-7.3-3s-3-4.6-3-7.3v-9.7c0-1.4 0.3-2.7 0.8-4s1.3-2.4 2.2-3.3c1-1 2.1-1.7 3.3-2.2 1.4-0.8 2.7-1 4.1-1z"/>
		<path class="st10" d="m57.1 210.6c-1.3 0-2.4-0.3-3.4-0.8s-1.9-1.2-2.7-2.1c-0.7-0.9-1.3-1.8-1.7-2.9s-0.6-2.2-0.6-3.4 0.2-2.3 0.6-3.4 1-2.1 1.8-2.9c0.8-0.9 1.7-1.5 2.7-2s2.1-0.8 3.3-0.8c1.3 0 2.4 0.3 3.4 0.8s1.9 1.2 2.7 2.1 1.3 1.9 1.7 2.9c0.4 1.1 0.6 2.2 0.6 3.3 0 1.2-0.2 2.4-0.7 3.5-0.4 1.1-1 2.1-1.8 2.9l2.1 2.5h-1.7l-1.3-1.6c-0.7 0.5-1.5 1-2.3 1.3-0.9 0.5-1.8 0.6-2.7 0.6zm0-1.6c0.8 0 1.5-0.1 2.1-0.4 0.7-0.3 1.3-0.6 1.8-1l-2.3-2.7h1.7l1.5 1.7c0.6-0.7 1-1.5 1.3-2.4s0.5-1.8 0.5-2.8-0.2-1.9-0.5-2.8-0.8-1.7-1.4-2.4-1.3-1.3-2.1-1.7-1.7-0.6-2.7-0.6-1.9 0.2-2.8 0.7c-0.8 0.4-1.5 1-2.1 1.7s-1 1.5-1.3 2.4-0.5 1.8-0.5 2.7c0 1 0.2 1.9 0.5 2.8s0.8 1.7 1.4 2.4 1.3 1.3 2.1 1.7c0.9 0.5 1.8 0.7 2.8 0.7z"/>
		<path class="st22" d="m73.7 204.1c1.6 0 2.9-1.3 2.9-2.9s-1.3-2.9-2.9-2.9-2.9 1.3-2.9 2.9 1.3 2.9 2.9 2.9z"/>
		<path class="st22" d="m87.7 203.8c1.6 0 2.9-1.3 2.9-2.9s-1.3-2.9-2.9-2.9-2.9 1.3-2.9 2.9c0.1 1.6 1.3 2.9 2.9 2.9z"/>
		<path class="st22" d="m102.6 203.8c1.6 0 2.9-1.3 2.9-2.9s-1.3-2.9-2.9-2.9-2.9 1.3-2.9 2.9 1.3 2.9 2.9 2.9z"/>
		<path class="st10" d="m278.8 252.3h-7.6l-1.7 4.7h-2.5l6.9-18h2.1l6.9 18h-2.4l-1.7-4.7zm-6.9-2h6.1l-3.1-8.4-3 8.4z"/>
		<path class="st22" d="m289.2 251.7c1.6 0 2.9-1.3 2.9-2.9s-1.3-2.9-2.9-2.9-2.9 1.3-2.9 2.9 1.3 2.9 2.9 2.9z"/>
		<path class="st22" d="m303.2 251.4c1.6 0 2.9-1.3 2.9-2.9s-1.3-2.9-2.9-2.9-2.9 1.3-2.9 2.9c0.1 1.6 1.3 2.9 2.9 2.9z"/>
		<path class="st22" d="m318.1 251.4c1.6 0 2.9-1.3 2.9-2.9s-1.3-2.9-2.9-2.9-2.9 1.3-2.9 2.9 1.3 2.9 2.9 2.9z"/>
		<path class="st10" d="m95.1 255.7c-3.4-1.3-7.2-1.6-10.8-0.7-3.6 0.8-6.9 2.7-9.4 5.4s-4.2 6.1-4.8 9.7-0.1 7.4 1.4 10.7c1.5 3.4 4 6.2 7.1 8.2s6.8 2.9 10.4 2.8c3.7-0.1 7.3-1.3 10.3-3.5 3-2.1 5.3-5.1 6.6-8.6 0.9-2.3 1.3-4.7 1.2-7.2-0.1-2.4-0.6-4.9-1.6-7.1s-2.4-4.2-4.2-5.9c-1.8-1.6-3.9-2.9-6.2-3.8zm-12.2 32c-2.9-1.1-5.4-3-7.2-5.5s-2.8-5.5-2.9-8.6 0.7-6.1 2.4-8.8c1.6-2.6 4-4.7 6.8-6s5.9-1.7 9-1.2c3 0.5 5.9 1.9 8.1 4s3.8 4.9 4.5 7.9 0.5 6.2-0.6 9c-0.7 1.9-1.8 3.7-3.2 5.2s-3.1 2.7-5 3.5-3.9 1.3-5.9 1.4c-2 0.2-4.1-0.1-6-0.9z"/>
		<path class="st10" d="m74.2 287.3c-0.5-0.5-1-1.1-1.5-1.6l-2.6 2.7 3.6 3.5 2.6-2.7c-0.7-0.7-1.5-1.3-2.1-1.9z"/>
		<path class="st10" d="m68.4 288.4 5.1 4.9-17.8 18.5c-0.4 0.4-0.9 0.6-1.4 0.6s-1-0.2-1.4-0.6l-2.2-2.2c-0.4-0.4-0.6-0.9-0.6-1.4s0.2-1 0.6-1.4l17.7-18.4z"/>
		<path class="st10" d="m87 278.1c0-1.3 0.2-2.3 0.4-3.1 0.3-0.8 0.8-1.6 1.7-2.5l2.2-2.2c0.9-1 1.4-2.2 1.4-3.4s-0.3-2.1-0.9-2.7c-0.6-0.7-1.5-1-2.6-1s-2 0.3-2.7 0.9-1 1.4-1 2.4h-3.1c0-1.8 0.7-3.2 1.9-4.3 1.3-1.1 2.9-1.7 4.9-1.7 2.1 0 3.7 0.6 4.9 1.7s1.7 2.6 1.7 4.6c0 1.9-0.9 3.8-2.7 5.7l-1.8 1.8c-0.8 0.9-1.2 2.2-1.2 3.8h-3.1zm-0.1 5.3c0-0.5 0.1-0.9 0.4-1.2s0.8-0.5 1.4-0.5 1 0.2 1.4 0.5c0.3 0.3 0.5 0.7 0.5 1.2s-0.2 0.9-0.5 1.2-0.8 0.5-1.4 0.5-1-0.2-1.4-0.5c-0.3-0.3-0.4-0.7-0.4-1.2z"/>
		<path class="st10" d="m87 278.1h-0.1v0.1h0.1v-0.1zm2.2-5.6-0.1-0.1 0.1 0.1zm2.1-2.2 0.1 0.1-0.1-0.1zm0.5-6.1-0.1 0.1 0.1-0.1zm-6.4 2.3v0.1h0.1v-0.1h-0.1zm-3 0h-0.1v0.1h0.1v-0.1zm1.9-4.3 0.1 0.1-0.1-0.1zm9.7 0-0.1 0.1 0.1-0.1zm-0.9 10.3 0.1 0.1-0.1-0.1zm-1.8 1.8-0.1-0.1 0.1 0.1zm-1.2 3.8v0.1h0.1v-0.1h-0.1zm-2.8 4-0.1-0.1 0.1 0.1zm2.7 0-0.1 0.1 0.1-0.1zm0 2.5 0.1 0.1-0.1-0.1zm-2.7 0-0.1 0.1 0.1-0.1zm-0.1-6.5c0-1.3 0.2-2.3 0.4-3.1l-0.3-0.1c-0.3 0.8-0.4 1.8-0.5 3.1l0.4 0.1zm0.4-3c0.3-0.7 0.8-1.6 1.7-2.5l-0.2-0.2c-0.9 0.9-1.4 1.8-1.7 2.6l0.2 0.1zm1.6-2.5 2.2-2.2-0.2-0.2-2.2 2.2 0.2 0.2zm2.2-2.2c0.9-1.1 1.4-2.2 1.4-3.5h-0.3c0 1.2-0.4 2.3-1.4 3.3l0.3 0.2zm1.4-3.5c0-1.2-0.3-2.1-0.9-2.8l-0.2 0.2c0.6 0.6 0.9 1.5 0.9 2.6h0.2zm-0.9-2.8c-0.6-0.7-1.6-1-2.7-1v0.3c1.1 0 2 0.3 2.5 0.9l0.2-0.2zm-2.7-1c-1.1 0-2.1 0.3-2.8 0.9l0.2 0.2c0.7-0.6 1.5-0.9 2.6-0.9v-0.2zm-2.8 0.9c-0.7 0.6-1.1 1.5-1.1 2.5h0.3c0-1 0.3-1.7 1-2.3l-0.2-0.2zm-1 2.4h-3.1v0.3h3.1v-0.3zm-2.9 0.1c0-1.7 0.6-3.1 1.9-4.2l-0.2-0.2c-1.3 1.1-1.9 2.6-1.9 4.4h0.2zm1.9-4.2c1.2-1.1 2.8-1.6 4.8-1.6v-0.3c-2 0-3.7 0.6-5 1.7l0.2 0.2zm4.8-1.6c2.1 0 3.6 0.6 4.8 1.6l0.2-0.2c-1.2-1.2-2.8-1.7-4.9-1.7v0.3zm4.7 1.6c1.1 1.1 1.7 2.6 1.7 4.5h0.3c0-2-0.6-3.5-1.8-4.7l-0.2 0.2zm1.7 4.5c0 1.9-0.9 3.7-2.6 5.6l0.2 0.2c1.8-1.9 2.7-3.8 2.7-5.8h-0.3zm-2.6 5.6-1.8 1.8 0.2 0.2 1.8-1.8-0.2-0.2zm-1.8 1.8c-0.8 0.9-1.2 2.2-1.2 3.9h0.3c0-1.7 0.4-2.9 1.2-3.8l-0.3-0.1zm-1.1 3.8h-3.1v0.3h3.1v-0.3zm-3.1 5.4c0-0.5 0.1-0.8 0.4-1.1l-0.2-0.2c-0.3 0.4-0.5 0.8-0.5 1.3h0.3zm0.4-1.2c0.3-0.3 0.7-0.5 1.3-0.5v-0.3c-0.6 0-1.1 0.2-1.5 0.6l0.2 0.2zm1.3-0.4c0.6 0 1 0.2 1.2 0.5l0.2-0.2c-0.3-0.4-0.8-0.6-1.5-0.6v0.3zm1.2 0.4c0.3 0.3 0.4 0.7 0.4 1.1h0.3c0-0.5-0.2-1-0.5-1.3l-0.2 0.2zm0.5 1.2c0 0.5-0.1 0.8-0.4 1.1l0.2 0.2c0.3-0.4 0.5-0.8 0.5-1.3h-0.3zm-0.5 1.1c-0.3 0.3-0.7 0.4-1.3 0.4v0.3c0.6 0 1.1-0.2 1.5-0.5l-0.2-0.2zm-1.2 0.4c-0.6 0-1-0.2-1.3-0.4l-0.2 0.2c0.3 0.4 0.8 0.5 1.5 0.5v-0.3zm-1.3-0.4c-0.3-0.3-0.4-0.7-0.4-1.1h-0.3c0 0.5 0.2 1 0.5 1.3l0.2-0.2z"/>
		<path class="st23" d="m322.5 236.6h-55c-4 0-7.3 3.3-7.3 7.3v10.6c0 4 3.3 7.3 7.3 7.3h55c4 0 7.3-3.3 7.3-7.3v-10.6c0-4-3.3-7.3-7.3-7.3z"/>
		<path class="st23" d="m106.5 189.2h-55c-4 0-7.3 3.3-7.3 7.3v10.6c0 4 3.3 7.3 7.3 7.3h55c4 0 7.3-3.3 7.3-7.3v-10.6c0-4-3.3-7.3-7.3-7.3z"/>
		<path class="st10" d="M298.2,312.3H65.7v2.2h232.5V312.3z"/>
		<path class="st10" d="m207.2 348.7h-57.8v1.6h57.8v-1.6z"/>
	</g>
	<path class="st10" d="m285.9 248h-29.7v30.7h-15.5v-75.1h48.9v12.5h-33.4v19.4h29.7v12.5zm45.1 15.2h-27.1l-5.2 15.5h-16.5l28-75.1h14.3l28.1 75.1h-16.5l-5.1-15.5zm-22.9-12.6h18.8l-9.4-28.1-9.4 28.1zm112-7.8c0 7-1.1 13.1-3.4 18.3s-5.4 9.3-9.4 12.4l12.5 9.8-9.9 8.7-16-12.8c-1.8 0.3-3.7 0.5-5.7 0.5-6.2 0-11.8-1.5-16.7-4.5s-8.7-7.3-11.3-12.8c-2.7-5.6-4-12-4.1-19.2v-3.7c0-7.4 1.3-13.9 4-19.5s6.4-10 11.3-12.9c4.9-3 10.5-4.5 16.7-4.5s11.8 1.5 16.7 4.5 8.6 7.3 11.3 12.9 4 12.1 4 19.4v3.4zm-15.6-3.4c0-7.9-1.4-13.9-4.2-17.9-2.8-4.1-6.8-6.1-12.1-6.1-5.2 0-9.2 2-12 6.1-2.8 4-4.2 9.9-4.3 17.7v3.7c0 7.7 1.4 13.6 4.2 17.8s6.9 6.3 12.2 6.3c5.2 0 9.2-2 12-6.1s4.2-10 4.2-17.8v-3.7zm56.2 23.8c0-1.8-0.9-3.2-2.7-4.3s-4.7-2-8.7-2.8c-13.3-2.8-19.9-8.4-19.9-16.9 0-5 2-9.1 6.1-12.4s9.5-5 16.1-5c7.1 0 12.7 1.7 17 5s6.4 7.7 6.4 13h-14.9c0-2.1-0.7-3.9-2.1-5.3s-3.5-2.1-6.4-2.1c-2.5 0-4.5 0.6-5.8 1.7-1.4 1.1-2.1 2.6-2.1 4.3s0.8 3 2.3 4c1.6 1 4.2 1.9 7.9 2.6s6.8 1.5 9.4 2.5c7.9 2.9 11.8 7.9 11.8 15 0 5.1-2.2 9.2-6.5 12.4-4.4 3.1-10 4.7-16.9 4.7-4.7 0-8.8-0.8-12.5-2.5-3.6-1.7-6.4-4-8.5-6.9s-3.1-6.1-3.1-9.4h14.1c0.1 2.6 1.1 4.7 2.9 6.1s4.3 2.1 7.3 2.1c2.9 0 5-0.5 6.4-1.6 1.7-1 2.4-2.4 2.4-4.2z"/>
		<linearGradient id="j" x1="310.54" x2="741.62" y1="252.82" y2="252.82" gradientTransform="matrix(1 0 0 -1 8.4104e-6 500.11)" gradientUnits="userSpaceOnUse">
		<stop stop-color="#A01BB2" offset="0"/>
		<stop stop-color="#683387" offset="1"/>
	</linearGradient>
	<path class="st24" d="m285.9 248h-29.7v30.7h-15.5v-75.1h48.9v12.5h-33.4v19.4h29.7v12.5zm45.1 15.2h-27.1l-5.2 15.5h-16.5l28-75.1h14.3l28.1 75.1h-16.5l-5.1-15.5zm-22.9-12.6h18.8l-9.4-28.1-9.4 28.1zm112-7.8c0 7-1.1 13.1-3.4 18.3s-5.4 9.3-9.4 12.4l12.5 9.8-9.9 8.7-16-12.8c-1.8 0.3-3.7 0.5-5.7 0.5-6.2 0-11.8-1.5-16.7-4.5s-8.7-7.3-11.3-12.8c-2.7-5.6-4-12-4.1-19.2v-3.7c0-7.4 1.3-13.9 4-19.5s6.4-10 11.3-12.9c4.9-3 10.5-4.5 16.7-4.5s11.8 1.5 16.7 4.5 8.6 7.3 11.3 12.9 4 12.1 4 19.4v3.4zm-15.6-3.4c0-7.9-1.4-13.9-4.2-17.9-2.8-4.1-6.8-6.1-12.1-6.1-5.2 0-9.2 2-12 6.1-2.8 4-4.2 9.9-4.3 17.7v3.7c0 7.7 1.4 13.6 4.2 17.8s6.9 6.3 12.2 6.3c5.2 0 9.2-2 12-6.1s4.2-10 4.2-17.8v-3.7zm56.2 23.8c0-1.8-0.9-3.2-2.7-4.3s-4.7-2-8.7-2.8c-13.3-2.8-19.9-8.4-19.9-16.9 0-5 2-9.1 6.1-12.4s9.5-5 16.1-5c7.1 0 12.7 1.7 17 5s6.4 7.7 6.4 13h-14.9c0-2.1-0.7-3.9-2.1-5.3s-3.5-2.1-6.4-2.1c-2.5 0-4.5 0.6-5.8 1.7-1.4 1.1-2.1 2.6-2.1 4.3s0.8 3 2.3 4c1.6 1 4.2 1.9 7.9 2.6s6.8 1.5 9.4 2.5c7.9 2.9 11.8 7.9 11.8 15 0 5.1-2.2 9.2-6.5 12.4-4.4 3.1-10 4.7-16.9 4.7-4.7 0-8.8-0.8-12.5-2.5-3.6-1.7-6.4-4-8.5-6.9s-3.1-6.1-3.1-9.4h14.1c0.1 2.6 1.1 4.7 2.9 6.1s4.3 2.1 7.3 2.1c2.9 0 5-0.5 6.4-1.6 1.7-1 2.4-2.4 2.4-4.2z"/>
</svg>
