<?xml version="1.0" encoding="utf-8"?>
<!-- Generator: Adobe Illustrator 24.2.0, SVG Export Plug-In . SVG Version: 6.00 Build 0)  -->
<svg version="1.1" xmlns="http://www.w3.org/2000/svg" xmlns:xlink="http://www.w3.org/1999/xlink" x="0px" y="0px"
	 viewBox="0 0 500 500" style="enable-background:new 0 0 500 500;" xml:space="preserve">
<style type="text/css">
	.st0{opacity:0.5;}
	.st1{fill:url(#SVGID_1_);}
	.st2{fill:url(#SVGID_2_);}
	.st3{fill:#E9DDFD;}
	.st4{fill:url(#SVGID_3_);}
	.st5{fill:url(#SVGID_4_);}
	.st6{fill:url(#SVGID_5_);}
	.st7{fill:url(#SVGID_6_);}
	.st8{fill:#F9EAFD;}
	.st9{fill:#CCB5FB;}
	.st10{fill:#FFFFFF;}
	.st11{opacity:0.59;}
	.st12{opacity:0.59;fill:url(#SVGID_7_);enable-background:new    ;}
	.st13{opacity:0.59;fill:url(#SVGID_8_);enable-background:new    ;}
	.st14{opacity:0.59;fill:url(#SVGID_9_);enable-background:new    ;}
	.st15{opacity:0.59;fill:url(#SVGID_10_);enable-background:new    ;}
	.st16{opacity:0.59;fill:url(#SVGID_11_);enable-background:new    ;}
	.st17{opacity:0.59;fill:url(#SVGID_12_);enable-background:new    ;}
	.st18{opacity:0.59;fill:url(#SVGID_13_);enable-background:new    ;}
	.st19{opacity:0.59;fill:url(#SVGID_14_);enable-background:new    ;}
	.st20{opacity:0.59;fill:url(#SVGID_15_);enable-background:new    ;}
	.st21{opacity:0.59;fill:url(#SVGID_16_);enable-background:new    ;}
	.st22{fill:none;stroke:#F1F1F1;stroke-width:2;stroke-miterlimit:10;}
	.st23{fill:none;stroke:#FFFFFF;stroke-width:0.75;stroke-miterlimit:10;}
	.st24{fill:url(#SVGID_17_);}
</style>
<g id="BACKGROUND">
</g>
<g id="OBJECTS">
	<g class="st0">
		
			<linearGradient id="SVGID_1_" gradientUnits="userSpaceOnUse" x1="149.278" y1="162.8616" x2="207.1199" y2="162.8616" gradientTransform="matrix(1 0 0 -1 8.410366e-06 500.1102)">
			<stop  offset="0" style="stop-color:#C7B5FB"/>
			<stop  offset="1" style="stop-color:#907FCC"/>
		</linearGradient>
		<path class="st1" d="M207.1,320.9h-57.8v32.6h57.8V320.9z"/>
		
			<linearGradient id="SVGID_2_" gradientUnits="userSpaceOnUse" x1="298.1785" y1="253.9187" x2="65.6655" y2="253.9187" gradientTransform="matrix(1 0 0 -1 8.410366e-06 500.1102)">
			<stop  offset="0" style="stop-color:#BEABF3"/>
			<stop  offset="0.49" style="stop-color:#BDA3F6"/>
			<stop  offset="1" style="stop-color:#BD97FB"/>
		</linearGradient>
		<path class="st2" d="M292.8,166.3H71c-3,0-5.3,2.4-5.3,5.3v149.1c0,3,2.4,5.3,5.3,5.3h221.8c3,0,5.3-2.4,5.3-5.3V171.6
			C298.2,168.7,295.8,166.3,292.8,166.3z"/>
		<path class="st3" d="M289.6,175.5H74.8v132.3h214.8V175.5z"/>
		
			<linearGradient id="SVGID_3_" gradientUnits="userSpaceOnUse" x1="26369.1484" y1="160.8578" x2="20436.3574" y2="160.8578" gradientTransform="matrix(1 0 0 -1 8.410366e-06 500.1102)">
			<stop  offset="0" style="stop-color:#BEABF3"/>
			<stop  offset="0.49" style="stop-color:#BDA3F6"/>
			<stop  offset="1" style="stop-color:#BD97FB"/>
		</linearGradient>
		<path class="st4" d="M200.2,326.1h-43.5v26.3h43.5V326.1z"/>
		
			<linearGradient id="SVGID_4_" gradientUnits="userSpaceOnUse" x1="42097.6055" y1="179.4671" x2="211422.9219" y2="179.4671" gradientTransform="matrix(1 0 0 -1 8.410366e-06 500.1102)">
			<stop  offset="0" style="stop-color:#C7B5FB"/>
			<stop  offset="1" style="stop-color:#907FCC"/>
		</linearGradient>
		<path class="st5" d="M65.7,312.3h232.5v8.4c0,2.2-0.9,4.3-2.4,5.8c-1.5,1.5-3.6,2.4-5.8,2.4H72.8c-1.9,0-3.7-0.8-5-2.1
			c-1.3-1.3-2.1-3.1-2.1-5V312.3z"/>
		
			<linearGradient id="SVGID_5_" gradientUnits="userSpaceOnUse" x1="49119.5977" y1="142.5299" x2="31761.1738" y2="142.5299" gradientTransform="matrix(1 0 0 -1 8.410366e-06 500.1102)">
			<stop  offset="0" style="stop-color:#BEABF3"/>
			<stop  offset="0.49" style="stop-color:#BDA3F6"/>
			<stop  offset="1" style="stop-color:#BD97FB"/>
		</linearGradient>
		<path class="st6" d="M218,352.4h-74.4v10.3H218V352.4z"/>
		
			<linearGradient id="SVGID_6_" gradientUnits="userSpaceOnUse" x1="31761.1738" y1="147.3995" x2="49119.5977" y2="147.3995" gradientTransform="matrix(1 0 0 -1 8.410366e-06 500.1102)">
			<stop  offset="0" style="stop-color:#C7B5FB"/>
			<stop  offset="1" style="stop-color:#907FCC"/>
		</linearGradient>
		<path class="st7" d="M218,350.1h-74.4v5.2H218V350.1z"/>
		<path class="st8" d="M74.8,202.8l189.3,104.9h25.5v-25L100.2,175.5H74.8L74.8,202.8z"/>
		<path class="st8" d="M156.7,175.5l132.9,66.1v-66.1H156.7z"/>
		<path class="st8" d="M207.1,307.8L74.8,236.5v9.7l116.6,61.6H207.1z"/>
		<path class="st9" d="M117.9,148.8h7.3v17.6h-14.4v-10.6c0-1.9,0.7-3.6,2.1-5C114.3,149.5,116.1,148.8,117.9,148.8z"/>
		<path class="st9" d="M249.2,148.8H124.6v150h124.6V148.8z"/>
		<path class="st10" d="M246,152.1H127.9v142.2H246V152.1z"/>
		<path class="st9" d="M131.8,277.3h139v14c0,1-0.2,2-0.6,2.9c-0.4,0.9-0.9,1.7-1.6,2.4c-0.7,0.7-1.5,1.3-2.4,1.6
			c-0.9,0.4-1.9,0.6-2.9,0.6H131.8V277.3z"/>
		<g class="st11">
			
				<linearGradient id="SVGID_7_" gradientUnits="userSpaceOnUse" x1="43129.9805" y1="298.3036" x2="81788.9609" y2="298.3036" gradientTransform="matrix(1 0 0 -1 8.410366e-06 500.1102)">
				<stop  offset="0" style="stop-color:#C7B5FB"/>
				<stop  offset="1" style="stop-color:#907FCC"/>
			</linearGradient>
			<path class="st12" d="M242.6,200.7H131.5v2.3h111.1V200.7z"/>
			
				<linearGradient id="SVGID_8_" gradientUnits="userSpaceOnUse" x1="43129.9805" y1="290.8575" x2="81788.9609" y2="290.8575" gradientTransform="matrix(1 0 0 -1 8.410366e-06 500.1102)">
				<stop  offset="0" style="stop-color:#C7B5FB"/>
				<stop  offset="1" style="stop-color:#907FCC"/>
			</linearGradient>
			<path class="st13" d="M242.6,208.1H131.5v2.3h111.1V208.1z"/>
			
				<linearGradient id="SVGID_9_" gradientUnits="userSpaceOnUse" x1="-29374.4922" y1="283.4113" x2="-68032" y2="283.4113" gradientTransform="matrix(1 0 0 -1 8.410366e-06 500.1102)">
				<stop  offset="0" style="stop-color:#C7B5FB"/>
				<stop  offset="1" style="stop-color:#907FCC"/>
			</linearGradient>
			<path class="st14" d="M132.1,217.8h111.1v-2.3H132.1V217.8z"/>
			
				<linearGradient id="SVGID_10_" gradientUnits="userSpaceOnUse" x1="-29374.4922" y1="275.9683" x2="-68032" y2="275.9683" gradientTransform="matrix(1 0 0 -1 8.410366e-06 500.1102)">
				<stop  offset="0" style="stop-color:#C7B5FB"/>
				<stop  offset="1" style="stop-color:#907FCC"/>
			</linearGradient>
			<path class="st15" d="M132.1,225.3h111.1V223H132.1V225.3z"/>
			
				<linearGradient id="SVGID_11_" gradientUnits="userSpaceOnUse" x1="43129.9805" y1="268.5221" x2="81788.9609" y2="268.5221" gradientTransform="matrix(1 0 0 -1 8.410366e-06 500.1102)">
				<stop  offset="0" style="stop-color:#C7B5FB"/>
				<stop  offset="1" style="stop-color:#907FCC"/>
			</linearGradient>
			<path class="st16" d="M242.6,230.4H131.5v2.3h111.1V230.4z"/>
			
				<linearGradient id="SVGID_12_" gradientUnits="userSpaceOnUse" x1="43129.9805" y1="261.0792" x2="81788.9609" y2="261.0792" gradientTransform="matrix(1 0 0 -1 8.410366e-06 500.1102)">
				<stop  offset="0" style="stop-color:#C7B5FB"/>
				<stop  offset="1" style="stop-color:#907FCC"/>
			</linearGradient>
			<path class="st17" d="M242.6,237.9H131.5v2.3h111.1V237.9z"/>
			
				<linearGradient id="SVGID_13_" gradientUnits="userSpaceOnUse" x1="-29572.7402" y1="254.2044" x2="-68231.6172" y2="254.2044" gradientTransform="matrix(1 0 0 -1 8.410366e-06 500.1102)">
				<stop  offset="0" style="stop-color:#C7B5FB"/>
				<stop  offset="1" style="stop-color:#907FCC"/>
			</linearGradient>
			<path class="st18" d="M131.5,247.1h111.1v-2.3H131.5V247.1z"/>
			
				<linearGradient id="SVGID_14_" gradientUnits="userSpaceOnUse" x1="-29572.7402" y1="246.7585" x2="-68231.6172" y2="246.7585" gradientTransform="matrix(1 0 0 -1 8.410366e-06 500.1102)">
				<stop  offset="0" style="stop-color:#C7B5FB"/>
				<stop  offset="1" style="stop-color:#907FCC"/>
			</linearGradient>
			<path class="st19" d="M131.5,254.5h111.1v-2.3H131.5V254.5z"/>
			
				<linearGradient id="SVGID_15_" gradientUnits="userSpaceOnUse" x1="43129.9805" y1="239.3155" x2="81788.9609" y2="239.3155" gradientTransform="matrix(1 0 0 -1 8.410366e-06 500.1102)">
				<stop  offset="0" style="stop-color:#C7B5FB"/>
				<stop  offset="1" style="stop-color:#907FCC"/>
			</linearGradient>
			<path class="st20" d="M242.6,259.6H131.5v2.3h111.1V259.6z"/>
			
				<linearGradient id="SVGID_16_" gradientUnits="userSpaceOnUse" x1="43129.9805" y1="231.8725" x2="81788.9609" y2="231.8725" gradientTransform="matrix(1 0 0 -1 8.410366e-06 500.1102)">
				<stop  offset="0" style="stop-color:#C7B5FB"/>
				<stop  offset="1" style="stop-color:#907FCC"/>
			</linearGradient>
			<path class="st21" d="M242.6,267.1H131.5v2.3h111.1V267.1z"/>
		</g>
		<path class="st9" d="M106.9,186.3H51.4c-2.7,0-5.4,1.1-7.3,3c-1.9,1.9-3,4.6-3,7.3v9.7c0,2.2,0.7,4.4,2.1,6.2
			c1.3,1.8,3.2,3.1,5.4,3.7v7.9l11.2-7.4h47.2c1.4,0,2.7-0.3,4-0.8c1.3-0.5,2.4-1.3,3.3-2.2c1-1,1.7-2.1,2.2-3.3
			c0.5-1.3,0.8-2.6,0.8-4v-9.7c0-1.4-0.3-2.7-0.8-4c-0.5-1.3-1.3-2.4-2.2-3.4c-1-1-2.1-1.7-3.3-2.2S108.2,186.3,106.9,186.3
			L106.9,186.3z"/>
		<path class="st9" d="M267.3,234.5h55.5c1.4,0,2.7,0.3,4,0.8c1.3,0.5,2.4,1.3,3.3,2.2c1,1,1.7,2.1,2.2,3.4c0.5,1.3,0.8,2.6,0.8,4
			v9.7c0,2.2-0.7,4.4-2.1,6.2c-1.3,1.8-3.2,3.1-5.4,3.7v7.9l-11.2-7.4h-47.2c-2.7,0-5.4-1.1-7.3-3c-1.9-1.9-3-4.6-3-7.3v-9.7
			c0-1.4,0.3-2.7,0.8-4c0.5-1.3,1.3-2.4,2.2-3.3c1-1,2.1-1.7,3.3-2.2C264.6,234.7,265.9,234.5,267.3,234.5L267.3,234.5z"/>
		<path class="st10" d="M57.1,210.6c-1.3,0-2.4-0.3-3.4-0.8c-1-0.5-1.9-1.2-2.7-2.1c-0.7-0.9-1.3-1.8-1.7-2.9
			c-0.4-1.1-0.6-2.2-0.6-3.4c0-1.2,0.2-2.3,0.6-3.4c0.4-1.1,1-2.1,1.8-2.9c0.8-0.9,1.7-1.5,2.7-2c1-0.5,2.1-0.8,3.3-0.8
			c1.3,0,2.4,0.3,3.4,0.8c1,0.5,1.9,1.2,2.7,2.1c0.8,0.9,1.3,1.9,1.7,2.9c0.4,1.1,0.6,2.2,0.6,3.3c0,1.2-0.2,2.4-0.7,3.5
			c-0.4,1.1-1,2.1-1.8,2.9l2.1,2.5h-1.7l-1.3-1.6c-0.7,0.5-1.5,1-2.3,1.3C58.9,210.5,58,210.6,57.1,210.6z M57.1,209
			c0.8,0,1.5-0.1,2.1-0.4c0.7-0.3,1.3-0.6,1.8-1l-2.3-2.7h1.7l1.5,1.7c0.6-0.7,1-1.5,1.3-2.4c0.3-0.9,0.5-1.8,0.5-2.8
			c0-1-0.2-1.9-0.5-2.8c-0.3-0.9-0.8-1.7-1.4-2.4c-0.6-0.7-1.3-1.3-2.1-1.7c-0.8-0.4-1.7-0.6-2.7-0.6c-1,0-1.9,0.2-2.8,0.7
			c-0.8,0.4-1.5,1-2.1,1.7c-0.6,0.7-1,1.5-1.3,2.4c-0.3,0.9-0.5,1.8-0.5,2.7c0,1,0.2,1.9,0.5,2.8s0.8,1.7,1.4,2.4
			c0.6,0.7,1.3,1.3,2.1,1.7C55.2,208.8,56.1,209,57.1,209z"/>
		<path class="st22" d="M73.7,204.1c1.6,0,2.9-1.3,2.9-2.9c0-1.6-1.3-2.9-2.9-2.9c-1.6,0-2.9,1.3-2.9,2.9
			C70.8,202.8,72.1,204.1,73.7,204.1z"/>
		<path class="st22" d="M87.7,203.8c1.6,0,2.9-1.3,2.9-2.9c0-1.6-1.3-2.9-2.9-2.9c-1.6,0-2.9,1.3-2.9,2.9
			C84.9,202.5,86.1,203.8,87.7,203.8z"/>
		<path class="st22" d="M102.6,203.8c1.6,0,2.9-1.3,2.9-2.9c0-1.6-1.3-2.9-2.9-2.9c-1.6,0-2.9,1.3-2.9,2.9
			C99.7,202.5,101,203.8,102.6,203.8z"/>
		<path class="st10" d="M278.8,252.3h-7.6l-1.7,4.7h-2.5l6.9-18h2.1l6.9,18h-2.4L278.8,252.3z M271.9,250.3h6.1l-3.1-8.4
			L271.9,250.3z"/>
		<path class="st22" d="M289.2,251.7c1.6,0,2.9-1.3,2.9-2.9s-1.3-2.9-2.9-2.9c-1.6,0-2.9,1.3-2.9,2.9S287.6,251.7,289.2,251.7z"/>
		<path class="st22" d="M303.2,251.4c1.6,0,2.9-1.3,2.9-2.9c0-1.6-1.3-2.9-2.9-2.9c-1.6,0-2.9,1.3-2.9,2.9
			C300.4,250.1,301.6,251.4,303.2,251.4z"/>
		<path class="st22" d="M318.1,251.4c1.6,0,2.9-1.3,2.9-2.9c0-1.6-1.3-2.9-2.9-2.9c-1.6,0-2.9,1.3-2.9,2.9
			C315.2,250.1,316.5,251.4,318.1,251.4z"/>
		<path class="st10" d="M95.1,255.7c-3.4-1.3-7.2-1.6-10.8-0.7c-3.6,0.8-6.9,2.7-9.4,5.4c-2.5,2.7-4.2,6.1-4.8,9.7
			c-0.6,3.6-0.1,7.4,1.4,10.7c1.5,3.4,4,6.2,7.1,8.2c3.1,2,6.8,2.9,10.4,2.8c3.7-0.1,7.3-1.3,10.3-3.5c3-2.1,5.3-5.1,6.6-8.6
			c0.9-2.3,1.3-4.7,1.2-7.2c-0.1-2.4-0.6-4.9-1.6-7.1c-1-2.2-2.4-4.2-4.2-5.9C99.5,257.9,97.4,256.6,95.1,255.7L95.1,255.7z
			 M82.9,287.7c-2.9-1.1-5.4-3-7.2-5.5c-1.8-2.5-2.8-5.5-2.9-8.6c-0.1-3.1,0.7-6.1,2.4-8.8c1.6-2.6,4-4.7,6.8-6
			c2.8-1.3,5.9-1.7,9-1.2c3,0.5,5.9,1.9,8.1,4c2.2,2.1,3.8,4.9,4.5,7.9c0.7,3,0.5,6.2-0.6,9c-0.7,1.9-1.8,3.7-3.2,5.2
			c-1.4,1.5-3.1,2.7-5,3.5c-1.9,0.8-3.9,1.3-5.9,1.4C86.9,288.8,84.8,288.5,82.9,287.7L82.9,287.7z"/>
		<path class="st10" d="M74.2,287.3c-0.5-0.5-1-1.1-1.5-1.6l-2.6,2.7l3.6,3.5l2.6-2.7C75.6,288.5,74.8,287.9,74.2,287.3z"/>
		<path class="st10" d="M68.4,288.4l5.1,4.9l-17.8,18.5c-0.4,0.4-0.9,0.6-1.4,0.6c-0.5,0-1-0.2-1.4-0.6l-2.2-2.2
			c-0.4-0.4-0.6-0.9-0.6-1.4c0-0.5,0.2-1,0.6-1.4L68.4,288.4L68.4,288.4z"/>
		<path class="st10" d="M87,278.1c0-1.3,0.2-2.3,0.4-3.1c0.3-0.8,0.8-1.6,1.7-2.5l2.2-2.2c0.9-1,1.4-2.2,1.4-3.4
			c0-1.2-0.3-2.1-0.9-2.7c-0.6-0.7-1.5-1-2.6-1c-1.1,0-2,0.3-2.7,0.9c-0.7,0.6-1,1.4-1,2.4h-3.1c0-1.8,0.7-3.2,1.9-4.3
			c1.3-1.1,2.9-1.7,4.9-1.7c2.1,0,3.7,0.6,4.9,1.7c1.2,1.1,1.7,2.6,1.7,4.6c0,1.9-0.9,3.8-2.7,5.7l-1.8,1.8
			c-0.8,0.9-1.2,2.2-1.2,3.8H87z M86.9,283.4c0-0.5,0.1-0.9,0.4-1.2c0.3-0.3,0.8-0.5,1.4-0.5s1,0.2,1.4,0.5c0.3,0.3,0.5,0.7,0.5,1.2
			c0,0.5-0.2,0.9-0.5,1.2c-0.3,0.3-0.8,0.5-1.4,0.5s-1-0.2-1.4-0.5C87,284.3,86.9,283.9,86.9,283.4z"/>
		<path class="st10" d="M87,278.1l-0.1,0l0,0.1H87V278.1z M89.2,272.5l-0.1-0.1l0,0L89.2,272.5z M91.3,270.3l0.1,0.1l0,0L91.3,270.3
			z M91.8,264.2l-0.1,0.1l0,0L91.8,264.2z M85.4,266.5v0.1h0.1v-0.1H85.4z M82.4,266.5l-0.1,0l0,0.1h0.1V266.5z M84.3,262.2l0.1,0.1
			l0,0L84.3,262.2z M94,262.2l-0.1,0.1l0,0L94,262.2z M93.1,272.5L93.1,272.5l0.1,0.1L93.1,272.5z M91.3,274.3L91.3,274.3l-0.1-0.1
			l0,0L91.3,274.3z M90.1,278.1v0.1h0.1v-0.1H90.1z M87.3,282.1l-0.1-0.1l0,0L87.3,282.1z M90,282.1l-0.1,0.1l0,0L90,282.1z
			 M90,284.6l0.1,0.1l0,0L90,284.6z M87.3,284.6l-0.1,0.1l0,0L87.3,284.6z M87.2,278.1c0-1.3,0.2-2.3,0.4-3.1l-0.3-0.1
			c-0.3,0.8-0.4,1.8-0.5,3.1L87.2,278.1z M87.6,275.1c0.3-0.7,0.8-1.6,1.7-2.5l-0.2-0.2c-0.9,0.9-1.4,1.8-1.7,2.6L87.6,275.1z
			 M89.2,272.6l2.2-2.2l-0.2-0.2l-2.2,2.2L89.2,272.6z M91.4,270.4c0.9-1.1,1.4-2.2,1.4-3.5h-0.3c0,1.2-0.4,2.3-1.4,3.3L91.4,270.4z
			 M92.8,266.9c0-1.2-0.3-2.1-0.9-2.8l-0.2,0.2c0.6,0.6,0.9,1.5,0.9,2.6H92.8z M91.9,264.1c-0.6-0.7-1.6-1-2.7-1v0.3
			c1.1,0,2,0.3,2.5,0.9L91.9,264.1z M89.2,263.1c-1.1,0-2.1,0.3-2.8,0.9l0.2,0.2c0.7-0.6,1.5-0.9,2.6-0.9V263.1z M86.4,264
			c-0.7,0.6-1.1,1.5-1.1,2.5h0.3c0-1,0.3-1.7,1-2.3L86.4,264z M85.4,266.4h-3.1v0.3h3.1V266.4z M82.5,266.5c0-1.7,0.6-3.1,1.9-4.2
			l-0.2-0.2c-1.3,1.1-1.9,2.6-1.9,4.4L82.5,266.5z M84.4,262.3c1.2-1.1,2.8-1.6,4.8-1.6v-0.3c-2,0-3.7,0.6-5,1.7L84.4,262.3z
			 M89.2,260.7c2.1,0,3.6,0.6,4.8,1.6l0.2-0.2c-1.2-1.2-2.8-1.7-4.9-1.7V260.7z M93.9,262.3c1.1,1.1,1.7,2.6,1.7,4.5h0.3
			c0-2-0.6-3.5-1.8-4.7L93.9,262.3z M95.6,266.8c0,1.9-0.9,3.7-2.6,5.6l0.2,0.2c1.8-1.9,2.7-3.8,2.7-5.8H95.6z M93,272.4l-1.8,1.8
			l0.2,0.2l1.8-1.8L93,272.4z M91.2,274.2c-0.8,0.9-1.2,2.2-1.2,3.9h0.3c0-1.7,0.4-2.9,1.2-3.8L91.2,274.2z M90.1,278H87v0.3h3.1
			V278z M87,283.4c0-0.5,0.1-0.8,0.4-1.1l-0.2-0.2c-0.3,0.4-0.5,0.8-0.5,1.3H87z M87.4,282.2c0.3-0.3,0.7-0.5,1.3-0.5v-0.3
			c-0.6,0-1.1,0.2-1.5,0.6L87.4,282.2z M88.7,281.8c0.6,0,1,0.2,1.2,0.5l0.2-0.2c-0.3-0.4-0.8-0.6-1.5-0.6V281.8z M89.9,282.2
			c0.3,0.3,0.4,0.7,0.4,1.1h0.3c0-0.5-0.2-1-0.5-1.3L89.9,282.2z M90.4,283.4c0,0.5-0.1,0.8-0.4,1.1l0.2,0.2
			c0.3-0.4,0.5-0.8,0.5-1.3H90.4z M89.9,284.5c-0.3,0.3-0.7,0.4-1.3,0.4v0.3c0.6,0,1.1-0.2,1.5-0.5L89.9,284.5z M88.7,284.9
			c-0.6,0-1-0.2-1.3-0.4l-0.2,0.2c0.3,0.4,0.8,0.5,1.5,0.5V284.9z M87.4,284.5c-0.3-0.3-0.4-0.7-0.4-1.1h-0.3c0,0.5,0.2,1,0.5,1.3
			L87.4,284.5z"/>
		<path class="st23" d="M322.5,236.6h-55c-4,0-7.3,3.3-7.3,7.3v10.6c0,4,3.3,7.3,7.3,7.3h55c4,0,7.3-3.3,7.3-7.3v-10.6
			C329.8,239.9,326.5,236.6,322.5,236.6z"/>
		<path class="st23" d="M106.5,189.2h-55c-4,0-7.3,3.3-7.3,7.3v10.6c0,4,3.3,7.3,7.3,7.3h55c4,0,7.3-3.3,7.3-7.3v-10.6
			C113.8,192.5,110.5,189.2,106.5,189.2z"/>
		<path class="st10" d="M298.2,312.3H65.7v2.2h232.5V312.3z"/>
		<path class="st10" d="M207.2,348.7h-57.8v1.6h57.8V348.7z"/>
	</g>
	<path class="st10" d="M285.9,248h-29.7v30.7h-15.5v-75.1h48.9v12.5h-33.4v19.4h29.7V248z M331,263.2h-27.1l-5.2,15.5h-16.5l28-75.1
		h14.3l28.1,75.1h-16.5L331,263.2z M308.1,250.6h18.8l-9.4-28.1L308.1,250.6z M420.1,242.8c0,7-1.1,13.1-3.4,18.3
		c-2.3,5.2-5.4,9.3-9.4,12.4l12.5,9.8l-9.9,8.7l-16-12.8c-1.8,0.3-3.7,0.5-5.7,0.5c-6.2,0-11.8-1.5-16.7-4.5
		c-4.9-3-8.7-7.3-11.3-12.8c-2.7-5.6-4-12-4.1-19.2v-3.7c0-7.4,1.3-13.9,4-19.5c2.7-5.6,6.4-10,11.3-12.9c4.9-3,10.5-4.5,16.7-4.5
		s11.8,1.5,16.7,4.5c4.9,3,8.6,7.3,11.3,12.9c2.7,5.6,4,12.1,4,19.4V242.8z M404.5,239.4c0-7.9-1.4-13.9-4.2-17.9
		c-2.8-4.1-6.8-6.1-12.1-6.1c-5.2,0-9.2,2-12,6.1c-2.8,4-4.2,9.9-4.3,17.7v3.7c0,7.7,1.4,13.6,4.2,17.8c2.8,4.2,6.9,6.3,12.2,6.3
		c5.2,0,9.2-2,12-6.1c2.8-4.1,4.2-10,4.2-17.8V239.4z M460.7,263.2c0-1.8-0.9-3.2-2.7-4.3c-1.8-1.1-4.7-2-8.7-2.8
		c-13.3-2.8-19.9-8.4-19.9-16.9c0-5,2-9.1,6.1-12.4c4.1-3.3,9.5-5,16.1-5c7.1,0,12.7,1.7,17,5c4.3,3.3,6.4,7.7,6.4,13h-14.9
		c0-2.1-0.7-3.9-2.1-5.3c-1.4-1.4-3.5-2.1-6.4-2.1c-2.5,0-4.5,0.6-5.8,1.7c-1.4,1.1-2.1,2.6-2.1,4.3c0,1.7,0.8,3,2.3,4
		c1.6,1,4.2,1.9,7.9,2.6c3.7,0.7,6.8,1.5,9.4,2.5c7.9,2.9,11.8,7.9,11.8,15c0,5.1-2.2,9.2-6.5,12.4c-4.4,3.1-10,4.7-16.9,4.7
		c-4.7,0-8.8-0.8-12.5-2.5c-3.6-1.7-6.4-4-8.5-6.9c-2.1-2.9-3.1-6.1-3.1-9.4h14.1c0.1,2.6,1.1,4.7,2.9,6.1c1.8,1.4,4.3,2.1,7.3,2.1
		c2.9,0,5-0.5,6.4-1.6C460,266.4,460.7,265,460.7,263.2z"/>
	
		<linearGradient id="SVGID_17_" gradientUnits="userSpaceOnUse" x1="310.5428" y1="252.8247" x2="741.6169" y2="252.8247" gradientTransform="matrix(1 0 0 -1 8.410366e-06 500.1102)">
		<stop  offset="0" style="stop-color:#A01BB2"/>
		<stop  offset="1" style="stop-color:#683387"/>
	</linearGradient>
	<path class="st24" d="M285.9,248h-29.7v30.7h-15.5v-75.1h48.9v12.5h-33.4v19.4h29.7V248z M331,263.2h-27.1l-5.2,15.5h-16.5l28-75.1
		h14.3l28.1,75.1h-16.5L331,263.2z M308.1,250.6h18.8l-9.4-28.1L308.1,250.6z M420.1,242.8c0,7-1.1,13.1-3.4,18.3
		c-2.3,5.2-5.4,9.3-9.4,12.4l12.5,9.8l-9.9,8.7l-16-12.8c-1.8,0.3-3.7,0.5-5.7,0.5c-6.2,0-11.8-1.5-16.7-4.5
		c-4.9-3-8.7-7.3-11.3-12.8c-2.7-5.6-4-12-4.1-19.2v-3.7c0-7.4,1.3-13.9,4-19.5c2.7-5.6,6.4-10,11.3-12.9c4.9-3,10.5-4.5,16.7-4.5
		s11.8,1.5,16.7,4.5c4.9,3,8.6,7.3,11.3,12.9c2.7,5.6,4,12.1,4,19.4V242.8z M404.5,239.4c0-7.9-1.4-13.9-4.2-17.9
		c-2.8-4.1-6.8-6.1-12.1-6.1c-5.2,0-9.2,2-12,6.1c-2.8,4-4.2,9.9-4.3,17.7v3.7c0,7.7,1.4,13.6,4.2,17.8c2.8,4.2,6.9,6.3,12.2,6.3
		c5.2,0,9.2-2,12-6.1c2.8-4.1,4.2-10,4.2-17.8V239.4z M460.7,263.2c0-1.8-0.9-3.2-2.7-4.3c-1.8-1.1-4.7-2-8.7-2.8
		c-13.3-2.8-19.9-8.4-19.9-16.9c0-5,2-9.1,6.1-12.4c4.1-3.3,9.5-5,16.1-5c7.1,0,12.7,1.7,17,5c4.3,3.3,6.4,7.7,6.4,13h-14.9
		c0-2.1-0.7-3.9-2.1-5.3c-1.4-1.4-3.5-2.1-6.4-2.1c-2.5,0-4.5,0.6-5.8,1.7c-1.4,1.1-2.1,2.6-2.1,4.3c0,1.7,0.8,3,2.3,4
		c1.6,1,4.2,1.9,7.9,2.6c3.7,0.7,6.8,1.5,9.4,2.5c7.9,2.9,11.8,7.9,11.8,15c0,5.1-2.2,9.2-6.5,12.4c-4.4,3.1-10,4.7-16.9,4.7
		c-4.7,0-8.8-0.8-12.5-2.5c-3.6-1.7-6.4-4-8.5-6.9c-2.1-2.9-3.1-6.1-3.1-9.4h14.1c0.1,2.6,1.1,4.7,2.9,6.1c1.8,1.4,4.3,2.1,7.3,2.1
		c2.9,0,5-0.5,6.4-1.6C460,266.4,460.7,265,460.7,263.2z"/>
</g>
</svg>
