<?xml version="1.0" encoding="utf-8"?>
<!-- Generator: Adobe Illustrator 24.2.0, SVG Export Plug-In . SVG Version: 6.00 Build 0)  -->
<svg version="1.1" id="_x38_00X800" xmlns="http://www.w3.org/2000/svg" xmlns:xlink="http://www.w3.org/1999/xlink" x="0px"
	 y="0px" viewBox="0 0 1544.99 1461.15" style="enable-background:new 0 0 1544.99 1461.15;" xml:space="preserve">
<style type="text/css">
	.st0{display:none;fill:url(#SVGID_1_);}
	.st1{display:none;fill:url(#SVGID_2_);}
	.st2{display:none;fill:url(#SVGID_3_);}
	.st3{display:none;fill:url(#SVGID_4_);}
	.st4{fill:url(#SVGID_5_);}
	.st5{fill:url(#SVGID_6_);}
	.st6{fill:url(#SVGID_7_);}
</style>
<linearGradient id="SVGID_1_" gradientUnits="userSpaceOnUse" x1="420.9791" y1="222.1892" x2="420.9791" y2="-860.6108" gradientTransform="matrix(0.9204 -0.3909 -0.3909 -0.9204 295.1712 609.0491)">
	<stop  offset="0" style="stop-color:#460F60"/>
	<stop  offset="1" style="stop-color:#FF00C7"/>
</linearGradient>
<path class="st0" d="M141.02,433.12L1050.6,46.86c25.42-10.79,54.77,1.06,65.57,26.48l384.15,904.61
	c10.79,25.42-1.06,54.77-26.48,65.57l-909.58,386.26c-25.42,10.79-54.77-1.06-65.57-26.48L114.54,498.68
	C103.75,473.27,115.6,443.91,141.02,433.12z"/>
<linearGradient id="SVGID_2_" gradientUnits="userSpaceOnUse" x1="39.9849" y1="179.4489" x2="422.1939" y2="-754.1774" gradientTransform="matrix(1 0 0 -1 8.410366e-06 667.977)">
	<stop  offset="0" style="stop-color:#460F60"/>
	<stop  offset="1" style="stop-color:#FF00C7"/>
</linearGradient>
<path class="st1" d="M370.28,1254.76l24.25,56.92l38.54-16.42l-28.46-66.81l23.82-10.15l41.09,96.45l-143.89,61.31l-41.01-96.26
	l24.02-10.23l28.38,66.61l34.29-14.61l-24.25-56.92L370.28,1254.76z M362.68,1162.95l-122.11,13.49l-14.06-33.01l165.24-11.2
	l13.18,30.93L282.3,1274.38l-14.02-32.91L362.68,1162.95z M265.35,1008.48l24.25,56.92l38.54-16.42l-28.46-66.81l23.82-10.15
	l41.1,96.45l-143.89,61.31l-41.01-96.26l24.02-10.23l28.38,66.61l34.29-14.61l-24.25-56.92L265.35,1008.48z M266.23,837.63
	l12.63,29.65l-70.08,98.05l94.67-40.34l12.63,29.65l-143.89,61.31l-12.63-29.65l70.24-98.23l-94.87,40.42l-12.59-29.55
	L266.23,837.63z M90.44,757.46l18.78,44.08l119.88-51.07l12.63,29.65l-119.88,51.07l18.53,43.48l-24.02,10.23L66.43,767.69
	L90.44,757.46z M134.21,632.44c-5.6,2.39-9.04,6.19-10.32,11.4c-1.35,5.24-1.48,13.71-0.39,25.39c1.02,11.71,1.19,21.25,0.52,28.62
	c-1.87,20.1-10.28,33.34-25.23,39.71c-7.77,3.31-15.62,4.09-23.53,2.32c-8.01-1.8-15.47-6.06-22.37-12.77
	c-6.93-6.78-12.58-15.27-16.93-25.48c-4.38-10.28-6.4-20.24-6.07-29.87c0.26-9.61,2.85-18.07,7.76-25.37
	c4.88-7.37,11.63-12.9,20.26-16.57l12.63,29.65c-6.59,2.81-10.81,7.06-12.67,12.75c-1.92,5.72-1.28,12.34,1.92,19.85
	c3.09,7.25,7.04,12.22,11.85,14.92c4.74,2.73,9.62,3.02,14.63,0.89c4.68-1.99,7.6-6,8.77-12.03c1.14-6.09,1.14-14.3,0.01-24.64
	c-2.11-19.03-1.06-34,3.17-44.9c4.23-10.91,11.94-18.75,23.14-23.52c12.45-5.3,24.24-4.76,35.37,1.63
	c11.06,6.42,19.99,17.6,26.79,33.54c4.72,11.07,7,22.01,6.86,32.81c-0.21,10.83-2.82,20.16-7.82,27.97
	c-5.03,7.75-12.19,13.6-21.48,17.56l-12.67-29.75c15.88-6.77,19.77-19.64,11.69-38.61c-3-7.05-6.76-11.95-11.28-14.69
	C144.21,630.52,139.35,630.25,134.21,632.44z"/>
<linearGradient id="SVGID_3_" gradientUnits="userSpaceOnUse" x1="404.7962" y1="109.2289" x2="404.7962" y2="-973.5711" gradientTransform="matrix(0.9204 -0.3909 -0.3909 -0.9204 271.1458 491.0062)">
	<stop  offset="0" style="stop-color:#460F60"/>
	<stop  offset="1" style="stop-color:#FF00C7"/>
</linearGradient>
<path class="st2" d="M146.25,425.37l909.58-386.26c25.42-10.79,54.77,1.06,65.57,26.48l384.15,904.61
	c10.79,25.42-1.06,54.77-26.48,65.57l-909.58,386.26c-25.42,10.79-54.77-1.06-65.57-26.48L119.77,490.94
	C108.98,465.52,120.83,436.17,146.25,425.37z"/>
<linearGradient id="SVGID_4_" gradientUnits="userSpaceOnUse" x1="26.6315" y1="235.396" x2="408.8414" y2="-698.2301" gradientTransform="matrix(1 0 0 -1 8.410366e-06 667.977)">
	<stop  offset="0" style="stop-color:#460F60"/>
	<stop  offset="1" style="stop-color:#FF00C7"/>
</linearGradient>
<path class="st3" d="M390.62,1190.74l22.15,51.98l33.86-2.75l13.43,31.53l-166.71,7.74l-11.7-27.47l120.94-115.17l13.43,31.53
	L390.62,1190.74z M385.34,1244.95l-15.33-35.97l-46.15,41.03L385.34,1244.95z M396.86,1123.16l-143.89,61.31l-21.47-50.4
	c-7.44-17.46-9.72-32.13-6.85-44.02c2.81-11.86,10.67-20.54,23.58-26.04c7.05-3,14.05-3.84,20.99-2.52
	c6.88,1.35,12.95,4.72,18.2,10.11c-1.3-8.16-0.05-15.55,3.76-22.15c3.78-6.67,9.71-11.73,17.82-15.18
	c13.84-5.9,26.19-5.94,37.07-0.15c10.88,5.8,19.86,16.84,26.96,33.12L396.86,1123.16z M321.57,1120.21l38.84-16.55l-10.82-25.4
	c-2.98-6.98-6.94-11.72-11.89-14.2c-5.04-2.52-10.5-2.53-16.36-0.03c-13.18,5.61-16.96,15.28-11.35,29L321.57,1120.21z
	 M300.62,1129.13l-9.35-21.94c-6.64-14.84-15.78-19.78-27.45-14.81c-6.52,2.78-10.39,6.68-11.59,11.71
	c-1.3,4.99-0.21,11.57,3.27,19.74l8.84,20.75L300.62,1129.13z M222.74,904.96c14.17-6.04,27.65-8.82,40.46-8.36
	c12.81,0.46,24.1,4.13,33.89,11.02c9.76,6.82,17.2,16.26,22.34,28.31c5.08,11.92,6.75,23.79,5,35.58
	c-1.75,11.8-6.83,22.53-15.24,32.18c-8.48,9.69-19.63,17.51-33.44,23.47l-7.12,3.03c-14.17,6.04-27.7,8.8-40.6,8.31
	c-13-0.54-24.34-4.23-34.03-11.07c-9.78-6.89-17.23-16.32-22.34-28.31c-5.11-11.99-6.74-23.87-4.9-35.63
	c1.75-11.8,6.94-22.54,15.58-32.21c8.55-9.71,19.87-17.57,33.97-23.58L222.74,904.96z M229.02,937.78
	c-15.09,6.43-25.4,14.01-30.94,22.76c-5.54,8.74-6.17,18.12-1.91,28.14c4.24,9.95,11.4,15.97,21.47,18.06
	c10.01,2.12,22.51,0.02,37.49-6.28l7.02-2.99c14.69-6.26,24.94-13.82,30.74-22.67c5.8-8.85,6.54-18.36,2.22-28.5
	c-4.24-9.95-11.38-15.93-21.43-17.96c-10.11-2-22.66,0.16-37.65,6.47L229.02,937.78z M91.95,806.55l94.77-40.38
	c15.75-6.71,30.3-7.07,43.67-1.09c13.34,5.92,23.65,17.4,30.92,34.47c7.16,16.8,8.39,32.04,3.71,45.71
	c-4.68,13.67-14.76,23.92-30.22,30.74l-95.86,40.84l-12.63-29.65l94.97-40.46c9.42-4.01,15.35-9.19,17.79-15.52
	c2.35-6.37,1.82-13.54-1.58-21.51c-7.1-16.67-19.47-21.4-37.11-14.2l-95.76,40.8L91.95,806.55z M59.46,663.7l18.78,44.08
	l119.88-51.08l12.63,29.65L90.87,737.42l18.53,43.48l-24.01,10.23L35.45,673.93L59.46,663.7z"/>
<linearGradient id="SVGID_5_" gradientUnits="userSpaceOnUse" x1="369.0859" y1="107.0177" x2="369.0859" y2="-975.7823" gradientTransform="matrix(0.9204 -0.3909 -0.3909 -0.9204 265.9748 465.5995)">
	<stop  offset="0" style="stop-color:#460F60"/>
	<stop  offset="1" style="stop-color:#FF00C7"/>
</linearGradient>
<path class="st4" d="M109.08,415.96L1018.66,29.7c25.42-10.79,54.77,1.06,65.57,26.48l384.15,904.61
	c10.79,25.42-1.06,54.77-26.48,65.57l-909.58,386.26c-25.42,10.79-54.77-1.06-65.57-26.48L82.6,481.53
	C71.8,456.11,83.66,426.75,109.08,415.96z"/>
<linearGradient id="SVGID_6_" gradientUnits="userSpaceOnUse" x1="20.0082" y1="171.795" x2="383.839" y2="-711.7091" gradientTransform="matrix(1 0 0 -1 8.410366e-06 667.977)">
	<stop  offset="0" style="stop-color:#460F60"/>
	<stop  offset="1" style="stop-color:#FF00C7"/>
</linearGradient>
<path class="st5" d="M269.42,1064.5l24.14,56.97l58.85-24.93l12.57,29.67l-144.01,61.01l-39.73-93.77l24.04-10.18l27.15,64.09
	l37.19-15.76l-24.14-56.97L269.42,1064.5z M261.89,965.5l22.04,52.03l33.86-2.68l13.37,31.55l-166.73,7.41l-11.65-27.5
	l121.18-114.92l13.37,31.55L261.89,965.5z M256.5,1019.7l-15.25-36l-46.24,40.94L256.5,1019.7z M150.82,703.04
	c-3.49,1.48-5.49,4.39-5.99,8.72c-0.59,4.29-0.06,10.6,1.6,18.92c5.44,27.72,0.02,45.02-16.27,51.92
	c-9.5,4.02-19.07,3.45-28.73-1.71c-9.75-5.2-17.32-14.17-22.71-26.89c-5.76-13.58-7.15-25.79-4.19-36.61
	c2.93-10.89,9.51-18.49,19.73-22.83l12.11,28.59c-4.09,1.73-6.89,4.48-8.41,8.23c-1.59,3.78-1.19,8.48,1.18,14.08
	c2.04,4.81,4.71,8.08,8,9.79s6.62,1.86,9.98,0.44c3.17-1.34,5.11-3.91,5.83-7.72c0.63-3.84,0.16-9.63-1.41-17.37
	c-1.63-7.71-2.59-14.38-2.88-20.01c-0.86-17.45,5.54-29.06,19.19-34.84c9.76-4.14,19.45-3.3,29.06,2.5
	c9.55,5.83,17.13,15.38,22.75,28.63c3.8,8.97,5.6,17.62,5.39,25.95c-0.3,8.29-2.38,15.59-6.24,21.89
	c-3.93,6.33-9.13,10.87-15.59,13.6l-11.48-27.1c4.97-2.41,8.06-5.94,9.28-10.58c1.22-4.64,0.59-9.9-1.9-15.76
	c-2.32-5.47-5.09-9.16-8.3-11.07C157.52,701.88,154.18,701.62,150.82,703.04z"/>
<linearGradient id="SVGID_7_" gradientUnits="userSpaceOnUse" x1="14.6492" y1="217.782" x2="382.1858" y2="-806.3322" gradientTransform="matrix(1 0 0 -1 8.410366e-06 667.977)">
	<stop  offset="0" style="stop-color:#460F60"/>
	<stop  offset="1" style="stop-color:#FF00C7"/>
</linearGradient>
<path class="st6" d="M135.73,822.99c13.42-5.77,26.03-8.63,37.83-8.56c11.74,0.1,22.25,2.7,31.55,7.83l8.47-31.95l24.79,11.67
	l-11.41,41.16c2.09,3.23,3.94,6.72,5.56,10.47c5.12,11.91,6.83,23.76,5.13,35.57c-1.7,11.8-6.75,22.55-15.13,32.24
	c-8.45,9.72-19.57,17.58-33.35,23.59l-7.1,3.06c-14.14,6.09-27.67,8.9-40.57,8.45c-13-0.49-24.35-4.14-34.07-10.95
	c-9.81-6.85-17.29-16.26-22.44-28.23c-5.15-11.97-6.83-23.84-5.03-35.61c1.7-11.8,6.86-22.56,15.47-32.27
	c8.51-9.75,19.81-17.65,33.89-23.7L135.73,822.99z M142.12,855.79c-15.06,6.48-25.35,14.1-30.86,22.87
	c-5.51,8.76-6.11,18.14-1.81,28.14c4.27,9.93,11.45,15.93,21.54,17.98c10.02,2.08,22.51-0.06,37.47-6.42l7.01-3.01
	c14.67-6.31,24.89-13.91,30.66-22.78c5.77-8.88,6.48-18.38,2.12-28.51c-4.27-9.93-11.44-15.89-21.49-17.88
	c-10.12-1.96-22.66,0.24-37.62,6.6L142.12,855.79z"/>
</svg>
