<?xml version="1.0" encoding="UTF-8"?>
<svg data-name="Layer 1" viewBox="0 0 1080 1080" xmlns="http://www.w3.org/2000/svg" xmlns:xlink="http://www.w3.org/1999/xlink">
<defs>
<style>.cls-1{fill:none;}.cls-2{fill:#efdfff;}.cls-3{fill:url(#a);}.cls-4{fill:url(#au);}.cls-5{fill:url(#aj);}.cls-6{fill:url(#y);}.cls-7{fill:url(#n);}.cls-8{fill:url(#e);}.cls-12,.cls-9{opacity:0.47;}.cls-9{fill:url(#b);}.cls-10{fill:url(#d);}.cls-11,.cls-13{opacity:0.33;}.cls-11{fill:url(#c);}.cls-12{fill:url(#be);}.cls-13{fill:url(#bd);}.cls-14{fill:url(#bc);}.cls-15{opacity:0.27;fill:url(#bb);}.cls-16{fill:url(#ba);}.cls-17{fill:url(#az);}.cls-18{fill:url(#ay);}.cls-19{fill:url(#ax);}.cls-20{fill:url(#aw);}.cls-21{fill:url(#av);}.cls-22{fill:url(#at);}.cls-23{fill:url(#as);}.cls-24{fill:url(#ar);}.cls-25{clip-path:url(#bf);}.cls-26{fill:url(#aq);}.cls-27{fill:url(#ap);}.cls-28{fill:#e6e6e6;}.cls-29{fill:#ffecff;}.cls-30{fill:url(#ao);}.cls-31{fill:url(#an);}.cls-32{fill:url(#am);}.cls-33{fill:url(#al);}.cls-34,.cls-46,.cls-57{opacity:0.5;}.cls-34{fill:url(#ak);}.cls-35{fill:url(#ai);}.cls-36{fill:url(#ah);}.cls-37{fill:url(#ag);}.cls-38{fill:url(#af);}.cls-39{fill:url(#ae);}.cls-40{fill:url(#ad);}.cls-41{fill:url(#ac);}.cls-42{fill:url(#ab);}.cls-43{fill:url(#aa);}.cls-44{fill:url(#z);}.cls-45{fill:url(#x);}.cls-46{fill:url(#w);}.cls-47{fill:url(#v);}.cls-48{fill:url(#u);}.cls-49{fill:url(#t);}.cls-50{fill:url(#s);}.cls-51{fill:url(#r);}.cls-52{fill:url(#q);}.cls-53{fill:#d7b7ff;}.cls-54{fill:url(#p);}.cls-55{fill:url(#o);}.cls-56{fill:url(#m);}.cls-57{fill:url(#l);}.cls-58{fill:url(#k);}.cls-59{fill:url(#j);}.cls-60{fill:url(#i);}.cls-61{fill:url(#h);}.cls-62{fill:url(#g);}.cls-63{fill:url(#f);}</style>
<linearGradient id="a" x1="171.96" x2="259.98" y1="546.21" y2="546.21" gradientUnits="userSpaceOnUse">
<stop stop-color="#d0b7ff" offset="0"/>
<stop stop-color="#9980d1" offset="1"/>
</linearGradient>
<linearGradient id="au" x1="252.05" x2="282.92" y1="597.55" y2="597.55" xlink:href="#a"/>
<linearGradient id="aj" x1="835.29" x2="875.14" y1="571.92" y2="571.92" xlink:href="#a"/>
<linearGradient id="y" x1="829.3" x2="869.15" y1="581.76" y2="581.76" xlink:href="#a"/>
<linearGradient id="n" x1="829.02" x2="862.42" y1="591.61" y2="591.61" xlink:href="#a"/>
<linearGradient id="e" x1="838.19" x2="947.57" y1="508.82" y2="508.82" xlink:href="#a"/>
<linearGradient id="b" x1="372.4" x2="553.71" y1="341.2" y2="341.2" gradientUnits="userSpaceOnUse">
<stop stop-color="#c7aef7" offset="0"/>
<stop stop-color="#c9a6fa" offset=".49"/>
<stop stop-color="#c9f" offset="1"/>
</linearGradient>
<linearGradient id="d" x1="426.31" x2="492.71" y1="189.18" y2="189.18" xlink:href="#a"/>
<linearGradient id="c" x1="578.45" x2="674.39" y1="376.45" y2="376.45" xlink:href="#a"/>
<linearGradient id="be" x1="652.17" x2="835.96" y1="252.29" y2="252.29" xlink:href="#b"/>
<linearGradient id="bd" x1="588.33" x2="655.63" y1="168.98" y2="168.98" xlink:href="#a"/>
<linearGradient id="bc" x1="848.93" x2="916.23" y1="358.56" y2="358.56" xlink:href="#a"/>
<linearGradient id="bb" x1="187.25" x2="253.65" y1="423.76" y2="423.76" xlink:href="#b"/>
<linearGradient id="ba" x1="257.44" x2="296.3" y1="336.53" y2="336.53" xlink:href="#a"/>
<linearGradient id="az" x1="250.87" x2="289.73" y1="346" y2="346" xlink:href="#a"/>
<linearGradient id="ay" x1="249.93" x2="282.53" y1="355.41" y2="355.41" xlink:href="#a"/>
<linearGradient id="ax" x1="264.06" x2="373.43" y1="275.24" y2="275.24" xlink:href="#a"/>
<linearGradient id="aw" x1="524.95" x2="612.96" y1="248.31" y2="248.31" xlink:href="#a"/>
<linearGradient id="av" x1="605.04" x2="635.9" y1="299.65" y2="299.65" xlink:href="#a"/>
<linearGradient id="at" x1="459.5" x2="529.2" y1="247.94" y2="247.94" gradientTransform="translate(841.25 -177.13) rotate(68.76)" xlink:href="#a"/>
<linearGradient id="as" x1="522.92" x2="547.36" y1="291.46" y2="291.46" gradientTransform="translate(841.25 -177.13) rotate(68.76)" xlink:href="#a"/>
<linearGradient id="ar" x1="527.39" x2="594.7" y1="444.17" y2="444.17" xlink:href="#a"/>
<clipPath id="bf">
<circle class="cls-1" cx="562.5" cy="518.5" r="416.5"/>
</clipPath>
<linearGradient id="aq" x1="209.46" x2="500.85" y1="539.3" y2="539.3" xlink:href="#a"/>
<linearGradient id="ap" x1="217.23" x2="500.85" y1="605.68" y2="605.68" xlink:href="#a"/>
<linearGradient id="ao" x1="230.85" x2="480.25" y1="487.79" y2="487.79" xlink:href="#a"/>
<linearGradient id="an" x1="223.06" x2="526.52" y1="798.9" y2="798.9" xlink:href="#a"/>
<linearGradient id="am" x1="425.94" x2="729.39" y1="797.72" y2="797.72" gradientTransform="matrix(-1 0 0 1 912.37 0)" xlink:href="#a"/>
<linearGradient id="al" x1="223.51" x2="526.96" y1="798.9" y2="798.9" xlink:href="#a"/>
<linearGradient id="ak" x1="352.27" x2="355.82" y1="807.3" y2="807.3" xlink:href="#a"/>
<linearGradient id="ai" x1="304.33" x2="359.38" y1="709.4" y2="709.4" xlink:href="#a"/>
<linearGradient id="ah" x1="885.21" x2="942.75" y1="708.94" y2="708.94" gradientTransform="matrix(-1 0 0 1 1292.6 0)" xlink:href="#a"/>
<linearGradient id="ag" x1="362.94" x2="378.35" y1="751.59" y2="751.59" xlink:href="#a"/>
<linearGradient id="af" x1="362.94" x2="378.35" y1="799" y2="799" xlink:href="#a"/>
<linearGradient id="ae" x1="362.94" x2="378.35" y1="846.42" y2="846.42" xlink:href="#a"/>
<linearGradient id="ad" x1="362.94" x2="378.35" y1="893.83" y2="893.83" xlink:href="#a"/>
<linearGradient id="ac" x1="918.78" x2="632.08" y1="565.83" y2="565.83" xlink:href="#a"/>
<linearGradient id="ab" x1="881.24" x2="667.52" y1="495.33" y2="495.33" xlink:href="#a"/>
<linearGradient id="aa" x1="639.13" x2="942.58" y1="797.72" y2="797.72" xlink:href="#a"/>
<linearGradient id="z" x1="9.87" x2="313.33" y1="796.53" y2="796.53" gradientTransform="matrix(-1 0 0 1 912.37 0)" xlink:href="#a"/>
<linearGradient id="x" x1="639.57" x2="943.03" y1="797.72" y2="797.72" xlink:href="#a"/>
<linearGradient id="w" x1="768.33" x2="771.89" y1="806.11" y2="806.11" xlink:href="#a"/>
<linearGradient id="v" x1="720.39" x2="775.44" y1="708.22" y2="708.22" xlink:href="#a"/>
<linearGradient id="u" x1="469.14" x2="526.69" y1="707.76" y2="707.76" gradientTransform="matrix(-1 0 0 1 1292.6 0)" xlink:href="#a"/>
<linearGradient id="t" x1="779" x2="794.41" y1="750.4" y2="750.4" xlink:href="#a"/>
<linearGradient id="s" x1="779" x2="794.41" y1="797.82" y2="797.82" xlink:href="#a"/>
<linearGradient id="r" x1="779" x2="794.41" y1="845.23" y2="845.23" xlink:href="#a"/>
<linearGradient id="q" x1="779" x2="794.41" y1="892.64" y2="892.64" xlink:href="#a"/>
<linearGradient id="p" x1="432.68" x2="736.13" y1="832.12" y2="832.12" xlink:href="#a"/>
<linearGradient id="o" x1="216.32" x2="519.78" y1="830.93" y2="830.93" gradientTransform="matrix(-1 0 0 1 912.37 0)" xlink:href="#a"/>
<linearGradient id="m" x1="433.12" x2="736.58" y1="832.12" y2="832.12" xlink:href="#a"/>
<linearGradient id="l" x1="561.88" x2="565.44" y1="840.51" y2="840.51" xlink:href="#a"/>
<linearGradient id="k" x1="513.94" x2="568.99" y1="742.62" y2="742.62" xlink:href="#a"/>
<linearGradient id="j" x1="675.59" x2="733.14" y1="742.16" y2="742.16" gradientTransform="matrix(-1 0 0 1 1292.6 0)" xlink:href="#a"/>
<linearGradient id="i" x1="572.55" x2="587.96" y1="784.8" y2="784.8" xlink:href="#a"/>
<linearGradient id="h" x1="572.55" x2="587.96" y1="832.22" y2="832.22" xlink:href="#a"/>
<linearGradient id="g" x1="572.55" x2="587.96" y1="879.63" y2="879.63" xlink:href="#a"/>
<linearGradient id="f" x1="572.55" x2="587.96" y1="927.05" y2="927.05" xlink:href="#a"/>
</defs>
<ellipse class="cls-2" cx="562.5" cy="518" rx="416.5" ry="416"/>
<path class="cls-3" d="m253.68 573.55a8 8 0 0 0-7.22-2l-5.24-4.95a39.76 39.76 0 1 0-6.29 5.8l5.45 5.15a8 8 0 0 0 2.27 7.68l6.3 5.95 11-11.67zm-73.18-32.84a30.95 30.95 0 1 1 30.95 30.95 30.94 30.94 0 0 1-30.95-30.95z"/>
<path class="cls-4" d="m280.4 598.79-17.32-16.35-11 11.68 17.32 16.35a8 8 0 1 0 11-11.68z"/>
<path class="cls-5" d="m872.59 575.64-30.35-15.86a4.75 4.75 0 1 0-4.4 8.41l30.36 15.86a4.74 4.74 0 1 0 4.39-8.41z"/>
<path class="cls-6" d="m866.6 585.48-30.35-15.86a4.75 4.75 0 1 0-4.4 8.42l30.35 15.86a4.75 4.75 0 0 0 4.4-8.42z"/>
<path class="cls-7" d="m834.12 593.43 15.48 8.09a9.51 9.51 0 0 0 12.82-4l-32.31-16.89a9.51 9.51 0 0 0 4.01 12.8z"/>
<path class="cls-8" d="m918.2 451.39a54.68 54.68 0 0 0-67.92 82.74l-7.74 14.81a6.1 6.1 0 0 0 2.58 8.23l28 14.61a6.1 6.1 0 0 0 8.24-2.58l7.73-14.81a54.67 54.67 0 0 0 29.15-103zm-32.08 96.18-6.85 13.12c-1.39 2.64-4.28 3.86-6.46 2.72l-20.44-10.68c-2.18-1.14-2.83-4.21-1.45-6.85l6.85-13.12c-9-13.16-16.1-37.25-6.9-54.85 12.39-23.71 44.49-30.22 64.06-20s32.33 40.19 19.94 63.9c-9.19 17.59-32.78 25.67-48.75 25.76z"/>
<path class="cls-9" d="m507.59 412.3-4.44-9.11a74.94 74.94 0 0 0 29.32-35.95l10.39 2.82a5.65 5.65 0 0 0 6.94-4l3.71-13.68a5.66 5.66 0 0 0-4-6.94l-12-3.24a74.67 74.67 0 0 0-3.21-24.2l10.7-5.43a5.66 5.66 0 0 0 2.51-7.6l-6.38-12.66a5.67 5.67 0 0 0-7.61-2.5l-10.73 5.4a74.83 74.83 0 0 0-26.79-22.52l3.09-10.81a5.67 5.67 0 0 0-3.88-7l-13.62-3.88a5.66 5.66 0 0 0-7 3.89l-3 10.44a74.85 74.85 0 0 0-33.84 3.59l-5.6-11.48a5.65 5.65 0 0 0-7.57-2.62l-12.73 6.18a5.66 5.66 0 0 0-2.61 7.57l6.15 12.63a74.67 74.67 0 0 0-19 22.72l-13.1-3.55a5.66 5.66 0 0 0-6.95 4l-3.74 13.63a5.66 5.66 0 0 0 4 6.95l11.52 3.12a74.65 74.65 0 0 0 2.32 33.93l-10.73 5.4a5.67 5.67 0 0 0-2.5 7.61l6.38 12.66a5.66 5.66 0 0 0 7.6 2.5l10.73-5.4a75 75 0 0 0 28.81 23.47l-3.52 12.3a5.66 5.66 0 0 0 3.89 7l13.63 3.9a5.66 5.66 0 0 0 7-3.89l3.62-12.66a74.54 74.54 0 0 0 24.3-1.68l5 10.29a5.66 5.66 0 0 0 7.57 2.61l12.78-6.24a5.66 5.66 0 0 0 2.59-7.57zm-89.59-49.94a49.73 49.73 0 1 1 66.79 22 49.73 49.73 0 0 1-66.79-22z"/>
<path class="cls-10" d="M475.82,215.23l-1.62-3.34a27.35,27.35,0,0,0,10.73-13.17l3.81,1a2.07,2.07,0,0,0,2.54-1.45l1.36-5a2.07,2.07,0,0,0-1.46-2.55l-4.38-1.19a27.33,27.33,0,0,0-1.2-8.87l3.93-2a2.07,2.07,0,0,0,.92-2.78l-2.34-4.64a2.07,2.07,0,0,0-2.78-.92l-3.93,2a27.26,27.26,0,0,0-9.82-8.24l1.14-4a2.09,2.09,0,0,0-1.43-2.57l-5-1.42a2.06,2.06,0,0,0-2.56,1.42l-1.1,3.83a27.3,27.3,0,0,0-12.39,1.31l-2.05-4.21a2.06,2.06,0,0,0-2.77-.95l-4.67,2.27a2.07,2.07,0,0,0-1,2.77l2.26,4.63a27.35,27.35,0,0,0-7,8.32l-4.79-1.3a2.07,2.07,0,0,0-2.55,1.46l-1.35,5a2.07,2.07,0,0,0,1.46,2.54l4.21,1.14a27.41,27.41,0,0,0,.86,12.4l-3.93,2a2.09,2.09,0,0,0-.92,2.79l2.34,4.63a2.08,2.08,0,0,0,2.79.92l3.92-2a27.35,27.35,0,0,0,10.56,8.59l-1.29,4.51a2.06,2.06,0,0,0,1.42,2.56l5,1.43a2.08,2.08,0,0,0,2.57-1.42l1.32-4.64a27.33,27.33,0,0,0,8.9-.61l1.84,3.76a2.07,2.07,0,0,0,2.77,1l4.67-2.27A2.07,2.07,0,0,0,475.82,215.23ZM443,196.94A18.21,18.21,0,1,1,467.46,205,18.21,18.21,0,0,1,443,196.94Z"/>
<path class="cls-11" d="M671.47,372.37l-5.29-.07a39.13,39.13,0,0,0-9.86-22.12l3.75-4.18a3,3,0,0,0-.22-4.17l-5.51-4.94a2.94,2.94,0,0,0-4.17.22l-4.32,4.81a39.22,39.22,0,0,0-12.06-4.17v-6.27a3,3,0,0,0-3-3h-7.4a3,3,0,0,0-3,3v6.27a39.12,39.12,0,0,0-16.79,7.2l-4.31-4a3,3,0,0,0-4.18.17l-5,5.43a3,3,0,0,0,.16,4.18l4.17,3.85a39,39,0,0,0-6.28,16.62l-6.67-.1a3,3,0,0,0-3,2.92l-.1,7.4a3,3,0,0,0,2.91,3l7.34.1a38.94,38.94,0,0,0,6.11,14.21L590.08,404a3,3,0,0,0,.22,4.18l5.51,4.94a3,3,0,0,0,4.17-.22l4.16-4.64a39.11,39.11,0,0,0,16.33,6.87v6.27a3,3,0,0,0,3,3h7.4a3,3,0,0,0,3-3v-6.27a39.11,39.11,0,0,0,17.71-7.91l4.91,4.53a2.94,2.94,0,0,0,4.17-.17l5-5.43a3,3,0,0,0-.16-4.18l-5.05-4.66a39.31,39.31,0,0,0,4.93-11.73l6,.08a3,3,0,0,0,3-2.91l.1-7.4A3,3,0,0,0,671.47,372.37Zm-44.34,30a26,26,0,1,1,26-26A26,26,0,0,1,627.13,402.41Z"/>
<path class="cls-12" d="M830.37,244.48l-10.14-.15A74.87,74.87,0,0,0,801.34,202l7.19-8a5.66,5.66,0,0,0-.43-8l-10.54-9.47a5.67,5.67,0,0,0-8,.43l-8.28,9.22a74.48,74.48,0,0,0-23.1-8v-12a5.67,5.67,0,0,0-5.67-5.67H738.34a5.66,5.66,0,0,0-5.66,5.67v12A74.71,74.71,0,0,0,700.5,192l-8.26-7.63a5.66,5.66,0,0,0-8,.32l-9.62,10.41a5.67,5.67,0,0,0,.32,8l8,7.37a74.64,74.64,0,0,0-12,31.83l-12.78-.18a5.67,5.67,0,0,0-5.74,5.59l-.2,14.17a5.67,5.67,0,0,0,5.59,5.74l14,.19A74.73,74.73,0,0,0,683.52,295l-9.07,10.1a5.66,5.66,0,0,0,.43,8l10.55,9.47a5.65,5.65,0,0,0,8-.43l8-8.88a74.71,74.71,0,0,0,31.28,13.15v12a5.66,5.66,0,0,0,5.66,5.67h14.17a5.67,5.67,0,0,0,5.67-5.67v-12a74.86,74.86,0,0,0,33.93-15.15l9.4,8.68a5.66,5.66,0,0,0,8-.32l9.61-10.42a5.66,5.66,0,0,0-.31-8l-9.67-8.93a74.88,74.88,0,0,0,9.44-22.46L830,270a5.65,5.65,0,0,0,5.74-5.58l.2-14.17A5.66,5.66,0,0,0,830.37,244.48ZM745.43,302a49.73,49.73,0,1,1,49.72-49.72A49.73,49.73,0,0,1,745.43,302Z"/>
<path class="cls-13" d="M653.59,166.12l-3.71-.06A27.51,27.51,0,0,0,643,150.55l2.63-2.93a2.06,2.06,0,0,0-.16-2.93l-3.86-3.47a2.07,2.07,0,0,0-2.93.16l-3,3.37a27.21,27.21,0,0,0-8.46-2.92v-4.4a2.07,2.07,0,0,0-2.07-2.07h-5.19a2.08,2.08,0,0,0-2.08,2.07v4.4a27.32,27.32,0,0,0-11.78,5l-3-2.79a2.07,2.07,0,0,0-2.93.11L596.55,148a2.07,2.07,0,0,0,.12,2.93l2.92,2.7a27.31,27.31,0,0,0-4.41,11.65l-4.68-.06a2.07,2.07,0,0,0-2.1,2l-.07,5.19a2.08,2.08,0,0,0,2,2.11l5.15.07a27.28,27.28,0,0,0,4.29,10l-3.32,3.7a2.07,2.07,0,0,0,.15,2.93l3.87,3.47a2.08,2.08,0,0,0,2.93-.16l2.91-3.25a27.47,27.47,0,0,0,11.46,4.81v4.4a2.08,2.08,0,0,0,2.08,2.08h5.19a2.08,2.08,0,0,0,2.07-2.08v-4.4a27.37,27.37,0,0,0,12.43-5.55l3.44,3.18a2.06,2.06,0,0,0,2.93-.12l3.52-3.81a2.07,2.07,0,0,0-.12-2.93l-3.54-3.27a27.59,27.59,0,0,0,3.46-8.22l4.19,0a2.07,2.07,0,0,0,2.1-2l.07-5.19A2.06,2.06,0,0,0,653.59,166.12Zm-31.11,21.07A18.21,18.21,0,1,1,640.69,169,18.21,18.21,0,0,1,622.48,187.19Z"/>
<path class="cls-14" d="M914.19,355.7l-3.72-.05a27.43,27.43,0,0,0-6.91-15.52l2.63-2.93a2.07,2.07,0,0,0-.16-2.93l-3.86-3.47a2.08,2.08,0,0,0-2.93.16l-3,3.37a27.47,27.47,0,0,0-8.46-2.92V327a2.07,2.07,0,0,0-2.07-2.07h-5.2a2.07,2.07,0,0,0-2.07,2.07v4.4a27.44,27.44,0,0,0-11.78,5l-3-2.79a2.07,2.07,0,0,0-2.93.11l-3.52,3.82a2.07,2.07,0,0,0,.12,2.93l2.92,2.7a27.3,27.3,0,0,0-4.41,11.66l-4.68-.07a2.08,2.08,0,0,0-2.1,2.05l-.07,5.19a2.07,2.07,0,0,0,2,2.1l5.15.07a27.28,27.28,0,0,0,4.29,10l-3.32,3.7a2.07,2.07,0,0,0,.15,2.93l3.87,3.47a2.08,2.08,0,0,0,2.93-.16l2.91-3.25a27.47,27.47,0,0,0,11.46,4.81v4.4a2.08,2.08,0,0,0,2.07,2.08h5.2a2.08,2.08,0,0,0,2.07-2.08v-4.4a27.33,27.33,0,0,0,12.42-5.55l3.45,3.18a2.07,2.07,0,0,0,2.93-.11l3.52-3.82a2.07,2.07,0,0,0-.12-2.93l-3.54-3.27a27.59,27.59,0,0,0,3.46-8.22l4.19,0a2.07,2.07,0,0,0,2.1-2l.07-5.19A2.06,2.06,0,0,0,914.19,355.7Zm-31.11,21.07a18.21,18.21,0,1,1,18.21-18.21A18.21,18.21,0,0,1,883.08,376.77Z"/>
<path class="cls-15" d="M236.76,449.8l-1.62-3.34a27.43,27.43,0,0,0,10.73-13.16l3.81,1a2.07,2.07,0,0,0,2.54-1.46l1.36-5a2.06,2.06,0,0,0-1.46-2.54l-4.38-1.19a27.29,27.29,0,0,0-1.2-8.87l3.93-2a2.09,2.09,0,0,0,.92-2.79l-2.34-4.63a2.06,2.06,0,0,0-2.78-.92l-3.93,2a27.47,27.47,0,0,0-9.82-8.25l1.13-4a2.06,2.06,0,0,0-1.42-2.56l-5-1.43a2.07,2.07,0,0,0-2.56,1.43l-1.1,3.82a27.42,27.42,0,0,0-12.39,1.31l-2.05-4.2a2.07,2.07,0,0,0-2.77-1l-4.67,2.27a2.08,2.08,0,0,0-1,2.78l2.26,4.62a27.35,27.35,0,0,0-7,8.32l-4.79-1.3a2.07,2.07,0,0,0-2.55,1.46l-1.35,5a2.07,2.07,0,0,0,1.45,2.54L193,419a27.42,27.42,0,0,0,.86,12.4l-3.93,2a2.07,2.07,0,0,0-.92,2.78l2.34,4.64a2.07,2.07,0,0,0,2.79.91l3.92-2a27.51,27.51,0,0,0,10.55,8.6l-1.28,4.5a2.08,2.08,0,0,0,1.42,2.57l5,1.43a2.09,2.09,0,0,0,2.57-1.43l1.32-4.63a27.36,27.36,0,0,0,8.9-.62l1.84,3.77a2.07,2.07,0,0,0,2.77,1l4.66-2.28A2.07,2.07,0,0,0,236.76,449.8Zm-32.82-18.29a18.21,18.21,0,1,1,24.46,8.06A18.21,18.21,0,0,1,203.94,431.51Z"/>
<path class="cls-16" d="m294 341.28-29.35-17.64a4.75 4.75 0 0 0-4.9 8.14l29.36 17.64a4.75 4.75 0 1 0 4.89-8.14z"/>
<path class="cls-17" d="m287.43 350.75-29.36-17.64a4.75 4.75 0 1 0-4.89 8.14l29.36 17.64a4.75 4.75 0 0 0 4.89-8.14z"/>
<path class="cls-18" d="m254.53 356.75 15 9a9.5 9.5 0 0 0 13-3.25l-31.24-18.78a9.49 9.49 0 0 0 3.24 13.03z"/>
<path class="cls-19" d="m346.91 220a54.67 54.67 0 0 0-72.72 78.55l-8.61 14.32a6.1 6.1 0 0 0 2.09 8.37l27 16.25a6.09 6.09 0 0 0 8.37-2.09l8.61-14.32a54.67 54.67 0 0 0 35.26-101.08zm-37.75 94.1-7.62 12.69c-1.53 2.55-4.49 3.6-6.6 2.33l-19.77-11.88c-2.11-1.27-2.58-4.37-1-6.93l7.62-12.68c-8.25-13.68-13.86-38.15-3.63-55.17 13.78-22.93 46.21-27.52 65.14-16.15s29.88 42 16.11 65c-10.27 16.96-34.3 23.62-50.25 22.76z"/>
<path class="cls-20" d="m606.66 275.65a8 8 0 0 0-7.21-2l-5.25-5a39.61 39.61 0 1 0-6.28 5.81l5.45 5.15a8 8 0 0 0 2.26 7.68l6.3 5.95 11-11.68zm-73.18-32.84a31 31 0 1 1 30.95 30.95 31 31 0 0 1-30.95-30.95z"/>
<path class="cls-21" d="m633.39 300.89-17.32-16.35-11 11.67 17.32 16.36a8 8 0 0 0 11-11.68z"/>
<path class="cls-22" d="M778.47,409.69a6.05,6.05,0,0,0-.48-5.93l2.41-5.4a34.6,34.6,0,0,0,23.23-.78c17.23-6.69,26.13-25.17,19.87-41.27s-25.29-23.71-42.52-17-26.13,25.17-19.87,41.27A29.77,29.77,0,0,0,774,395.51l-2.5,5.6a7.11,7.11,0,0,0-5.43,4l-2.89,6.48,12.39,4.55Zm5-64.09c13.5-5.25,28.42.72,33.33,13.34s-2.07,27.09-15.57,32.34-28.43-.72-33.34-13.33S769.92,350.85,783.43,345.6Z"/>
<path class="cls-23" d="m766.2 437.17 8-17.81-12.4-4.55-8 17.81a6.07 6.07 0 0 0 3.51 8.28 7.16 7.16 0 0 0 8.89-3.73z"/>
<path class="cls-24" d="M592.65,441.31l-3.71-.05A27.41,27.41,0,0,0,582,425.74l2.63-2.93a2.07,2.07,0,0,0-.15-2.93l-3.86-3.47a2.08,2.08,0,0,0-2.93.16l-3,3.38a27.55,27.55,0,0,0-8.47-2.93v-4.39a2.07,2.07,0,0,0-2.07-2.08H559a2.07,2.07,0,0,0-2.07,2.08V417a27.48,27.48,0,0,0-11.79,5.05l-3-2.79a2.07,2.07,0,0,0-2.93.12l-3.52,3.81a2.07,2.07,0,0,0,.11,2.93l2.92,2.7a27.47,27.47,0,0,0-4.4,11.66l-4.68-.07a2.07,2.07,0,0,0-2.1,2.05l-.08,5.19a2.08,2.08,0,0,0,2.05,2.1l5.14.07a27.67,27.67,0,0,0,4.29,10l-3.32,3.69a2.08,2.08,0,0,0,.16,2.93l3.86,3.47a2.08,2.08,0,0,0,2.93-.16l2.92-3.25a27.38,27.38,0,0,0,11.46,4.82v4.4a2.07,2.07,0,0,0,2.07,2.07h5.19a2.07,2.07,0,0,0,2.07-2.07v-4.4a27.42,27.42,0,0,0,12.43-5.55l3.44,3.18a2.08,2.08,0,0,0,2.93-.12l3.52-3.81a2.08,2.08,0,0,0-.11-2.94l-3.54-3.27a27.21,27.21,0,0,0,3.45-8.22l4.19.06a2.09,2.09,0,0,0,2.11-2l.07-5.19A2.08,2.08,0,0,0,592.65,441.31Zm-31.1,21.07a18.21,18.21,0,1,1,18.21-18.21A18.21,18.21,0,0,1,561.55,462.38Z"/>
<g class="cls-25">
<path class="cls-26" d="M222.87,694.82s-18.38-10-5.64-39.37c0,0-17.48-24.5,0-39.39,0,0-11.65-20,4.7-34,0,0-15.13-23.64,5.35-35.43,0,0-15.78-24.62,7.68-33.61,0,0-15.66-27.48,14.57-41.35,0,0-9.94-23,18.44-32.64,0,0-5.08-19.94,21.73-23.7,0,0,6.75-29.09,36.34-19.39,0,0,13.39-24.46,36.9-3.83,0,0,23.89-16.29,39.7,9.29,0,0,27.66-6.8,30,20,0,0,28.32-1.36,20.68,24.6,0,0,26.79,5.12,14.31,25.62,0,0,25.46,8.35,12.42,28.65,0,0,23.67,14.63,8.87,31.69,0,0,19.79,13.25,4.87,32.34L499,608l1.89,58.55Z"/>
<path class="cls-27" d="M334.49,749.81C357.54,861.73,300,741.5,218.32,726.1c0,0-22.52-311.75,137.5-311.75C526.52,414.35,499.25,732,499.25,732L373.6,719Z"/>
<rect class="cls-28" x="319.08" y="652.61" width="73.49" height="79.42"/>
<ellipse class="cls-29" cx="355.82" cy="549.48" rx="85.35" ry="125.65"/>
<path class="cls-30" d="m273.31 549.34c36.14 21.42 93.29-13.56 112-46.59 7.05-12.48-7-12.52 0 0 11.77 20.61 70.29 68.12 75.86 45l19-24.89c1.93-8-13.74-35.14-19-41.49l-51.17-40.9a57.06 57.06 0 0 0-51.14-20.35l-43.22 5.4c-5-8.12-13.36 4.54-17.61 10.17l-28.69 37.94a26.6 26.6 0 0 0-2.45 3.93l-34.51 33.49c-8.93 17.52 24.03 28.27 40.93 38.29z"/>
<path class="cls-31" d="M316.71,692.71s34.37,33,74.67,0c0,0,64,1.39,97.2,26.28s37.94,186.1,37.94,186.1H223.06Z"/>
<path class="cls-32" d="M317.89,691.73l.22-.2s-64,1.38-97.2,26.27S183,903.91,183,903.91H486.43Z"/>
<path class="cls-33" d="M391.38,692.91l.45-.2s64,1.39,97.2,26.28S527,905.09,527,905.09H223.51Z"/>
<rect class="cls-34" x="352.27" y="709.51" width="3.56" height="195.58"/>
<path class="cls-35" d="m319.08 689.35s4.74 16.52 40.3 15.38c0 0-23.71 27.3-40.3 24.93 0 0-33.19-45.05 0-40.31z"/>
<path class="cls-36" d="m392.69 688.89s-7.23 17-42.79 15.87c0 0 26.19 26.8 42.79 24.43 0 0 33.19-45.04 0-40.3z"/>
<circle class="cls-37" cx="370.64" cy="751.59" r="7.7"/>
<circle class="cls-38" cx="370.64" cy="799" r="7.7"/>
<circle class="cls-39" cx="370.64" cy="846.42" r="7.7"/>
<circle class="cls-40" cx="370.64" cy="893.83" r="7.7"/>
<path class="cls-41" d="m770.5 620.1c30.57 134.29-47.35 72.58-137.5 32 0 0-21.14-238.95 138.89-238.95 170.69 0 145.6 256.73 145.6 256.73l-151.73 48.6z"/>
<rect class="cls-28" x="735.14" y="651.42" width="73.49" height="79.42"/>
<ellipse class="cls-29" cx="771.89" cy="548.3" rx="85.35" ry="125.65"/>
<path class="cls-42" d="m667.57 548.3s110.24 11.85 136.32-40.3c0 0 11 57 51.73 64.68l18.32-36.91a70 70 0 0 0-25.49-90.36l-36.26-22.75-19.39-3.3a96 96 0 0 0-67.46 13.52l-11.06 7a100.5 100.5 0 0 0-46.76 85.18z"/>
<path class="cls-43" d="M732.77,691.53s34.37,33,74.68,0c0,0,64,1.38,97.2,26.27s37.93,186.11,37.93,186.11H639.13Z"/>
<path class="cls-44" d="M734,690.54l.22-.2s-64,1.39-97.2,26.28S599,902.72,599,902.72H902.5Z"/>
<path class="cls-45" d="M807.45,691.73l.45-.2s64,1.38,97.2,26.27S943,903.91,943,903.91H639.57Z"/>
<rect class="cls-46" x="768.33" y="708.32" width="3.56" height="195.58"/>
<path class="cls-47" d="m735.14 688.17s4.74 16.52 40.3 15.37c0 0-23.71 27.3-40.3 24.93 0 0-33.14-45.04 0-40.3z"/>
<path class="cls-48" d="m808.75 687.71s-7.23 17-42.79 15.87c0 0 26.2 26.8 42.79 24.43 0-0.01 33.19-45.01 0-40.3z"/>
<circle class="cls-49" cx="786.7" cy="750.4" r="7.7"/>
<circle class="cls-50" cx="786.7" cy="797.82" r="7.7"/>
<circle class="cls-51" cx="786.7" cy="845.23" r="7.7"/>
<circle class="cls-52" cx="786.7" cy="892.64" r="7.7"/>
<path class="cls-53" d="m544.1 783c23 111.92-34.48-8.3-116.17-23.7 0 0-22.52-311.75 137.51-311.75 170.69 0 143.42 317.67 143.42 317.67l-125.64-13z"/>
<rect class="cls-28" x="528.69" y="685.82" width="73.49" height="79.42"/>
<ellipse class="cls-29" cx="565.44" cy="582.7" rx="85.35" ry="125.65"/>
<path class="cls-53" d="m461.12 582.7s110.24 11.85 136.32-40.3c0 0 11 57 51.73 64.67l18.21-75.34-61.64-74.68-55.74-9.48-64 54.52z"/>
<path class="cls-54" d="M526.32,725.93s34.37,33,74.68,0c0,0,64,1.38,97.2,26.27s37.93,186.11,37.93,186.11H432.68Z"/>
<path class="cls-55" d="M527.5,724.94l.22-.2s-64,1.39-97.2,26.28-37.93,186.1-37.93,186.1H696Z"/>
<path class="cls-56" d="M601,726.13l.45-.2s64,1.38,97.2,26.27,37.93,186.11,37.93,186.11H433.12Z"/>
<rect class="cls-57" x="561.88" y="742.72" width="3.56" height="195.58"/>
<path class="cls-58" d="m528.69 722.57s4.74 16.52 40.3 15.37c0 0-23.71 27.3-40.3 24.93 0 0-33.19-45.04 0-40.3z"/>
<path class="cls-59" d="m602.3 722.11s-7.23 17-42.79 15.87c0 0 26.2 26.8 42.79 24.43 0 0 33.19-45.04 0-40.3z"/>
<circle class="cls-60" cx="580.25" cy="784.8" r="7.7"/>
<circle class="cls-61" cx="580.25" cy="832.22" r="7.7"/>
<circle class="cls-62" cx="580.25" cy="879.63" r="7.7"/>
<circle class="cls-63" cx="580.25" cy="927.05" r="7.7"/>
</g>
</svg>
