<svg width="1088" height="812" viewBox="0 0 1088 812" fill="none" xmlns="http://www.w3.org/2000/svg">
<g opacity="0.5">
<path d="M432.406 704.907C601.134 704.907 737.915 568.29 737.915 399.765C737.915 231.24 601.134 94.6233 432.406 94.6233C263.679 94.6233 126.898 231.24 126.898 399.765C126.898 568.29 263.679 704.907 432.406 704.907Z" fill="#EFDFFF"/>
<path d="M205.883 440.512C205.187 439.854 204.34 439.376 203.417 439.12C202.494 438.864 201.522 438.839 200.587 439.045L196.743 435.414C201.653 429.794 204.222 422.505 203.921 415.049C203.62 407.592 200.472 400.534 195.125 395.328C189.778 390.122 182.638 387.164 175.176 387.063C167.714 386.962 160.497 389.725 155.01 394.784C149.524 399.843 146.185 406.813 145.682 414.259C145.179 421.705 147.55 429.06 152.306 434.811C157.062 440.563 163.842 444.271 171.25 445.175C178.658 446.078 186.13 444.108 192.129 439.668L196.127 443.446C195.885 444.448 195.912 445.497 196.204 446.486C196.496 447.475 197.044 448.369 197.792 449.079L202.413 453.444L210.482 444.884L205.883 440.512ZM152.204 416.423C152.204 411.933 153.536 407.544 156.03 403.811C158.525 400.077 162.07 397.167 166.219 395.449C170.367 393.731 174.932 393.281 179.335 394.157C183.739 395.033 187.784 397.195 190.959 400.37C194.134 403.545 196.296 407.59 197.172 411.994C198.048 416.398 197.599 420.963 195.881 425.111C194.162 429.259 191.252 432.805 187.519 435.299C183.786 437.794 179.396 439.125 174.906 439.125C171.925 439.126 168.972 438.54 166.217 437.399C163.463 436.259 160.96 434.587 158.851 432.478C156.743 430.37 155.071 427.867 153.93 425.112C152.79 422.357 152.203 419.405 152.204 416.423Z" fill="url(#paint0_linear)"/>
<path d="M225.482 459.026L212.778 447.033L204.709 455.6L217.414 467.593C217.976 468.123 218.637 468.537 219.36 468.811C220.082 469.085 220.852 469.214 221.624 469.191C222.397 469.168 223.157 468.993 223.862 468.676C224.566 468.359 225.202 467.906 225.732 467.344C226.261 466.781 226.675 466.12 226.949 465.397C227.224 464.675 227.353 463.906 227.33 463.133C227.306 462.361 227.131 461.6 226.814 460.896C226.497 460.191 226.045 459.556 225.482 459.026Z" fill="url(#paint1_linear)"/>
<path d="M659.862 442.045L637.6 430.411C637.193 430.176 636.743 430.025 636.276 429.969C635.81 429.912 635.336 429.95 634.885 430.081C634.434 430.212 634.013 430.433 633.65 430.73C633.286 431.028 632.986 431.396 632.768 431.812C632.55 432.229 632.419 432.685 632.382 433.153C632.345 433.622 632.403 434.093 632.553 434.538C632.703 434.984 632.941 435.394 633.254 435.745C633.567 436.096 633.947 436.38 634.372 436.58L656.642 448.214C657.46 448.641 658.414 448.725 659.294 448.449C660.175 448.172 660.909 447.557 661.336 446.739C661.763 445.921 661.848 444.967 661.571 444.087C661.295 443.206 660.68 442.472 659.862 442.045Z" fill="url(#paint2_linear)"/>
<path d="M655.468 449.263L633.206 437.629C632.8 437.417 632.357 437.287 631.901 437.247C631.446 437.206 630.986 437.256 630.55 437.393C630.113 437.529 629.708 437.751 629.357 438.045C629.006 438.338 628.716 438.698 628.504 439.103C628.292 439.509 628.162 439.952 628.122 440.408C628.081 440.864 628.131 441.323 628.268 441.76C628.404 442.196 628.626 442.602 628.92 442.953C629.213 443.304 629.573 443.593 629.978 443.805L652.241 455.439C653.06 455.867 654.015 455.952 654.897 455.675C655.779 455.399 656.514 454.783 656.942 453.964C657.37 453.145 657.456 452.19 657.179 451.308C656.903 450.426 656.287 449.691 655.468 449.263Z" fill="url(#paint3_linear)"/>
<path d="M631.644 455.094L642.998 461.028C644.635 461.883 646.544 462.055 648.307 461.505C650.069 460.955 651.542 459.728 652.402 458.094L628.702 445.705C627.852 447.341 627.684 449.247 628.236 451.006C628.787 452.766 630.012 454.235 631.644 455.094Z" fill="url(#paint4_linear)"/>
<path d="M693.317 350.906C685.151 346.641 675.766 345.317 666.739 347.157C657.712 348.997 649.594 353.889 643.749 361.009C637.903 368.13 634.687 377.046 634.642 386.258C634.596 395.471 637.723 404.418 643.497 411.597L637.82 422.46C637.27 423.512 637.161 424.738 637.516 425.87C637.871 427.002 638.661 427.947 639.712 428.497L660.251 439.214C660.772 439.487 661.341 439.654 661.927 439.707C662.513 439.76 663.104 439.696 663.665 439.521C664.227 439.345 664.748 439.06 665.199 438.683C665.65 438.305 666.023 437.843 666.295 437.321L671.965 426.458C681.158 427.108 690.295 424.571 697.838 419.274C705.38 413.978 710.868 406.245 713.378 397.376C715.888 388.508 715.266 379.046 711.618 370.582C707.97 362.119 701.517 355.17 693.347 350.906H693.317ZM669.786 421.455L664.762 431.079C663.742 433.015 661.622 433.91 660.023 433.074L645.03 425.24C643.431 424.404 642.954 422.152 643.967 420.215L648.991 410.592C642.39 400.939 637.182 383.268 643.93 370.359C653.018 352.967 676.564 348.192 690.919 355.688C705.274 363.185 714.633 385.168 705.545 402.56C698.804 415.462 681.501 421.389 669.786 421.455Z" fill="url(#paint5_linear)"/>
<path opacity="0.47" d="M392.129 322.233L388.872 315.55C398.65 309.256 406.18 300.024 410.379 289.181L418 291.249C418.527 291.392 419.077 291.43 419.619 291.359C420.16 291.289 420.682 291.113 421.155 290.84C421.629 290.567 422.043 290.204 422.375 289.771C422.707 289.337 422.951 288.843 423.091 288.315L425.812 278.281C425.954 277.754 425.991 277.204 425.92 276.663C425.85 276.122 425.673 275.6 425.401 275.127C425.128 274.654 424.765 274.24 424.332 273.907C423.899 273.575 423.405 273.331 422.878 273.19L414.076 270.813C414.27 264.807 413.475 258.81 411.721 253.062L419.57 249.079C420.553 248.584 421.3 247.719 421.645 246.673C421.99 245.628 421.906 244.488 421.411 243.505L416.731 234.218C416.233 233.236 415.366 232.491 414.32 232.147C413.273 231.803 412.133 231.889 411.149 232.385L403.279 236.346C398.126 229.363 391.392 223.702 383.628 219.827L385.894 211.898C386.196 210.839 386.065 209.705 385.532 208.742C384.999 207.78 384.105 207.068 383.048 206.763L373.058 203.917C372.533 203.767 371.985 203.722 371.443 203.784C370.901 203.846 370.376 204.014 369.899 204.279C369.422 204.544 369.002 204.901 368.663 205.328C368.324 205.756 368.073 206.246 367.923 206.77L365.723 214.428C357.356 213.388 348.863 214.29 340.901 217.061L336.793 208.641C336.556 208.149 336.223 207.709 335.816 207.346C335.408 206.983 334.932 206.704 334.416 206.526C333.9 206.347 333.354 206.272 332.809 206.305C332.264 206.339 331.731 206.479 331.24 206.719L321.903 211.252C321.412 211.491 320.974 211.824 320.612 212.232C320.25 212.64 319.973 213.116 319.795 213.632C319.617 214.147 319.543 214.693 319.576 215.237C319.609 215.782 319.749 216.314 319.988 216.805L324.499 226.069C318.788 230.638 314.049 236.304 310.563 242.734L300.953 240.13C300.426 239.987 299.876 239.95 299.334 240.02C298.792 240.09 298.269 240.266 297.795 240.539C297.322 240.812 296.907 241.175 296.574 241.608C296.241 242.042 295.997 242.537 295.856 243.065L293.112 253.062C292.969 253.59 292.932 254.14 293.002 254.682C293.072 255.224 293.248 255.747 293.521 256.221C293.793 256.694 294.157 257.109 294.59 257.442C295.024 257.775 295.518 258.019 296.046 258.16L304.496 260.449C303.141 268.765 303.723 277.282 306.198 285.337L298.327 289.298C297.345 289.796 296.6 290.663 296.256 291.71C295.912 292.756 295.998 293.896 296.494 294.88L301.174 304.166C301.67 305.148 302.536 305.893 303.581 306.237C304.627 306.581 305.766 306.496 306.748 306L314.619 302.039C320.107 309.459 327.375 315.38 335.751 319.255L333.169 328.277C333.019 328.801 332.974 329.35 333.036 329.892C333.099 330.434 333.267 330.959 333.532 331.436C333.797 331.912 334.153 332.332 334.581 332.671C335.008 333.01 335.498 333.262 336.023 333.411L346.021 336.272C346.545 336.422 347.094 336.467 347.636 336.405C348.178 336.343 348.702 336.175 349.179 335.91C349.656 335.645 350.076 335.288 350.415 334.861C350.754 334.433 351.006 333.943 351.155 333.419L353.811 324.133C359.779 324.702 365.801 324.286 371.635 322.9L375.302 330.448C375.541 330.938 375.874 331.377 376.283 331.739C376.691 332.1 377.166 332.378 377.682 332.556C378.198 332.734 378.743 332.808 379.288 332.775C379.832 332.742 380.365 332.602 380.855 332.363L390.229 327.785C391.217 327.301 391.972 326.443 392.329 325.402C392.685 324.361 392.613 323.221 392.129 322.233ZM326.414 285.601C323.163 279.16 321.896 271.899 322.773 264.737C323.649 257.576 326.629 250.835 331.337 245.367C336.044 239.9 342.268 235.951 349.219 234.02C356.171 232.09 363.54 232.264 370.392 234.521C377.245 236.779 383.275 241.017 387.718 246.701C392.162 252.386 394.82 259.26 395.357 266.455C395.893 273.65 394.284 280.843 390.733 287.123C387.181 293.403 381.847 298.49 375.405 301.738C366.768 306.094 356.755 306.841 347.568 303.814C338.381 300.788 330.771 294.237 326.414 285.601Z" fill="url(#paint6_linear)"/>
<path d="M368.826 177.679L367.637 175.229C371.22 172.926 373.976 169.543 375.508 165.569L378.303 166.302C378.691 166.408 379.105 166.355 379.454 166.156C379.803 165.956 380.059 165.627 380.166 165.239L381.163 161.571C381.217 161.378 381.231 161.176 381.206 160.977C381.181 160.779 381.117 160.587 381.017 160.413C380.918 160.239 380.785 160.087 380.626 159.964C380.467 159.842 380.286 159.753 380.092 159.701L376.879 158.828C376.946 156.625 376.648 154.427 375.999 152.322L378.882 150.855C379.06 150.765 379.219 150.641 379.349 150.49C379.48 150.339 379.579 150.164 379.642 149.975C379.705 149.785 379.729 149.586 379.715 149.387C379.7 149.188 379.646 148.994 379.557 148.815L377.84 145.412C377.751 145.234 377.627 145.075 377.476 144.944C377.325 144.814 377.15 144.715 376.961 144.652C376.771 144.589 376.571 144.565 376.372 144.579C376.174 144.594 375.979 144.647 375.801 144.737L372.919 146.204C371.032 143.645 368.563 141.573 365.715 140.16L366.552 137.226C366.66 136.837 366.611 136.421 366.415 136.068C366.218 135.715 365.891 135.453 365.503 135.341L361.835 134.299C361.643 134.243 361.443 134.226 361.244 134.248C361.046 134.27 360.854 134.331 360.679 134.428C360.504 134.525 360.351 134.656 360.227 134.812C360.103 134.969 360.011 135.148 359.957 135.341L359.15 138.15C356.087 137.766 352.977 138.094 350.062 139.111L348.559 136.023C348.472 135.843 348.35 135.682 348.201 135.55C348.051 135.417 347.877 135.315 347.688 135.251C347.499 135.186 347.299 135.159 347.1 135.172C346.9 135.185 346.706 135.237 346.527 135.326L343.101 136.991C342.919 137.075 342.755 137.195 342.619 137.343C342.483 137.491 342.378 137.665 342.31 137.854C342.242 138.043 342.212 138.243 342.222 138.444C342.232 138.645 342.281 138.842 342.368 139.023L344.025 142.419C341.923 144.089 340.177 146.165 338.891 148.522L335.377 147.568C335.184 147.515 334.982 147.501 334.784 147.526C334.585 147.551 334.393 147.615 334.219 147.714C334.045 147.814 333.893 147.947 333.771 148.106C333.648 148.264 333.559 148.446 333.507 148.639L332.517 152.307C332.464 152.5 332.451 152.701 332.476 152.899C332.502 153.096 332.566 153.287 332.666 153.46C332.765 153.634 332.898 153.785 333.056 153.907C333.214 154.029 333.395 154.118 333.588 154.17L336.676 155.006C336.187 158.046 336.402 161.158 337.306 164.102L334.424 165.569C334.065 165.753 333.792 166.07 333.666 166.453C333.54 166.837 333.57 167.254 333.749 167.615L335.465 171.011C335.648 171.372 335.965 171.645 336.349 171.772C336.733 171.898 337.151 171.868 337.512 171.686L340.387 170.219C342.397 172.939 345.061 175.106 348.133 176.52L347.187 179.828C347.131 180.02 347.114 180.221 347.136 180.419C347.158 180.618 347.219 180.81 347.316 180.984C347.413 181.159 347.543 181.313 347.7 181.437C347.857 181.56 348.036 181.652 348.228 181.706L351.896 182.755C352.284 182.866 352.7 182.819 353.054 182.624C353.407 182.428 353.669 182.101 353.781 181.713L354.749 178.31C356.935 178.519 359.141 178.368 361.278 177.862L362.627 180.621C362.712 180.803 362.831 180.967 362.979 181.103C363.127 181.238 363.301 181.343 363.49 181.412C363.679 181.48 363.88 181.51 364.08 181.5C364.281 181.49 364.478 181.441 364.659 181.354L368.085 179.689C368.449 179.52 368.731 179.214 368.87 178.837C369.009 178.46 368.993 178.044 368.826 177.679ZM344.752 164.263C343.562 161.904 343.099 159.246 343.42 156.624C343.742 154.001 344.834 151.533 346.558 149.532C348.282 147.53 350.561 146.085 353.106 145.378C355.652 144.672 358.35 144.736 360.859 145.563C363.368 146.389 365.575 147.942 367.202 150.023C368.829 152.104 369.802 154.622 369.999 157.256C370.195 159.891 369.606 162.524 368.305 164.824C367.005 167.123 365.052 168.986 362.693 170.175C361.127 170.965 359.421 171.439 357.671 171.569C355.922 171.7 354.164 171.484 352.498 170.935C350.832 170.386 349.29 169.514 347.961 168.37C346.632 167.225 345.541 165.829 344.752 164.263Z" fill="url(#paint7_linear)"/>
<path opacity="0.33" d="M512.338 292.943L508.457 292.892C507.823 286.855 505.291 281.174 501.225 276.667L503.975 273.601C504.351 273.17 504.544 272.61 504.514 272.039C504.484 271.468 504.233 270.931 503.814 270.542L499.772 266.918C499.562 266.727 499.315 266.579 499.047 266.484C498.778 266.388 498.494 266.347 498.209 266.362C497.925 266.377 497.646 266.448 497.39 266.571C497.133 266.694 496.903 266.867 496.714 267.08L493.545 270.608C490.783 269.112 487.795 268.079 484.699 267.549V262.95C484.699 262.366 484.467 261.807 484.054 261.394C483.642 260.981 483.082 260.75 482.498 260.75H477.07C476.487 260.75 475.927 260.981 475.514 261.394C475.101 261.807 474.87 262.366 474.87 262.95V267.549C470.405 268.313 466.185 270.123 462.554 272.831L459.392 269.896C458.966 269.514 458.407 269.313 457.834 269.336C457.262 269.359 456.721 269.605 456.326 270.021L452.659 274.004C452.275 274.43 452.073 274.988 452.095 275.561C452.117 276.134 452.361 276.675 452.776 277.07L455.835 279.894C453.382 283.549 451.806 287.721 451.228 292.085L446.336 292.012C445.762 292.012 445.211 292.235 444.8 292.636C444.389 293.036 444.151 293.58 444.135 294.154L444.062 299.582C444.062 300.154 444.285 300.704 444.683 301.115C445.082 301.526 445.624 301.765 446.197 301.782L451.581 301.856C452.362 305.595 453.886 309.139 456.062 312.279L452.637 316.145C452.259 316.576 452.064 317.138 452.094 317.71C452.125 318.283 452.377 318.821 452.798 319.211L456.84 322.834C457.271 323.21 457.831 323.403 458.402 323.373C458.973 323.343 459.51 323.092 459.899 322.673L462.95 319.269C466.505 321.843 470.603 323.567 474.928 324.309V328.908C474.928 329.491 475.16 330.051 475.573 330.464C475.986 330.876 476.545 331.108 477.129 331.108H482.557C483.14 331.108 483.7 330.876 484.113 330.464C484.526 330.051 484.757 329.491 484.757 328.908V324.309C489.506 323.496 493.974 321.501 497.748 318.506L501.349 321.829C501.558 322.023 501.803 322.173 502.07 322.272C502.337 322.371 502.621 322.415 502.905 322.404C503.189 322.392 503.468 322.324 503.726 322.204C503.984 322.084 504.216 321.915 504.408 321.705L508.076 317.722C508.459 317.296 508.662 316.737 508.64 316.165C508.618 315.592 508.373 315.051 507.958 314.655L504.254 311.237C505.919 308.585 507.14 305.679 507.87 302.633L512.272 302.692C512.844 302.692 513.394 302.469 513.805 302.071C514.216 301.672 514.455 301.129 514.472 300.557L514.545 295.129C514.542 294.547 514.307 293.99 513.893 293.58C513.479 293.17 512.92 292.942 512.338 292.943ZM479.814 314.949C476.042 314.949 472.354 313.83 469.218 311.735C466.082 309.639 463.637 306.661 462.194 303.176C460.75 299.691 460.373 295.856 461.109 292.157C461.844 288.457 463.661 285.059 466.328 282.392C468.995 279.725 472.393 277.908 476.093 277.173C479.792 276.437 483.627 276.814 487.112 278.258C490.597 279.701 493.575 282.146 495.671 285.282C497.766 288.418 498.885 292.106 498.885 295.878C498.889 298.384 498.398 300.868 497.442 303.185C496.485 305.502 495.081 307.608 493.309 309.382C491.538 311.156 489.434 312.563 487.119 313.524C484.803 314.484 482.32 314.978 479.814 314.978V314.949Z" fill="url(#paint8_linear)"/>
<path opacity="0.47" d="M628.893 199.134L621.455 199.024C620.237 187.469 615.386 176.598 607.599 167.975L612.873 162.107C613.238 161.701 613.519 161.227 613.701 160.712C613.883 160.198 613.961 159.652 613.932 159.107C613.903 158.562 613.766 158.028 613.53 157.536C613.295 157.044 612.964 156.603 612.558 156.238L604.826 149.292C604.006 148.557 602.927 148.177 601.827 148.236C600.727 148.295 599.695 148.788 598.958 149.608L592.885 156.371C587.598 153.495 581.873 151.512 575.941 150.502V141.7C575.941 140.597 575.502 139.539 574.722 138.759C573.942 137.979 572.885 137.541 571.782 137.541H561.388C560.842 137.541 560.301 137.649 559.797 137.858C559.293 138.067 558.835 138.373 558.449 138.76C558.064 139.146 557.758 139.605 557.55 140.109C557.342 140.614 557.235 141.154 557.236 141.7V150.502C548.676 151.963 540.585 155.438 533.631 160.64L527.573 155.043C527.172 154.673 526.702 154.385 526.191 154.197C525.679 154.008 525.135 153.923 524.59 153.944C524.045 153.966 523.51 154.095 523.015 154.324C522.52 154.553 522.074 154.877 521.704 155.278L514.648 162.913C513.903 163.723 513.509 164.796 513.553 165.896C513.597 166.996 514.075 168.034 514.883 168.782L520.751 174.188C516.059 181.189 513.047 189.179 511.949 197.535L502.574 197.403C501.473 197.39 500.41 197.814 499.621 198.582C498.832 199.351 498.38 200.402 498.364 201.504L498.217 211.898C498.204 212.999 498.628 214.062 499.397 214.851C500.165 215.64 501.216 216.092 502.318 216.108L512.587 216.247C514.091 223.402 517.012 230.183 521.176 236.191L514.523 243.6C514.158 244.006 513.877 244.48 513.695 244.994C513.513 245.509 513.435 246.054 513.464 246.599C513.494 247.144 513.63 247.678 513.866 248.171C514.102 248.663 514.432 249.104 514.839 249.468L522.577 256.414C522.983 256.78 523.456 257.063 523.971 257.245C524.486 257.427 525.032 257.506 525.577 257.477C526.122 257.447 526.656 257.311 527.149 257.074C527.641 256.838 528.082 256.506 528.445 256.099L534.314 249.585C541.121 254.518 548.971 257.818 557.258 259.231V268.033C557.257 268.579 557.364 269.12 557.572 269.624C557.78 270.129 558.086 270.587 558.471 270.974C558.857 271.36 559.315 271.667 559.819 271.876C560.323 272.085 560.864 272.192 561.41 272.192H571.803C572.907 272.192 573.964 271.754 574.744 270.974C575.524 270.194 575.963 269.136 575.963 268.033V259.231C585.061 257.677 593.62 253.856 600.851 248.118L607.746 254.485C608.146 254.855 608.616 255.143 609.128 255.331C609.64 255.52 610.183 255.606 610.728 255.584C611.273 255.562 611.809 255.433 612.304 255.204C612.799 254.975 613.244 254.651 613.614 254.251L620.663 246.607C621.033 246.207 621.321 245.738 621.51 245.226C621.7 244.715 621.786 244.171 621.765 243.626C621.744 243.081 621.615 242.546 621.387 242.051C621.159 241.555 620.836 241.11 620.436 240.739L613.342 234.189C616.534 229.112 618.873 223.547 620.267 217.714L628.621 217.854C629.167 217.862 629.709 217.763 630.216 217.562C630.723 217.361 631.185 217.062 631.577 216.681C631.968 216.301 632.28 215.847 632.495 215.346C632.711 214.845 632.825 214.306 632.832 213.761L632.979 203.367C632.989 202.82 632.892 202.277 632.692 201.768C632.492 201.26 632.194 200.795 631.815 200.402C631.435 200.009 630.982 199.694 630.48 199.477C629.979 199.259 629.439 199.143 628.893 199.134ZM566.588 241.326C559.373 241.328 552.319 239.189 546.32 235.182C540.32 231.174 535.643 225.477 532.881 218.811C530.119 212.146 529.397 204.81 530.804 197.734C532.211 190.657 535.685 184.157 540.787 179.055C545.889 173.953 552.39 170.479 559.466 169.071C566.543 167.664 573.878 168.387 580.544 171.149C587.209 173.911 592.906 178.587 596.914 184.587C600.922 190.587 603.06 197.641 603.059 204.856C603.057 214.528 599.214 223.803 592.374 230.642C585.535 237.481 576.26 241.324 566.588 241.326Z" fill="url(#paint9_linear)"/>
<path opacity="0.33" d="M499.222 141.656L496.501 141.612C496.059 137.383 494.293 133.401 491.454 130.235L493.384 128.086C493.518 127.938 493.622 127.765 493.689 127.576C493.757 127.387 493.785 127.187 493.775 126.987C493.764 126.787 493.713 126.591 493.626 126.411C493.538 126.231 493.416 126.07 493.266 125.937L490.435 123.392C490.286 123.258 490.113 123.155 489.924 123.088C489.735 123.022 489.536 122.993 489.336 123.004C489.136 123.015 488.941 123.065 488.76 123.152C488.58 123.238 488.419 123.36 488.286 123.509L486.085 125.981C484.149 124.929 482.052 124.206 479.879 123.839V120.612C479.879 120.209 479.72 119.823 479.435 119.538C479.15 119.253 478.764 119.093 478.361 119.093H474.554C474.151 119.093 473.764 119.253 473.478 119.538C473.192 119.822 473.03 120.208 473.029 120.612V123.839C469.898 124.36 466.937 125.617 464.388 127.507L462.187 125.46C462.041 125.324 461.869 125.218 461.682 125.149C461.495 125.079 461.295 125.047 461.096 125.054C460.896 125.062 460.7 125.109 460.518 125.192C460.337 125.276 460.174 125.394 460.038 125.541L457.383 128.365C457.247 128.512 457.142 128.684 457.073 128.871C457.004 129.059 456.972 129.258 456.98 129.458C456.989 129.658 457.036 129.854 457.12 130.035C457.204 130.216 457.323 130.379 457.471 130.514L459.613 132.495C457.89 135.056 456.783 137.98 456.378 141.04L452.945 140.996C452.547 140.99 452.163 141.14 451.875 141.415C451.587 141.689 451.418 142.066 451.405 142.463L451.353 146.27C451.347 146.669 451.497 147.054 451.771 147.343C452.046 147.632 452.422 147.802 452.82 147.818L456.598 147.869C457.143 150.501 458.214 152.995 459.745 155.204L457.309 157.918C457.175 158.066 457.071 158.24 457.004 158.428C456.937 158.616 456.908 158.816 456.918 159.016C456.928 159.215 456.978 159.411 457.064 159.592C457.15 159.772 457.271 159.934 457.419 160.067L460.258 162.613C460.559 162.881 460.954 163.02 461.357 162.998C461.76 162.976 462.137 162.795 462.407 162.495L464.542 160.111C467.037 161.914 469.913 163.121 472.948 163.64V166.867C472.948 167.272 473.109 167.66 473.395 167.946C473.681 168.232 474.069 168.393 474.474 168.393H478.28C478.684 168.391 479.07 168.229 479.355 167.943C479.639 167.657 479.799 167.27 479.799 166.867V163.64C483.132 163.072 486.269 161.672 488.916 159.569L491.44 161.901C491.586 162.038 491.758 162.144 491.946 162.213C492.133 162.283 492.333 162.315 492.533 162.306C492.733 162.298 492.929 162.25 493.11 162.166C493.292 162.081 493.454 161.961 493.589 161.813L496.171 159.018C496.307 158.872 496.412 158.7 496.481 158.512C496.55 158.325 496.581 158.125 496.573 157.926C496.565 157.726 496.517 157.53 496.433 157.349C496.349 157.167 496.23 157.004 496.083 156.869L493.486 154.471C494.654 152.612 495.511 150.575 496.024 148.441H499.098C499.495 148.447 499.88 148.297 500.168 148.023C500.456 147.748 500.625 147.372 500.638 146.974L500.689 143.167C500.689 142.774 500.536 142.396 500.262 142.114C499.988 141.832 499.615 141.668 499.222 141.656ZM476.403 157.111C473.76 157.111 471.177 156.328 468.98 154.859C466.783 153.391 465.071 151.304 464.061 148.862C463.05 146.421 462.787 143.734 463.303 141.143C463.82 138.551 465.093 136.171 466.963 134.304C468.832 132.436 471.214 131.165 473.806 130.652C476.398 130.138 479.084 130.405 481.524 131.418C483.965 132.431 486.05 134.145 487.516 136.344C488.982 138.542 489.763 141.126 489.76 143.769C489.756 147.309 488.347 150.702 485.843 153.204C483.338 155.706 479.943 157.111 476.403 157.111Z" fill="url(#paint10_linear)"/>
<path d="M690.376 280.716L687.647 280.679C687.205 276.444 685.43 272.458 682.579 269.295L684.508 267.146C684.642 266.997 684.745 266.824 684.812 266.635C684.878 266.446 684.907 266.247 684.896 266.047C684.885 265.847 684.835 265.652 684.748 265.471C684.661 265.291 684.54 265.13 684.391 264.997L681.559 262.451C681.258 262.183 680.863 262.044 680.46 262.066C680.058 262.088 679.68 262.269 679.41 262.569L677.209 265.041C675.272 263.992 673.176 263.269 671.004 262.899V259.664C671.004 259.465 670.965 259.267 670.888 259.083C670.812 258.899 670.7 258.731 670.559 258.59C670.418 258.449 670.251 258.337 670.067 258.261C669.882 258.185 669.685 258.146 669.486 258.146H665.671C665.269 258.146 664.882 258.306 664.598 258.59C664.313 258.875 664.153 259.261 664.153 259.664V262.891C661.024 263.416 658.063 264.673 655.512 266.559L653.312 264.512C653.165 264.376 652.994 264.27 652.806 264.201C652.619 264.131 652.42 264.099 652.22 264.107C652.021 264.114 651.824 264.161 651.643 264.245C651.461 264.328 651.298 264.446 651.162 264.593L648.58 267.395C648.445 267.542 648.339 267.714 648.27 267.902C648.201 268.089 648.17 268.288 648.178 268.488C648.186 268.688 648.234 268.884 648.318 269.065C648.402 269.246 648.521 269.409 648.668 269.544L650.81 271.525C649.087 274.088 647.98 277.015 647.575 280.078L644.143 280.026C643.739 280.022 643.351 280.178 643.062 280.46C642.773 280.742 642.608 281.127 642.602 281.53L642.551 285.337C642.545 285.735 642.695 286.119 642.97 286.407C643.244 286.695 643.62 286.864 644.018 286.877L647.796 286.929C648.341 289.56 649.411 292.055 650.942 294.264L648.507 296.978C648.373 297.126 648.269 297.299 648.202 297.487C648.135 297.676 648.105 297.876 648.116 298.075C648.126 298.275 648.175 298.471 648.261 298.651C648.347 298.832 648.468 298.993 648.617 299.127L651.456 301.672C651.757 301.941 652.152 302.079 652.555 302.057C652.957 302.035 653.335 301.855 653.605 301.555L655.739 299.171C658.235 300.974 661.111 302.181 664.146 302.699V305.927C664.146 306.33 664.305 306.717 664.59 307.003C664.874 307.289 665.261 307.45 665.664 307.452H669.478C669.882 307.45 670.268 307.289 670.552 307.003C670.837 306.717 670.997 306.33 670.997 305.927V302.699C674.328 302.132 677.462 300.731 680.107 298.628L682.637 300.961C682.784 301.097 682.955 301.203 683.143 301.272C683.33 301.342 683.529 301.374 683.729 301.367C683.928 301.359 684.125 301.312 684.306 301.229C684.488 301.145 684.651 301.027 684.787 300.88L687.369 298.078C687.504 297.931 687.61 297.759 687.679 297.572C687.748 297.384 687.779 297.185 687.771 296.985C687.763 296.786 687.715 296.589 687.631 296.408C687.547 296.227 687.428 296.064 687.281 295.929L684.684 293.53C685.851 291.671 686.709 289.635 687.222 287.501H690.295C690.693 287.507 691.077 287.356 691.365 287.082C691.653 286.808 691.822 286.431 691.836 286.034L691.887 282.227C691.887 281.826 691.728 281.442 691.445 281.158C691.161 280.875 690.777 280.716 690.376 280.716ZM667.556 296.171C664.915 296.171 662.332 295.388 660.135 293.92C657.939 292.452 656.227 290.366 655.216 287.925C654.205 285.485 653.94 282.799 654.456 280.208C654.971 277.617 656.243 275.237 658.111 273.369C659.979 271.501 662.359 270.228 664.951 269.713C667.542 269.198 670.227 269.462 672.668 270.473C675.109 271.484 677.195 273.196 678.663 275.393C680.13 277.589 680.914 280.172 680.914 282.814C680.914 286.356 679.506 289.754 677.001 292.259C674.496 294.764 671.099 296.171 667.556 296.171Z" fill="url(#paint11_linear)"/>
<path opacity="0.27" d="M193.472 349.739L192.283 347.29C195.862 344.985 198.617 341.606 200.154 337.636L202.949 338.37C203.141 338.422 203.342 338.436 203.54 338.41C203.738 338.385 203.929 338.32 204.102 338.221C204.275 338.121 204.427 337.989 204.549 337.831C204.671 337.672 204.76 337.492 204.812 337.299L205.809 333.632C205.863 333.439 205.877 333.238 205.852 333.039C205.827 332.841 205.762 332.65 205.663 332.476C205.563 332.303 205.43 332.151 205.272 332.03C205.113 331.908 204.932 331.819 204.738 331.768L201.526 330.895C201.592 328.693 201.295 326.495 200.645 324.389L203.528 322.922C203.887 322.738 204.159 322.421 204.286 322.038C204.412 321.654 204.382 321.237 204.203 320.876L202.487 317.48C202.398 317.301 202.274 317.141 202.124 317.01C201.973 316.879 201.797 316.779 201.608 316.717C201.418 316.654 201.218 316.629 201.019 316.645C200.82 316.66 200.625 316.714 200.447 316.805L197.565 318.272C195.675 315.714 193.206 313.641 190.362 312.22L191.19 309.286C191.246 309.094 191.264 308.894 191.242 308.695C191.219 308.497 191.158 308.305 191.061 308.13C190.964 307.955 190.834 307.802 190.677 307.678C190.521 307.554 190.341 307.462 190.149 307.408L186.481 306.359C186.289 306.305 186.088 306.288 185.89 306.311C185.691 306.335 185.499 306.397 185.325 306.494C185.15 306.592 184.997 306.722 184.873 306.879C184.749 307.036 184.658 307.216 184.603 307.408L183.797 310.21C180.734 309.829 177.624 310.158 174.708 311.171L173.205 308.091C173.12 307.908 173.001 307.744 172.853 307.608C172.705 307.473 172.531 307.368 172.342 307.299C172.153 307.231 171.952 307.201 171.752 307.211C171.551 307.221 171.354 307.271 171.173 307.357L167.747 309.022C167.565 309.107 167.401 309.228 167.265 309.376C167.129 309.525 167.024 309.699 166.956 309.889C166.887 310.078 166.857 310.28 166.867 310.481C166.877 310.682 166.927 310.879 167.014 311.061L168.672 314.45C166.569 316.12 164.823 318.196 163.537 320.553L160.023 319.599C159.83 319.546 159.628 319.532 159.43 319.557C159.231 319.582 159.039 319.646 158.865 319.745C158.691 319.845 158.539 319.978 158.417 320.137C158.294 320.295 158.205 320.477 158.153 320.67L157.163 324.338C157.057 324.726 157.11 325.14 157.309 325.489C157.509 325.839 157.838 326.095 158.226 326.201L161.373 327.147C160.884 330.187 161.1 333.299 162.004 336.243L159.121 337.71C158.943 337.799 158.784 337.923 158.654 338.074C158.523 338.225 158.424 338.4 158.361 338.59C158.299 338.779 158.274 338.979 158.288 339.178C158.303 339.377 158.357 339.571 158.446 339.749L160.163 343.153C160.253 343.331 160.377 343.49 160.529 343.62C160.681 343.751 160.857 343.85 161.047 343.912C161.237 343.974 161.438 343.997 161.637 343.982C161.837 343.966 162.031 343.911 162.209 343.82L165.085 342.353C167.095 345.071 169.756 347.24 172.823 348.661L171.884 351.962C171.773 352.35 171.82 352.766 172.016 353.12C172.211 353.473 172.538 353.735 172.926 353.847L176.593 354.896C176.983 355.005 177.399 354.956 177.752 354.759C178.105 354.563 178.366 354.235 178.479 353.847L179.447 350.451C181.633 350.658 183.839 350.504 185.975 349.996L187.325 352.762C187.409 352.944 187.529 353.108 187.677 353.244C187.825 353.379 187.999 353.484 188.188 353.553C188.376 353.621 188.577 353.651 188.778 353.641C188.979 353.631 189.175 353.582 189.357 353.495L192.775 351.823C192.961 351.735 193.127 351.611 193.263 351.458C193.4 351.304 193.504 351.125 193.569 350.93C193.634 350.735 193.659 350.529 193.642 350.325C193.626 350.12 193.568 349.921 193.472 349.739ZM169.398 336.324C168.208 333.965 167.745 331.306 168.066 328.684C168.388 326.062 169.48 323.594 171.204 321.592C172.928 319.591 175.207 318.145 177.752 317.439C180.298 316.732 182.996 316.796 185.505 317.623C188.014 318.45 190.221 320.002 191.848 322.083C193.475 324.165 194.448 326.682 194.645 329.316C194.841 331.951 194.252 334.584 192.952 336.884C191.651 339.184 189.698 341.046 187.339 342.236C185.773 343.026 184.067 343.499 182.317 343.63C180.568 343.76 178.81 343.545 177.144 342.996C175.478 342.447 173.936 341.575 172.607 340.43C171.278 339.285 170.188 337.89 169.398 336.324Z" fill="url(#paint12_linear)"/>
<path d="M235.458 270.139L213.929 257.199C213.138 256.723 212.189 256.58 211.292 256.803C210.395 257.026 209.624 257.596 209.147 258.388C208.67 259.179 208.528 260.128 208.751 261.025C208.973 261.922 209.543 262.694 210.335 263.17L231.871 276.109C232.263 276.361 232.702 276.532 233.162 276.611C233.621 276.69 234.092 276.676 234.546 276.569C235 276.463 235.428 276.267 235.805 275.993C236.181 275.718 236.499 275.371 236.739 274.971C236.979 274.571 237.137 274.128 237.202 273.666C237.268 273.205 237.24 272.734 237.12 272.284C237.001 271.833 236.792 271.411 236.507 271.043C236.221 270.674 235.865 270.367 235.458 270.139Z" fill="url(#paint13_linear)"/>
<path d="M230.639 277.085L209.103 264.146C208.71 263.894 208.272 263.724 207.812 263.645C207.353 263.565 206.882 263.579 206.428 263.686C205.974 263.792 205.546 263.988 205.169 264.263C204.793 264.537 204.475 264.884 204.235 265.284C203.995 265.684 203.837 266.127 203.772 266.589C203.706 267.051 203.734 267.521 203.854 267.971C203.973 268.422 204.182 268.844 204.467 269.212C204.753 269.581 205.109 269.888 205.516 270.117L227.052 283.056C227.842 283.499 228.774 283.618 229.65 283.385C230.526 283.153 231.277 282.589 231.744 281.812C232.211 281.035 232.356 280.107 232.15 279.224C231.944 278.342 231.402 277.574 230.639 277.085Z" fill="url(#paint14_linear)"/>
<path d="M206.506 281.486L217.509 288.088C219.091 289.031 220.982 289.31 222.769 288.863C224.556 288.417 226.093 287.281 227.045 285.704L204.13 271.928C203.658 272.712 203.345 273.581 203.209 274.485C203.073 275.39 203.116 276.312 203.337 277.2C203.558 278.087 203.951 278.923 204.495 279.658C205.039 280.394 205.722 281.015 206.506 281.486Z" fill="url(#paint15_linear)"/>
<path d="M274.268 181.178C266.371 176.427 257.079 174.542 247.954 175.839C238.83 177.135 230.431 181.535 224.17 188.298C217.909 195.061 214.169 203.774 213.578 212.971C212.988 222.168 215.583 231.287 220.927 238.795L214.612 249.299C214.309 249.803 214.109 250.362 214.022 250.943C213.935 251.524 213.964 252.117 214.106 252.687C214.249 253.257 214.502 253.793 214.852 254.266C215.201 254.738 215.641 255.136 216.145 255.439L235.949 267.359C236.453 267.662 237.011 267.863 237.593 267.95C238.174 268.037 238.767 268.009 239.337 267.867C239.908 267.724 240.445 267.471 240.917 267.12C241.389 266.77 241.787 266.33 242.089 265.825L248.405 255.322C257.545 256.524 266.82 254.54 274.669 249.704C282.518 244.868 288.461 237.475 291.497 228.771C294.533 220.066 294.478 210.581 291.34 201.913C288.202 193.244 282.173 185.922 274.268 181.178ZM246.578 250.202L240.989 259.51C239.866 261.38 237.695 262.151 236.148 261.219L221.646 252.505C220.098 251.573 219.753 249.299 220.912 247.422L226.502 238.121C220.45 228.086 216.335 210.137 223.839 197.653C233.947 180.833 257.735 177.466 271.62 185.806C285.506 194.146 293.538 216.614 283.437 233.485C275.904 245.925 258.278 250.81 246.578 250.18V250.202Z" fill="url(#paint16_linear)"/>
<path d="M464.798 221.998C464.103 221.341 463.258 220.864 462.336 220.608C461.414 220.352 460.444 220.326 459.51 220.531L455.659 216.863C460.538 211.255 463.083 203.99 462.768 196.563C462.454 189.136 459.305 182.112 453.969 176.936C448.633 171.761 441.516 168.827 434.083 168.739C426.65 168.652 419.466 171.416 414.009 176.465C408.552 181.513 405.238 188.461 404.749 195.878C404.259 203.296 406.631 210.619 411.377 216.341C416.123 222.062 422.881 225.747 430.262 226.637C437.642 227.527 445.082 225.555 451.052 221.125L455.05 224.903C454.807 225.905 454.833 226.953 455.124 227.942C455.415 228.931 455.961 229.825 456.708 230.536L461.329 234.901L469.398 226.333L464.798 221.998ZM411.12 197.909C411.113 193.409 412.441 189.008 414.937 185.263C417.433 181.518 420.984 178.597 425.14 176.872C429.297 175.146 433.872 174.693 438.286 175.569C442.7 176.445 446.755 178.612 449.938 181.794C453.12 184.976 455.286 189.031 456.163 193.446C457.039 197.86 456.585 202.435 454.86 206.592C453.134 210.748 450.214 214.299 446.469 216.795C442.724 219.291 438.323 220.619 433.822 220.612C427.804 220.602 422.035 218.207 417.78 213.952C413.525 209.696 411.13 203.927 411.12 197.909Z" fill="url(#paint17_linear)"/>
<path d="M484.405 240.512L471.701 228.519L463.632 237.079L476.337 249.079C476.899 249.609 477.561 250.023 478.283 250.297C479.006 250.571 479.775 250.701 480.547 250.677C481.32 250.654 482.08 250.479 482.785 250.162C483.49 249.845 484.125 249.393 484.655 248.83C485.184 248.267 485.598 247.606 485.872 246.884C486.147 246.161 486.276 245.392 486.253 244.619C486.23 243.847 486.055 243.087 485.738 242.382C485.421 241.677 484.968 241.042 484.405 240.512Z" fill="url(#paint18_linear)"/>
<path d="M590.824 320.318C591.145 319.624 591.281 318.859 591.219 318.097C591.157 317.335 590.9 316.602 590.471 315.968L592.239 312.008C597.815 313.787 603.835 313.585 609.279 311.435C621.917 306.528 628.445 292.973 623.854 281.163C619.262 269.354 605.303 263.772 592.665 268.694C580.026 273.615 573.498 287.156 578.09 298.966C579.905 303.584 583.24 307.447 587.545 309.917L585.711 314.025C584.856 314.146 584.045 314.477 583.349 314.989C582.654 315.501 582.097 316.178 581.728 316.959L579.608 321.712L588.696 325.049L590.824 320.318ZM594.491 273.307C604.394 269.456 615.338 273.835 618.939 283.092C622.541 292.349 617.421 302.963 607.518 306.814C597.616 310.665 586.665 306.286 583.063 297.037C579.461 287.787 584.552 277.158 594.462 273.307H594.491Z" fill="url(#paint19_linear)"/>
<path d="M581.823 340.475L587.691 327.411L578.596 324.074L572.728 337.138C572.467 337.702 572.327 338.314 572.317 338.935C572.307 339.556 572.427 340.173 572.669 340.745C572.912 341.317 573.271 341.832 573.725 342.257C574.178 342.681 574.716 343.007 575.302 343.211C576.535 343.649 577.886 343.611 579.092 343.105C580.298 342.599 581.272 341.661 581.823 340.475Z" fill="url(#paint20_linear)"/>
<path d="M454.522 343.512L451.801 343.475C451.353 339.237 449.571 335.25 446.71 332.091L448.639 329.942C448.773 329.794 448.877 329.621 448.944 329.432C449.012 329.244 449.041 329.044 449.031 328.844C449.02 328.645 448.971 328.449 448.885 328.269C448.799 328.088 448.678 327.926 448.529 327.793L445.698 325.247C445.397 324.979 445.002 324.841 444.599 324.863C444.196 324.885 443.819 325.065 443.549 325.365L441.348 327.844C439.408 326.793 437.31 326.067 435.135 325.695V322.475C435.136 322.275 435.098 322.077 435.022 321.891C434.946 321.706 434.834 321.538 434.693 321.396C434.552 321.255 434.384 321.142 434.2 321.065C434.015 320.989 433.817 320.949 433.617 320.949H429.839C429.639 320.949 429.441 320.989 429.256 321.065C429.072 321.142 428.904 321.255 428.763 321.396C428.622 321.538 428.51 321.706 428.434 321.891C428.358 322.077 428.32 322.275 428.321 322.475V325.68C425.186 326.216 422.223 327.485 419.673 329.384L417.472 327.338C417.325 327.202 417.153 327.097 416.966 327.028C416.778 326.959 416.579 326.928 416.379 326.936C416.18 326.944 415.983 326.991 415.802 327.076C415.621 327.16 415.458 327.279 415.323 327.426L412.741 330.221C412.605 330.367 412.499 330.539 412.429 330.726C412.36 330.913 412.328 331.112 412.335 331.312C412.343 331.512 412.39 331.708 412.473 331.889C412.557 332.071 412.675 332.234 412.822 332.37L414.964 334.35C413.247 336.916 412.142 339.843 411.736 342.903L408.303 342.852C408.103 342.849 407.905 342.885 407.719 342.96C407.533 343.034 407.364 343.144 407.221 343.283C407.077 343.423 406.963 343.59 406.885 343.774C406.806 343.958 406.765 344.155 406.763 344.355L406.704 348.162C406.7 348.566 406.856 348.954 407.138 349.243C407.42 349.532 407.804 349.697 408.208 349.703L411.978 349.754C412.531 352.383 413.601 354.877 415.125 357.089L412.69 359.796C412.421 360.097 412.283 360.492 412.305 360.895C412.327 361.298 412.507 361.675 412.807 361.945L415.638 364.49C415.939 364.759 416.334 364.897 416.737 364.875C417.14 364.853 417.518 364.673 417.788 364.373L419.929 361.989C422.423 363.797 425.299 365.006 428.335 365.525V368.752C428.335 369.155 428.495 369.541 428.78 369.826C429.065 370.111 429.451 370.271 429.854 370.271H433.661C433.86 370.271 434.058 370.231 434.242 370.155C434.426 370.079 434.593 369.967 434.734 369.826C434.875 369.685 434.987 369.517 435.064 369.333C435.14 369.149 435.179 368.952 435.179 368.752V365.525C438.512 364.956 441.648 363.556 444.297 361.454L446.82 363.786C447.117 364.058 447.51 364.202 447.913 364.185C448.315 364.169 448.695 363.994 448.969 363.698L451.551 360.904C451.688 360.757 451.794 360.584 451.863 360.397C451.933 360.209 451.965 360.009 451.958 359.809C451.95 359.608 451.903 359.411 451.82 359.229C451.736 359.047 451.617 358.883 451.471 358.747L448.874 356.348C450.043 354.491 450.898 352.454 451.405 350.319L454.478 350.363C454.876 350.367 455.26 350.216 455.549 349.943C455.838 349.669 456.009 349.294 456.026 348.896L456.077 345.089C456.084 344.882 456.049 344.675 455.973 344.482C455.898 344.289 455.784 344.114 455.639 343.966C455.493 343.819 455.319 343.702 455.127 343.624C454.935 343.546 454.729 343.508 454.522 343.512ZM431.71 358.967C429.068 358.967 426.485 358.184 424.289 356.716C422.092 355.248 420.38 353.162 419.369 350.721C418.358 348.281 418.094 345.595 418.609 343.004C419.124 340.413 420.397 338.033 422.265 336.165C424.133 334.297 426.513 333.025 429.104 332.509C431.695 331.994 434.381 332.258 436.821 333.269C439.262 334.28 441.348 335.992 442.816 338.189C444.284 340.385 445.067 342.968 445.067 345.61C445.067 347.364 444.721 349.101 444.05 350.721C443.379 352.342 442.395 353.814 441.155 355.055C439.914 356.295 438.442 357.279 436.821 357.95C435.201 358.622 433.464 358.967 431.71 358.967Z" fill="url(#paint21_linear)"/>
<path d="M183.283 529.465C183.283 529.465 169.801 522.13 179.146 500.587C179.146 500.587 166.324 482.616 179.146 471.694C179.146 471.694 170.601 457.023 182.594 446.754C182.594 446.754 171.496 429.414 186.518 420.766C186.518 420.766 174.943 402.707 192.151 396.112C192.151 396.112 180.665 375.955 202.839 365.781C202.839 365.781 195.548 348.911 216.365 341.84C216.365 341.84 212.638 327.213 232.304 324.455C232.304 324.455 237.255 303.117 258.96 310.232C258.96 310.232 268.782 292.291 286.026 307.423C286.026 307.423 303.55 295.474 315.147 314.237C315.147 314.237 335.436 309.249 337.152 328.908C337.152 328.908 357.926 327.91 352.321 346.952C352.321 346.952 371.972 350.708 362.818 365.745C362.818 365.745 381.493 371.87 371.928 386.76C371.928 386.76 389.291 397.491 378.435 410.005C378.435 410.005 392.951 419.724 382.007 433.727L385.828 465.781L387.215 508.729L183.283 529.465Z" fill="url(#paint22_linear)"/>
<path d="M265.158 569.801C282.065 651.896 239.859 563.706 179.946 552.409C179.946 552.409 163.427 323.736 280.804 323.736C406.015 323.736 386.012 556.737 386.012 556.737L293.846 547.201L265.158 569.801Z" fill="url(#paint23_linear)"/>
<path d="M307.761 498.503H253.855V556.759H307.761V498.503Z" fill="#E6E6E6"/>
<path d="M280.804 515.022C315.38 515.022 343.409 473.758 343.409 422.856C343.409 371.954 315.38 330.69 280.804 330.69C246.228 330.69 218.198 371.954 218.198 422.856C218.198 473.758 246.228 515.022 280.804 515.022Z" fill="#FFECFF"/>
<path d="M220.282 422.753C246.791 438.465 288.711 412.807 302.435 388.579C307.606 379.425 297.301 379.395 302.435 388.579C311.069 403.697 353.994 438.546 358.08 421.587L372.016 403.33C373.432 397.462 361.938 377.554 358.08 372.896L320.546 342.896C316.059 337.446 310.267 333.22 303.708 330.61C297.15 328 290.038 327.092 283.034 327.969L251.331 331.93C247.664 325.974 241.532 335.26 238.414 339.39L217.37 367.219C216.688 368.126 216.087 369.09 215.572 370.102L190.259 394.667C183.709 407.518 207.885 415.404 220.282 422.753Z" fill="url(#paint24_linear)"/>
<path d="M252.116 527.917C252.116 527.917 277.327 552.123 306.888 527.917C306.888 527.917 353.832 528.937 378.185 547.194C402.538 565.451 406.015 683.701 406.015 683.701H183.423L252.116 527.917Z" fill="url(#paint25_linear)"/>
<path d="M252.982 527.198L253.143 527.052C253.143 527.052 206.198 528.064 181.845 546.321C157.493 564.578 154.038 682.836 154.038 682.836H376.608L252.982 527.198Z" fill="url(#paint26_linear)"/>
<path d="M306.888 528.064L307.218 527.917C307.218 527.917 354.163 528.937 378.515 547.194C402.868 565.451 406.367 683.701 406.367 683.701H183.753L306.888 528.064Z" fill="url(#paint27_linear)"/>
<path opacity="0.5" d="M280.811 540.24H278.2V683.701H280.811V540.24Z" fill="url(#paint28_linear)"/>
<path d="M253.855 525.453C253.855 525.453 257.331 537.57 283.415 536.734C283.415 536.734 266.024 556.759 253.855 555.021C253.855 555.021 229.509 521.976 253.855 525.453Z" fill="url(#paint29_linear)"/>
<path d="M307.849 525.115C307.849 525.115 302.545 537.585 276.461 536.756C276.461 536.756 295.672 556.414 307.849 554.676C307.849 554.676 332.194 521.639 307.849 525.115Z" fill="url(#paint30_linear)"/>
<path d="M291.675 576.755C294.794 576.755 297.323 574.226 297.323 571.107C297.323 567.987 294.794 565.459 291.675 565.459C288.555 565.459 286.026 567.987 286.026 571.107C286.026 574.226 288.555 576.755 291.675 576.755Z" fill="url(#paint31_linear)"/>
<path d="M291.675 611.531C294.794 611.531 297.323 609.002 297.323 605.883C297.323 602.763 294.794 600.234 291.675 600.234C288.555 600.234 286.026 602.763 286.026 605.883C286.026 609.002 288.555 611.531 291.675 611.531Z" fill="url(#paint32_linear)"/>
<path d="M291.675 646.314C294.794 646.314 297.323 643.785 297.323 640.666C297.323 637.546 294.794 635.018 291.675 635.018C288.555 635.018 286.026 637.546 286.026 640.666C286.026 643.785 288.555 646.314 291.675 646.314Z" fill="url(#paint33_linear)"/>
<path d="M291.675 681.09C294.794 681.09 297.323 678.561 297.323 675.442C297.323 672.322 294.794 669.794 291.675 669.794C288.555 669.794 286.026 672.322 286.026 675.442C286.026 678.561 288.555 681.09 291.675 681.09Z" fill="url(#paint34_linear)"/>
<path d="M584.977 474.657C607.401 573.16 550.246 527.895 484.119 498.129C484.119 498.129 468.613 322.856 585.997 322.856C711.201 322.856 692.797 511.171 692.797 511.171L581.501 546.82L584.977 474.657Z" fill="url(#paint35_linear)"/>
<path d="M612.946 497.631H559.04V555.886H612.946V497.631Z" fill="#E6E6E6"/>
<path d="M585.997 514.157C620.573 514.157 648.602 472.893 648.602 421.991C648.602 371.089 620.573 329.825 585.997 329.825C551.421 329.825 523.392 371.089 523.392 421.991C523.392 472.893 551.421 514.157 585.997 514.157Z" fill="#FFECFF"/>
<path d="M509.477 421.991C509.477 421.991 590.339 430.683 609.469 392.43C609.469 392.43 617.538 434.24 647.414 439.874L660.852 412.8C666.502 401.399 667.717 388.306 664.263 376.06C660.808 363.814 652.93 353.287 642.155 346.519L615.558 329.832L601.335 327.411C584.182 324.49 566.554 328.023 551.852 337.328L543.739 342.463C533.206 349.128 524.535 358.356 518.537 369.283C512.538 380.209 509.409 392.479 509.44 404.944L509.477 421.991Z" fill="url(#paint36_linear)"/>
<path d="M557.302 527.052C557.302 527.052 582.513 551.258 612.081 527.052C612.081 527.052 659.026 528.064 683.378 546.321C707.731 564.578 711.201 682.836 711.201 682.836H488.616L557.302 527.052Z" fill="url(#paint37_linear)"/>
<path d="M558.204 526.326L558.366 526.179C558.366 526.179 511.421 527.199 487.068 545.456C462.715 563.713 459.18 681.963 459.18 681.963H681.801L558.204 526.326Z" fill="url(#paint38_linear)"/>
<path d="M612.081 527.198L612.411 527.052C612.411 527.052 659.356 528.064 683.708 546.321C708.061 564.578 711.509 682.836 711.509 682.836H488.938L612.081 527.198Z" fill="url(#paint39_linear)"/>
<path opacity="0.5" d="M585.997 539.368H583.386V682.828H585.997V539.368Z" fill="url(#paint40_linear)"/>
<path d="M559.04 524.587C559.04 524.587 562.517 536.705 588.601 535.861C588.601 535.861 571.209 555.886 559.04 554.148C559.04 554.148 534.732 521.11 559.04 524.587Z" fill="url(#paint41_linear)"/>
<path d="M613.034 524.25C613.034 524.25 607.731 536.72 581.647 535.891C581.647 535.891 600.865 555.549 613.034 553.81C613.034 553.803 637.38 520.795 613.034 524.25Z" fill="url(#paint42_linear)"/>
<path d="M596.86 575.882C599.98 575.882 602.508 573.353 602.508 570.234C602.508 567.114 599.98 564.586 596.86 564.586C593.741 564.586 591.212 567.114 591.212 570.234C591.212 573.353 593.741 575.882 596.86 575.882Z" fill="url(#paint43_linear)"/>
<path d="M596.86 610.665C599.98 610.665 602.508 608.136 602.508 605.017C602.508 601.898 599.98 599.369 596.86 599.369C593.741 599.369 591.212 601.898 591.212 605.017C591.212 608.136 593.741 610.665 596.86 610.665Z" fill="url(#paint44_linear)"/>
<path d="M596.86 645.441C599.98 645.441 602.508 642.912 602.508 639.793C602.508 636.674 599.98 634.145 596.86 634.145C593.741 634.145 591.212 636.674 591.212 639.793C591.212 642.912 593.741 645.441 596.86 645.441Z" fill="url(#paint45_linear)"/>
<path d="M596.86 680.217C599.98 680.217 602.508 677.688 602.508 674.569C602.508 671.45 599.98 668.921 596.86 668.921C593.741 668.921 591.212 671.45 591.212 674.569C591.212 677.688 593.741 680.217 596.86 680.217Z" fill="url(#paint46_linear)"/>
<path d="M418.91 594.146C435.781 676.241 393.618 588.058 333.698 576.762C333.698 576.762 317.179 348.089 434.563 348.089C559.767 348.089 539.764 581.104 539.764 581.104L447.605 571.569L418.91 594.146Z" fill="#D7B7FF"/>
<path d="M461.512 522.863H407.606V581.119H461.512V522.863Z" fill="#E6E6E6"/>
<path d="M434.563 539.39C469.139 539.39 497.169 498.125 497.169 447.224C497.169 396.322 469.139 355.057 434.563 355.057C399.987 355.057 371.958 396.322 371.958 447.224C371.958 498.125 399.987 539.39 434.563 539.39Z" fill="#FFECFF"/>
<path d="M358.043 447.223C358.043 447.223 438.905 455.916 458.035 417.663C458.035 417.663 466.104 459.473 495.98 465.099L509.337 409.836L464.124 355.057L423.238 348.104L376.293 388.095L358.043 447.223Z" fill="#D7B7FF"/>
<path d="M405.868 552.285C405.868 552.285 431.079 576.491 460.647 552.285C460.647 552.285 507.592 553.297 531.944 571.554C556.297 589.811 559.767 708.068 559.767 708.068H337.182L405.868 552.285Z" fill="url(#paint47_linear)"/>
<path d="M406.734 551.559L406.895 551.412C406.895 551.412 359.95 552.431 335.597 570.689C311.245 588.946 307.775 707.195 307.775 707.195H530.331L406.734 551.559Z" fill="url(#paint48_linear)"/>
<path d="M460.647 552.431L460.977 552.285C460.977 552.285 507.922 553.297 532.274 571.554C556.627 589.811 560.097 708.068 560.097 708.068H337.504L460.647 552.431Z" fill="url(#paint49_linear)"/>
<path opacity="0.5" d="M434.563 564.6H431.952V708.061H434.563V564.6Z" fill="url(#paint50_linear)"/>
<path d="M407.606 549.82C407.606 549.82 411.083 561.938 437.167 561.094C437.167 561.094 419.775 581.119 407.606 579.381C407.606 579.381 383.261 546.343 407.606 549.82Z" fill="url(#paint51_linear)"/>
<path d="M461.6 549.483C461.6 549.483 456.297 561.952 430.213 561.124C430.213 561.124 449.431 580.782 461.6 579.043C461.6 579.043 485.946 546.006 461.6 549.483Z" fill="url(#paint52_linear)"/>
<path d="M445.426 601.115C448.546 601.115 451.074 598.586 451.074 595.467C451.074 592.347 448.546 589.819 445.426 589.819C442.307 589.819 439.778 592.347 439.778 595.467C439.778 598.586 442.307 601.115 445.426 601.115Z" fill="url(#paint53_linear)"/>
<path d="M445.426 635.898C448.546 635.898 451.074 633.369 451.074 630.25C451.074 627.131 448.546 624.602 445.426 624.602C442.307 624.602 439.778 627.131 439.778 630.25C439.778 633.369 442.307 635.898 445.426 635.898Z" fill="url(#paint54_linear)"/>
<path d="M445.426 670.674C448.546 670.674 451.074 668.145 451.074 665.026C451.074 661.906 448.546 659.378 445.426 659.378C442.307 659.378 439.778 661.906 439.778 665.026C439.778 668.145 442.307 670.674 445.426 670.674Z" fill="url(#paint55_linear)"/>
<path d="M445.426 705.457C448.546 705.457 451.074 702.928 451.074 699.809C451.074 696.69 448.546 694.161 445.426 694.161C442.307 694.161 439.778 696.69 439.778 699.809C439.778 702.928 442.307 705.457 445.426 705.457Z" fill="url(#paint56_linear)"/>
</g>
<path d="M528.578 432.703H477.211L467.445 462H436.293L489.223 319.812H516.371L569.594 462H538.441L528.578 432.703ZM485.121 408.973H520.668L502.797 355.75L485.121 408.973ZM582.875 462V319.812H632.68C649.932 319.812 663.018 323.133 671.938 329.773C680.857 336.349 685.316 346.017 685.316 358.777C685.316 365.743 683.526 371.896 679.945 377.234C676.365 382.508 671.384 386.382 665.004 388.855C672.296 390.678 678.025 394.357 682.191 399.891C686.423 405.424 688.539 412.195 688.539 420.203C688.539 433.875 684.177 444.227 675.453 451.258C666.729 458.289 654.294 461.87 638.148 462H582.875ZM612.172 400.086V438.465H637.27C644.171 438.465 649.542 436.837 653.383 433.582C657.289 430.262 659.242 425.704 659.242 419.91C659.242 406.889 652.504 400.281 639.027 400.086H612.172ZM612.172 379.383H633.852C648.63 379.122 656.02 373.23 656.02 361.707C656.02 355.262 654.132 350.639 650.355 347.84C646.645 344.975 640.753 343.543 632.68 343.543H612.172V379.383ZM827.406 394.129C827.406 408.126 824.932 420.398 819.984 430.945C815.036 441.492 807.94 449.63 798.695 455.359C789.516 461.089 778.969 463.953 767.055 463.953C755.271 463.953 744.757 461.121 735.512 455.457C726.267 449.793 719.105 441.72 714.027 431.238C708.949 420.691 706.378 408.582 706.312 394.91V387.879C706.312 373.882 708.819 361.577 713.832 350.965C718.91 340.288 726.039 332.117 735.219 326.453C744.464 320.724 755.01 317.859 766.859 317.859C778.708 317.859 789.223 320.724 798.402 326.453C807.647 332.117 814.776 340.288 819.789 350.965C824.867 361.577 827.406 373.849 827.406 387.781V394.129ZM797.719 387.684C797.719 372.775 795.049 361.447 789.711 353.699C784.372 345.952 776.755 342.078 766.859 342.078C757.029 342.078 749.444 345.919 744.105 353.602C738.767 361.219 736.065 372.417 736 387.195V394.129C736 408.647 738.669 419.91 744.008 427.918C749.346 435.926 757.029 439.93 767.055 439.93C776.885 439.93 784.438 436.089 789.711 428.406C794.984 420.659 797.654 409.396 797.719 394.617V387.684ZM956.312 319.813V413.465C956.312 429.025 951.43 441.329 941.664 450.379C931.964 459.428 918.682 463.953 901.82 463.953C885.219 463.953 872.035 459.559 862.27 450.77C852.504 441.98 847.523 429.904 847.328 414.539V319.812H876.625V413.66C876.625 422.97 878.839 429.773 883.266 434.07C887.758 438.302 893.943 440.418 901.82 440.418C918.292 440.418 926.658 431.759 926.918 414.441V319.813H956.312ZM1087.37 343.543H1043.81V462H1014.52V343.543L971.547 343.543V319.813H1087.37V343.543Z" fill="white"/>
<path d="M528.578 432.703H477.211L467.445 462H436.293L489.223 319.812H516.371L569.594 462H538.441L528.578 432.703ZM485.121 408.973H520.668L502.797 355.75L485.121 408.973ZM582.875 462V319.812H632.68C649.932 319.812 663.018 323.133 671.938 329.773C680.857 336.349 685.316 346.017 685.316 358.777C685.316 365.743 683.526 371.896 679.945 377.234C676.365 382.508 671.384 386.382 665.004 388.855C672.296 390.678 678.025 394.357 682.191 399.891C686.423 405.424 688.539 412.195 688.539 420.203C688.539 433.875 684.177 444.227 675.453 451.258C666.729 458.289 654.294 461.87 638.148 462H582.875ZM612.172 400.086V438.465H637.27C644.171 438.465 649.542 436.837 653.383 433.582C657.289 430.262 659.242 425.704 659.242 419.91C659.242 406.889 652.504 400.281 639.027 400.086H612.172ZM612.172 379.383H633.852C648.63 379.122 656.02 373.23 656.02 361.707C656.02 355.262 654.132 350.639 650.355 347.84C646.645 344.975 640.753 343.543 632.68 343.543H612.172V379.383ZM827.406 394.129C827.406 408.126 824.932 420.398 819.984 430.945C815.036 441.492 807.94 449.63 798.695 455.359C789.516 461.089 778.969 463.953 767.055 463.953C755.271 463.953 744.757 461.121 735.512 455.457C726.267 449.793 719.105 441.72 714.027 431.238C708.949 420.691 706.378 408.582 706.312 394.91V387.879C706.312 373.882 708.819 361.577 713.832 350.965C718.91 340.288 726.039 332.117 735.219 326.453C744.464 320.724 755.01 317.859 766.859 317.859C778.708 317.859 789.223 320.724 798.402 326.453C807.647 332.117 814.776 340.288 819.789 350.965C824.867 361.577 827.406 373.849 827.406 387.781V394.129ZM797.719 387.684C797.719 372.775 795.049 361.447 789.711 353.699C784.372 345.952 776.755 342.078 766.859 342.078C757.029 342.078 749.444 345.919 744.105 353.602C738.767 361.219 736.065 372.417 736 387.195V394.129C736 408.647 738.669 419.91 744.008 427.918C749.346 435.926 757.029 439.93 767.055 439.93C776.885 439.93 784.438 436.089 789.711 428.406C794.984 420.659 797.654 409.396 797.719 394.617V387.684ZM956.312 319.813V413.465C956.312 429.025 951.43 441.329 941.664 450.379C931.964 459.428 918.682 463.953 901.82 463.953C885.219 463.953 872.035 459.559 862.27 450.77C852.504 441.98 847.523 429.904 847.328 414.539V319.812H876.625V413.66C876.625 422.97 878.839 429.773 883.266 434.07C887.758 438.302 893.943 440.418 901.82 440.418C918.292 440.418 926.658 431.759 926.918 414.441V319.813H956.312ZM1087.37 343.543H1043.81V462H1014.52V343.543L971.547 343.543V319.813H1087.37V343.543Z" fill="url(#paint57_linear)"/>
<defs>
<linearGradient id="paint0_linear" x1="145.94" y1="420.458" x2="210.504" y2="420.458" gradientUnits="userSpaceOnUse">
<stop stop-color="#D0B7FF"/>
<stop offset="1" stop-color="#9980D1"/>
</linearGradient>
<linearGradient id="paint1_linear" x1="5906.88" y1="13689.4" x2="6605.26" y2="13689.4" gradientUnits="userSpaceOnUse">
<stop stop-color="#D0B7FF"/>
<stop offset="1" stop-color="#9980D1"/>
</linearGradient>
<linearGradient id="paint2_linear" x1="25156.6" y1="11105.1" x2="26326.6" y2="11105.1" gradientUnits="userSpaceOnUse">
<stop stop-color="#D0B7FF"/>
<stop offset="1" stop-color="#9980D1"/>
</linearGradient>
<linearGradient id="paint3_linear" x1="24869.2" y1="11259.2" x2="26034" y2="11259.2" gradientUnits="userSpaceOnUse">
<stop stop-color="#D0B7FF"/>
<stop offset="1" stop-color="#9980D1"/>
</linearGradient>
<linearGradient id="paint4_linear" x1="20926.8" y1="9980.25" x2="21744.6" y2="9980.25" gradientUnits="userSpaceOnUse">
<stop stop-color="#D0B7FF"/>
<stop offset="1" stop-color="#9980D1"/>
</linearGradient>
<linearGradient id="paint5_linear" x1="67901.4" y1="47857.9" x2="76679.5" y2="47857.9" gradientUnits="userSpaceOnUse">
<stop stop-color="#D0B7FF"/>
<stop offset="1" stop-color="#9980D1"/>
</linearGradient>
<linearGradient id="paint6_linear" x1="292.965" y1="270.08" x2="425.959" y2="270.08" gradientUnits="userSpaceOnUse">
<stop stop-color="#C7AEF7"/>
<stop offset="0.49" stop-color="#C9A6FA"/>
<stop offset="1" stop-color="#CC99FF"/>
</linearGradient>
<linearGradient id="paint7_linear" x1="21116.8" y1="9323.71" x2="24354.1" y2="9323.71" gradientUnits="userSpaceOnUse">
<stop stop-color="#D0B7FF"/>
<stop offset="1" stop-color="#9980D1"/>
</linearGradient>
<linearGradient id="paint8_linear" x1="41215.1" y1="26747.3" x2="47977.3" y2="26747.3" gradientUnits="userSpaceOnUse">
<stop stop-color="#D0B7FF"/>
<stop offset="1" stop-color="#9980D1"/>
</linearGradient>
<linearGradient id="paint9_linear" x1="88386.2" y1="34108.7" x2="113154" y2="34108.7" gradientUnits="userSpaceOnUse">
<stop stop-color="#C7AEF7"/>
<stop offset="0.49" stop-color="#C9A6FA"/>
<stop offset="1" stop-color="#CC99FF"/>
</linearGradient>
<linearGradient id="paint10_linear" x1="29477.4" y1="8449.72" x2="32797.7" y2="8449.72" gradientUnits="userSpaceOnUse">
<stop stop-color="#D0B7FF"/>
<stop offset="1" stop-color="#9980D1"/>
</linearGradient>
<linearGradient id="paint11_linear" x1="42525.7" y1="17937.6" x2="45846" y2="17937.6" gradientUnits="userSpaceOnUse">
<stop stop-color="#D0B7FF"/>
<stop offset="1" stop-color="#9980D1"/>
</linearGradient>
<linearGradient id="paint12_linear" x1="9286.38" y1="20922.8" x2="12523.7" y2="20922.8" gradientUnits="userSpaceOnUse">
<stop stop-color="#C7AEF7"/>
<stop offset="0.49" stop-color="#C9A6FA"/>
<stop offset="1" stop-color="#CC99FF"/>
</linearGradient>
<linearGradient id="paint13_linear" x1="7568.6" y1="6974.1" x2="8679.57" y2="6974.1" gradientUnits="userSpaceOnUse">
<stop stop-color="#D0B7FF"/>
<stop offset="1" stop-color="#9980D1"/>
</linearGradient>
<linearGradient id="paint14_linear" x1="7354.62" y1="7151.62" x2="8462.3" y2="7151.62" gradientUnits="userSpaceOnUse">
<stop stop-color="#D0B7FF"/>
<stop offset="1" stop-color="#9980D1"/>
</linearGradient>
<linearGradient id="paint15_linear" x1="6179.73" y1="6364.76" x2="6959.29" y2="6364.76" gradientUnits="userSpaceOnUse">
<stop stop-color="#D0B7FF"/>
<stop offset="1" stop-color="#9980D1"/>
</linearGradient>
<linearGradient id="paint16_linear" x1="21401.3" y1="25651.6" x2="30177" y2="25651.6" gradientUnits="userSpaceOnUse">
<stop stop-color="#D0B7FF"/>
<stop offset="1" stop-color="#9980D1"/>
</linearGradient>
<linearGradient id="paint17_linear" x1="34375.3" y1="16597.7" x2="40070.7" y2="16597.7" gradientUnits="userSpaceOnUse">
<stop stop-color="#D0B7FF"/>
<stop offset="1" stop-color="#9980D1"/>
</linearGradient>
<linearGradient id="paint18_linear" x1="14151.6" y1="6869.08" x2="14849.7" y2="6869.08" gradientUnits="userSpaceOnUse">
<stop stop-color="#D0B7FF"/>
<stop offset="1" stop-color="#9980D1"/>
</linearGradient>
<linearGradient id="paint19_linear" x1="-4721.51" y1="26580" x2="-3491.72" y2="29744" gradientUnits="userSpaceOnUse">
<stop stop-color="#D0B7FF"/>
<stop offset="1" stop-color="#9980D1"/>
</linearGradient>
<linearGradient id="paint20_linear" x1="-1815.07" y1="10061.6" x2="-1678.94" y2="10411.8" gradientUnits="userSpaceOnUse">
<stop stop-color="#D0B7FF"/>
<stop offset="1" stop-color="#9980D1"/>
</linearGradient>
<linearGradient id="paint21_linear" x1="26445.9" y1="22228.1" x2="29769.3" y2="22228.1" gradientUnits="userSpaceOnUse">
<stop stop-color="#D0B7FF"/>
<stop offset="1" stop-color="#9980D1"/>
</linearGradient>
<linearGradient id="paint22_linear" x1="44949.1" y1="123321" x2="107239" y2="123321" gradientUnits="userSpaceOnUse">
<stop stop-color="#D0B7FF"/>
<stop offset="1" stop-color="#9980D1"/>
</linearGradient>
<linearGradient id="paint23_linear" x1="45370.8" y1="170328" x2="104374" y2="170328" gradientUnits="userSpaceOnUse">
<stop stop-color="#D0B7FF"/>
<stop offset="1" stop-color="#9980D1"/>
</linearGradient>
<linearGradient id="paint24_linear" x1="42430.8" y1="49073.3" x2="88066.7" y2="49073.3" gradientUnits="userSpaceOnUse">
<stop stop-color="#D0B7FF"/>
<stop offset="1" stop-color="#9980D1"/>
</linearGradient>
<linearGradient id="paint25_linear" x1="49834.8" y1="124984" x2="117383" y2="124984" gradientUnits="userSpaceOnUse">
<stop stop-color="#D0B7FF"/>
<stop offset="1" stop-color="#9980D1"/>
</linearGradient>
<linearGradient id="paint26_linear" x1="-94246.7" y1="124799" x2="-161786" y2="124799" gradientUnits="userSpaceOnUse">
<stop stop-color="#D0B7FF"/>
<stop offset="1" stop-color="#9980D1"/>
</linearGradient>
<linearGradient id="paint27_linear" x1="49940.2" y1="124984" x2="117493" y2="124984" gradientUnits="userSpaceOnUse">
<stop stop-color="#D0B7FF"/>
<stop offset="1" stop-color="#9980D1"/>
</linearGradient>
<linearGradient id="paint28_linear" x1="1198.08" y1="116356" x2="1207.35" y2="116356" gradientUnits="userSpaceOnUse">
<stop stop-color="#D0B7FF"/>
<stop offset="1" stop-color="#9980D1"/>
</linearGradient>
<linearGradient id="paint29_linear" x1="12532.1" y1="21758.4" x2="14755.1" y2="21758.4" gradientUnits="userSpaceOnUse">
<stop stop-color="#D0B7FF"/>
<stop offset="1" stop-color="#9980D1"/>
</linearGradient>
<linearGradient id="paint30_linear" x1="-36650.9" y1="21740.5" x2="-39079.5" y2="21740.5" gradientUnits="userSpaceOnUse">
<stop stop-color="#D0B7FF"/>
<stop offset="1" stop-color="#9980D1"/>
</linearGradient>
<linearGradient id="paint31_linear" x1="4385.83" y1="9055.48" x2="4559.9" y2="9055.48" gradientUnits="userSpaceOnUse">
<stop stop-color="#D0B7FF"/>
<stop offset="1" stop-color="#9980D1"/>
</linearGradient>
<linearGradient id="paint32_linear" x1="4385.83" y1="9625.85" x2="4559.9" y2="9625.85" gradientUnits="userSpaceOnUse">
<stop stop-color="#D0B7FF"/>
<stop offset="1" stop-color="#9980D1"/>
</linearGradient>
<linearGradient id="paint33_linear" x1="4385.83" y1="10196.2" x2="4559.9" y2="10196.2" gradientUnits="userSpaceOnUse">
<stop stop-color="#D0B7FF"/>
<stop offset="1" stop-color="#9980D1"/>
</linearGradient>
<linearGradient id="paint34_linear" x1="4385.83" y1="10766.6" x2="4559.9" y2="10766.6" gradientUnits="userSpaceOnUse">
<stop stop-color="#D0B7FF"/>
<stop offset="1" stop-color="#9980D1"/>
</linearGradient>
<linearGradient id="paint35_linear" x1="193707" y1="127048" x2="133413" y2="127048" gradientUnits="userSpaceOnUse">
<stop stop-color="#D0B7FF"/>
<stop offset="1" stop-color="#9980D1"/>
</linearGradient>
<linearGradient id="paint36_linear" x1="138645" y1="56527.6" x2="105144" y2="56527.6" gradientUnits="userSpaceOnUse">
<stop stop-color="#D0B7FF"/>
<stop offset="1" stop-color="#9980D1"/>
</linearGradient>
<linearGradient id="paint37_linear" x1="142749" y1="124799" x2="210293" y2="124799" gradientUnits="userSpaceOnUse">
<stop stop-color="#D0B7FF"/>
<stop offset="1" stop-color="#9980D1"/>
</linearGradient>
<linearGradient id="paint38_linear" x1="-1947.61" y1="124613" x2="-69504.3" y2="124613" gradientUnits="userSpaceOnUse">
<stop stop-color="#D0B7FF"/>
<stop offset="1" stop-color="#9980D1"/>
</linearGradient>
<linearGradient id="paint39_linear" x1="142838" y1="124799" x2="210379" y2="124799" gradientUnits="userSpaceOnUse">
<stop stop-color="#D0B7FF"/>
<stop offset="1" stop-color="#9980D1"/>
</linearGradient>
<linearGradient id="paint40_linear" x1="2589.7" y1="116184" x2="2599" y2="116184" gradientUnits="userSpaceOnUse">
<stop stop-color="#D0B7FF"/>
<stop offset="1" stop-color="#9980D1"/>
</linearGradient>
<linearGradient id="paint41_linear" x1="29626.4" y1="21717.1" x2="31848.4" y2="21717.1" gradientUnits="userSpaceOnUse">
<stop stop-color="#D0B7FF"/>
<stop offset="1" stop-color="#9980D1"/>
</linearGradient>
<linearGradient id="paint42_linear" x1="-19395" y1="21702.3" x2="-21824" y2="21702.3" gradientUnits="userSpaceOnUse">
<stop stop-color="#D0B7FF"/>
<stop offset="1" stop-color="#9980D1"/>
</linearGradient>
<linearGradient id="paint43_linear" x1="9390.91" y1="9041.21" x2="9564.98" y2="9041.21" gradientUnits="userSpaceOnUse">
<stop stop-color="#D0B7FF"/>
<stop offset="1" stop-color="#9980D1"/>
</linearGradient>
<linearGradient id="paint44_linear" x1="9390.91" y1="9611.66" x2="9564.98" y2="9611.66" gradientUnits="userSpaceOnUse">
<stop stop-color="#D0B7FF"/>
<stop offset="1" stop-color="#9980D1"/>
</linearGradient>
<linearGradient id="paint45_linear" x1="9390.91" y1="10182" x2="9564.98" y2="10182" gradientUnits="userSpaceOnUse">
<stop stop-color="#D0B7FF"/>
<stop offset="1" stop-color="#9980D1"/>
</linearGradient>
<linearGradient id="paint46_linear" x1="9390.91" y1="10752.3" x2="9564.98" y2="10752.3" gradientUnits="userSpaceOnUse">
<stop stop-color="#D0B7FF"/>
<stop offset="1" stop-color="#9980D1"/>
</linearGradient>
<linearGradient id="paint47_linear" x1="96645.2" y1="130183" x2="164189" y2="130183" gradientUnits="userSpaceOnUse">
<stop stop-color="#D0B7FF"/>
<stop offset="1" stop-color="#9980D1"/>
</linearGradient>
<linearGradient id="paint48_linear" x1="-47742.1" y1="129997" x2="-115279" y2="129997" gradientUnits="userSpaceOnUse">
<stop stop-color="#D0B7FF"/>
<stop offset="1" stop-color="#9980D1"/>
</linearGradient>
<linearGradient id="paint49_linear" x1="96746.6" y1="130183" x2="164294" y2="130183" gradientUnits="userSpaceOnUse">
<stop stop-color="#D0B7FF"/>
<stop offset="1" stop-color="#9980D1"/>
</linearGradient>
<linearGradient id="paint50_linear" x1="1899.2" y1="121145" x2="1908.5" y2="121145" gradientUnits="userSpaceOnUse">
<stop stop-color="#D0B7FF"/>
<stop offset="1" stop-color="#9980D1"/>
</linearGradient>
<linearGradient id="paint51_linear" x1="21150.1" y1="22771.7" x2="23373" y2="22771.7" gradientUnits="userSpaceOnUse">
<stop stop-color="#D0B7FF"/>
<stop offset="1" stop-color="#9980D1"/>
</linearGradient>
<linearGradient id="paint52_linear" x1="-27957.2" y1="22759" x2="-30386.2" y2="22759" gradientUnits="userSpaceOnUse">
<stop stop-color="#D0B7FF"/>
<stop offset="1" stop-color="#9980D1"/>
</linearGradient>
<linearGradient id="paint53_linear" x1="6907.37" y1="9455.03" x2="7081.44" y2="9455.03" gradientUnits="userSpaceOnUse">
<stop stop-color="#D0B7FF"/>
<stop offset="1" stop-color="#9980D1"/>
</linearGradient>
<linearGradient id="paint54_linear" x1="6907.37" y1="10025.5" x2="7081.44" y2="10025.5" gradientUnits="userSpaceOnUse">
<stop stop-color="#D0B7FF"/>
<stop offset="1" stop-color="#9980D1"/>
</linearGradient>
<linearGradient id="paint55_linear" x1="6907.37" y1="10595.9" x2="7081.44" y2="10595.9" gradientUnits="userSpaceOnUse">
<stop stop-color="#D0B7FF"/>
<stop offset="1" stop-color="#9980D1"/>
</linearGradient>
<linearGradient id="paint56_linear" x1="6907.37" y1="11166.3" x2="7081.44" y2="11166.3" gradientUnits="userSpaceOnUse">
<stop stop-color="#D0B7FF"/>
<stop offset="1" stop-color="#9980D1"/>
</linearGradient>
<linearGradient id="paint57_linear" x1="500.285" y1="406" x2="1425.19" y2="406" gradientUnits="userSpaceOnUse">
<stop stop-color="#BC14B8"/>
<stop offset="1" stop-color="#772F8C"/>
</linearGradient>
</defs>
</svg>
