<?xml version="1.0" encoding="UTF-8"?>
<svg fill="none" viewBox="0 0 1088 812" xmlns="http://www.w3.org/2000/svg">
<g opacity=".5">
<path d="m432.41 704.91c168.73 0 305.51-136.62 305.51-305.14s-136.78-305.14-305.51-305.14c-168.73 0-305.51 136.62-305.51 305.14s136.78 305.14 305.51 305.14z" fill="#EFDFFF"/>
<path d="m205.88 440.51c-0.696-0.658-1.543-1.136-2.466-1.392s-1.895-0.281-2.83-0.075l-3.844-3.631c4.91-5.62 7.479-12.909 7.178-20.365-0.301-7.457-3.449-14.515-8.796-19.721s-12.487-8.164-19.949-8.265-14.679 2.662-20.166 7.721c-5.486 5.059-8.825 12.029-9.328 19.475s1.868 14.801 6.624 20.552c4.756 5.752 11.536 9.46 18.944 10.364 7.408 0.903 14.88-1.067 20.879-5.507l3.998 3.778c-0.242 1.002-0.215 2.051 0.077 3.04s0.84 1.883 1.588 2.593l4.621 4.365 8.069-8.56-4.599-4.372zm-53.679-24.089c0-4.49 1.332-8.879 3.826-12.612 2.495-3.734 6.04-6.644 10.189-8.362 4.148-1.718 8.713-2.168 13.116-1.292 4.404 0.876 8.449 3.038 11.624 6.213s5.337 7.22 6.213 11.624 0.427 8.969-1.291 13.117c-1.719 4.148-4.629 7.694-8.362 10.188-3.733 2.495-8.123 3.826-12.613 3.826-2.981 1e-3 -5.934-0.585-8.689-1.726-2.754-1.14-5.257-2.812-7.366-4.921-2.108-2.108-3.78-4.611-4.921-7.366-1.14-2.755-1.727-5.707-1.726-8.689z" fill="url(#bf)"/>
<path d="m225.48 459.03-12.704-11.993-8.069 8.567 12.705 11.993c0.562 0.53 1.223 0.944 1.946 1.218 0.722 0.274 1.492 0.403 2.264 0.38 0.773-0.023 1.533-0.198 2.238-0.515 0.704-0.317 1.34-0.77 1.87-1.332 0.529-0.563 0.943-1.224 1.217-1.947 0.275-0.722 0.404-1.491 0.381-2.264-0.024-0.772-0.199-1.533-0.516-2.237-0.317-0.705-0.769-1.34-1.332-1.87z" fill="url(#au)"/>
<path d="m659.86 442.04-22.262-11.634c-0.407-0.235-0.857-0.386-1.324-0.442-0.466-0.057-0.94-0.019-1.391 0.112s-0.872 0.352-1.235 0.649c-0.364 0.298-0.664 0.666-0.882 1.082-0.218 0.417-0.349 0.873-0.386 1.341-0.037 0.469 0.021 0.94 0.171 1.385 0.15 0.446 0.388 0.856 0.701 1.207s0.693 0.635 1.118 0.835l22.27 11.634c0.818 0.427 1.772 0.511 2.652 0.235 0.881-0.277 1.615-0.892 2.042-1.71s0.512-1.772 0.235-2.652c-0.276-0.881-0.891-1.615-1.709-2.042z" fill="url(#aj)"/>
<path d="m655.47 449.26-22.262-11.634c-0.406-0.212-0.849-0.342-1.305-0.382-0.455-0.041-0.915 9e-3 -1.351 0.146-0.437 0.136-0.842 0.358-1.193 0.652-0.351 0.293-0.641 0.653-0.853 1.058-0.212 0.406-0.342 0.849-0.382 1.305-0.041 0.456 9e-3 0.915 0.146 1.352 0.136 0.436 0.358 0.842 0.652 1.193 0.293 0.351 0.653 0.64 1.058 0.852l22.263 11.634c0.819 0.428 1.774 0.513 2.656 0.236 0.882-0.276 1.617-0.892 2.045-1.711s0.514-1.774 0.237-2.656c-0.276-0.882-0.892-1.617-1.711-2.045z" fill="url(#y)"/>
<path d="m631.64 455.09 11.354 5.934c1.637 0.855 3.546 1.027 5.309 0.477 1.762-0.55 3.235-1.777 4.095-3.411l-23.7-12.389c-0.85 1.636-1.018 3.542-0.466 5.301 0.551 1.76 1.776 3.229 3.408 4.088z" fill="url(#n)"/>
<path d="m693.32 350.91c-8.166-4.265-17.551-5.589-26.578-3.749s-17.145 6.732-22.99 13.852c-5.846 7.121-9.062 16.037-9.107 25.249-0.046 9.213 3.081 18.16 8.855 25.339l-5.677 10.863c-0.55 1.052-0.659 2.278-0.304 3.41s1.145 2.077 2.196 2.627l20.539 10.717c0.521 0.273 1.09 0.44 1.676 0.493s1.177-0.011 1.738-0.186c0.562-0.176 1.083-0.461 1.534-0.838 0.451-0.378 0.824-0.84 1.096-1.362l5.67-10.863c9.193 0.65 18.33-1.887 25.873-7.184 7.542-5.296 13.03-13.029 15.54-21.898 2.51-8.868 1.888-18.33-1.76-26.794-3.648-8.463-10.101-15.412-18.271-19.676h-0.03zm-23.531 70.549-5.024 9.624c-1.02 1.936-3.14 2.831-4.739 1.995l-14.993-7.834c-1.599-0.836-2.076-3.088-1.063-5.025l5.024-9.623c-6.601-9.653-11.809-27.324-5.061-40.233 9.088-17.392 32.634-22.167 46.989-14.671 14.355 7.497 23.714 29.48 14.626 46.872-6.741 12.902-24.044 18.829-35.759 18.895z" fill="url(#e)"/>
<path d="m392.13 322.23-3.257-6.683c9.778-6.294 17.308-15.526 21.507-26.369l7.621 2.068c0.527 0.143 1.077 0.181 1.619 0.11 0.541-0.07 1.063-0.246 1.536-0.519 0.474-0.273 0.888-0.636 1.22-1.069 0.332-0.434 0.576-0.928 0.716-1.456l2.721-10.034c0.142-0.527 0.179-1.077 0.108-1.618-0.07-0.541-0.247-1.063-0.519-1.536-0.273-0.473-0.636-0.887-1.069-1.22-0.433-0.332-0.927-0.576-1.454-0.717l-8.802-2.377c0.194-6.006-0.601-12.003-2.355-17.751l7.849-3.983c0.983-0.495 1.73-1.36 2.075-2.406 0.345-1.045 0.261-2.185-0.234-3.168l-4.68-9.287c-0.498-0.982-1.365-1.727-2.411-2.071-1.047-0.344-2.187-0.258-3.171 0.238l-7.87 3.961c-5.153-6.983-11.887-12.644-19.651-16.519l2.266-7.929c0.302-1.059 0.171-2.193-0.362-3.156-0.533-0.962-1.427-1.674-2.484-1.979l-9.99-2.846c-0.525-0.15-1.073-0.195-1.615-0.133s-1.067 0.23-1.544 0.495-0.897 0.622-1.236 1.049c-0.339 0.428-0.59 0.918-0.74 1.442l-2.2 7.658c-8.367-1.04-16.86-0.138-24.822 2.633l-4.108-8.42c-0.237-0.492-0.57-0.932-0.977-1.295-0.408-0.363-0.884-0.642-1.4-0.82-0.516-0.179-1.062-0.254-1.607-0.221-0.545 0.034-1.078 0.174-1.569 0.414l-9.337 4.533c-0.491 0.239-0.929 0.572-1.291 0.98s-0.639 0.884-0.817 1.4c-0.178 0.515-0.252 1.061-0.219 1.605 0.033 0.545 0.173 1.077 0.412 1.568l4.511 9.264c-5.711 4.569-10.45 10.235-13.936 16.665l-9.61-2.604c-0.527-0.143-1.077-0.18-1.619-0.11s-1.065 0.246-1.539 0.519c-0.473 0.273-0.888 0.636-1.221 1.069-0.333 0.434-0.577 0.929-0.718 1.457l-2.744 9.997c-0.143 0.528-0.18 1.078-0.11 1.62s0.246 1.065 0.519 1.539c0.272 0.473 0.636 0.888 1.069 1.221 0.434 0.333 0.928 0.577 1.456 0.718l8.45 2.289c-1.355 8.316-0.773 16.833 1.702 24.888l-7.871 3.961c-0.982 0.498-1.727 1.365-2.071 2.412-0.344 1.046-0.258 2.186 0.238 3.17l4.68 9.286c0.496 0.982 1.362 1.727 2.407 2.071 1.046 0.344 2.185 0.259 3.167-0.237l7.871-3.961c5.488 7.42 12.756 13.341 21.132 17.216l-2.582 9.022c-0.15 0.524-0.195 1.073-0.133 1.615 0.063 0.542 0.231 1.067 0.496 1.544 0.265 0.476 0.621 0.896 1.049 1.235 0.427 0.339 0.917 0.591 1.442 0.74l9.998 2.861c0.524 0.15 1.073 0.195 1.615 0.133s1.066-0.23 1.543-0.495 0.897-0.622 1.236-1.049c0.339-0.428 0.591-0.918 0.74-1.442l2.656-9.286c5.968 0.569 11.99 0.153 17.824-1.233l3.667 7.548c0.239 0.49 0.572 0.929 0.981 1.291 0.408 0.361 0.883 0.639 1.399 0.817s1.061 0.252 1.606 0.219c0.544-0.033 1.077-0.173 1.567-0.412l9.374-4.578c0.988-0.484 1.743-1.342 2.1-2.383 0.356-1.041 0.284-2.181-0.2-3.169zm-65.715-36.632c-3.251-6.441-4.518-13.702-3.641-20.864 0.876-7.161 3.856-13.902 8.564-19.37 4.707-5.467 10.931-9.416 17.882-11.347 6.952-1.93 14.321-1.756 21.173 0.501 6.853 2.258 12.883 6.496 17.326 12.18 4.444 5.685 7.102 12.559 7.639 19.754 0.536 7.195-1.073 14.388-4.624 20.668-3.552 6.28-8.886 11.367-15.328 14.615-8.637 4.356-18.65 5.103-27.837 2.076-9.187-3.026-16.797-9.577-21.154-18.213z" fill="url(#d)" opacity=".47"/>
<path d="m368.83 177.68-1.189-2.45c3.583-2.303 6.339-5.686 7.871-9.66l2.795 0.733c0.388 0.106 0.802 0.053 1.151-0.146 0.349-0.2 0.605-0.529 0.712-0.917l0.997-3.668c0.054-0.193 0.068-0.395 0.043-0.594-0.025-0.198-0.089-0.39-0.189-0.564-0.099-0.174-0.232-0.326-0.391-0.449-0.159-0.122-0.34-0.211-0.534-0.263l-3.213-0.873c0.067-2.203-0.231-4.401-0.88-6.506l2.883-1.467c0.178-0.09 0.337-0.214 0.467-0.365 0.131-0.151 0.23-0.326 0.293-0.515 0.063-0.19 0.087-0.389 0.073-0.588-0.015-0.199-0.069-0.393-0.158-0.572l-1.717-3.403c-0.089-0.178-0.213-0.337-0.364-0.468-0.151-0.13-0.326-0.229-0.515-0.292-0.19-0.063-0.39-0.087-0.589-0.073-0.198 0.015-0.393 0.068-0.571 0.158l-2.882 1.467c-1.887-2.559-4.356-4.631-7.204-6.044l0.837-2.934c0.108-0.389 0.059-0.805-0.137-1.158-0.197-0.353-0.524-0.615-0.912-0.727l-3.668-1.042c-0.192-0.056-0.392-0.073-0.591-0.051-0.198 0.022-0.39 0.083-0.565 0.18s-0.328 0.228-0.452 0.384c-0.124 0.157-0.216 0.336-0.27 0.529l-0.807 2.809c-3.063-0.384-6.173-0.056-9.088 0.961l-1.503-3.088c-0.087-0.18-0.209-0.341-0.358-0.473-0.15-0.133-0.324-0.235-0.513-0.299-0.189-0.065-0.389-0.092-0.588-0.079-0.2 0.013-0.394 0.065-0.573 0.154l-3.426 1.665c-0.182 0.084-0.346 0.204-0.482 0.352s-0.241 0.322-0.309 0.511-0.098 0.389-0.088 0.59 0.059 0.398 0.146 0.579l1.657 3.396c-2.102 1.67-3.848 3.746-5.134 6.103l-3.514-0.954c-0.193-0.053-0.395-0.067-0.593-0.042-0.199 0.025-0.391 0.089-0.565 0.188-0.174 0.1-0.326 0.233-0.448 0.392-0.123 0.158-0.212 0.34-0.264 0.533l-0.99 3.668c-0.053 0.193-0.066 0.394-0.041 0.592 0.026 0.197 0.09 0.388 0.19 0.561 0.099 0.174 0.232 0.325 0.39 0.447s0.339 0.211 0.532 0.263l3.088 0.836c-0.489 3.04-0.274 6.152 0.63 9.096l-2.882 1.467c-0.359 0.184-0.632 0.501-0.758 0.884-0.126 0.384-0.096 0.801 0.083 1.162l1.716 3.396c0.183 0.361 0.5 0.634 0.884 0.761 0.384 0.126 0.802 0.096 1.163-0.086l2.875-1.467c2.01 2.72 4.674 4.887 7.746 6.301l-0.946 3.308c-0.056 0.192-0.073 0.393-0.051 0.591 0.022 0.199 0.083 0.391 0.18 0.565 0.097 0.175 0.227 0.329 0.384 0.453 0.157 0.123 0.336 0.215 0.528 0.269l3.668 1.049c0.388 0.111 0.804 0.064 1.158-0.131 0.353-0.196 0.615-0.523 0.727-0.911l0.968-3.403c2.186 0.209 4.392 0.058 6.529-0.448l1.349 2.759c0.085 0.182 0.204 0.346 0.352 0.482 0.148 0.135 0.322 0.24 0.511 0.309 0.189 0.068 0.39 0.098 0.59 0.088 0.201-0.01 0.398-0.059 0.579-0.146l3.426-1.665c0.364-0.169 0.646-0.475 0.785-0.852s0.123-0.793-0.044-1.158zm-24.074-13.416c-1.19-2.359-1.653-5.017-1.332-7.639 0.322-2.623 1.414-5.091 3.138-7.092 1.724-2.002 4.003-3.447 6.548-4.154 2.546-0.706 5.244-0.642 7.753 0.185 2.509 0.826 4.716 2.379 6.343 4.46s2.6 4.599 2.797 7.233c0.196 2.635-0.393 5.268-1.694 7.568-1.3 2.299-3.253 4.162-5.612 5.351-1.566 0.79-3.272 1.264-5.022 1.394-1.749 0.131-3.507-0.085-5.173-0.634s-3.208-1.421-4.537-2.565c-1.329-1.145-2.42-2.541-3.209-4.107z" fill="url(#c)"/>
<path d="m512.34 292.94-3.881-0.051c-0.634-6.037-3.166-11.718-7.232-16.225l2.75-3.066c0.376-0.431 0.569-0.991 0.539-1.562s-0.281-1.108-0.7-1.497l-4.042-3.624c-0.21-0.191-0.457-0.339-0.725-0.434-0.269-0.096-0.553-0.137-0.838-0.122-0.284 0.015-0.563 0.086-0.819 0.209-0.257 0.123-0.487 0.296-0.676 0.509l-3.169 3.528c-2.762-1.496-5.75-2.529-8.846-3.059v-4.599c0-0.584-0.232-1.143-0.645-1.556-0.412-0.413-0.972-0.644-1.556-0.644h-5.428c-0.583 0-1.143 0.231-1.556 0.644s-0.644 0.972-0.644 1.556v4.599c-4.465 0.764-8.685 2.574-12.316 5.282l-3.162-2.935c-0.426-0.382-0.985-0.583-1.558-0.56-0.572 0.023-1.113 0.269-1.508 0.685l-3.667 3.983c-0.384 0.426-0.586 0.984-0.564 1.557s0.266 1.114 0.681 1.509l3.059 2.824c-2.453 3.655-4.029 7.827-4.607 12.191l-4.892-0.073c-0.574 0-1.125 0.223-1.536 0.624-0.411 0.4-0.649 0.944-0.665 1.518l-0.073 5.428c0 0.572 0.223 1.122 0.621 1.533 0.399 0.411 0.941 0.65 1.514 0.667l5.384 0.074c0.781 3.739 2.305 7.283 4.481 10.423l-3.425 3.866c-0.378 0.431-0.573 0.993-0.543 1.565 0.031 0.573 0.283 1.111 0.704 1.501l4.042 3.623c0.431 0.376 0.991 0.569 1.562 0.539s1.108-0.281 1.497-0.7l3.051-3.404c3.555 2.574 7.653 4.298 11.978 5.04v4.599c0 0.583 0.232 1.143 0.645 1.556 0.413 0.412 0.972 0.644 1.556 0.644h5.428c0.583 0 1.143-0.232 1.556-0.644 0.413-0.413 0.644-0.973 0.644-1.556v-4.599c4.749-0.813 9.217-2.808 12.991-5.803l3.601 3.323c0.209 0.194 0.454 0.344 0.721 0.443s0.551 0.143 0.835 0.132c0.284-0.012 0.563-0.08 0.821-0.2s0.49-0.289 0.682-0.499l3.668-3.983c0.383-0.426 0.586-0.985 0.564-1.557-0.022-0.573-0.267-1.114-0.682-1.51l-3.704-3.418c1.665-2.652 2.886-5.558 3.616-8.604l4.402 0.059c0.572 0 1.122-0.223 1.533-0.621 0.411-0.399 0.65-0.942 0.667-1.514l0.073-5.428c-3e-3 -0.582-0.238-1.139-0.652-1.549s-0.973-0.638-1.555-0.637zm-32.524 22.006c-3.772 0-7.46-1.119-10.596-3.214-3.136-2.096-5.581-5.074-7.024-8.559-1.444-3.485-1.821-7.32-1.085-11.019 0.735-3.7 2.552-7.098 5.219-9.765s6.065-4.484 9.765-5.219c3.699-0.736 7.534-0.359 11.019 1.085 3.485 1.443 6.463 3.888 8.559 7.024 2.095 3.136 3.214 6.824 3.214 10.596 4e-3 2.506-0.487 4.99-1.443 7.307-0.957 2.317-2.361 4.423-4.133 6.197-1.771 1.774-3.875 3.181-6.19 4.142-2.316 0.96-4.799 1.454-7.305 1.454v-0.029z" fill="url(#b)" opacity=".33"/>
<path d="m628.89 199.13-7.438-0.11c-1.218-11.555-6.069-22.426-13.856-31.049l5.274-5.868c0.365-0.406 0.646-0.88 0.828-1.395 0.182-0.514 0.26-1.06 0.231-1.605s-0.166-1.079-0.402-1.571c-0.235-0.492-0.566-0.933-0.972-1.298l-7.732-6.946c-0.82-0.735-1.899-1.115-2.999-1.056s-2.132 0.552-2.869 1.372l-6.073 6.763c-5.287-2.876-11.012-4.859-16.944-5.869v-8.802c0-1.103-0.439-2.161-1.219-2.941s-1.837-1.218-2.94-1.218h-10.394c-0.546 0-1.087 0.108-1.591 0.317s-0.962 0.515-1.348 0.902c-0.385 0.386-0.691 0.845-0.899 1.349-0.208 0.505-0.315 1.045-0.314 1.591v8.802c-8.56 1.461-16.651 4.936-23.605 10.138l-6.058-5.597c-0.401-0.37-0.871-0.658-1.382-0.846-0.512-0.189-1.056-0.274-1.601-0.253-0.545 0.022-1.08 0.151-1.575 0.38s-0.941 0.553-1.311 0.954l-7.056 7.635c-0.745 0.81-1.139 1.883-1.095 2.983s0.522 2.138 1.33 2.886l5.868 5.406c-4.692 7.001-7.704 14.991-8.802 23.347l-9.375-0.132c-1.101-0.013-2.164 0.411-2.953 1.179-0.789 0.769-1.241 1.82-1.257 2.922l-0.147 10.394c-0.013 1.101 0.411 2.164 1.18 2.953 0.768 0.789 1.819 1.241 2.921 1.257l10.269 0.139c1.504 7.155 4.425 13.936 8.589 19.944l-6.653 7.409c-0.365 0.406-0.646 0.88-0.828 1.394-0.182 0.515-0.26 1.06-0.231 1.605 0.03 0.545 0.166 1.079 0.402 1.572 0.236 0.492 0.566 0.933 0.973 1.297l7.738 6.946c0.406 0.366 0.879 0.649 1.394 0.831s1.061 0.261 1.606 0.232c0.545-0.03 1.079-0.166 1.572-0.403 0.492-0.236 0.933-0.568 1.296-0.975l5.869-6.514c6.807 4.933 14.657 8.233 22.944 9.646v8.802c-1e-3 0.546 0.106 1.087 0.314 1.591 0.208 0.505 0.514 0.963 0.899 1.35 0.386 0.386 0.844 0.693 1.348 0.902s1.045 0.316 1.591 0.316h10.393c1.104 0 2.161-0.438 2.941-1.218s1.219-1.838 1.219-2.941v-8.802c9.098-1.554 17.657-5.375 24.888-11.113l6.895 6.367c0.4 0.37 0.87 0.658 1.382 0.846 0.512 0.189 1.055 0.275 1.6 0.253s1.081-0.151 1.576-0.38 0.94-0.553 1.31-0.953l7.049-7.644c0.37-0.4 0.658-0.869 0.847-1.381 0.19-0.511 0.276-1.055 0.255-1.6s-0.15-1.08-0.378-1.575c-0.228-0.496-0.551-0.941-0.951-1.312l-7.094-6.55c3.192-5.077 5.531-10.642 6.925-16.475l8.354 0.14c0.546 8e-3 1.088-0.091 1.595-0.292s0.969-0.5 1.361-0.881c0.391-0.38 0.703-0.834 0.918-1.335 0.216-0.501 0.33-1.04 0.337-1.585l0.147-10.394c0.01-0.547-0.087-1.09-0.287-1.599-0.2-0.508-0.498-0.973-0.877-1.366-0.38-0.393-0.833-0.708-1.335-0.925-0.501-0.218-1.041-0.334-1.587-0.343zm-62.305 42.192c-7.215 2e-3 -14.269-2.137-20.268-6.144-6-4.008-10.677-9.705-13.439-16.371-2.762-6.665-3.484-14.001-2.077-21.077 1.407-7.077 4.881-13.577 9.983-18.679s11.603-8.576 18.679-9.984c7.077-1.407 14.412-0.684 21.078 2.078 6.665 2.762 12.362 7.438 16.37 13.438s6.146 13.054 6.145 20.269c-2e-3 9.672-3.845 18.947-10.685 25.786-6.839 6.839-16.114 10.682-25.786 10.684z" fill="url(#a)" opacity=".47"/>
<path d="m499.22 141.66-2.721-0.044c-0.442-4.229-2.208-8.211-5.047-11.377l1.93-2.149c0.134-0.148 0.238-0.321 0.305-0.51 0.068-0.189 0.096-0.389 0.086-0.589-0.011-0.2-0.062-0.396-0.149-0.576-0.088-0.18-0.21-0.341-0.36-0.474l-2.831-2.545c-0.149-0.134-0.322-0.237-0.511-0.304-0.189-0.066-0.388-0.095-0.588-0.084s-0.395 0.061-0.576 0.148c-0.18 0.086-0.341 0.208-0.474 0.357l-2.201 2.472c-1.936-1.052-4.033-1.775-6.206-2.142v-3.227c0-0.403-0.159-0.789-0.444-1.074s-0.671-0.445-1.074-0.445h-3.807c-0.403 0-0.79 0.16-1.076 0.445-0.286 0.284-0.448 0.67-0.449 1.074v3.227c-3.131 0.521-6.092 1.778-8.641 3.668l-2.201-2.047c-0.146-0.136-0.318-0.242-0.505-0.311-0.187-0.07-0.387-0.102-0.586-0.095-0.2 8e-3 -0.396 0.055-0.578 0.138-0.181 0.084-0.344 0.202-0.48 0.349l-2.655 2.824c-0.136 0.147-0.241 0.319-0.31 0.506-0.069 0.188-0.101 0.387-0.093 0.587 9e-3 0.2 0.056 0.396 0.14 0.577s0.203 0.344 0.351 0.479l2.142 1.981c-1.723 2.561-2.83 5.485-3.235 8.545l-3.433-0.044c-0.398-6e-3 -0.782 0.144-1.07 0.419-0.288 0.274-0.457 0.651-0.47 1.048l-0.052 3.807c-6e-3 0.399 0.144 0.784 0.418 1.073 0.275 0.289 0.651 0.459 1.049 0.475l3.778 0.051c0.545 2.632 1.616 5.126 3.147 7.335l-2.436 2.714c-0.134 0.148-0.238 0.322-0.305 0.51s-0.096 0.388-0.086 0.588c0.01 0.199 0.06 0.395 0.146 0.576 0.086 0.18 0.207 0.342 0.355 0.475l2.839 2.546c0.301 0.268 0.696 0.407 1.099 0.385s0.78-0.203 1.05-0.503l2.135-2.384c2.495 1.803 5.371 3.01 8.406 3.529v3.227c0 0.405 0.161 0.793 0.447 1.079s0.674 0.447 1.079 0.447h3.806c0.404-2e-3 0.79-0.164 1.075-0.45 0.284-0.286 0.444-0.673 0.444-1.076v-3.227c3.333-0.568 6.47-1.968 9.117-4.071l2.524 2.332c0.146 0.137 0.318 0.243 0.506 0.312 0.187 0.07 0.387 0.102 0.587 0.093 0.2-8e-3 0.396-0.056 0.577-0.14 0.182-0.085 0.344-0.205 0.479-0.353l2.582-2.795c0.136-0.146 0.241-0.318 0.31-0.506 0.069-0.187 0.1-0.387 0.092-0.586-8e-3 -0.2-0.056-0.396-0.14-0.577-0.084-0.182-0.203-0.345-0.35-0.48l-2.597-2.398c1.168-1.859 2.025-3.896 2.538-6.03h3.074c0.397 6e-3 0.782-0.144 1.07-0.418 0.288-0.275 0.457-0.651 0.47-1.049l0.051-3.807c0-0.393-0.153-0.771-0.427-1.053s-0.647-0.446-1.04-0.458zm-22.819 15.455c-2.643 0-5.226-0.783-7.423-2.252-2.197-1.468-3.909-3.555-4.919-5.997-1.011-2.441-1.274-5.128-0.758-7.719 0.517-2.592 1.79-4.972 3.66-6.839 1.869-1.868 4.251-3.139 6.843-3.652 2.592-0.514 5.278-0.247 7.718 0.766 2.441 1.013 4.526 2.727 5.992 4.926 1.466 2.198 2.247 4.782 2.244 7.425-4e-3 3.54-1.413 6.933-3.917 9.435-2.505 2.502-5.9 3.907-9.44 3.907z" fill="url(#be)" opacity=".33"/>
<path d="m690.38 280.72-2.729-0.037c-0.442-4.235-2.217-8.221-5.068-11.384l1.929-2.149c0.134-0.149 0.237-0.322 0.304-0.511 0.066-0.189 0.095-0.388 0.084-0.588s-0.061-0.395-0.148-0.576c-0.087-0.18-0.208-0.341-0.357-0.474l-2.832-2.546c-0.301-0.268-0.696-0.407-1.099-0.385-0.402 0.022-0.78 0.203-1.05 0.503l-2.201 2.472c-1.937-1.049-4.033-1.772-6.205-2.142v-3.235c0-0.199-0.039-0.397-0.116-0.581-0.076-0.184-0.188-0.352-0.329-0.493s-0.308-0.253-0.492-0.329c-0.185-0.076-0.382-0.115-0.581-0.115h-3.815c-0.402 0-0.789 0.16-1.073 0.444-0.285 0.285-0.445 0.671-0.445 1.074v3.227c-3.129 0.525-6.09 1.782-8.641 3.668l-2.2-2.047c-0.147-0.136-0.318-0.242-0.506-0.311-0.187-0.07-0.386-0.102-0.586-0.094-0.199 7e-3 -0.396 0.054-0.577 0.138-0.182 0.083-0.345 0.201-0.481 0.348l-2.582 2.802c-0.135 0.147-0.241 0.319-0.31 0.507-0.069 0.187-0.1 0.386-0.092 0.586s0.056 0.396 0.14 0.577 0.203 0.344 0.35 0.479l2.142 1.981c-1.723 2.563-2.83 5.49-3.235 8.553l-3.432-0.052c-0.404-4e-3 -0.792 0.152-1.081 0.434s-0.454 0.667-0.46 1.07l-0.051 3.807c-6e-3 0.398 0.144 0.782 0.419 1.07 0.274 0.288 0.65 0.457 1.048 0.47l3.778 0.052c0.545 2.631 1.615 5.126 3.146 7.335l-2.435 2.714c-0.134 0.148-0.238 0.321-0.305 0.509-0.067 0.189-0.097 0.389-0.086 0.588 0.01 0.2 0.059 0.396 0.145 0.576 0.086 0.181 0.207 0.342 0.356 0.476l2.839 2.545c0.301 0.269 0.696 0.407 1.099 0.385 0.402-0.022 0.78-0.202 1.05-0.502l2.134-2.384c2.496 1.803 5.372 3.01 8.407 3.528v3.228c0 0.403 0.159 0.79 0.444 1.076 0.284 0.286 0.671 0.447 1.074 0.449h3.814c0.404-2e-3 0.79-0.163 1.074-0.449 0.285-0.286 0.445-0.673 0.445-1.076v-3.228c3.331-0.567 6.465-1.968 9.11-4.071l2.53 2.333c0.147 0.136 0.318 0.242 0.506 0.311 0.187 0.07 0.386 0.102 0.586 0.095 0.199-8e-3 0.396-0.055 0.577-0.138 0.182-0.084 0.345-0.202 0.481-0.349l2.582-2.802c0.135-0.147 0.241-0.319 0.31-0.506 0.069-0.188 0.1-0.387 0.092-0.587-8e-3 -0.199-0.056-0.396-0.14-0.577s-0.203-0.344-0.35-0.479l-2.597-2.399c1.167-1.859 2.025-3.895 2.538-6.029h3.073c0.398 6e-3 0.782-0.145 1.07-0.419s0.457-0.651 0.471-1.048l0.051-3.807c0-0.401-0.159-0.785-0.442-1.069-0.284-0.283-0.668-0.442-1.069-0.442zm-22.82 15.455c-2.641 0-5.224-0.783-7.421-2.251-2.196-1.468-3.908-3.554-4.919-5.995-1.011-2.44-1.276-5.126-0.76-7.717 0.515-2.591 1.787-4.971 3.655-6.839s4.248-3.141 6.84-3.656c2.591-0.515 5.276-0.251 7.717 0.76s4.527 2.723 5.995 4.92c1.467 2.196 2.251 4.779 2.251 7.421 0 3.542-1.408 6.94-3.913 9.445s-5.902 3.912-9.445 3.912z" fill="url(#bd)"/>
<path d="m193.47 349.74-1.189-2.449c3.579-2.305 6.334-5.684 7.871-9.654l2.795 0.734c0.192 0.052 0.393 0.066 0.591 0.04 0.198-0.025 0.389-0.09 0.562-0.189 0.173-0.1 0.325-0.232 0.447-0.39 0.122-0.159 0.211-0.339 0.263-0.532l0.997-3.667c0.054-0.193 0.068-0.394 0.043-0.593-0.025-0.198-0.09-0.389-0.189-0.563-0.1-0.173-0.233-0.325-0.391-0.446-0.159-0.122-0.34-0.211-0.534-0.262l-3.212-0.873c0.066-2.202-0.231-4.4-0.881-6.506l2.883-1.467c0.359-0.184 0.631-0.501 0.758-0.884 0.126-0.384 0.096-0.801-0.083-1.162l-1.716-3.396c-0.089-0.179-0.213-0.339-0.363-0.47-0.151-0.131-0.327-0.231-0.516-0.293-0.19-0.063-0.39-0.088-0.589-0.072-0.199 0.015-0.394 0.069-0.572 0.16l-2.882 1.467c-1.89-2.558-4.359-4.631-7.203-6.052l0.828-2.934c0.056-0.192 0.074-0.392 0.052-0.591-0.023-0.198-0.084-0.39-0.181-0.565s-0.227-0.328-0.384-0.452c-0.156-0.124-0.336-0.216-0.528-0.27l-3.668-1.049c-0.192-0.054-0.393-0.071-0.591-0.048-0.199 0.024-0.391 0.086-0.565 0.183-0.175 0.098-0.328 0.228-0.452 0.385s-0.215 0.337-0.27 0.529l-0.806 2.802c-3.063-0.381-6.173-0.052-9.089 0.961l-1.503-3.08c-0.085-0.183-0.204-0.347-0.352-0.483-0.148-0.135-0.322-0.24-0.511-0.309-0.189-0.068-0.39-0.098-0.59-0.088-0.201 0.01-0.398 0.06-0.579 0.146l-3.426 1.665c-0.182 0.085-0.346 0.206-0.482 0.354-0.136 0.149-0.241 0.323-0.309 0.513-0.069 0.189-0.099 0.391-0.089 0.592s0.06 0.398 0.147 0.58l1.658 3.389c-2.103 1.67-3.849 3.746-5.135 6.103l-3.514-0.954c-0.193-0.053-0.395-0.067-0.593-0.042-0.199 0.025-0.391 0.089-0.565 0.188-0.174 0.1-0.326 0.233-0.448 0.392-0.123 0.158-0.212 0.34-0.264 0.533l-0.99 3.668c-0.106 0.388-0.053 0.802 0.146 1.151 0.2 0.35 0.529 0.606 0.917 0.712l3.147 0.946c-0.489 3.04-0.273 6.152 0.631 9.096l-2.883 1.467c-0.178 0.089-0.337 0.213-0.467 0.364-0.131 0.151-0.23 0.326-0.293 0.516-0.062 0.189-0.087 0.389-0.073 0.588 0.015 0.199 0.069 0.393 0.158 0.571l1.717 3.404c0.09 0.178 0.214 0.337 0.366 0.467 0.152 0.131 0.328 0.23 0.518 0.292s0.391 0.085 0.59 0.07c0.2-0.016 0.394-0.071 0.572-0.162l2.876-1.467c2.01 2.718 4.671 4.887 7.738 6.308l-0.939 3.301c-0.111 0.388-0.064 0.804 0.132 1.158 0.195 0.353 0.522 0.615 0.91 0.727l3.667 1.049c0.39 0.109 0.806 0.06 1.159-0.137 0.353-0.196 0.614-0.524 0.727-0.912l0.968-3.396c2.186 0.207 4.392 0.053 6.528-0.455l1.35 2.766c0.084 0.182 0.204 0.346 0.352 0.482 0.148 0.135 0.322 0.24 0.511 0.309 0.188 0.068 0.389 0.098 0.59 0.088s0.397-0.059 0.579-0.146l3.418-1.672c0.186-0.088 0.352-0.212 0.488-0.365 0.137-0.154 0.241-0.333 0.306-0.528s0.09-0.401 0.073-0.605c-0.016-0.205-0.074-0.404-0.17-0.586zm-24.074-13.415c-1.19-2.359-1.653-5.018-1.332-7.64 0.322-2.622 1.414-5.09 3.138-7.092 1.724-2.001 4.003-3.447 6.548-4.153 2.546-0.707 5.244-0.643 7.753 0.184s4.716 2.379 6.343 4.46c1.627 2.082 2.6 4.599 2.797 7.233 0.196 2.635-0.393 5.268-1.693 7.568-1.301 2.3-3.254 4.162-5.613 5.352-1.566 0.79-3.272 1.263-5.022 1.394-1.749 0.13-3.507-0.085-5.173-0.634s-3.208-1.421-4.537-2.566-2.419-2.54-3.209-4.106z" fill="url(#bc)" opacity=".27"/>
<path d="m235.46 270.14-21.529-12.94c-0.791-0.476-1.74-0.619-2.637-0.396s-1.668 0.793-2.145 1.585c-0.477 0.791-0.619 1.74-0.396 2.637 0.222 0.897 0.792 1.669 1.584 2.145l21.536 12.939c0.392 0.252 0.831 0.423 1.291 0.502 0.459 0.079 0.93 0.065 1.384-0.042 0.454-0.106 0.882-0.302 1.259-0.576 0.376-0.275 0.694-0.622 0.934-1.022s0.398-0.843 0.463-1.305c0.066-0.461 0.038-0.932-0.082-1.382-0.119-0.451-0.328-0.873-0.613-1.241-0.286-0.369-0.642-0.676-1.049-0.904z" fill="url(#bb)"/>
<path d="m230.64 277.08-21.536-12.939c-0.393-0.252-0.831-0.422-1.291-0.501-0.459-0.08-0.93-0.066-1.384 0.041-0.454 0.106-0.882 0.302-1.259 0.577-0.376 0.274-0.694 0.621-0.934 1.021s-0.398 0.843-0.463 1.305c-0.066 0.462-0.038 0.932 0.082 1.382 0.119 0.451 0.328 0.873 0.613 1.241 0.286 0.369 0.642 0.676 1.049 0.905l21.536 12.939c0.79 0.443 1.722 0.562 2.598 0.329 0.876-0.232 1.627-0.796 2.094-1.573s0.612-1.705 0.406-2.588c-0.206-0.882-0.748-1.65-1.511-2.139z" fill="url(#ba)"/>
<path d="m206.51 281.49 11.003 6.602c1.582 0.943 3.473 1.222 5.26 0.775 1.787-0.446 3.324-1.582 4.276-3.159l-22.915-13.776c-0.472 0.784-0.785 1.653-0.921 2.557-0.136 0.905-0.093 1.827 0.128 2.715 0.221 0.887 0.614 1.723 1.158 2.458 0.544 0.736 1.227 1.357 2.011 1.828z" fill="url(#az)"/>
<path d="m274.27 181.18c-7.897-4.751-17.189-6.636-26.314-5.339-9.124 1.296-17.523 5.696-23.784 12.459s-10.001 15.476-10.592 24.673c-0.59 9.197 2.005 18.316 7.349 25.824l-6.315 10.504c-0.303 0.504-0.503 1.063-0.59 1.644s-0.058 1.174 0.084 1.744c0.143 0.57 0.396 1.106 0.746 1.579 0.349 0.472 0.789 0.87 1.293 1.173l19.804 11.92c0.504 0.303 1.062 0.504 1.644 0.591 0.581 0.087 1.174 0.059 1.744-0.083 0.571-0.143 1.108-0.396 1.58-0.747 0.472-0.35 0.87-0.79 1.172-1.295l6.316-10.503c9.14 1.202 18.415-0.782 26.264-5.618s13.792-12.229 16.828-20.933c3.036-8.705 2.981-18.19-0.157-26.858-3.138-8.669-9.167-15.991-17.072-20.735zm-27.69 69.024-5.589 9.308c-1.123 1.87-3.294 2.641-4.841 1.709l-14.502-8.714c-1.548-0.932-1.893-3.206-0.734-5.083l5.59-9.301c-6.052-10.035-10.167-27.984-2.663-40.468 10.108-16.82 33.896-20.187 47.781-11.847 13.886 8.34 21.918 30.808 11.817 47.679-7.533 12.44-25.159 17.325-36.859 16.695v0.022z" fill="url(#ay)"/>
<path d="m464.8 222c-0.695-0.657-1.54-1.134-2.462-1.39s-1.892-0.282-2.826-0.077l-3.851-3.668c4.879-5.608 7.424-12.873 7.109-20.3-0.314-7.427-3.463-14.451-8.799-19.627-5.336-5.175-12.453-8.109-19.886-8.197-7.433-0.087-14.617 2.677-20.074 7.726-5.457 5.048-8.771 11.996-9.26 19.413-0.49 7.418 1.882 14.741 6.628 20.463 4.746 5.721 11.504 9.406 18.885 10.296 7.38 0.89 14.82-1.082 20.79-5.512l3.998 3.778c-0.243 1.002-0.217 2.05 0.074 3.039s0.837 1.883 1.584 2.594l4.621 4.365 8.069-8.568-4.6-4.335zm-53.678-24.089c-7e-3 -4.5 1.321-8.901 3.817-12.646s6.047-6.666 10.203-8.391c4.157-1.726 8.732-2.179 13.146-1.303s8.469 3.043 11.652 6.225c3.182 3.182 5.348 7.237 6.225 11.652 0.876 4.414 0.422 8.989-1.303 13.146-1.726 4.156-4.646 7.707-8.391 10.203s-8.146 3.824-12.647 3.817c-6.018-0.01-11.787-2.405-16.042-6.66-4.255-4.256-6.65-10.025-6.66-16.043z" fill="url(#ax)"/>
<path d="m484.4 240.51-12.704-11.993-8.069 8.56 12.705 12c0.562 0.53 1.224 0.944 1.946 1.218 0.723 0.274 1.492 0.404 2.264 0.38 0.773-0.023 1.533-0.198 2.238-0.515s1.34-0.769 1.87-1.332c0.529-0.563 0.943-1.224 1.217-1.946 0.275-0.723 0.404-1.492 0.381-2.265-0.023-0.772-0.198-1.532-0.515-2.237s-0.77-1.34-1.333-1.87z" fill="url(#aw)"/>
<path d="m590.82 320.32c0.321-0.694 0.457-1.459 0.395-2.221s-0.319-1.495-0.748-2.129l1.768-3.96c5.576 1.779 11.596 1.577 17.04-0.573 12.638-4.907 19.166-18.462 14.575-30.272-4.592-11.809-18.551-17.391-31.189-12.469-12.639 4.921-19.167 18.462-14.575 30.272 1.815 4.618 5.15 8.481 9.455 10.951l-1.834 4.108c-0.855 0.121-1.666 0.452-2.362 0.964-0.695 0.512-1.252 1.189-1.621 1.97l-2.12 4.753 9.088 3.337 2.128-4.731zm3.667-47.011c9.903-3.851 20.847 0.528 24.448 9.785 3.602 9.257-1.518 19.871-11.421 23.722-9.902 3.851-20.853-0.528-24.455-9.777-3.602-9.25 1.489-19.879 11.399-23.73h0.029z" fill="url(#av)"/>
<path d="m581.82 340.48 5.868-13.064-9.095-3.337-5.868 13.064c-0.261 0.564-0.401 1.176-0.411 1.797s0.11 1.238 0.352 1.81c0.243 0.572 0.602 1.087 1.056 1.512 0.453 0.424 0.991 0.75 1.577 0.954 1.233 0.438 2.584 0.4 3.79-0.106s2.18-1.444 2.731-2.63z" fill="url(#at)"/>
<path d="m454.52 343.51-2.721-0.037c-0.448-4.238-2.23-8.225-5.091-11.384l1.929-2.149c0.134-0.148 0.238-0.321 0.305-0.51 0.068-0.188 0.097-0.388 0.087-0.588-0.011-0.199-0.06-0.395-0.146-0.575-0.086-0.181-0.207-0.343-0.356-0.476l-2.831-2.546c-0.301-0.268-0.696-0.406-1.099-0.384s-0.78 0.202-1.05 0.502l-2.201 2.479c-1.94-1.051-4.038-1.777-6.213-2.149v-3.22c1e-3 -0.2-0.037-0.398-0.113-0.584-0.076-0.185-0.188-0.353-0.329-0.495-0.141-0.141-0.309-0.254-0.493-0.331-0.185-0.076-0.383-0.116-0.583-0.116h-3.778c-0.2 0-0.398 0.04-0.583 0.116-0.184 0.077-0.352 0.19-0.493 0.331-0.141 0.142-0.253 0.31-0.329 0.495-0.076 0.186-0.114 0.384-0.113 0.584v3.205c-3.135 0.536-6.098 1.805-8.648 3.704l-2.201-2.046c-0.147-0.136-0.319-0.241-0.506-0.31-0.188-0.069-0.387-0.1-0.587-0.092-0.199 8e-3 -0.396 0.055-0.577 0.14-0.181 0.084-0.344 0.203-0.479 0.35l-2.582 2.795c-0.136 0.146-0.242 0.318-0.312 0.505-0.069 0.187-0.101 0.386-0.094 0.586 8e-3 0.2 0.055 0.396 0.138 0.577 0.084 0.182 0.202 0.345 0.349 0.481l2.142 1.98c-1.717 2.566-2.822 5.493-3.228 8.553l-3.433-0.051c-0.2-3e-3 -0.398 0.033-0.584 0.108-0.186 0.074-0.355 0.184-0.498 0.323-0.144 0.14-0.258 0.307-0.336 0.491-0.079 0.184-0.12 0.381-0.122 0.581l-0.059 3.807c-4e-3 0.404 0.152 0.792 0.434 1.081s0.666 0.454 1.07 0.46l3.77 0.051c0.553 2.629 1.623 5.123 3.147 7.335l-2.435 2.707c-0.269 0.301-0.407 0.696-0.385 1.099s0.202 0.78 0.502 1.05l2.831 2.545c0.301 0.269 0.696 0.407 1.099 0.385s0.781-0.202 1.051-0.502l2.141-2.384c2.494 1.808 5.37 3.017 8.406 3.536v3.227c0 0.403 0.16 0.789 0.445 1.074s0.671 0.445 1.074 0.445h3.807c0.199 0 0.397-0.04 0.581-0.116s0.351-0.188 0.492-0.329 0.253-0.309 0.33-0.493c0.076-0.184 0.115-0.381 0.115-0.581v-3.227c3.333-0.569 6.469-1.969 9.118-4.071l2.523 2.332c0.297 0.272 0.69 0.416 1.093 0.399 0.402-0.016 0.782-0.191 1.056-0.487l2.582-2.794c0.137-0.147 0.243-0.32 0.312-0.507 0.07-0.188 0.102-0.388 0.095-0.588-8e-3 -0.201-0.055-0.398-0.138-0.58-0.084-0.182-0.203-0.346-0.349-0.482l-2.597-2.399c1.169-1.857 2.024-3.894 2.531-6.029l3.073 0.044c0.398 4e-3 0.782-0.147 1.071-0.42 0.289-0.274 0.46-0.649 0.477-1.047l0.051-3.807c7e-3 -0.207-0.028-0.414-0.104-0.607-0.075-0.193-0.189-0.368-0.334-0.516-0.146-0.147-0.32-0.264-0.512-0.342s-0.398-0.116-0.605-0.112zm-22.812 15.455c-2.642 0-5.225-0.783-7.421-2.251-2.197-1.468-3.909-3.554-4.92-5.995-1.011-2.44-1.275-5.126-0.76-7.717s1.788-4.971 3.656-6.839 4.248-3.14 6.839-3.656c2.591-0.515 5.277-0.251 7.717 0.76 2.441 1.011 4.527 2.723 5.995 4.92 1.468 2.196 2.251 4.779 2.251 7.421 0 1.754-0.346 3.491-1.017 5.111-0.671 1.621-1.655 3.093-2.895 4.334-1.241 1.24-2.713 2.224-4.334 2.895-1.62 0.672-3.357 1.017-5.111 1.017z" fill="url(#as)"/>
<path d="m183.28 529.46s-13.482-7.335-4.137-28.878c0 0-12.822-17.971 0-28.893 0 0-8.545-14.671 3.448-24.94 0 0-11.098-17.34 3.924-25.988 0 0-11.575-18.059 5.633-24.654 0 0-11.486-20.157 10.688-30.331 0 0-7.291-16.87 13.526-23.941 0 0-3.727-14.627 15.939-17.385 0 0 4.951-21.338 26.656-14.223 0 0 9.822-17.941 27.066-2.809 0 0 17.524-11.949 29.121 6.814 0 0 20.289-4.988 22.005 14.671 0 0 20.774-0.998 15.169 18.044 0 0 19.651 3.756 10.497 18.793 0 0 18.675 6.125 9.11 21.015 0 0 17.363 10.731 6.507 23.245 0 0 14.516 9.719 3.572 23.722l3.821 32.054 1.387 42.948-203.93 20.736z" fill="url(#ar)"/>
<path d="m265.16 569.8c16.907 82.095-25.299-6.095-85.212-17.392 0 0-16.519-228.67 100.86-228.67 125.21 0 105.21 233 105.21 233l-92.166-9.536-28.688 22.6z" fill="url(#aq)"/>
<path d="m307.76 498.5h-53.906v58.256h53.906v-58.256z" fill="#E6E6E6"/>
<path d="m280.8 515.02c34.576 0 62.605-41.264 62.605-92.166s-28.029-92.166-62.605-92.166-62.606 41.264-62.606 92.166 28.03 92.166 62.606 92.166z" fill="#FFECFF"/>
<path d="m220.28 422.75c26.509 15.712 68.429-9.946 82.153-34.174 5.171-9.154-5.134-9.184 0 0 8.634 15.118 51.559 49.967 55.645 33.008l13.936-18.257c1.416-5.868-10.078-25.776-13.936-30.434l-37.534-30c-4.487-5.45-10.279-9.676-16.838-12.286-6.558-2.61-13.67-3.518-20.674-2.641l-31.703 3.961c-3.667-5.956-9.799 3.33-12.917 7.46l-21.044 27.829c-0.682 0.907-1.283 1.871-1.798 2.883l-25.313 24.565c-6.55 12.851 17.626 20.737 30.023 28.086z" fill="url(#ap)"/>
<path d="m252.12 527.92s25.211 24.206 54.772 0c0 0 46.944 1.02 71.297 19.277s27.83 136.51 27.83 136.51h-222.59l68.693-155.78z" fill="url(#ao)"/>
<path d="m252.98 527.2 0.161-0.146s-46.945 1.012-71.298 19.269c-24.352 18.257-27.807 136.52-27.807 136.52h222.57l-123.63-155.64z" fill="url(#an)"/>
<path d="m306.89 528.06 0.33-0.147s46.945 1.02 71.297 19.277c24.353 18.257 27.852 136.51 27.852 136.51h-222.61l123.14-155.64z" fill="url(#am)"/>
<path d="m280.81 540.24h-2.611v143.46h2.611v-143.46z" fill="url(#al)" opacity=".5"/>
<path d="m253.86 525.45s3.476 12.117 29.56 11.281c0 0-17.391 20.025-29.56 18.287 0 0-24.346-33.045 0-29.568z" fill="url(#ak)"/>
<path d="m307.85 525.12s-5.304 12.47-31.388 11.641c0 0 19.211 19.658 31.388 17.92 0 0 24.345-33.037 0-29.561z" fill="url(#ai)"/>
<path d="m291.68 576.76c3.119 0 5.648-2.529 5.648-5.648 0-3.12-2.529-5.648-5.648-5.648-3.12 0-5.649 2.528-5.649 5.648 0 3.119 2.529 5.648 5.649 5.648z" fill="url(#ah)"/>
<path d="m291.68 611.53c3.119 0 5.648-2.529 5.648-5.648 0-3.12-2.529-5.649-5.648-5.649-3.12 0-5.649 2.529-5.649 5.649 0 3.119 2.529 5.648 5.649 5.648z" fill="url(#ag)"/>
<path d="m291.68 646.31c3.119 0 5.648-2.529 5.648-5.648 0-3.12-2.529-5.648-5.648-5.648-3.12 0-5.649 2.528-5.649 5.648 0 3.119 2.529 5.648 5.649 5.648z" fill="url(#af)"/>
<path d="m291.68 681.09c3.119 0 5.648-2.529 5.648-5.648 0-3.12-2.529-5.648-5.648-5.648-3.12 0-5.649 2.528-5.649 5.648 0 3.119 2.529 5.648 5.649 5.648z" fill="url(#ae)"/>
<path d="m584.98 474.66c22.424 98.503-34.731 53.238-100.86 23.472 0 0-15.506-175.27 101.88-175.27 125.2 0 106.8 188.32 106.8 188.32l-111.3 35.649 3.476-72.163z" fill="url(#ad)"/>
<path d="m612.95 497.63h-53.906v58.255h53.906v-58.255z" fill="#E6E6E6"/>
<path d="m586 514.16c34.576 0 62.605-41.264 62.605-92.166s-28.029-92.166-62.605-92.166-62.605 41.264-62.605 92.166 28.029 92.166 62.605 92.166z" fill="#FFECFF"/>
<path d="m509.48 421.99s80.862 8.692 99.992-29.561c0 0 8.069 41.81 37.945 47.444l13.438-27.074c5.65-11.401 6.865-24.494 3.411-36.74-3.455-12.246-11.333-22.773-22.108-29.541l-26.597-16.687-14.223-2.421c-17.153-2.921-34.781 0.612-49.483 9.917l-8.113 5.135c-10.533 6.665-19.204 15.893-25.202 26.82-5.999 10.926-9.128 23.196-9.097 35.661l0.037 17.047z" fill="url(#ac)"/>
<path d="m557.3 527.05s25.211 24.206 54.779 0c0 0 46.945 1.012 71.297 19.269 24.353 18.257 27.823 136.52 27.823 136.52h-222.58l68.686-155.78z" fill="url(#ab)"/>
<path d="m558.2 526.33 0.162-0.147s-46.945 1.02-71.298 19.277-27.888 136.51-27.888 136.51h222.62l-123.6-155.64z" fill="url(#aa)"/>
<path d="m612.08 527.2 0.33-0.146s46.945 1.012 71.297 19.269c24.353 18.257 27.801 136.52 27.801 136.52h-222.57l123.14-155.64z" fill="url(#z)"/>
<path d="m586 539.37h-2.611v143.46h2.611v-143.46z" fill="url(#x)" opacity=".5"/>
<path d="m559.04 524.59s3.477 12.118 29.561 11.274c0 0-17.392 20.025-29.561 18.287 0 0-24.308-33.038 0-29.561z" fill="url(#w)"/>
<path d="m613.03 524.25s-5.303 12.47-31.387 11.641c0 0 19.218 19.658 31.387 17.919 0-7e-3 24.346-33.015 0-29.56z" fill="url(#v)"/>
<path d="m596.86 575.88c3.12 0 5.648-2.529 5.648-5.648 0-3.12-2.528-5.648-5.648-5.648-3.119 0-5.648 2.528-5.648 5.648 0 3.119 2.529 5.648 5.648 5.648z" fill="url(#u)"/>
<path d="m596.86 610.66c3.12 0 5.648-2.529 5.648-5.648s-2.528-5.648-5.648-5.648c-3.119 0-5.648 2.529-5.648 5.648s2.529 5.648 5.648 5.648z" fill="url(#t)"/>
<path d="m596.86 645.44c3.12 0 5.648-2.529 5.648-5.648s-2.528-5.648-5.648-5.648c-3.119 0-5.648 2.529-5.648 5.648s2.529 5.648 5.648 5.648z" fill="url(#s)"/>
<path d="m596.86 680.22c3.12 0 5.648-2.529 5.648-5.648s-2.528-5.648-5.648-5.648c-3.119 0-5.648 2.529-5.648 5.648s2.529 5.648 5.648 5.648z" fill="url(#r)"/>
<path d="m418.91 594.15c16.871 82.095-25.292-6.088-85.212-17.384 0 0-16.519-228.67 100.86-228.67 125.2 0 105.2 233.02 105.2 233.02l-92.159-9.535-28.695 22.577z" fill="#D7B7FF"/>
<path d="m461.51 522.86h-53.906v58.256h53.906v-58.256z" fill="#E6E6E6"/>
<path d="m434.56 539.39c34.576 0 62.606-41.265 62.606-92.166 0-50.902-28.03-92.167-62.606-92.167s-62.605 41.265-62.605 92.167c0 50.901 28.029 92.166 62.605 92.166z" fill="#FFECFF"/>
<path d="m358.04 447.22s80.862 8.693 99.992-29.56c0 0 8.069 41.81 37.945 47.436l13.357-55.263-45.213-54.779-40.886-6.953-46.945 39.991-18.25 59.128z" fill="#D7B7FF"/>
<path d="m405.87 552.28s25.211 24.206 54.779 0c0 0 46.945 1.012 71.297 19.269 24.353 18.257 27.823 136.51 27.823 136.51h-222.58l68.686-155.78z" fill="url(#q)"/>
<path d="m406.73 551.56 0.161-0.147s-46.945 1.019-71.298 19.277c-24.352 18.257-27.822 136.51-27.822 136.51h222.56l-123.6-155.64z" fill="url(#p)"/>
<path d="m460.65 552.43 0.33-0.146s46.945 1.012 71.297 19.269c24.353 18.257 27.823 136.51 27.823 136.51h-222.59l123.14-155.64z" fill="url(#o)"/>
<path d="m434.56 564.6h-2.611v143.46h2.611v-143.46z" fill="url(#m)" opacity=".5"/>
<path d="m407.61 549.82s3.477 12.118 29.561 11.274c0 0-17.392 20.025-29.561 18.287 0 0-24.345-33.038 0-29.561z" fill="url(#l)"/>
<path d="m461.6 549.48s-5.303 12.469-31.387 11.641c0 0 19.218 19.658 31.387 17.919 0 0 24.346-33.037 0-29.56z" fill="url(#k)"/>
<path d="m445.43 601.12c3.12 0 5.648-2.529 5.648-5.648 0-3.12-2.528-5.648-5.648-5.648-3.119 0-5.648 2.528-5.648 5.648 0 3.119 2.529 5.648 5.648 5.648z" fill="url(#j)"/>
<path d="m445.43 635.9c3.12 0 5.648-2.529 5.648-5.648s-2.528-5.648-5.648-5.648c-3.119 0-5.648 2.529-5.648 5.648s2.529 5.648 5.648 5.648z" fill="url(#i)"/>
<path d="m445.43 670.67c3.12 0 5.648-2.529 5.648-5.648 0-3.12-2.528-5.648-5.648-5.648-3.119 0-5.648 2.528-5.648 5.648 0 3.119 2.529 5.648 5.648 5.648z" fill="url(#h)"/>
<path d="m445.43 705.46c3.12 0 5.648-2.529 5.648-5.648s-2.528-5.648-5.648-5.648c-3.119 0-5.648 2.529-5.648 5.648s2.529 5.648 5.648 5.648z" fill="url(#g)"/>
</g>
<path d="m528.58 432.7h-51.367l-9.766 29.297h-31.152l52.93-142.19h27.148l53.223 142.19h-31.153l-9.863-29.297zm-43.457-23.73h35.547l-17.871-53.223-17.676 53.223zm97.754 53.027v-142.19h49.805c17.252 0 30.338 3.321 39.258 9.961 8.919 6.576 13.378 16.244 13.378 29.004 0 6.966-1.79 13.119-5.371 18.457-3.58 5.274-8.561 9.148-14.941 11.621 7.292 1.823 13.021 5.502 17.187 11.036 4.232 5.533 6.348 12.304 6.348 20.312 0 13.672-4.362 24.024-13.086 31.055s-21.159 10.612-37.305 10.742h-55.273zm29.297-61.914v38.379h25.098c6.901 0 12.272-1.628 16.113-4.883 3.906-3.32 5.859-7.878 5.859-13.672 0-13.021-6.738-19.629-20.215-19.824h-26.855zm0-20.703h21.68c14.778-0.261 22.168-6.153 22.168-17.676 0-6.445-1.888-11.068-5.665-13.867-3.71-2.865-9.602-4.297-17.675-4.297h-20.508v35.84zm215.23 14.746c0 13.997-2.474 26.269-7.422 36.816s-12.044 18.685-21.289 24.414c-9.179 5.73-19.726 8.594-31.64 8.594-11.784 0-22.298-2.832-31.543-8.496s-16.407-13.737-21.485-24.219c-5.078-10.547-7.649-22.656-7.715-36.328v-7.031c0-13.997 2.507-26.302 7.52-36.914 5.078-10.677 12.207-18.848 21.387-24.512 9.245-5.729 19.791-8.594 31.64-8.594s22.364 2.865 31.543 8.594c9.245 5.664 16.374 13.835 21.387 24.512 5.078 10.612 7.617 22.884 7.617 36.816v6.348zm-29.687-6.445c0-14.909-2.67-26.237-8.008-33.985-5.339-7.747-12.956-11.621-22.852-11.621-9.83 0-17.415 3.841-22.754 11.524-5.338 7.617-8.04 18.815-8.105 33.593v6.934c0 14.518 2.669 25.781 8.008 33.789 5.338 8.008 13.021 12.012 23.047 12.012 9.83 0 17.383-3.841 22.656-11.524 5.273-7.747 7.943-19.01 8.008-33.789v-6.933zm158.59-67.871v93.652c0 15.56-4.882 27.864-14.648 36.914-9.7 9.049-22.982 13.574-39.844 13.574-16.601 0-29.785-4.394-39.55-13.183-9.766-8.79-14.747-20.866-14.942-36.231v-94.727h29.297v93.848c0 9.31 2.214 16.113 6.641 20.41 4.492 4.232 10.677 6.348 18.554 6.348 16.472 0 24.838-8.659 25.098-25.977v-94.628h29.394zm131.06 23.73h-43.56v118.46h-29.29v-118.46h-42.973v-23.73h115.82v23.73z" fill="#fff"/>
<path d="m528.58 432.7h-51.367l-9.766 29.297h-31.152l52.93-142.19h27.148l53.223 142.19h-31.153l-9.863-29.297zm-43.457-23.73h35.547l-17.871-53.223-17.676 53.223zm97.754 53.027v-142.19h49.805c17.252 0 30.338 3.321 39.258 9.961 8.919 6.576 13.378 16.244 13.378 29.004 0 6.966-1.79 13.119-5.371 18.457-3.58 5.274-8.561 9.148-14.941 11.621 7.292 1.823 13.021 5.502 17.187 11.036 4.232 5.533 6.348 12.304 6.348 20.312 0 13.672-4.362 24.024-13.086 31.055s-21.159 10.612-37.305 10.742h-55.273zm29.297-61.914v38.379h25.098c6.901 0 12.272-1.628 16.113-4.883 3.906-3.32 5.859-7.878 5.859-13.672 0-13.021-6.738-19.629-20.215-19.824h-26.855zm0-20.703h21.68c14.778-0.261 22.168-6.153 22.168-17.676 0-6.445-1.888-11.068-5.665-13.867-3.71-2.865-9.602-4.297-17.675-4.297h-20.508v35.84zm215.23 14.746c0 13.997-2.474 26.269-7.422 36.816s-12.044 18.685-21.289 24.414c-9.179 5.73-19.726 8.594-31.64 8.594-11.784 0-22.298-2.832-31.543-8.496s-16.407-13.737-21.485-24.219c-5.078-10.547-7.649-22.656-7.715-36.328v-7.031c0-13.997 2.507-26.302 7.52-36.914 5.078-10.677 12.207-18.848 21.387-24.512 9.245-5.729 19.791-8.594 31.64-8.594s22.364 2.865 31.543 8.594c9.245 5.664 16.374 13.835 21.387 24.512 5.078 10.612 7.617 22.884 7.617 36.816v6.348zm-29.687-6.445c0-14.909-2.67-26.237-8.008-33.985-5.339-7.747-12.956-11.621-22.852-11.621-9.83 0-17.415 3.841-22.754 11.524-5.338 7.617-8.04 18.815-8.105 33.593v6.934c0 14.518 2.669 25.781 8.008 33.789 5.338 8.008 13.021 12.012 23.047 12.012 9.83 0 17.383-3.841 22.656-11.524 5.273-7.747 7.943-19.01 8.008-33.789v-6.933zm158.59-67.871v93.652c0 15.56-4.882 27.864-14.648 36.914-9.7 9.049-22.982 13.574-39.844 13.574-16.601 0-29.785-4.394-39.55-13.183-9.766-8.79-14.747-20.866-14.942-36.231v-94.727h29.297v93.848c0 9.31 2.214 16.113 6.641 20.41 4.492 4.232 10.677 6.348 18.554 6.348 16.472 0 24.838-8.659 25.098-25.977v-94.628h29.394zm131.06 23.73h-43.56v118.46h-29.29v-118.46h-42.973v-23.73h115.82v23.73z" fill="url(#f)"/>
<defs>
<linearGradient id="bf" x1="145.94" x2="210.5" y1="420.46" y2="420.46" gradientUnits="userSpaceOnUse">
<stop stop-color="#D0B7FF" offset="0"/>
<stop stop-color="#9980D1" offset="1"/>
</linearGradient>
<linearGradient id="au" x1="5906.9" x2="6605.3" y1="13689" y2="13689" gradientUnits="userSpaceOnUse">
<stop stop-color="#D0B7FF" offset="0"/>
<stop stop-color="#9980D1" offset="1"/>
</linearGradient>
<linearGradient id="aj" x1="25157" x2="26327" y1="11105" y2="11105" gradientUnits="userSpaceOnUse">
<stop stop-color="#D0B7FF" offset="0"/>
<stop stop-color="#9980D1" offset="1"/>
</linearGradient>
<linearGradient id="y" x1="24869" x2="26034" y1="11259" y2="11259" gradientUnits="userSpaceOnUse">
<stop stop-color="#D0B7FF" offset="0"/>
<stop stop-color="#9980D1" offset="1"/>
</linearGradient>
<linearGradient id="n" x1="20927" x2="21745" y1="9980.2" y2="9980.2" gradientUnits="userSpaceOnUse">
<stop stop-color="#D0B7FF" offset="0"/>
<stop stop-color="#9980D1" offset="1"/>
</linearGradient>
<linearGradient id="e" x1="67901" x2="76680" y1="47858" y2="47858" gradientUnits="userSpaceOnUse">
<stop stop-color="#D0B7FF" offset="0"/>
<stop stop-color="#9980D1" offset="1"/>
</linearGradient>
<linearGradient id="d" x1="292.96" x2="425.96" y1="270.08" y2="270.08" gradientUnits="userSpaceOnUse">
<stop stop-color="#C7AEF7" offset="0"/>
<stop stop-color="#C9A6FA" offset=".49"/>
<stop stop-color="#c9f" offset="1"/>
</linearGradient>
<linearGradient id="c" x1="21117" x2="24354" y1="9323.7" y2="9323.7" gradientUnits="userSpaceOnUse">
<stop stop-color="#D0B7FF" offset="0"/>
<stop stop-color="#9980D1" offset="1"/>
</linearGradient>
<linearGradient id="b" x1="41215" x2="47977" y1="26747" y2="26747" gradientUnits="userSpaceOnUse">
<stop stop-color="#D0B7FF" offset="0"/>
<stop stop-color="#9980D1" offset="1"/>
</linearGradient>
<linearGradient id="a" x1="88386" x2="113154" y1="34109" y2="34109" gradientUnits="userSpaceOnUse">
<stop stop-color="#C7AEF7" offset="0"/>
<stop stop-color="#C9A6FA" offset=".49"/>
<stop stop-color="#c9f" offset="1"/>
</linearGradient>
<linearGradient id="be" x1="29477" x2="32798" y1="8449.7" y2="8449.7" gradientUnits="userSpaceOnUse">
<stop stop-color="#D0B7FF" offset="0"/>
<stop stop-color="#9980D1" offset="1"/>
</linearGradient>
<linearGradient id="bd" x1="42526" x2="45846" y1="17938" y2="17938" gradientUnits="userSpaceOnUse">
<stop stop-color="#D0B7FF" offset="0"/>
<stop stop-color="#9980D1" offset="1"/>
</linearGradient>
<linearGradient id="bc" x1="9286.4" x2="12524" y1="20923" y2="20923" gradientUnits="userSpaceOnUse">
<stop stop-color="#C7AEF7" offset="0"/>
<stop stop-color="#C9A6FA" offset=".49"/>
<stop stop-color="#c9f" offset="1"/>
</linearGradient>
<linearGradient id="bb" x1="7568.6" x2="8679.6" y1="6974.1" y2="6974.1" gradientUnits="userSpaceOnUse">
<stop stop-color="#D0B7FF" offset="0"/>
<stop stop-color="#9980D1" offset="1"/>
</linearGradient>
<linearGradient id="ba" x1="7354.6" x2="8462.3" y1="7151.6" y2="7151.6" gradientUnits="userSpaceOnUse">
<stop stop-color="#D0B7FF" offset="0"/>
<stop stop-color="#9980D1" offset="1"/>
</linearGradient>
<linearGradient id="az" x1="6179.7" x2="6959.3" y1="6364.8" y2="6364.8" gradientUnits="userSpaceOnUse">
<stop stop-color="#D0B7FF" offset="0"/>
<stop stop-color="#9980D1" offset="1"/>
</linearGradient>
<linearGradient id="ay" x1="21401" x2="30177" y1="25652" y2="25652" gradientUnits="userSpaceOnUse">
<stop stop-color="#D0B7FF" offset="0"/>
<stop stop-color="#9980D1" offset="1"/>
</linearGradient>
<linearGradient id="ax" x1="34375" x2="40071" y1="16598" y2="16598" gradientUnits="userSpaceOnUse">
<stop stop-color="#D0B7FF" offset="0"/>
<stop stop-color="#9980D1" offset="1"/>
</linearGradient>
<linearGradient id="aw" x1="14152" x2="14850" y1="6869.1" y2="6869.1" gradientUnits="userSpaceOnUse">
<stop stop-color="#D0B7FF" offset="0"/>
<stop stop-color="#9980D1" offset="1"/>
</linearGradient>
<linearGradient id="av" x1="-4721.5" x2="-3491.7" y1="26580" y2="29744" gradientUnits="userSpaceOnUse">
<stop stop-color="#D0B7FF" offset="0"/>
<stop stop-color="#9980D1" offset="1"/>
</linearGradient>
<linearGradient id="at" x1="-1815.1" x2="-1678.9" y1="10062" y2="10412" gradientUnits="userSpaceOnUse">
<stop stop-color="#D0B7FF" offset="0"/>
<stop stop-color="#9980D1" offset="1"/>
</linearGradient>
<linearGradient id="as" x1="26446" x2="29769" y1="22228" y2="22228" gradientUnits="userSpaceOnUse">
<stop stop-color="#D0B7FF" offset="0"/>
<stop stop-color="#9980D1" offset="1"/>
</linearGradient>
<linearGradient id="ar" x1="44949" x2="107239" y1="123321" y2="123321" gradientUnits="userSpaceOnUse">
<stop stop-color="#D0B7FF" offset="0"/>
<stop stop-color="#9980D1" offset="1"/>
</linearGradient>
<linearGradient id="aq" x1="45371" x2="104374" y1="170328" y2="170328" gradientUnits="userSpaceOnUse">
<stop stop-color="#D0B7FF" offset="0"/>
<stop stop-color="#9980D1" offset="1"/>
</linearGradient>
<linearGradient id="ap" x1="42431" x2="88067" y1="49073" y2="49073" gradientUnits="userSpaceOnUse">
<stop stop-color="#D0B7FF" offset="0"/>
<stop stop-color="#9980D1" offset="1"/>
</linearGradient>
<linearGradient id="ao" x1="49835" x2="117383" y1="124984" y2="124984" gradientUnits="userSpaceOnUse">
<stop stop-color="#D0B7FF" offset="0"/>
<stop stop-color="#9980D1" offset="1"/>
</linearGradient>
<linearGradient id="an" x1="-94247" x2="-161786" y1="124799" y2="124799" gradientUnits="userSpaceOnUse">
<stop stop-color="#D0B7FF" offset="0"/>
<stop stop-color="#9980D1" offset="1"/>
</linearGradient>
<linearGradient id="am" x1="49940" x2="117493" y1="124984" y2="124984" gradientUnits="userSpaceOnUse">
<stop stop-color="#D0B7FF" offset="0"/>
<stop stop-color="#9980D1" offset="1"/>
</linearGradient>
<linearGradient id="al" x1="1198.1" x2="1207.4" y1="116356" y2="116356" gradientUnits="userSpaceOnUse">
<stop stop-color="#D0B7FF" offset="0"/>
<stop stop-color="#9980D1" offset="1"/>
</linearGradient>
<linearGradient id="ak" x1="12532" x2="14755" y1="21758" y2="21758" gradientUnits="userSpaceOnUse">
<stop stop-color="#D0B7FF" offset="0"/>
<stop stop-color="#9980D1" offset="1"/>
</linearGradient>
<linearGradient id="ai" x1="-36651" x2="-39080" y1="21740" y2="21740" gradientUnits="userSpaceOnUse">
<stop stop-color="#D0B7FF" offset="0"/>
<stop stop-color="#9980D1" offset="1"/>
</linearGradient>
<linearGradient id="ah" x1="4385.8" x2="4559.9" y1="9055.5" y2="9055.5" gradientUnits="userSpaceOnUse">
<stop stop-color="#D0B7FF" offset="0"/>
<stop stop-color="#9980D1" offset="1"/>
</linearGradient>
<linearGradient id="ag" x1="4385.8" x2="4559.9" y1="9625.8" y2="9625.8" gradientUnits="userSpaceOnUse">
<stop stop-color="#D0B7FF" offset="0"/>
<stop stop-color="#9980D1" offset="1"/>
</linearGradient>
<linearGradient id="af" x1="4385.8" x2="4559.9" y1="10196" y2="10196" gradientUnits="userSpaceOnUse">
<stop stop-color="#D0B7FF" offset="0"/>
<stop stop-color="#9980D1" offset="1"/>
</linearGradient>
<linearGradient id="ae" x1="4385.8" x2="4559.9" y1="10767" y2="10767" gradientUnits="userSpaceOnUse">
<stop stop-color="#D0B7FF" offset="0"/>
<stop stop-color="#9980D1" offset="1"/>
</linearGradient>
<linearGradient id="ad" x1="193707" x2="133413" y1="127048" y2="127048" gradientUnits="userSpaceOnUse">
<stop stop-color="#D0B7FF" offset="0"/>
<stop stop-color="#9980D1" offset="1"/>
</linearGradient>
<linearGradient id="ac" x1="138645" x2="105144" y1="56528" y2="56528" gradientUnits="userSpaceOnUse">
<stop stop-color="#D0B7FF" offset="0"/>
<stop stop-color="#9980D1" offset="1"/>
</linearGradient>
<linearGradient id="ab" x1="142749" x2="210293" y1="124799" y2="124799" gradientUnits="userSpaceOnUse">
<stop stop-color="#D0B7FF" offset="0"/>
<stop stop-color="#9980D1" offset="1"/>
</linearGradient>
<linearGradient id="aa" x1="-1947.6" x2="-69504" y1="124613" y2="124613" gradientUnits="userSpaceOnUse">
<stop stop-color="#D0B7FF" offset="0"/>
<stop stop-color="#9980D1" offset="1"/>
</linearGradient>
<linearGradient id="z" x1="142838" x2="210379" y1="124799" y2="124799" gradientUnits="userSpaceOnUse">
<stop stop-color="#D0B7FF" offset="0"/>
<stop stop-color="#9980D1" offset="1"/>
</linearGradient>
<linearGradient id="x" x1="2589.7" x2="2599" y1="116184" y2="116184" gradientUnits="userSpaceOnUse">
<stop stop-color="#D0B7FF" offset="0"/>
<stop stop-color="#9980D1" offset="1"/>
</linearGradient>
<linearGradient id="w" x1="29626" x2="31848" y1="21717" y2="21717" gradientUnits="userSpaceOnUse">
<stop stop-color="#D0B7FF" offset="0"/>
<stop stop-color="#9980D1" offset="1"/>
</linearGradient>
<linearGradient id="v" x1="-19395" x2="-21824" y1="21702" y2="21702" gradientUnits="userSpaceOnUse">
<stop stop-color="#D0B7FF" offset="0"/>
<stop stop-color="#9980D1" offset="1"/>
</linearGradient>
<linearGradient id="u" x1="9390.9" x2="9565" y1="9041.2" y2="9041.2" gradientUnits="userSpaceOnUse">
<stop stop-color="#D0B7FF" offset="0"/>
<stop stop-color="#9980D1" offset="1"/>
</linearGradient>
<linearGradient id="t" x1="9390.9" x2="9565" y1="9611.7" y2="9611.7" gradientUnits="userSpaceOnUse">
<stop stop-color="#D0B7FF" offset="0"/>
<stop stop-color="#9980D1" offset="1"/>
</linearGradient>
<linearGradient id="s" x1="9390.9" x2="9565" y1="10182" y2="10182" gradientUnits="userSpaceOnUse">
<stop stop-color="#D0B7FF" offset="0"/>
<stop stop-color="#9980D1" offset="1"/>
</linearGradient>
<linearGradient id="r" x1="9390.9" x2="9565" y1="10752" y2="10752" gradientUnits="userSpaceOnUse">
<stop stop-color="#D0B7FF" offset="0"/>
<stop stop-color="#9980D1" offset="1"/>
</linearGradient>
<linearGradient id="q" x1="96645" x2="164189" y1="130183" y2="130183" gradientUnits="userSpaceOnUse">
<stop stop-color="#D0B7FF" offset="0"/>
<stop stop-color="#9980D1" offset="1"/>
</linearGradient>
<linearGradient id="p" x1="-47742" x2="-115279" y1="1.3e5" y2="1.3e5" gradientUnits="userSpaceOnUse">
<stop stop-color="#D0B7FF" offset="0"/>
<stop stop-color="#9980D1" offset="1"/>
</linearGradient>
<linearGradient id="o" x1="96747" x2="164294" y1="130183" y2="130183" gradientUnits="userSpaceOnUse">
<stop stop-color="#D0B7FF" offset="0"/>
<stop stop-color="#9980D1" offset="1"/>
</linearGradient>
<linearGradient id="m" x1="1899.2" x2="1908.5" y1="121145" y2="121145" gradientUnits="userSpaceOnUse">
<stop stop-color="#D0B7FF" offset="0"/>
<stop stop-color="#9980D1" offset="1"/>
</linearGradient>
<linearGradient id="l" x1="21150" x2="23373" y1="22772" y2="22772" gradientUnits="userSpaceOnUse">
<stop stop-color="#D0B7FF" offset="0"/>
<stop stop-color="#9980D1" offset="1"/>
</linearGradient>
<linearGradient id="k" x1="-27957" x2="-30386" y1="22759" y2="22759" gradientUnits="userSpaceOnUse">
<stop stop-color="#D0B7FF" offset="0"/>
<stop stop-color="#9980D1" offset="1"/>
</linearGradient>
<linearGradient id="j" x1="6907.4" x2="7081.4" y1="9455" y2="9455" gradientUnits="userSpaceOnUse">
<stop stop-color="#D0B7FF" offset="0"/>
<stop stop-color="#9980D1" offset="1"/>
</linearGradient>
<linearGradient id="i" x1="6907.4" x2="7081.4" y1="10026" y2="10026" gradientUnits="userSpaceOnUse">
<stop stop-color="#D0B7FF" offset="0"/>
<stop stop-color="#9980D1" offset="1"/>
</linearGradient>
<linearGradient id="h" x1="6907.4" x2="7081.4" y1="10596" y2="10596" gradientUnits="userSpaceOnUse">
<stop stop-color="#D0B7FF" offset="0"/>
<stop stop-color="#9980D1" offset="1"/>
</linearGradient>
<linearGradient id="g" x1="6907.4" x2="7081.4" y1="11166" y2="11166" gradientUnits="userSpaceOnUse">
<stop stop-color="#D0B7FF" offset="0"/>
<stop stop-color="#9980D1" offset="1"/>
</linearGradient>
<linearGradient id="f" x1="500.28" x2="1425.2" y1="406" y2="406" gradientUnits="userSpaceOnUse">
<stop stop-color="#BC14B8" offset="0"/>
<stop stop-color="#772F8C" offset="1"/>
</linearGradient>
</defs>
</svg>
